<svg width="526" height="242" viewBox="0 0 526 242" fill="none" xmlns="http://www.w3.org/2000/svg">
<g clip-path="url(#clip0_875_73331)">
<rect width="526" height="242" fill="white"/>
<g filter="url(#filter0_d_875_73331)">
<g clip-path="url(#clip1_875_73331)">
<path d="M22 -2C22 -10.8366 29.1634 -18 38 -18H486C494.837 -18 502 -10.8366 502 -2V238C502 246.837 494.837 254 486 254H38C29.1635 254 22 246.837 22 238V-2Z" fill="#F2F2F2"/>
<g clip-path="url(#clip2_875_73331)">
<g clip-path="url(#clip3_875_73331)">
<circle cx="70" cy="51" r="24" fill="#F2F2F2"/>
<mask id="mask0_875_73331" style="mask-type:luminance" maskUnits="userSpaceOnUse" x="46" y="27" width="48" height="48">
<circle cx="70" cy="51" r="24" fill="white"/>
</mask>
<g mask="url(#mask0_875_73331)">
<path fill-rule="evenodd" clip-rule="evenodd" d="M69.5255 53.8074C64.8588 53.8074 60.9922 49.9421 60.9922 45.2771C60.9922 40.612 64.8588 36.7467 69.5255 36.7467C74.1921 36.7467 78.0588 40.612 78.0588 45.2771C78.0588 49.9421 74.3255 53.8074 69.5255 53.8074Z" fill="#C7C7C7"/>
<path d="M63.6573 74.9849V66.0547C60.9906 66.5878 59.7906 67.9207 59.524 70.7197L59.3906 74.9849H63.6573Z" fill="#C7C7C7"/>
<path d="M59.3916 75L59.525 70.7348C59.7916 67.9358 60.9916 66.6029 63.6583 66.0698V75H76.1916V66.0698C78.8582 66.6029 80.0582 67.9358 80.3249 70.7348L80.4582 75H86.7249C86.1915 69.8018 84.9915 63.0042 82.8582 60.3384C81.3915 58.4724 79.7916 57.4061 78.1916 56.873C76.5916 56.3398 75.7916 56.0732 69.7916 56.0732C63.7916 56.0732 61.6583 57.0063 61.6583 57.0063C60.0583 57.5394 58.4583 58.6057 57.125 60.4717C54.8583 63.0042 53.6583 69.9351 53.125 75H59.3916Z" fill="#C7C7C7"/>
<path d="M80.459 74.9849L80.3257 70.7197C80.059 67.9207 78.859 66.5878 76.1924 66.0547V74.9849H80.459Z" fill="#C7C7C7"/>
<path d="M70 27.5C82.9789 27.5 93.5 38.0182 93.5 50.9922C93.4998 63.966 82.9787 74.4834 70 74.4834C57.0213 74.4834 46.5002 63.966 46.5 50.9922C46.5 38.0182 57.0211 27.5 70 27.5Z" stroke="#C7C7C7"/>
</g>
</g>
</g>
<path d="M123.096 42.154C122.265 42.154 121.537 41.9767 120.912 41.622C120.296 41.2673 119.82 40.7633 119.484 40.11C119.148 39.4567 118.98 38.6867 118.98 37.8V32.2H120.66V37.8C120.66 38.3787 120.758 38.878 120.954 39.298C121.159 39.718 121.444 40.0493 121.808 40.292C122.172 40.5253 122.601 40.642 123.096 40.642C123.591 40.642 124.02 40.5253 124.384 40.292C124.757 40.0493 125.042 39.718 125.238 39.298C125.434 38.878 125.532 38.3787 125.532 37.8V32.2H127.212V37.8C127.212 38.6867 127.044 39.4567 126.708 40.11C126.381 40.7633 125.91 41.2673 125.294 41.622C124.678 41.9767 123.945 42.154 123.096 42.154ZM131.614 42.14C131.017 42.14 130.457 42.0607 129.934 41.902C129.421 41.734 128.977 41.496 128.604 41.188L129.346 40.138C129.813 40.4273 130.214 40.6327 130.55 40.754C130.895 40.8753 131.245 40.936 131.6 40.936C132.02 40.936 132.361 40.8473 132.622 40.67C132.883 40.4927 133.014 40.264 133.014 39.984C133.014 39.7693 132.935 39.6013 132.776 39.48C132.627 39.3493 132.379 39.2513 132.034 39.186L130.802 38.976C130.121 38.8453 129.612 38.6213 129.276 38.304C128.94 37.9867 128.772 37.5667 128.772 37.044C128.772 36.6053 128.884 36.2273 129.108 35.91C129.341 35.5833 129.659 35.3313 130.06 35.154C130.471 34.9673 130.947 34.874 131.488 34.874C131.973 34.874 132.445 34.944 132.902 35.084C133.359 35.224 133.807 35.434 134.246 35.714L133.504 36.764C133.149 36.5307 132.795 36.3627 132.44 36.26C132.095 36.148 131.745 36.092 131.39 36.092C131.026 36.092 130.732 36.1667 130.508 36.316C130.293 36.456 130.186 36.652 130.186 36.904C130.186 37.128 130.256 37.3007 130.396 37.422C130.545 37.534 130.802 37.618 131.166 37.674L132.412 37.912C133.112 38.0333 133.63 38.2573 133.966 38.584C134.311 38.9013 134.484 39.326 134.484 39.858C134.484 40.2873 134.358 40.6747 134.106 41.02C133.854 41.3653 133.513 41.6407 133.084 41.846C132.655 42.042 132.165 42.14 131.614 42.14ZM139.263 42.14C138.591 42.14 137.985 41.9813 137.443 41.664C136.902 41.3373 136.473 40.9033 136.155 40.362C135.838 39.8113 135.679 39.1907 135.679 38.5C135.679 37.8093 135.829 37.1933 136.127 36.652C136.426 36.1107 136.832 35.6813 137.345 35.364C137.868 35.0373 138.447 34.874 139.081 34.874C139.735 34.874 140.309 35.0327 140.803 35.35C141.307 35.6673 141.699 36.0967 141.979 36.638C142.269 37.1793 142.413 37.8 142.413 38.5V38.878H137.233C137.289 39.2607 137.411 39.6013 137.597 39.9C137.793 40.1893 138.041 40.418 138.339 40.586C138.647 40.754 138.979 40.838 139.333 40.838C139.66 40.838 139.968 40.782 140.257 40.67C140.556 40.5487 140.803 40.3853 140.999 40.18L142.035 41.118C141.606 41.4727 141.167 41.734 140.719 41.902C140.281 42.0607 139.795 42.14 139.263 42.14ZM137.247 37.898H140.915C140.859 37.562 140.743 37.2633 140.565 37.002C140.397 36.7407 140.183 36.5353 139.921 36.386C139.669 36.2367 139.389 36.162 139.081 36.162C138.773 36.162 138.489 36.2367 138.227 36.386C137.975 36.526 137.765 36.7267 137.597 36.988C137.429 37.2493 137.313 37.5527 137.247 37.898ZM144.027 42V34.986H145.609V36.498C145.814 35.966 146.08 35.56 146.407 35.28C146.734 35 147.112 34.86 147.541 34.86C147.672 34.8693 147.788 34.8833 147.891 34.902C147.994 34.9113 148.106 34.944 148.227 35V36.386C148.106 36.33 147.966 36.288 147.807 36.26C147.658 36.232 147.508 36.218 147.359 36.218C146.976 36.218 146.631 36.3207 146.323 36.526C146.024 36.7313 145.786 37.016 145.609 37.38V42H144.027Z" fill="#151515"/>
<path d="M158.836 41.5V34.036L157.492 34.636V33.844L159.16 33.1H159.7V41.5H158.836ZM162.18 41.596C162.004 41.596 161.852 41.532 161.724 41.404C161.604 41.276 161.544 41.124 161.544 40.948C161.544 40.764 161.604 40.612 161.724 40.492C161.852 40.364 162.004 40.3 162.18 40.3C162.356 40.3 162.504 40.364 162.624 40.492C162.752 40.612 162.816 40.764 162.816 40.948C162.816 41.124 162.752 41.276 162.624 41.404C162.504 41.532 162.356 41.596 162.18 41.596ZM162.18 36.832C162.004 36.832 161.852 36.768 161.724 36.64C161.604 36.512 161.544 36.36 161.544 36.184C161.544 36 161.604 35.848 161.724 35.728C161.852 35.6 162.004 35.536 162.18 35.536C162.356 35.536 162.504 35.6 162.624 35.728C162.752 35.848 162.816 36 162.816 36.184C162.816 36.36 162.752 36.512 162.624 36.64C162.504 36.768 162.356 36.832 162.18 36.832ZM167.064 41.632C166.488 41.632 165.948 41.532 165.444 41.332C164.948 41.132 164.508 40.836 164.124 40.444L164.7 39.88C165.052 40.232 165.412 40.488 165.78 40.648C166.156 40.8 166.58 40.876 167.052 40.876C167.46 40.876 167.82 40.804 168.132 40.66C168.452 40.516 168.7 40.316 168.876 40.06C169.052 39.804 169.14 39.512 169.14 39.184C169.14 38.872 169.06 38.596 168.9 38.356C168.748 38.108 168.536 37.916 168.264 37.78C167.992 37.644 167.68 37.576 167.328 37.576H166.332V36.832H167.292C167.748 36.832 168.116 36.692 168.396 36.412C168.684 36.132 168.828 35.768 168.828 35.32C168.828 35.024 168.748 34.756 168.588 34.516C168.428 34.276 168.208 34.088 167.928 33.952C167.656 33.808 167.348 33.736 167.004 33.736C166.572 33.736 166.184 33.816 165.84 33.976C165.504 34.128 165.16 34.388 164.808 34.756L164.232 34.18C164.608 33.78 165.032 33.48 165.504 33.28C165.976 33.072 166.48 32.968 167.016 32.968C167.528 32.968 167.984 33.068 168.384 33.268C168.792 33.468 169.112 33.744 169.344 34.096C169.576 34.44 169.692 34.832 169.692 35.272C169.692 35.712 169.548 36.108 169.26 36.46C168.972 36.804 168.592 37.044 168.12 37.18C168.688 37.308 169.144 37.556 169.488 37.924C169.832 38.292 170.004 38.72 170.004 39.208C170.004 39.672 169.876 40.088 169.62 40.456C169.372 40.824 169.024 41.112 168.576 41.32C168.136 41.528 167.632 41.632 167.064 41.632ZM174.554 41.632C173.914 41.632 173.346 41.448 172.85 41.08C172.362 40.712 171.978 40.204 171.698 39.556C171.418 38.9 171.278 38.148 171.278 37.3C171.278 36.444 171.418 35.692 171.698 35.044C171.978 34.396 172.362 33.888 172.85 33.52C173.346 33.152 173.914 32.968 174.554 32.968C175.194 32.968 175.758 33.152 176.246 33.52C176.742 33.888 177.13 34.396 177.41 35.044C177.69 35.692 177.83 36.444 177.83 37.3C177.83 38.148 177.69 38.9 177.41 39.556C177.13 40.204 176.742 40.712 176.246 41.08C175.758 41.448 175.194 41.632 174.554 41.632ZM174.554 40.852C175.042 40.852 175.462 40.708 175.814 40.42C176.174 40.124 176.454 39.712 176.654 39.184C176.854 38.648 176.954 38.02 176.954 37.3C176.954 36.58 176.854 35.956 176.654 35.428C176.454 34.892 176.174 34.48 175.814 34.192C175.462 33.896 175.042 33.748 174.554 33.748C174.074 33.748 173.654 33.896 173.294 34.192C172.934 34.48 172.654 34.892 172.454 35.428C172.254 35.956 172.154 36.58 172.154 37.3C172.154 38.02 172.254 38.648 172.454 39.184C172.654 39.712 172.934 40.124 173.294 40.42C173.654 40.708 174.074 40.852 174.554 40.852ZM182.384 41.5V33.1H185.852C186.396 33.1 186.868 33.204 187.268 33.412C187.668 33.612 187.976 33.9 188.192 34.276C188.416 34.644 188.528 35.08 188.528 35.584C188.528 36.08 188.416 36.516 188.192 36.892C187.976 37.268 187.668 37.56 187.268 37.768C186.868 37.968 186.396 38.068 185.852 38.068H183.308V41.5H182.384ZM183.308 37.276H185.744C186.328 37.276 186.784 37.124 187.112 36.82C187.44 36.516 187.604 36.104 187.604 35.584C187.604 35.064 187.44 34.656 187.112 34.36C186.784 34.064 186.328 33.916 185.744 33.916H183.308V37.276ZM190.236 41.5V33.1H191.52L194.328 39.076L197.136 33.1H198.42V41.5H197.544V34.192L194.328 40.9L191.1 34.168V41.5H190.236Z" fill="#151515"/>
<path d="M118 62C118 58.6863 120.686 56 124 56H472C475.314 56 478 58.6863 478 62V90C478 93.3137 475.314 96 472 96H124C120.686 96 118 93.3137 118 90V62Z" fill="#0066CC"/>
<path d="M127.424 82V70.8H132.016C132.731 70.8 133.355 70.9387 133.888 71.216C134.421 71.4827 134.837 71.856 135.136 72.336C135.435 72.816 135.584 73.3813 135.584 74.032C135.584 74.7787 135.376 75.4187 134.96 75.952C134.544 76.4747 133.973 76.8427 133.248 77.056L135.632 82H134.272L132 77.216H128.656V82H127.424ZM128.656 76.192H131.92C132.656 76.192 133.243 76 133.68 75.616C134.128 75.2213 134.352 74.6987 134.352 74.048C134.352 73.3867 134.128 72.864 133.68 72.48C133.243 72.0853 132.656 71.888 131.92 71.888H128.656V76.192ZM140.187 82.128C139.632 82.128 139.142 82.0053 138.715 81.76C138.288 81.5147 137.952 81.1733 137.707 80.736C137.472 80.2987 137.355 79.7973 137.355 79.232V74.192H138.539V78.896C138.539 79.5893 138.726 80.1387 139.099 80.544C139.472 80.9493 139.979 81.152 140.619 81.152C141.056 81.152 141.446 81.0507 141.787 80.848C142.139 80.6453 142.432 80.352 142.667 79.968V74.192H143.835V82H142.667V80.736C142.368 81.1947 142.011 81.5413 141.595 81.776C141.19 82.0107 140.72 82.128 140.187 82.128ZM146.231 82V74.192H147.399V75.456C147.698 74.9867 148.055 74.64 148.471 74.416C148.887 74.1813 149.357 74.064 149.879 74.064C150.445 74.064 150.935 74.1867 151.351 74.432C151.778 74.6667 152.109 75.0027 152.343 75.44C152.589 75.8667 152.711 76.368 152.711 76.944V82H151.543V77.28C151.543 76.5867 151.351 76.0427 150.967 75.648C150.594 75.2427 150.087 75.04 149.447 75.04C149.021 75.04 148.631 75.1413 148.279 75.344C147.927 75.5467 147.634 75.8453 147.399 76.24V82H146.231ZM158.794 82V74.192H159.962V75.792C160.164 75.248 160.452 74.8267 160.826 74.528C161.21 74.2187 161.647 74.064 162.138 74.064C162.276 74.064 162.404 74.0747 162.522 74.096C162.639 74.1067 162.756 74.1333 162.874 74.176V75.232C162.746 75.1893 162.607 75.1573 162.458 75.136C162.319 75.104 162.186 75.088 162.058 75.088C161.578 75.088 161.156 75.2267 160.794 75.504C160.442 75.7813 160.164 76.1707 159.962 76.672V82H158.794ZM167.39 82.128C166.665 82.128 166.014 81.952 165.438 81.6C164.862 81.248 164.409 80.768 164.078 80.16C163.748 79.552 163.582 78.864 163.582 78.096C163.582 77.328 163.748 76.64 164.078 76.032C164.409 75.424 164.862 74.944 165.438 74.592C166.014 74.24 166.665 74.064 167.39 74.064C168.105 74.064 168.745 74.24 169.31 74.592C169.886 74.944 170.34 75.424 170.67 76.032C171.001 76.64 171.166 77.328 171.166 78.096C171.166 78.864 171.001 79.552 170.67 80.16C170.34 80.768 169.886 81.248 169.31 81.6C168.745 81.952 168.105 82.128 167.39 82.128ZM167.374 81.104C167.886 81.104 168.34 80.976 168.734 80.72C169.129 80.4533 169.438 80.0907 169.662 79.632C169.897 79.1733 170.014 78.6613 170.014 78.096C170.014 77.52 169.897 77.008 169.662 76.56C169.438 76.1013 169.129 75.744 168.734 75.488C168.34 75.2213 167.886 75.088 167.374 75.088C166.862 75.088 166.409 75.2213 166.014 75.488C165.62 75.744 165.305 76.1013 165.07 76.56C164.846 77.008 164.734 77.52 164.734 78.096C164.734 78.6613 164.846 79.1733 165.07 79.632C165.305 80.0907 165.62 80.4533 166.014 80.72C166.409 80.976 166.862 81.104 167.374 81.104ZM176.672 82.128C175.946 82.128 175.296 81.952 174.72 81.6C174.144 81.248 173.69 80.768 173.36 80.16C173.029 79.552 172.864 78.864 172.864 78.096C172.864 77.328 173.029 76.64 173.36 76.032C173.69 75.424 174.144 74.944 174.72 74.592C175.296 74.24 175.946 74.064 176.672 74.064C177.386 74.064 178.026 74.24 178.592 74.592C179.168 74.944 179.621 75.424 179.952 76.032C180.282 76.64 180.448 77.328 180.448 78.096C180.448 78.864 180.282 79.552 179.952 80.16C179.621 80.768 179.168 81.248 178.592 81.6C178.026 81.952 177.386 82.128 176.672 82.128ZM176.656 81.104C177.168 81.104 177.621 80.976 178.016 80.72C178.41 80.4533 178.72 80.0907 178.944 79.632C179.178 79.1733 179.296 78.6613 179.296 78.096C179.296 77.52 179.178 77.008 178.944 76.56C178.72 76.1013 178.41 75.744 178.016 75.488C177.621 75.2213 177.168 75.088 176.656 75.088C176.144 75.088 175.69 75.2213 175.296 75.488C174.901 75.744 174.586 76.1013 174.352 76.56C174.128 77.008 174.016 77.52 174.016 78.096C174.016 78.6613 174.128 79.1733 174.352 79.632C174.586 80.0907 174.901 80.4533 175.296 80.72C175.69 80.976 176.144 81.104 176.656 81.104ZM184.989 82.16C184.317 82.16 183.805 82 183.453 81.68C183.111 81.3493 182.941 80.8747 182.941 80.256V75.152H181.325V74.192H182.941V72.048L184.109 71.776V74.192H186.349V75.152H184.109V79.952C184.109 80.368 184.194 80.6667 184.365 80.848C184.546 81.0293 184.839 81.12 185.245 81.12C185.447 81.12 185.629 81.104 185.789 81.072C185.949 81.04 186.135 80.9867 186.349 80.912V81.952C186.135 82.0267 185.911 82.08 185.677 82.112C185.442 82.144 185.213 82.16 184.989 82.16ZM195.298 82.128C194.572 82.128 193.916 81.952 193.33 81.6C192.754 81.2373 192.295 80.752 191.954 80.144C191.612 79.5253 191.442 78.8427 191.442 78.096C191.442 77.3387 191.612 76.656 191.954 76.048C192.295 75.44 192.754 74.96 193.33 74.608C193.916 74.2453 194.572 74.064 195.298 74.064C195.874 74.064 196.423 74.1707 196.946 74.384C197.468 74.5973 197.922 74.896 198.306 75.28L197.554 76.096C197.276 75.7867 196.94 75.5467 196.546 75.376C196.151 75.2053 195.751 75.12 195.346 75.12C194.834 75.12 194.37 75.2533 193.954 75.52C193.548 75.7867 193.223 76.144 192.978 76.592C192.732 77.04 192.61 77.5413 192.61 78.096C192.61 78.6507 192.732 79.152 192.978 79.6C193.223 80.048 193.548 80.4053 193.954 80.672C194.37 80.9387 194.834 81.072 195.346 81.072C195.751 81.072 196.151 80.9867 196.546 80.816C196.94 80.6347 197.276 80.3947 197.554 80.096L198.306 80.912C197.922 81.296 197.468 81.5947 196.946 81.808C196.423 82.0213 195.874 82.128 195.298 82.128ZM202.35 82.144C201.796 82.144 201.305 82.0427 200.878 81.84C200.452 81.6373 200.116 81.36 199.87 81.008C199.636 80.6453 199.518 80.2293 199.518 79.76C199.518 79.2907 199.641 78.8853 199.886 78.544C200.132 78.192 200.473 77.92 200.91 77.728C201.348 77.536 201.86 77.44 202.446 77.44C202.894 77.44 203.316 77.488 203.71 77.584C204.116 77.68 204.489 77.8347 204.83 78.048V76.976C204.83 76.336 204.66 75.856 204.318 75.536C203.977 75.2053 203.476 75.04 202.814 75.04C202.452 75.04 202.078 75.0933 201.694 75.2C201.321 75.3067 200.905 75.4773 200.446 75.712L200.014 74.816C201.06 74.3147 202.041 74.064 202.958 74.064C203.929 74.064 204.676 74.304 205.198 74.784C205.721 75.2533 205.982 75.9307 205.982 76.816V82H204.83V81.088C204.489 81.44 204.11 81.7067 203.694 81.888C203.278 82.0587 202.83 82.144 202.35 82.144ZM200.638 79.728C200.638 80.1867 200.814 80.5547 201.166 80.832C201.529 81.1093 202.004 81.248 202.59 81.248C203.028 81.248 203.428 81.1733 203.79 81.024C204.164 80.8747 204.51 80.6507 204.83 80.352V78.848C204.5 78.656 204.158 78.5173 203.806 78.432C203.454 78.336 203.06 78.288 202.622 78.288C202.025 78.288 201.545 78.4213 201.182 78.688C200.82 78.944 200.638 79.2907 200.638 79.728ZM211.062 82.128C210.507 82.128 210.017 82.0053 209.59 81.76C209.163 81.5147 208.827 81.1733 208.582 80.736C208.347 80.2987 208.23 79.7973 208.23 79.232V74.192H209.414V78.896C209.414 79.5893 209.601 80.1387 209.974 80.544C210.347 80.9493 210.854 81.152 211.494 81.152C211.931 81.152 212.321 81.0507 212.662 80.848C213.014 80.6453 213.307 80.352 213.542 79.968V74.192H214.71V82H213.542V80.736C213.243 81.1947 212.886 81.5413 212.47 81.776C212.065 82.0107 211.595 82.128 211.062 82.128ZM219.522 82.16C218.882 82.16 218.29 82.064 217.746 81.872C217.202 81.6693 216.738 81.3813 216.354 81.008L216.978 80.24C217.448 80.5813 217.88 80.832 218.274 80.992C218.669 81.1413 219.074 81.216 219.49 81.216C220.056 81.216 220.525 81.0827 220.898 80.816C221.272 80.5493 221.458 80.208 221.458 79.792C221.458 79.472 221.346 79.2213 221.122 79.04C220.909 78.8587 220.552 78.72 220.05 78.624L218.77 78.4C218.013 78.2613 217.453 78.0267 217.09 77.696C216.738 77.3653 216.562 76.9173 216.562 76.352C216.562 75.904 216.68 75.5093 216.914 75.168C217.16 74.8267 217.496 74.56 217.922 74.368C218.349 74.1653 218.834 74.064 219.378 74.064C219.912 74.064 220.418 74.144 220.898 74.304C221.378 74.4533 221.864 74.6987 222.354 75.04L221.778 75.856C221.373 75.568 220.968 75.36 220.562 75.232C220.157 75.0933 219.746 75.024 219.33 75.024C218.818 75.024 218.408 75.136 218.098 75.36C217.789 75.584 217.634 75.888 217.634 76.272C217.634 76.592 217.73 76.8373 217.922 77.008C218.125 77.1787 218.477 77.3067 218.978 77.392L220.29 77.632C221.08 77.7707 221.656 78.0107 222.018 78.352C222.381 78.6933 222.562 79.152 222.562 79.728C222.562 80.1867 222.429 80.6027 222.162 80.976C221.896 81.3387 221.533 81.6267 221.074 81.84C220.616 82.0533 220.098 82.16 219.522 82.16ZM227.939 82.16C227.213 82.16 226.557 81.984 225.971 81.632C225.384 81.2693 224.92 80.784 224.579 80.176C224.237 79.5573 224.067 78.864 224.067 78.096C224.067 77.328 224.227 76.64 224.547 76.032C224.877 75.424 225.32 74.944 225.875 74.592C226.429 74.24 227.048 74.064 227.731 74.064C228.424 74.064 229.037 74.24 229.571 74.592C230.115 74.9333 230.541 75.4027 230.851 76C231.171 76.5867 231.331 77.2533 231.331 78V78.352H225.203C225.245 78.8853 225.389 79.3653 225.635 79.792C225.891 80.208 226.221 80.5387 226.627 80.784C227.043 81.0187 227.496 81.136 227.987 81.136C228.392 81.136 228.781 81.0667 229.155 80.928C229.539 80.7787 229.864 80.5813 230.131 80.336L230.867 81.12C230.419 81.472 229.955 81.7333 229.475 81.904C228.995 82.0747 228.483 82.16 227.939 82.16ZM225.235 77.52H230.179C230.125 77.0507 229.981 76.6347 229.747 76.272C229.523 75.8987 229.235 75.6053 228.883 75.392C228.541 75.1787 228.157 75.072 227.731 75.072C227.304 75.072 226.915 75.1787 226.563 75.392C226.211 75.5947 225.917 75.8827 225.683 76.256C225.459 76.6187 225.309 77.04 225.235 77.52ZM239.475 82.144C238.921 82.144 238.43 82.0427 238.003 81.84C237.577 81.6373 237.241 81.36 236.995 81.008C236.761 80.6453 236.643 80.2293 236.643 79.76C236.643 79.2907 236.766 78.8853 237.011 78.544C237.257 78.192 237.598 77.92 238.035 77.728C238.473 77.536 238.985 77.44 239.571 77.44C240.019 77.44 240.441 77.488 240.835 77.584C241.241 77.68 241.614 77.8347 241.955 78.048V76.976C241.955 76.336 241.785 75.856 241.443 75.536C241.102 75.2053 240.601 75.04 239.939 75.04C239.577 75.04 239.203 75.0933 238.819 75.2C238.446 75.3067 238.03 75.4773 237.571 75.712L237.139 74.816C238.185 74.3147 239.166 74.064 240.083 74.064C241.054 74.064 241.801 74.304 242.323 74.784C242.846 75.2533 243.107 75.9307 243.107 76.816V82H241.955V81.088C241.614 81.44 241.235 81.7067 240.819 81.888C240.403 82.0587 239.955 82.144 239.475 82.144ZM237.763 79.728C237.763 80.1867 237.939 80.5547 238.291 80.832C238.654 81.1093 239.129 81.248 239.715 81.248C240.153 81.248 240.553 81.1733 240.915 81.024C241.289 80.8747 241.635 80.6507 241.955 80.352V78.848C241.625 78.656 241.283 78.5173 240.931 78.432C240.579 78.336 240.185 78.288 239.747 78.288C239.15 78.288 238.67 78.4213 238.307 78.688C237.945 78.944 237.763 79.2907 237.763 79.728ZM245.481 82V74.192H246.649V75.456C246.948 74.9867 247.305 74.64 247.721 74.416C248.137 74.1813 248.607 74.064 249.129 74.064C249.695 74.064 250.185 74.1867 250.601 74.432C251.028 74.6667 251.359 75.0027 251.593 75.44C251.839 75.8667 251.961 76.368 251.961 76.944V82H250.793V77.28C250.793 76.5867 250.601 76.0427 250.217 75.648C249.844 75.2427 249.337 75.04 248.697 75.04C248.271 75.04 247.881 75.1413 247.529 75.344C247.177 75.5467 246.884 75.8453 246.649 76.24V82H245.481ZM256.725 82.144C256.171 82.144 255.68 82.0427 255.253 81.84C254.827 81.6373 254.491 81.36 254.245 81.008C254.011 80.6453 253.893 80.2293 253.893 79.76C253.893 79.2907 254.016 78.8853 254.261 78.544C254.507 78.192 254.848 77.92 255.285 77.728C255.723 77.536 256.235 77.44 256.821 77.44C257.269 77.44 257.691 77.488 258.085 77.584C258.491 77.68 258.864 77.8347 259.205 78.048V76.976C259.205 76.336 259.035 75.856 258.693 75.536C258.352 75.2053 257.851 75.04 257.189 75.04C256.827 75.04 256.453 75.0933 256.069 75.2C255.696 75.3067 255.28 75.4773 254.821 75.712L254.389 74.816C255.435 74.3147 256.416 74.064 257.333 74.064C258.304 74.064 259.051 74.304 259.573 74.784C260.096 75.2533 260.357 75.9307 260.357 76.816V82H259.205V81.088C258.864 81.44 258.485 81.7067 258.069 81.888C257.653 82.0587 257.205 82.144 256.725 82.144ZM255.013 79.728C255.013 80.1867 255.189 80.5547 255.541 80.832C255.904 81.1093 256.379 81.248 256.965 81.248C257.403 81.248 257.803 81.1733 258.165 81.024C258.539 80.8747 258.885 80.6507 259.205 80.352V78.848C258.875 78.656 258.533 78.5173 258.181 78.432C257.829 78.336 257.435 78.288 256.997 78.288C256.4 78.288 255.92 78.4213 255.557 78.688C255.195 78.944 255.013 79.2907 255.013 79.728ZM262.731 82V70.448L263.899 70.208V82H262.731ZM266.63 85.504C266.384 85.504 266.134 85.4667 265.878 85.392V84.352C265.984 84.3733 266.096 84.3893 266.214 84.4C266.331 84.4107 266.432 84.416 266.518 84.416C266.816 84.416 267.062 84.336 267.254 84.176C267.456 84.016 267.627 83.7653 267.766 83.424L268.342 82L265.334 74.192H266.63L268.998 80.608L271.51 74.192H272.806L268.87 83.776C268.699 84.192 268.512 84.528 268.31 84.784C268.107 85.04 267.872 85.2213 267.606 85.328C267.339 85.4453 267.014 85.504 266.63 85.504ZM276.679 82.16C276.039 82.16 275.447 82.064 274.903 81.872C274.359 81.6693 273.895 81.3813 273.511 81.008L274.135 80.24C274.604 80.5813 275.036 80.832 275.431 80.992C275.825 81.1413 276.231 81.216 276.647 81.216C277.212 81.216 277.681 81.0827 278.055 80.816C278.428 80.5493 278.615 80.208 278.615 79.792C278.615 79.472 278.503 79.2213 278.279 79.04C278.065 78.8587 277.708 78.72 277.207 78.624L275.927 78.4C275.169 78.2613 274.609 78.0267 274.247 77.696C273.895 77.3653 273.719 76.9173 273.719 76.352C273.719 75.904 273.836 75.5093 274.071 75.168C274.316 74.8267 274.652 74.56 275.079 74.368C275.505 74.1653 275.991 74.064 276.535 74.064C277.068 74.064 277.575 74.144 278.055 74.304C278.535 74.4533 279.02 74.6987 279.511 75.04L278.935 75.856C278.529 75.568 278.124 75.36 277.719 75.232C277.313 75.0933 276.903 75.024 276.487 75.024C275.975 75.024 275.564 75.136 275.255 75.36C274.945 75.584 274.791 75.888 274.791 76.272C274.791 76.592 274.887 76.8373 275.079 77.008C275.281 77.1787 275.633 77.3067 276.135 77.392L277.447 77.632C278.236 77.7707 278.812 78.0107 279.175 78.352C279.537 78.6933 279.719 79.152 279.719 79.728C279.719 80.1867 279.585 80.6027 279.319 80.976C279.052 81.3387 278.689 81.6267 278.231 81.84C277.772 82.0533 277.255 82.16 276.679 82.16ZM281.481 82V74.192H282.649V82H281.481ZM282.073 72.256C281.838 72.256 281.636 72.176 281.465 72.016C281.305 71.8453 281.225 71.648 281.225 71.424C281.225 71.2 281.305 71.008 281.465 70.848C281.636 70.6773 281.838 70.592 282.073 70.592C282.308 70.592 282.505 70.6773 282.665 70.848C282.836 71.008 282.921 71.2 282.921 71.424C282.921 71.648 282.836 71.8453 282.665 72.016C282.505 72.176 282.308 72.256 282.073 72.256ZM287.46 82.16C286.82 82.16 286.228 82.064 285.684 81.872C285.14 81.6693 284.676 81.3813 284.292 81.008L284.916 80.24C285.385 80.5813 285.817 80.832 286.212 80.992C286.606 81.1413 287.012 81.216 287.428 81.216C287.993 81.216 288.462 81.0827 288.836 80.816C289.209 80.5493 289.396 80.208 289.396 79.792C289.396 79.472 289.284 79.2213 289.06 79.04C288.846 78.8587 288.489 78.72 287.988 78.624L286.708 78.4C285.95 78.2613 285.39 78.0267 285.028 77.696C284.676 77.3653 284.5 76.9173 284.5 76.352C284.5 75.904 284.617 75.5093 284.852 75.168C285.097 74.8267 285.433 74.56 285.86 74.368C286.286 74.1653 286.772 74.064 287.316 74.064C287.849 74.064 288.356 74.144 288.836 74.304C289.316 74.4533 289.801 74.6987 290.292 75.04L289.716 75.856C289.31 75.568 288.905 75.36 288.5 75.232C288.094 75.0933 287.684 75.024 287.268 75.024C286.756 75.024 286.345 75.136 286.036 75.36C285.726 75.584 285.572 75.888 285.572 76.272C285.572 76.592 285.668 76.8373 285.86 77.008C286.062 77.1787 286.414 77.3067 286.916 77.392L288.228 77.632C289.017 77.7707 289.593 78.0107 289.956 78.352C290.318 78.6933 290.5 79.152 290.5 79.728C290.5 80.1867 290.366 80.6027 290.1 80.976C289.833 81.3387 289.47 81.6267 289.012 81.84C288.553 82.0533 288.036 82.16 287.46 82.16ZM297.005 82V75.152H295.261V74.192H297.005V72.56C297.005 71.792 297.207 71.2 297.613 70.784C298.018 70.368 298.594 70.16 299.341 70.16C299.554 70.16 299.746 70.1707 299.917 70.192C300.098 70.2133 300.258 70.2507 300.397 70.304V71.36C300.226 71.3067 300.071 71.2693 299.933 71.248C299.794 71.2267 299.634 71.216 299.453 71.216C299.005 71.216 298.679 71.328 298.477 71.552C298.274 71.7653 298.173 72.1067 298.173 72.576V74.192H300.397V75.152H298.173V82H297.005ZM305.062 82.128C304.337 82.128 303.686 81.952 303.11 81.6C302.534 81.248 302.081 80.768 301.75 80.16C301.42 79.552 301.254 78.864 301.254 78.096C301.254 77.328 301.42 76.64 301.75 76.032C302.081 75.424 302.534 74.944 303.11 74.592C303.686 74.24 304.337 74.064 305.062 74.064C305.777 74.064 306.417 74.24 306.982 74.592C307.558 74.944 308.012 75.424 308.342 76.032C308.673 76.64 308.838 77.328 308.838 78.096C308.838 78.864 308.673 79.552 308.342 80.16C308.012 80.768 307.558 81.248 306.982 81.6C306.417 81.952 305.777 82.128 305.062 82.128ZM305.046 81.104C305.558 81.104 306.012 80.976 306.406 80.72C306.801 80.4533 307.11 80.0907 307.334 79.632C307.569 79.1733 307.686 78.6613 307.686 78.096C307.686 77.52 307.569 77.008 307.334 76.56C307.11 76.1013 306.801 75.744 306.406 75.488C306.012 75.2213 305.558 75.088 305.046 75.088C304.534 75.088 304.081 75.2213 303.686 75.488C303.292 75.744 302.977 76.1013 302.742 76.56C302.518 77.008 302.406 77.52 302.406 78.096C302.406 78.6613 302.518 79.1733 302.742 79.632C302.977 80.0907 303.292 80.4533 303.686 80.72C304.081 80.976 304.534 81.104 305.046 81.104ZM310.888 82V74.192H312.056V75.792C312.258 75.248 312.546 74.8267 312.92 74.528C313.304 74.2187 313.741 74.064 314.232 74.064C314.37 74.064 314.498 74.0747 314.616 74.096C314.733 74.1067 314.85 74.1333 314.968 74.176V75.232C314.84 75.1893 314.701 75.1573 314.552 75.136C314.413 75.104 314.28 75.088 314.152 75.088C313.672 75.088 313.25 75.2267 312.888 75.504C312.536 75.7813 312.258 76.1707 312.056 76.672V82H310.888ZM324.071 82.16C322.908 82.16 321.927 81.8667 321.127 81.28C320.338 80.6933 319.783 79.8453 319.463 78.736L322.007 77.824C322.199 78.4747 322.466 78.96 322.807 79.28C323.148 79.5893 323.575 79.744 324.087 79.744C324.652 79.744 325.111 79.5413 325.463 79.136C325.815 78.72 325.991 78.1867 325.991 77.536V70.8H328.743V77.616C328.743 78.5227 328.546 79.3173 328.151 80C327.767 80.6827 327.223 81.216 326.519 81.6C325.826 81.9733 325.01 82.16 324.071 82.16ZM334.726 82.16C333.904 82.16 333.168 81.9733 332.518 81.6C331.867 81.2267 331.35 80.72 330.966 80.08C330.592 79.4293 330.406 78.6987 330.406 77.888C330.406 77.0773 330.592 76.352 330.966 75.712C331.35 75.0613 331.867 74.5493 332.518 74.176C333.168 73.8027 333.899 73.616 334.71 73.616C335.531 73.616 336.262 73.8027 336.902 74.176C337.552 74.5493 338.064 75.0613 338.438 75.712C338.822 76.352 339.014 77.0773 339.014 77.888C339.014 78.6987 338.822 79.4293 338.438 80.08C338.064 80.72 337.552 81.2267 336.902 81.6C336.262 81.9733 335.536 82.16 334.726 82.16ZM334.71 80C335.062 80 335.371 79.9093 335.638 79.728C335.904 79.5467 336.112 79.296 336.262 78.976C336.411 78.656 336.486 78.2933 336.486 77.888C336.486 77.472 336.411 77.1093 336.262 76.8C336.112 76.48 335.904 76.2293 335.638 76.048C335.371 75.8667 335.062 75.776 334.71 75.776C334.368 75.776 334.059 75.8667 333.782 76.048C333.515 76.2293 333.307 76.48 333.158 76.8C333.008 77.1093 332.934 77.472 332.934 77.888C332.934 78.2933 333.008 78.656 333.158 78.976C333.307 79.296 333.515 79.5467 333.782 79.728C334.059 79.9093 334.368 80 334.71 80ZM340.664 82V70.608L343.256 70.208V74.8C343.534 74.4587 343.88 74.192 344.296 74C344.723 73.7973 345.182 73.696 345.672 73.696C346.355 73.696 346.968 73.888 347.512 74.272C348.067 74.6453 348.504 75.1467 348.824 75.776C349.155 76.4053 349.32 77.1093 349.32 77.888C349.32 78.656 349.15 79.3547 348.808 79.984C348.467 80.6133 348.003 81.1147 347.416 81.488C346.84 81.8613 346.195 82.048 345.48 82.048C345.032 82.048 344.611 81.9573 344.216 81.776C343.832 81.584 343.502 81.3227 343.224 80.992V82H340.664ZM344.808 79.92C345.192 79.92 345.528 79.8347 345.816 79.664C346.115 79.4827 346.35 79.2373 346.52 78.928C346.691 78.6187 346.776 78.2667 346.776 77.872C346.776 77.4773 346.691 77.1307 346.52 76.832C346.35 76.5227 346.115 76.2827 345.816 76.112C345.518 75.9307 345.182 75.84 344.808 75.84C344.488 75.84 344.2 75.8987 343.944 76.016C343.699 76.1227 343.47 76.288 343.256 76.512V79.264C343.459 79.4667 343.694 79.6267 343.96 79.744C344.227 79.8613 344.51 79.92 344.808 79.92ZM357.679 82.048C357.007 82.048 356.393 81.8613 355.839 81.488C355.284 81.104 354.841 80.5973 354.511 79.968C354.191 79.328 354.031 78.624 354.031 77.856C354.031 77.0773 354.201 76.3787 354.543 75.76C354.884 75.1307 355.343 74.6293 355.919 74.256C356.505 73.8827 357.156 73.696 357.871 73.696C358.308 73.696 358.713 73.7813 359.087 73.952C359.471 74.1227 359.801 74.368 360.079 74.688V70.608L362.671 70.208V82H360.111V80.928C359.844 81.2693 359.492 81.5413 359.055 81.744C358.628 81.9467 358.169 82.048 357.679 82.048ZM358.543 79.904C358.852 79.904 359.135 79.8507 359.391 79.744C359.647 79.6267 359.876 79.4613 360.079 79.248V76.464C359.876 76.2507 359.641 76.0907 359.375 75.984C359.119 75.8773 358.841 75.824 358.543 75.824C358.169 75.824 357.833 75.9147 357.535 76.096C357.236 76.2667 357.001 76.5067 356.831 76.816C356.66 77.1253 356.575 77.4773 356.575 77.872C356.575 78.256 356.66 78.6027 356.831 78.912C357.001 79.2213 357.236 79.4667 357.535 79.648C357.833 79.8187 358.169 79.904 358.543 79.904ZM368.664 82.16C367.853 82.16 367.117 81.9733 366.456 81.6C365.805 81.216 365.283 80.704 364.888 80.064C364.504 79.4133 364.312 78.688 364.312 77.888C364.312 77.0773 364.493 76.352 364.856 75.712C365.219 75.072 365.715 74.5653 366.344 74.192C366.973 73.808 367.683 73.616 368.472 73.616C369.272 73.616 369.976 73.8027 370.584 74.176C371.192 74.5493 371.667 75.0667 372.008 75.728C372.36 76.3787 372.536 77.1307 372.536 77.984V78.544H366.856C366.941 78.8533 367.075 79.1253 367.256 79.36C367.437 79.5947 367.661 79.776 367.928 79.904C368.195 80.032 368.483 80.096 368.792 80.096C369.133 80.096 369.443 80.0373 369.72 79.92C370.008 79.8027 370.243 79.632 370.424 79.408L372.136 80.832C371.603 81.3013 371.064 81.6427 370.52 81.856C369.976 82.0587 369.357 82.16 368.664 82.16ZM366.856 77.072H370.136C370.061 76.7733 369.944 76.5173 369.784 76.304C369.624 76.0907 369.432 75.9253 369.208 75.808C368.984 75.6907 368.733 75.632 368.456 75.632C368.189 75.632 367.944 75.6907 367.72 75.808C367.507 75.9147 367.325 76.0747 367.176 76.288C367.037 76.5013 366.931 76.7627 366.856 77.072ZM377.962 82.16C376.992 82.16 376.256 81.936 375.754 81.488C375.253 81.04 375.002 80.3787 375.002 79.504V75.744H373.402V73.744H375.002V71.456L377.594 70.928V73.744H379.802V75.744H377.594V78.992C377.594 79.3547 377.674 79.6107 377.834 79.76C378.005 79.9093 378.288 79.984 378.682 79.984C378.832 79.984 378.981 79.9733 379.13 79.952C379.28 79.9307 379.482 79.8827 379.738 79.808V81.904C379.504 81.9787 379.216 82.0373 378.874 82.08C378.533 82.1333 378.229 82.16 377.962 82.16ZM383.706 82.128C383.152 82.128 382.656 82.0213 382.218 81.808C381.792 81.5947 381.456 81.3013 381.21 80.928C380.976 80.5547 380.858 80.1227 380.858 79.632C380.858 79.12 380.986 78.688 381.242 78.336C381.498 77.9733 381.866 77.7013 382.346 77.52C382.826 77.328 383.402 77.232 384.074 77.232C384.373 77.232 384.677 77.264 384.986 77.328C385.296 77.3813 385.632 77.4773 385.994 77.616V76.944C385.994 76.5387 385.861 76.24 385.594 76.048C385.328 75.8453 384.917 75.744 384.362 75.744C384.053 75.744 383.706 75.792 383.322 75.888C382.949 75.9733 382.522 76.1173 382.042 76.32L381.146 74.512C382.48 73.9147 383.744 73.616 384.938 73.616C386.08 73.616 386.965 73.888 387.594 74.432C388.234 74.976 388.554 75.7387 388.554 76.72V82H385.994V81.28C385.632 81.5787 385.269 81.7973 384.906 81.936C384.544 82.064 384.144 82.128 383.706 82.128ZM383.242 79.584C383.242 79.8507 383.354 80.0587 383.578 80.208C383.802 80.3467 384.112 80.416 384.506 80.416C384.784 80.416 385.045 80.384 385.29 80.32C385.536 80.2453 385.77 80.1387 385.994 80V78.944C385.76 78.8907 385.525 78.848 385.29 78.816C385.056 78.784 384.816 78.768 384.57 78.768C384.144 78.768 383.813 78.8373 383.578 78.976C383.354 79.1147 383.242 79.3173 383.242 79.584ZM390.508 82V73.744H393.1V82H390.508ZM391.804 72.48C391.409 72.48 391.068 72.336 390.78 72.048C390.492 71.76 390.348 71.4187 390.348 71.024C390.348 70.6187 390.492 70.2773 390.78 70C391.068 69.712 391.409 69.568 391.804 69.568C392.209 69.568 392.551 69.712 392.828 70C393.116 70.2773 393.26 70.6187 393.26 71.024C393.26 71.4187 393.116 71.76 392.828 72.048C392.551 72.336 392.209 72.48 391.804 72.48ZM395.117 82V70.608L397.709 70.208V82H395.117ZM402.847 82.16C402.1 82.16 401.401 82.0747 400.751 81.904C400.1 81.7333 399.535 81.4827 399.055 81.152L400.191 79.424C400.788 79.7333 401.279 79.952 401.663 80.08C402.057 80.1973 402.452 80.256 402.847 80.256C403.22 80.256 403.508 80.1973 403.711 80.08C403.924 79.952 404.031 79.7867 404.031 79.584C404.031 79.424 403.967 79.296 403.839 79.2C403.721 79.104 403.529 79.0347 403.263 78.992L401.679 78.704C400.879 78.5547 400.271 78.2773 399.855 77.872C399.449 77.4667 399.247 76.944 399.247 76.304C399.247 75.7387 399.385 75.2587 399.663 74.864C399.94 74.4587 400.335 74.1493 400.847 73.936C401.369 73.7227 401.988 73.616 402.703 73.616C403.279 73.616 403.849 73.696 404.415 73.856C404.98 74.016 405.529 74.2507 406.063 74.56L404.879 76.208C404.463 75.9627 404.057 75.7867 403.663 75.68C403.279 75.5627 402.895 75.504 402.511 75.504C402.201 75.504 401.956 75.552 401.775 75.648C401.604 75.744 401.519 75.8827 401.519 76.064C401.519 76.2347 401.577 76.3627 401.695 76.448C401.823 76.5333 402.047 76.6027 402.367 76.656L403.919 76.944C404.74 77.0933 405.359 77.3707 405.775 77.776C406.191 78.1813 406.399 78.6987 406.399 79.328C406.399 79.8613 406.244 80.3467 405.935 80.784C405.625 81.2107 405.204 81.5467 404.671 81.792C404.137 82.0373 403.529 82.16 402.847 82.16ZM411.416 82V70.8H414.168V82H411.416ZM419.25 79.648H421.058C421.581 79.648 422.05 79.504 422.466 79.216C422.882 78.928 423.213 78.5387 423.458 78.048C423.714 77.5467 423.842 76.9973 423.842 76.4C423.842 75.792 423.714 75.2427 423.458 74.752C423.213 74.2613 422.882 73.872 422.466 73.584C422.05 73.296 421.581 73.152 421.058 73.152H419.25V79.648ZM416.498 82V70.8H421.058C421.847 70.8 422.578 70.944 423.25 71.232C423.933 71.52 424.53 71.92 425.042 72.432C425.565 72.944 425.97 73.5413 426.258 74.224C426.546 74.896 426.69 75.6213 426.69 76.4C426.69 77.1787 426.546 77.9093 426.258 78.592C425.97 79.264 425.565 79.856 425.042 80.368C424.53 80.88 423.933 81.28 423.25 81.568C422.578 81.856 421.847 82 421.058 82H416.498ZM435.436 82.176C433.868 82.176 432.502 81.6747 431.34 80.672L432.812 78.96C433.281 79.344 433.734 79.6213 434.172 79.792C434.609 79.9627 435.073 80.048 435.564 80.048C435.958 80.048 436.3 79.984 436.588 79.856C436.876 79.7173 437.1 79.5253 437.26 79.28C437.43 79.0347 437.516 78.752 437.516 78.432C437.516 77.9627 437.318 77.5733 436.924 77.264C436.54 76.9547 436.049 76.8 435.452 76.8C435.153 76.8 434.854 76.848 434.556 76.944C434.257 77.0293 433.948 77.1627 433.628 77.344L431.852 76.816L432.124 70.8H439.452V72.896H434.3L434.188 75.328C434.572 75.1467 434.934 75.0293 435.276 74.976C435.617 74.9227 435.948 74.896 436.268 74.896C437.025 74.896 437.686 75.04 438.252 75.328C438.817 75.6053 439.254 76 439.564 76.512C439.884 77.024 440.044 77.6213 440.044 78.304C440.044 79.072 439.852 79.7493 439.468 80.336C439.084 80.912 438.545 81.3653 437.852 81.696C437.158 82.016 436.353 82.176 435.436 82.176ZM445.061 82.176C443.493 82.176 442.127 81.6747 440.965 80.672L442.437 78.96C442.906 79.344 443.359 79.6213 443.797 79.792C444.234 79.9627 444.698 80.048 445.189 80.048C445.583 80.048 445.925 79.984 446.213 79.856C446.501 79.7173 446.725 79.5253 446.885 79.28C447.055 79.0347 447.141 78.752 447.141 78.432C447.141 77.9627 446.943 77.5733 446.549 77.264C446.165 76.9547 445.674 76.8 445.077 76.8C444.778 76.8 444.479 76.848 444.181 76.944C443.882 77.0293 443.573 77.1627 443.253 77.344L441.477 76.816L441.749 70.8H449.077V72.896H443.925L443.813 75.328C444.197 75.1467 444.559 75.0293 444.901 74.976C445.242 74.9227 445.573 74.896 445.893 74.896C446.65 74.896 447.311 75.04 447.877 75.328C448.442 75.6053 448.879 76 449.189 76.512C449.509 77.024 449.669 77.6213 449.669 78.304C449.669 79.072 449.477 79.7493 449.093 80.336C448.709 80.912 448.17 81.3653 447.477 81.696C446.783 82.016 445.978 82.176 445.061 82.176Z" fill="white"/>
<path d="M133.292 118.125V126.219C133.292 127.063 133.979 127.75 134.823 127.75H139.417V128.844C139.417 129.206 139.123 129.5 138.761 129.5H131.323C130.961 129.5 130.667 129.206 130.667 128.844V118.781C130.667 118.419 130.961 118.125 131.323 118.125H133.292ZM139.417 115.5V118.344C139.417 118.705 139.712 119 140.073 119H142.917V126.219C142.917 126.581 142.623 126.875 142.261 126.875H134.823C134.461 126.875 134.167 126.581 134.167 126.219V116.156C134.167 115.794 134.461 115.5 134.823 115.5H139.417ZM140.457 115.5C140.607 115.5 140.815 115.586 140.921 115.692L142.725 117.495C142.831 117.601 142.917 117.809 142.917 117.959V118.125H140.292V115.5H140.457Z" fill="#707070"/>
<path d="M178.271 118.227C178.399 118.099 178.607 118.099 178.738 118.227L181.773 121.262C181.901 121.391 181.901 121.598 181.773 121.727L174.593 128.908L171.271 129.49C170.823 129.566 170.431 129.178 170.51 128.73L171.09 125.408L178.271 118.227ZM171.914 125.779L171.604 127.542L172.455 128.393L174.218 128.084V127.091H172.906V125.779H171.914ZM178.645 120.039C178.495 119.889 178.254 119.889 178.104 120.039L173.893 124.25C173.743 124.401 173.743 124.642 173.893 124.792C174.043 124.942 174.284 124.942 174.434 124.792L178.645 120.581C178.795 120.431 178.795 120.19 178.645 120.039ZM180.614 115.883C181.125 115.372 181.956 115.372 182.47 115.883L184.114 117.527C184.628 118.038 184.628 118.869 184.114 119.383L182.853 120.644C182.724 120.772 182.517 120.772 182.388 120.644L179.353 117.609C179.225 117.48 179.225 117.272 179.353 117.144L180.614 115.883Z" fill="#707070"/>
<path d="M70 165.5C82.9787 165.5 93.5 176.021 93.5 189C93.5 201.979 82.9787 212.5 70 212.5C57.0213 212.5 46.5 201.979 46.5 189C46.5 176.021 57.0213 165.5 70 165.5Z" stroke="#C7C7C7"/>
<g clip-path="url(#clip4_875_73331)">
<path d="M83.7 182.071H71.6V178.75H73.525C74.2834 178.75 74.9 178.129 74.9 177.366V172.384C74.9 171.621 74.2834 171 73.525 171H67.475C66.7166 171 66.1 171.621 66.1 172.384V177.366C66.1 178.129 66.7166 178.75 67.475 178.75H69.4V182.071H57.3C55.4803 182.071 54 183.561 54 185.393V198.679C54 200.51 55.4803 202 57.3 202H83.7C85.5197 202 87 200.51 87 198.679V185.393C87 183.561 85.5197 182.071 83.7 182.071ZM68.3 173.214H72.7V176.536H68.3V173.214ZM84.8 198.679C84.8 199.289 84.3069 199.786 83.7 199.786H57.3C56.6936 199.786 56.2 199.289 56.2 198.679V185.393C56.2 184.783 56.6936 184.286 57.3 184.286H83.7C84.3069 184.286 84.8 184.783 84.8 185.393V198.679ZM62.525 188.714V190.929C62.525 191.387 62.1555 191.759 61.7 191.759H59.5C59.0445 191.759 58.675 191.387 58.675 190.929V188.714C58.675 188.256 59.0445 187.884 59.5 187.884H61.7C62.1555 187.884 62.525 188.256 62.525 188.714ZM82.325 188.714V190.929C82.325 191.387 81.9555 191.759 81.5 191.759H79.3C78.8445 191.759 78.475 191.387 78.475 190.929V188.714C78.475 188.256 78.8445 187.884 79.3 187.884H81.5C81.9555 187.884 82.325 188.256 82.325 188.714ZM74.5691 193.668C74.8893 194.096 74.8033 194.703 74.3779 195.024C73.2521 195.876 71.9115 196.326 70.5 196.326C69.0885 196.326 67.7473 195.876 66.6215 195.024C66.1961 194.703 66.1107 194.096 66.4298 193.668C66.7494 193.239 67.3536 193.153 67.7774 193.476C69.3576 194.669 71.6408 194.669 73.2221 193.476C73.6475 193.152 74.2512 193.24 74.5691 193.668Z" fill="#1F1F1F"/>
</g>
<path d="M119.176 180V170.2H123.544C124.151 170.2 124.687 170.307 125.154 170.522C125.621 170.737 125.98 171.04 126.232 171.432C126.493 171.815 126.624 172.263 126.624 172.776C126.624 173.28 126.479 173.723 126.19 174.106C125.901 174.479 125.513 174.759 125.028 174.946C125.625 175.123 126.097 175.417 126.442 175.828C126.787 176.229 126.96 176.71 126.96 177.27C126.96 177.811 126.825 178.287 126.554 178.698C126.283 179.109 125.905 179.431 125.42 179.664C124.935 179.888 124.37 180 123.726 180H119.176ZM120.856 174.33H123.362C123.847 174.33 124.23 174.204 124.51 173.952C124.799 173.7 124.944 173.364 124.944 172.944C124.944 172.524 124.799 172.193 124.51 171.95C124.23 171.698 123.847 171.572 123.362 171.572H120.856V174.33ZM120.856 178.628H123.516C124.048 178.628 124.473 178.493 124.79 178.222C125.107 177.942 125.266 177.573 125.266 177.116C125.266 176.668 125.107 176.309 124.79 176.038C124.482 175.758 124.057 175.618 123.516 175.618H120.856V178.628ZM131.797 180.126C131.135 180.126 130.533 179.967 129.991 179.65C129.459 179.333 129.039 178.903 128.731 178.362C128.423 177.811 128.269 177.191 128.269 176.5C128.269 175.809 128.423 175.193 128.731 174.652C129.039 174.101 129.459 173.667 129.991 173.35C130.523 173.033 131.125 172.874 131.797 172.874C132.469 172.874 133.067 173.033 133.589 173.35C134.121 173.667 134.541 174.101 134.849 174.652C135.157 175.193 135.311 175.809 135.311 176.5C135.311 177.191 135.157 177.811 134.849 178.362C134.541 178.903 134.121 179.333 133.589 179.65C133.067 179.967 132.469 180.126 131.797 180.126ZM131.797 178.782C132.18 178.782 132.516 178.684 132.805 178.488C133.104 178.292 133.337 178.021 133.505 177.676C133.673 177.321 133.757 176.929 133.757 176.5C133.757 176.061 133.673 175.674 133.505 175.338C133.337 174.993 133.104 174.722 132.805 174.526C132.516 174.321 132.18 174.218 131.797 174.218C131.415 174.218 131.074 174.321 130.775 174.526C130.477 174.722 130.243 174.993 130.075 175.338C129.907 175.674 129.823 176.061 129.823 176.5C129.823 176.939 129.907 177.331 130.075 177.676C130.243 178.021 130.477 178.292 130.775 178.488C131.074 178.684 131.415 178.782 131.797 178.782ZM139.641 180.14C138.931 180.14 138.395 179.977 138.031 179.65C137.667 179.314 137.485 178.824 137.485 178.18V174.246H136.085V172.986H137.485V171.054L139.067 170.718V172.986H141.013V174.246H139.067V177.83C139.067 178.175 139.141 178.423 139.291 178.572C139.44 178.712 139.692 178.782 140.047 178.782C140.205 178.782 140.35 178.773 140.481 178.754C140.621 178.726 140.793 178.679 140.999 178.614V179.944C140.803 180.009 140.579 180.056 140.327 180.084C140.084 180.121 139.855 180.14 139.641 180.14Z" fill="#151515"/>
<path d="M159 167H169C173.694 167 177.5 170.806 177.5 175.5C177.5 180.194 173.694 184 169 184H159C154.306 184 150.5 180.194 150.5 175.5C150.5 170.806 154.306 167 159 167Z" stroke="#C7C7C7"/>
<path d="M158.072 179.5L161.372 171.1H163.04L166.292 179.5H164.744L163.88 177.148H160.436L159.572 179.5H158.072ZM160.856 176.02H163.484L162.164 172.468L160.856 176.02ZM167.315 179.5V171.1H168.755V179.5H167.315Z" fill="#151515"/>
<path d="M187.836 179.5V172.036L186.492 172.636V171.844L188.16 171.1H188.7V179.5H187.836ZM191.18 179.596C191.004 179.596 190.852 179.532 190.724 179.404C190.604 179.276 190.544 179.124 190.544 178.948C190.544 178.764 190.604 178.612 190.724 178.492C190.852 178.364 191.004 178.3 191.18 178.3C191.356 178.3 191.504 178.364 191.624 178.492C191.752 178.612 191.816 178.764 191.816 178.948C191.816 179.124 191.752 179.276 191.624 179.404C191.504 179.532 191.356 179.596 191.18 179.596ZM191.18 174.832C191.004 174.832 190.852 174.768 190.724 174.64C190.604 174.512 190.544 174.36 190.544 174.184C190.544 174 190.604 173.848 190.724 173.728C190.852 173.6 191.004 173.536 191.18 173.536C191.356 173.536 191.504 173.6 191.624 173.728C191.752 173.848 191.816 174 191.816 174.184C191.816 174.36 191.752 174.512 191.624 174.64C191.504 174.768 191.356 174.832 191.18 174.832ZM196.064 179.632C195.488 179.632 194.948 179.532 194.444 179.332C193.948 179.132 193.508 178.836 193.124 178.444L193.7 177.88C194.052 178.232 194.412 178.488 194.78 178.648C195.156 178.8 195.58 178.876 196.052 178.876C196.46 178.876 196.82 178.804 197.132 178.66C197.452 178.516 197.7 178.316 197.876 178.06C198.052 177.804 198.14 177.512 198.14 177.184C198.14 176.872 198.06 176.596 197.9 176.356C197.748 176.108 197.536 175.916 197.264 175.78C196.992 175.644 196.68 175.576 196.328 175.576H195.332V174.832H196.292C196.748 174.832 197.116 174.692 197.396 174.412C197.684 174.132 197.828 173.768 197.828 173.32C197.828 173.024 197.748 172.756 197.588 172.516C197.428 172.276 197.208 172.088 196.928 171.952C196.656 171.808 196.348 171.736 196.004 171.736C195.572 171.736 195.184 171.816 194.84 171.976C194.504 172.128 194.16 172.388 193.808 172.756L193.232 172.18C193.608 171.78 194.032 171.48 194.504 171.28C194.976 171.072 195.48 170.968 196.016 170.968C196.528 170.968 196.984 171.068 197.384 171.268C197.792 171.468 198.112 171.744 198.344 172.096C198.576 172.44 198.692 172.832 198.692 173.272C198.692 173.712 198.548 174.108 198.26 174.46C197.972 174.804 197.592 175.044 197.12 175.18C197.688 175.308 198.144 175.556 198.488 175.924C198.832 176.292 199.004 176.72 199.004 177.208C199.004 177.672 198.876 178.088 198.62 178.456C198.372 178.824 198.024 179.112 197.576 179.32C197.136 179.528 196.632 179.632 196.064 179.632ZM203.554 179.632C202.914 179.632 202.346 179.448 201.85 179.08C201.362 178.712 200.978 178.204 200.698 177.556C200.418 176.9 200.278 176.148 200.278 175.3C200.278 174.444 200.418 173.692 200.698 173.044C200.978 172.396 201.362 171.888 201.85 171.52C202.346 171.152 202.914 170.968 203.554 170.968C204.194 170.968 204.758 171.152 205.246 171.52C205.742 171.888 206.13 172.396 206.41 173.044C206.69 173.692 206.83 174.444 206.83 175.3C206.83 176.148 206.69 176.9 206.41 177.556C206.13 178.204 205.742 178.712 205.246 179.08C204.758 179.448 204.194 179.632 203.554 179.632ZM203.554 178.852C204.042 178.852 204.462 178.708 204.814 178.42C205.174 178.124 205.454 177.712 205.654 177.184C205.854 176.648 205.954 176.02 205.954 175.3C205.954 174.58 205.854 173.956 205.654 173.428C205.454 172.892 205.174 172.48 204.814 172.192C204.462 171.896 204.042 171.748 203.554 171.748C203.074 171.748 202.654 171.896 202.294 172.192C201.934 172.48 201.654 172.892 201.454 173.428C201.254 173.956 201.154 174.58 201.154 175.3C201.154 176.02 201.254 176.648 201.454 177.184C201.654 177.712 201.934 178.124 202.294 178.42C202.654 178.708 203.074 178.852 203.554 178.852ZM211.384 179.5V171.1H214.852C215.396 171.1 215.868 171.204 216.268 171.412C216.668 171.612 216.976 171.9 217.192 172.276C217.416 172.644 217.528 173.08 217.528 173.584C217.528 174.08 217.416 174.516 217.192 174.892C216.976 175.268 216.668 175.56 216.268 175.768C215.868 175.968 215.396 176.068 214.852 176.068H212.308V179.5H211.384ZM212.308 175.276H214.744C215.328 175.276 215.784 175.124 216.112 174.82C216.44 174.516 216.604 174.104 216.604 173.584C216.604 173.064 216.44 172.656 216.112 172.36C215.784 172.064 215.328 171.916 214.744 171.916H212.308V175.276ZM219.236 179.5V171.1H220.52L223.328 177.076L226.136 171.1H227.42V179.5H226.544V172.192L223.328 178.9L220.1 172.168V179.5H219.236Z" fill="#151515"/>
<path d="M119.408 216V204.8H120.64V209.808H127.072V204.8H128.304V216H127.072V210.912H120.64V216H119.408ZM134.439 216.16C133.713 216.16 133.057 215.984 132.471 215.632C131.884 215.269 131.42 214.784 131.079 214.176C130.737 213.557 130.567 212.864 130.567 212.096C130.567 211.328 130.727 210.64 131.047 210.032C131.377 209.424 131.82 208.944 132.375 208.592C132.929 208.24 133.548 208.064 134.231 208.064C134.924 208.064 135.537 208.24 136.071 208.592C136.615 208.933 137.041 209.403 137.351 210C137.671 210.587 137.831 211.253 137.831 212V212.352H131.703C131.745 212.885 131.889 213.365 132.135 213.792C132.391 214.208 132.721 214.539 133.127 214.784C133.543 215.019 133.996 215.136 134.487 215.136C134.892 215.136 135.281 215.067 135.655 214.928C136.039 214.779 136.364 214.581 136.631 214.336L137.367 215.12C136.919 215.472 136.455 215.733 135.975 215.904C135.495 216.075 134.983 216.16 134.439 216.16ZM131.735 211.52H136.679C136.625 211.051 136.481 210.635 136.247 210.272C136.023 209.899 135.735 209.605 135.383 209.392C135.041 209.179 134.657 209.072 134.231 209.072C133.804 209.072 133.415 209.179 133.063 209.392C132.711 209.595 132.417 209.883 132.183 210.256C131.959 210.619 131.809 211.04 131.735 211.52ZM139.825 216V208.192H140.993V209.792C141.196 209.248 141.484 208.827 141.857 208.528C142.241 208.219 142.678 208.064 143.169 208.064C143.308 208.064 143.436 208.075 143.553 208.096C143.67 208.107 143.788 208.133 143.905 208.176V209.232C143.777 209.189 143.638 209.157 143.489 209.136C143.35 209.104 143.217 209.088 143.089 209.088C142.609 209.088 142.188 209.227 141.825 209.504C141.473 209.781 141.196 210.171 140.993 210.672V216H139.825ZM148.486 216.16C147.76 216.16 147.104 215.984 146.518 215.632C145.931 215.269 145.467 214.784 145.126 214.176C144.784 213.557 144.614 212.864 144.614 212.096C144.614 211.328 144.774 210.64 145.094 210.032C145.424 209.424 145.867 208.944 146.422 208.592C146.976 208.24 147.595 208.064 148.278 208.064C148.971 208.064 149.584 208.24 150.118 208.592C150.662 208.933 151.088 209.403 151.398 210C151.718 210.587 151.878 211.253 151.878 212V212.352H145.75C145.792 212.885 145.936 213.365 146.182 213.792C146.438 214.208 146.768 214.539 147.174 214.784C147.59 215.019 148.043 215.136 148.534 215.136C148.939 215.136 149.328 215.067 149.702 214.928C150.086 214.779 150.411 214.581 150.678 214.336L151.414 215.12C150.966 215.472 150.502 215.733 150.022 215.904C149.542 216.075 149.03 216.16 148.486 216.16ZM145.782 211.52H150.726C150.672 211.051 150.528 210.635 150.294 210.272C150.07 209.899 149.782 209.605 149.43 209.392C149.088 209.179 148.704 209.072 148.278 209.072C147.851 209.072 147.462 209.179 147.11 209.392C146.758 209.595 146.464 209.883 146.23 210.256C146.006 210.619 145.856 211.04 145.782 211.52ZM160.022 216.144C159.468 216.144 158.977 216.043 158.55 215.84C158.124 215.637 157.788 215.36 157.542 215.008C157.308 214.645 157.19 214.229 157.19 213.76C157.19 213.291 157.313 212.885 157.558 212.544C157.804 212.192 158.145 211.92 158.582 211.728C159.02 211.536 159.532 211.44 160.118 211.44C160.566 211.44 160.988 211.488 161.382 211.584C161.788 211.68 162.161 211.835 162.502 212.048V210.976C162.502 210.336 162.332 209.856 161.99 209.536C161.649 209.205 161.148 209.04 160.486 209.04C160.124 209.04 159.75 209.093 159.366 209.2C158.993 209.307 158.577 209.477 158.118 209.712L157.686 208.816C158.732 208.315 159.713 208.064 160.63 208.064C161.601 208.064 162.348 208.304 162.87 208.784C163.393 209.253 163.654 209.931 163.654 210.816V216H162.502V215.088C162.161 215.44 161.782 215.707 161.366 215.888C160.95 216.059 160.502 216.144 160.022 216.144ZM158.31 213.728C158.31 214.187 158.486 214.555 158.838 214.832C159.201 215.109 159.676 215.248 160.262 215.248C160.7 215.248 161.1 215.173 161.462 215.024C161.836 214.875 162.182 214.651 162.502 214.352V212.848C162.172 212.656 161.83 212.517 161.478 212.432C161.126 212.336 160.732 212.288 160.294 212.288C159.697 212.288 159.217 212.421 158.854 212.688C158.492 212.944 158.31 213.291 158.31 213.728ZM166.028 216V208.192H167.196V209.792C167.399 209.248 167.687 208.827 168.06 208.528C168.444 208.219 168.881 208.064 169.372 208.064C169.511 208.064 169.639 208.075 169.756 208.096C169.873 208.107 169.991 208.133 170.108 208.176V209.232C169.98 209.189 169.841 209.157 169.692 209.136C169.553 209.104 169.42 209.088 169.292 209.088C168.812 209.088 168.391 209.227 168.028 209.504C167.676 209.781 167.399 210.171 167.196 210.672V216H166.028ZM174.689 216.16C173.963 216.16 173.307 215.984 172.721 215.632C172.134 215.269 171.67 214.784 171.329 214.176C170.987 213.557 170.817 212.864 170.817 212.096C170.817 211.328 170.977 210.64 171.297 210.032C171.627 209.424 172.07 208.944 172.625 208.592C173.179 208.24 173.798 208.064 174.481 208.064C175.174 208.064 175.787 208.24 176.321 208.592C176.865 208.933 177.291 209.403 177.601 210C177.921 210.587 178.081 211.253 178.081 212V212.352H171.953C171.995 212.885 172.139 213.365 172.385 213.792C172.641 214.208 172.971 214.539 173.377 214.784C173.793 215.019 174.246 215.136 174.737 215.136C175.142 215.136 175.531 215.067 175.905 214.928C176.289 214.779 176.614 214.581 176.881 214.336L177.617 215.12C177.169 215.472 176.705 215.733 176.225 215.904C175.745 216.075 175.233 216.16 174.689 216.16ZM171.985 211.52H176.929C176.875 211.051 176.731 210.635 176.497 210.272C176.273 209.899 175.985 209.605 175.633 209.392C175.291 209.179 174.907 209.072 174.481 209.072C174.054 209.072 173.665 209.179 173.313 209.392C172.961 209.595 172.667 209.883 172.433 210.256C172.209 210.619 172.059 211.04 171.985 211.52ZM186.785 216.16C186.113 216.16 185.601 216 185.249 215.68C184.908 215.349 184.737 214.875 184.737 214.256V209.152H183.121V208.192H184.737V206.048L185.905 205.776V208.192H188.145V209.152H185.905V213.952C185.905 214.368 185.991 214.667 186.161 214.848C186.343 215.029 186.636 215.12 187.041 215.12C187.244 215.12 187.425 215.104 187.585 215.072C187.745 215.04 187.932 214.987 188.145 214.912V215.952C187.932 216.027 187.708 216.08 187.473 216.112C187.239 216.144 187.009 216.16 186.785 216.16ZM189.856 216V204.448L191.024 204.208V209.456C191.323 208.987 191.68 208.64 192.096 208.416C192.512 208.181 192.982 208.064 193.504 208.064C194.07 208.064 194.56 208.187 194.976 208.432C195.403 208.667 195.734 209.003 195.968 209.44C196.214 209.867 196.336 210.368 196.336 210.944V216H195.168V211.28C195.168 210.587 194.976 210.043 194.592 209.648C194.219 209.243 193.712 209.04 193.072 209.04C192.646 209.04 192.256 209.141 191.904 209.344C191.552 209.547 191.259 209.845 191.024 210.24V216H189.856ZM202.204 216.16C201.479 216.16 200.823 215.984 200.236 215.632C199.65 215.269 199.186 214.784 198.844 214.176C198.503 213.557 198.332 212.864 198.332 212.096C198.332 211.328 198.492 210.64 198.812 210.032C199.143 209.424 199.586 208.944 200.14 208.592C200.695 208.24 201.314 208.064 201.996 208.064C202.69 208.064 203.303 208.24 203.836 208.592C204.38 208.933 204.807 209.403 205.116 210C205.436 210.587 205.596 211.253 205.596 212V212.352H199.468C199.511 212.885 199.655 213.365 199.9 213.792C200.156 214.208 200.487 214.539 200.892 214.784C201.308 215.019 201.762 215.136 202.252 215.136C202.658 215.136 203.047 215.067 203.42 214.928C203.804 214.779 204.13 214.581 204.396 214.336L205.132 215.12C204.684 215.472 204.22 215.733 203.74 215.904C203.26 216.075 202.748 216.16 202.204 216.16ZM199.5 211.52H204.444C204.391 211.051 204.247 210.635 204.012 210.272C203.788 209.899 203.5 209.605 203.148 209.392C202.807 209.179 202.423 209.072 201.996 209.072C201.57 209.072 201.18 209.179 200.828 209.392C200.476 209.595 200.183 209.883 199.948 210.256C199.724 210.619 199.575 211.04 199.5 211.52ZM211.325 216V208.192H212.493V209.792C212.696 209.248 212.984 208.827 213.357 208.528C213.741 208.219 214.178 208.064 214.669 208.064C214.808 208.064 214.936 208.075 215.053 208.096C215.17 208.107 215.288 208.133 215.405 208.176V209.232C215.277 209.189 215.138 209.157 214.989 209.136C214.85 209.104 214.717 209.088 214.589 209.088C214.109 209.088 213.688 209.227 213.325 209.504C212.973 209.781 212.696 210.171 212.493 210.672V216H211.325ZM219.986 216.16C219.26 216.16 218.604 215.984 218.018 215.632C217.431 215.269 216.967 214.784 216.626 214.176C216.284 213.557 216.114 212.864 216.114 212.096C216.114 211.328 216.274 210.64 216.594 210.032C216.924 209.424 217.367 208.944 217.922 208.592C218.476 208.24 219.095 208.064 219.778 208.064C220.471 208.064 221.084 208.24 221.618 208.592C222.162 208.933 222.588 209.403 222.898 210C223.218 210.587 223.378 211.253 223.378 212V212.352H217.25C217.292 212.885 217.436 213.365 217.682 213.792C217.938 214.208 218.268 214.539 218.674 214.784C219.09 215.019 219.543 215.136 220.034 215.136C220.439 215.136 220.828 215.067 221.202 214.928C221.586 214.779 221.911 214.581 222.178 214.336L222.914 215.12C222.466 215.472 222.002 215.733 221.522 215.904C221.042 216.075 220.53 216.16 219.986 216.16ZM217.282 211.52H222.226C222.172 211.051 222.028 210.635 221.794 210.272C221.57 209.899 221.282 209.605 220.93 209.392C220.588 209.179 220.204 209.072 219.778 209.072C219.351 209.072 218.962 209.179 218.61 209.392C218.258 209.595 217.964 209.883 217.73 210.256C217.506 210.619 217.356 211.04 217.282 211.52ZM227.866 216.16C227.226 216.16 226.634 216.064 226.09 215.872C225.546 215.669 225.082 215.381 224.698 215.008L225.322 214.24C225.791 214.581 226.223 214.832 226.618 214.992C227.013 215.141 227.418 215.216 227.834 215.216C228.399 215.216 228.869 215.083 229.242 214.816C229.615 214.549 229.802 214.208 229.802 213.792C229.802 213.472 229.69 213.221 229.466 213.04C229.253 212.859 228.895 212.72 228.394 212.624L227.114 212.4C226.357 212.261 225.797 212.027 225.434 211.696C225.082 211.365 224.906 210.917 224.906 210.352C224.906 209.904 225.023 209.509 225.258 209.168C225.503 208.827 225.839 208.56 226.266 208.368C226.693 208.165 227.178 208.064 227.722 208.064C228.255 208.064 228.762 208.144 229.242 208.304C229.722 208.453 230.207 208.699 230.698 209.04L230.122 209.856C229.717 209.568 229.311 209.36 228.906 209.232C228.501 209.093 228.09 209.024 227.674 209.024C227.162 209.024 226.751 209.136 226.442 209.36C226.133 209.584 225.978 209.888 225.978 210.272C225.978 210.592 226.074 210.837 226.266 211.008C226.469 211.179 226.821 211.307 227.322 211.392L228.634 211.632C229.423 211.771 229.999 212.011 230.362 212.352C230.725 212.693 230.906 213.152 230.906 213.728C230.906 214.187 230.773 214.603 230.506 214.976C230.239 215.339 229.877 215.627 229.418 215.84C228.959 216.053 228.442 216.16 227.866 216.16ZM235.468 216.128C234.914 216.128 234.423 216.005 233.996 215.76C233.57 215.515 233.234 215.173 232.988 214.736C232.754 214.299 232.636 213.797 232.636 213.232V208.192H233.82V212.896C233.82 213.589 234.007 214.139 234.38 214.544C234.754 214.949 235.26 215.152 235.9 215.152C236.338 215.152 236.727 215.051 237.068 214.848C237.42 214.645 237.714 214.352 237.948 213.968V208.192H239.116V216H237.948V214.736C237.65 215.195 237.292 215.541 236.876 215.776C236.471 216.011 236.002 216.128 235.468 216.128ZM241.513 216V204.448L242.681 204.208V216H241.513ZM248.051 216.16C247.379 216.16 246.867 216 246.515 215.68C246.174 215.349 246.003 214.875 246.003 214.256V209.152H244.387V208.192H246.003V206.048L247.171 205.776V208.192H249.411V209.152H247.171V213.952C247.171 214.368 247.256 214.667 247.427 214.848C247.608 215.029 247.902 215.12 248.307 215.12C248.51 215.12 248.691 215.104 248.851 215.072C249.011 215.04 249.198 214.987 249.411 214.912V215.952C249.198 216.027 248.974 216.08 248.739 216.112C248.504 216.144 248.275 216.16 248.051 216.16ZM253.694 216.16C253.054 216.16 252.462 216.064 251.918 215.872C251.374 215.669 250.91 215.381 250.526 215.008L251.15 214.24C251.619 214.581 252.051 214.832 252.446 214.992C252.841 215.141 253.246 215.216 253.662 215.216C254.227 215.216 254.697 215.083 255.07 214.816C255.443 214.549 255.63 214.208 255.63 213.792C255.63 213.472 255.518 213.221 255.294 213.04C255.081 212.859 254.723 212.72 254.222 212.624L252.942 212.4C252.185 212.261 251.625 212.027 251.262 211.696C250.91 211.365 250.734 210.917 250.734 210.352C250.734 209.904 250.851 209.509 251.086 209.168C251.331 208.827 251.667 208.56 252.094 208.368C252.521 208.165 253.006 208.064 253.55 208.064C254.083 208.064 254.59 208.144 255.07 208.304C255.55 208.453 256.035 208.699 256.526 209.04L255.95 209.856C255.545 209.568 255.139 209.36 254.734 209.232C254.329 209.093 253.918 209.024 253.502 209.024C252.99 209.024 252.579 209.136 252.27 209.36C251.961 209.584 251.806 209.888 251.806 210.272C251.806 210.592 251.902 210.837 252.094 211.008C252.297 211.179 252.649 211.307 253.15 211.392L254.462 211.632C255.251 211.771 255.827 212.011 256.19 212.352C256.553 212.693 256.734 213.152 256.734 213.728C256.734 214.187 256.601 214.603 256.334 214.976C256.067 215.339 255.705 215.627 255.246 215.84C254.787 216.053 254.27 216.16 253.694 216.16ZM263.239 216V209.152H261.495V208.192H263.239V206.56C263.239 205.792 263.442 205.2 263.847 204.784C264.252 204.368 264.828 204.16 265.575 204.16C265.788 204.16 265.98 204.171 266.151 204.192C266.332 204.213 266.492 204.251 266.631 204.304V205.36C266.46 205.307 266.306 205.269 266.167 205.248C266.028 205.227 265.868 205.216 265.687 205.216C265.239 205.216 264.914 205.328 264.711 205.552C264.508 205.765 264.407 206.107 264.407 206.576V208.192H266.631V209.152H264.407V216H263.239ZM271.297 216.128C270.571 216.128 269.921 215.952 269.345 215.6C268.769 215.248 268.315 214.768 267.985 214.16C267.654 213.552 267.489 212.864 267.489 212.096C267.489 211.328 267.654 210.64 267.985 210.032C268.315 209.424 268.769 208.944 269.345 208.592C269.921 208.24 270.571 208.064 271.297 208.064C272.011 208.064 272.651 208.24 273.217 208.592C273.793 208.944 274.246 209.424 274.577 210.032C274.907 210.64 275.073 211.328 275.073 212.096C275.073 212.864 274.907 213.552 274.577 214.16C274.246 214.768 273.793 215.248 273.217 215.6C272.651 215.952 272.011 216.128 271.297 216.128ZM271.281 215.104C271.793 215.104 272.246 214.976 272.641 214.72C273.035 214.453 273.345 214.091 273.569 213.632C273.803 213.173 273.921 212.661 273.921 212.096C273.921 211.52 273.803 211.008 273.569 210.56C273.345 210.101 273.035 209.744 272.641 209.488C272.246 209.221 271.793 209.088 271.281 209.088C270.769 209.088 270.315 209.221 269.921 209.488C269.526 209.744 269.211 210.101 268.977 210.56C268.753 211.008 268.641 211.52 268.641 212.096C268.641 212.661 268.753 213.173 268.977 213.632C269.211 214.091 269.526 214.453 269.921 214.72C270.315 214.976 270.769 215.104 271.281 215.104ZM277.122 216V208.192H278.29V209.792C278.493 209.248 278.781 208.827 279.154 208.528C279.538 208.219 279.975 208.064 280.466 208.064C280.605 208.064 280.733 208.075 280.85 208.096C280.967 208.107 281.085 208.133 281.202 208.176V209.232C281.074 209.189 280.935 209.157 280.786 209.136C280.647 209.104 280.514 209.088 280.386 209.088C279.906 209.088 279.485 209.227 279.122 209.504C278.77 209.781 278.493 210.171 278.29 210.672V216H277.122ZM286.817 219.504C286.572 219.504 286.321 219.467 286.065 219.392V218.352C286.172 218.373 286.284 218.389 286.401 218.4C286.519 218.411 286.62 218.416 286.705 218.416C287.004 218.416 287.249 218.336 287.441 218.176C287.644 218.016 287.815 217.765 287.953 217.424L288.529 216L285.521 208.192H286.817L289.185 214.608L291.697 208.192H292.993L289.057 217.776C288.887 218.192 288.7 218.528 288.497 218.784C288.295 219.04 288.06 219.221 287.793 219.328C287.527 219.445 287.201 219.504 286.817 219.504ZM297.672 216.128C296.946 216.128 296.296 215.952 295.72 215.6C295.144 215.248 294.69 214.768 294.36 214.16C294.029 213.552 293.864 212.864 293.864 212.096C293.864 211.328 294.029 210.64 294.36 210.032C294.69 209.424 295.144 208.944 295.72 208.592C296.296 208.24 296.946 208.064 297.672 208.064C298.386 208.064 299.026 208.24 299.592 208.592C300.168 208.944 300.621 209.424 300.952 210.032C301.282 210.64 301.448 211.328 301.448 212.096C301.448 212.864 301.282 213.552 300.952 214.16C300.621 214.768 300.168 215.248 299.592 215.6C299.026 215.952 298.386 216.128 297.672 216.128ZM297.656 215.104C298.168 215.104 298.621 214.976 299.016 214.72C299.41 214.453 299.72 214.091 299.944 213.632C300.178 213.173 300.296 212.661 300.296 212.096C300.296 211.52 300.178 211.008 299.944 210.56C299.72 210.101 299.41 209.744 299.016 209.488C298.621 209.221 298.168 209.088 297.656 209.088C297.144 209.088 296.69 209.221 296.296 209.488C295.901 209.744 295.586 210.101 295.352 210.56C295.128 211.008 295.016 211.52 295.016 212.096C295.016 212.661 295.128 213.173 295.352 213.632C295.586 214.091 295.901 214.453 296.296 214.72C296.69 214.976 297.144 215.104 297.656 215.104ZM306.281 216.128C305.726 216.128 305.236 216.005 304.809 215.76C304.382 215.515 304.046 215.173 303.801 214.736C303.566 214.299 303.449 213.797 303.449 213.232V208.192H304.633V212.896C304.633 213.589 304.82 214.139 305.193 214.544C305.566 214.949 306.073 215.152 306.713 215.152C307.15 215.152 307.54 215.051 307.881 214.848C308.233 214.645 308.526 214.352 308.761 213.968V208.192H309.929V216H308.761V214.736C308.462 215.195 308.105 215.541 307.689 215.776C307.284 216.011 306.814 216.128 306.281 216.128ZM312.325 216V208.192H313.493V209.792C313.696 209.248 313.984 208.827 314.357 208.528C314.741 208.219 315.178 208.064 315.669 208.064C315.808 208.064 315.936 208.075 316.053 208.096C316.17 208.107 316.288 208.133 316.405 208.176V209.232C316.277 209.189 316.138 209.157 315.989 209.136C315.85 209.104 315.717 209.088 315.589 209.088C315.109 209.088 314.688 209.227 314.325 209.504C313.973 209.781 313.696 210.171 313.493 210.672V216H312.325ZM321.684 216V208.192H322.852V209.792C323.055 209.248 323.343 208.827 323.716 208.528C324.1 208.219 324.538 208.064 325.028 208.064C325.167 208.064 325.295 208.075 325.412 208.096C325.53 208.107 325.647 208.133 325.764 208.176V209.232C325.636 209.189 325.498 209.157 325.348 209.136C325.21 209.104 325.076 209.088 324.948 209.088C324.468 209.088 324.047 209.227 323.684 209.504C323.332 209.781 323.055 210.171 322.852 210.672V216H321.684ZM330.281 216.128C329.556 216.128 328.905 215.952 328.329 215.6C327.753 215.248 327.3 214.768 326.969 214.16C326.638 213.552 326.473 212.864 326.473 212.096C326.473 211.328 326.638 210.64 326.969 210.032C327.3 209.424 327.753 208.944 328.329 208.592C328.905 208.24 329.556 208.064 330.281 208.064C330.996 208.064 331.636 208.24 332.201 208.592C332.777 208.944 333.23 209.424 333.561 210.032C333.892 210.64 334.057 211.328 334.057 212.096C334.057 212.864 333.892 213.552 333.561 214.16C333.23 214.768 332.777 215.248 332.201 215.6C331.636 215.952 330.996 216.128 330.281 216.128ZM330.265 215.104C330.777 215.104 331.23 214.976 331.625 214.72C332.02 214.453 332.329 214.091 332.553 213.632C332.788 213.173 332.905 212.661 332.905 212.096C332.905 211.52 332.788 211.008 332.553 210.56C332.329 210.101 332.02 209.744 331.625 209.488C331.23 209.221 330.777 209.088 330.265 209.088C329.753 209.088 329.3 209.221 328.905 209.488C328.51 209.744 328.196 210.101 327.961 210.56C327.737 211.008 327.625 211.52 327.625 212.096C327.625 212.661 327.737 213.173 327.961 213.632C328.196 214.091 328.51 214.453 328.905 214.72C329.3 214.976 329.753 215.104 330.265 215.104ZM339.562 216.128C338.837 216.128 338.186 215.952 337.61 215.6C337.034 215.248 336.581 214.768 336.25 214.16C335.92 213.552 335.754 212.864 335.754 212.096C335.754 211.328 335.92 210.64 336.25 210.032C336.581 209.424 337.034 208.944 337.61 208.592C338.186 208.24 338.837 208.064 339.562 208.064C340.277 208.064 340.917 208.24 341.482 208.592C342.058 208.944 342.512 209.424 342.842 210.032C343.173 210.64 343.338 211.328 343.338 212.096C343.338 212.864 343.173 213.552 342.842 214.16C342.512 214.768 342.058 215.248 341.482 215.6C340.917 215.952 340.277 216.128 339.562 216.128ZM339.546 215.104C340.058 215.104 340.512 214.976 340.906 214.72C341.301 214.453 341.61 214.091 341.834 213.632C342.069 213.173 342.186 212.661 342.186 212.096C342.186 211.52 342.069 211.008 341.834 210.56C341.61 210.101 341.301 209.744 340.906 209.488C340.512 209.221 340.058 209.088 339.546 209.088C339.034 209.088 338.581 209.221 338.186 209.488C337.792 209.744 337.477 210.101 337.242 210.56C337.018 211.008 336.906 211.52 336.906 212.096C336.906 212.661 337.018 213.173 337.242 213.632C337.477 214.091 337.792 214.453 338.186 214.72C338.581 214.976 339.034 215.104 339.546 215.104ZM347.879 216.16C347.207 216.16 346.695 216 346.343 215.68C346.002 215.349 345.831 214.875 345.831 214.256V209.152H344.215V208.192H345.831V206.048L346.999 205.776V208.192H349.239V209.152H346.999V213.952C346.999 214.368 347.084 214.667 347.255 214.848C347.436 215.029 347.73 215.12 348.135 215.12C348.338 215.12 348.519 215.104 348.679 215.072C348.839 215.04 349.026 214.987 349.239 214.912V215.952C349.026 216.027 348.802 216.08 348.567 216.112C348.332 216.144 348.103 216.16 347.879 216.16ZM358.188 216.128C357.463 216.128 356.807 215.952 356.22 215.6C355.644 215.237 355.186 214.752 354.844 214.144C354.503 213.525 354.332 212.843 354.332 212.096C354.332 211.339 354.503 210.656 354.844 210.048C355.186 209.44 355.644 208.96 356.22 208.608C356.807 208.245 357.463 208.064 358.188 208.064C358.764 208.064 359.314 208.171 359.836 208.384C360.359 208.597 360.812 208.896 361.196 209.28L360.444 210.096C360.167 209.787 359.831 209.547 359.436 209.376C359.042 209.205 358.642 209.12 358.236 209.12C357.724 209.12 357.26 209.253 356.844 209.52C356.439 209.787 356.114 210.144 355.868 210.592C355.623 211.04 355.5 211.541 355.5 212.096C355.5 212.651 355.623 213.152 355.868 213.6C356.114 214.048 356.439 214.405 356.844 214.672C357.26 214.939 357.724 215.072 358.236 215.072C358.642 215.072 359.042 214.987 359.436 214.816C359.831 214.635 360.167 214.395 360.444 214.096L361.196 214.912C360.812 215.296 360.359 215.595 359.836 215.808C359.314 216.021 358.764 216.128 358.188 216.128ZM365.241 216.144C364.686 216.144 364.196 216.043 363.769 215.84C363.342 215.637 363.006 215.36 362.761 215.008C362.526 214.645 362.409 214.229 362.409 213.76C362.409 213.291 362.532 212.885 362.777 212.544C363.022 212.192 363.364 211.92 363.801 211.728C364.238 211.536 364.75 211.44 365.337 211.44C365.785 211.44 366.206 211.488 366.601 211.584C367.006 211.68 367.38 211.835 367.721 212.048V210.976C367.721 210.336 367.55 209.856 367.209 209.536C366.868 209.205 366.366 209.04 365.705 209.04C365.342 209.04 364.969 209.093 364.585 209.2C364.212 209.307 363.796 209.477 363.337 209.712L362.905 208.816C363.95 208.315 364.932 208.064 365.849 208.064C366.82 208.064 367.566 208.304 368.089 208.784C368.612 209.253 368.873 209.931 368.873 210.816V216H367.721V215.088C367.38 215.44 367.001 215.707 366.585 215.888C366.169 216.059 365.721 216.144 365.241 216.144ZM363.529 213.728C363.529 214.187 363.705 214.555 364.057 214.832C364.42 215.109 364.894 215.248 365.481 215.248C365.918 215.248 366.318 215.173 366.681 215.024C367.054 214.875 367.401 214.651 367.721 214.352V212.848C367.39 212.656 367.049 212.517 366.697 212.432C366.345 212.336 365.95 212.288 365.513 212.288C364.916 212.288 364.436 212.421 364.073 212.688C363.71 212.944 363.529 213.291 363.529 213.728ZM373.953 216.128C373.398 216.128 372.907 216.005 372.481 215.76C372.054 215.515 371.718 215.173 371.473 214.736C371.238 214.299 371.121 213.797 371.121 213.232V208.192H372.305V212.896C372.305 213.589 372.491 214.139 372.865 214.544C373.238 214.949 373.745 215.152 374.385 215.152C374.822 215.152 375.211 215.051 375.553 214.848C375.905 214.645 376.198 214.352 376.433 213.968V208.192H377.601V216H376.433V214.736C376.134 215.195 375.777 215.541 375.361 215.776C374.955 216.011 374.486 216.128 373.953 216.128ZM382.413 216.16C381.773 216.16 381.181 216.064 380.637 215.872C380.093 215.669 379.629 215.381 379.245 215.008L379.869 214.24C380.338 214.581 380.77 214.832 381.165 214.992C381.56 215.141 381.965 215.216 382.381 215.216C382.946 215.216 383.416 215.083 383.789 214.816C384.162 214.549 384.349 214.208 384.349 213.792C384.349 213.472 384.237 213.221 384.013 213.04C383.8 212.859 383.442 212.72 382.941 212.624L381.661 212.4C380.904 212.261 380.344 212.027 379.981 211.696C379.629 211.365 379.453 210.917 379.453 210.352C379.453 209.904 379.57 209.509 379.805 209.168C380.05 208.827 380.386 208.56 380.813 208.368C381.24 208.165 381.725 208.064 382.269 208.064C382.802 208.064 383.309 208.144 383.789 208.304C384.269 208.453 384.754 208.699 385.245 209.04L384.669 209.856C384.264 209.568 383.858 209.36 383.453 209.232C383.048 209.093 382.637 209.024 382.221 209.024C381.709 209.024 381.298 209.136 380.989 209.36C380.68 209.584 380.525 209.888 380.525 210.272C380.525 210.592 380.621 210.837 380.813 211.008C381.016 211.179 381.368 211.307 381.869 211.392L383.181 211.632C383.97 211.771 384.546 212.011 384.909 212.352C385.272 212.693 385.453 213.152 385.453 213.728C385.453 214.187 385.32 214.603 385.053 214.976C384.786 215.339 384.424 215.627 383.965 215.84C383.506 216.053 382.989 216.16 382.413 216.16ZM390.829 216.16C390.104 216.16 389.448 215.984 388.861 215.632C388.275 215.269 387.811 214.784 387.469 214.176C387.128 213.557 386.957 212.864 386.957 212.096C386.957 211.328 387.117 210.64 387.437 210.032C387.768 209.424 388.211 208.944 388.765 208.592C389.32 208.24 389.939 208.064 390.621 208.064C391.315 208.064 391.928 208.24 392.461 208.592C393.005 208.933 393.432 209.403 393.741 210C394.061 210.587 394.221 211.253 394.221 212V212.352H388.093C388.136 212.885 388.28 213.365 388.525 213.792C388.781 214.208 389.112 214.539 389.517 214.784C389.933 215.019 390.387 215.136 390.877 215.136C391.283 215.136 391.672 215.067 392.045 214.928C392.429 214.779 392.755 214.581 393.021 214.336L393.757 215.12C393.309 215.472 392.845 215.733 392.365 215.904C391.885 216.075 391.373 216.16 390.829 216.16ZM388.125 211.52H393.069C393.016 211.051 392.872 210.635 392.637 210.272C392.413 209.899 392.125 209.605 391.773 209.392C391.432 209.179 391.048 209.072 390.621 209.072C390.195 209.072 389.805 209.179 389.453 209.392C389.101 209.595 388.808 209.883 388.573 210.256C388.349 210.619 388.2 211.04 388.125 211.52ZM402.366 216.144C401.811 216.144 401.321 216.043 400.894 215.84C400.467 215.637 400.131 215.36 399.886 215.008C399.651 214.645 399.534 214.229 399.534 213.76C399.534 213.291 399.657 212.885 399.902 212.544C400.147 212.192 400.489 211.92 400.926 211.728C401.363 211.536 401.875 211.44 402.462 211.44C402.91 211.44 403.331 211.488 403.726 211.584C404.131 211.68 404.505 211.835 404.846 212.048V210.976C404.846 210.336 404.675 209.856 404.334 209.536C403.993 209.205 403.491 209.04 402.83 209.04C402.467 209.04 402.094 209.093 401.71 209.2C401.337 209.307 400.921 209.477 400.462 209.712L400.03 208.816C401.075 208.315 402.057 208.064 402.974 208.064C403.945 208.064 404.691 208.304 405.214 208.784C405.737 209.253 405.998 209.931 405.998 210.816V216H404.846V215.088C404.505 215.44 404.126 215.707 403.71 215.888C403.294 216.059 402.846 216.144 402.366 216.144ZM400.654 213.728C400.654 214.187 400.83 214.555 401.182 214.832C401.545 215.109 402.019 215.248 402.606 215.248C403.043 215.248 403.443 215.173 403.806 215.024C404.179 214.875 404.526 214.651 404.846 214.352V212.848C404.515 212.656 404.174 212.517 403.822 212.432C403.47 212.336 403.075 212.288 402.638 212.288C402.041 212.288 401.561 212.421 401.198 212.688C400.835 212.944 400.654 213.291 400.654 213.728ZM408.372 216V208.192H409.54V209.456C409.839 208.987 410.196 208.64 410.612 208.416C411.028 208.181 411.497 208.064 412.02 208.064C412.585 208.064 413.076 208.187 413.492 208.432C413.919 208.667 414.249 209.003 414.484 209.44C414.729 209.867 414.852 210.368 414.852 210.944V216H413.684V211.28C413.684 210.587 413.492 210.043 413.108 209.648C412.735 209.243 412.228 209.04 411.588 209.04C411.161 209.04 410.772 209.141 410.42 209.344C410.068 209.547 409.775 209.845 409.54 210.24V216H408.372ZM419.616 216.144C419.061 216.144 418.571 216.043 418.144 215.84C417.717 215.637 417.381 215.36 417.136 215.008C416.901 214.645 416.784 214.229 416.784 213.76C416.784 213.291 416.907 212.885 417.152 212.544C417.397 212.192 417.739 211.92 418.176 211.728C418.613 211.536 419.125 211.44 419.712 211.44C420.16 211.44 420.581 211.488 420.976 211.584C421.381 211.68 421.755 211.835 422.096 212.048V210.976C422.096 210.336 421.925 209.856 421.584 209.536C421.243 209.205 420.741 209.04 420.08 209.04C419.717 209.04 419.344 209.093 418.96 209.2C418.587 209.307 418.171 209.477 417.712 209.712L417.28 208.816C418.325 208.315 419.307 208.064 420.224 208.064C421.195 208.064 421.941 208.304 422.464 208.784C422.987 209.253 423.248 209.931 423.248 210.816V216H422.096V215.088C421.755 215.44 421.376 215.707 420.96 215.888C420.544 216.059 420.096 216.144 419.616 216.144ZM417.904 213.728C417.904 214.187 418.08 214.555 418.432 214.832C418.795 215.109 419.269 215.248 419.856 215.248C420.293 215.248 420.693 215.173 421.056 215.024C421.429 214.875 421.776 214.651 422.096 214.352V212.848C421.765 212.656 421.424 212.517 421.072 212.432C420.72 212.336 420.325 212.288 419.888 212.288C419.291 212.288 418.811 212.421 418.448 212.688C418.085 212.944 417.904 213.291 417.904 213.728ZM425.622 216V204.448L426.79 204.208V216H425.622ZM429.52 219.504C429.275 219.504 429.024 219.467 428.768 219.392V218.352C428.875 218.373 428.987 218.389 429.104 218.4C429.222 218.411 429.323 218.416 429.408 218.416C429.707 218.416 429.952 218.336 430.144 218.176C430.347 218.016 430.518 217.765 430.656 217.424L431.232 216L428.224 208.192H429.52L431.888 214.608L434.4 208.192H435.696L431.76 217.776C431.59 218.192 431.403 218.528 431.2 218.784C430.998 219.04 430.763 219.221 430.496 219.328C430.23 219.445 429.904 219.504 429.52 219.504ZM439.569 216.16C438.929 216.16 438.337 216.064 437.793 215.872C437.249 215.669 436.785 215.381 436.401 215.008L437.025 214.24C437.494 214.581 437.926 214.832 438.321 214.992C438.716 215.141 439.121 215.216 439.537 215.216C440.102 215.216 440.572 215.083 440.945 214.816C441.318 214.549 441.505 214.208 441.505 213.792C441.505 213.472 441.393 213.221 441.169 213.04C440.956 212.859 440.598 212.72 440.097 212.624L438.817 212.4C438.06 212.261 437.5 212.027 437.137 211.696C436.785 211.365 436.609 210.917 436.609 210.352C436.609 209.904 436.726 209.509 436.961 209.168C437.206 208.827 437.542 208.56 437.969 208.368C438.396 208.165 438.881 208.064 439.425 208.064C439.958 208.064 440.465 208.144 440.945 208.304C441.425 208.453 441.91 208.699 442.401 209.04L441.825 209.856C441.42 209.568 441.014 209.36 440.609 209.232C440.204 209.093 439.793 209.024 439.377 209.024C438.865 209.024 438.454 209.136 438.145 209.36C437.836 209.584 437.681 209.888 437.681 210.272C437.681 210.592 437.777 210.837 437.969 211.008C438.172 211.179 438.524 211.307 439.025 211.392L440.337 211.632C441.126 211.771 441.702 212.011 442.065 212.352C442.428 212.693 442.609 213.152 442.609 213.728C442.609 214.187 442.476 214.603 442.209 214.976C441.942 215.339 441.58 215.627 441.121 215.84C440.662 216.053 440.145 216.16 439.569 216.16ZM444.372 216V208.192H445.539V216H444.372ZM444.964 206.256C444.729 206.256 444.526 206.176 444.356 206.016C444.196 205.845 444.116 205.648 444.116 205.424C444.116 205.2 444.196 205.008 444.356 204.848C444.526 204.677 444.729 204.592 444.964 204.592C445.198 204.592 445.396 204.677 445.556 204.848C445.726 205.008 445.812 205.2 445.812 205.424C445.812 205.648 445.726 205.845 445.556 206.016C445.396 206.176 445.198 206.256 444.964 206.256ZM450.35 216.16C449.71 216.16 449.118 216.064 448.574 215.872C448.03 215.669 447.566 215.381 447.182 215.008L447.806 214.24C448.276 214.581 448.708 214.832 449.102 214.992C449.497 215.141 449.902 215.216 450.318 215.216C450.884 215.216 451.353 215.083 451.726 214.816C452.1 214.549 452.286 214.208 452.286 213.792C452.286 213.472 452.174 213.221 451.95 213.04C451.737 212.859 451.38 212.72 450.878 212.624L449.598 212.4C448.841 212.261 448.281 212.027 447.918 211.696C447.566 211.365 447.39 210.917 447.39 210.352C447.39 209.904 447.508 209.509 447.742 209.168C447.988 208.827 448.324 208.56 448.75 208.368C449.177 208.165 449.662 208.064 450.206 208.064C450.74 208.064 451.246 208.144 451.726 208.304C452.206 208.453 452.692 208.699 453.182 209.04L452.606 209.856C452.201 209.568 451.796 209.36 451.39 209.232C450.985 209.093 450.574 209.024 450.158 209.024C449.646 209.024 449.236 209.136 448.926 209.36C448.617 209.584 448.462 209.888 448.462 210.272C448.462 210.592 448.558 210.837 448.75 211.008C448.953 211.179 449.305 211.307 449.806 211.392L451.118 211.632C451.908 211.771 452.484 212.011 452.846 212.352C453.209 212.693 453.39 213.152 453.39 213.728C453.39 214.187 453.257 214.603 452.99 214.976C452.724 215.339 452.361 215.627 451.902 215.84C451.444 216.053 450.926 216.16 450.35 216.16ZM455.969 216.128C455.734 216.128 455.531 216.043 455.361 215.872C455.201 215.701 455.121 215.499 455.121 215.264C455.121 215.019 455.201 214.816 455.361 214.656C455.531 214.485 455.734 214.4 455.969 214.4C456.203 214.4 456.401 214.485 456.561 214.656C456.731 214.816 456.817 215.019 456.817 215.264C456.817 215.499 456.731 215.701 456.561 215.872C456.401 216.043 456.203 216.128 455.969 216.128ZM455.969 209.776C455.734 209.776 455.531 209.691 455.361 209.52C455.201 209.349 455.121 209.147 455.121 208.912C455.121 208.667 455.201 208.464 455.361 208.304C455.531 208.133 455.734 208.048 455.969 208.048C456.203 208.048 456.401 208.133 456.561 208.304C456.731 208.464 456.817 208.667 456.817 208.912C456.817 209.147 456.731 209.349 456.561 209.52C456.401 209.691 456.203 209.776 455.969 209.776Z" fill="#151515"/>
</g>
</g>
</g>
<defs>
<filter id="filter0_d_875_73331" x="2" y="-28" width="520" height="312" filterUnits="userSpaceOnUse" color-interpolation-filters="sRGB">
<feFlood flood-opacity="0" result="BackgroundImageFix"/>
<feColorMatrix in="SourceAlpha" type="matrix" values="0 0 0 0 0 0 0 0 0 0 0 0 0 0 0 0 0 0 127 0" result="hardAlpha"/>
<feOffset dy="10"/>
<feGaussianBlur stdDeviation="10"/>
<feColorMatrix type="matrix" values="0 0 0 0 0.160784 0 0 0 0 0.160784 0 0 0 0 0.160784 0 0 0 0.15 0"/>
<feBlend mode="normal" in2="BackgroundImageFix" result="effect1_dropShadow_875_73331"/>
<feBlend mode="normal" in="SourceGraphic" in2="effect1_dropShadow_875_73331" result="shape"/>
</filter>
<clipPath id="clip0_875_73331">
<rect width="526" height="242" fill="white"/>
</clipPath>
<clipPath id="clip1_875_73331">
<path d="M22 -2C22 -10.8366 29.1634 -18 38 -18H486C494.837 -18 502 -10.8366 502 -2V238C502 246.837 494.837 254 486 254H38C29.1635 254 22 246.837 22 238V-2Z" fill="white"/>
</clipPath>
<clipPath id="clip2_875_73331">
<path d="M46 51C46 37.7452 56.7452 27 70 27C83.2548 27 94 37.7452 94 51C94 64.2548 83.2548 75 70 75C56.7452 75 46 64.2548 46 51Z" fill="white"/>
</clipPath>
<clipPath id="clip3_875_73331">
<rect width="48" height="48" fill="white" transform="translate(46 27)"/>
</clipPath>
<clipPath id="clip4_875_73331">
<rect width="33" height="31" fill="white" transform="translate(54 171)"/>
</clipPath>
</defs>
</svg>
