<svg width="480" height="156" viewBox="0 0 480 156" fill="none" xmlns="http://www.w3.org/2000/svg">
<rect width="480" height="156" fill="#F2F2F2"/>
<g clip-path="url(#clip0_329_54389)">
<g clip-path="url(#clip1_329_54389)">
<circle cx="48" cy="44" r="24" fill="#F2F2F2"/>
<mask id="mask0_329_54389" style="mask-type:luminance" maskUnits="userSpaceOnUse" x="24" y="20" width="48" height="48">
<circle cx="48" cy="44" r="24" fill="white"/>
</mask>
<g mask="url(#mask0_329_54389)">
<path fill-rule="evenodd" clip-rule="evenodd" d="M47.5255 46.8076C42.8588 46.8076 38.9922 42.9422 38.9922 38.2772C38.9922 33.6121 42.8588 29.7468 47.5255 29.7468C52.1921 29.7468 56.0588 33.6121 56.0588 38.2772C56.0588 42.9422 52.3255 46.8076 47.5255 46.8076Z" fill="#C7C7C7"/>
<path d="M41.6573 67.9849V59.0547C38.9906 59.5878 37.7906 60.9207 37.524 63.7197L37.3906 67.9849H41.6573Z" fill="#C7C7C7"/>
<path d="M37.3916 68L37.525 63.7348C37.7916 60.9358 38.9916 59.6029 41.6583 59.0698V68H54.1916V59.0698C56.8582 59.6029 58.0582 60.9358 58.3249 63.7348L58.4582 68H64.7249C64.1915 62.8018 62.9915 56.0042 60.8582 53.3384C59.3915 51.4724 57.7916 50.4061 56.1916 49.873C54.5916 49.3398 53.7916 49.0732 47.7916 49.0732C41.7916 49.0732 39.6583 50.0063 39.6583 50.0063C38.0583 50.5394 36.4583 51.6057 35.125 53.4717C32.8583 56.0042 31.6583 62.9351 31.125 68H37.3916Z" fill="#C7C7C7"/>
<path d="M58.4593 67.9849L58.326 63.7197C58.0593 60.9207 56.8593 59.5878 54.1927 59.0547V67.9849H58.4593Z" fill="#C7C7C7"/>
<path d="M48 20.5C60.9789 20.5 71.5 31.0182 71.5 43.9922C71.4998 56.966 60.9787 67.4834 48 67.4834C35.0213 67.4834 24.5002 56.966 24.5 43.9922C24.5 31.0182 35.0211 20.5 48 20.5Z" stroke="#C7C7C7"/>
</g>
</g>
</g>
<path d="M101.096 35.154C100.265 35.154 99.5373 34.9767 98.912 34.622C98.296 34.2673 97.82 33.7633 97.484 33.11C97.148 32.4567 96.98 31.6867 96.98 30.8V25.2H98.66V30.8C98.66 31.3787 98.758 31.878 98.954 32.298C99.1593 32.718 99.444 33.0493 99.808 33.292C100.172 33.5253 100.601 33.642 101.096 33.642C101.591 33.642 102.02 33.5253 102.384 33.292C102.757 33.0493 103.042 32.718 103.238 32.298C103.434 31.878 103.532 31.3787 103.532 30.8V25.2H105.212V30.8C105.212 31.6867 105.044 32.4567 104.708 33.11C104.381 33.7633 103.91 34.2673 103.294 34.622C102.678 34.9767 101.945 35.154 101.096 35.154ZM109.614 35.14C109.017 35.14 108.457 35.0607 107.934 34.902C107.421 34.734 106.977 34.496 106.604 34.188L107.346 33.138C107.813 33.4273 108.214 33.6327 108.55 33.754C108.895 33.8753 109.245 33.936 109.6 33.936C110.02 33.936 110.361 33.8473 110.622 33.67C110.883 33.4927 111.014 33.264 111.014 32.984C111.014 32.7693 110.935 32.6013 110.776 32.48C110.627 32.3493 110.379 32.2513 110.034 32.186L108.802 31.976C108.121 31.8453 107.612 31.6213 107.276 31.304C106.94 30.9867 106.772 30.5667 106.772 30.044C106.772 29.6053 106.884 29.2273 107.108 28.91C107.341 28.5833 107.659 28.3313 108.06 28.154C108.471 27.9673 108.947 27.874 109.488 27.874C109.973 27.874 110.445 27.944 110.902 28.084C111.359 28.224 111.807 28.434 112.246 28.714L111.504 29.764C111.149 29.5307 110.795 29.3627 110.44 29.26C110.095 29.148 109.745 29.092 109.39 29.092C109.026 29.092 108.732 29.1667 108.508 29.316C108.293 29.456 108.186 29.652 108.186 29.904C108.186 30.128 108.256 30.3007 108.396 30.422C108.545 30.534 108.802 30.618 109.166 30.674L110.412 30.912C111.112 31.0333 111.63 31.2573 111.966 31.584C112.311 31.9013 112.484 32.326 112.484 32.858C112.484 33.2873 112.358 33.6747 112.106 34.02C111.854 34.3653 111.513 34.6407 111.084 34.846C110.655 35.042 110.165 35.14 109.614 35.14ZM117.263 35.14C116.591 35.14 115.985 34.9813 115.443 34.664C114.902 34.3373 114.473 33.9033 114.155 33.362C113.838 32.8113 113.679 32.1907 113.679 31.5C113.679 30.8093 113.829 30.1933 114.127 29.652C114.426 29.1107 114.832 28.6813 115.345 28.364C115.868 28.0373 116.447 27.874 117.081 27.874C117.735 27.874 118.309 28.0327 118.803 28.35C119.307 28.6673 119.699 29.0967 119.979 29.638C120.269 30.1793 120.413 30.8 120.413 31.5V31.878H115.233C115.289 32.2607 115.411 32.6013 115.597 32.9C115.793 33.1893 116.041 33.418 116.339 33.586C116.647 33.754 116.979 33.838 117.333 33.838C117.66 33.838 117.968 33.782 118.257 33.67C118.556 33.5487 118.803 33.3853 118.999 33.18L120.035 34.118C119.606 34.4727 119.167 34.734 118.719 34.902C118.281 35.0607 117.795 35.14 117.263 35.14ZM115.247 30.898H118.915C118.859 30.562 118.743 30.2633 118.565 30.002C118.397 29.7407 118.183 29.5353 117.921 29.386C117.669 29.2367 117.389 29.162 117.081 29.162C116.773 29.162 116.489 29.2367 116.227 29.386C115.975 29.526 115.765 29.7267 115.597 29.988C115.429 30.2493 115.313 30.5527 115.247 30.898ZM122.027 35V27.986H123.609V29.498C123.814 28.966 124.08 28.56 124.407 28.28C124.734 28 125.112 27.86 125.541 27.86C125.672 27.8693 125.788 27.8833 125.891 27.902C125.994 27.9113 126.106 27.944 126.227 28V29.386C126.106 29.33 125.966 29.288 125.807 29.26C125.658 29.232 125.508 29.218 125.359 29.218C124.976 29.218 124.631 29.3207 124.323 29.526C124.024 29.7313 123.786 30.016 123.609 30.38V35H122.027Z" fill="#151515"/>
<path d="M136.836 34.5V27.036L135.492 27.636V26.844L137.16 26.1H137.7V34.5H136.836ZM140.18 34.596C140.004 34.596 139.852 34.532 139.724 34.404C139.604 34.276 139.544 34.124 139.544 33.948C139.544 33.764 139.604 33.612 139.724 33.492C139.852 33.364 140.004 33.3 140.18 33.3C140.356 33.3 140.504 33.364 140.624 33.492C140.752 33.612 140.816 33.764 140.816 33.948C140.816 34.124 140.752 34.276 140.624 34.404C140.504 34.532 140.356 34.596 140.18 34.596ZM140.18 29.832C140.004 29.832 139.852 29.768 139.724 29.64C139.604 29.512 139.544 29.36 139.544 29.184C139.544 29 139.604 28.848 139.724 28.728C139.852 28.6 140.004 28.536 140.18 28.536C140.356 28.536 140.504 28.6 140.624 28.728C140.752 28.848 140.816 29 140.816 29.184C140.816 29.36 140.752 29.512 140.624 29.64C140.504 29.768 140.356 29.832 140.18 29.832ZM145.064 34.632C144.488 34.632 143.948 34.532 143.444 34.332C142.948 34.132 142.508 33.836 142.124 33.444L142.7 32.88C143.052 33.232 143.412 33.488 143.78 33.648C144.156 33.8 144.58 33.876 145.052 33.876C145.46 33.876 145.82 33.804 146.132 33.66C146.452 33.516 146.7 33.316 146.876 33.06C147.052 32.804 147.14 32.512 147.14 32.184C147.14 31.872 147.06 31.596 146.9 31.356C146.748 31.108 146.536 30.916 146.264 30.78C145.992 30.644 145.68 30.576 145.328 30.576H144.332V29.832H145.292C145.748 29.832 146.116 29.692 146.396 29.412C146.684 29.132 146.828 28.768 146.828 28.32C146.828 28.024 146.748 27.756 146.588 27.516C146.428 27.276 146.208 27.088 145.928 26.952C145.656 26.808 145.348 26.736 145.004 26.736C144.572 26.736 144.184 26.816 143.84 26.976C143.504 27.128 143.16 27.388 142.808 27.756L142.232 27.18C142.608 26.78 143.032 26.48 143.504 26.28C143.976 26.072 144.48 25.968 145.016 25.968C145.528 25.968 145.984 26.068 146.384 26.268C146.792 26.468 147.112 26.744 147.344 27.096C147.576 27.44 147.692 27.832 147.692 28.272C147.692 28.712 147.548 29.108 147.26 29.46C146.972 29.804 146.592 30.044 146.12 30.18C146.688 30.308 147.144 30.556 147.488 30.924C147.832 31.292 148.004 31.72 148.004 32.208C148.004 32.672 147.876 33.088 147.62 33.456C147.372 33.824 147.024 34.112 146.576 34.32C146.136 34.528 145.632 34.632 145.064 34.632ZM152.554 34.632C151.914 34.632 151.346 34.448 150.85 34.08C150.362 33.712 149.978 33.204 149.698 32.556C149.418 31.9 149.278 31.148 149.278 30.3C149.278 29.444 149.418 28.692 149.698 28.044C149.978 27.396 150.362 26.888 150.85 26.52C151.346 26.152 151.914 25.968 152.554 25.968C153.194 25.968 153.758 26.152 154.246 26.52C154.742 26.888 155.13 27.396 155.41 28.044C155.69 28.692 155.83 29.444 155.83 30.3C155.83 31.148 155.69 31.9 155.41 32.556C155.13 33.204 154.742 33.712 154.246 34.08C153.758 34.448 153.194 34.632 152.554 34.632ZM152.554 33.852C153.042 33.852 153.462 33.708 153.814 33.42C154.174 33.124 154.454 32.712 154.654 32.184C154.854 31.648 154.954 31.02 154.954 30.3C154.954 29.58 154.854 28.956 154.654 28.428C154.454 27.892 154.174 27.48 153.814 27.192C153.462 26.896 153.042 26.748 152.554 26.748C152.074 26.748 151.654 26.896 151.294 27.192C150.934 27.48 150.654 27.892 150.454 28.428C150.254 28.956 150.154 29.58 150.154 30.3C150.154 31.02 150.254 31.648 150.454 32.184C150.654 32.712 150.934 33.124 151.294 33.42C151.654 33.708 152.074 33.852 152.554 33.852ZM160.384 34.5V26.1H163.852C164.396 26.1 164.868 26.204 165.268 26.412C165.668 26.612 165.976 26.9 166.192 27.276C166.416 27.644 166.528 28.08 166.528 28.584C166.528 29.08 166.416 29.516 166.192 29.892C165.976 30.268 165.668 30.56 165.268 30.768C164.868 30.968 164.396 31.068 163.852 31.068H161.308V34.5H160.384ZM161.308 30.276H163.744C164.328 30.276 164.784 30.124 165.112 29.82C165.44 29.516 165.604 29.104 165.604 28.584C165.604 28.064 165.44 27.656 165.112 27.36C164.784 27.064 164.328 26.916 163.744 26.916H161.308V30.276ZM168.236 34.5V26.1H169.52L172.328 32.076L175.136 26.1H176.42V34.5H175.544V27.192L172.328 33.9L169.1 27.168V34.5H168.236Z" fill="#151515"/>
<path d="M96 55C96 51.6863 98.6863 49 102 49H450C453.314 49 456 51.6863 456 55V83C456 86.3137 453.314 89 450 89H102C98.6863 89 96 86.3137 96 83V55Z" fill="#0066CC"/>
<path d="M105.408 75V63.8H106.64V68.808H113.072V63.8H114.304V75H113.072V69.912H106.64V75H105.408ZM120.439 75.16C119.713 75.16 119.057 74.984 118.471 74.632C117.884 74.2693 117.42 73.784 117.079 73.176C116.737 72.5573 116.567 71.864 116.567 71.096C116.567 70.328 116.727 69.64 117.047 69.032C117.377 68.424 117.82 67.944 118.375 67.592C118.929 67.24 119.548 67.064 120.231 67.064C120.924 67.064 121.537 67.24 122.071 67.592C122.615 67.9333 123.041 68.4027 123.351 69C123.671 69.5867 123.831 70.2533 123.831 71V71.352H117.703C117.745 71.8853 117.889 72.3653 118.135 72.792C118.391 73.208 118.721 73.5387 119.127 73.784C119.543 74.0187 119.996 74.136 120.487 74.136C120.892 74.136 121.281 74.0667 121.655 73.928C122.039 73.7787 122.364 73.5813 122.631 73.336L123.367 74.12C122.919 74.472 122.455 74.7333 121.975 74.904C121.495 75.0747 120.983 75.16 120.439 75.16ZM117.735 70.52H122.679C122.625 70.0507 122.481 69.6347 122.247 69.272C122.023 68.8987 121.735 68.6053 121.383 68.392C121.041 68.1787 120.657 68.072 120.231 68.072C119.804 68.072 119.415 68.1787 119.063 68.392C118.711 68.5947 118.417 68.8827 118.183 69.256C117.959 69.6187 117.809 70.04 117.735 70.52ZM125.825 75V67.192H126.993V68.792C127.196 68.248 127.484 67.8267 127.857 67.528C128.241 67.2187 128.678 67.064 129.169 67.064C129.308 67.064 129.436 67.0747 129.553 67.096C129.67 67.1067 129.788 67.1333 129.905 67.176V68.232C129.777 68.1893 129.638 68.1573 129.489 68.136C129.35 68.104 129.217 68.088 129.089 68.088C128.609 68.088 128.188 68.2267 127.825 68.504C127.473 68.7813 127.196 69.1707 126.993 69.672V75H125.825ZM134.486 75.16C133.76 75.16 133.104 74.984 132.518 74.632C131.931 74.2693 131.467 73.784 131.126 73.176C130.784 72.5573 130.614 71.864 130.614 71.096C130.614 70.328 130.774 69.64 131.094 69.032C131.424 68.424 131.867 67.944 132.422 67.592C132.976 67.24 133.595 67.064 134.278 67.064C134.971 67.064 135.584 67.24 136.118 67.592C136.662 67.9333 137.088 68.4027 137.398 69C137.718 69.5867 137.878 70.2533 137.878 71V71.352H131.75C131.792 71.8853 131.936 72.3653 132.182 72.792C132.438 73.208 132.768 73.5387 133.174 73.784C133.59 74.0187 134.043 74.136 134.534 74.136C134.939 74.136 135.328 74.0667 135.702 73.928C136.086 73.7787 136.411 73.5813 136.678 73.336L137.414 74.12C136.966 74.472 136.502 74.7333 136.022 74.904C135.542 75.0747 135.03 75.16 134.486 75.16ZM131.782 70.52H136.726C136.672 70.0507 136.528 69.6347 136.294 69.272C136.07 68.8987 135.782 68.6053 135.43 68.392C135.088 68.1787 134.704 68.072 134.278 68.072C133.851 68.072 133.462 68.1787 133.11 68.392C132.758 68.5947 132.464 68.8827 132.23 69.256C132.006 69.6187 131.856 70.04 131.782 70.52ZM143.59 75V67.192H144.758V75H143.59ZM144.182 65.256C143.948 65.256 143.745 65.176 143.574 65.016C143.414 64.8453 143.334 64.648 143.334 64.424C143.334 64.2 143.414 64.008 143.574 63.848C143.745 63.6773 143.948 63.592 144.182 63.592C144.417 63.592 144.614 63.6773 144.774 63.848C144.945 64.008 145.03 64.2 145.03 64.424C145.03 64.648 144.945 64.8453 144.774 65.016C144.614 65.176 144.417 65.256 144.182 65.256ZM149.569 75.16C148.929 75.16 148.337 75.064 147.793 74.872C147.249 74.6693 146.785 74.3813 146.401 74.008L147.025 73.24C147.494 73.5813 147.926 73.832 148.321 73.992C148.716 74.1413 149.121 74.216 149.537 74.216C150.102 74.216 150.572 74.0827 150.945 73.816C151.318 73.5493 151.505 73.208 151.505 72.792C151.505 72.472 151.393 72.2213 151.169 72.04C150.956 71.8587 150.598 71.72 150.097 71.624L148.817 71.4C148.06 71.2613 147.5 71.0267 147.137 70.696C146.785 70.3653 146.609 69.9173 146.609 69.352C146.609 68.904 146.726 68.5093 146.961 68.168C147.206 67.8267 147.542 67.56 147.969 67.368C148.396 67.1653 148.881 67.064 149.425 67.064C149.958 67.064 150.465 67.144 150.945 67.304C151.425 67.4533 151.91 67.6987 152.401 68.04L151.825 68.856C151.42 68.568 151.014 68.36 150.609 68.232C150.204 68.0933 149.793 68.024 149.377 68.024C148.865 68.024 148.454 68.136 148.145 68.36C147.836 68.584 147.681 68.888 147.681 69.272C147.681 69.592 147.777 69.8373 147.969 70.008C148.172 70.1787 148.524 70.3067 149.025 70.392L150.337 70.632C151.126 70.7707 151.702 71.0107 152.065 71.352C152.428 71.6933 152.609 72.152 152.609 72.728C152.609 73.1867 152.476 73.6027 152.209 73.976C151.942 74.3387 151.58 74.6267 151.121 74.84C150.662 75.0533 150.145 75.16 149.569 75.16ZM158.122 75V67.192H159.29V68.408C159.589 67.96 159.93 67.624 160.314 67.4C160.698 67.176 161.13 67.064 161.61 67.064C162.165 67.064 162.65 67.2027 163.066 67.48C163.482 67.7467 163.797 68.1147 164.01 68.584C164.319 68.0827 164.687 67.704 165.114 67.448C165.551 67.192 166.053 67.064 166.618 67.064C167.141 67.064 167.599 67.1867 167.994 67.432C168.399 67.6773 168.714 68.0187 168.938 68.456C169.162 68.8827 169.274 69.384 169.274 69.96V75H168.106V70.248C168.106 69.5653 167.935 69.0267 167.594 68.632C167.253 68.2373 166.783 68.04 166.186 68.04C165.781 68.04 165.413 68.1413 165.082 68.344C164.762 68.5467 164.479 68.856 164.234 69.272C164.255 69.3787 164.271 69.4907 164.282 69.608C164.293 69.7253 164.298 69.8427 164.298 69.96V75H163.13V70.248C163.13 69.5653 162.954 69.0267 162.602 68.632C162.261 68.2373 161.791 68.04 161.194 68.04C160.394 68.04 159.759 68.424 159.29 69.192V75H158.122ZM171.817 78.504C171.572 78.504 171.321 78.4667 171.065 78.392V77.352C171.172 77.3733 171.284 77.3893 171.401 77.4C171.519 77.4107 171.62 77.416 171.705 77.416C172.004 77.416 172.249 77.336 172.441 77.176C172.644 77.016 172.815 76.7653 172.953 76.424L173.529 75L170.521 67.192H171.817L174.185 73.608L176.697 67.192H177.993L174.057 76.776C173.887 77.192 173.7 77.528 173.497 77.784C173.295 78.04 173.06 78.2213 172.793 78.328C172.527 78.4453 172.201 78.504 171.817 78.504ZM185.6 75.144C185.046 75.144 184.555 75.0427 184.128 74.84C183.702 74.6373 183.366 74.36 183.12 74.008C182.886 73.6453 182.768 73.2293 182.768 72.76C182.768 72.2907 182.891 71.8853 183.136 71.544C183.382 71.192 183.723 70.92 184.16 70.728C184.598 70.536 185.11 70.44 185.696 70.44C186.144 70.44 186.566 70.488 186.96 70.584C187.366 70.68 187.739 70.8347 188.08 71.048V69.976C188.08 69.336 187.91 68.856 187.568 68.536C187.227 68.2053 186.726 68.04 186.064 68.04C185.702 68.04 185.328 68.0933 184.944 68.2C184.571 68.3067 184.155 68.4773 183.696 68.712L183.264 67.816C184.31 67.3147 185.291 67.064 186.208 67.064C187.179 67.064 187.926 67.304 188.448 67.784C188.971 68.2533 189.232 68.9307 189.232 69.816V75H188.08V74.088C187.739 74.44 187.36 74.7067 186.944 74.888C186.528 75.0587 186.08 75.144 185.6 75.144ZM183.888 72.728C183.888 73.1867 184.064 73.5547 184.416 73.832C184.779 74.1093 185.254 74.248 185.84 74.248C186.278 74.248 186.678 74.1733 187.04 74.024C187.414 73.8747 187.76 73.6507 188.08 73.352V71.848C187.75 71.656 187.408 71.5173 187.056 71.432C186.704 71.336 186.31 71.288 185.872 71.288C185.275 71.288 184.795 71.4213 184.432 71.688C184.07 71.944 183.888 72.2907 183.888 72.728ZM194.312 75.128C193.757 75.128 193.267 75.0053 192.84 74.76C192.413 74.5147 192.077 74.1733 191.832 73.736C191.597 73.2987 191.48 72.7973 191.48 72.232V67.192H192.664V71.896C192.664 72.5893 192.851 73.1387 193.224 73.544C193.597 73.9493 194.104 74.152 194.744 74.152C195.181 74.152 195.571 74.0507 195.912 73.848C196.264 73.6453 196.557 73.352 196.792 72.968V67.192H197.96V75H196.792V73.736C196.493 74.1947 196.136 74.5413 195.72 74.776C195.315 75.0107 194.845 75.128 194.312 75.128ZM203.332 75.16C202.66 75.16 202.148 75 201.796 74.68C201.455 74.3493 201.284 73.8747 201.284 73.256V68.152H199.668V67.192H201.284V65.048L202.452 64.776V67.192H204.692V68.152H202.452V72.952C202.452 73.368 202.538 73.6667 202.708 73.848C202.89 74.0293 203.183 74.12 203.588 74.12C203.791 74.12 203.972 74.104 204.132 74.072C204.292 74.04 204.479 73.9867 204.692 73.912V74.952C204.479 75.0267 204.255 75.08 204.02 75.112C203.786 75.144 203.556 75.16 203.332 75.16ZM206.403 75V63.448L207.571 63.208V68.456C207.87 67.9867 208.227 67.64 208.643 67.416C209.059 67.1813 209.528 67.064 210.051 67.064C210.616 67.064 211.107 67.1867 211.523 67.432C211.95 67.6667 212.28 68.0027 212.515 68.44C212.76 68.8667 212.883 69.368 212.883 69.944V75H211.715V70.28C211.715 69.5867 211.523 69.0427 211.139 68.648C210.766 68.2427 210.259 68.04 209.619 68.04C209.192 68.04 208.803 68.1413 208.451 68.344C208.099 68.5467 207.806 68.8453 207.571 69.24V75H206.403ZM218.751 75.16C218.026 75.16 217.37 74.984 216.783 74.632C216.197 74.2693 215.733 73.784 215.391 73.176C215.05 72.5573 214.879 71.864 214.879 71.096C214.879 70.328 215.039 69.64 215.359 69.032C215.69 68.424 216.133 67.944 216.687 67.592C217.242 67.24 217.861 67.064 218.543 67.064C219.237 67.064 219.85 67.24 220.383 67.592C220.927 67.9333 221.354 68.4027 221.663 69C221.983 69.5867 222.143 70.2533 222.143 71V71.352H216.015C216.058 71.8853 216.202 72.3653 216.447 72.792C216.703 73.208 217.034 73.5387 217.439 73.784C217.855 74.0187 218.309 74.136 218.799 74.136C219.205 74.136 219.594 74.0667 219.967 73.928C220.351 73.7787 220.677 73.5813 220.943 73.336L221.679 74.12C221.231 74.472 220.767 74.7333 220.287 74.904C219.807 75.0747 219.295 75.16 218.751 75.16ZM216.047 70.52H220.991C220.938 70.0507 220.794 69.6347 220.559 69.272C220.335 68.8987 220.047 68.6053 219.695 68.392C219.354 68.1787 218.97 68.072 218.543 68.072C218.117 68.072 217.727 68.1787 217.375 68.392C217.023 68.5947 216.73 68.8827 216.495 69.256C216.271 69.6187 216.122 70.04 216.047 70.52ZM224.138 75V67.192H225.306V68.456C225.604 67.9867 225.962 67.64 226.378 67.416C226.794 67.1813 227.263 67.064 227.786 67.064C228.351 67.064 228.842 67.1867 229.258 67.432C229.684 67.6667 230.015 68.0027 230.25 68.44C230.495 68.8667 230.618 69.368 230.618 69.944V75H229.45V70.28C229.45 69.5867 229.258 69.0427 228.874 68.648C228.5 68.2427 227.994 68.04 227.354 68.04C226.927 68.04 226.538 68.1413 226.186 68.344C225.834 68.5467 225.54 68.8453 225.306 69.24V75H224.138ZM235.707 75.16C235.035 75.16 234.523 75 234.171 74.68C233.83 74.3493 233.659 73.8747 233.659 73.256V68.152H232.043V67.192H233.659V65.048L234.827 64.776V67.192H237.067V68.152H234.827V72.952C234.827 73.368 234.913 73.6667 235.083 73.848C235.265 74.0293 235.558 74.12 235.963 74.12C236.166 74.12 236.347 74.104 236.507 74.072C236.667 74.04 236.854 73.9867 237.067 73.912V74.952C236.854 75.0267 236.63 75.08 236.395 75.112C236.161 75.144 235.931 75.16 235.707 75.16ZM238.762 75V67.192H239.93V75H238.762ZM239.354 65.256C239.119 65.256 238.917 65.176 238.746 65.016C238.586 64.8453 238.506 64.648 238.506 64.424C238.506 64.2 238.586 64.008 238.746 63.848C238.917 63.6773 239.119 63.592 239.354 63.592C239.589 63.592 239.786 63.6773 239.946 63.848C240.117 64.008 240.202 64.2 240.202 64.424C240.202 64.648 240.117 64.8453 239.946 65.016C239.786 65.176 239.589 65.256 239.354 65.256ZM245.829 75.128C245.104 75.128 244.448 74.952 243.861 74.6C243.285 74.2373 242.826 73.752 242.485 73.144C242.144 72.5253 241.973 71.8427 241.973 71.096C241.973 70.3387 242.144 69.656 242.485 69.048C242.826 68.44 243.285 67.96 243.861 67.608C244.448 67.2453 245.104 67.064 245.829 67.064C246.405 67.064 246.954 67.1707 247.477 67.384C248 67.5973 248.453 67.896 248.837 68.28L248.085 69.096C247.808 68.7867 247.472 68.5467 247.077 68.376C246.682 68.2053 246.282 68.12 245.877 68.12C245.365 68.12 244.901 68.2533 244.485 68.52C244.08 68.7867 243.754 69.144 243.509 69.592C243.264 70.04 243.141 70.5413 243.141 71.096C243.141 71.6507 243.264 72.152 243.509 72.6C243.754 73.048 244.08 73.4053 244.485 73.672C244.901 73.9387 245.365 74.072 245.877 74.072C246.282 74.072 246.682 73.9867 247.077 73.816C247.472 73.6347 247.808 73.3947 248.085 73.096L248.837 73.912C248.453 74.296 248 74.5947 247.477 74.808C246.954 75.0213 246.405 75.128 245.829 75.128ZM252.882 75.144C252.327 75.144 251.836 75.0427 251.41 74.84C250.983 74.6373 250.647 74.36 250.402 74.008C250.167 73.6453 250.05 73.2293 250.05 72.76C250.05 72.2907 250.172 71.8853 250.418 71.544C250.663 71.192 251.004 70.92 251.442 70.728C251.879 70.536 252.391 70.44 252.978 70.44C253.426 70.44 253.847 70.488 254.242 70.584C254.647 70.68 255.02 70.8347 255.362 71.048V69.976C255.362 69.336 255.191 68.856 254.85 68.536C254.508 68.2053 254.007 68.04 253.346 68.04C252.983 68.04 252.61 68.0933 252.226 68.2C251.852 68.3067 251.436 68.4773 250.978 68.712L250.546 67.816C251.591 67.3147 252.572 67.064 253.49 67.064C254.46 67.064 255.207 67.304 255.73 67.784C256.252 68.2533 256.514 68.9307 256.514 69.816V75H255.362V74.088C255.02 74.44 254.642 74.7067 254.226 74.888C253.81 75.0587 253.362 75.144 252.882 75.144ZM251.17 72.728C251.17 73.1867 251.346 73.5547 251.698 73.832C252.06 74.1093 252.535 74.248 253.122 74.248C253.559 74.248 253.959 74.1733 254.322 74.024C254.695 73.8747 255.042 73.6507 255.362 73.352V71.848C255.031 71.656 254.69 71.5173 254.338 71.432C253.986 71.336 253.591 71.288 253.154 71.288C252.556 71.288 252.076 71.4213 251.714 71.688C251.351 71.944 251.17 72.2907 251.17 72.728ZM261.629 75.16C260.957 75.16 260.445 75 260.093 74.68C259.752 74.3493 259.581 73.8747 259.581 73.256V68.152H257.965V67.192H259.581V65.048L260.749 64.776V67.192H262.989V68.152H260.749V72.952C260.749 73.368 260.834 73.6667 261.005 73.848C261.186 74.0293 261.48 74.12 261.885 74.12C262.088 74.12 262.269 74.104 262.429 74.072C262.589 74.04 262.776 73.9867 262.989 73.912V74.952C262.776 75.0267 262.552 75.08 262.317 75.112C262.082 75.144 261.853 75.16 261.629 75.16ZM264.684 75V67.192H265.852V75H264.684ZM265.276 65.256C265.041 65.256 264.839 65.176 264.668 65.016C264.508 64.8453 264.428 64.648 264.428 64.424C264.428 64.2 264.508 64.008 264.668 63.848C264.839 63.6773 265.041 63.592 265.276 63.592C265.511 63.592 265.708 63.6773 265.868 63.848C266.039 64.008 266.124 64.2 266.124 64.424C266.124 64.648 266.039 64.8453 265.868 65.016C265.708 65.176 265.511 65.256 265.276 65.256ZM271.703 75.128C270.978 75.128 270.327 74.952 269.751 74.6C269.175 74.248 268.722 73.768 268.391 73.16C268.06 72.552 267.895 71.864 267.895 71.096C267.895 70.328 268.06 69.64 268.391 69.032C268.722 68.424 269.175 67.944 269.751 67.592C270.327 67.24 270.978 67.064 271.703 67.064C272.418 67.064 273.058 67.24 273.623 67.592C274.199 67.944 274.652 68.424 274.983 69.032C275.314 69.64 275.479 70.328 275.479 71.096C275.479 71.864 275.314 72.552 274.983 73.16C274.652 73.768 274.199 74.248 273.623 74.6C273.058 74.952 272.418 75.128 271.703 75.128ZM271.687 74.104C272.199 74.104 272.652 73.976 273.047 73.72C273.442 73.4533 273.751 73.0907 273.975 72.632C274.21 72.1733 274.327 71.6613 274.327 71.096C274.327 70.52 274.21 70.008 273.975 69.56C273.751 69.1013 273.442 68.744 273.047 68.488C272.652 68.2213 272.199 68.088 271.687 68.088C271.175 68.088 270.722 68.2213 270.327 68.488C269.932 68.744 269.618 69.1013 269.383 69.56C269.159 70.008 269.047 70.52 269.047 71.096C269.047 71.6613 269.159 72.1733 269.383 72.632C269.618 73.0907 269.932 73.4533 270.327 73.72C270.722 73.976 271.175 74.104 271.687 74.104ZM277.528 75V67.192H278.696V68.456C278.995 67.9867 279.352 67.64 279.768 67.416C280.184 67.1813 280.653 67.064 281.176 67.064C281.741 67.064 282.232 67.1867 282.648 67.432C283.075 67.6667 283.405 68.0027 283.64 68.44C283.885 68.8667 284.008 69.368 284.008 69.944V75H282.84V70.28C282.84 69.5867 282.648 69.0427 282.264 68.648C281.891 68.2427 281.384 68.04 280.744 68.04C280.317 68.04 279.928 68.1413 279.576 68.344C279.224 68.5467 278.931 68.8453 278.696 69.24V75H277.528ZM291.083 75V68.152H289.339V67.192H291.083V65.56C291.083 64.792 291.285 64.2 291.691 63.784C292.096 63.368 292.672 63.16 293.419 63.16C293.632 63.16 293.824 63.1707 293.995 63.192C294.176 63.2133 294.336 63.2507 294.475 63.304V64.36C294.304 64.3067 294.149 64.2693 294.011 64.248C293.872 64.2267 293.712 64.216 293.531 64.216C293.083 64.216 292.757 64.328 292.555 64.552C292.352 64.7653 292.251 65.1067 292.251 65.576V67.192H294.475V68.152H292.251V75H291.083ZM295.997 75V67.192H297.164V75H295.997ZM296.589 65.256C296.354 65.256 296.151 65.176 295.981 65.016C295.821 64.8453 295.741 64.648 295.741 64.424C295.741 64.2 295.821 64.008 295.981 63.848C296.151 63.6773 296.354 63.592 296.589 63.592C296.823 63.592 297.021 63.6773 297.181 63.848C297.351 64.008 297.437 64.2 297.437 64.424C297.437 64.648 297.351 64.8453 297.181 65.016C297.021 65.176 296.823 65.256 296.589 65.256ZM299.559 75V63.448L300.727 63.208V75H299.559ZM306.642 75.16C305.917 75.16 305.261 74.984 304.674 74.632C304.087 74.2693 303.623 73.784 303.282 73.176C302.941 72.5573 302.77 71.864 302.77 71.096C302.77 70.328 302.93 69.64 303.25 69.032C303.581 68.424 304.023 67.944 304.578 67.592C305.133 67.24 305.751 67.064 306.434 67.064C307.127 67.064 307.741 67.24 308.274 67.592C308.818 67.9333 309.245 68.4027 309.554 69C309.874 69.5867 310.034 70.2533 310.034 71V71.352H303.906C303.949 71.8853 304.093 72.3653 304.338 72.792C304.594 73.208 304.925 73.5387 305.33 73.784C305.746 74.0187 306.199 74.136 306.69 74.136C307.095 74.136 307.485 74.0667 307.858 73.928C308.242 73.7787 308.567 73.5813 308.834 73.336L309.57 74.12C309.122 74.472 308.658 74.7333 308.178 74.904C307.698 75.0747 307.186 75.16 306.642 75.16ZM303.938 70.52H308.882C308.829 70.0507 308.685 69.6347 308.45 69.272C308.226 68.8987 307.938 68.6053 307.586 68.392C307.245 68.1787 306.861 68.072 306.434 68.072C306.007 68.072 305.618 68.1787 305.266 68.392C304.914 68.5947 304.621 68.8827 304.386 69.256C304.162 69.6187 304.013 70.04 303.938 70.52Z" fill="white"/>
<path d="M96 103C96 99.6863 98.6863 97 102 97H288C291.314 97 294 99.6863 294 103V130C294 133.314 291.314 136 288 136H102C98.6863 136 96 133.314 96 130V103Z" fill="white"/>
<path d="M112 108.5C112 106.291 113.791 104.5 116 104.5H132C134.209 104.5 136 106.291 136 108.5V124.5C136 126.709 134.209 128.5 132 128.5H116C113.791 128.5 112 126.709 112 124.5V108.5Z" fill="#147878"/>
<g clip-path="url(#clip2_329_54389)">
<path d="M125.82 110.13C125.395 110.007 124.952 110.255 124.83 110.68L121.63 121.88C121.507 122.305 121.755 122.747 122.18 122.87C122.605 122.992 123.047 122.745 123.17 122.32L126.37 111.12C126.492 110.695 126.245 110.252 125.82 110.13ZM127.835 113.132C127.522 113.445 127.522 113.952 127.835 114.265L130.067 116.5L127.832 118.735C127.52 119.047 127.52 119.555 127.832 119.867C128.145 120.18 128.652 120.18 128.965 119.867L131.765 117.067C132.077 116.755 132.077 116.247 131.765 115.935L128.965 113.135C128.652 112.822 128.145 112.822 127.832 113.135L127.835 113.132ZM120.167 113.132C119.855 112.82 119.347 112.82 119.035 113.132L116.235 115.932C115.922 116.245 115.922 116.752 116.235 117.065L119.035 119.865C119.347 120.177 119.855 120.177 120.167 119.865C120.48 119.552 120.48 119.045 120.167 118.732L117.932 116.5L120.167 114.265C120.48 113.952 120.48 113.445 120.167 113.132Z" fill="white"/>
</g>
<path d="M147.164 112.126C146.679 112.126 146.249 112.037 145.876 111.86C145.503 111.683 145.209 111.44 144.994 111.132C144.789 110.815 144.686 110.451 144.686 110.04C144.686 109.629 144.793 109.275 145.008 108.976C145.223 108.668 145.521 108.43 145.904 108.262C146.287 108.094 146.735 108.01 147.248 108.01C147.64 108.01 148.009 108.052 148.354 108.136C148.709 108.22 149.035 108.355 149.334 108.542V107.604C149.334 107.044 149.185 106.624 148.886 106.344C148.587 106.055 148.149 105.91 147.57 105.91C147.253 105.91 146.926 105.957 146.59 106.05C146.263 106.143 145.899 106.293 145.498 106.498L145.12 105.714C146.035 105.275 146.893 105.056 147.696 105.056C148.545 105.056 149.199 105.266 149.656 105.686C150.113 106.097 150.342 106.689 150.342 107.464V112H149.334V111.202C149.035 111.51 148.704 111.743 148.34 111.902C147.976 112.051 147.584 112.126 147.164 112.126ZM145.666 110.012C145.666 110.413 145.82 110.735 146.128 110.978C146.445 111.221 146.861 111.342 147.374 111.342C147.757 111.342 148.107 111.277 148.424 111.146C148.751 111.015 149.054 110.819 149.334 110.558V109.242C149.045 109.074 148.746 108.953 148.438 108.878C148.13 108.794 147.785 108.752 147.402 108.752C146.879 108.752 146.459 108.869 146.142 109.102C145.825 109.326 145.666 109.629 145.666 110.012ZM154.787 112.112C154.301 112.112 153.872 112.005 153.499 111.79C153.125 111.575 152.831 111.277 152.617 110.894C152.411 110.511 152.309 110.073 152.309 109.578V105.168H153.345V109.284C153.345 109.891 153.508 110.371 153.835 110.726C154.161 111.081 154.605 111.258 155.165 111.258C155.547 111.258 155.888 111.169 156.187 110.992C156.495 110.815 156.751 110.558 156.957 110.222V105.168H157.979V112H156.957V110.894C156.695 111.295 156.383 111.599 156.019 111.804C155.664 112.009 155.253 112.112 154.787 112.112ZM162.679 112.14C162.091 112.14 161.643 112 161.335 111.72C161.037 111.431 160.887 111.015 160.887 110.474V106.008H159.473V105.168H160.887V103.292L161.909 103.054V105.168H163.869V106.008H161.909V110.208C161.909 110.572 161.984 110.833 162.133 110.992C162.292 111.151 162.549 111.23 162.903 111.23C163.081 111.23 163.239 111.216 163.379 111.188C163.519 111.16 163.683 111.113 163.869 111.048V111.958C163.683 112.023 163.487 112.07 163.281 112.098C163.076 112.126 162.875 112.14 162.679 112.14ZM165.366 112V101.892L166.388 101.682V106.274C166.65 105.863 166.962 105.56 167.326 105.364C167.69 105.159 168.101 105.056 168.558 105.056C169.053 105.056 169.482 105.163 169.846 105.378C170.22 105.583 170.509 105.877 170.714 106.26C170.929 106.633 171.036 107.072 171.036 107.576V112H170.014V107.87C170.014 107.263 169.846 106.787 169.51 106.442C169.184 106.087 168.74 105.91 168.18 105.91C167.807 105.91 167.466 105.999 167.158 106.176C166.85 106.353 166.594 106.615 166.388 106.96V112H165.366ZM172.895 108.5V107.618H177.557V108.5H172.895ZM182.623 112.112C181.988 112.112 181.419 111.958 180.915 111.65C180.411 111.342 180.014 110.922 179.725 110.39C179.435 109.858 179.291 109.256 179.291 108.584C179.291 107.912 179.435 107.31 179.725 106.778C180.014 106.246 180.411 105.826 180.915 105.518C181.419 105.21 181.988 105.056 182.623 105.056C183.248 105.056 183.808 105.21 184.303 105.518C184.807 105.826 185.203 106.246 185.493 106.778C185.782 107.31 185.927 107.912 185.927 108.584C185.927 109.256 185.782 109.858 185.493 110.39C185.203 110.922 184.807 111.342 184.303 111.65C183.808 111.958 183.248 112.112 182.623 112.112ZM182.609 111.216C183.057 111.216 183.453 111.104 183.799 110.88C184.144 110.647 184.415 110.329 184.611 109.928C184.816 109.527 184.919 109.079 184.919 108.584C184.919 108.08 184.816 107.632 184.611 107.24C184.415 106.839 184.144 106.526 183.799 106.302C183.453 106.069 183.057 105.952 182.609 105.952C182.161 105.952 181.764 106.069 181.419 106.302C181.073 106.526 180.798 106.839 180.593 107.24C180.397 107.632 180.299 108.08 180.299 108.584C180.299 109.079 180.397 109.527 180.593 109.928C180.798 110.329 181.073 110.647 181.419 110.88C181.764 111.104 182.161 111.216 182.609 111.216ZM187.72 114.926V105.168H188.728V106.148C188.989 105.803 189.307 105.541 189.68 105.364C190.063 105.177 190.483 105.084 190.94 105.084C191.537 105.084 192.069 105.243 192.536 105.56C193.012 105.868 193.39 106.288 193.67 106.82C193.95 107.343 194.09 107.931 194.09 108.584C194.09 109.237 193.945 109.83 193.656 110.362C193.376 110.894 192.993 111.319 192.508 111.636C192.032 111.944 191.491 112.098 190.884 112.098C190.455 112.098 190.058 112.019 189.694 111.86C189.33 111.692 189.013 111.454 188.742 111.146V114.926H187.72ZM190.688 111.216C191.145 111.216 191.551 111.104 191.906 110.88C192.27 110.647 192.555 110.334 192.76 109.942C192.975 109.541 193.082 109.093 193.082 108.598C193.082 108.094 192.975 107.646 192.76 107.254C192.555 106.862 192.27 106.554 191.906 106.33C191.551 106.097 191.145 105.98 190.688 105.98C190.287 105.98 189.913 106.064 189.568 106.232C189.232 106.391 188.957 106.619 188.742 106.918V110.264C188.966 110.563 189.246 110.796 189.582 110.964C189.927 111.132 190.296 111.216 190.688 111.216ZM198.962 112.14C198.327 112.14 197.753 111.986 197.24 111.678C196.727 111.361 196.321 110.936 196.022 110.404C195.723 109.863 195.574 109.256 195.574 108.584C195.574 107.912 195.714 107.31 195.994 106.778C196.283 106.246 196.671 105.826 197.156 105.518C197.641 105.21 198.183 105.056 198.78 105.056C199.387 105.056 199.923 105.21 200.39 105.518C200.866 105.817 201.239 106.227 201.51 106.75C201.79 107.263 201.93 107.847 201.93 108.5V108.808H196.568C196.605 109.275 196.731 109.695 196.946 110.068C197.17 110.432 197.459 110.721 197.814 110.936C198.178 111.141 198.575 111.244 199.004 111.244C199.359 111.244 199.699 111.183 200.026 111.062C200.362 110.931 200.647 110.759 200.88 110.544L201.524 111.23C201.132 111.538 200.726 111.767 200.306 111.916C199.886 112.065 199.438 112.14 198.962 112.14ZM196.596 108.08H200.922C200.875 107.669 200.749 107.305 200.544 106.988C200.348 106.661 200.096 106.405 199.788 106.218C199.489 106.031 199.153 105.938 198.78 105.938C198.407 105.938 198.066 106.031 197.758 106.218C197.45 106.395 197.193 106.647 196.988 106.974C196.792 107.291 196.661 107.66 196.596 108.08ZM203.675 112V105.168H204.697V106.568C204.874 106.092 205.126 105.723 205.453 105.462C205.789 105.191 206.172 105.056 206.601 105.056C206.722 105.056 206.834 105.065 206.937 105.084C207.04 105.093 207.142 105.117 207.245 105.154V106.078C207.133 106.041 207.012 106.013 206.881 105.994C206.76 105.966 206.643 105.952 206.531 105.952C206.111 105.952 205.742 106.073 205.425 106.316C205.117 106.559 204.874 106.899 204.697 107.338V112H203.675ZM210.424 112.126C209.938 112.126 209.509 112.037 209.136 111.86C208.762 111.683 208.468 111.44 208.254 111.132C208.048 110.815 207.946 110.451 207.946 110.04C207.946 109.629 208.053 109.275 208.268 108.976C208.482 108.668 208.781 108.43 209.164 108.262C209.546 108.094 209.994 108.01 210.508 108.01C210.9 108.01 211.268 108.052 211.614 108.136C211.968 108.22 212.295 108.355 212.594 108.542V107.604C212.594 107.044 212.444 106.624 212.146 106.344C211.847 106.055 211.408 105.91 210.83 105.91C210.512 105.91 210.186 105.957 209.85 106.05C209.523 106.143 209.159 106.293 208.758 106.498L208.38 105.714C209.294 105.275 210.153 105.056 210.956 105.056C211.805 105.056 212.458 105.266 212.916 105.686C213.373 106.097 213.602 106.689 213.602 107.464V112H212.594V111.202C212.295 111.51 211.964 111.743 211.6 111.902C211.236 112.051 210.844 112.126 210.424 112.126ZM208.926 110.012C208.926 110.413 209.08 110.735 209.388 110.978C209.705 111.221 210.12 111.342 210.634 111.342C211.016 111.342 211.366 111.277 211.684 111.146C212.01 111.015 212.314 110.819 212.594 110.558V109.242C212.304 109.074 212.006 108.953 211.698 108.878C211.39 108.794 211.044 108.752 210.662 108.752C210.139 108.752 209.719 108.869 209.402 109.102C209.084 109.326 208.926 109.629 208.926 110.012ZM218.078 112.14C217.49 112.14 217.042 112 216.734 111.72C216.435 111.431 216.286 111.015 216.286 110.474V106.008H214.872V105.168H216.286V103.292L217.308 103.054V105.168H219.268V106.008H217.308V110.208C217.308 110.572 217.382 110.833 217.532 110.992C217.69 111.151 217.947 111.23 218.302 111.23C218.479 111.23 218.638 111.216 218.778 111.188C218.918 111.16 219.081 111.113 219.268 111.048V111.958C219.081 112.023 218.885 112.07 218.68 112.098C218.474 112.126 218.274 112.14 218.078 112.14ZM223.652 112.112C223.017 112.112 222.448 111.958 221.944 111.65C221.44 111.342 221.043 110.922 220.754 110.39C220.465 109.858 220.32 109.256 220.32 108.584C220.32 107.912 220.465 107.31 220.754 106.778C221.043 106.246 221.44 105.826 221.944 105.518C222.448 105.21 223.017 105.056 223.652 105.056C224.277 105.056 224.837 105.21 225.332 105.518C225.836 105.826 226.233 106.246 226.522 106.778C226.811 107.31 226.956 107.912 226.956 108.584C226.956 109.256 226.811 109.858 226.522 110.39C226.233 110.922 225.836 111.342 225.332 111.65C224.837 111.958 224.277 112.112 223.652 112.112ZM223.638 111.216C224.086 111.216 224.483 111.104 224.828 110.88C225.173 110.647 225.444 110.329 225.64 109.928C225.845 109.527 225.948 109.079 225.948 108.584C225.948 108.08 225.845 107.632 225.64 107.24C225.444 106.839 225.173 106.526 224.828 106.302C224.483 106.069 224.086 105.952 223.638 105.952C223.19 105.952 222.793 106.069 222.448 106.302C222.103 106.526 221.827 106.839 221.622 107.24C221.426 107.632 221.328 108.08 221.328 108.584C221.328 109.079 221.426 109.527 221.622 109.928C221.827 110.329 222.103 110.647 222.448 110.88C222.793 111.104 223.19 111.216 223.638 111.216ZM228.749 112V105.168H229.771V106.568C229.949 106.092 230.201 105.723 230.527 105.462C230.863 105.191 231.246 105.056 231.675 105.056C231.797 105.056 231.909 105.065 232.011 105.084C232.114 105.093 232.217 105.117 232.319 105.154V106.078C232.207 106.041 232.086 106.013 231.955 105.994C231.834 105.966 231.717 105.952 231.605 105.952C231.185 105.952 230.817 106.073 230.499 106.316C230.191 106.559 229.949 106.899 229.771 107.338V112H228.749Z" fill="#151515"/>
<path d="M147.408 131V127.688L144.072 122.6H145.74L148.164 126.44L150.612 122.6H152.184L148.848 127.688V131H147.408ZM150.963 131L154.263 122.6H155.931L159.183 131H157.635L156.771 128.648H153.327L152.463 131H150.963ZM153.747 127.52H156.375L155.055 123.968L153.747 127.52ZM160.266 131V122.6H162.138L164.598 127.7L167.046 122.6H168.918V131H167.562V124.424L164.586 130.4L161.598 124.388V131H160.266ZM170.93 131V122.6H172.37V129.752H176.846V131H170.93Z" fill="#151515"/>
<path d="M262.153 112.077C262.479 111.752 263.007 111.752 263.333 112.077L263.923 112.667C264.248 112.993 264.248 113.521 263.923 113.847L261.269 116.5L263.923 119.153C264.248 119.479 264.248 120.007 263.923 120.333L263.333 120.923C263.007 121.248 262.479 121.248 262.153 120.923L259.5 118.269L256.847 120.923C256.521 121.248 255.993 121.248 255.667 120.923L255.077 120.333C254.752 120.007 254.752 119.479 255.077 119.153L257.731 116.5L255.077 113.847C254.752 113.521 254.752 112.993 255.077 112.667L255.667 112.077C255.993 111.752 256.521 111.752 256.847 112.077L259.5 114.73L262.153 112.077Z" fill="#1F1F1F"/>
<defs>
<clipPath id="clip0_329_54389">
<path d="M24 44C24 30.7452 34.7452 20 48 20V20C61.2548 20 72 30.7452 72 44V44C72 57.2548 61.2548 68 48 68V68C34.7452 68 24 57.2548 24 44V44Z" fill="white"/>
</clipPath>
<clipPath id="clip1_329_54389">
<rect width="48" height="48" fill="white" transform="translate(24 20)"/>
</clipPath>
<clipPath id="clip2_329_54389">
<rect width="16" height="12.8" fill="white" transform="translate(116 110.1)"/>
</clipPath>
</defs>
</svg>
