<svg width="539" height="315" viewBox="0 0 539 315" fill="none" xmlns="http://www.w3.org/2000/svg">
<g clip-path="url(#clip0_334_52239)">
<rect width="539" height="315" fill="white"/>
<g filter="url(#filter0_d_334_52239)">
<g clip-path="url(#clip1_334_52239)">
<path d="M29 -339C29 -347.837 36.1634 -355 45 -355H493C501.837 -355 509 -347.837 509 -339V269C509 277.837 501.837 285 493 285H45C36.1635 285 29 277.837 29 269V-339Z" fill="#F2F2F2"/>
<path d="M29 24.1111H509V269C509 277.837 501.837 285 493 285H45C36.1635 285 29 277.837 29 269V24.1111Z" fill="#F2F2F2"/>
<mask id="path-4-inside-1_334_52239" fill="white">
<path d="M29 24.1111H509V285H29V24.1111Z"/>
</mask>
<path d="M29 24.1111V25.1111H509V24.1111V23.1111H29V24.1111Z" fill="#C7C7C7" mask="url(#path-4-inside-1_334_52239)"/>
<path d="M53 46.1111C53 42.7974 55.6863 40.1111 59 40.1111H200C203.314 40.1111 206 42.7974 206 46.1111V93C206 96.3137 203.314 99 200 99H59C55.6863 99 53 96.3137 53 93V46.1111Z" fill="white"/>
<path d="M69 61.5554C69 59.3463 70.7909 57.5554 73 57.5554H89C91.2091 57.5554 93 59.3463 93 61.5554V77.5554C93 79.7646 91.2091 81.5554 89 81.5554H73C70.7909 81.5554 69 79.7646 69 77.5554V61.5554Z" fill="#147878"/>
<g clip-path="url(#clip2_334_52239)">
<path d="M82.82 63.1854C82.395 63.0629 81.9525 63.3104 81.83 63.7354L78.63 74.9354C78.5075 75.3604 78.755 75.8029 79.18 75.9254C79.605 76.0479 80.0475 75.8004 80.17 75.3754L83.37 64.1754C83.4925 63.7504 83.245 63.3079 82.82 63.1854ZM84.835 66.1879C84.5225 66.5004 84.5225 67.0079 84.835 67.3204L87.0675 69.5554L84.8325 71.7904C84.52 72.1029 84.52 72.6104 84.8325 72.9229C85.145 73.2354 85.6525 73.2354 85.965 72.9229L88.765 70.1229C89.0775 69.8104 89.0775 69.3029 88.765 68.9904L85.965 66.1904C85.6525 65.8779 85.145 65.8779 84.8325 66.1904L84.835 66.1879ZM77.1675 66.1879C76.855 65.8754 76.3475 65.8754 76.035 66.1879L73.235 68.9879C72.9225 69.3004 72.9225 69.8079 73.235 70.1204L76.035 72.9204C76.3475 73.2329 76.855 73.2329 77.1675 72.9204C77.48 72.6079 77.48 72.1004 77.1675 71.7879L74.9325 69.5554L77.1675 67.3204C77.48 67.0079 77.48 66.5004 77.1675 66.1879Z" fill="white"/>
</g>
<path d="M104.164 65.1814C103.679 65.1814 103.249 65.0928 102.876 64.9154C102.503 64.7381 102.209 64.4954 101.994 64.1874C101.789 63.8701 101.686 63.5061 101.686 63.0954C101.686 62.6848 101.793 62.3301 102.008 62.0314C102.223 61.7234 102.521 61.4854 102.904 61.3174C103.287 61.1494 103.735 61.0654 104.248 61.0654C104.64 61.0654 105.009 61.1074 105.354 61.1914C105.709 61.2754 106.035 61.4108 106.334 61.5974V60.6594C106.334 60.0994 106.185 59.6794 105.886 59.3994C105.587 59.1101 105.149 58.9654 104.57 58.9654C104.253 58.9654 103.926 59.0121 103.59 59.1054C103.263 59.1988 102.899 59.3481 102.498 59.5534L102.12 58.7694C103.035 58.3308 103.893 58.1114 104.696 58.1114C105.545 58.1114 106.199 58.3214 106.656 58.7414C107.113 59.1521 107.342 59.7448 107.342 60.5194V65.0554H106.334V64.2574C106.035 64.5654 105.704 64.7988 105.34 64.9574C104.976 65.1068 104.584 65.1814 104.164 65.1814ZM102.666 63.0674C102.666 63.4688 102.82 63.7908 103.128 64.0334C103.445 64.2761 103.861 64.3974 104.374 64.3974C104.757 64.3974 105.107 64.3321 105.424 64.2014C105.751 64.0708 106.054 63.8748 106.334 63.6134V62.2974C106.045 62.1294 105.746 62.0081 105.438 61.9334C105.13 61.8494 104.785 61.8074 104.402 61.8074C103.879 61.8074 103.459 61.9241 103.142 62.1574C102.825 62.3814 102.666 62.6848 102.666 63.0674ZM111.787 65.1674C111.301 65.1674 110.872 65.0601 110.499 64.8454C110.125 64.6308 109.831 64.3321 109.617 63.9494C109.411 63.5668 109.309 63.1281 109.309 62.6334V58.2234H110.345V62.3394C110.345 62.9461 110.508 63.4268 110.835 63.7814C111.161 64.1361 111.605 64.3134 112.165 64.3134C112.547 64.3134 112.888 64.2248 113.187 64.0474C113.495 63.8701 113.751 63.6134 113.957 63.2774V58.2234H114.979V65.0554H113.957V63.9494C113.695 64.3508 113.383 64.6541 113.019 64.8594C112.664 65.0648 112.253 65.1674 111.787 65.1674ZM119.679 65.1954C119.091 65.1954 118.643 65.0554 118.335 64.7754C118.037 64.4861 117.887 64.0708 117.887 63.5294V59.0634H116.473V58.2234H117.887V56.3474L118.909 56.1094V58.2234H120.869V59.0634H118.909V63.2634C118.909 63.6274 118.984 63.8888 119.133 64.0474C119.292 64.2061 119.549 64.2854 119.903 64.2854C120.081 64.2854 120.239 64.2714 120.379 64.2434C120.519 64.2154 120.683 64.1688 120.869 64.1034V65.0134C120.683 65.0788 120.487 65.1254 120.281 65.1534C120.076 65.1814 119.875 65.1954 119.679 65.1954ZM122.366 65.0554V54.9474L123.388 54.7374V59.3294C123.65 58.9188 123.962 58.6154 124.326 58.4194C124.69 58.2141 125.101 58.1114 125.558 58.1114C126.053 58.1114 126.482 58.2188 126.846 58.4334C127.22 58.6388 127.509 58.9328 127.714 59.3154C127.929 59.6888 128.036 60.1274 128.036 60.6314V65.0554H127.014V60.9254C127.014 60.3188 126.846 59.8428 126.51 59.4974C126.184 59.1428 125.74 58.9654 125.18 58.9654C124.807 58.9654 124.466 59.0541 124.158 59.2314C123.85 59.4088 123.594 59.6701 123.388 60.0154V65.0554H122.366ZM129.895 61.5554V60.6734H134.557V61.5554H129.895ZM139.623 65.1674C138.988 65.1674 138.419 65.0134 137.915 64.7054C137.411 64.3974 137.014 63.9774 136.725 63.4454C136.435 62.9134 136.291 62.3114 136.291 61.6394C136.291 60.9674 136.435 60.3654 136.725 59.8334C137.014 59.3014 137.411 58.8814 137.915 58.5734C138.419 58.2654 138.988 58.1114 139.623 58.1114C140.248 58.1114 140.808 58.2654 141.303 58.5734C141.807 58.8814 142.203 59.3014 142.493 59.8334C142.782 60.3654 142.927 60.9674 142.927 61.6394C142.927 62.3114 142.782 62.9134 142.493 63.4454C142.203 63.9774 141.807 64.3974 141.303 64.7054C140.808 65.0134 140.248 65.1674 139.623 65.1674ZM139.609 64.2714C140.057 64.2714 140.453 64.1594 140.799 63.9354C141.144 63.7021 141.415 63.3848 141.611 62.9834C141.816 62.5821 141.919 62.1341 141.919 61.6394C141.919 61.1354 141.816 60.6874 141.611 60.2954C141.415 59.8941 141.144 59.5814 140.799 59.3574C140.453 59.1241 140.057 59.0074 139.609 59.0074C139.161 59.0074 138.764 59.1241 138.419 59.3574C138.073 59.5814 137.798 59.8941 137.593 60.2954C137.397 60.6874 137.299 61.1354 137.299 61.6394C137.299 62.1341 137.397 62.5821 137.593 62.9834C137.798 63.3848 138.073 63.7021 138.419 63.9354C138.764 64.1594 139.161 64.2714 139.609 64.2714ZM144.72 67.9814V58.2234H145.728V59.2034C145.989 58.8581 146.307 58.5968 146.68 58.4194C147.063 58.2328 147.483 58.1394 147.94 58.1394C148.537 58.1394 149.069 58.2981 149.536 58.6154C150.012 58.9234 150.39 59.3434 150.67 59.8754C150.95 60.3981 151.09 60.9861 151.09 61.6394C151.09 62.2928 150.945 62.8854 150.656 63.4174C150.376 63.9494 149.993 64.3741 149.508 64.6914C149.032 64.9994 148.491 65.1534 147.884 65.1534C147.455 65.1534 147.058 65.0741 146.694 64.9154C146.33 64.7474 146.013 64.5094 145.742 64.2014V67.9814H144.72ZM147.688 64.2714C148.145 64.2714 148.551 64.1594 148.906 63.9354C149.27 63.7021 149.555 63.3894 149.76 62.9974C149.975 62.5961 150.082 62.1481 150.082 61.6534C150.082 61.1494 149.975 60.7014 149.76 60.3094C149.555 59.9174 149.27 59.6094 148.906 59.3854C148.551 59.1521 148.145 59.0354 147.688 59.0354C147.287 59.0354 146.913 59.1194 146.568 59.2874C146.232 59.4461 145.957 59.6748 145.742 59.9734V63.3194C145.966 63.6181 146.246 63.8514 146.582 64.0194C146.927 64.1874 147.296 64.2714 147.688 64.2714ZM155.962 65.1954C155.327 65.1954 154.753 65.0414 154.24 64.7334C153.727 64.4161 153.321 63.9914 153.022 63.4594C152.723 62.9181 152.574 62.3114 152.574 61.6394C152.574 60.9674 152.714 60.3654 152.994 59.8334C153.283 59.3014 153.671 58.8814 154.156 58.5734C154.641 58.2654 155.183 58.1114 155.78 58.1114C156.387 58.1114 156.923 58.2654 157.39 58.5734C157.866 58.8721 158.239 59.2828 158.51 59.8054C158.79 60.3188 158.93 60.9021 158.93 61.5554V61.8634H153.568C153.605 62.3301 153.731 62.7501 153.946 63.1234C154.17 63.4874 154.459 63.7768 154.814 63.9914C155.178 64.1968 155.575 64.2994 156.004 64.2994C156.359 64.2994 156.699 64.2388 157.026 64.1174C157.362 63.9868 157.647 63.8141 157.88 63.5994L158.524 64.2854C158.132 64.5934 157.726 64.8221 157.306 64.9714C156.886 65.1208 156.438 65.1954 155.962 65.1954ZM153.596 61.1354H157.922C157.875 60.7248 157.749 60.3608 157.544 60.0434C157.348 59.7168 157.096 59.4601 156.788 59.2734C156.489 59.0868 156.153 58.9934 155.78 58.9934C155.407 58.9934 155.066 59.0868 154.758 59.2734C154.45 59.4508 154.193 59.7028 153.988 60.0294C153.792 60.3468 153.661 60.7154 153.596 61.1354ZM160.675 65.0554V58.2234H161.697V59.6234C161.874 59.1474 162.126 58.7788 162.453 58.5174C162.789 58.2468 163.172 58.1114 163.601 58.1114C163.722 58.1114 163.834 58.1208 163.937 58.1394C164.04 58.1488 164.142 58.1721 164.245 58.2094V59.1334C164.133 59.0961 164.012 59.0681 163.881 59.0494C163.76 59.0214 163.643 59.0074 163.531 59.0074C163.111 59.0074 162.742 59.1288 162.425 59.3714C162.117 59.6141 161.874 59.9548 161.697 60.3934V65.0554H160.675ZM167.424 65.1814C166.938 65.1814 166.509 65.0928 166.136 64.9154C165.762 64.7381 165.468 64.4954 165.254 64.1874C165.048 63.8701 164.946 63.5061 164.946 63.0954C164.946 62.6848 165.053 62.3301 165.268 62.0314C165.482 61.7234 165.781 61.4854 166.164 61.3174C166.546 61.1494 166.994 61.0654 167.508 61.0654C167.9 61.0654 168.268 61.1074 168.614 61.1914C168.968 61.2754 169.295 61.4108 169.594 61.5974V60.6594C169.594 60.0994 169.444 59.6794 169.146 59.3994C168.847 59.1101 168.408 58.9654 167.83 58.9654C167.512 58.9654 167.186 59.0121 166.85 59.1054C166.523 59.1988 166.159 59.3481 165.758 59.5534L165.38 58.7694C166.294 58.3308 167.153 58.1114 167.956 58.1114C168.805 58.1114 169.458 58.3214 169.916 58.7414C170.373 59.1521 170.602 59.7448 170.602 60.5194V65.0554H169.594V64.2574C169.295 64.5654 168.964 64.7988 168.6 64.9574C168.236 65.1068 167.844 65.1814 167.424 65.1814ZM165.926 63.0674C165.926 63.4688 166.08 63.7908 166.388 64.0334C166.705 64.2761 167.12 64.3974 167.634 64.3974C168.016 64.3974 168.366 64.3321 168.684 64.2014C169.01 64.0708 169.314 63.8748 169.594 63.6134V62.2974C169.304 62.1294 169.006 62.0081 168.698 61.9334C168.39 61.8494 168.044 61.8074 167.662 61.8074C167.139 61.8074 166.719 61.9241 166.402 62.1574C166.084 62.3814 165.926 62.6848 165.926 63.0674ZM175.078 65.1954C174.49 65.1954 174.042 65.0554 173.734 64.7754C173.435 64.4861 173.286 64.0708 173.286 63.5294V59.0634H171.872V58.2234H173.286V56.3474L174.308 56.1094V58.2234H176.268V59.0634H174.308V63.2634C174.308 63.6274 174.382 63.8888 174.532 64.0474C174.69 64.2061 174.947 64.2854 175.302 64.2854C175.479 64.2854 175.638 64.2714 175.778 64.2434C175.918 64.2154 176.081 64.1688 176.268 64.1034V65.0134C176.081 65.0788 175.885 65.1254 175.68 65.1534C175.474 65.1814 175.274 65.1954 175.078 65.1954ZM180.652 65.1674C180.017 65.1674 179.448 65.0134 178.944 64.7054C178.44 64.3974 178.043 63.9774 177.754 63.4454C177.465 62.9134 177.32 62.3114 177.32 61.6394C177.32 60.9674 177.465 60.3654 177.754 59.8334C178.043 59.3014 178.44 58.8814 178.944 58.5734C179.448 58.2654 180.017 58.1114 180.652 58.1114C181.277 58.1114 181.837 58.2654 182.332 58.5734C182.836 58.8814 183.233 59.3014 183.522 59.8334C183.811 60.3654 183.956 60.9674 183.956 61.6394C183.956 62.3114 183.811 62.9134 183.522 63.4454C183.233 63.9774 182.836 64.3974 182.332 64.7054C181.837 65.0134 181.277 65.1674 180.652 65.1674ZM180.638 64.2714C181.086 64.2714 181.483 64.1594 181.828 63.9354C182.173 63.7021 182.444 63.3848 182.64 62.9834C182.845 62.5821 182.948 62.1341 182.948 61.6394C182.948 61.1354 182.845 60.6874 182.64 60.2954C182.444 59.8941 182.173 59.5814 181.828 59.3574C181.483 59.1241 181.086 59.0074 180.638 59.0074C180.19 59.0074 179.793 59.1241 179.448 59.3574C179.103 59.5814 178.827 59.8941 178.622 60.2954C178.426 60.6874 178.328 61.1354 178.328 61.6394C178.328 62.1341 178.426 62.5821 178.622 62.9834C178.827 63.3848 179.103 63.7021 179.448 63.9354C179.793 64.1594 180.19 64.2714 180.638 64.2714ZM185.749 65.0554V58.2234H186.771V59.6234C186.949 59.1474 187.201 58.7788 187.527 58.5174C187.863 58.2468 188.246 58.1114 188.675 58.1114C188.797 58.1114 188.909 58.1208 189.011 58.1394C189.114 58.1488 189.217 58.1721 189.319 58.2094V59.1334C189.207 59.0961 189.086 59.0681 188.955 59.0494C188.834 59.0214 188.717 59.0074 188.605 59.0074C188.185 59.0074 187.817 59.1288 187.499 59.3714C187.191 59.6141 186.949 59.9548 186.771 60.3934V65.0554H185.749Z" fill="#151515"/>
<path d="M104.408 84.0554V80.7434L101.072 75.6554H102.74L105.164 79.4954L107.612 75.6554H109.184L105.848 80.7434V84.0554H104.408ZM107.963 84.0554L111.263 75.6554H112.931L116.183 84.0554H114.635L113.771 81.7034H110.327L109.463 84.0554H107.963ZM110.747 80.5754H113.375L112.055 77.0234L110.747 80.5754ZM117.266 84.0554V75.6554H119.138L121.598 80.7554L124.046 75.6554H125.918V84.0554H124.562V77.4794L121.586 83.4554L118.598 77.4434V84.0554H117.266ZM127.93 84.0554V75.6554H129.37V82.8074H133.846V84.0554H127.93Z" fill="#151515"/>
<path d="M53 131C53 122.163 60.1634 115 69 115H469C477.837 115 485 122.163 485 131V219C485 227.837 477.837 235 469 235H69C60.1634 235 53 227.837 53 219V131Z" fill="white"/>
<path d="M78.424 141V129.8H80.136L83.88 137.768L87.624 129.8H89.336V141H88.168V131.256L83.88 140.2L79.576 131.224V141H78.424ZM92.3016 144.504C92.0563 144.504 91.8056 144.467 91.5496 144.392V143.352C91.6563 143.373 91.7683 143.389 91.8856 143.4C92.003 143.411 92.1043 143.416 92.1896 143.416C92.4883 143.416 92.7336 143.336 92.9256 143.176C93.1283 143.016 93.299 142.765 93.4376 142.424L94.0136 141L91.0056 133.192H92.3016L94.6696 139.608L97.1816 133.192H98.4776L94.5416 142.776C94.371 143.192 94.1843 143.528 93.9816 143.784C93.779 144.04 93.5443 144.221 93.2776 144.328C93.011 144.445 92.6856 144.504 92.3016 144.504ZM107.173 141.128C106.447 141.128 105.791 140.952 105.205 140.6C104.629 140.237 104.17 139.752 103.829 139.144C103.487 138.525 103.317 137.843 103.317 137.096C103.317 136.339 103.487 135.656 103.829 135.048C104.17 134.44 104.629 133.96 105.205 133.608C105.791 133.245 106.447 133.064 107.173 133.064C107.749 133.064 108.298 133.171 108.821 133.384C109.343 133.597 109.797 133.896 110.181 134.28L109.429 135.096C109.151 134.787 108.815 134.547 108.421 134.376C108.026 134.205 107.626 134.12 107.221 134.12C106.709 134.12 106.245 134.253 105.829 134.52C105.423 134.787 105.098 135.144 104.853 135.592C104.607 136.04 104.485 136.541 104.485 137.096C104.485 137.651 104.607 138.152 104.853 138.6C105.098 139.048 105.423 139.405 105.829 139.672C106.245 139.939 106.709 140.072 107.221 140.072C107.626 140.072 108.026 139.987 108.421 139.816C108.815 139.635 109.151 139.395 109.429 139.096L110.181 139.912C109.797 140.296 109.343 140.595 108.821 140.808C108.298 141.021 107.749 141.128 107.173 141.128ZM111.809 141V129.448L112.977 129.208V134.456C113.276 133.987 113.633 133.64 114.049 133.416C114.465 133.181 114.935 133.064 115.457 133.064C116.023 133.064 116.513 133.187 116.929 133.432C117.356 133.667 117.687 134.003 117.921 134.44C118.167 134.867 118.289 135.368 118.289 135.944V141H117.121V136.28C117.121 135.587 116.929 135.043 116.545 134.648C116.172 134.243 115.665 134.04 115.025 134.04C114.599 134.04 114.209 134.141 113.857 134.344C113.505 134.547 113.212 134.845 112.977 135.24V141H111.809ZM123.054 141.144C122.499 141.144 122.008 141.043 121.582 140.84C121.155 140.637 120.819 140.36 120.574 140.008C120.339 139.645 120.222 139.229 120.222 138.76C120.222 138.291 120.344 137.885 120.59 137.544C120.835 137.192 121.176 136.92 121.614 136.728C122.051 136.536 122.563 136.44 123.15 136.44C123.598 136.44 124.019 136.488 124.414 136.584C124.819 136.68 125.192 136.835 125.534 137.048V135.976C125.534 135.336 125.363 134.856 125.022 134.536C124.68 134.205 124.179 134.04 123.518 134.04C123.155 134.04 122.782 134.093 122.398 134.2C122.024 134.307 121.608 134.477 121.15 134.712L120.718 133.816C121.763 133.315 122.744 133.064 123.661 133.064C124.632 133.064 125.379 133.304 125.902 133.784C126.424 134.253 126.686 134.931 126.686 135.816V141H125.534V140.088C125.192 140.44 124.814 140.707 124.398 140.888C123.982 141.059 123.534 141.144 123.054 141.144ZM121.342 138.728C121.342 139.187 121.518 139.555 121.87 139.832C122.232 140.109 122.707 140.248 123.294 140.248C123.731 140.248 124.131 140.173 124.494 140.024C124.867 139.875 125.214 139.651 125.534 139.352V137.848C125.203 137.656 124.862 137.517 124.51 137.432C124.158 137.336 123.763 137.288 123.326 137.288C122.728 137.288 122.248 137.421 121.886 137.688C121.523 137.944 121.342 138.291 121.342 138.728ZM129.059 141V133.192H130.227V134.456C130.526 133.987 130.883 133.64 131.299 133.416C131.715 133.181 132.185 133.064 132.707 133.064C133.273 133.064 133.763 133.187 134.179 133.432C134.606 133.667 134.937 134.003 135.171 134.44C135.417 134.867 135.539 135.368 135.539 135.944V141H134.371V136.28C134.371 135.587 134.179 135.043 133.795 134.648C133.422 134.243 132.915 134.04 132.275 134.04C131.849 134.04 131.459 134.141 131.107 134.344C130.755 134.547 130.462 134.845 130.227 135.24V141H129.059ZM141.504 144.504C140.981 144.504 140.453 144.429 139.92 144.28C139.397 144.141 138.912 143.944 138.464 143.688L138.96 142.792C139.44 143.037 139.877 143.219 140.272 143.336C140.666 143.453 141.061 143.512 141.456 143.512C142.17 143.512 142.709 143.341 143.072 143C143.445 142.659 143.632 142.163 143.632 141.512V139.944C143.333 140.317 142.97 140.605 142.544 140.808C142.117 141 141.648 141.096 141.136 141.096C140.464 141.096 139.856 140.92 139.312 140.568C138.768 140.205 138.336 139.725 138.016 139.128C137.696 138.52 137.536 137.843 137.536 137.096C137.536 136.349 137.696 135.677 138.016 135.08C138.346 134.472 138.789 133.992 139.344 133.64C139.898 133.277 140.517 133.096 141.2 133.096C141.69 133.096 142.144 133.192 142.56 133.384C142.976 133.565 143.338 133.837 143.648 134.2V133.192H144.8V141.496C144.8 142.467 144.517 143.208 143.952 143.72C143.386 144.243 142.57 144.504 141.504 144.504ZM141.424 140.088C141.882 140.088 142.304 139.997 142.688 139.816C143.072 139.624 143.386 139.363 143.632 139.032V135.176C143.376 134.845 143.05 134.589 142.656 134.408C142.272 134.216 141.861 134.12 141.424 134.12C140.901 134.12 140.432 134.248 140.016 134.504C139.61 134.76 139.285 135.112 139.039 135.56C138.805 136.008 138.688 136.52 138.688 137.096C138.688 137.661 138.805 138.173 139.039 138.632C139.285 139.08 139.61 139.437 140.016 139.704C140.432 139.96 140.901 140.088 141.424 140.088ZM150.72 141.16C149.995 141.16 149.339 140.984 148.752 140.632C148.165 140.269 147.701 139.784 147.36 139.176C147.019 138.557 146.848 137.864 146.848 137.096C146.848 136.328 147.008 135.64 147.328 135.032C147.659 134.424 148.101 133.944 148.656 133.592C149.211 133.24 149.829 133.064 150.512 133.064C151.205 133.064 151.819 133.24 152.352 133.592C152.896 133.933 153.323 134.403 153.632 135C153.952 135.587 154.112 136.253 154.112 137V137.352H147.984C148.027 137.885 148.171 138.365 148.416 138.792C148.672 139.208 149.003 139.539 149.408 139.784C149.824 140.019 150.277 140.136 150.768 140.136C151.173 140.136 151.563 140.067 151.936 139.928C152.32 139.779 152.645 139.581 152.912 139.336L153.648 140.12C153.2 140.472 152.736 140.733 152.256 140.904C151.776 141.075 151.264 141.16 150.72 141.16ZM148.016 136.52H152.96C152.907 136.051 152.763 135.635 152.528 135.272C152.304 134.899 152.016 134.605 151.664 134.392C151.323 134.179 150.939 134.072 150.512 134.072C150.085 134.072 149.696 134.179 149.344 134.392C148.992 134.595 148.699 134.883 148.464 135.256C148.24 135.619 148.091 136.04 148.016 136.52ZM158.6 141.16C157.96 141.16 157.368 141.064 156.824 140.872C156.28 140.669 155.816 140.381 155.432 140.008L156.056 139.24C156.526 139.581 156.958 139.832 157.352 139.992C157.747 140.141 158.152 140.216 158.568 140.216C159.134 140.216 159.603 140.083 159.976 139.816C160.35 139.549 160.536 139.208 160.536 138.792C160.536 138.472 160.424 138.221 160.2 138.04C159.987 137.859 159.63 137.72 159.128 137.624L157.848 137.4C157.091 137.261 156.531 137.027 156.168 136.696C155.816 136.365 155.64 135.917 155.64 135.352C155.64 134.904 155.758 134.509 155.992 134.168C156.238 133.827 156.574 133.56 157 133.368C157.427 133.165 157.912 133.064 158.456 133.064C158.99 133.064 159.496 133.144 159.976 133.304C160.456 133.453 160.942 133.699 161.432 134.04L160.856 134.856C160.451 134.568 160.046 134.36 159.64 134.232C159.235 134.093 158.824 134.024 158.408 134.024C157.896 134.024 157.486 134.136 157.176 134.36C156.867 134.584 156.712 134.888 156.712 135.272C156.712 135.592 156.808 135.837 157 136.008C157.203 136.179 157.555 136.307 158.056 136.392L159.368 136.632C160.158 136.771 160.734 137.011 161.096 137.352C161.459 137.693 161.64 138.152 161.64 138.728C161.64 139.187 161.507 139.603 161.24 139.976C160.974 140.339 160.611 140.627 160.152 140.84C159.694 141.053 159.176 141.16 158.6 141.16ZM169.569 141.144C169.014 141.144 168.524 141.043 168.097 140.84C167.67 140.637 167.334 140.36 167.089 140.008C166.854 139.645 166.737 139.229 166.737 138.76C166.737 138.291 166.86 137.885 167.105 137.544C167.35 137.192 167.692 136.92 168.129 136.728C168.566 136.536 169.078 136.44 169.665 136.44C170.113 136.44 170.534 136.488 170.929 136.584C171.334 136.68 171.708 136.835 172.049 137.048V135.976C172.049 135.336 171.878 134.856 171.537 134.536C171.196 134.205 170.694 134.04 170.033 134.04C169.67 134.04 169.297 134.093 168.913 134.2C168.54 134.307 168.124 134.477 167.665 134.712L167.233 133.816C168.278 133.315 169.26 133.064 170.177 133.064C171.148 133.064 171.894 133.304 172.417 133.784C172.94 134.253 173.201 134.931 173.201 135.816V141H172.049V140.088C171.708 140.44 171.329 140.707 170.913 140.888C170.497 141.059 170.049 141.144 169.569 141.144ZM167.857 138.728C167.857 139.187 168.033 139.555 168.385 139.832C168.748 140.109 169.222 140.248 169.809 140.248C170.246 140.248 170.646 140.173 171.009 140.024C171.382 139.875 171.729 139.651 172.049 139.352V137.848C171.718 137.656 171.377 137.517 171.025 137.432C170.673 137.336 170.278 137.288 169.841 137.288C169.244 137.288 168.764 137.421 168.401 137.688C168.038 137.944 167.857 138.291 167.857 138.728ZM175.575 141V133.192H176.743V134.792C176.946 134.248 177.234 133.827 177.607 133.528C177.991 133.219 178.428 133.064 178.919 133.064C179.058 133.064 179.186 133.075 179.303 133.096C179.42 133.107 179.538 133.133 179.655 133.176V134.232C179.527 134.189 179.388 134.157 179.239 134.136C179.1 134.104 178.967 134.088 178.839 134.088C178.359 134.088 177.938 134.227 177.575 134.504C177.223 134.781 176.946 135.171 176.743 135.672V141H175.575ZM184.236 141.16C183.51 141.16 182.854 140.984 182.268 140.632C181.681 140.269 181.217 139.784 180.876 139.176C180.534 138.557 180.364 137.864 180.364 137.096C180.364 136.328 180.524 135.64 180.844 135.032C181.174 134.424 181.617 133.944 182.172 133.592C182.726 133.24 183.345 133.064 184.028 133.064C184.721 133.064 185.334 133.24 185.868 133.592C186.412 133.933 186.838 134.403 187.148 135C187.468 135.587 187.628 136.253 187.628 137V137.352H181.5C181.542 137.885 181.686 138.365 181.932 138.792C182.188 139.208 182.518 139.539 182.924 139.784C183.34 140.019 183.793 140.136 184.284 140.136C184.689 140.136 185.078 140.067 185.452 139.928C185.836 139.779 186.161 139.581 186.428 139.336L187.164 140.12C186.716 140.472 186.252 140.733 185.772 140.904C185.292 141.075 184.78 141.16 184.236 141.16ZM181.532 136.52H186.476C186.422 136.051 186.278 135.635 186.044 135.272C185.82 134.899 185.532 134.605 185.18 134.392C184.838 134.179 184.454 134.072 184.028 134.072C183.601 134.072 183.212 134.179 182.86 134.392C182.508 134.595 182.214 134.883 181.98 135.256C181.756 135.619 181.606 136.04 181.532 136.52ZM189.622 141V133.192H190.79V134.456C191.089 133.987 191.446 133.64 191.862 133.416C192.278 133.181 192.747 133.064 193.27 133.064C193.835 133.064 194.326 133.187 194.742 133.432C195.169 133.667 195.499 134.003 195.734 134.44C195.979 134.867 196.102 135.368 196.102 135.944V141H194.934V136.28C194.934 135.587 194.742 135.043 194.358 134.648C193.985 134.243 193.478 134.04 192.838 134.04C192.411 134.04 192.022 134.141 191.67 134.344C191.318 134.547 191.025 134.845 190.79 135.24V141H189.622ZM197.566 132.696L198.526 129H199.774L198.478 132.696H197.566ZM204.785 141.16C204.113 141.16 203.601 141 203.249 140.68C202.908 140.349 202.737 139.875 202.737 139.256V134.152H201.121V133.192H202.737V131.048L203.905 130.776V133.192H206.145V134.152H203.905V138.952C203.905 139.368 203.991 139.667 204.161 139.848C204.343 140.029 204.636 140.12 205.041 140.12C205.244 140.12 205.425 140.104 205.585 140.072C205.745 140.04 205.932 139.987 206.145 139.912V140.952C205.932 141.027 205.708 141.08 205.473 141.112C205.239 141.144 205.009 141.16 204.785 141.16ZM211.591 144.344V133.192H212.743V134.312C213.041 133.917 213.404 133.619 213.831 133.416C214.268 133.203 214.748 133.096 215.271 133.096C215.953 133.096 216.561 133.277 217.095 133.64C217.639 133.992 218.071 134.472 218.391 135.08C218.711 135.677 218.871 136.349 218.871 137.096C218.871 137.843 218.705 138.52 218.375 139.128C218.055 139.736 217.617 140.221 217.063 140.584C216.519 140.936 215.9 141.112 215.207 141.112C214.716 141.112 214.263 141.021 213.847 140.84C213.431 140.648 213.068 140.376 212.759 140.024V144.344H211.591ZM214.983 140.104C215.505 140.104 215.969 139.976 216.375 139.72C216.791 139.453 217.116 139.096 217.351 138.648C217.596 138.189 217.719 137.677 217.719 137.112C217.719 136.536 217.596 136.024 217.351 135.576C217.116 135.128 216.791 134.776 216.375 134.52C215.969 134.253 215.505 134.12 214.983 134.12C214.524 134.12 214.097 134.216 213.703 134.408C213.319 134.589 213.004 134.851 212.759 135.192V139.016C213.015 139.357 213.335 139.624 213.719 139.816C214.113 140.008 214.535 140.104 214.983 140.104ZM220.919 141V133.192H222.087V134.792C222.289 134.248 222.577 133.827 222.951 133.528C223.335 133.219 223.772 133.064 224.263 133.064C224.401 133.064 224.529 133.075 224.647 133.096C224.764 133.107 224.881 133.133 224.999 133.176V134.232C224.871 134.189 224.732 134.157 224.583 134.136C224.444 134.104 224.311 134.088 224.183 134.088C223.703 134.088 223.281 134.227 222.919 134.504C222.567 134.781 222.289 135.171 222.087 135.672V141H220.919ZM229.515 141.128C228.79 141.128 228.139 140.952 227.563 140.6C226.987 140.248 226.534 139.768 226.203 139.16C225.873 138.552 225.707 137.864 225.707 137.096C225.707 136.328 225.873 135.64 226.203 135.032C226.534 134.424 226.987 133.944 227.563 133.592C228.139 133.24 228.79 133.064 229.515 133.064C230.23 133.064 230.87 133.24 231.435 133.592C232.011 133.944 232.465 134.424 232.795 135.032C233.126 135.64 233.291 136.328 233.291 137.096C233.291 137.864 233.126 138.552 232.795 139.16C232.465 139.768 232.011 140.248 231.435 140.6C230.87 140.952 230.23 141.128 229.515 141.128ZM229.499 140.104C230.011 140.104 230.465 139.976 230.859 139.72C231.254 139.453 231.563 139.091 231.787 138.632C232.022 138.173 232.139 137.661 232.139 137.096C232.139 136.52 232.022 136.008 231.787 135.56C231.563 135.101 231.254 134.744 230.859 134.488C230.465 134.221 230.011 134.088 229.499 134.088C228.987 134.088 228.534 134.221 228.139 134.488C227.745 134.744 227.43 135.101 227.195 135.56C226.971 136.008 226.859 136.52 226.859 137.096C226.859 137.661 226.971 138.173 227.195 138.632C227.43 139.091 227.745 139.453 228.139 139.72C228.534 139.976 228.987 140.104 229.499 140.104ZM235.341 144.344V133.192H236.493V134.312C236.791 133.917 237.154 133.619 237.581 133.416C238.018 133.203 238.498 133.096 239.021 133.096C239.703 133.096 240.311 133.277 240.845 133.64C241.389 133.992 241.821 134.472 242.141 135.08C242.461 135.677 242.621 136.349 242.621 137.096C242.621 137.843 242.455 138.52 242.125 139.128C241.805 139.736 241.367 140.221 240.813 140.584C240.269 140.936 239.65 141.112 238.957 141.112C238.466 141.112 238.013 141.021 237.597 140.84C237.181 140.648 236.818 140.376 236.509 140.024V144.344H235.341ZM238.733 140.104C239.255 140.104 239.719 139.976 240.125 139.72C240.541 139.453 240.866 139.096 241.101 138.648C241.346 138.189 241.469 137.677 241.469 137.112C241.469 136.536 241.346 136.024 241.101 135.576C240.866 135.128 240.541 134.776 240.125 134.52C239.719 134.253 239.255 134.12 238.733 134.12C238.274 134.12 237.847 134.216 237.453 134.408C237.069 134.589 236.754 134.851 236.509 135.192V139.016C236.765 139.357 237.085 139.624 237.469 139.816C237.863 140.008 238.285 140.104 238.733 140.104ZM248.189 141.16C247.463 141.16 246.807 140.984 246.221 140.632C245.634 140.269 245.17 139.784 244.829 139.176C244.487 138.557 244.317 137.864 244.317 137.096C244.317 136.328 244.477 135.64 244.797 135.032C245.127 134.424 245.57 133.944 246.125 133.592C246.679 133.24 247.298 133.064 247.981 133.064C248.674 133.064 249.287 133.24 249.821 133.592C250.365 133.933 250.791 134.403 251.101 135C251.421 135.587 251.581 136.253 251.581 137V137.352H245.453C245.495 137.885 245.639 138.365 245.885 138.792C246.141 139.208 246.471 139.539 246.877 139.784C247.293 140.019 247.746 140.136 248.237 140.136C248.642 140.136 249.031 140.067 249.405 139.928C249.789 139.779 250.114 139.581 250.381 139.336L251.117 140.12C250.669 140.472 250.205 140.733 249.725 140.904C249.245 141.075 248.733 141.16 248.189 141.16ZM245.485 136.52H250.429C250.375 136.051 250.231 135.635 249.997 135.272C249.773 134.899 249.485 134.605 249.133 134.392C248.791 134.179 248.407 134.072 247.981 134.072C247.554 134.072 247.165 134.179 246.813 134.392C246.461 134.595 246.167 134.883 245.933 135.256C245.709 135.619 245.559 136.04 245.485 136.52ZM253.575 141V133.192H254.743V134.792C254.946 134.248 255.234 133.827 255.607 133.528C255.991 133.219 256.428 133.064 256.919 133.064C257.058 133.064 257.186 133.075 257.303 133.096C257.42 133.107 257.538 133.133 257.655 133.176V134.232C257.527 134.189 257.388 134.157 257.239 134.136C257.1 134.104 256.967 134.088 256.839 134.088C256.359 134.088 255.938 134.227 255.575 134.504C255.223 134.781 254.946 135.171 254.743 135.672V141H253.575ZM259.2 141V129.448L260.368 129.208V141H259.2ZM263.099 144.504C262.853 144.504 262.603 144.467 262.347 144.392V143.352C262.453 143.373 262.565 143.389 262.683 143.4C262.8 143.411 262.901 143.416 262.987 143.416C263.285 143.416 263.531 143.336 263.723 143.176C263.925 143.016 264.096 142.765 264.235 142.424L264.811 141L261.803 133.192H263.099L265.467 139.608L267.979 133.192H269.275L265.339 142.776C265.168 143.192 264.981 143.528 264.779 143.784C264.576 144.04 264.341 144.221 264.075 144.328C263.808 144.445 263.482 144.504 263.099 144.504ZM276.882 141.16C276.242 141.16 275.65 141.064 275.106 140.872C274.562 140.669 274.098 140.381 273.714 140.008L274.338 139.24C274.807 139.581 275.239 139.832 275.634 139.992C276.028 140.141 276.434 140.216 276.85 140.216C277.415 140.216 277.884 140.083 278.258 139.816C278.631 139.549 278.818 139.208 278.818 138.792C278.818 138.472 278.706 138.221 278.482 138.04C278.268 137.859 277.911 137.72 277.41 137.624L276.13 137.4C275.372 137.261 274.812 137.027 274.45 136.696C274.098 136.365 273.922 135.917 273.922 135.352C273.922 134.904 274.039 134.509 274.274 134.168C274.519 133.827 274.855 133.56 275.282 133.368C275.708 133.165 276.194 133.064 276.738 133.064C277.271 133.064 277.778 133.144 278.258 133.304C278.738 133.453 279.223 133.699 279.714 134.04L279.138 134.856C278.732 134.568 278.327 134.36 277.922 134.232C277.516 134.093 277.106 134.024 276.69 134.024C276.178 134.024 275.767 134.136 275.458 134.36C275.148 134.584 274.994 134.888 274.994 135.272C274.994 135.592 275.09 135.837 275.282 136.008C275.484 136.179 275.836 136.307 276.338 136.392L277.65 136.632C278.439 136.771 279.015 137.011 279.378 137.352C279.74 137.693 279.922 138.152 279.922 138.728C279.922 139.187 279.788 139.603 279.522 139.976C279.255 140.339 278.892 140.627 278.434 140.84C277.975 141.053 277.458 141.16 276.882 141.16ZM284.194 141.144C283.639 141.144 283.149 141.043 282.722 140.84C282.295 140.637 281.959 140.36 281.714 140.008C281.479 139.645 281.362 139.229 281.362 138.76C281.362 138.291 281.485 137.885 281.73 137.544C281.975 137.192 282.317 136.92 282.754 136.728C283.191 136.536 283.703 136.44 284.29 136.44C284.738 136.44 285.159 136.488 285.554 136.584C285.959 136.68 286.333 136.835 286.674 137.048V135.976C286.674 135.336 286.503 134.856 286.162 134.536C285.821 134.205 285.319 134.04 284.658 134.04C284.295 134.04 283.922 134.093 283.538 134.2C283.165 134.307 282.749 134.477 282.29 134.712L281.858 133.816C282.903 133.315 283.885 133.064 284.802 133.064C285.773 133.064 286.519 133.304 287.042 133.784C287.565 134.253 287.826 134.931 287.826 135.816V141H286.674V140.088C286.333 140.44 285.954 140.707 285.538 140.888C285.122 141.059 284.674 141.144 284.194 141.144ZM282.482 138.728C282.482 139.187 282.658 139.555 283.01 139.832C283.373 140.109 283.847 140.248 284.434 140.248C284.871 140.248 285.271 140.173 285.634 140.024C286.007 139.875 286.354 139.651 286.674 139.352V137.848C286.343 137.656 286.002 137.517 285.65 137.432C285.298 137.336 284.903 137.288 284.466 137.288C283.869 137.288 283.389 137.421 283.026 137.688C282.663 137.944 282.482 138.291 282.482 138.728ZM292.128 141L288.928 133.192H290.192L292.72 139.544L295.216 133.192H296.464L293.248 141H292.128ZM297.887 141V133.192H299.055V141H297.887ZM298.479 131.256C298.244 131.256 298.042 131.176 297.871 131.016C297.711 130.845 297.631 130.648 297.631 130.424C297.631 130.2 297.711 130.008 297.871 129.848C298.042 129.677 298.244 129.592 298.479 129.592C298.714 129.592 298.911 129.677 299.071 129.848C299.242 130.008 299.327 130.2 299.327 130.424C299.327 130.648 299.242 130.845 299.071 131.016C298.911 131.176 298.714 131.256 298.479 131.256ZM301.45 141V133.192H302.618V134.456C302.917 133.987 303.274 133.64 303.69 133.416C304.106 133.181 304.575 133.064 305.098 133.064C305.663 133.064 306.154 133.187 306.57 133.432C306.997 133.667 307.327 134.003 307.562 134.44C307.807 134.867 307.93 135.368 307.93 135.944V141H306.762V136.28C306.762 135.587 306.57 135.043 306.186 134.648C305.813 134.243 305.306 134.04 304.666 134.04C304.239 134.04 303.85 134.141 303.498 134.344C303.146 134.547 302.853 134.845 302.618 135.24V141H301.45ZM313.894 144.504C313.371 144.504 312.843 144.429 312.31 144.28C311.787 144.141 311.302 143.944 310.854 143.688L311.35 142.792C311.83 143.037 312.267 143.219 312.662 143.336C313.057 143.453 313.451 143.512 313.846 143.512C314.561 143.512 315.099 143.341 315.462 143C315.835 142.659 316.022 142.163 316.022 141.512V139.944C315.723 140.317 315.361 140.605 314.934 140.808C314.507 141 314.038 141.096 313.526 141.096C312.854 141.096 312.246 140.92 311.702 140.568C311.158 140.205 310.726 139.725 310.406 139.128C310.086 138.52 309.926 137.843 309.926 137.096C309.926 136.349 310.086 135.677 310.406 135.08C310.737 134.472 311.179 133.992 311.734 133.64C312.289 133.277 312.907 133.096 313.59 133.096C314.081 133.096 314.534 133.192 314.95 133.384C315.366 133.565 315.729 133.837 316.038 134.2V133.192H317.19V141.496C317.19 142.467 316.907 143.208 316.342 143.72C315.777 144.243 314.961 144.504 313.894 144.504ZM313.814 140.088C314.273 140.088 314.694 139.997 315.078 139.816C315.462 139.624 315.777 139.363 316.022 139.032V135.176C315.766 134.845 315.441 134.589 315.046 134.408C314.662 134.216 314.251 134.12 313.814 134.12C313.291 134.12 312.822 134.248 312.406 134.504C312.001 134.76 311.675 135.112 311.43 135.56C311.195 136.008 311.078 136.52 311.078 137.096C311.078 137.661 311.195 138.173 311.43 138.632C311.675 139.08 312.001 139.437 312.406 139.704C312.822 139.96 313.291 140.088 313.814 140.088ZM323.309 141V133.192H324.477V141H323.309ZM323.901 131.256C323.666 131.256 323.464 131.176 323.293 131.016C323.133 130.845 323.053 130.648 323.053 130.424C323.053 130.2 323.133 130.008 323.293 129.848C323.464 129.677 323.666 129.592 323.901 129.592C324.136 129.592 324.333 129.677 324.493 129.848C324.664 130.008 324.749 130.2 324.749 130.424C324.749 130.648 324.664 130.845 324.493 131.016C324.333 131.176 324.136 131.256 323.901 131.256ZM326.872 141V133.192H328.04V134.456C328.339 133.987 328.696 133.64 329.112 133.416C329.528 133.181 329.997 133.064 330.52 133.064C331.085 133.064 331.576 133.187 331.992 133.432C332.419 133.667 332.749 134.003 332.984 134.44C333.229 134.867 333.352 135.368 333.352 135.944V141H332.184V136.28C332.184 135.587 331.992 135.043 331.608 134.648C331.235 134.243 330.728 134.04 330.088 134.04C329.661 134.04 329.272 134.141 328.92 134.344C328.568 134.547 328.275 134.845 328.04 135.24V141H326.872ZM339.434 141V133.192H340.602V134.408C340.901 133.96 341.242 133.624 341.626 133.4C342.01 133.176 342.442 133.064 342.922 133.064C343.477 133.064 343.962 133.203 344.378 133.48C344.794 133.747 345.109 134.115 345.322 134.584C345.632 134.083 346 133.704 346.426 133.448C346.864 133.192 347.365 133.064 347.93 133.064C348.453 133.064 348.912 133.187 349.306 133.432C349.712 133.677 350.026 134.019 350.25 134.456C350.474 134.883 350.586 135.384 350.586 135.96V141H349.418V136.248C349.418 135.565 349.248 135.027 348.906 134.632C348.565 134.237 348.096 134.04 347.498 134.04C347.093 134.04 346.725 134.141 346.394 134.344C346.074 134.547 345.792 134.856 345.546 135.272C345.568 135.379 345.584 135.491 345.594 135.608C345.605 135.725 345.61 135.843 345.61 135.96V141H344.442V136.248C344.442 135.565 344.266 135.027 343.914 134.632C343.573 134.237 343.104 134.04 342.506 134.04C341.706 134.04 341.072 134.424 340.602 135.192V141H339.434ZM353.13 144.504C352.884 144.504 352.634 144.467 352.378 144.392V143.352C352.484 143.373 352.596 143.389 352.714 143.4C352.831 143.411 352.932 143.416 353.018 143.416C353.316 143.416 353.562 143.336 353.754 143.176C353.956 143.016 354.127 142.765 354.266 142.424L354.842 141L351.834 133.192H353.13L355.498 139.608L358.01 133.192H359.306L355.37 142.776C355.199 143.192 355.012 143.528 354.81 143.784C354.607 144.04 354.372 144.221 354.106 144.328C353.839 144.445 353.514 144.504 353.13 144.504ZM366.913 141.144C366.358 141.144 365.868 141.043 365.441 140.84C365.014 140.637 364.678 140.36 364.433 140.008C364.198 139.645 364.081 139.229 364.081 138.76C364.081 138.291 364.204 137.885 364.449 137.544C364.694 137.192 365.036 136.92 365.473 136.728C365.91 136.536 366.422 136.44 367.009 136.44C367.457 136.44 367.878 136.488 368.273 136.584C368.678 136.68 369.052 136.835 369.393 137.048V135.976C369.393 135.336 369.222 134.856 368.881 134.536C368.54 134.205 368.038 134.04 367.377 134.04C367.014 134.04 366.641 134.093 366.257 134.2C365.884 134.307 365.468 134.477 365.009 134.712L364.577 133.816C365.622 133.315 366.604 133.064 367.521 133.064C368.492 133.064 369.238 133.304 369.761 133.784C370.284 134.253 370.545 134.931 370.545 135.816V141H369.393V140.088C369.052 140.44 368.673 140.707 368.257 140.888C367.841 141.059 367.393 141.144 366.913 141.144ZM365.201 138.728C365.201 139.187 365.377 139.555 365.729 139.832C366.092 140.109 366.566 140.248 367.153 140.248C367.59 140.248 367.99 140.173 368.353 140.024C368.726 139.875 369.073 139.651 369.393 139.352V137.848C369.062 137.656 368.721 137.517 368.369 137.432C368.017 137.336 367.622 137.288 367.185 137.288C366.588 137.288 366.108 137.421 365.745 137.688C365.382 137.944 365.201 138.291 365.201 138.728ZM375.625 141.128C375.07 141.128 374.579 141.005 374.153 140.76C373.726 140.515 373.39 140.173 373.145 139.736C372.91 139.299 372.793 138.797 372.793 138.232V133.192H373.977V137.896C373.977 138.589 374.163 139.139 374.537 139.544C374.91 139.949 375.417 140.152 376.057 140.152C376.494 140.152 376.883 140.051 377.225 139.848C377.577 139.645 377.87 139.352 378.105 138.968V133.192H379.273V141H378.105V139.736C377.806 140.195 377.449 140.541 377.033 140.776C376.627 141.011 376.158 141.128 375.625 141.128ZM384.645 141.16C383.973 141.16 383.461 141 383.109 140.68C382.767 140.349 382.597 139.875 382.597 139.256V134.152H380.981V133.192H382.597V131.048L383.765 130.776V133.192H386.005V134.152H383.765V138.952C383.765 139.368 383.85 139.667 384.021 139.848C384.202 140.029 384.495 140.12 384.901 140.12C385.103 140.12 385.285 140.104 385.445 140.072C385.605 140.04 385.791 139.987 386.005 139.912V140.952C385.791 141.027 385.567 141.08 385.333 141.112C385.098 141.144 384.869 141.16 384.645 141.16ZM387.716 141V129.448L388.884 129.208V134.456C389.182 133.987 389.54 133.64 389.956 133.416C390.372 133.181 390.841 133.064 391.364 133.064C391.929 133.064 392.42 133.187 392.836 133.432C393.262 133.667 393.593 134.003 393.828 134.44C394.073 134.867 394.196 135.368 394.196 135.944V141H393.028V136.28C393.028 135.587 392.836 135.043 392.452 134.648C392.078 134.243 391.572 134.04 390.932 134.04C390.505 134.04 390.116 134.141 389.764 134.344C389.412 134.547 389.118 134.845 388.884 135.24V141H387.716ZM400.064 141.16C399.338 141.16 398.682 140.984 398.096 140.632C397.509 140.269 397.045 139.784 396.704 139.176C396.362 138.557 396.192 137.864 396.192 137.096C396.192 136.328 396.352 135.64 396.672 135.032C397.002 134.424 397.445 133.944 398 133.592C398.554 133.24 399.173 133.064 399.856 133.064C400.549 133.064 401.162 133.24 401.696 133.592C402.24 133.933 402.666 134.403 402.976 135C403.296 135.587 403.456 136.253 403.456 137V137.352H397.328C397.37 137.885 397.514 138.365 397.76 138.792C398.016 139.208 398.346 139.539 398.752 139.784C399.168 140.019 399.621 140.136 400.112 140.136C400.517 140.136 400.906 140.067 401.28 139.928C401.664 139.779 401.989 139.581 402.256 139.336L402.992 140.12C402.544 140.472 402.08 140.733 401.6 140.904C401.12 141.075 400.608 141.16 400.064 141.16ZM397.36 136.52H402.304C402.25 136.051 402.106 135.635 401.872 135.272C401.648 134.899 401.36 134.605 401.008 134.392C400.666 134.179 400.282 134.072 399.856 134.072C399.429 134.072 399.04 134.179 398.688 134.392C398.336 134.595 398.042 134.883 397.808 135.256C397.584 135.619 397.434 136.04 397.36 136.52ZM405.45 141V133.192H406.618V134.456C406.917 133.987 407.274 133.64 407.69 133.416C408.106 133.181 408.575 133.064 409.098 133.064C409.663 133.064 410.154 133.187 410.57 133.432C410.997 133.667 411.327 134.003 411.562 134.44C411.807 134.867 411.93 135.368 411.93 135.944V141H410.762V136.28C410.762 135.587 410.57 135.043 410.186 134.648C409.813 134.243 409.306 134.04 408.666 134.04C408.239 134.04 407.85 134.141 407.498 134.344C407.146 134.547 406.853 134.845 406.618 135.24V141H405.45ZM417.02 141.16C416.348 141.16 415.836 141 415.484 140.68C415.142 140.349 414.972 139.875 414.972 139.256V134.152H413.356V133.192H414.972V131.048L416.14 130.776V133.192H418.38V134.152H416.14V138.952C416.14 139.368 416.225 139.667 416.396 139.848C416.577 140.029 416.87 140.12 417.276 140.12C417.478 140.12 417.66 140.104 417.82 140.072C417.98 140.04 418.166 139.987 418.38 139.912V140.952C418.166 141.027 417.942 141.08 417.708 141.112C417.473 141.144 417.244 141.16 417.02 141.16ZM420.075 141V133.192H421.243V141H420.075ZM420.667 131.256C420.432 131.256 420.229 131.176 420.059 131.016C419.899 130.845 419.819 130.648 419.819 130.424C419.819 130.2 419.899 130.008 420.059 129.848C420.229 129.677 420.432 129.592 420.667 129.592C420.901 129.592 421.099 129.677 421.259 129.848C421.429 130.008 421.515 130.2 421.515 130.424C421.515 130.648 421.429 130.845 421.259 131.016C421.099 131.176 420.901 131.256 420.667 131.256ZM427.141 141.128C426.416 141.128 425.76 140.952 425.174 140.6C424.598 140.237 424.139 139.752 423.798 139.144C423.456 138.525 423.286 137.843 423.286 137.096C423.286 136.339 423.456 135.656 423.798 135.048C424.139 134.44 424.598 133.96 425.174 133.608C425.76 133.245 426.416 133.064 427.141 133.064C427.718 133.064 428.267 133.171 428.79 133.384C429.312 133.597 429.766 133.896 430.15 134.28L429.398 135.096C429.12 134.787 428.784 134.547 428.39 134.376C427.995 134.205 427.595 134.12 427.19 134.12C426.678 134.12 426.214 134.253 425.798 134.52C425.392 134.787 425.067 135.144 424.822 135.592C424.576 136.04 424.454 136.541 424.454 137.096C424.454 137.651 424.576 138.152 424.822 138.6C425.067 139.048 425.392 139.405 425.798 139.672C426.214 139.939 426.678 140.072 427.19 140.072C427.595 140.072 427.995 139.987 428.39 139.816C428.784 139.635 429.12 139.395 429.398 139.096L430.15 139.912C429.766 140.296 429.312 140.595 428.79 140.808C428.267 141.021 427.718 141.128 427.141 141.128ZM434.194 141.144C433.639 141.144 433.149 141.043 432.722 140.84C432.295 140.637 431.959 140.36 431.714 140.008C431.479 139.645 431.362 139.229 431.362 138.76C431.362 138.291 431.485 137.885 431.73 137.544C431.975 137.192 432.317 136.92 432.754 136.728C433.191 136.536 433.703 136.44 434.29 136.44C434.738 136.44 435.159 136.488 435.554 136.584C435.959 136.68 436.333 136.835 436.674 137.048V135.976C436.674 135.336 436.503 134.856 436.162 134.536C435.821 134.205 435.319 134.04 434.658 134.04C434.295 134.04 433.922 134.093 433.538 134.2C433.165 134.307 432.749 134.477 432.29 134.712L431.858 133.816C432.903 133.315 433.885 133.064 434.802 133.064C435.773 133.064 436.519 133.304 437.042 133.784C437.565 134.253 437.826 134.931 437.826 135.816V141H436.674V140.088C436.333 140.44 435.954 140.707 435.538 140.888C435.122 141.059 434.674 141.144 434.194 141.144ZM432.482 138.728C432.482 139.187 432.658 139.555 433.01 139.832C433.373 140.109 433.847 140.248 434.434 140.248C434.871 140.248 435.271 140.173 435.634 140.024C436.007 139.875 436.354 139.651 436.674 139.352V137.848C436.343 137.656 436.002 137.517 435.65 137.432C435.298 137.336 434.903 137.288 434.466 137.288C433.869 137.288 433.389 137.421 433.026 137.688C432.663 137.944 432.482 138.291 432.482 138.728ZM442.942 141.16C442.27 141.16 441.758 141 441.406 140.68C441.064 140.349 440.894 139.875 440.894 139.256V134.152H439.278V133.192H440.894V131.048L442.062 130.776V133.192H444.302V134.152H442.062V138.952C442.062 139.368 442.147 139.667 442.318 139.848C442.499 140.029 442.792 140.12 443.198 140.12C443.4 140.12 443.582 140.104 443.742 140.072C443.902 140.04 444.088 139.987 444.302 139.912V140.952C444.088 141.027 443.864 141.08 443.63 141.112C443.395 141.144 443.166 141.16 442.942 141.16ZM445.997 141V133.192H447.164V141H445.997ZM446.589 131.256C446.354 131.256 446.151 131.176 445.981 131.016C445.821 130.845 445.741 130.648 445.741 130.424C445.741 130.2 445.821 130.008 445.981 129.848C446.151 129.677 446.354 129.592 446.589 129.592C446.823 129.592 447.021 129.677 447.181 129.848C447.351 130.008 447.437 130.2 447.437 130.424C447.437 130.648 447.351 130.845 447.181 131.016C447.021 131.176 446.823 131.256 446.589 131.256ZM453.015 141.128C452.29 141.128 451.639 140.952 451.063 140.6C450.487 140.248 450.034 139.768 449.703 139.16C449.373 138.552 449.207 137.864 449.207 137.096C449.207 136.328 449.373 135.64 449.703 135.032C450.034 134.424 450.487 133.944 451.063 133.592C451.639 133.24 452.29 133.064 453.015 133.064C453.73 133.064 454.37 133.24 454.935 133.592C455.511 133.944 455.965 134.424 456.295 135.032C456.626 135.64 456.791 136.328 456.791 137.096C456.791 137.864 456.626 138.552 456.295 139.16C455.965 139.768 455.511 140.248 454.935 140.6C454.37 140.952 453.73 141.128 453.015 141.128ZM452.999 140.104C453.511 140.104 453.965 139.976 454.359 139.72C454.754 139.453 455.063 139.091 455.287 138.632C455.522 138.173 455.639 137.661 455.639 137.096C455.639 136.52 455.522 136.008 455.287 135.56C455.063 135.101 454.754 134.744 454.359 134.488C453.965 134.221 453.511 134.088 452.999 134.088C452.487 134.088 452.034 134.221 451.639 134.488C451.245 134.744 450.93 135.101 450.695 135.56C450.471 136.008 450.359 136.52 450.359 137.096C450.359 137.661 450.471 138.173 450.695 138.632C450.93 139.091 451.245 139.453 451.639 139.72C452.034 139.976 452.487 140.104 452.999 140.104ZM458.841 141V133.192H460.009V134.456C460.307 133.987 460.665 133.64 461.081 133.416C461.497 133.181 461.966 133.064 462.489 133.064C463.054 133.064 463.545 133.187 463.961 133.432C464.387 133.667 464.718 134.003 464.953 134.44C465.198 134.867 465.321 135.368 465.321 135.944V141H464.153V136.28C464.153 135.587 463.961 135.043 463.577 134.648C463.203 134.243 462.697 134.04 462.057 134.04C461.63 134.04 461.241 134.141 460.889 134.344C460.537 134.547 460.243 134.845 460.009 135.24V141H458.841ZM79.192 165V158.152H77.448V157.192H79.192V155.56C79.192 154.792 79.3947 154.2 79.8 153.784C80.2053 153.368 80.7813 153.16 81.528 153.16C81.7413 153.16 81.9333 153.171 82.104 153.192C82.2853 153.213 82.4453 153.251 82.584 153.304V154.36C82.4133 154.307 82.2587 154.269 82.12 154.248C81.9813 154.227 81.8213 154.216 81.64 154.216C81.192 154.216 80.8667 154.328 80.664 154.552C80.4613 154.765 80.36 155.107 80.36 155.576V157.192H82.584V158.152H80.36V165H79.192ZM84.1059 165V157.192H85.2739V165H84.1059ZM84.6979 155.256C84.4632 155.256 84.2605 155.176 84.0899 155.016C83.9299 154.845 83.8499 154.648 83.8499 154.424C83.8499 154.2 83.9299 154.008 84.0899 153.848C84.2605 153.677 84.4632 153.592 84.6979 153.592C84.9325 153.592 85.1299 153.677 85.2899 153.848C85.4605 154.008 85.5459 154.2 85.5459 154.424C85.5459 154.648 85.4605 154.845 85.2899 155.016C85.1299 155.176 84.9325 155.256 84.6979 155.256ZM87.6688 165V153.448L88.8368 153.208V165H87.6688ZM94.7513 165.16C94.0259 165.16 93.3699 164.984 92.7833 164.632C92.1966 164.269 91.7326 163.784 91.3913 163.176C91.0499 162.557 90.8793 161.864 90.8793 161.096C90.8793 160.328 91.0393 159.64 91.3593 159.032C91.6899 158.424 92.1326 157.944 92.6873 157.592C93.2419 157.24 93.8606 157.064 94.5433 157.064C95.2366 157.064 95.8499 157.24 96.3833 157.592C96.9273 157.933 97.3539 158.403 97.6633 159C97.9833 159.587 98.1433 160.253 98.1433 161V161.352H92.0153C92.0579 161.885 92.2019 162.365 92.4473 162.792C92.7033 163.208 93.0339 163.539 93.4393 163.784C93.8553 164.019 94.3086 164.136 94.7993 164.136C95.2046 164.136 95.5939 164.067 95.9673 163.928C96.3513 163.779 96.6766 163.581 96.9433 163.336L97.6793 164.12C97.2313 164.472 96.7673 164.733 96.2873 164.904C95.8073 165.075 95.2953 165.16 94.7513 165.16ZM92.0473 160.52H96.9913C96.9379 160.051 96.7939 159.635 96.5593 159.272C96.3353 158.899 96.0473 158.605 95.6953 158.392C95.3539 158.179 94.9699 158.072 94.5433 158.072C94.1166 158.072 93.7273 158.179 93.3753 158.392C93.0233 158.595 92.7299 158.883 92.4953 159.256C92.2713 159.619 92.1219 160.04 92.0473 160.52Z" fill="#151515"/>
<path d="M328.062 196.356C329.871 194.548 332.801 194.548 334.609 196.356C336.418 198.165 336.418 201.095 334.609 202.903L327.734 209.778C326.617 210.896 324.805 210.896 323.687 209.778C322.57 208.661 322.57 206.849 323.687 205.731L329.312 200.106C329.738 199.681 330.434 199.681 330.859 200.106C331.285 200.532 331.285 201.228 330.859 201.653L325.234 207.278C324.973 207.54 324.973 207.97 325.234 208.231C325.496 208.493 325.926 208.493 326.187 208.231L333.062 201.356C334.016 200.403 334.016 198.856 333.062 197.903C332.109 196.95 330.562 196.95 329.609 197.903L322.422 205.091C320.777 206.735 320.777 209.399 322.422 211.044C324.066 212.688 326.73 212.688 328.375 211.044L334.312 205.106C334.738 204.681 335.434 204.681 335.859 205.106C336.285 205.532 336.285 206.228 335.859 206.653L329.922 212.591C327.422 215.091 323.375 215.091 320.875 212.591C318.375 210.091 318.375 206.044 320.875 203.544L328.062 196.356Z" fill="#707070"/>
<path d="M398.938 200.5C399.457 200.5 399.875 200.918 399.875 201.438V203C399.875 206.48 397.289 209.355 393.938 209.812V211.125H395.812C396.332 211.125 396.75 211.543 396.75 212.062C396.75 212.582 396.332 213 395.812 213H390.188C389.668 213 389.25 212.582 389.25 212.062C389.25 211.543 389.668 211.125 390.188 211.125H392.062V209.812C388.711 209.355 386.125 206.48 386.125 203V201.438C386.125 200.918 386.543 200.5 387.062 200.5C387.582 200.5 388 200.918 388 201.438V203C388 205.762 390.238 208 393 208C395.762 208 398 205.762 398 203V201.438C398 200.918 398.418 200.5 398.938 200.5ZM393 193C395.07 193 396.75 194.68 396.75 196.75V203C396.75 205.07 395.07 206.75 393 206.75C390.93 206.75 389.25 205.07 389.25 203V196.75C389.25 194.68 390.93 193 393 193Z" fill="#707070"/>
<path d="M461.13 193.162C461.548 192.924 462.063 192.947 462.458 193.217C462.852 193.49 463.059 193.963 462.985 194.435L460.485 210.685C460.427 211.064 460.196 211.396 459.86 211.584C459.524 211.771 459.122 211.795 458.766 211.646L454.095 209.705L451.419 212.599C451.071 212.978 450.524 213.103 450.044 212.916C449.563 212.728 449.251 212.264 449.251 211.748V208.482C449.251 208.326 449.309 208.178 449.415 208.064L455.962 200.92C456.188 200.674 456.18 200.295 455.946 200.06C455.712 199.826 455.333 199.811 455.087 200.033L447.141 207.092L443.692 205.365C443.278 205.158 443.012 204.744 443.001 204.283C442.989 203.822 443.231 203.392 443.63 203.162L461.13 193.162Z" fill="#0066CC"/>
<path d="M139.95 264L143.274 255.6H144.378L147.654 264H146.658L145.662 261.36H141.918L140.922 264H139.95ZM142.206 260.628H145.386L143.79 256.44L142.206 260.628ZM148.664 264V255.336L149.54 255.156V264H148.664ZM152.38 264L150.772 258.144H151.624L152.848 262.824L154.252 258.144H155.032L156.436 262.824L157.648 258.144H158.476L156.88 264H156.028L154.636 259.272L153.244 264H152.38ZM161.468 264.108C161.052 264.108 160.684 264.032 160.364 263.88C160.044 263.728 159.792 263.52 159.608 263.256C159.432 262.984 159.344 262.672 159.344 262.32C159.344 261.968 159.436 261.664 159.62 261.408C159.804 261.144 160.06 260.94 160.388 260.796C160.716 260.652 161.1 260.58 161.54 260.58C161.876 260.58 162.192 260.616 162.488 260.688C162.792 260.76 163.072 260.876 163.328 261.036V260.232C163.328 259.752 163.2 259.392 162.944 259.152C162.688 258.904 162.312 258.78 161.816 258.78C161.544 258.78 161.264 258.82 160.976 258.9C160.696 258.98 160.384 259.108 160.04 259.284L159.716 258.612C160.5 258.236 161.236 258.048 161.924 258.048C162.652 258.048 163.212 258.228 163.604 258.588C163.996 258.94 164.192 259.448 164.192 260.112V264H163.328V263.316C163.072 263.58 162.788 263.78 162.476 263.916C162.164 264.044 161.828 264.108 161.468 264.108ZM160.184 262.296C160.184 262.64 160.316 262.916 160.58 263.124C160.852 263.332 161.208 263.436 161.648 263.436C161.976 263.436 162.276 263.38 162.548 263.268C162.828 263.156 163.088 262.988 163.328 262.764V261.636C163.08 261.492 162.824 261.388 162.56 261.324C162.296 261.252 162 261.216 161.672 261.216C161.224 261.216 160.864 261.316 160.592 261.516C160.32 261.708 160.184 261.968 160.184 262.296ZM166.107 266.628C165.923 266.628 165.735 266.6 165.543 266.544V265.764C165.623 265.78 165.707 265.792 165.795 265.8C165.883 265.808 165.959 265.812 166.023 265.812C166.247 265.812 166.431 265.752 166.575 265.632C166.727 265.512 166.855 265.324 166.959 265.068L167.391 264L165.135 258.144H166.107L167.883 262.956L169.767 258.144H170.739L167.787 265.332C167.659 265.644 167.519 265.896 167.367 266.088C167.215 266.28 167.039 266.416 166.839 266.496C166.639 266.584 166.395 266.628 166.107 266.628ZM173.644 264.12C173.164 264.12 172.72 264.048 172.312 263.904C171.904 263.752 171.556 263.536 171.268 263.256L171.736 262.68C172.088 262.936 172.412 263.124 172.708 263.244C173.004 263.356 173.308 263.412 173.62 263.412C174.044 263.412 174.396 263.312 174.676 263.112C174.956 262.912 175.096 262.656 175.096 262.344C175.096 262.104 175.012 261.916 174.844 261.78C174.684 261.644 174.416 261.54 174.04 261.468L173.08 261.3C172.512 261.196 172.092 261.02 171.82 260.772C171.556 260.524 171.424 260.188 171.424 259.764C171.424 259.428 171.512 259.132 171.688 258.876C171.872 258.62 172.124 258.42 172.444 258.276C172.764 258.124 173.128 258.048 173.536 258.048C173.936 258.048 174.316 258.108 174.676 258.228C175.036 258.34 175.4 258.524 175.768 258.78L175.336 259.392C175.032 259.176 174.728 259.02 174.424 258.924C174.12 258.82 173.812 258.768 173.5 258.768C173.116 258.768 172.808 258.852 172.576 259.02C172.344 259.188 172.228 259.416 172.228 259.704C172.228 259.944 172.3 260.128 172.444 260.256C172.596 260.384 172.86 260.48 173.236 260.544L174.22 260.724C174.812 260.828 175.244 261.008 175.516 261.264C175.788 261.52 175.924 261.864 175.924 262.296C175.924 262.64 175.824 262.952 175.624 263.232C175.424 263.504 175.152 263.72 174.808 263.88C174.464 264.04 174.076 264.12 173.644 264.12ZM180.058 264V258.144H180.934V259.344C181.086 258.936 181.302 258.62 181.582 258.396C181.87 258.164 182.198 258.048 182.566 258.048C182.67 258.048 182.766 258.056 182.854 258.072C182.942 258.08 183.03 258.1 183.118 258.132V258.924C183.022 258.892 182.918 258.868 182.806 258.852C182.702 258.828 182.602 258.816 182.506 258.816C182.146 258.816 181.83 258.92 181.558 259.128C181.294 259.336 181.086 259.628 180.934 260.004V264H180.058ZM186.554 264.12C186.01 264.12 185.518 263.988 185.078 263.724C184.638 263.452 184.29 263.088 184.034 262.632C183.778 262.168 183.65 261.648 183.65 261.072C183.65 260.496 183.77 259.98 184.01 259.524C184.258 259.068 184.59 258.708 185.006 258.444C185.422 258.18 185.886 258.048 186.398 258.048C186.918 258.048 187.378 258.18 187.778 258.444C188.186 258.7 188.506 259.052 188.738 259.5C188.978 259.94 189.098 260.44 189.098 261V261.264H184.502C184.534 261.664 184.642 262.024 184.826 262.344C185.018 262.656 185.266 262.904 185.57 263.088C185.882 263.264 186.222 263.352 186.59 263.352C186.894 263.352 187.186 263.3 187.466 263.196C187.754 263.084 187.998 262.936 188.198 262.752L188.75 263.34C188.414 263.604 188.066 263.8 187.706 263.928C187.346 264.056 186.962 264.12 186.554 264.12ZM184.526 260.64H188.234C188.194 260.288 188.086 259.976 187.91 259.704C187.742 259.424 187.526 259.204 187.262 259.044C187.006 258.884 186.718 258.804 186.398 258.804C186.078 258.804 185.786 258.884 185.522 259.044C185.258 259.196 185.038 259.412 184.862 259.692C184.694 259.964 184.582 260.28 184.526 260.64ZM192.098 264L189.698 258.144H190.646L192.542 262.908L194.414 258.144H195.35L192.938 264H192.098ZM196.417 264V258.144H197.293V264H196.417ZM196.861 256.692C196.685 256.692 196.533 256.632 196.405 256.512C196.285 256.384 196.225 256.236 196.225 256.068C196.225 255.9 196.285 255.756 196.405 255.636C196.533 255.508 196.685 255.444 196.861 255.444C197.037 255.444 197.185 255.508 197.305 255.636C197.433 255.756 197.497 255.9 197.497 256.068C197.497 256.236 197.433 256.384 197.305 256.512C197.185 256.632 197.037 256.692 196.861 256.692ZM201.729 264.12C201.185 264.12 200.693 263.988 200.253 263.724C199.813 263.452 199.465 263.088 199.209 262.632C198.953 262.168 198.825 261.648 198.825 261.072C198.825 260.496 198.945 259.98 199.185 259.524C199.433 259.068 199.765 258.708 200.181 258.444C200.597 258.18 201.061 258.048 201.573 258.048C202.093 258.048 202.553 258.18 202.953 258.444C203.361 258.7 203.681 259.052 203.913 259.5C204.153 259.94 204.273 260.44 204.273 261V261.264H199.677C199.709 261.664 199.817 262.024 200.001 262.344C200.193 262.656 200.441 262.904 200.745 263.088C201.057 263.264 201.397 263.352 201.765 263.352C202.069 263.352 202.361 263.3 202.641 263.196C202.929 263.084 203.173 262.936 203.373 262.752L203.925 263.34C203.589 263.604 203.241 263.8 202.881 263.928C202.521 264.056 202.137 264.12 201.729 264.12ZM199.701 260.64H203.409C203.369 260.288 203.261 259.976 203.085 259.704C202.917 259.424 202.701 259.204 202.437 259.044C202.181 258.884 201.893 258.804 201.573 258.804C201.253 258.804 200.961 258.884 200.697 259.044C200.433 259.196 200.213 259.412 200.037 259.692C199.869 259.964 199.757 260.28 199.701 260.64ZM206.696 264L205.088 258.144H205.94L207.164 262.824L208.568 258.144H209.348L210.752 262.824L211.964 258.144H212.792L211.196 264H210.344L208.952 259.272L207.56 264H206.696ZM216.04 264L219.364 255.6H220.468L223.744 264H222.748L221.752 261.36H218.008L217.012 264H216.04ZM218.296 260.628H221.476L219.88 256.44L218.296 260.628ZM224.91 264V255.6H225.834V264H224.91ZM227.621 261V260.244H231.617V261H227.621ZM236.079 266.628C235.687 266.628 235.291 266.572 234.891 266.46C234.499 266.356 234.135 266.208 233.799 266.016L234.171 265.344C234.531 265.528 234.859 265.664 235.155 265.752C235.451 265.84 235.747 265.884 236.043 265.884C236.579 265.884 236.983 265.756 237.255 265.5C237.535 265.244 237.675 264.872 237.675 264.384V263.208C237.451 263.488 237.179 263.704 236.859 263.856C236.539 264 236.187 264.072 235.803 264.072C235.299 264.072 234.843 263.94 234.435 263.676C234.027 263.404 233.703 263.044 233.463 262.596C233.223 262.14 233.103 261.632 233.103 261.072C233.103 260.512 233.223 260.008 233.463 259.56C233.711 259.104 234.043 258.744 234.459 258.48C234.875 258.208 235.339 258.072 235.851 258.072C236.219 258.072 236.559 258.144 236.871 258.288C237.183 258.424 237.455 258.628 237.687 258.9V258.144H238.551V264.372C238.551 265.1 238.339 265.656 237.915 266.04C237.491 266.432 236.879 266.628 236.079 266.628ZM236.019 263.316C236.363 263.316 236.679 263.248 236.967 263.112C237.255 262.968 237.491 262.772 237.675 262.524V259.632C237.483 259.384 237.239 259.192 236.943 259.056C236.655 258.912 236.347 258.84 236.019 258.84C235.627 258.84 235.275 258.936 234.963 259.128C234.659 259.32 234.415 259.584 234.231 259.92C234.055 260.256 233.967 260.64 233.967 261.072C233.967 261.496 234.055 261.88 234.231 262.224C234.415 262.56 234.659 262.828 234.963 263.028C235.275 263.22 235.627 263.316 236.019 263.316ZM242.991 264.12C242.447 264.12 241.955 263.988 241.515 263.724C241.075 263.452 240.727 263.088 240.471 262.632C240.215 262.168 240.087 261.648 240.087 261.072C240.087 260.496 240.207 259.98 240.447 259.524C240.695 259.068 241.027 258.708 241.443 258.444C241.859 258.18 242.323 258.048 242.835 258.048C243.355 258.048 243.815 258.18 244.215 258.444C244.623 258.7 244.943 259.052 245.175 259.5C245.415 259.94 245.535 260.44 245.535 261V261.264H240.939C240.971 261.664 241.079 262.024 241.263 262.344C241.455 262.656 241.703 262.904 242.007 263.088C242.319 263.264 242.659 263.352 243.027 263.352C243.331 263.352 243.623 263.3 243.903 263.196C244.191 263.084 244.435 262.936 244.635 262.752L245.187 263.34C244.851 263.604 244.503 263.8 244.143 263.928C243.783 264.056 243.399 264.12 242.991 264.12ZM240.963 260.64H244.671C244.631 260.288 244.523 259.976 244.347 259.704C244.179 259.424 243.963 259.204 243.699 259.044C243.443 258.884 243.155 258.804 242.835 258.804C242.515 258.804 242.223 258.884 241.959 259.044C241.695 259.196 241.475 259.412 241.299 259.692C241.131 259.964 241.019 260.28 240.963 260.64ZM247.031 264V258.144H247.907V259.092C248.131 258.74 248.399 258.48 248.711 258.312C249.023 258.136 249.375 258.048 249.767 258.048C250.191 258.048 250.559 258.14 250.871 258.324C251.191 258.5 251.439 258.752 251.615 259.08C251.799 259.4 251.891 259.776 251.891 260.208V264H251.015V260.46C251.015 259.94 250.871 259.532 250.583 259.236C250.303 258.932 249.923 258.78 249.443 258.78C249.123 258.78 248.831 258.856 248.567 259.008C248.303 259.16 248.083 259.384 247.907 259.68V264H247.031ZM256.292 264.12C255.748 264.12 255.256 263.988 254.816 263.724C254.376 263.452 254.028 263.088 253.772 262.632C253.516 262.168 253.388 261.648 253.388 261.072C253.388 260.496 253.508 259.98 253.748 259.524C253.996 259.068 254.328 258.708 254.744 258.444C255.16 258.18 255.624 258.048 256.136 258.048C256.656 258.048 257.116 258.18 257.516 258.444C257.924 258.7 258.244 259.052 258.476 259.5C258.716 259.94 258.836 260.44 258.836 261V261.264H254.24C254.272 261.664 254.38 262.024 254.564 262.344C254.756 262.656 255.004 262.904 255.308 263.088C255.62 263.264 255.96 263.352 256.328 263.352C256.632 263.352 256.924 263.3 257.204 263.196C257.492 263.084 257.736 262.936 257.936 262.752L258.488 263.34C258.152 263.604 257.804 263.8 257.444 263.928C257.084 264.056 256.7 264.12 256.292 264.12ZM254.264 260.64H257.972C257.932 260.288 257.824 259.976 257.648 259.704C257.48 259.424 257.264 259.204 257 259.044C256.744 258.884 256.456 258.804 256.136 258.804C255.816 258.804 255.524 258.884 255.26 259.044C254.996 259.196 254.776 259.412 254.6 259.692C254.432 259.964 254.32 260.28 254.264 260.64ZM260.332 264V258.144H261.208V259.344C261.36 258.936 261.576 258.62 261.856 258.396C262.144 258.164 262.472 258.048 262.84 258.048C262.944 258.048 263.04 258.056 263.128 258.072C263.216 258.08 263.304 258.1 263.392 258.132V258.924C263.296 258.892 263.192 258.868 263.08 258.852C262.976 258.828 262.876 258.816 262.78 258.816C262.42 258.816 262.104 258.92 261.832 259.128C261.568 259.336 261.36 259.628 261.208 260.004V264H260.332ZM266.116 264.108C265.7 264.108 265.332 264.032 265.012 263.88C264.692 263.728 264.44 263.52 264.256 263.256C264.08 262.984 263.992 262.672 263.992 262.32C263.992 261.968 264.084 261.664 264.268 261.408C264.452 261.144 264.708 260.94 265.036 260.796C265.364 260.652 265.748 260.58 266.188 260.58C266.524 260.58 266.84 260.616 267.136 260.688C267.44 260.76 267.72 260.876 267.976 261.036V260.232C267.976 259.752 267.848 259.392 267.592 259.152C267.336 258.904 266.96 258.78 266.464 258.78C266.192 258.78 265.912 258.82 265.624 258.9C265.344 258.98 265.032 259.108 264.688 259.284L264.364 258.612C265.148 258.236 265.884 258.048 266.572 258.048C267.3 258.048 267.86 258.228 268.252 258.588C268.644 258.94 268.84 259.448 268.84 260.112V264H267.976V263.316C267.72 263.58 267.436 263.78 267.124 263.916C266.812 264.044 266.476 264.108 266.116 264.108ZM264.832 262.296C264.832 262.64 264.964 262.916 265.228 263.124C265.5 263.332 265.856 263.436 266.296 263.436C266.624 263.436 266.924 263.38 267.196 263.268C267.476 263.156 267.736 262.988 267.976 262.764V261.636C267.728 261.492 267.472 261.388 267.208 261.324C266.944 261.252 266.648 261.216 266.32 261.216C265.872 261.216 265.512 261.316 265.24 261.516C264.968 261.708 264.832 261.968 264.832 262.296ZM272.677 264.12C272.173 264.12 271.789 264 271.525 263.76C271.269 263.512 271.141 263.156 271.141 262.692V258.864H269.929V258.144H271.141V256.536L272.017 256.332V258.144H273.697V258.864H272.017V262.464C272.017 262.776 272.081 263 272.209 263.136C272.345 263.272 272.565 263.34 272.869 263.34C273.021 263.34 273.157 263.328 273.277 263.304C273.397 263.28 273.537 263.24 273.697 263.184V263.964C273.537 264.02 273.369 264.06 273.193 264.084C273.017 264.108 272.845 264.12 272.677 264.12ZM277.503 264.12C276.959 264.12 276.467 263.988 276.027 263.724C275.587 263.452 275.239 263.088 274.983 262.632C274.727 262.168 274.599 261.648 274.599 261.072C274.599 260.496 274.719 259.98 274.959 259.524C275.207 259.068 275.539 258.708 275.955 258.444C276.371 258.18 276.835 258.048 277.347 258.048C277.867 258.048 278.327 258.18 278.727 258.444C279.135 258.7 279.455 259.052 279.687 259.5C279.927 259.94 280.047 260.44 280.047 261V261.264H275.451C275.483 261.664 275.591 262.024 275.775 262.344C275.967 262.656 276.215 262.904 276.519 263.088C276.831 263.264 277.171 263.352 277.539 263.352C277.843 263.352 278.135 263.3 278.415 263.196C278.703 263.084 278.947 262.936 279.147 262.752L279.699 263.34C279.363 263.604 279.015 263.8 278.655 263.928C278.295 264.056 277.911 264.12 277.503 264.12ZM275.475 260.64H279.183C279.143 260.288 279.035 259.976 278.859 259.704C278.691 259.424 278.475 259.204 278.211 259.044C277.955 258.884 277.667 258.804 277.347 258.804C277.027 258.804 276.735 258.884 276.471 259.044C276.207 259.196 275.987 259.412 275.811 259.692C275.643 259.964 275.531 260.28 275.475 260.64ZM283.979 264.084C283.475 264.084 283.019 263.952 282.611 263.688C282.203 263.416 281.879 263.056 281.639 262.608C281.399 262.152 281.279 261.644 281.279 261.084C281.279 260.516 281.399 260.008 281.639 259.56C281.887 259.104 282.219 258.744 282.635 258.48C283.051 258.208 283.515 258.072 284.027 258.072C284.387 258.072 284.723 258.144 285.035 258.288C285.347 258.424 285.619 258.624 285.851 258.888V255.336L286.727 255.156V264H285.851V263.22C285.627 263.5 285.355 263.716 285.035 263.868C284.715 264.012 284.363 264.084 283.979 264.084ZM284.195 263.316C284.539 263.316 284.855 263.248 285.143 263.112C285.431 262.976 285.667 262.784 285.851 262.536V259.632C285.659 259.384 285.415 259.192 285.119 259.056C284.831 258.912 284.523 258.84 284.195 258.84C283.803 258.84 283.451 258.936 283.139 259.128C282.835 259.32 282.591 259.584 282.407 259.92C282.231 260.256 282.143 260.64 282.143 261.072C282.143 261.496 282.231 261.88 282.407 262.224C282.591 262.56 282.835 262.828 283.139 263.028C283.451 263.22 283.803 263.316 284.195 263.316ZM293.956 264.096C293.412 264.096 292.92 263.964 292.48 263.7C292.048 263.428 291.704 263.064 291.448 262.608C291.192 262.144 291.064 261.632 291.064 261.072C291.064 260.504 291.192 259.992 291.448 259.536C291.704 259.08 292.048 258.72 292.48 258.456C292.92 258.184 293.412 258.048 293.956 258.048C294.388 258.048 294.8 258.128 295.192 258.288C295.584 258.448 295.924 258.672 296.212 258.96L295.648 259.572C295.44 259.34 295.188 259.16 294.892 259.032C294.596 258.904 294.296 258.84 293.992 258.84C293.608 258.84 293.26 258.94 292.948 259.14C292.644 259.34 292.4 259.608 292.216 259.944C292.032 260.28 291.94 260.656 291.94 261.072C291.94 261.488 292.032 261.864 292.216 262.2C292.4 262.536 292.644 262.804 292.948 263.004C293.26 263.204 293.608 263.304 293.992 263.304C294.296 263.304 294.596 263.24 294.892 263.112C295.188 262.976 295.44 262.796 295.648 262.572L296.212 263.184C295.924 263.472 295.584 263.696 295.192 263.856C294.8 264.016 294.388 264.096 293.956 264.096ZM299.849 264.096C299.305 264.096 298.817 263.964 298.385 263.7C297.953 263.436 297.613 263.076 297.365 262.62C297.117 262.164 296.993 261.648 296.993 261.072C296.993 260.496 297.117 259.98 297.365 259.524C297.613 259.068 297.953 258.708 298.385 258.444C298.817 258.18 299.305 258.048 299.849 258.048C300.385 258.048 300.865 258.18 301.289 258.444C301.721 258.708 302.061 259.068 302.309 259.524C302.557 259.98 302.681 260.496 302.681 261.072C302.681 261.648 302.557 262.164 302.309 262.62C302.061 263.076 301.721 263.436 301.289 263.7C300.865 263.964 300.385 264.096 299.849 264.096ZM299.837 263.328C300.221 263.328 300.561 263.232 300.857 263.04C301.153 262.84 301.385 262.568 301.553 262.224C301.729 261.88 301.817 261.496 301.817 261.072C301.817 260.64 301.729 260.256 301.553 259.92C301.385 259.576 301.153 259.308 300.857 259.116C300.561 258.916 300.221 258.816 299.837 258.816C299.453 258.816 299.113 258.916 298.817 259.116C298.521 259.308 298.285 259.576 298.109 259.92C297.941 260.256 297.857 260.64 297.857 261.072C297.857 261.496 297.941 261.88 298.109 262.224C298.285 262.568 298.521 262.84 298.817 263.04C299.113 263.232 299.453 263.328 299.837 263.328ZM304.218 264V258.144H305.094V259.092C305.318 258.74 305.586 258.48 305.898 258.312C306.21 258.136 306.562 258.048 306.954 258.048C307.378 258.048 307.746 258.14 308.058 258.324C308.378 258.5 308.626 258.752 308.802 259.08C308.986 259.4 309.078 259.776 309.078 260.208V264H308.202V260.46C308.202 259.94 308.058 259.532 307.77 259.236C307.49 258.932 307.11 258.78 306.63 258.78C306.31 258.78 306.018 258.856 305.754 259.008C305.49 259.16 305.27 259.384 305.094 259.68V264H304.218ZM312.896 264.12C312.392 264.12 312.008 264 311.744 263.76C311.488 263.512 311.36 263.156 311.36 262.692V258.864H310.148V258.144H311.36V256.536L312.236 256.332V258.144H313.916V258.864H312.236V262.464C312.236 262.776 312.3 263 312.428 263.136C312.564 263.272 312.784 263.34 313.088 263.34C313.24 263.34 313.376 263.328 313.496 263.304C313.616 263.28 313.756 263.24 313.916 263.184V263.964C313.756 264.02 313.588 264.06 313.412 264.084C313.236 264.108 313.064 264.12 312.896 264.12ZM317.722 264.12C317.178 264.12 316.686 263.988 316.246 263.724C315.806 263.452 315.458 263.088 315.202 262.632C314.946 262.168 314.818 261.648 314.818 261.072C314.818 260.496 314.938 259.98 315.178 259.524C315.426 259.068 315.758 258.708 316.174 258.444C316.59 258.18 317.054 258.048 317.566 258.048C318.086 258.048 318.546 258.18 318.946 258.444C319.354 258.7 319.674 259.052 319.906 259.5C320.146 259.94 320.266 260.44 320.266 261V261.264H315.67C315.702 261.664 315.81 262.024 315.994 262.344C316.186 262.656 316.434 262.904 316.738 263.088C317.05 263.264 317.39 263.352 317.758 263.352C318.062 263.352 318.354 263.3 318.634 263.196C318.922 263.084 319.166 262.936 319.366 262.752L319.918 263.34C319.582 263.604 319.234 263.8 318.874 263.928C318.514 264.056 318.13 264.12 317.722 264.12ZM315.694 260.64H319.402C319.362 260.288 319.254 259.976 319.078 259.704C318.91 259.424 318.694 259.204 318.43 259.044C318.174 258.884 317.886 258.804 317.566 258.804C317.246 258.804 316.954 258.884 316.69 259.044C316.426 259.196 316.206 259.412 316.03 259.692C315.862 259.964 315.75 260.28 315.694 260.64ZM321.761 264V258.144H322.637V259.092C322.861 258.74 323.129 258.48 323.441 258.312C323.753 258.136 324.105 258.048 324.497 258.048C324.921 258.048 325.289 258.14 325.601 258.324C325.921 258.5 326.169 258.752 326.345 259.08C326.529 259.4 326.621 259.776 326.621 260.208V264H325.745V260.46C325.745 259.94 325.601 259.532 325.313 259.236C325.033 258.932 324.653 258.78 324.173 258.78C323.853 258.78 323.561 258.856 323.297 259.008C323.033 259.16 322.813 259.384 322.637 259.68V264H321.761ZM330.439 264.12C329.935 264.12 329.551 264 329.287 263.76C329.031 263.512 328.903 263.156 328.903 262.692V258.864H327.691V258.144H328.903V256.536L329.779 256.332V258.144H331.459V258.864H329.779V262.464C329.779 262.776 329.843 263 329.971 263.136C330.107 263.272 330.327 263.34 330.631 263.34C330.783 263.34 330.919 263.328 331.039 263.304C331.159 263.28 331.299 263.24 331.459 263.184V263.964C331.299 264.02 331.131 264.06 330.955 264.084C330.779 264.108 330.607 264.12 330.439 264.12ZM335.543 266.508V258.144H336.407V258.984C336.631 258.688 336.903 258.464 337.223 258.312C337.551 258.152 337.911 258.072 338.303 258.072C338.815 258.072 339.271 258.208 339.671 258.48C340.079 258.744 340.403 259.104 340.643 259.56C340.883 260.008 341.003 260.512 341.003 261.072C341.003 261.632 340.879 262.14 340.631 262.596C340.391 263.052 340.063 263.416 339.647 263.688C339.239 263.952 338.775 264.084 338.255 264.084C337.887 264.084 337.547 264.016 337.235 263.88C336.923 263.736 336.651 263.532 336.419 263.268V266.508H335.543ZM338.087 263.328C338.479 263.328 338.827 263.232 339.131 263.04C339.443 262.84 339.687 262.572 339.863 262.236C340.047 261.892 340.139 261.508 340.139 261.084C340.139 260.652 340.047 260.268 339.863 259.932C339.687 259.596 339.443 259.332 339.131 259.14C338.827 258.94 338.479 258.84 338.087 258.84C337.743 258.84 337.423 258.912 337.127 259.056C336.839 259.192 336.603 259.388 336.419 259.644V262.512C336.611 262.768 336.851 262.968 337.139 263.112C337.435 263.256 337.751 263.328 338.087 263.328ZM342.539 264V258.144H343.415V259.344C343.567 258.936 343.783 258.62 344.063 258.396C344.351 258.164 344.679 258.048 345.047 258.048C345.151 258.048 345.247 258.056 345.335 258.072C345.423 258.08 345.511 258.1 345.599 258.132V258.924C345.503 258.892 345.399 258.868 345.287 258.852C345.183 258.828 345.083 258.816 344.987 258.816C344.627 258.816 344.311 258.92 344.039 259.128C343.775 259.336 343.567 259.628 343.415 260.004V264H342.539ZM346.745 264V258.144H347.621V264H346.745ZM347.189 256.692C347.013 256.692 346.861 256.632 346.733 256.512C346.613 256.384 346.553 256.236 346.553 256.068C346.553 255.9 346.613 255.756 346.733 255.636C346.861 255.508 347.013 255.444 347.189 255.444C347.365 255.444 347.513 255.508 347.633 255.636C347.761 255.756 347.825 255.9 347.825 256.068C347.825 256.236 347.761 256.384 347.633 256.512C347.513 256.632 347.365 256.692 347.189 256.692ZM352.01 264.096C351.466 264.096 350.978 263.964 350.546 263.7C350.114 263.436 349.774 263.076 349.526 262.62C349.278 262.164 349.154 261.648 349.154 261.072C349.154 260.496 349.278 259.98 349.526 259.524C349.774 259.068 350.114 258.708 350.546 258.444C350.978 258.18 351.466 258.048 352.01 258.048C352.546 258.048 353.026 258.18 353.45 258.444C353.882 258.708 354.222 259.068 354.47 259.524C354.718 259.98 354.842 260.496 354.842 261.072C354.842 261.648 354.718 262.164 354.47 262.62C354.222 263.076 353.882 263.436 353.45 263.7C353.026 263.964 352.546 264.096 352.01 264.096ZM351.998 263.328C352.382 263.328 352.722 263.232 353.018 263.04C353.314 262.84 353.546 262.568 353.714 262.224C353.89 261.88 353.978 261.496 353.978 261.072C353.978 260.64 353.89 260.256 353.714 259.92C353.546 259.576 353.314 259.308 353.018 259.116C352.722 258.916 352.382 258.816 351.998 258.816C351.614 258.816 351.274 258.916 350.978 259.116C350.682 259.308 350.446 259.576 350.27 259.92C350.102 260.256 350.018 260.64 350.018 261.072C350.018 261.496 350.102 261.88 350.27 262.224C350.446 262.568 350.682 262.84 350.978 263.04C351.274 263.232 351.614 263.328 351.998 263.328ZM356.379 264V258.144H357.255V259.344C357.407 258.936 357.623 258.62 357.903 258.396C358.191 258.164 358.519 258.048 358.887 258.048C358.991 258.048 359.087 258.056 359.175 258.072C359.263 258.08 359.351 258.1 359.439 258.132V258.924C359.343 258.892 359.239 258.868 359.127 258.852C359.023 258.828 358.923 258.816 358.827 258.816C358.467 258.816 358.151 258.92 357.879 259.128C357.615 259.336 357.407 259.628 357.255 260.004V264H356.379ZM365.63 264.12C365.126 264.12 364.742 264 364.478 263.76C364.222 263.512 364.094 263.156 364.094 262.692V258.864H362.882V258.144H364.094V256.536L364.97 256.332V258.144H366.65V258.864H364.97V262.464C364.97 262.776 365.034 263 365.162 263.136C365.298 263.272 365.518 263.34 365.822 263.34C365.974 263.34 366.11 263.328 366.23 263.304C366.35 263.28 366.49 263.24 366.65 263.184V263.964C366.49 264.02 366.322 264.06 366.146 264.084C365.97 264.108 365.798 264.12 365.63 264.12ZM370.408 264.096C369.864 264.096 369.376 263.964 368.944 263.7C368.512 263.436 368.172 263.076 367.924 262.62C367.676 262.164 367.552 261.648 367.552 261.072C367.552 260.496 367.676 259.98 367.924 259.524C368.172 259.068 368.512 258.708 368.944 258.444C369.376 258.18 369.864 258.048 370.408 258.048C370.944 258.048 371.424 258.18 371.848 258.444C372.28 258.708 372.62 259.068 372.868 259.524C373.116 259.98 373.24 260.496 373.24 261.072C373.24 261.648 373.116 262.164 372.868 262.62C372.62 263.076 372.28 263.436 371.848 263.7C371.424 263.964 370.944 264.096 370.408 264.096ZM370.396 263.328C370.78 263.328 371.12 263.232 371.416 263.04C371.712 262.84 371.944 262.568 372.112 262.224C372.288 261.88 372.376 261.496 372.376 261.072C372.376 260.64 372.288 260.256 372.112 259.92C371.944 259.576 371.712 259.308 371.416 259.116C371.12 258.916 370.78 258.816 370.396 258.816C370.012 258.816 369.672 258.916 369.376 259.116C369.08 259.308 368.844 259.576 368.668 259.92C368.5 260.256 368.416 260.64 368.416 261.072C368.416 261.496 368.5 261.88 368.668 262.224C368.844 262.568 369.08 262.84 369.376 263.04C369.672 263.232 370.012 263.328 370.396 263.328ZM379.666 264.096C379.25 264.096 378.882 264.004 378.562 263.82C378.242 263.636 377.99 263.38 377.806 263.052C377.63 262.724 377.542 262.348 377.542 261.924V258.144H378.43V261.672C378.43 262.192 378.57 262.604 378.85 262.908C379.13 263.212 379.51 263.364 379.99 263.364C380.318 263.364 380.61 263.288 380.866 263.136C381.13 262.984 381.35 262.764 381.526 262.476V258.144H382.402V264H381.526V263.052C381.302 263.396 381.034 263.656 380.722 263.832C380.418 264.008 380.066 264.096 379.666 264.096ZM386.011 264.12C385.531 264.12 385.087 264.048 384.679 263.904C384.271 263.752 383.923 263.536 383.635 263.256L384.103 262.68C384.455 262.936 384.779 263.124 385.075 263.244C385.371 263.356 385.675 263.412 385.987 263.412C386.411 263.412 386.763 263.312 387.043 263.112C387.323 262.912 387.463 262.656 387.463 262.344C387.463 262.104 387.379 261.916 387.211 261.78C387.051 261.644 386.783 261.54 386.407 261.468L385.447 261.3C384.879 261.196 384.459 261.02 384.187 260.772C383.923 260.524 383.791 260.188 383.791 259.764C383.791 259.428 383.879 259.132 384.055 258.876C384.239 258.62 384.491 258.42 384.811 258.276C385.131 258.124 385.495 258.048 385.903 258.048C386.303 258.048 386.683 258.108 387.043 258.228C387.403 258.34 387.767 258.524 388.135 258.78L387.703 259.392C387.399 259.176 387.095 259.02 386.791 258.924C386.487 258.82 386.179 258.768 385.867 258.768C385.483 258.768 385.175 258.852 384.943 259.02C384.711 259.188 384.595 259.416 384.595 259.704C384.595 259.944 384.667 260.128 384.811 260.256C384.963 260.384 385.227 260.48 385.603 260.544L386.587 260.724C387.179 260.828 387.611 261.008 387.883 261.264C388.155 261.52 388.291 261.864 388.291 262.296C388.291 262.64 388.191 262.952 387.991 263.232C387.791 263.504 387.519 263.72 387.175 263.88C386.831 264.04 386.443 264.12 386.011 264.12ZM392.323 264.12C391.779 264.12 391.287 263.988 390.847 263.724C390.407 263.452 390.059 263.088 389.803 262.632C389.547 262.168 389.419 261.648 389.419 261.072C389.419 260.496 389.539 259.98 389.779 259.524C390.027 259.068 390.359 258.708 390.775 258.444C391.191 258.18 391.655 258.048 392.167 258.048C392.687 258.048 393.147 258.18 393.547 258.444C393.955 258.7 394.275 259.052 394.507 259.5C394.747 259.94 394.867 260.44 394.867 261V261.264H390.271C390.303 261.664 390.411 262.024 390.595 262.344C390.787 262.656 391.035 262.904 391.339 263.088C391.651 263.264 391.991 263.352 392.359 263.352C392.663 263.352 392.955 263.3 393.235 263.196C393.523 263.084 393.767 262.936 393.967 262.752L394.519 263.34C394.183 263.604 393.835 263.8 393.475 263.928C393.115 264.056 392.731 264.12 392.323 264.12ZM390.295 260.64H394.003C393.963 260.288 393.855 259.976 393.679 259.704C393.511 259.424 393.295 259.204 393.031 259.044C392.775 258.884 392.487 258.804 392.167 258.804C391.847 258.804 391.555 258.884 391.291 259.044C391.027 259.196 390.807 259.412 390.631 259.692C390.463 259.964 390.351 260.28 390.295 260.64ZM396.658 264.096C396.482 264.096 396.33 264.032 396.202 263.904C396.082 263.776 396.022 263.624 396.022 263.448C396.022 263.264 396.082 263.112 396.202 262.992C396.33 262.864 396.482 262.8 396.658 262.8C396.834 262.8 396.982 262.864 397.102 262.992C397.23 263.112 397.294 263.264 397.294 263.448C397.294 263.624 397.23 263.776 397.102 263.904C396.982 264.032 396.834 264.096 396.658 264.096Z" fill="#151515"/>
</g>
</g>
</g>
<defs>
<filter id="filter0_d_334_52239" x="9" y="-365" width="520" height="680" filterUnits="userSpaceOnUse" color-interpolation-filters="sRGB">
<feFlood flood-opacity="0" result="BackgroundImageFix"/>
<feColorMatrix in="SourceAlpha" type="matrix" values="0 0 0 0 0 0 0 0 0 0 0 0 0 0 0 0 0 0 127 0" result="hardAlpha"/>
<feOffset dy="10"/>
<feGaussianBlur stdDeviation="10"/>
<feColorMatrix type="matrix" values="0 0 0 0 0.160784 0 0 0 0 0.160784 0 0 0 0 0.160784 0 0 0 0.15 0"/>
<feBlend mode="normal" in2="BackgroundImageFix" result="effect1_dropShadow_334_52239"/>
<feBlend mode="normal" in="SourceGraphic" in2="effect1_dropShadow_334_52239" result="shape"/>
</filter>
<clipPath id="clip0_334_52239">
<rect width="539" height="315" fill="white"/>
</clipPath>
<clipPath id="clip1_334_52239">
<path d="M29 -339C29 -347.837 36.1634 -355 45 -355H493C501.837 -355 509 -347.837 509 -339V269C509 277.837 501.837 285 493 285H45C36.1635 285 29 277.837 29 269V-339Z" fill="white"/>
</clipPath>
<clipPath id="clip2_334_52239">
<rect width="16" height="12.8" fill="white" transform="translate(73 63.1555)"/>
</clipPath>
</defs>
</svg>
