<svg width="1078" height="501" viewBox="0 0 1078 501" fill="none" xmlns="http://www.w3.org/2000/svg">
<g clip-path="url(#clip0_329_51763)">
<g clip-path="url(#clip1_329_51763)">
<rect width="1078" height="501" fill="#F2F2F2"/>
<rect width="1500" height="69" fill="#F2F2F2"/>
<path d="M54.6426 42.6426C55.116 42.6426 55.5 43.0266 55.5 43.5V45.6426C55.5 46.116 55.116 46.5 54.6426 46.5H32.3574C31.884 46.5 31.5 46.116 31.5 45.6426V43.5C31.5 43.0266 31.884 42.6426 32.3574 42.6426H54.6426ZM54.6426 34.0713C55.116 34.0713 55.5 34.4553 55.5 34.9287V37.0713C55.5 37.5447 55.116 37.9287 54.6426 37.9287H32.3574C31.884 37.9287 31.5 37.5447 31.5 37.0713V34.9287C31.5 34.4553 31.884 34.0713 32.3574 34.0713H54.6426ZM54.6426 25.5C55.116 25.5 55.5 25.884 55.5 26.3574V28.5C55.5 28.9734 55.116 29.3574 54.6426 29.3574H32.3574C31.884 29.3574 31.5 28.9734 31.5 28.5V26.3574C31.5 25.884 31.884 25.5 32.3574 25.5H54.6426Z" fill="#1F1F1F"/>
<path fill-rule="evenodd" clip-rule="evenodd" d="M91.4783 16H114V38.5217H111.587C100.481 38.5217 91.4783 29.5188 91.4783 18.413V16Z" fill="#0066CC"/>
<path fill-rule="evenodd" clip-rule="evenodd" d="M114 16.8044L92.2827 53.0001H109.317C111.903 53.0001 114 50.9032 114 48.3166V16.8044Z" fill="url(#paint0_linear_329_51763)"/>
<path fill-rule="evenodd" clip-rule="evenodd" d="M113.196 15.9999L76.9999 37.7173V20.6834C76.9999 18.0968 79.0968 15.9999 81.6834 15.9999L113.196 15.9999Z" fill="url(#paint1_linear_329_51763)"/>
<g clip-path="url(#clip2_329_51763)">
<path d="M24 85C24 76.1634 31.1634 69 40 69H1045C1053.84 69 1061 76.1634 1061 85V475C1061 483.837 1053.84 491 1045 491H40C31.1635 491 24 483.837 24 475V85Z" fill="white"/>
<path d="M32 155C32 146.163 39.1634 139 48 139H1038C1046.84 139 1054 146.163 1054 155V469C1054 477.837 1046.84 485 1038 485H48C39.1634 485 32 477.837 32 469V155Z" fill="#F2F2F2"/>
<path d="M67 406C67 388.327 81.3269 374 99 374H995C1012.67 374 1027 388.327 1027 406C1027 423.673 1012.67 438 995 438H99C81.3269 438 67 423.673 67 406Z" fill="white"/>
<path d="M96.04 412.176C95.1653 412.176 94.3547 412.021 93.608 411.712C92.8613 411.392 92.1413 410.912 91.448 410.272L92.2 409.376C92.872 410.005 93.5013 410.453 94.088 410.72C94.6853 410.987 95.3467 411.12 96.072 411.12C96.648 411.12 97.16 411.024 97.608 410.832C98.0667 410.629 98.424 410.357 98.68 410.016C98.936 409.675 99.064 409.285 99.064 408.848C99.064 408.283 98.8773 407.856 98.504 407.568C98.1307 407.269 97.4853 407.04 96.568 406.88L94.76 406.576C93.736 406.395 92.984 406.085 92.504 405.648C92.0347 405.2 91.8 404.603 91.8 403.856C91.8 403.227 91.96 402.672 92.28 402.192C92.6107 401.701 93.064 401.317 93.64 401.04C94.216 400.763 94.8827 400.624 95.64 400.624C96.472 400.624 97.2453 400.741 97.96 400.976C98.6747 401.2 99.3787 401.557 100.072 402.048L99.432 403.008C98.856 402.571 98.248 402.24 97.608 402.016C96.968 401.781 96.3173 401.664 95.656 401.664C95.1333 401.664 94.6693 401.755 94.264 401.936C93.8693 402.117 93.5547 402.363 93.32 402.672C93.096 402.981 92.984 403.333 92.984 403.728C92.984 404.219 93.1493 404.603 93.48 404.88C93.8107 405.157 94.3493 405.355 95.096 405.472L96.888 405.776C98.0827 405.989 98.9467 406.336 99.48 406.816C100.024 407.285 100.296 407.941 100.296 408.784C100.296 409.435 100.109 410.016 99.736 410.528C99.3733 411.04 98.872 411.445 98.232 411.744C97.592 412.032 96.8613 412.176 96.04 412.176ZM105.845 412.16C105.12 412.16 104.464 411.984 103.877 411.632C103.29 411.269 102.826 410.784 102.485 410.176C102.144 409.557 101.973 408.864 101.973 408.096C101.973 407.328 102.133 406.64 102.453 406.032C102.784 405.424 103.226 404.944 103.781 404.592C104.336 404.24 104.954 404.064 105.637 404.064C106.33 404.064 106.944 404.24 107.477 404.592C108.021 404.933 108.448 405.403 108.757 406C109.077 406.587 109.237 407.253 109.237 408V408.352H103.109C103.152 408.885 103.296 409.365 103.541 409.792C103.797 410.208 104.128 410.539 104.533 410.784C104.949 411.019 105.402 411.136 105.893 411.136C106.298 411.136 106.688 411.067 107.061 410.928C107.445 410.779 107.77 410.581 108.037 410.336L108.773 411.12C108.325 411.472 107.861 411.733 107.381 411.904C106.901 412.075 106.389 412.16 105.845 412.16ZM103.141 407.52H108.085C108.032 407.051 107.888 406.635 107.653 406.272C107.429 405.899 107.141 405.605 106.789 405.392C106.448 405.179 106.064 405.072 105.637 405.072C105.21 405.072 104.821 405.179 104.469 405.392C104.117 405.595 103.824 405.883 103.589 406.256C103.365 406.619 103.216 407.04 103.141 407.52ZM111.231 412V404.192H112.399V405.456C112.698 404.987 113.055 404.64 113.471 404.416C113.887 404.181 114.357 404.064 114.879 404.064C115.445 404.064 115.935 404.187 116.351 404.432C116.778 404.667 117.109 405.003 117.343 405.44C117.589 405.867 117.711 406.368 117.711 406.944V412H116.543V407.28C116.543 406.587 116.351 406.043 115.967 405.648C115.594 405.243 115.087 405.04 114.447 405.04C114.021 405.04 113.631 405.141 113.279 405.344C112.927 405.547 112.634 405.845 112.399 406.24V412H111.231ZM123.307 412.112C122.635 412.112 122.027 411.936 121.483 411.584C120.939 411.221 120.507 410.741 120.187 410.144C119.867 409.536 119.707 408.859 119.707 408.112C119.707 407.355 119.867 406.677 120.187 406.08C120.518 405.472 120.961 404.992 121.515 404.64C122.07 404.277 122.689 404.096 123.371 404.096C123.851 404.096 124.299 404.192 124.715 404.384C125.131 404.565 125.494 404.832 125.803 405.184V400.448L126.971 400.208V412H125.803V410.96C125.505 411.333 125.142 411.621 124.715 411.824C124.289 412.016 123.819 412.112 123.307 412.112ZM123.595 411.088C124.054 411.088 124.475 410.997 124.859 410.816C125.243 410.635 125.558 410.379 125.803 410.048V406.176C125.547 405.845 125.222 405.589 124.827 405.408C124.443 405.216 124.033 405.12 123.595 405.12C123.073 405.12 122.603 405.248 122.187 405.504C121.782 405.76 121.457 406.112 121.211 406.56C120.977 407.008 120.859 407.52 120.859 408.096C120.859 408.661 120.977 409.173 121.211 409.632C121.457 410.08 121.782 410.437 122.187 410.704C122.603 410.96 123.073 411.088 123.595 411.088ZM135.522 412.144C134.968 412.144 134.477 412.043 134.05 411.84C133.624 411.637 133.288 411.36 133.042 411.008C132.808 410.645 132.69 410.229 132.69 409.76C132.69 409.291 132.813 408.885 133.058 408.544C133.304 408.192 133.645 407.92 134.082 407.728C134.52 407.536 135.032 407.44 135.618 407.44C136.066 407.44 136.488 407.488 136.882 407.584C137.288 407.68 137.661 407.835 138.002 408.048V406.976C138.002 406.336 137.832 405.856 137.49 405.536C137.149 405.205 136.648 405.04 135.986 405.04C135.624 405.04 135.25 405.093 134.866 405.2C134.493 405.307 134.077 405.477 133.618 405.712L133.186 404.816C134.232 404.315 135.213 404.064 136.13 404.064C137.101 404.064 137.848 404.304 138.37 404.784C138.893 405.253 139.154 405.931 139.154 406.816V412H138.002V411.088C137.661 411.44 137.282 411.707 136.866 411.888C136.45 412.059 136.002 412.144 135.522 412.144ZM133.81 409.728C133.81 410.187 133.986 410.555 134.338 410.832C134.701 411.109 135.176 411.248 135.762 411.248C136.2 411.248 136.6 411.173 136.962 411.024C137.336 410.875 137.682 410.651 138.002 410.352V408.848C137.672 408.656 137.33 408.517 136.978 408.432C136.626 408.336 136.232 408.288 135.794 408.288C135.197 408.288 134.717 408.421 134.354 408.688C133.992 408.944 133.81 409.291 133.81 409.728ZM145.263 412V404.192H146.431V405.408C146.729 404.96 147.071 404.624 147.455 404.4C147.839 404.176 148.271 404.064 148.751 404.064C149.305 404.064 149.791 404.203 150.207 404.48C150.623 404.747 150.937 405.115 151.151 405.584C151.46 405.083 151.828 404.704 152.255 404.448C152.692 404.192 153.193 404.064 153.759 404.064C154.281 404.064 154.74 404.187 155.135 404.432C155.54 404.677 155.855 405.019 156.079 405.456C156.303 405.883 156.415 406.384 156.415 406.96V412H155.247V407.248C155.247 406.565 155.076 406.027 154.735 405.632C154.393 405.237 153.924 405.04 153.327 405.04C152.921 405.04 152.553 405.141 152.223 405.344C151.903 405.547 151.62 405.856 151.375 406.272C151.396 406.379 151.412 406.491 151.423 406.608C151.433 406.725 151.439 406.843 151.439 406.96V412H150.271V407.248C150.271 406.565 150.095 406.027 149.743 405.632C149.401 405.237 148.932 405.04 148.335 405.04C147.535 405.04 146.9 405.424 146.431 406.192V412H145.263ZM162.298 412.16C161.573 412.16 160.917 411.984 160.33 411.632C159.743 411.269 159.279 410.784 158.938 410.176C158.597 409.557 158.426 408.864 158.426 408.096C158.426 407.328 158.586 406.64 158.906 406.032C159.237 405.424 159.679 404.944 160.234 404.592C160.789 404.24 161.407 404.064 162.09 404.064C162.783 404.064 163.397 404.24 163.93 404.592C164.474 404.933 164.901 405.403 165.21 406C165.53 406.587 165.69 407.253 165.69 408V408.352H159.562C159.605 408.885 159.749 409.365 159.994 409.792C160.25 410.208 160.581 410.539 160.986 410.784C161.402 411.019 161.855 411.136 162.346 411.136C162.751 411.136 163.141 411.067 163.514 410.928C163.898 410.779 164.223 410.581 164.49 410.336L165.226 411.12C164.778 411.472 164.314 411.733 163.834 411.904C163.354 412.075 162.842 412.16 162.298 412.16ZM159.594 407.52H164.538C164.485 407.051 164.341 406.635 164.106 406.272C163.882 405.899 163.594 405.605 163.242 405.392C162.901 405.179 162.517 405.072 162.09 405.072C161.663 405.072 161.274 405.179 160.922 405.392C160.57 405.595 160.277 405.883 160.042 406.256C159.818 406.619 159.669 407.04 159.594 407.52ZM170.179 412.16C169.539 412.16 168.947 412.064 168.403 411.872C167.859 411.669 167.395 411.381 167.011 411.008L167.635 410.24C168.104 410.581 168.536 410.832 168.931 410.992C169.325 411.141 169.731 411.216 170.147 411.216C170.712 411.216 171.181 411.083 171.555 410.816C171.928 410.549 172.115 410.208 172.115 409.792C172.115 409.472 172.003 409.221 171.779 409.04C171.565 408.859 171.208 408.72 170.707 408.624L169.427 408.4C168.669 408.261 168.109 408.027 167.747 407.696C167.395 407.365 167.219 406.917 167.219 406.352C167.219 405.904 167.336 405.509 167.571 405.168C167.816 404.827 168.152 404.56 168.579 404.368C169.005 404.165 169.491 404.064 170.035 404.064C170.568 404.064 171.075 404.144 171.555 404.304C172.035 404.453 172.52 404.699 173.011 405.04L172.435 405.856C172.029 405.568 171.624 405.36 171.219 405.232C170.813 405.093 170.403 405.024 169.987 405.024C169.475 405.024 169.064 405.136 168.755 405.36C168.445 405.584 168.291 405.888 168.291 406.272C168.291 406.592 168.387 406.837 168.579 407.008C168.781 407.179 169.133 407.307 169.635 407.392L170.947 407.632C171.736 407.771 172.312 408.011 172.675 408.352C173.037 408.693 173.219 409.152 173.219 409.728C173.219 410.187 173.085 410.603 172.819 410.976C172.552 411.339 172.189 411.627 171.731 411.84C171.272 412.053 170.755 412.16 170.179 412.16ZM177.413 412.16C176.773 412.16 176.181 412.064 175.637 411.872C175.093 411.669 174.629 411.381 174.245 411.008L174.869 410.24C175.338 410.581 175.77 410.832 176.165 410.992C176.56 411.141 176.965 411.216 177.381 411.216C177.946 411.216 178.416 411.083 178.789 410.816C179.162 410.549 179.349 410.208 179.349 409.792C179.349 409.472 179.237 409.221 179.013 409.04C178.8 408.859 178.442 408.72 177.941 408.624L176.661 408.4C175.904 408.261 175.344 408.027 174.981 407.696C174.629 407.365 174.453 406.917 174.453 406.352C174.453 405.904 174.57 405.509 174.805 405.168C175.05 404.827 175.386 404.56 175.813 404.368C176.24 404.165 176.725 404.064 177.269 404.064C177.802 404.064 178.309 404.144 178.789 404.304C179.269 404.453 179.754 404.699 180.245 405.04L179.669 405.856C179.264 405.568 178.858 405.36 178.453 405.232C178.048 405.093 177.637 405.024 177.221 405.024C176.709 405.024 176.298 405.136 175.989 405.36C175.68 405.584 175.525 405.888 175.525 406.272C175.525 406.592 175.621 406.837 175.813 407.008C176.016 407.179 176.368 407.307 176.869 407.392L178.181 407.632C178.97 407.771 179.546 408.011 179.909 408.352C180.272 408.693 180.453 409.152 180.453 409.728C180.453 410.187 180.32 410.603 180.053 410.976C179.786 411.339 179.424 411.627 178.965 411.84C178.506 412.053 177.989 412.16 177.413 412.16ZM184.725 412.144C184.171 412.144 183.68 412.043 183.253 411.84C182.827 411.637 182.491 411.36 182.245 411.008C182.011 410.645 181.893 410.229 181.893 409.76C181.893 409.291 182.016 408.885 182.261 408.544C182.507 408.192 182.848 407.92 183.285 407.728C183.723 407.536 184.235 407.44 184.821 407.44C185.269 407.44 185.691 407.488 186.085 407.584C186.491 407.68 186.864 407.835 187.205 408.048V406.976C187.205 406.336 187.035 405.856 186.693 405.536C186.352 405.205 185.851 405.04 185.189 405.04C184.827 405.04 184.453 405.093 184.069 405.2C183.696 405.307 183.28 405.477 182.821 405.712L182.389 404.816C183.435 404.315 184.416 404.064 185.333 404.064C186.304 404.064 187.051 404.304 187.573 404.784C188.096 405.253 188.357 405.931 188.357 406.816V412H187.205V411.088C186.864 411.44 186.485 411.707 186.069 411.888C185.653 412.059 185.205 412.144 184.725 412.144ZM183.013 409.728C183.013 410.187 183.189 410.555 183.541 410.832C183.904 411.109 184.379 411.248 184.965 411.248C185.403 411.248 185.803 411.173 186.165 411.024C186.539 410.875 186.885 410.651 187.205 410.352V408.848C186.875 408.656 186.533 408.517 186.181 408.432C185.829 408.336 185.435 408.288 184.997 408.288C184.4 408.288 183.92 408.421 183.557 408.688C183.195 408.944 183.013 409.291 183.013 409.728ZM194.347 415.504C193.825 415.504 193.297 415.429 192.763 415.28C192.241 415.141 191.755 414.944 191.307 414.688L191.803 413.792C192.283 414.037 192.721 414.219 193.115 414.336C193.51 414.453 193.905 414.512 194.299 414.512C195.014 414.512 195.553 414.341 195.915 414C196.289 413.659 196.475 413.163 196.475 412.512V410.944C196.177 411.317 195.814 411.605 195.387 411.808C194.961 412 194.491 412.096 193.979 412.096C193.307 412.096 192.699 411.92 192.155 411.568C191.611 411.205 191.179 410.725 190.859 410.128C190.539 409.52 190.379 408.843 190.379 408.096C190.379 407.349 190.539 406.677 190.859 406.08C191.19 405.472 191.633 404.992 192.187 404.64C192.742 404.277 193.361 404.096 194.043 404.096C194.534 404.096 194.987 404.192 195.403 404.384C195.819 404.565 196.182 404.837 196.491 405.2V404.192H197.643V412.496C197.643 413.467 197.361 414.208 196.795 414.72C196.23 415.243 195.414 415.504 194.347 415.504ZM194.267 411.088C194.726 411.088 195.147 410.997 195.531 410.816C195.915 410.624 196.23 410.363 196.475 410.032V406.176C196.219 405.845 195.894 405.589 195.499 405.408C195.115 405.216 194.705 405.12 194.267 405.12C193.745 405.12 193.275 405.248 192.859 405.504C192.454 405.76 192.129 406.112 191.883 406.56C191.649 407.008 191.531 407.52 191.531 408.096C191.531 408.661 191.649 409.173 191.883 409.632C192.129 410.08 192.454 410.437 192.859 410.704C193.275 410.96 193.745 411.088 194.267 411.088ZM203.564 412.16C202.838 412.16 202.182 411.984 201.596 411.632C201.009 411.269 200.545 410.784 200.204 410.176C199.862 409.557 199.692 408.864 199.692 408.096C199.692 407.328 199.852 406.64 200.172 406.032C200.502 405.424 200.945 404.944 201.5 404.592C202.054 404.24 202.673 404.064 203.356 404.064C204.049 404.064 204.662 404.24 205.196 404.592C205.74 404.933 206.166 405.403 206.476 406C206.796 406.587 206.956 407.253 206.956 408V408.352H200.828C200.87 408.885 201.014 409.365 201.26 409.792C201.516 410.208 201.846 410.539 202.252 410.784C202.668 411.019 203.121 411.136 203.612 411.136C204.017 411.136 204.406 411.067 204.78 410.928C205.164 410.779 205.489 410.581 205.756 410.336L206.492 411.12C206.044 411.472 205.58 411.733 205.1 411.904C204.62 412.075 204.108 412.16 203.564 412.16ZM200.86 407.52H205.804C205.75 407.051 205.606 406.635 205.372 406.272C205.148 405.899 204.86 405.605 204.508 405.392C204.166 405.179 203.782 405.072 203.356 405.072C202.929 405.072 202.54 405.179 202.188 405.392C201.836 405.595 201.542 405.883 201.308 406.256C201.084 406.619 200.934 407.04 200.86 407.52ZM209.344 412.128C209.109 412.128 208.906 412.043 208.736 411.872C208.576 411.701 208.496 411.499 208.496 411.264C208.496 411.019 208.576 410.816 208.736 410.656C208.906 410.485 209.109 410.4 209.344 410.4C209.578 410.4 209.776 410.485 209.936 410.656C210.106 410.816 210.192 411.019 210.192 411.264C210.192 411.499 210.106 411.701 209.936 411.872C209.776 412.043 209.578 412.128 209.344 412.128ZM213.344 412.128C213.109 412.128 212.906 412.043 212.736 411.872C212.576 411.701 212.496 411.499 212.496 411.264C212.496 411.019 212.576 410.816 212.736 410.656C212.906 410.485 213.109 410.4 213.344 410.4C213.578 410.4 213.776 410.485 213.936 410.656C214.106 410.816 214.192 411.019 214.192 411.264C214.192 411.499 214.106 411.701 213.936 411.872C213.776 412.043 213.578 412.128 213.344 412.128ZM217.344 412.128C217.109 412.128 216.906 412.043 216.736 411.872C216.576 411.701 216.496 411.499 216.496 411.264C216.496 411.019 216.576 410.816 216.736 410.656C216.906 410.485 217.109 410.4 217.344 410.4C217.578 410.4 217.776 410.485 217.936 410.656C218.106 410.816 218.192 411.019 218.192 411.264C218.192 411.499 218.106 411.701 217.936 411.872C217.776 412.043 217.578 412.128 217.344 412.128Z" fill="#4D4D4D"/>
<path d="M934.062 399.356C935.871 397.548 938.801 397.548 940.609 399.356C942.418 401.165 942.418 404.095 940.609 405.903L933.734 412.778C932.617 413.896 930.805 413.896 929.688 412.778C928.57 411.661 928.57 409.849 929.688 408.731L935.312 403.106C935.738 402.681 936.434 402.681 936.859 403.106C937.285 403.532 937.285 404.228 936.859 404.653L931.234 410.278C930.973 410.54 930.973 410.97 931.234 411.231C931.496 411.493 931.926 411.493 932.188 411.231L939.062 404.356C940.016 403.403 940.016 401.856 939.062 400.903C938.109 399.95 936.562 399.95 935.609 400.903L928.422 408.091C926.777 409.735 926.777 412.399 928.422 414.044C930.066 415.688 932.73 415.688 934.375 414.044L940.312 408.106C940.738 407.681 941.434 407.681 941.859 408.106C942.285 408.532 942.285 409.228 941.859 409.653L935.922 415.591C933.422 418.091 929.375 418.091 926.875 415.591C924.375 413.091 924.375 409.044 926.875 406.544L934.062 399.356Z" fill="#707070"/>
<path fill-rule="evenodd" clip-rule="evenodd" d="M1003.13 396.162C1003.55 395.924 1004.06 395.947 1004.46 396.217C1004.85 396.49 1005.06 396.963 1004.99 397.435L1002.49 413.685C1002.43 414.064 1002.2 414.396 1001.86 414.584C1001.52 414.771 1001.12 414.795 1000.77 414.646L996.094 412.705L993.419 415.599C993.071 415.978 992.524 416.103 992.044 415.916C991.563 415.728 991.251 415.263 991.251 414.748V411.482C991.251 411.326 991.309 411.177 991.415 411.064L997.962 403.92C998.188 403.674 998.18 403.295 997.946 403.06C997.712 402.826 997.333 402.811 997.087 403.033L989.141 410.092L985.692 408.365C985.278 408.158 985.012 407.744 985.001 407.283C984.989 406.822 985.231 406.392 985.63 406.162L1003.13 396.162Z" fill="#0066CC"/>
<path d="M417.581 467L420.905 458.6H422.009L425.285 467H424.289L423.293 464.36H419.549L418.553 467H417.581ZM419.837 463.628H423.017L421.421 459.44L419.837 463.628ZM426.295 467V458.336L427.171 458.156V467H426.295ZM430.011 467L428.403 461.144H429.255L430.479 465.824L431.883 461.144H432.663L434.067 465.824L435.279 461.144H436.107L434.511 467H433.659L432.267 462.272L430.875 467H430.011ZM439.099 467.108C438.683 467.108 438.315 467.032 437.995 466.88C437.675 466.728 437.423 466.52 437.239 466.256C437.063 465.984 436.975 465.672 436.975 465.32C436.975 464.968 437.067 464.664 437.251 464.408C437.435 464.144 437.691 463.94 438.019 463.796C438.347 463.652 438.731 463.58 439.171 463.58C439.507 463.58 439.823 463.616 440.119 463.688C440.423 463.76 440.703 463.876 440.959 464.036V463.232C440.959 462.752 440.831 462.392 440.575 462.152C440.319 461.904 439.943 461.78 439.447 461.78C439.175 461.78 438.895 461.82 438.607 461.9C438.327 461.98 438.015 462.108 437.671 462.284L437.347 461.612C438.131 461.236 438.867 461.048 439.555 461.048C440.283 461.048 440.843 461.228 441.235 461.588C441.627 461.94 441.823 462.448 441.823 463.112V467H440.959V466.316C440.703 466.58 440.419 466.78 440.107 466.916C439.795 467.044 439.459 467.108 439.099 467.108ZM437.815 465.296C437.815 465.64 437.947 465.916 438.211 466.124C438.483 466.332 438.839 466.436 439.279 466.436C439.607 466.436 439.907 466.38 440.179 466.268C440.459 466.156 440.719 465.988 440.959 465.764V464.636C440.711 464.492 440.455 464.388 440.191 464.324C439.927 464.252 439.631 464.216 439.303 464.216C438.855 464.216 438.495 464.316 438.223 464.516C437.951 464.708 437.815 464.968 437.815 465.296ZM443.738 469.628C443.554 469.628 443.366 469.6 443.174 469.544V468.764C443.254 468.78 443.338 468.792 443.426 468.8C443.514 468.808 443.59 468.812 443.654 468.812C443.878 468.812 444.062 468.752 444.206 468.632C444.358 468.512 444.486 468.324 444.59 468.068L445.022 467L442.766 461.144H443.738L445.514 465.956L447.398 461.144H448.37L445.418 468.332C445.29 468.644 445.15 468.896 444.998 469.088C444.846 469.28 444.67 469.416 444.47 469.496C444.27 469.584 444.026 469.628 443.738 469.628ZM451.275 467.12C450.795 467.12 450.351 467.048 449.943 466.904C449.535 466.752 449.187 466.536 448.899 466.256L449.367 465.68C449.719 465.936 450.043 466.124 450.339 466.244C450.635 466.356 450.939 466.412 451.251 466.412C451.675 466.412 452.027 466.312 452.307 466.112C452.587 465.912 452.727 465.656 452.727 465.344C452.727 465.104 452.643 464.916 452.475 464.78C452.315 464.644 452.047 464.54 451.671 464.468L450.711 464.3C450.143 464.196 449.723 464.02 449.451 463.772C449.187 463.524 449.055 463.188 449.055 462.764C449.055 462.428 449.143 462.132 449.319 461.876C449.503 461.62 449.755 461.42 450.075 461.276C450.395 461.124 450.759 461.048 451.167 461.048C451.567 461.048 451.947 461.108 452.307 461.228C452.667 461.34 453.031 461.524 453.399 461.78L452.967 462.392C452.663 462.176 452.359 462.02 452.055 461.924C451.751 461.82 451.443 461.768 451.131 461.768C450.747 461.768 450.439 461.852 450.207 462.02C449.975 462.188 449.859 462.416 449.859 462.704C449.859 462.944 449.931 463.128 450.075 463.256C450.227 463.384 450.491 463.48 450.867 463.544L451.851 463.724C452.443 463.828 452.875 464.008 453.147 464.264C453.419 464.52 453.555 464.864 453.555 465.296C453.555 465.64 453.455 465.952 453.255 466.232C453.055 466.504 452.783 466.72 452.439 466.88C452.095 467.04 451.707 467.12 451.275 467.12ZM457.69 467V461.144H458.566V462.344C458.718 461.936 458.934 461.62 459.214 461.396C459.502 461.164 459.83 461.048 460.198 461.048C460.302 461.048 460.398 461.056 460.486 461.072C460.574 461.08 460.662 461.1 460.75 461.132V461.924C460.654 461.892 460.55 461.868 460.438 461.852C460.334 461.828 460.234 461.816 460.138 461.816C459.778 461.816 459.462 461.92 459.19 462.128C458.926 462.336 458.718 462.628 458.566 463.004V467H457.69ZM464.185 467.12C463.641 467.12 463.149 466.988 462.709 466.724C462.269 466.452 461.921 466.088 461.665 465.632C461.409 465.168 461.281 464.648 461.281 464.072C461.281 463.496 461.401 462.98 461.641 462.524C461.889 462.068 462.221 461.708 462.637 461.444C463.053 461.18 463.517 461.048 464.029 461.048C464.549 461.048 465.009 461.18 465.409 461.444C465.817 461.7 466.137 462.052 466.369 462.5C466.609 462.94 466.729 463.44 466.729 464V464.264H462.133C462.165 464.664 462.273 465.024 462.457 465.344C462.649 465.656 462.897 465.904 463.201 466.088C463.513 466.264 463.853 466.352 464.221 466.352C464.525 466.352 464.817 466.3 465.097 466.196C465.385 466.084 465.629 465.936 465.829 465.752L466.381 466.34C466.045 466.604 465.697 466.8 465.337 466.928C464.977 467.056 464.593 467.12 464.185 467.12ZM462.157 463.64H465.865C465.825 463.288 465.717 462.976 465.541 462.704C465.373 462.424 465.157 462.204 464.893 462.044C464.637 461.884 464.349 461.804 464.029 461.804C463.709 461.804 463.417 461.884 463.153 462.044C462.889 462.196 462.669 462.412 462.493 462.692C462.325 462.964 462.213 463.28 462.157 463.64ZM469.729 467L467.329 461.144H468.277L470.173 465.908L472.045 461.144H472.981L470.569 467H469.729ZM474.049 467V461.144H474.925V467H474.049ZM474.493 459.692C474.317 459.692 474.165 459.632 474.037 459.512C473.917 459.384 473.857 459.236 473.857 459.068C473.857 458.9 473.917 458.756 474.037 458.636C474.165 458.508 474.317 458.444 474.493 458.444C474.669 458.444 474.817 458.508 474.937 458.636C475.065 458.756 475.129 458.9 475.129 459.068C475.129 459.236 475.065 459.384 474.937 459.512C474.817 459.632 474.669 459.692 474.493 459.692ZM479.361 467.12C478.817 467.12 478.325 466.988 477.885 466.724C477.445 466.452 477.097 466.088 476.841 465.632C476.585 465.168 476.457 464.648 476.457 464.072C476.457 463.496 476.577 462.98 476.817 462.524C477.065 462.068 477.397 461.708 477.813 461.444C478.229 461.18 478.693 461.048 479.205 461.048C479.725 461.048 480.185 461.18 480.585 461.444C480.993 461.7 481.313 462.052 481.545 462.5C481.785 462.94 481.905 463.44 481.905 464V464.264H477.309C477.341 464.664 477.449 465.024 477.633 465.344C477.825 465.656 478.073 465.904 478.377 466.088C478.689 466.264 479.029 466.352 479.397 466.352C479.701 466.352 479.993 466.3 480.273 466.196C480.561 466.084 480.805 465.936 481.005 465.752L481.557 466.34C481.221 466.604 480.873 466.8 480.513 466.928C480.153 467.056 479.769 467.12 479.361 467.12ZM477.333 463.64H481.041C481.001 463.288 480.893 462.976 480.717 462.704C480.549 462.424 480.333 462.204 480.069 462.044C479.813 461.884 479.525 461.804 479.205 461.804C478.885 461.804 478.593 461.884 478.329 462.044C478.065 462.196 477.845 462.412 477.669 462.692C477.501 462.964 477.389 463.28 477.333 463.64ZM484.327 467L482.719 461.144H483.571L484.795 465.824L486.199 461.144H486.979L488.383 465.824L489.595 461.144H490.423L488.827 467H487.975L486.583 462.272L485.191 467H484.327ZM493.671 467L496.995 458.6H498.099L501.375 467H500.379L499.383 464.36H495.639L494.643 467H493.671ZM495.927 463.628H499.107L497.511 459.44L495.927 463.628ZM502.541 467V458.6H503.465V467H502.541ZM505.252 464V463.244H509.248V464H505.252ZM513.71 469.628C513.318 469.628 512.922 469.572 512.522 469.46C512.13 469.356 511.766 469.208 511.43 469.016L511.802 468.344C512.162 468.528 512.49 468.664 512.786 468.752C513.082 468.84 513.378 468.884 513.674 468.884C514.21 468.884 514.614 468.756 514.886 468.5C515.166 468.244 515.306 467.872 515.306 467.384V466.208C515.082 466.488 514.81 466.704 514.49 466.856C514.17 467 513.818 467.072 513.434 467.072C512.93 467.072 512.474 466.94 512.066 466.676C511.658 466.404 511.334 466.044 511.094 465.596C510.854 465.14 510.734 464.632 510.734 464.072C510.734 463.512 510.854 463.008 511.094 462.56C511.342 462.104 511.674 461.744 512.09 461.48C512.506 461.208 512.97 461.072 513.482 461.072C513.85 461.072 514.19 461.144 514.502 461.288C514.814 461.424 515.086 461.628 515.318 461.9V461.144H516.182V467.372C516.182 468.1 515.97 468.656 515.546 469.04C515.122 469.432 514.51 469.628 513.71 469.628ZM513.65 466.316C513.994 466.316 514.31 466.248 514.598 466.112C514.886 465.968 515.122 465.772 515.306 465.524V462.632C515.114 462.384 514.87 462.192 514.574 462.056C514.286 461.912 513.978 461.84 513.65 461.84C513.258 461.84 512.906 461.936 512.594 462.128C512.29 462.32 512.046 462.584 511.862 462.92C511.686 463.256 511.598 463.64 511.598 464.072C511.598 464.496 511.686 464.88 511.862 465.224C512.046 465.56 512.29 465.828 512.594 466.028C512.906 466.22 513.258 466.316 513.65 466.316ZM520.623 467.12C520.079 467.12 519.587 466.988 519.147 466.724C518.707 466.452 518.359 466.088 518.103 465.632C517.847 465.168 517.719 464.648 517.719 464.072C517.719 463.496 517.839 462.98 518.079 462.524C518.327 462.068 518.659 461.708 519.075 461.444C519.491 461.18 519.955 461.048 520.467 461.048C520.987 461.048 521.447 461.18 521.847 461.444C522.255 461.7 522.575 462.052 522.807 462.5C523.047 462.94 523.167 463.44 523.167 464V464.264H518.571C518.603 464.664 518.711 465.024 518.895 465.344C519.087 465.656 519.335 465.904 519.639 466.088C519.951 466.264 520.291 466.352 520.659 466.352C520.963 466.352 521.255 466.3 521.535 466.196C521.823 466.084 522.067 465.936 522.267 465.752L522.819 466.34C522.483 466.604 522.135 466.8 521.775 466.928C521.415 467.056 521.031 467.12 520.623 467.12ZM518.595 463.64H522.303C522.263 463.288 522.155 462.976 521.979 462.704C521.811 462.424 521.595 462.204 521.331 462.044C521.075 461.884 520.787 461.804 520.467 461.804C520.147 461.804 519.855 461.884 519.591 462.044C519.327 462.196 519.107 462.412 518.931 462.692C518.763 462.964 518.651 463.28 518.595 463.64ZM524.662 467V461.144H525.538V462.092C525.762 461.74 526.03 461.48 526.342 461.312C526.654 461.136 527.006 461.048 527.398 461.048C527.822 461.048 528.19 461.14 528.502 461.324C528.822 461.5 529.07 461.752 529.246 462.08C529.43 462.4 529.522 462.776 529.522 463.208V467H528.646V463.46C528.646 462.94 528.502 462.532 528.214 462.236C527.934 461.932 527.554 461.78 527.074 461.78C526.754 461.78 526.462 461.856 526.198 462.008C525.934 462.16 525.714 462.384 525.538 462.68V467H524.662ZM533.923 467.12C533.379 467.12 532.887 466.988 532.447 466.724C532.007 466.452 531.659 466.088 531.403 465.632C531.147 465.168 531.019 464.648 531.019 464.072C531.019 463.496 531.139 462.98 531.379 462.524C531.627 462.068 531.959 461.708 532.375 461.444C532.791 461.18 533.255 461.048 533.767 461.048C534.287 461.048 534.747 461.18 535.147 461.444C535.555 461.7 535.875 462.052 536.107 462.5C536.347 462.94 536.467 463.44 536.467 464V464.264H531.871C531.903 464.664 532.011 465.024 532.195 465.344C532.387 465.656 532.635 465.904 532.939 466.088C533.251 466.264 533.591 466.352 533.959 466.352C534.263 466.352 534.555 466.3 534.835 466.196C535.123 466.084 535.367 465.936 535.567 465.752L536.119 466.34C535.783 466.604 535.435 466.8 535.075 466.928C534.715 467.056 534.331 467.12 533.923 467.12ZM531.895 463.64H535.603C535.563 463.288 535.455 462.976 535.279 462.704C535.111 462.424 534.895 462.204 534.631 462.044C534.375 461.884 534.087 461.804 533.767 461.804C533.447 461.804 533.155 461.884 532.891 462.044C532.627 462.196 532.407 462.412 532.231 462.692C532.063 462.964 531.951 463.28 531.895 463.64ZM537.963 467V461.144H538.839V462.344C538.991 461.936 539.207 461.62 539.487 461.396C539.775 461.164 540.103 461.048 540.471 461.048C540.575 461.048 540.671 461.056 540.759 461.072C540.847 461.08 540.935 461.1 541.023 461.132V461.924C540.927 461.892 540.823 461.868 540.711 461.852C540.607 461.828 540.507 461.816 540.411 461.816C540.051 461.816 539.735 461.92 539.463 462.128C539.199 462.336 538.991 462.628 538.839 463.004V467H537.963ZM543.748 467.108C543.332 467.108 542.964 467.032 542.644 466.88C542.324 466.728 542.072 466.52 541.888 466.256C541.712 465.984 541.624 465.672 541.624 465.32C541.624 464.968 541.716 464.664 541.9 464.408C542.084 464.144 542.34 463.94 542.668 463.796C542.996 463.652 543.38 463.58 543.82 463.58C544.156 463.58 544.472 463.616 544.768 463.688C545.072 463.76 545.352 463.876 545.608 464.036V463.232C545.608 462.752 545.48 462.392 545.224 462.152C544.968 461.904 544.592 461.78 544.096 461.78C543.824 461.78 543.544 461.82 543.256 461.9C542.976 461.98 542.664 462.108 542.32 462.284L541.996 461.612C542.78 461.236 543.516 461.048 544.204 461.048C544.932 461.048 545.492 461.228 545.884 461.588C546.276 461.94 546.472 462.448 546.472 463.112V467H545.608V466.316C545.352 466.58 545.068 466.78 544.756 466.916C544.444 467.044 544.108 467.108 543.748 467.108ZM542.464 465.296C542.464 465.64 542.596 465.916 542.86 466.124C543.132 466.332 543.488 466.436 543.928 466.436C544.256 466.436 544.556 466.38 544.828 466.268C545.108 466.156 545.368 465.988 545.608 465.764V464.636C545.36 464.492 545.104 464.388 544.84 464.324C544.576 464.252 544.28 464.216 543.952 464.216C543.504 464.216 543.144 464.316 542.872 464.516C542.6 464.708 542.464 464.968 542.464 465.296ZM550.308 467.12C549.804 467.12 549.42 467 549.156 466.76C548.9 466.512 548.772 466.156 548.772 465.692V461.864H547.56V461.144H548.772V459.536L549.648 459.332V461.144H551.328V461.864H549.648V465.464C549.648 465.776 549.712 466 549.84 466.136C549.976 466.272 550.196 466.34 550.5 466.34C550.652 466.34 550.788 466.328 550.908 466.304C551.028 466.28 551.168 466.24 551.328 466.184V466.964C551.168 467.02 551 467.06 550.824 467.084C550.648 467.108 550.476 467.12 550.308 467.12ZM555.134 467.12C554.59 467.12 554.098 466.988 553.658 466.724C553.218 466.452 552.87 466.088 552.614 465.632C552.358 465.168 552.23 464.648 552.23 464.072C552.23 463.496 552.35 462.98 552.59 462.524C552.838 462.068 553.17 461.708 553.586 461.444C554.002 461.18 554.466 461.048 554.978 461.048C555.498 461.048 555.958 461.18 556.358 461.444C556.766 461.7 557.086 462.052 557.318 462.5C557.558 462.94 557.678 463.44 557.678 464V464.264H553.082C553.114 464.664 553.222 465.024 553.406 465.344C553.598 465.656 553.846 465.904 554.15 466.088C554.462 466.264 554.802 466.352 555.17 466.352C555.474 466.352 555.766 466.3 556.046 466.196C556.334 466.084 556.578 465.936 556.778 465.752L557.33 466.34C556.994 466.604 556.646 466.8 556.286 466.928C555.926 467.056 555.542 467.12 555.134 467.12ZM553.106 463.64H556.814C556.774 463.288 556.666 462.976 556.49 462.704C556.322 462.424 556.106 462.204 555.842 462.044C555.586 461.884 555.298 461.804 554.978 461.804C554.658 461.804 554.366 461.884 554.102 462.044C553.838 462.196 553.618 462.412 553.442 462.692C553.274 462.964 553.162 463.28 553.106 463.64ZM561.61 467.084C561.106 467.084 560.65 466.952 560.242 466.688C559.834 466.416 559.51 466.056 559.27 465.608C559.03 465.152 558.91 464.644 558.91 464.084C558.91 463.516 559.03 463.008 559.27 462.56C559.518 462.104 559.85 461.744 560.266 461.48C560.682 461.208 561.146 461.072 561.658 461.072C562.018 461.072 562.354 461.144 562.666 461.288C562.978 461.424 563.25 461.624 563.482 461.888V458.336L564.358 458.156V467H563.482V466.22C563.258 466.5 562.986 466.716 562.666 466.868C562.346 467.012 561.994 467.084 561.61 467.084ZM561.826 466.316C562.17 466.316 562.486 466.248 562.774 466.112C563.062 465.976 563.298 465.784 563.482 465.536V462.632C563.29 462.384 563.046 462.192 562.75 462.056C562.462 461.912 562.154 461.84 561.826 461.84C561.434 461.84 561.082 461.936 560.77 462.128C560.466 462.32 560.222 462.584 560.038 462.92C559.862 463.256 559.774 463.64 559.774 464.072C559.774 464.496 559.862 464.88 560.038 465.224C560.222 465.56 560.466 465.828 560.77 466.028C561.082 466.22 561.434 466.316 561.826 466.316ZM571.587 467.096C571.043 467.096 570.551 466.964 570.111 466.7C569.679 466.428 569.335 466.064 569.079 465.608C568.823 465.144 568.695 464.632 568.695 464.072C568.695 463.504 568.823 462.992 569.079 462.536C569.335 462.08 569.679 461.72 570.111 461.456C570.551 461.184 571.043 461.048 571.587 461.048C572.019 461.048 572.431 461.128 572.823 461.288C573.215 461.448 573.555 461.672 573.843 461.96L573.279 462.572C573.071 462.34 572.819 462.16 572.523 462.032C572.227 461.904 571.927 461.84 571.623 461.84C571.239 461.84 570.891 461.94 570.579 462.14C570.275 462.34 570.031 462.608 569.847 462.944C569.663 463.28 569.571 463.656 569.571 464.072C569.571 464.488 569.663 464.864 569.847 465.2C570.031 465.536 570.275 465.804 570.579 466.004C570.891 466.204 571.239 466.304 571.623 466.304C571.927 466.304 572.227 466.24 572.523 466.112C572.819 465.976 573.071 465.796 573.279 465.572L573.843 466.184C573.555 466.472 573.215 466.696 572.823 466.856C572.431 467.016 572.019 467.096 571.587 467.096ZM577.481 467.096C576.937 467.096 576.449 466.964 576.017 466.7C575.585 466.436 575.245 466.076 574.997 465.62C574.749 465.164 574.625 464.648 574.625 464.072C574.625 463.496 574.749 462.98 574.997 462.524C575.245 462.068 575.585 461.708 576.017 461.444C576.449 461.18 576.937 461.048 577.481 461.048C578.017 461.048 578.497 461.18 578.921 461.444C579.353 461.708 579.693 462.068 579.941 462.524C580.189 462.98 580.313 463.496 580.313 464.072C580.313 464.648 580.189 465.164 579.941 465.62C579.693 466.076 579.353 466.436 578.921 466.7C578.497 466.964 578.017 467.096 577.481 467.096ZM577.469 466.328C577.853 466.328 578.193 466.232 578.489 466.04C578.785 465.84 579.017 465.568 579.185 465.224C579.361 464.88 579.449 464.496 579.449 464.072C579.449 463.64 579.361 463.256 579.185 462.92C579.017 462.576 578.785 462.308 578.489 462.116C578.193 461.916 577.853 461.816 577.469 461.816C577.085 461.816 576.745 461.916 576.449 462.116C576.153 462.308 575.917 462.576 575.741 462.92C575.573 463.256 575.489 463.64 575.489 464.072C575.489 464.496 575.573 464.88 575.741 465.224C575.917 465.568 576.153 465.84 576.449 466.04C576.745 466.232 577.085 466.328 577.469 466.328ZM581.85 467V461.144H582.726V462.092C582.95 461.74 583.218 461.48 583.53 461.312C583.842 461.136 584.194 461.048 584.586 461.048C585.01 461.048 585.378 461.14 585.69 461.324C586.01 461.5 586.258 461.752 586.434 462.08C586.618 462.4 586.71 462.776 586.71 463.208V467H585.834V463.46C585.834 462.94 585.69 462.532 585.402 462.236C585.122 461.932 584.742 461.78 584.262 461.78C583.942 461.78 583.65 461.856 583.386 462.008C583.122 462.16 582.902 462.384 582.726 462.68V467H581.85ZM590.527 467.12C590.023 467.12 589.639 467 589.375 466.76C589.119 466.512 588.991 466.156 588.991 465.692V461.864H587.779V461.144H588.991V459.536L589.867 459.332V461.144H591.547V461.864H589.867V465.464C589.867 465.776 589.931 466 590.059 466.136C590.195 466.272 590.415 466.34 590.719 466.34C590.871 466.34 591.007 466.328 591.127 466.304C591.247 466.28 591.387 466.24 591.547 466.184V466.964C591.387 467.02 591.219 467.06 591.043 467.084C590.867 467.108 590.695 467.12 590.527 467.12ZM595.353 467.12C594.809 467.12 594.317 466.988 593.877 466.724C593.437 466.452 593.089 466.088 592.833 465.632C592.577 465.168 592.449 464.648 592.449 464.072C592.449 463.496 592.569 462.98 592.809 462.524C593.057 462.068 593.389 461.708 593.805 461.444C594.221 461.18 594.685 461.048 595.197 461.048C595.717 461.048 596.177 461.18 596.577 461.444C596.985 461.7 597.305 462.052 597.537 462.5C597.777 462.94 597.897 463.44 597.897 464V464.264H593.301C593.333 464.664 593.441 465.024 593.625 465.344C593.817 465.656 594.065 465.904 594.369 466.088C594.681 466.264 595.021 466.352 595.389 466.352C595.693 466.352 595.985 466.3 596.265 466.196C596.553 466.084 596.797 465.936 596.997 465.752L597.549 466.34C597.213 466.604 596.865 466.8 596.505 466.928C596.145 467.056 595.761 467.12 595.353 467.12ZM593.325 463.64H597.033C596.993 463.288 596.885 462.976 596.709 462.704C596.541 462.424 596.325 462.204 596.061 462.044C595.805 461.884 595.517 461.804 595.197 461.804C594.877 461.804 594.585 461.884 594.321 462.044C594.057 462.196 593.837 462.412 593.661 462.692C593.493 462.964 593.381 463.28 593.325 463.64ZM599.393 467V461.144H600.269V462.092C600.493 461.74 600.761 461.48 601.073 461.312C601.385 461.136 601.737 461.048 602.129 461.048C602.553 461.048 602.921 461.14 603.233 461.324C603.553 461.5 603.801 461.752 603.977 462.08C604.161 462.4 604.253 462.776 604.253 463.208V467H603.377V463.46C603.377 462.94 603.233 462.532 602.945 462.236C602.665 461.932 602.285 461.78 601.805 461.78C601.485 461.78 601.193 461.856 600.929 462.008C600.665 462.16 600.445 462.384 600.269 462.68V467H599.393ZM608.07 467.12C607.566 467.12 607.182 467 606.918 466.76C606.662 466.512 606.534 466.156 606.534 465.692V461.864H605.322V461.144H606.534V459.536L607.41 459.332V461.144H609.09V461.864H607.41V465.464C607.41 465.776 607.474 466 607.602 466.136C607.738 466.272 607.958 466.34 608.262 466.34C608.414 466.34 608.55 466.328 608.67 466.304C608.79 466.28 608.93 466.24 609.09 466.184V466.964C608.93 467.02 608.762 467.06 608.586 467.084C608.41 467.108 608.238 467.12 608.07 467.12ZM613.174 469.508V461.144H614.038V461.984C614.262 461.688 614.534 461.464 614.854 461.312C615.182 461.152 615.542 461.072 615.934 461.072C616.446 461.072 616.902 461.208 617.302 461.48C617.71 461.744 618.034 462.104 618.274 462.56C618.514 463.008 618.634 463.512 618.634 464.072C618.634 464.632 618.51 465.14 618.262 465.596C618.022 466.052 617.694 466.416 617.278 466.688C616.87 466.952 616.406 467.084 615.886 467.084C615.518 467.084 615.178 467.016 614.866 466.88C614.554 466.736 614.282 466.532 614.05 466.268V469.508H613.174ZM615.718 466.328C616.11 466.328 616.458 466.232 616.762 466.04C617.074 465.84 617.318 465.572 617.494 465.236C617.678 464.892 617.77 464.508 617.77 464.084C617.77 463.652 617.678 463.268 617.494 462.932C617.318 462.596 617.074 462.332 616.762 462.14C616.458 461.94 616.11 461.84 615.718 461.84C615.374 461.84 615.054 461.912 614.758 462.056C614.47 462.192 614.234 462.388 614.05 462.644V465.512C614.242 465.768 614.482 465.968 614.77 466.112C615.066 466.256 615.382 466.328 615.718 466.328ZM620.17 467V461.144H621.046V462.344C621.198 461.936 621.414 461.62 621.694 461.396C621.982 461.164 622.31 461.048 622.678 461.048C622.782 461.048 622.878 461.056 622.966 461.072C623.054 461.08 623.142 461.1 623.23 461.132V461.924C623.134 461.892 623.03 461.868 622.918 461.852C622.814 461.828 622.714 461.816 622.618 461.816C622.258 461.816 621.942 461.92 621.67 462.128C621.406 462.336 621.198 462.628 621.046 463.004V467H620.17ZM624.377 467V461.144H625.253V467H624.377ZM624.821 459.692C624.645 459.692 624.493 459.632 624.365 459.512C624.245 459.384 624.185 459.236 624.185 459.068C624.185 458.9 624.245 458.756 624.365 458.636C624.493 458.508 624.645 458.444 624.821 458.444C624.997 458.444 625.145 458.508 625.265 458.636C625.393 458.756 625.457 458.9 625.457 459.068C625.457 459.236 625.393 459.384 625.265 459.512C625.145 459.632 624.997 459.692 624.821 459.692ZM629.641 467.096C629.097 467.096 628.609 466.964 628.177 466.7C627.745 466.436 627.405 466.076 627.157 465.62C626.909 465.164 626.785 464.648 626.785 464.072C626.785 463.496 626.909 462.98 627.157 462.524C627.405 462.068 627.745 461.708 628.177 461.444C628.609 461.18 629.097 461.048 629.641 461.048C630.177 461.048 630.657 461.18 631.081 461.444C631.513 461.708 631.853 462.068 632.101 462.524C632.349 462.98 632.473 463.496 632.473 464.072C632.473 464.648 632.349 465.164 632.101 465.62C631.853 466.076 631.513 466.436 631.081 466.7C630.657 466.964 630.177 467.096 629.641 467.096ZM629.629 466.328C630.013 466.328 630.353 466.232 630.649 466.04C630.945 465.84 631.177 465.568 631.345 465.224C631.521 464.88 631.609 464.496 631.609 464.072C631.609 463.64 631.521 463.256 631.345 462.92C631.177 462.576 630.945 462.308 630.649 462.116C630.353 461.916 630.013 461.816 629.629 461.816C629.245 461.816 628.905 461.916 628.609 462.116C628.313 462.308 628.077 462.576 627.901 462.92C627.733 463.256 627.649 463.64 627.649 464.072C627.649 464.496 627.733 464.88 627.901 465.224C628.077 465.568 628.313 465.84 628.609 466.04C628.905 466.232 629.245 466.328 629.629 466.328ZM634.01 467V461.144H634.886V462.344C635.038 461.936 635.254 461.62 635.534 461.396C635.822 461.164 636.15 461.048 636.518 461.048C636.622 461.048 636.718 461.056 636.806 461.072C636.894 461.08 636.982 461.1 637.07 461.132V461.924C636.974 461.892 636.87 461.868 636.758 461.852C636.654 461.828 636.554 461.816 636.458 461.816C636.098 461.816 635.782 461.92 635.51 462.128C635.246 462.336 635.038 462.628 634.886 463.004V467H634.01ZM643.261 467.12C642.757 467.12 642.373 467 642.109 466.76C641.853 466.512 641.725 466.156 641.725 465.692V461.864H640.513V461.144H641.725V459.536L642.601 459.332V461.144H644.281V461.864H642.601V465.464C642.601 465.776 642.665 466 642.793 466.136C642.929 466.272 643.149 466.34 643.453 466.34C643.605 466.34 643.741 466.328 643.861 466.304C643.981 466.28 644.121 466.24 644.281 466.184V466.964C644.121 467.02 643.953 467.06 643.777 467.084C643.601 467.108 643.429 467.12 643.261 467.12ZM648.039 467.096C647.495 467.096 647.007 466.964 646.575 466.7C646.143 466.436 645.803 466.076 645.555 465.62C645.307 465.164 645.183 464.648 645.183 464.072C645.183 463.496 645.307 462.98 645.555 462.524C645.803 462.068 646.143 461.708 646.575 461.444C647.007 461.18 647.495 461.048 648.039 461.048C648.575 461.048 649.055 461.18 649.479 461.444C649.911 461.708 650.251 462.068 650.499 462.524C650.747 462.98 650.871 463.496 650.871 464.072C650.871 464.648 650.747 465.164 650.499 465.62C650.251 466.076 649.911 466.436 649.479 466.7C649.055 466.964 648.575 467.096 648.039 467.096ZM648.027 466.328C648.411 466.328 648.751 466.232 649.047 466.04C649.343 465.84 649.575 465.568 649.743 465.224C649.919 464.88 650.007 464.496 650.007 464.072C650.007 463.64 649.919 463.256 649.743 462.92C649.575 462.576 649.343 462.308 649.047 462.116C648.751 461.916 648.411 461.816 648.027 461.816C647.643 461.816 647.303 461.916 647.007 462.116C646.711 462.308 646.475 462.576 646.299 462.92C646.131 463.256 646.047 463.64 646.047 464.072C646.047 464.496 646.131 464.88 646.299 465.224C646.475 465.568 646.711 465.84 647.007 466.04C647.303 466.232 647.643 466.328 648.027 466.328ZM657.297 467.096C656.881 467.096 656.513 467.004 656.193 466.82C655.873 466.636 655.621 466.38 655.437 466.052C655.261 465.724 655.173 465.348 655.173 464.924V461.144H656.061V464.672C656.061 465.192 656.201 465.604 656.481 465.908C656.761 466.212 657.141 466.364 657.621 466.364C657.949 466.364 658.241 466.288 658.497 466.136C658.761 465.984 658.981 465.764 659.157 465.476V461.144H660.033V467H659.157V466.052C658.933 466.396 658.665 466.656 658.353 466.832C658.049 467.008 657.697 467.096 657.297 467.096ZM663.642 467.12C663.162 467.12 662.718 467.048 662.31 466.904C661.902 466.752 661.554 466.536 661.266 466.256L661.734 465.68C662.086 465.936 662.41 466.124 662.706 466.244C663.002 466.356 663.306 466.412 663.618 466.412C664.042 466.412 664.394 466.312 664.674 466.112C664.954 465.912 665.094 465.656 665.094 465.344C665.094 465.104 665.01 464.916 664.842 464.78C664.682 464.644 664.414 464.54 664.038 464.468L663.078 464.3C662.51 464.196 662.09 464.02 661.818 463.772C661.554 463.524 661.422 463.188 661.422 462.764C661.422 462.428 661.51 462.132 661.686 461.876C661.87 461.62 662.122 461.42 662.442 461.276C662.762 461.124 663.126 461.048 663.534 461.048C663.934 461.048 664.314 461.108 664.674 461.228C665.034 461.34 665.398 461.524 665.766 461.78L665.334 462.392C665.03 462.176 664.726 462.02 664.422 461.924C664.118 461.82 663.81 461.768 663.498 461.768C663.114 461.768 662.806 461.852 662.574 462.02C662.342 462.188 662.226 462.416 662.226 462.704C662.226 462.944 662.298 463.128 662.442 463.256C662.594 463.384 662.858 463.48 663.234 463.544L664.218 463.724C664.81 463.828 665.242 464.008 665.514 464.264C665.786 464.52 665.922 464.864 665.922 465.296C665.922 465.64 665.822 465.952 665.622 466.232C665.422 466.504 665.15 466.72 664.806 466.88C664.462 467.04 664.074 467.12 663.642 467.12ZM669.955 467.12C669.411 467.12 668.919 466.988 668.479 466.724C668.039 466.452 667.691 466.088 667.435 465.632C667.179 465.168 667.051 464.648 667.051 464.072C667.051 463.496 667.171 462.98 667.411 462.524C667.659 462.068 667.991 461.708 668.407 461.444C668.823 461.18 669.287 461.048 669.799 461.048C670.319 461.048 670.779 461.18 671.179 461.444C671.587 461.7 671.907 462.052 672.139 462.5C672.379 462.94 672.499 463.44 672.499 464V464.264H667.903C667.935 464.664 668.043 465.024 668.227 465.344C668.419 465.656 668.667 465.904 668.971 466.088C669.283 466.264 669.623 466.352 669.991 466.352C670.295 466.352 670.587 466.3 670.867 466.196C671.155 466.084 671.399 465.936 671.599 465.752L672.151 466.34C671.815 466.604 671.467 466.8 671.107 466.928C670.747 467.056 670.363 467.12 669.955 467.12ZM667.927 463.64H671.635C671.595 463.288 671.487 462.976 671.311 462.704C671.143 462.424 670.927 462.204 670.663 462.044C670.407 461.884 670.119 461.804 669.799 461.804C669.479 461.804 669.187 461.884 668.923 462.044C668.659 462.196 668.439 462.412 668.263 462.692C668.095 462.964 667.983 463.28 667.927 463.64ZM674.29 467.096C674.114 467.096 673.962 467.032 673.834 466.904C673.714 466.776 673.654 466.624 673.654 466.448C673.654 466.264 673.714 466.112 673.834 465.992C673.962 465.864 674.114 465.8 674.29 465.8C674.466 465.8 674.614 465.864 674.734 465.992C674.862 466.112 674.926 466.264 674.926 466.448C674.926 466.624 674.862 466.776 674.734 466.904C674.614 467.032 674.466 467.096 674.29 467.096Z" fill="#151515"/>
<rect x="32" y="348" width="1022" height="1" rx="0.5" fill="#C7C7C7"/>
<rect x="547" y="69" width="279" height="0.999988" rx="0.499994" transform="rotate(90 547 69)" fill="#C7C7C7"/>
<path d="M260.71 108.154C260.01 108.154 259.357 108.028 258.75 107.776C258.153 107.515 257.626 107.155 257.168 106.698C256.711 106.231 256.356 105.695 256.104 105.088C255.852 104.472 255.726 103.809 255.726 103.1C255.726 102.391 255.852 101.733 256.104 101.126C256.356 100.51 256.711 99.9733 257.168 99.516C257.626 99.0493 258.153 98.69 258.75 98.438C259.357 98.1767 260.01 98.046 260.71 98.046C261.196 98.046 261.658 98.1113 262.096 98.242C262.544 98.3633 262.964 98.5453 263.356 98.788C263.748 99.0213 264.098 99.3107 264.406 99.656L263.692 100.398C263.328 99.9593 262.88 99.6233 262.348 99.39C261.826 99.1473 261.28 99.026 260.71 99.026C260.16 99.026 259.646 99.1287 259.17 99.334C258.694 99.5393 258.279 99.8287 257.924 100.202C257.579 100.575 257.308 101.009 257.112 101.504C256.916 101.989 256.818 102.521 256.818 103.1C256.818 103.669 256.916 104.201 257.112 104.696C257.308 105.191 257.579 105.625 257.924 105.998C258.279 106.371 258.694 106.661 259.17 106.866C259.646 107.071 260.16 107.174 260.71 107.174C261.28 107.174 261.826 107.053 262.348 106.81C262.88 106.567 263.328 106.231 263.692 105.802L264.406 106.544C264.098 106.889 263.748 107.183 263.356 107.426C262.964 107.659 262.544 107.841 262.096 107.972C261.658 108.093 261.196 108.154 260.71 108.154ZM266.151 108V97.892L267.173 97.682V102.274C267.434 101.863 267.747 101.56 268.111 101.364C268.475 101.159 268.885 101.056 269.343 101.056C269.837 101.056 270.267 101.163 270.631 101.378C271.004 101.583 271.293 101.877 271.499 102.26C271.713 102.633 271.821 103.072 271.821 103.576V108H270.799V103.87C270.799 103.263 270.631 102.787 270.295 102.442C269.968 102.087 269.525 101.91 268.965 101.91C268.591 101.91 268.251 101.999 267.943 102.176C267.635 102.353 267.378 102.615 267.173 102.96V108H266.151ZM275.989 108.126C275.504 108.126 275.075 108.037 274.701 107.86C274.328 107.683 274.034 107.44 273.819 107.132C273.614 106.815 273.511 106.451 273.511 106.04C273.511 105.629 273.619 105.275 273.833 104.976C274.048 104.668 274.347 104.43 274.729 104.262C275.112 104.094 275.56 104.01 276.073 104.01C276.465 104.01 276.834 104.052 277.179 104.136C277.534 104.22 277.861 104.355 278.159 104.542V103.604C278.159 103.044 278.01 102.624 277.711 102.344C277.413 102.055 276.974 101.91 276.395 101.91C276.078 101.91 275.751 101.957 275.415 102.05C275.089 102.143 274.725 102.293 274.323 102.498L273.945 101.714C274.86 101.275 275.719 101.056 276.521 101.056C277.371 101.056 278.024 101.266 278.481 101.686C278.939 102.097 279.167 102.689 279.167 103.464V108H278.159V107.202C277.861 107.51 277.529 107.743 277.165 107.902C276.801 108.051 276.409 108.126 275.989 108.126ZM274.491 106.012C274.491 106.413 274.645 106.735 274.953 106.978C275.271 107.221 275.686 107.342 276.199 107.342C276.582 107.342 276.932 107.277 277.249 107.146C277.576 107.015 277.879 106.819 278.159 106.558V105.242C277.87 105.074 277.571 104.953 277.263 104.878C276.955 104.794 276.61 104.752 276.227 104.752C275.705 104.752 275.285 104.869 274.967 105.102C274.65 105.326 274.491 105.629 274.491 106.012ZM283.643 108.14C283.055 108.14 282.607 108 282.299 107.72C282.001 107.431 281.851 107.015 281.851 106.474V102.008H280.437V101.168H281.851V99.292L282.873 99.054V101.168H284.833V102.008H282.873V106.208C282.873 106.572 282.948 106.833 283.097 106.992C283.256 107.151 283.513 107.23 283.867 107.23C284.045 107.23 284.203 107.216 284.343 107.188C284.483 107.16 284.647 107.113 284.833 107.048V107.958C284.647 108.023 284.451 108.07 284.245 108.098C284.04 108.126 283.839 108.14 283.643 108.14ZM286.526 108V98.2H290.488C291.086 98.2 291.604 98.3027 292.042 98.508C292.49 98.7133 292.836 99.0027 293.078 99.376C293.321 99.7493 293.442 100.188 293.442 100.692C293.442 101.233 293.284 101.7 292.966 102.092C292.658 102.475 292.238 102.745 291.706 102.904C292.36 103.053 292.873 103.338 293.246 103.758C293.629 104.169 293.82 104.677 293.82 105.284C293.82 105.825 293.69 106.301 293.428 106.712C293.167 107.123 292.798 107.44 292.322 107.664C291.846 107.888 291.286 108 290.642 108H286.526ZM287.604 102.484H290.404C291.002 102.484 291.478 102.335 291.832 102.036C292.187 101.728 292.364 101.317 292.364 100.804C292.364 100.291 292.187 99.8847 291.832 99.586C291.478 99.278 291.002 99.124 290.404 99.124H287.604V102.484ZM287.604 107.076H290.53C291.193 107.076 291.725 106.908 292.126 106.572C292.528 106.227 292.728 105.774 292.728 105.214C292.728 104.654 292.528 104.206 292.126 103.87C291.734 103.534 291.202 103.366 290.53 103.366H287.604V107.076ZM298.583 108.112C297.948 108.112 297.379 107.958 296.875 107.65C296.371 107.342 295.974 106.922 295.685 106.39C295.395 105.858 295.251 105.256 295.251 104.584C295.251 103.912 295.395 103.31 295.685 102.778C295.974 102.246 296.371 101.826 296.875 101.518C297.379 101.21 297.948 101.056 298.583 101.056C299.208 101.056 299.768 101.21 300.263 101.518C300.767 101.826 301.163 102.246 301.453 102.778C301.742 103.31 301.887 103.912 301.887 104.584C301.887 105.256 301.742 105.858 301.453 106.39C301.163 106.922 300.767 107.342 300.263 107.65C299.768 107.958 299.208 108.112 298.583 108.112ZM298.569 107.216C299.017 107.216 299.413 107.104 299.759 106.88C300.104 106.647 300.375 106.329 300.571 105.928C300.776 105.527 300.879 105.079 300.879 104.584C300.879 104.08 300.776 103.632 300.571 103.24C300.375 102.839 300.104 102.526 299.759 102.302C299.413 102.069 299.017 101.952 298.569 101.952C298.121 101.952 297.724 102.069 297.379 102.302C297.033 102.526 296.758 102.839 296.553 103.24C296.357 103.632 296.259 104.08 296.259 104.584C296.259 105.079 296.357 105.527 296.553 105.928C296.758 106.329 297.033 106.647 297.379 106.88C297.724 107.104 298.121 107.216 298.569 107.216ZM305.86 108.14C305.272 108.14 304.824 108 304.516 107.72C304.217 107.431 304.068 107.015 304.068 106.474V102.008H302.654V101.168H304.068V99.292L305.09 99.054V101.168H307.05V102.008H305.09V106.208C305.09 106.572 305.165 106.833 305.314 106.992C305.473 107.151 305.729 107.23 306.084 107.23C306.261 107.23 306.42 107.216 306.56 107.188C306.7 107.16 306.863 107.113 307.05 107.048V107.958C306.863 108.023 306.667 108.07 306.462 108.098C306.257 108.126 306.056 108.14 305.86 108.14ZM312.907 108V99.292L311.339 99.992V99.068L313.285 98.2H313.915V108H312.907Z" fill="#4D4D4D"/>
<path d="M769.022 108.154C768.322 108.154 767.669 108.028 767.062 107.776C766.465 107.515 765.937 107.155 765.48 106.698C765.023 106.231 764.668 105.695 764.416 105.088C764.164 104.472 764.038 103.809 764.038 103.1C764.038 102.391 764.164 101.733 764.416 101.126C764.668 100.51 765.023 99.9733 765.48 99.516C765.937 99.0493 766.465 98.69 767.062 98.438C767.669 98.1767 768.322 98.046 769.022 98.046C769.507 98.046 769.969 98.1113 770.408 98.242C770.856 98.3633 771.276 98.5453 771.668 98.788C772.06 99.0213 772.41 99.3107 772.718 99.656L772.004 100.398C771.64 99.9593 771.192 99.6233 770.66 99.39C770.137 99.1473 769.591 99.026 769.022 99.026C768.471 99.026 767.958 99.1287 767.482 99.334C767.006 99.5393 766.591 99.8287 766.236 100.202C765.891 100.575 765.62 101.009 765.424 101.504C765.228 101.989 765.13 102.521 765.13 103.1C765.13 103.669 765.228 104.201 765.424 104.696C765.62 105.191 765.891 105.625 766.236 105.998C766.591 106.371 767.006 106.661 767.482 106.866C767.958 107.071 768.471 107.174 769.022 107.174C769.591 107.174 770.137 107.053 770.66 106.81C771.192 106.567 771.64 106.231 772.004 105.802L772.718 106.544C772.41 106.889 772.06 107.183 771.668 107.426C771.276 107.659 770.856 107.841 770.408 107.972C769.969 108.093 769.507 108.154 769.022 108.154ZM774.462 108V97.892L775.484 97.682V102.274C775.745 101.863 776.058 101.56 776.422 101.364C776.786 101.159 777.197 101.056 777.654 101.056C778.149 101.056 778.578 101.163 778.942 101.378C779.315 101.583 779.605 101.877 779.81 102.26C780.025 102.633 780.132 103.072 780.132 103.576V108H779.11V103.87C779.11 103.263 778.942 102.787 778.606 102.442C778.279 102.087 777.836 101.91 777.276 101.91C776.903 101.91 776.562 101.999 776.254 102.176C775.946 102.353 775.689 102.615 775.484 102.96V108H774.462ZM784.301 108.126C783.815 108.126 783.386 108.037 783.013 107.86C782.639 107.683 782.345 107.44 782.131 107.132C781.925 106.815 781.823 106.451 781.823 106.04C781.823 105.629 781.93 105.275 782.145 104.976C782.359 104.668 782.658 104.43 783.041 104.262C783.423 104.094 783.871 104.01 784.385 104.01C784.777 104.01 785.145 104.052 785.491 104.136C785.845 104.22 786.172 104.355 786.471 104.542V103.604C786.471 103.044 786.321 102.624 786.023 102.344C785.724 102.055 785.285 101.91 784.707 101.91C784.389 101.91 784.063 101.957 783.727 102.05C783.4 102.143 783.036 102.293 782.635 102.498L782.257 101.714C783.171 101.275 784.03 101.056 784.833 101.056C785.682 101.056 786.335 101.266 786.793 101.686C787.25 102.097 787.479 102.689 787.479 103.464V108H786.471V107.202C786.172 107.51 785.841 107.743 785.477 107.902C785.113 108.051 784.721 108.126 784.301 108.126ZM782.803 106.012C782.803 106.413 782.957 106.735 783.265 106.978C783.582 107.221 783.997 107.342 784.511 107.342C784.893 107.342 785.243 107.277 785.561 107.146C785.887 107.015 786.191 106.819 786.471 106.558V105.242C786.181 105.074 785.883 104.953 785.575 104.878C785.267 104.794 784.921 104.752 784.539 104.752C784.016 104.752 783.596 104.869 783.279 105.102C782.961 105.326 782.803 105.629 782.803 106.012ZM791.955 108.14C791.367 108.14 790.919 108 790.611 107.72C790.312 107.431 790.163 107.015 790.163 106.474V102.008H788.749V101.168H790.163V99.292L791.185 99.054V101.168H793.145V102.008H791.185V106.208C791.185 106.572 791.259 106.833 791.409 106.992C791.567 107.151 791.824 107.23 792.179 107.23C792.356 107.23 792.515 107.216 792.655 107.188C792.795 107.16 792.958 107.113 793.145 107.048V107.958C792.958 108.023 792.762 108.07 792.557 108.098C792.351 108.126 792.151 108.14 791.955 108.14ZM794.838 108V98.2H798.8C799.397 98.2 799.915 98.3027 800.354 98.508C800.802 98.7133 801.147 99.0027 801.39 99.376C801.632 99.7493 801.754 100.188 801.754 100.692C801.754 101.233 801.595 101.7 801.278 102.092C800.97 102.475 800.55 102.745 800.018 102.904C800.671 103.053 801.184 103.338 801.558 103.758C801.94 104.169 802.132 104.677 802.132 105.284C802.132 105.825 802.001 106.301 801.74 106.712C801.478 107.123 801.11 107.44 800.634 107.664C800.158 107.888 799.598 108 798.954 108H794.838ZM795.916 102.484H798.716C799.313 102.484 799.789 102.335 800.144 102.036C800.498 101.728 800.676 101.317 800.676 100.804C800.676 100.291 800.498 99.8847 800.144 99.586C799.789 99.278 799.313 99.124 798.716 99.124H795.916V102.484ZM795.916 107.076H798.842C799.504 107.076 800.036 106.908 800.438 106.572C800.839 106.227 801.04 105.774 801.04 105.214C801.04 104.654 800.839 104.206 800.438 103.87C800.046 103.534 799.514 103.366 798.842 103.366H795.916V107.076ZM806.894 108.112C806.26 108.112 805.69 107.958 805.186 107.65C804.682 107.342 804.286 106.922 803.996 106.39C803.707 105.858 803.562 105.256 803.562 104.584C803.562 103.912 803.707 103.31 803.996 102.778C804.286 102.246 804.682 101.826 805.186 101.518C805.69 101.21 806.26 101.056 806.894 101.056C807.52 101.056 808.08 101.21 808.574 101.518C809.078 101.826 809.475 102.246 809.764 102.778C810.054 103.31 810.198 103.912 810.198 104.584C810.198 105.256 810.054 105.858 809.764 106.39C809.475 106.922 809.078 107.342 808.574 107.65C808.08 107.958 807.52 108.112 806.894 108.112ZM806.88 107.216C807.328 107.216 807.725 107.104 808.07 106.88C808.416 106.647 808.686 106.329 808.882 105.928C809.088 105.527 809.19 105.079 809.19 104.584C809.19 104.08 809.088 103.632 808.882 103.24C808.686 102.839 808.416 102.526 808.07 102.302C807.725 102.069 807.328 101.952 806.88 101.952C806.432 101.952 806.036 102.069 805.69 102.302C805.345 102.526 805.07 102.839 804.864 103.24C804.668 103.632 804.57 104.08 804.57 104.584C804.57 105.079 804.668 105.527 804.864 105.928C805.07 106.329 805.345 106.647 805.69 106.88C806.036 107.104 806.432 107.216 806.88 107.216ZM814.172 108.14C813.584 108.14 813.136 108 812.828 107.72C812.529 107.431 812.38 107.015 812.38 106.474V102.008H810.966V101.168H812.38V99.292L813.402 99.054V101.168H815.362V102.008H813.402V106.208C813.402 106.572 813.476 106.833 813.626 106.992C813.784 107.151 814.041 107.23 814.396 107.23C814.573 107.23 814.732 107.216 814.872 107.188C815.012 107.16 815.175 107.113 815.362 107.048V107.958C815.175 108.023 814.979 108.07 814.774 108.098C814.568 108.126 814.368 108.14 814.172 108.14ZM819.79 108V107.258L823.71 102.974C824.018 102.638 824.256 102.344 824.424 102.092C824.602 101.831 824.723 101.588 824.788 101.364C824.863 101.14 824.9 100.902 824.9 100.65C824.9 100.155 824.704 99.7493 824.312 99.432C823.93 99.1053 823.44 98.942 822.842 98.942C822.385 98.942 821.96 99.0307 821.568 99.208C821.176 99.3853 820.738 99.6933 820.252 100.132L819.664 99.432C820.178 98.9653 820.696 98.62 821.218 98.396C821.741 98.1627 822.287 98.046 822.856 98.046C823.444 98.046 823.967 98.158 824.424 98.382C824.882 98.5967 825.241 98.8953 825.502 99.278C825.764 99.6607 825.894 100.099 825.894 100.594C825.894 100.921 825.852 101.224 825.768 101.504C825.684 101.775 825.535 102.069 825.32 102.386C825.106 102.694 824.798 103.067 824.396 103.506L821.05 107.132L826.104 107.118V108H819.79Z" fill="#4D4D4D"/>
</g>
</g>
</g>
<defs>
<linearGradient id="paint0_linear_329_51763" x1="1569.07" y1="16.8044" x2="-234.756" y2="3023.17" gradientUnits="userSpaceOnUse">
<stop stop-color="#2B9AF3"/>
<stop offset="1" stop-color="#73BCF7" stop-opacity="0.502213"/>
</linearGradient>
<linearGradient id="paint1_linear_329_51763" x1="113.196" y1="-1439.07" x2="-2893.17" y2="364.756" gradientUnits="userSpaceOnUse">
<stop stop-color="#2B9AF3"/>
<stop offset="1" stop-color="#73BCF7" stop-opacity="0.502213"/>
</linearGradient>
<clipPath id="clip0_329_51763">
<rect width="1078" height="501" fill="white"/>
</clipPath>
<clipPath id="clip1_329_51763">
<rect width="1078" height="501" fill="white"/>
</clipPath>
<clipPath id="clip2_329_51763">
<path d="M24 85C24 76.1634 31.1634 69 40 69H1045C1053.84 69 1061 76.1634 1061 85V475C1061 483.837 1053.84 491 1045 491H40C31.1635 491 24 483.837 24 475V85Z" fill="white"/>
</clipPath>
</defs>
</svg>
