<svg width="529" height="179" viewBox="0 0 529 179" fill="none" xmlns="http://www.w3.org/2000/svg">
<rect width="529" height="179" fill="white"/>
<path d="M45 26.5C57.9787 26.5 68.5 37.0213 68.5 50C68.5 62.9787 57.9787 73.5 45 73.5C32.0213 73.5 21.5 62.9787 21.5 50C21.5 37.0213 32.0213 26.5 45 26.5Z" stroke="#C7C7C7"/>
<g clip-path="url(#clip0_1795_77456)">
<path d="M58.7 43.0714H46.6V39.75H48.525C49.2834 39.75 49.9 39.1294 49.9 38.3661V33.3839C49.9 32.6206 49.2834 32 48.525 32H42.475C41.7166 32 41.1 32.6206 41.1 33.3839V38.3661C41.1 39.1294 41.7166 39.75 42.475 39.75H44.4V43.0714H32.3C30.4803 43.0714 29 44.5613 29 46.3929V59.6786C29 61.5101 30.4803 63 32.3 63H58.7C60.5197 63 62 61.5101 62 59.6786V46.3929C62 44.5613 60.5197 43.0714 58.7 43.0714ZM43.3 34.2143H47.7V37.5357H43.3V34.2143ZM59.8 59.6786C59.8 60.2894 59.3069 60.7857 58.7 60.7857H32.3C31.6936 60.7857 31.2 60.2894 31.2 59.6786V46.3929C31.2 45.7825 31.6936 45.2857 32.3 45.2857H58.7C59.3069 45.2857 59.8 45.7825 59.8 46.3929V59.6786ZM37.525 49.7143V51.9286C37.525 52.387 37.1555 52.7589 36.7 52.7589H34.5C34.0445 52.7589 33.675 52.387 33.675 51.9286V49.7143C33.675 49.2559 34.0445 48.8839 34.5 48.8839H36.7C37.1555 48.8839 37.525 49.2559 37.525 49.7143ZM57.325 49.7143V51.9286C57.325 52.387 56.9555 52.7589 56.5 52.7589H54.3C53.8445 52.7589 53.475 52.387 53.475 51.9286V49.7143C53.475 49.2559 53.8445 48.8839 54.3 48.8839H56.5C56.9555 48.8839 57.325 49.2559 57.325 49.7143ZM49.5691 54.6683C49.8893 55.0965 49.8033 55.703 49.3779 56.0241C48.2521 56.8761 46.9115 57.3259 45.5 57.3259C44.0885 57.3259 42.7473 56.8761 41.6215 56.0241C41.1961 55.703 41.1107 55.0965 41.4298 54.6683C41.7494 54.2391 42.3536 54.1526 42.7774 54.4759C44.3576 55.6695 46.6408 55.6695 48.2221 54.4759C48.6475 54.1515 49.2512 54.2402 49.5691 54.6683Z" fill="#1F1F1F"/>
</g>
<path d="M94.176 41V31.2H98.544C99.1507 31.2 99.6873 31.3073 100.154 31.522C100.621 31.7367 100.98 32.04 101.232 32.432C101.493 32.8147 101.624 33.2627 101.624 33.776C101.624 34.28 101.479 34.7233 101.19 35.106C100.901 35.4793 100.513 35.7593 100.028 35.946C100.625 36.1233 101.097 36.4173 101.442 36.828C101.787 37.2293 101.96 37.71 101.96 38.27C101.96 38.8113 101.825 39.2873 101.554 39.698C101.283 40.1087 100.905 40.4307 100.42 40.664C99.9347 40.888 99.37 41 98.726 41H94.176ZM95.856 35.33H98.362C98.8473 35.33 99.23 35.204 99.51 34.952C99.7993 34.7 99.944 34.364 99.944 33.944C99.944 33.524 99.7993 33.1927 99.51 32.95C99.23 32.698 98.8473 32.572 98.362 32.572H95.856V35.33ZM95.856 39.628H98.516C99.048 39.628 99.4727 39.4927 99.79 39.222C100.107 38.942 100.266 38.5733 100.266 38.116C100.266 37.668 100.107 37.3087 99.79 37.038C99.482 36.758 99.0573 36.618 98.516 36.618H95.856V39.628ZM106.797 41.126C106.135 41.126 105.533 40.9673 104.991 40.65C104.459 40.3327 104.039 39.9033 103.731 39.362C103.423 38.8113 103.269 38.1907 103.269 37.5C103.269 36.8093 103.423 36.1933 103.731 35.652C104.039 35.1013 104.459 34.6673 104.991 34.35C105.523 34.0327 106.125 33.874 106.797 33.874C107.469 33.874 108.067 34.0327 108.589 34.35C109.121 34.6673 109.541 35.1013 109.849 35.652C110.157 36.1933 110.311 36.8093 110.311 37.5C110.311 38.1907 110.157 38.8113 109.849 39.362C109.541 39.9033 109.121 40.3327 108.589 40.65C108.067 40.9673 107.469 41.126 106.797 41.126ZM106.797 39.782C107.18 39.782 107.516 39.684 107.805 39.488C108.104 39.292 108.337 39.0213 108.505 38.676C108.673 38.3213 108.757 37.9293 108.757 37.5C108.757 37.0613 108.673 36.674 108.505 36.338C108.337 35.9927 108.104 35.722 107.805 35.526C107.516 35.3207 107.18 35.218 106.797 35.218C106.415 35.218 106.074 35.3207 105.775 35.526C105.477 35.722 105.243 35.9927 105.075 36.338C104.907 36.674 104.823 37.0613 104.823 37.5C104.823 37.9387 104.907 38.3307 105.075 38.676C105.243 39.0213 105.477 39.292 105.775 39.488C106.074 39.684 106.415 39.782 106.797 39.782ZM114.641 41.14C113.931 41.14 113.395 40.9767 113.031 40.65C112.667 40.314 112.485 39.824 112.485 39.18V35.246H111.085V33.986H112.485V32.054L114.067 31.718V33.986H116.013V35.246H114.067V38.83C114.067 39.1753 114.141 39.4227 114.291 39.572C114.44 39.712 114.692 39.782 115.047 39.782C115.205 39.782 115.35 39.7727 115.481 39.754C115.621 39.726 115.793 39.6793 115.999 39.614V40.944C115.803 41.0093 115.579 41.056 115.327 41.084C115.084 41.1213 114.855 41.14 114.641 41.14Z" fill="#151515"/>
<path d="M134 28H144C148.694 28 152.5 31.8056 152.5 36.5C152.5 41.1944 148.694 45 144 45H134C129.306 45 125.5 41.1944 125.5 36.5C125.5 31.8056 129.306 28 134 28Z" stroke="#C7C7C7"/>
<path d="M133.072 40.5L136.372 32.1H138.04L141.292 40.5H139.744L138.88 38.148H135.436L134.572 40.5H133.072ZM135.856 37.02H138.484L137.164 33.468L135.856 37.02ZM142.315 40.5V32.1H143.755V40.5H142.315Z" fill="#151515"/>
<path d="M162.836 40.5V33.036L161.492 33.636V32.844L163.16 32.1H163.7V40.5H162.836ZM166.18 40.596C166.004 40.596 165.852 40.532 165.724 40.404C165.604 40.276 165.544 40.124 165.544 39.948C165.544 39.764 165.604 39.612 165.724 39.492C165.852 39.364 166.004 39.3 166.18 39.3C166.356 39.3 166.504 39.364 166.624 39.492C166.752 39.612 166.816 39.764 166.816 39.948C166.816 40.124 166.752 40.276 166.624 40.404C166.504 40.532 166.356 40.596 166.18 40.596ZM166.18 35.832C166.004 35.832 165.852 35.768 165.724 35.64C165.604 35.512 165.544 35.36 165.544 35.184C165.544 35 165.604 34.848 165.724 34.728C165.852 34.6 166.004 34.536 166.18 34.536C166.356 34.536 166.504 34.6 166.624 34.728C166.752 34.848 166.816 35 166.816 35.184C166.816 35.36 166.752 35.512 166.624 35.64C166.504 35.768 166.356 35.832 166.18 35.832ZM171.064 40.632C170.488 40.632 169.948 40.532 169.444 40.332C168.948 40.132 168.508 39.836 168.124 39.444L168.7 38.88C169.052 39.232 169.412 39.488 169.78 39.648C170.156 39.8 170.58 39.876 171.052 39.876C171.46 39.876 171.82 39.804 172.132 39.66C172.452 39.516 172.7 39.316 172.876 39.06C173.052 38.804 173.14 38.512 173.14 38.184C173.14 37.872 173.06 37.596 172.9 37.356C172.748 37.108 172.536 36.916 172.264 36.78C171.992 36.644 171.68 36.576 171.328 36.576H170.332V35.832H171.292C171.748 35.832 172.116 35.692 172.396 35.412C172.684 35.132 172.828 34.768 172.828 34.32C172.828 34.024 172.748 33.756 172.588 33.516C172.428 33.276 172.208 33.088 171.928 32.952C171.656 32.808 171.348 32.736 171.004 32.736C170.572 32.736 170.184 32.816 169.84 32.976C169.504 33.128 169.16 33.388 168.808 33.756L168.232 33.18C168.608 32.78 169.032 32.48 169.504 32.28C169.976 32.072 170.48 31.968 171.016 31.968C171.528 31.968 171.984 32.068 172.384 32.268C172.792 32.468 173.112 32.744 173.344 33.096C173.576 33.44 173.692 33.832 173.692 34.272C173.692 34.712 173.548 35.108 173.26 35.46C172.972 35.804 172.592 36.044 172.12 36.18C172.688 36.308 173.144 36.556 173.488 36.924C173.832 37.292 174.004 37.72 174.004 38.208C174.004 38.672 173.876 39.088 173.62 39.456C173.372 39.824 173.024 40.112 172.576 40.32C172.136 40.528 171.632 40.632 171.064 40.632ZM178.554 40.632C177.914 40.632 177.346 40.448 176.85 40.08C176.362 39.712 175.978 39.204 175.698 38.556C175.418 37.9 175.278 37.148 175.278 36.3C175.278 35.444 175.418 34.692 175.698 34.044C175.978 33.396 176.362 32.888 176.85 32.52C177.346 32.152 177.914 31.968 178.554 31.968C179.194 31.968 179.758 32.152 180.246 32.52C180.742 32.888 181.13 33.396 181.41 34.044C181.69 34.692 181.83 35.444 181.83 36.3C181.83 37.148 181.69 37.9 181.41 38.556C181.13 39.204 180.742 39.712 180.246 40.08C179.758 40.448 179.194 40.632 178.554 40.632ZM178.554 39.852C179.042 39.852 179.462 39.708 179.814 39.42C180.174 39.124 180.454 38.712 180.654 38.184C180.854 37.648 180.954 37.02 180.954 36.3C180.954 35.58 180.854 34.956 180.654 34.428C180.454 33.892 180.174 33.48 179.814 33.192C179.462 32.896 179.042 32.748 178.554 32.748C178.074 32.748 177.654 32.896 177.294 33.192C176.934 33.48 176.654 33.892 176.454 34.428C176.254 34.956 176.154 35.58 176.154 36.3C176.154 37.02 176.254 37.648 176.454 38.184C176.654 38.712 176.934 39.124 177.294 39.42C177.654 39.708 178.074 39.852 178.554 39.852ZM186.384 40.5V32.1H189.852C190.396 32.1 190.868 32.204 191.268 32.412C191.668 32.612 191.976 32.9 192.192 33.276C192.416 33.644 192.528 34.08 192.528 34.584C192.528 35.08 192.416 35.516 192.192 35.892C191.976 36.268 191.668 36.56 191.268 36.768C190.868 36.968 190.396 37.068 189.852 37.068H187.308V40.5H186.384ZM187.308 36.276H189.744C190.328 36.276 190.784 36.124 191.112 35.82C191.44 35.516 191.604 35.104 191.604 34.584C191.604 34.064 191.44 33.656 191.112 33.36C190.784 33.064 190.328 32.916 189.744 32.916H187.308V36.276ZM194.236 40.5V32.1H195.52L198.328 38.076L201.136 32.1H202.42V40.5H201.544V33.192L198.328 39.9L195.1 33.168V40.5H194.236Z" fill="#151515"/>
<path d="M97.32 77V66.888H93.448V65.8H102.424V66.888H98.552V77H97.32ZM105.937 77.128C105.212 77.128 104.561 76.952 103.985 76.6C103.409 76.248 102.956 75.768 102.625 75.16C102.295 74.552 102.129 73.864 102.129 73.096C102.129 72.328 102.295 71.64 102.625 71.032C102.956 70.424 103.409 69.944 103.985 69.592C104.561 69.24 105.212 69.064 105.937 69.064C106.652 69.064 107.292 69.24 107.857 69.592C108.433 69.944 108.887 70.424 109.217 71.032C109.548 71.64 109.713 72.328 109.713 73.096C109.713 73.864 109.548 74.552 109.217 75.16C108.887 75.768 108.433 76.248 107.857 76.6C107.292 76.952 106.652 77.128 105.937 77.128ZM105.921 76.104C106.433 76.104 106.887 75.976 107.281 75.72C107.676 75.4533 107.985 75.0907 108.209 74.632C108.444 74.1733 108.561 73.6613 108.561 73.096C108.561 72.52 108.444 72.008 108.209 71.56C107.985 71.1013 107.676 70.744 107.281 70.488C106.887 70.2213 106.433 70.088 105.921 70.088C105.409 70.088 104.956 70.2213 104.561 70.488C104.167 70.744 103.852 71.1013 103.617 71.56C103.393 72.008 103.281 72.52 103.281 73.096C103.281 73.6613 103.393 74.1733 103.617 74.632C103.852 75.0907 104.167 75.4533 104.561 75.72C104.956 75.976 105.409 76.104 105.921 76.104ZM117.913 77.16C117.273 77.16 116.681 77.064 116.137 76.872C115.593 76.6693 115.129 76.3813 114.745 76.008L115.369 75.24C115.838 75.5813 116.27 75.832 116.665 75.992C117.06 76.1413 117.465 76.216 117.881 76.216C118.446 76.216 118.916 76.0827 119.289 75.816C119.662 75.5493 119.849 75.208 119.849 74.792C119.849 74.472 119.737 74.2213 119.513 74.04C119.3 73.8587 118.942 73.72 118.441 73.624L117.161 73.4C116.404 73.2613 115.844 73.0267 115.481 72.696C115.129 72.3653 114.953 71.9173 114.953 71.352C114.953 70.904 115.07 70.5093 115.305 70.168C115.55 69.8267 115.886 69.56 116.313 69.368C116.74 69.1653 117.225 69.064 117.769 69.064C118.302 69.064 118.809 69.144 119.289 69.304C119.769 69.4533 120.254 69.6987 120.745 70.04L120.169 70.856C119.764 70.568 119.358 70.36 118.953 70.232C118.548 70.0933 118.137 70.024 117.721 70.024C117.209 70.024 116.798 70.136 116.489 70.36C116.18 70.584 116.025 70.888 116.025 71.272C116.025 71.592 116.121 71.8373 116.313 72.008C116.516 72.1787 116.868 72.3067 117.369 72.392L118.681 72.632C119.47 72.7707 120.046 73.0107 120.409 73.352C120.772 73.6933 120.953 74.152 120.953 74.728C120.953 75.1867 120.82 75.6027 120.553 75.976C120.286 76.3387 119.924 76.6267 119.465 76.84C119.006 77.0533 118.489 77.16 117.913 77.16ZM126.329 77.16C125.604 77.16 124.948 76.984 124.361 76.632C123.775 76.2693 123.311 75.784 122.969 75.176C122.628 74.5573 122.457 73.864 122.457 73.096C122.457 72.328 122.617 71.64 122.937 71.032C123.268 70.424 123.711 69.944 124.265 69.592C124.82 69.24 125.439 69.064 126.121 69.064C126.815 69.064 127.428 69.24 127.961 69.592C128.505 69.9333 128.932 70.4027 129.241 71C129.561 71.5867 129.721 72.2533 129.721 73V73.352H123.593C123.636 73.8853 123.78 74.3653 124.025 74.792C124.281 75.208 124.612 75.5387 125.017 75.784C125.433 76.0187 125.887 76.136 126.377 76.136C126.783 76.136 127.172 76.0667 127.545 75.928C127.929 75.7787 128.255 75.5813 128.521 75.336L129.257 76.12C128.809 76.472 128.345 76.7333 127.865 76.904C127.385 77.0747 126.873 77.16 126.329 77.16ZM123.625 72.52H128.569C128.516 72.0507 128.372 71.6347 128.137 71.272C127.913 70.8987 127.625 70.6053 127.273 70.392C126.932 70.1787 126.548 70.072 126.121 70.072C125.695 70.072 125.305 70.1787 124.953 70.392C124.601 70.5947 124.308 70.8827 124.073 71.256C123.849 71.6187 123.7 72.04 123.625 72.52ZM134.457 77.16C133.785 77.16 133.273 77 132.921 76.68C132.58 76.3493 132.409 75.8747 132.409 75.256V70.152H130.793V69.192H132.409V67.048L133.577 66.776V69.192H135.817V70.152H133.577V74.952C133.577 75.368 133.663 75.6667 133.833 75.848C134.015 76.0293 134.308 76.12 134.713 76.12C134.916 76.12 135.097 76.104 135.257 76.072C135.417 76.04 135.604 75.9867 135.817 75.912V76.952C135.604 77.0267 135.38 77.08 135.145 77.112C134.911 77.144 134.681 77.16 134.457 77.16ZM144.047 77.128C143.492 77.128 143.001 77.0053 142.575 76.76C142.148 76.5147 141.812 76.1733 141.567 75.736C141.332 75.2987 141.215 74.7973 141.215 74.232V69.192H142.399V73.896C142.399 74.5893 142.585 75.1387 142.959 75.544C143.332 75.9493 143.839 76.152 144.479 76.152C144.916 76.152 145.305 76.0507 145.647 75.848C145.999 75.6453 146.292 75.352 146.527 74.968V69.192H147.695V77H146.527V75.736C146.228 76.1947 145.871 76.5413 145.455 76.776C145.049 77.0107 144.58 77.128 144.047 77.128ZM150.091 80.344V69.192H151.243V70.312C151.541 69.9173 151.904 69.6187 152.331 69.416C152.768 69.2027 153.248 69.096 153.771 69.096C154.453 69.096 155.061 69.2773 155.595 69.64C156.139 69.992 156.571 70.472 156.891 71.08C157.211 71.6773 157.371 72.3493 157.371 73.096C157.371 73.8427 157.205 74.52 156.875 75.128C156.555 75.736 156.117 76.2213 155.563 76.584C155.019 76.936 154.4 77.112 153.707 77.112C153.216 77.112 152.763 77.0213 152.347 76.84C151.931 76.648 151.568 76.376 151.259 76.024V80.344H150.091ZM153.483 76.104C154.005 76.104 154.469 75.976 154.875 75.72C155.291 75.4533 155.616 75.096 155.851 74.648C156.096 74.1893 156.219 73.6773 156.219 73.112C156.219 72.536 156.096 72.024 155.851 71.576C155.616 71.128 155.291 70.776 154.875 70.52C154.469 70.2533 154.005 70.12 153.483 70.12C153.024 70.12 152.597 70.216 152.203 70.408C151.819 70.5893 151.504 70.8507 151.259 71.192V75.016C151.515 75.3573 151.835 75.624 152.219 75.816C152.613 76.008 153.035 76.104 153.483 76.104ZM163.489 80.504C163.244 80.504 162.993 80.4667 162.737 80.392V79.352C162.844 79.3733 162.956 79.3893 163.073 79.4C163.19 79.4107 163.292 79.416 163.377 79.416C163.676 79.416 163.921 79.336 164.113 79.176C164.316 79.016 164.486 78.7653 164.625 78.424L165.201 77L162.193 69.192H163.489L165.857 75.608L168.369 69.192H169.665L165.729 78.776C165.558 79.192 165.372 79.528 165.169 79.784C164.966 80.04 164.732 80.2213 164.465 80.328C164.198 80.4453 163.873 80.504 163.489 80.504ZM174.344 77.128C173.618 77.128 172.968 76.952 172.392 76.6C171.816 76.248 171.362 75.768 171.032 75.16C170.701 74.552 170.536 73.864 170.536 73.096C170.536 72.328 170.701 71.64 171.032 71.032C171.362 70.424 171.816 69.944 172.392 69.592C172.968 69.24 173.618 69.064 174.344 69.064C175.058 69.064 175.698 69.24 176.264 69.592C176.84 69.944 177.293 70.424 177.624 71.032C177.954 71.64 178.12 72.328 178.12 73.096C178.12 73.864 177.954 74.552 177.624 75.16C177.293 75.768 176.84 76.248 176.264 76.6C175.698 76.952 175.058 77.128 174.344 77.128ZM174.328 76.104C174.84 76.104 175.293 75.976 175.688 75.72C176.082 75.4533 176.392 75.0907 176.616 74.632C176.85 74.1733 176.968 73.6613 176.968 73.096C176.968 72.52 176.85 72.008 176.616 71.56C176.392 71.1013 176.082 70.744 175.688 70.488C175.293 70.2213 174.84 70.088 174.328 70.088C173.816 70.088 173.362 70.2213 172.968 70.488C172.573 70.744 172.258 71.1013 172.024 71.56C171.8 72.008 171.688 72.52 171.688 73.096C171.688 73.6613 171.8 74.1733 172.024 74.632C172.258 75.0907 172.573 75.4533 172.968 75.72C173.362 75.976 173.816 76.104 174.328 76.104ZM182.953 77.128C182.398 77.128 181.907 77.0053 181.481 76.76C181.054 76.5147 180.718 76.1733 180.473 75.736C180.238 75.2987 180.121 74.7973 180.121 74.232V69.192H181.305V73.896C181.305 74.5893 181.491 75.1387 181.865 75.544C182.238 75.9493 182.745 76.152 183.385 76.152C183.822 76.152 184.211 76.0507 184.553 75.848C184.905 75.6453 185.198 75.352 185.433 74.968V69.192H186.601V77H185.433V75.736C185.134 76.1947 184.777 76.5413 184.361 76.776C183.955 77.0107 183.486 77.128 182.953 77.128ZM188.997 77V69.192H190.165V70.792C190.368 70.248 190.656 69.8267 191.029 69.528C191.413 69.2187 191.85 69.064 192.341 69.064C192.48 69.064 192.608 69.0747 192.725 69.096C192.842 69.1067 192.96 69.1333 193.077 69.176V70.232C192.949 70.1893 192.81 70.1573 192.661 70.136C192.522 70.104 192.389 70.088 192.261 70.088C191.781 70.088 191.36 70.2267 190.997 70.504C190.645 70.7813 190.368 71.1707 190.165 71.672V77H188.997ZM200.772 77.144C200.218 77.144 199.727 77.0427 199.3 76.84C198.874 76.6373 198.538 76.36 198.292 76.008C198.058 75.6453 197.94 75.2293 197.94 74.76C197.94 74.2907 198.063 73.8853 198.308 73.544C198.554 73.192 198.895 72.92 199.332 72.728C199.77 72.536 200.282 72.44 200.868 72.44C201.316 72.44 201.738 72.488 202.132 72.584C202.538 72.68 202.911 72.8347 203.252 73.048V71.976C203.252 71.336 203.082 70.856 202.74 70.536C202.399 70.2053 201.898 70.04 201.236 70.04C200.874 70.04 200.5 70.0933 200.116 70.2C199.743 70.3067 199.327 70.4773 198.868 70.712L198.436 69.816C199.482 69.3147 200.463 69.064 201.38 69.064C202.351 69.064 203.098 69.304 203.62 69.784C204.143 70.2533 204.404 70.9307 204.404 71.816V77H203.252V76.088C202.911 76.44 202.532 76.7067 202.116 76.888C201.7 77.0587 201.252 77.144 200.772 77.144ZM199.06 74.728C199.06 75.1867 199.236 75.5547 199.588 75.832C199.951 76.1093 200.426 76.248 201.012 76.248C201.45 76.248 201.85 76.1733 202.212 76.024C202.586 75.8747 202.932 75.6507 203.252 75.352V73.848C202.922 73.656 202.58 73.5173 202.228 73.432C201.876 73.336 201.482 73.288 201.044 73.288C200.447 73.288 199.967 73.4213 199.604 73.688C199.242 73.944 199.06 74.2907 199.06 74.728ZM210.282 77.128C209.557 77.128 208.901 76.952 208.314 76.6C207.738 76.2373 207.279 75.752 206.938 75.144C206.597 74.5253 206.426 73.8427 206.426 73.096C206.426 72.3387 206.597 71.656 206.938 71.048C207.279 70.44 207.738 69.96 208.314 69.608C208.901 69.2453 209.557 69.064 210.282 69.064C210.858 69.064 211.407 69.1707 211.93 69.384C212.453 69.5973 212.906 69.896 213.29 70.28L212.538 71.096C212.261 70.7867 211.925 70.5467 211.53 70.376C211.135 70.2053 210.735 70.12 210.33 70.12C209.818 70.12 209.354 70.2533 208.938 70.52C208.533 70.7867 208.207 71.144 207.962 71.592C207.717 72.04 207.594 72.5413 207.594 73.096C207.594 73.6507 207.717 74.152 207.962 74.6C208.207 75.048 208.533 75.4053 208.938 75.672C209.354 75.9387 209.818 76.072 210.33 76.072C210.735 76.072 211.135 75.9867 211.53 75.816C211.925 75.6347 212.261 75.3947 212.538 75.096L213.29 75.912C212.906 76.296 212.453 76.5947 211.93 76.808C211.407 77.0213 210.858 77.128 210.282 77.128ZM218.188 77.128C217.463 77.128 216.807 76.952 216.22 76.6C215.644 76.2373 215.186 75.752 214.844 75.144C214.503 74.5253 214.332 73.8427 214.332 73.096C214.332 72.3387 214.503 71.656 214.844 71.048C215.186 70.44 215.644 69.96 216.22 69.608C216.807 69.2453 217.463 69.064 218.188 69.064C218.764 69.064 219.314 69.1707 219.836 69.384C220.359 69.5973 220.812 69.896 221.196 70.28L220.444 71.096C220.167 70.7867 219.831 70.5467 219.436 70.376C219.042 70.2053 218.642 70.12 218.236 70.12C217.724 70.12 217.26 70.2533 216.844 70.52C216.439 70.7867 216.114 71.144 215.868 71.592C215.623 72.04 215.5 72.5413 215.5 73.096C215.5 73.6507 215.623 74.152 215.868 74.6C216.114 75.048 216.439 75.4053 216.844 75.672C217.26 75.9387 217.724 76.072 218.236 76.072C218.642 76.072 219.042 75.9867 219.436 75.816C219.831 75.6347 220.167 75.3947 220.444 75.096L221.196 75.912C220.812 76.296 220.359 76.5947 219.836 76.808C219.314 77.0213 218.764 77.128 218.188 77.128ZM226.047 77.128C225.321 77.128 224.671 76.952 224.095 76.6C223.519 76.248 223.065 75.768 222.735 75.16C222.404 74.552 222.239 73.864 222.239 73.096C222.239 72.328 222.404 71.64 222.735 71.032C223.065 70.424 223.519 69.944 224.095 69.592C224.671 69.24 225.321 69.064 226.047 69.064C226.761 69.064 227.401 69.24 227.967 69.592C228.543 69.944 228.996 70.424 229.327 71.032C229.657 71.64 229.823 72.328 229.823 73.096C229.823 73.864 229.657 74.552 229.327 75.16C228.996 75.768 228.543 76.248 227.967 76.6C227.401 76.952 226.761 77.128 226.047 77.128ZM226.031 76.104C226.543 76.104 226.996 75.976 227.391 75.72C227.785 75.4533 228.095 75.0907 228.319 74.632C228.553 74.1733 228.671 73.6613 228.671 73.096C228.671 72.52 228.553 72.008 228.319 71.56C228.095 71.1013 227.785 70.744 227.391 70.488C226.996 70.2213 226.543 70.088 226.031 70.088C225.519 70.088 225.065 70.2213 224.671 70.488C224.276 70.744 223.961 71.1013 223.727 71.56C223.503 72.008 223.391 72.52 223.391 73.096C223.391 73.6613 223.503 74.1733 223.727 74.632C223.961 75.0907 224.276 75.4533 224.671 75.72C225.065 75.976 225.519 76.104 226.031 76.104ZM234.656 77.128C234.101 77.128 233.611 77.0053 233.184 76.76C232.757 76.5147 232.421 76.1733 232.176 75.736C231.941 75.2987 231.824 74.7973 231.824 74.232V69.192H233.008V73.896C233.008 74.5893 233.195 75.1387 233.568 75.544C233.941 75.9493 234.448 76.152 235.088 76.152C235.525 76.152 235.915 76.0507 236.256 75.848C236.608 75.6453 236.901 75.352 237.136 74.968V69.192H238.304V77H237.136V75.736C236.837 76.1947 236.48 76.5413 236.064 76.776C235.659 77.0107 235.189 77.128 234.656 77.128ZM240.7 77V69.192H241.868V70.456C242.167 69.9867 242.524 69.64 242.94 69.416C243.356 69.1813 243.825 69.064 244.348 69.064C244.913 69.064 245.404 69.1867 245.82 69.432C246.247 69.6667 246.577 70.0027 246.812 70.44C247.057 70.8667 247.18 71.368 247.18 71.944V77H246.012V72.28C246.012 71.5867 245.82 71.0427 245.436 70.648C245.063 70.2427 244.556 70.04 243.916 70.04C243.489 70.04 243.1 70.1413 242.748 70.344C242.396 70.5467 242.103 70.8453 241.868 71.24V77H240.7ZM252.27 77.16C251.598 77.16 251.086 77 250.734 76.68C250.392 76.3493 250.222 75.8747 250.222 75.256V70.152H248.606V69.192H250.222V67.048L251.39 66.776V69.192H253.63V70.152H251.39V74.952C251.39 75.368 251.475 75.6667 251.646 75.848C251.827 76.0293 252.12 76.12 252.526 76.12C252.728 76.12 252.91 76.104 253.07 76.072C253.23 76.04 253.416 75.9867 253.63 75.912V76.952C253.416 77.0267 253.192 77.08 252.958 77.112C252.723 77.144 252.494 77.16 252.27 77.16ZM262.579 77.128C261.854 77.128 261.198 76.952 260.611 76.6C260.035 76.2373 259.576 75.752 259.235 75.144C258.894 74.5253 258.723 73.8427 258.723 73.096C258.723 72.3387 258.894 71.656 259.235 71.048C259.576 70.44 260.035 69.96 260.611 69.608C261.198 69.2453 261.854 69.064 262.579 69.064C263.155 69.064 263.704 69.1707 264.227 69.384C264.75 69.5973 265.203 69.896 265.587 70.28L264.835 71.096C264.558 70.7867 264.222 70.5467 263.827 70.376C263.432 70.2053 263.032 70.12 262.627 70.12C262.115 70.12 261.651 70.2533 261.235 70.52C260.83 70.7867 260.504 71.144 260.259 71.592C260.014 72.04 259.891 72.5413 259.891 73.096C259.891 73.6507 260.014 74.152 260.259 74.6C260.504 75.048 260.83 75.4053 261.235 75.672C261.651 75.9387 262.115 76.072 262.627 76.072C263.032 76.072 263.432 75.9867 263.827 75.816C264.222 75.6347 264.558 75.3947 264.835 75.096L265.587 75.912C265.203 76.296 264.75 76.5947 264.227 76.808C263.704 77.0213 263.155 77.128 262.579 77.128ZM267.216 77V69.192H268.384V70.792C268.586 70.248 268.874 69.8267 269.248 69.528C269.632 69.2187 270.069 69.064 270.56 69.064C270.698 69.064 270.826 69.0747 270.944 69.096C271.061 69.1067 271.178 69.1333 271.296 69.176V70.232C271.168 70.1893 271.029 70.1573 270.88 70.136C270.741 70.104 270.608 70.088 270.48 70.088C270 70.088 269.578 70.2267 269.216 70.504C268.864 70.7813 268.586 71.1707 268.384 71.672V77H267.216ZM275.876 77.16C275.151 77.16 274.495 76.984 273.908 76.632C273.322 76.2693 272.858 75.784 272.516 75.176C272.175 74.5573 272.004 73.864 272.004 73.096C272.004 72.328 272.164 71.64 272.484 71.032C272.815 70.424 273.258 69.944 273.812 69.592C274.367 69.24 274.986 69.064 275.668 69.064C276.362 69.064 276.975 69.24 277.508 69.592C278.052 69.9333 278.479 70.4027 278.788 71C279.108 71.5867 279.268 72.2533 279.268 73V73.352H273.14C273.183 73.8853 273.327 74.3653 273.572 74.792C273.828 75.208 274.159 75.5387 274.564 75.784C274.98 76.0187 275.434 76.136 275.924 76.136C276.33 76.136 276.719 76.0667 277.092 75.928C277.476 75.7787 277.802 75.5813 278.068 75.336L278.804 76.12C278.356 76.472 277.892 76.7333 277.412 76.904C276.932 77.0747 276.42 77.16 275.876 77.16ZM273.172 72.52H278.116C278.063 72.0507 277.919 71.6347 277.684 71.272C277.46 70.8987 277.172 70.6053 276.82 70.392C276.479 70.1787 276.095 70.072 275.668 70.072C275.242 70.072 274.852 70.1787 274.5 70.392C274.148 70.5947 273.855 70.8827 273.62 71.256C273.396 71.6187 273.247 72.04 273.172 72.52ZM284.511 77.112C283.839 77.112 283.231 76.936 282.687 76.584C282.143 76.2213 281.711 75.7413 281.391 75.144C281.071 74.536 280.911 73.8587 280.911 73.112C280.911 72.3547 281.071 71.6773 281.391 71.08C281.721 70.472 282.164 69.992 282.719 69.64C283.273 69.2773 283.892 69.096 284.575 69.096C285.055 69.096 285.503 69.192 285.919 69.384C286.335 69.5653 286.697 69.832 287.007 70.184V65.448L288.175 65.208V77H287.007V75.96C286.708 76.3333 286.345 76.6213 285.919 76.824C285.492 77.016 285.023 77.112 284.511 77.112ZM284.799 76.088C285.257 76.088 285.679 75.9973 286.063 75.816C286.447 75.6347 286.761 75.3787 287.007 75.048V71.176C286.751 70.8453 286.425 70.5893 286.031 70.408C285.647 70.216 285.236 70.12 284.799 70.12C284.276 70.12 283.807 70.248 283.391 70.504C282.985 70.76 282.66 71.112 282.414 71.56C282.18 72.008 282.062 72.52 282.062 73.096C282.062 73.6613 282.18 74.1733 282.414 74.632C282.66 75.08 282.985 75.4373 283.391 75.704C283.807 75.96 284.276 76.088 284.799 76.088ZM294.095 77.16C293.37 77.16 292.714 76.984 292.127 76.632C291.54 76.2693 291.076 75.784 290.735 75.176C290.394 74.5573 290.223 73.864 290.223 73.096C290.223 72.328 290.383 71.64 290.703 71.032C291.034 70.424 291.476 69.944 292.031 69.592C292.586 69.24 293.204 69.064 293.887 69.064C294.58 69.064 295.194 69.24 295.727 69.592C296.271 69.9333 296.698 70.4027 297.007 71C297.327 71.5867 297.487 72.2533 297.487 73V73.352H291.359C291.402 73.8853 291.546 74.3653 291.791 74.792C292.047 75.208 292.378 75.5387 292.783 75.784C293.199 76.0187 293.652 76.136 294.143 76.136C294.548 76.136 294.938 76.0667 295.311 75.928C295.695 75.7787 296.02 75.5813 296.287 75.336L297.023 76.12C296.575 76.472 296.111 76.7333 295.631 76.904C295.151 77.0747 294.639 77.16 294.095 77.16ZM291.391 72.52H296.335C296.282 72.0507 296.138 71.6347 295.903 71.272C295.679 70.8987 295.391 70.6053 295.039 70.392C294.698 70.1787 294.314 70.072 293.887 70.072C293.46 70.072 293.071 70.1787 292.719 70.392C292.367 70.5947 292.074 70.8827 291.839 71.256C291.615 71.6187 291.466 72.04 291.391 72.52ZM299.481 77V69.192H300.649V70.456C300.948 69.9867 301.305 69.64 301.721 69.416C302.137 69.1813 302.607 69.064 303.129 69.064C303.695 69.064 304.185 69.1867 304.601 69.432C305.028 69.6667 305.359 70.0027 305.593 70.44C305.839 70.8667 305.961 71.368 305.961 71.944V77H304.793V72.28C304.793 71.5867 304.601 71.0427 304.217 70.648C303.844 70.2427 303.337 70.04 302.697 70.04C302.271 70.04 301.881 70.1413 301.529 70.344C301.177 70.5467 300.884 70.8453 300.649 71.24V77H299.481ZM311.051 77.16C310.379 77.16 309.867 77 309.515 76.68C309.174 76.3493 309.003 75.8747 309.003 75.256V70.152H307.387V69.192H309.003V67.048L310.171 66.776V69.192H312.411V70.152H310.171V74.952C310.171 75.368 310.256 75.6667 310.427 75.848C310.608 76.0293 310.902 76.12 311.307 76.12C311.51 76.12 311.691 76.104 311.851 76.072C312.011 76.04 312.198 75.9867 312.411 75.912V76.952C312.198 77.0267 311.974 77.08 311.739 77.112C311.504 77.144 311.275 77.16 311.051 77.16ZM314.106 77V69.192H315.274V77H314.106ZM314.698 67.256C314.463 67.256 314.261 67.176 314.09 67.016C313.93 66.8453 313.85 66.648 313.85 66.424C313.85 66.2 313.93 66.008 314.09 65.848C314.261 65.6773 314.463 65.592 314.698 65.592C314.933 65.592 315.13 65.6773 315.29 65.848C315.461 66.008 315.546 66.2 315.546 66.424C315.546 66.648 315.461 66.8453 315.29 67.016C315.13 67.176 314.933 67.256 314.698 67.256ZM320.085 77.144C319.53 77.144 319.039 77.0427 318.613 76.84C318.186 76.6373 317.85 76.36 317.605 76.008C317.37 75.6453 317.253 75.2293 317.253 74.76C317.253 74.2907 317.375 73.8853 317.621 73.544C317.866 73.192 318.207 72.92 318.645 72.728C319.082 72.536 319.594 72.44 320.181 72.44C320.629 72.44 321.05 72.488 321.445 72.584C321.85 72.68 322.223 72.8347 322.565 73.048V71.976C322.565 71.336 322.394 70.856 322.053 70.536C321.711 70.2053 321.21 70.04 320.549 70.04C320.186 70.04 319.813 70.0933 319.429 70.2C319.055 70.3067 318.639 70.4773 318.181 70.712L317.749 69.816C318.794 69.3147 319.775 69.064 320.693 69.064C321.663 69.064 322.41 69.304 322.933 69.784C323.455 70.2533 323.717 70.9307 323.717 71.816V77H322.565V76.088C322.223 76.44 321.845 76.7067 321.429 76.888C321.013 77.0587 320.565 77.144 320.085 77.144ZM318.373 74.728C318.373 75.1867 318.549 75.5547 318.901 75.832C319.263 76.1093 319.738 76.248 320.325 76.248C320.762 76.248 321.162 76.1733 321.525 76.024C321.898 75.8747 322.245 75.6507 322.565 75.352V73.848C322.234 73.656 321.893 73.5173 321.541 73.432C321.189 73.336 320.794 73.288 320.357 73.288C319.759 73.288 319.279 73.4213 318.917 73.688C318.554 73.944 318.373 74.2907 318.373 74.728ZM326.091 77V65.448L327.259 65.208V77H326.091ZM332.069 77.16C331.429 77.16 330.837 77.064 330.293 76.872C329.749 76.6693 329.285 76.3813 328.901 76.008L329.525 75.24C329.994 75.5813 330.426 75.832 330.821 75.992C331.216 76.1413 331.621 76.216 332.037 76.216C332.602 76.216 333.072 76.0827 333.445 75.816C333.818 75.5493 334.005 75.208 334.005 74.792C334.005 74.472 333.893 74.2213 333.669 74.04C333.456 73.8587 333.098 73.72 332.597 73.624L331.317 73.4C330.56 73.2613 330 73.0267 329.637 72.696C329.285 72.3653 329.109 71.9173 329.109 71.352C329.109 70.904 329.226 70.5093 329.461 70.168C329.706 69.8267 330.042 69.56 330.469 69.368C330.896 69.1653 331.381 69.064 331.925 69.064C332.458 69.064 332.965 69.144 333.445 69.304C333.925 69.4533 334.41 69.6987 334.901 70.04L334.325 70.856C333.92 70.568 333.514 70.36 333.109 70.232C332.704 70.0933 332.293 70.024 331.877 70.024C331.365 70.024 330.954 70.136 330.645 70.36C330.336 70.584 330.181 70.888 330.181 71.272C330.181 71.592 330.277 71.8373 330.469 72.008C330.672 72.1787 331.024 72.3067 331.525 72.392L332.837 72.632C333.626 72.7707 334.202 73.0107 334.565 73.352C334.928 73.6933 335.109 74.152 335.109 74.728C335.109 75.1867 334.976 75.6027 334.709 75.976C334.442 76.3387 334.08 76.6267 333.621 76.84C333.162 77.0533 332.645 77.16 332.069 77.16ZM336.331 79.512L337.291 75.816H338.539L337.243 79.512H336.331ZM344.466 77V69.192H345.634V70.792C345.836 70.248 346.124 69.8267 346.498 69.528C346.882 69.2187 347.319 69.064 347.81 69.064C347.948 69.064 348.076 69.0747 348.194 69.096C348.311 69.1067 348.428 69.1333 348.546 69.176V70.232C348.418 70.1893 348.279 70.1573 348.13 70.136C347.991 70.104 347.858 70.088 347.73 70.088C347.25 70.088 346.828 70.2267 346.466 70.504C346.114 70.7813 345.836 71.1707 345.634 71.672V77H344.466ZM353.126 77.16C352.401 77.16 351.745 76.984 351.158 76.632C350.572 76.2693 350.108 75.784 349.766 75.176C349.425 74.5573 349.254 73.864 349.254 73.096C349.254 72.328 349.414 71.64 349.734 71.032C350.065 70.424 350.508 69.944 351.062 69.592C351.617 69.24 352.236 69.064 352.918 69.064C353.612 69.064 354.225 69.24 354.758 69.592C355.302 69.9333 355.729 70.4027 356.038 71C356.358 71.5867 356.518 72.2533 356.518 73V73.352H350.39C350.433 73.8853 350.577 74.3653 350.822 74.792C351.078 75.208 351.409 75.5387 351.814 75.784C352.23 76.0187 352.684 76.136 353.174 76.136C353.58 76.136 353.969 76.0667 354.342 75.928C354.726 75.7787 355.052 75.5813 355.318 75.336L356.054 76.12C355.606 76.472 355.142 76.7333 354.662 76.904C354.182 77.0747 353.67 77.16 353.126 77.16ZM350.422 72.52H355.366C355.313 72.0507 355.169 71.6347 354.934 71.272C354.71 70.8987 354.422 70.6053 354.07 70.392C353.729 70.1787 353.345 70.072 352.918 70.072C352.492 70.072 352.102 70.1787 351.75 70.392C351.398 70.5947 351.105 70.8827 350.87 71.256C350.646 71.6187 350.497 72.04 350.422 72.52ZM360.772 77.144C360.218 77.144 359.727 77.0427 359.3 76.84C358.874 76.6373 358.538 76.36 358.292 76.008C358.058 75.6453 357.94 75.2293 357.94 74.76C357.94 74.2907 358.063 73.8853 358.308 73.544C358.554 73.192 358.895 72.92 359.332 72.728C359.77 72.536 360.282 72.44 360.868 72.44C361.316 72.44 361.738 72.488 362.132 72.584C362.538 72.68 362.911 72.8347 363.252 73.048V71.976C363.252 71.336 363.082 70.856 362.74 70.536C362.399 70.2053 361.898 70.04 361.236 70.04C360.874 70.04 360.5 70.0933 360.116 70.2C359.743 70.3067 359.327 70.4773 358.868 70.712L358.436 69.816C359.482 69.3147 360.463 69.064 361.38 69.064C362.351 69.064 363.098 69.304 363.62 69.784C364.143 70.2533 364.404 70.9307 364.404 71.816V77H363.252V76.088C362.911 76.44 362.532 76.7067 362.116 76.888C361.7 77.0587 361.252 77.144 360.772 77.144ZM359.06 74.728C359.06 75.1867 359.236 75.5547 359.588 75.832C359.951 76.1093 360.426 76.248 361.012 76.248C361.45 76.248 361.85 76.1733 362.212 76.024C362.586 75.8747 362.932 75.6507 363.252 75.352V73.848C362.922 73.656 362.58 73.5173 362.228 73.432C361.876 73.336 361.482 73.288 361.044 73.288C360.447 73.288 359.967 73.4213 359.604 73.688C359.242 73.944 359.06 74.2907 359.06 74.728ZM370.282 77.128C369.557 77.128 368.901 76.952 368.314 76.6C367.738 76.2373 367.279 75.752 366.938 75.144C366.597 74.5253 366.426 73.8427 366.426 73.096C366.426 72.3387 366.597 71.656 366.938 71.048C367.279 70.44 367.738 69.96 368.314 69.608C368.901 69.2453 369.557 69.064 370.282 69.064C370.858 69.064 371.407 69.1707 371.93 69.384C372.453 69.5973 372.906 69.896 373.29 70.28L372.538 71.096C372.261 70.7867 371.925 70.5467 371.53 70.376C371.135 70.2053 370.735 70.12 370.33 70.12C369.818 70.12 369.354 70.2533 368.938 70.52C368.533 70.7867 368.207 71.144 367.962 71.592C367.717 72.04 367.594 72.5413 367.594 73.096C367.594 73.6507 367.717 74.152 367.962 74.6C368.207 75.048 368.533 75.4053 368.938 75.672C369.354 75.9387 369.818 76.072 370.33 76.072C370.735 76.072 371.135 75.9867 371.53 75.816C371.925 75.6347 372.261 75.3947 372.538 75.096L373.29 75.912C372.906 76.296 372.453 76.5947 371.93 76.808C371.407 77.0213 370.858 77.128 370.282 77.128ZM374.919 77V65.448L376.087 65.208V70.456C376.385 69.9867 376.743 69.64 377.159 69.416C377.575 69.1813 378.044 69.064 378.567 69.064C379.132 69.064 379.623 69.1867 380.039 69.432C380.465 69.6667 380.796 70.0027 381.031 70.44C381.276 70.8667 381.399 71.368 381.399 71.944V77H380.231V72.28C380.231 71.5867 380.039 71.0427 379.655 70.648C379.281 70.2427 378.775 70.04 378.135 70.04C377.708 70.04 377.319 70.1413 376.967 70.344C376.615 70.5467 376.321 70.8453 376.087 71.24V77H374.919ZM390.937 77.128C390.212 77.128 389.561 76.952 388.985 76.6C388.409 76.248 387.956 75.768 387.625 75.16C387.295 74.552 387.129 73.864 387.129 73.096C387.129 72.328 387.295 71.64 387.625 71.032C387.956 70.424 388.409 69.944 388.985 69.592C389.561 69.24 390.212 69.064 390.937 69.064C391.652 69.064 392.292 69.24 392.857 69.592C393.433 69.944 393.887 70.424 394.217 71.032C394.548 71.64 394.713 72.328 394.713 73.096C394.713 73.864 394.548 74.552 394.217 75.16C393.887 75.768 393.433 76.248 392.857 76.6C392.292 76.952 391.652 77.128 390.937 77.128ZM390.921 76.104C391.433 76.104 391.887 75.976 392.281 75.72C392.676 75.4533 392.985 75.0907 393.209 74.632C393.444 74.1733 393.561 73.6613 393.561 73.096C393.561 72.52 393.444 72.008 393.209 71.56C392.985 71.1013 392.676 70.744 392.281 70.488C391.887 70.2213 391.433 70.088 390.921 70.088C390.409 70.088 389.956 70.2213 389.561 70.488C389.167 70.744 388.852 71.1013 388.617 71.56C388.393 72.008 388.281 72.52 388.281 73.096C388.281 73.6613 388.393 74.1733 388.617 74.632C388.852 75.0907 389.167 75.4533 389.561 75.72C389.956 75.976 390.409 76.104 390.921 76.104ZM399.547 77.128C398.992 77.128 398.501 77.0053 398.075 76.76C397.648 76.5147 397.312 76.1733 397.067 75.736C396.832 75.2987 396.715 74.7973 396.715 74.232V69.192H397.899V73.896C397.899 74.5893 398.085 75.1387 398.459 75.544C398.832 75.9493 399.339 76.152 399.979 76.152C400.416 76.152 400.805 76.0507 401.147 75.848C401.499 75.6453 401.792 75.352 402.027 74.968V69.192H403.195V77H402.027V75.736C401.728 76.1947 401.371 76.5413 400.955 76.776C400.549 77.0107 400.08 77.128 399.547 77.128ZM408.567 77.16C407.895 77.16 407.383 77 407.031 76.68C406.689 76.3493 406.519 75.8747 406.519 75.256V70.152H404.903V69.192H406.519V67.048L407.687 66.776V69.192H409.927V70.152H407.687V74.952C407.687 75.368 407.772 75.6667 407.943 75.848C408.124 76.0293 408.417 76.12 408.823 76.12C409.025 76.12 409.207 76.104 409.367 76.072C409.527 76.04 409.713 75.9867 409.927 75.912V76.952C409.713 77.0267 409.489 77.08 409.255 77.112C409.02 77.144 408.791 77.16 408.567 77.16ZM418.348 77.16C417.676 77.16 417.164 77 416.812 76.68C416.471 76.3493 416.3 75.8747 416.3 75.256V70.152H414.684V69.192H416.3V67.048L417.468 66.776V69.192H419.708V70.152H417.468V74.952C417.468 75.368 417.553 75.6667 417.724 75.848C417.905 76.0293 418.199 76.12 418.604 76.12C418.807 76.12 418.988 76.104 419.148 76.072C419.308 76.04 419.495 75.9867 419.708 75.912V76.952C419.495 77.0267 419.271 77.08 419.036 77.112C418.801 77.144 418.572 77.16 418.348 77.16ZM424.719 77.128C423.993 77.128 423.343 76.952 422.767 76.6C422.191 76.248 421.737 75.768 421.407 75.16C421.076 74.552 420.911 73.864 420.911 73.096C420.911 72.328 421.076 71.64 421.407 71.032C421.737 70.424 422.191 69.944 422.767 69.592C423.343 69.24 423.993 69.064 424.719 69.064C425.433 69.064 426.073 69.24 426.639 69.592C427.215 69.944 427.668 70.424 427.999 71.032C428.329 71.64 428.495 72.328 428.495 73.096C428.495 73.864 428.329 74.552 427.999 75.16C427.668 75.768 427.215 76.248 426.639 76.6C426.073 76.952 425.433 77.128 424.719 77.128ZM424.703 76.104C425.215 76.104 425.668 75.976 426.063 75.72C426.457 75.4533 426.767 75.0907 426.991 74.632C427.225 74.1733 427.343 73.6613 427.343 73.096C427.343 72.52 427.225 72.008 426.991 71.56C426.767 71.1013 426.457 70.744 426.063 70.488C425.668 70.2213 425.215 70.088 424.703 70.088C424.191 70.088 423.737 70.2213 423.343 70.488C422.948 70.744 422.633 71.1013 422.399 71.56C422.175 72.008 422.062 72.52 422.062 73.096C422.062 73.6613 422.175 74.1733 422.399 74.632C422.633 75.0907 422.948 75.4533 423.343 75.72C423.737 75.976 424.191 76.104 424.703 76.104ZM94.536 104.504C94.2907 104.504 94.04 104.467 93.784 104.392V103.352C93.8907 103.373 94.0027 103.389 94.12 103.4C94.2373 103.411 94.3387 103.416 94.424 103.416C94.7227 103.416 94.968 103.336 95.16 103.176C95.3627 103.016 95.5333 102.765 95.672 102.424L96.248 101L93.24 93.192H94.536L96.904 99.608L99.416 93.192H100.712L96.776 102.776C96.6053 103.192 96.4187 103.528 96.216 103.784C96.0133 104.04 95.7787 104.221 95.512 104.328C95.2453 104.445 94.92 104.504 94.536 104.504ZM105.39 101.128C104.665 101.128 104.014 100.952 103.438 100.6C102.862 100.248 102.409 99.768 102.078 99.16C101.748 98.552 101.582 97.864 101.582 97.096C101.582 96.328 101.748 95.64 102.078 95.032C102.409 94.424 102.862 93.944 103.438 93.592C104.014 93.24 104.665 93.064 105.39 93.064C106.105 93.064 106.745 93.24 107.31 93.592C107.886 93.944 108.34 94.424 108.67 95.032C109.001 95.64 109.166 96.328 109.166 97.096C109.166 97.864 109.001 98.552 108.67 99.16C108.34 99.768 107.886 100.248 107.31 100.6C106.745 100.952 106.105 101.128 105.39 101.128ZM105.374 100.104C105.886 100.104 106.34 99.976 106.734 99.72C107.129 99.4533 107.438 99.0907 107.662 98.632C107.897 98.1733 108.014 97.6613 108.014 97.096C108.014 96.52 107.897 96.008 107.662 95.56C107.438 95.1013 107.129 94.744 106.734 94.488C106.34 94.2213 105.886 94.088 105.374 94.088C104.862 94.088 104.409 94.2213 104.014 94.488C103.62 94.744 103.305 95.1013 103.07 95.56C102.846 96.008 102.734 96.52 102.734 97.096C102.734 97.6613 102.846 98.1733 103.07 98.632C103.305 99.0907 103.62 99.4533 104.014 99.72C104.409 99.976 104.862 100.104 105.374 100.104ZM114 101.128C113.445 101.128 112.954 101.005 112.528 100.76C112.101 100.515 111.765 100.173 111.52 99.736C111.285 99.2987 111.168 98.7973 111.168 98.232V93.192H112.352V97.896C112.352 98.5893 112.538 99.1387 112.912 99.544C113.285 99.9493 113.792 100.152 114.432 100.152C114.869 100.152 115.258 100.051 115.6 99.848C115.952 99.6453 116.245 99.352 116.48 98.968V93.192H117.648V101H116.48V99.736C116.181 100.195 115.824 100.541 115.408 100.776C115.002 101.011 114.533 101.128 114 101.128ZM120.044 101V93.192H121.212V94.792C121.414 94.248 121.702 93.8267 122.076 93.528C122.46 93.2187 122.897 93.064 123.388 93.064C123.526 93.064 123.654 93.0747 123.772 93.096C123.889 93.1067 124.006 93.1333 124.124 93.176V94.232C123.996 94.1893 123.857 94.1573 123.708 94.136C123.569 94.104 123.436 94.088 123.308 94.088C122.828 94.088 122.406 94.2267 122.044 94.504C121.692 94.7813 121.414 95.1707 121.212 95.672V101H120.044ZM129.611 101V89.8H130.843V101H129.611ZM136.57 101V90.888H132.698V89.8H141.674V90.888H137.802V101H136.57ZM149.475 101.144C148.921 101.144 148.43 101.043 148.003 100.84C147.577 100.637 147.241 100.36 146.995 100.008C146.761 99.6453 146.643 99.2293 146.643 98.76C146.643 98.2907 146.766 97.8853 147.011 97.544C147.257 97.192 147.598 96.92 148.035 96.728C148.473 96.536 148.985 96.44 149.571 96.44C150.019 96.44 150.441 96.488 150.835 96.584C151.241 96.68 151.614 96.8347 151.955 97.048V95.976C151.955 95.336 151.785 94.856 151.443 94.536C151.102 94.2053 150.601 94.04 149.939 94.04C149.577 94.04 149.203 94.0933 148.819 94.2C148.446 94.3067 148.03 94.4773 147.571 94.712L147.139 93.816C148.185 93.3147 149.166 93.064 150.083 93.064C151.054 93.064 151.801 93.304 152.323 93.784C152.846 94.2533 153.107 94.9307 153.107 95.816V101H151.955V100.088C151.614 100.44 151.235 100.707 150.819 100.888C150.403 101.059 149.955 101.144 149.475 101.144ZM147.763 98.728C147.763 99.1867 147.939 99.5547 148.291 99.832C148.654 100.109 149.129 100.248 149.715 100.248C150.153 100.248 150.553 100.173 150.915 100.024C151.289 99.8747 151.635 99.6507 151.955 99.352V97.848C151.625 97.656 151.283 97.5173 150.931 97.432C150.579 97.336 150.185 97.288 149.747 97.288C149.15 97.288 148.67 97.4213 148.307 97.688C147.945 97.944 147.763 98.2907 147.763 98.728ZM158.729 101.112C158.057 101.112 157.449 100.936 156.905 100.584C156.361 100.221 155.929 99.7413 155.609 99.144C155.289 98.536 155.129 97.8587 155.129 97.112C155.129 96.3547 155.289 95.6773 155.609 95.08C155.94 94.472 156.383 93.992 156.937 93.64C157.492 93.2773 158.111 93.096 158.793 93.096C159.273 93.096 159.721 93.192 160.137 93.384C160.553 93.5653 160.916 93.832 161.225 94.184V89.448L162.393 89.208V101H161.225V99.96C160.927 100.333 160.564 100.621 160.137 100.824C159.711 101.016 159.241 101.112 158.729 101.112ZM159.017 100.088C159.476 100.088 159.897 99.9973 160.281 99.816C160.665 99.6347 160.98 99.3787 161.225 99.048V95.176C160.969 94.8453 160.644 94.5893 160.249 94.408C159.865 94.216 159.455 94.12 159.017 94.12C158.495 94.12 158.025 94.248 157.609 94.504C157.204 94.76 156.879 95.112 156.633 95.56C156.399 96.008 156.281 96.52 156.281 97.096C156.281 97.6613 156.399 98.1733 156.633 98.632C156.879 99.08 157.204 99.4373 157.609 99.704C158.025 99.96 158.495 100.088 159.017 100.088ZM164.794 101V93.192H165.962V94.408C166.26 93.96 166.602 93.624 166.986 93.4C167.37 93.176 167.802 93.064 168.282 93.064C168.836 93.064 169.322 93.2027 169.738 93.48C170.154 93.7467 170.468 94.1147 170.682 94.584C170.991 94.0827 171.359 93.704 171.786 93.448C172.223 93.192 172.724 93.064 173.29 93.064C173.812 93.064 174.271 93.1867 174.666 93.432C175.071 93.6773 175.386 94.0187 175.61 94.456C175.834 94.8827 175.946 95.384 175.946 95.96V101H174.778V96.248C174.778 95.5653 174.607 95.0267 174.266 94.632C173.924 94.2373 173.455 94.04 172.858 94.04C172.452 94.04 172.084 94.1413 171.754 94.344C171.434 94.5467 171.151 94.856 170.906 95.272C170.927 95.3787 170.943 95.4907 170.954 95.608C170.964 95.7253 170.97 95.8427 170.97 95.96V101H169.802V96.248C169.802 95.5653 169.626 95.0267 169.274 94.632C168.932 94.2373 168.463 94.04 167.866 94.04C167.066 94.04 166.431 94.424 165.962 95.192V101H164.794ZM178.293 101V93.192H179.461V101H178.293ZM178.885 91.256C178.651 91.256 178.448 91.176 178.277 91.016C178.117 90.8453 178.037 90.648 178.037 90.424C178.037 90.2 178.117 90.008 178.277 89.848C178.448 89.6773 178.651 89.592 178.885 89.592C179.12 89.592 179.317 89.6773 179.477 89.848C179.648 90.008 179.733 90.2 179.733 90.424C179.733 90.648 179.648 90.8453 179.477 91.016C179.317 91.176 179.12 91.256 178.885 91.256ZM181.856 101V93.192H183.024V94.456C183.323 93.9867 183.68 93.64 184.096 93.416C184.512 93.1813 184.982 93.064 185.504 93.064C186.07 93.064 186.56 93.1867 186.976 93.432C187.403 93.6667 187.734 94.0027 187.968 94.44C188.214 94.8667 188.336 95.368 188.336 95.944V101H187.168V96.28C187.168 95.5867 186.976 95.0427 186.592 94.648C186.219 94.2427 185.712 94.04 185.072 94.04C184.646 94.04 184.256 94.1413 183.904 94.344C183.552 94.5467 183.259 94.8453 183.024 95.24V101H181.856ZM190.668 101V93.192H191.836V101H190.668ZM191.26 91.256C191.026 91.256 190.823 91.176 190.652 91.016C190.492 90.8453 190.412 90.648 190.412 90.424C190.412 90.2 190.492 90.008 190.652 89.848C190.823 89.6773 191.026 89.592 191.26 89.592C191.495 89.592 191.692 89.6773 191.852 89.848C192.023 90.008 192.108 90.2 192.108 90.424C192.108 90.648 192.023 90.8453 191.852 91.016C191.692 91.176 191.495 91.256 191.26 91.256ZM196.647 101.16C196.007 101.16 195.415 101.064 194.871 100.872C194.327 100.669 193.863 100.381 193.479 100.008L194.103 99.24C194.573 99.5813 195.005 99.832 195.399 99.992C195.794 100.141 196.199 100.216 196.615 100.216C197.181 100.216 197.65 100.083 198.023 99.816C198.397 99.5493 198.583 99.208 198.583 98.792C198.583 98.472 198.471 98.2213 198.247 98.04C198.034 97.8587 197.677 97.72 197.175 97.624L195.895 97.4C195.138 97.2613 194.578 97.0267 194.215 96.696C193.863 96.3653 193.687 95.9173 193.687 95.352C193.687 94.904 193.805 94.5093 194.039 94.168C194.285 93.8267 194.621 93.56 195.047 93.368C195.474 93.1653 195.959 93.064 196.503 93.064C197.037 93.064 197.543 93.144 198.023 93.304C198.503 93.4533 198.989 93.6987 199.479 94.04L198.903 94.856C198.498 94.568 198.093 94.36 197.687 94.232C197.282 94.0933 196.871 94.024 196.455 94.024C195.943 94.024 195.533 94.136 195.223 94.36C194.914 94.584 194.759 94.888 194.759 95.272C194.759 95.592 194.855 95.8373 195.047 96.008C195.25 96.1787 195.602 96.3067 196.103 96.392L197.415 96.632C198.205 96.7707 198.781 97.0107 199.143 97.352C199.506 97.6933 199.687 98.152 199.687 98.728C199.687 99.1867 199.554 99.6027 199.287 99.976C199.021 100.339 198.658 100.627 198.199 100.84C197.741 101.053 197.223 101.16 196.647 101.16ZM204.285 101.16C203.613 101.16 203.101 101 202.749 100.68C202.408 100.349 202.237 99.8747 202.237 99.256V94.152H200.621V93.192H202.237V91.048L203.405 90.776V93.192H205.645V94.152H203.405V98.952C203.405 99.368 203.491 99.6667 203.661 99.848C203.843 100.029 204.136 100.12 204.541 100.12C204.744 100.12 204.925 100.104 205.085 100.072C205.245 100.04 205.432 99.9867 205.645 99.912V100.952C205.432 101.027 205.208 101.08 204.973 101.112C204.739 101.144 204.509 101.16 204.285 101.16ZM207.356 101V93.192H208.524V94.792C208.727 94.248 209.015 93.8267 209.388 93.528C209.772 93.2187 210.21 93.064 210.7 93.064C210.839 93.064 210.967 93.0747 211.084 93.096C211.202 93.1067 211.319 93.1333 211.436 93.176V94.232C211.308 94.1893 211.17 94.1573 211.02 94.136C210.882 94.104 210.748 94.088 210.62 94.088C210.14 94.088 209.719 94.2267 209.356 94.504C209.004 94.7813 208.727 95.1707 208.524 95.672V101H207.356ZM215.069 101.144C214.514 101.144 214.024 101.043 213.597 100.84C213.17 100.637 212.834 100.36 212.589 100.008C212.354 99.6453 212.237 99.2293 212.237 98.76C212.237 98.2907 212.36 97.8853 212.605 97.544C212.85 97.192 213.192 96.92 213.629 96.728C214.066 96.536 214.578 96.44 215.165 96.44C215.613 96.44 216.034 96.488 216.429 96.584C216.834 96.68 217.208 96.8347 217.549 97.048V95.976C217.549 95.336 217.378 94.856 217.037 94.536C216.696 94.2053 216.194 94.04 215.533 94.04C215.17 94.04 214.797 94.0933 214.413 94.2C214.04 94.3067 213.624 94.4773 213.165 94.712L212.733 93.816C213.778 93.3147 214.76 93.064 215.677 93.064C216.648 93.064 217.394 93.304 217.917 93.784C218.44 94.2533 218.701 94.9307 218.701 95.816V101H217.549V100.088C217.208 100.44 216.829 100.707 216.413 100.888C215.997 101.059 215.549 101.144 215.069 101.144ZM213.357 98.728C213.357 99.1867 213.533 99.5547 213.885 99.832C214.248 100.109 214.722 100.248 215.309 100.248C215.746 100.248 216.146 100.173 216.509 100.024C216.882 99.8747 217.229 99.6507 217.549 99.352V97.848C217.218 97.656 216.877 97.5173 216.525 97.432C216.173 97.336 215.778 97.288 215.341 97.288C214.744 97.288 214.264 97.4213 213.901 97.688C213.538 97.944 213.357 98.2907 213.357 98.728ZM223.817 101.16C223.145 101.16 222.633 101 222.281 100.68C221.939 100.349 221.769 99.8747 221.769 99.256V94.152H220.153V93.192H221.769V91.048L222.937 90.776V93.192H225.177V94.152H222.937V98.952C222.937 99.368 223.022 99.6667 223.193 99.848C223.374 100.029 223.667 100.12 224.073 100.12C224.275 100.12 224.457 100.104 224.617 100.072C224.777 100.04 224.963 99.9867 225.177 99.912V100.952C224.963 101.027 224.739 101.08 224.505 101.112C224.27 101.144 224.041 101.16 223.817 101.16ZM230.187 101.128C229.462 101.128 228.811 100.952 228.235 100.6C227.659 100.248 227.206 99.768 226.875 99.16C226.545 98.552 226.379 97.864 226.379 97.096C226.379 96.328 226.545 95.64 226.875 95.032C227.206 94.424 227.659 93.944 228.235 93.592C228.811 93.24 229.462 93.064 230.187 93.064C230.902 93.064 231.542 93.24 232.107 93.592C232.683 93.944 233.137 94.424 233.467 95.032C233.798 95.64 233.963 96.328 233.963 97.096C233.963 97.864 233.798 98.552 233.467 99.16C233.137 99.768 232.683 100.248 232.107 100.6C231.542 100.952 230.902 101.128 230.187 101.128ZM230.171 100.104C230.683 100.104 231.137 99.976 231.531 99.72C231.926 99.4533 232.235 99.0907 232.459 98.632C232.694 98.1733 232.811 97.6613 232.811 97.096C232.811 96.52 232.694 96.008 232.459 95.56C232.235 95.1013 231.926 94.744 231.531 94.488C231.137 94.2213 230.683 94.088 230.171 94.088C229.659 94.088 229.206 94.2213 228.811 94.488C228.417 94.744 228.102 95.1013 227.867 95.56C227.643 96.008 227.531 96.52 227.531 97.096C227.531 97.6613 227.643 98.1733 227.867 98.632C228.102 99.0907 228.417 99.4533 228.811 99.72C229.206 99.976 229.659 100.104 230.171 100.104ZM236.013 101V93.192H237.181V94.792C237.383 94.248 237.671 93.8267 238.045 93.528C238.429 93.2187 238.866 93.064 239.357 93.064C239.495 93.064 239.623 93.0747 239.741 93.096C239.858 93.1067 239.975 93.1333 240.093 93.176V94.232C239.965 94.1893 239.826 94.1573 239.677 94.136C239.538 94.104 239.405 94.088 239.277 94.088C238.797 94.088 238.375 94.2267 238.013 94.504C237.661 94.7813 237.383 95.1707 237.181 95.672V101H236.013ZM241.234 101.128C241 101.128 240.797 101.043 240.626 100.872C240.466 100.701 240.386 100.499 240.386 100.264C240.386 100.019 240.466 99.816 240.626 99.656C240.797 99.4853 241 99.4 241.234 99.4C241.469 99.4 241.666 99.4853 241.826 99.656C241.997 99.816 242.082 100.019 242.082 100.264C242.082 100.499 241.997 100.701 241.826 100.872C241.666 101.043 241.469 101.128 241.234 101.128Z" fill="#151515"/>
<path fill-rule="evenodd" clip-rule="evenodd" d="M110.838 132.131C111.179 130.937 112.426 130.247 113.619 130.588C114.813 130.929 115.503 132.176 115.162 133.369L114.984 133.994C114.888 134.338 114.762 134.675 114.615 135H117.5C118.606 135 119.5 135.897 119.5 137C119.5 137.553 119.275 138.053 118.912 138.422C118.968 138.606 119 138.803 119 139.006C119 139.656 118.69 140.234 118.209 140.6C118.234 140.731 118.25 140.865 118.25 141.006C118.25 141.64 117.956 142.203 117.5 142.568C117.466 143.643 116.584 144.506 115.5 144.506H112.453C111.763 144.506 111.088 144.303 110.513 143.919L108.584 142.635C108.237 142.404 108.144 141.941 108.375 141.594C108.606 141.247 109.072 141.154 109.416 141.385L111.344 142.669C111.672 142.888 112.059 143.003 112.453 143.003H115.5C115.775 143.003 116 142.778 116 142.503C116 142.456 115.994 142.41 115.981 142.369C115.878 141.997 116.072 141.609 116.432 141.469C116.619 141.397 116.75 141.212 116.75 141.003C116.75 140.884 116.709 140.778 116.644 140.693C116.481 140.487 116.441 140.213 116.531 139.966C116.622 139.719 116.837 139.54 117.094 139.49C117.325 139.446 117.5 139.244 117.5 139C117.5 138.872 117.453 138.756 117.375 138.669C117.212 138.485 117.15 138.231 117.209 137.99C117.268 137.75 117.444 137.556 117.675 137.469C117.865 137.397 118 137.213 118 137C118 136.725 117.775 136.5 117.5 136.5H113.325C113.044 136.5 112.787 136.344 112.659 136.094C112.531 135.844 112.55 135.544 112.713 135.315C113.085 134.791 113.366 134.203 113.544 133.581L113.722 132.956C113.834 132.556 113.606 132.141 113.206 132.028C112.806 131.916 112.391 132.147 112.278 132.544L112.1 133.169C111.921 133.797 111.6 134.375 111.159 134.859L109.557 136.622C109.279 136.928 108.803 136.95 108.497 136.672C108.191 136.394 108.169 135.919 108.447 135.612L110.05 133.85C110.334 133.537 110.544 133.162 110.659 132.756L110.838 132.131ZM106.5 135.5C107.053 135.5 107.5 135.947 107.5 136.5V143.5C107.5 144.053 107.053 144.5 106.5 144.5H104.5C103.947 144.5 103.5 144.053 103.5 143.5V136.5C103.5 135.947 103.947 135.5 104.5 135.5H106.5Z" fill="#707070"/>
<path d="M156.5 130.494C157.584 130.494 158.466 131.357 158.5 132.432C158.956 132.797 159.25 133.36 159.25 133.994C159.25 134.135 159.234 134.269 159.209 134.4C159.69 134.766 160 135.344 160 135.994C160 136.197 159.968 136.394 159.912 136.578C160.275 136.947 160.5 137.447 160.5 138C160.5 139.103 159.606 140 158.5 140H155.615C155.762 140.325 155.888 140.662 155.984 141.006L156.162 141.631C156.503 142.824 155.813 144.071 154.619 144.412C153.426 144.753 152.179 144.063 151.838 142.869L151.659 142.244C151.544 141.838 151.334 141.463 151.05 141.15L149.447 139.388C149.169 139.081 149.191 138.606 149.497 138.328C149.803 138.05 150.279 138.072 150.557 138.378L152.159 140.141C152.6 140.625 152.921 141.203 153.1 141.831L153.278 142.456C153.391 142.853 153.806 143.084 154.206 142.972C154.606 142.859 154.834 142.444 154.722 142.044L154.544 141.419C154.366 140.797 154.085 140.209 153.713 139.685C153.55 139.456 153.531 139.156 153.659 138.906C153.787 138.656 154.044 138.5 154.325 138.5H158.5C158.775 138.5 159 138.275 159 138C159 137.788 158.865 137.603 158.675 137.531C158.444 137.444 158.268 137.25 158.209 137.01C158.15 136.769 158.212 136.515 158.375 136.331C158.453 136.244 158.5 136.128 158.5 136C158.5 135.756 158.325 135.554 158.094 135.51C157.837 135.46 157.622 135.281 157.531 135.034C157.441 134.787 157.481 134.513 157.644 134.307C157.709 134.222 157.75 134.116 157.75 133.997C157.75 133.788 157.619 133.603 157.432 133.531C157.072 133.391 156.878 133.003 156.981 132.631C156.994 132.59 157 132.544 157 132.497C157 132.222 156.775 131.997 156.5 131.997H153.453C153.059 131.997 152.672 132.112 152.344 132.331L150.416 133.615C150.072 133.846 149.606 133.753 149.375 133.406C149.144 133.059 149.237 132.596 149.584 132.365L151.513 131.081C152.088 130.697 152.763 130.494 153.453 130.494H156.5ZM147.5 132.5C148.053 132.5 148.5 132.947 148.5 133.5V140.5C148.5 141.053 148.053 141.5 147.5 141.5H145.5C144.947 141.5 144.5 141.053 144.5 140.5V133.5C144.5 132.947 144.947 132.5 145.5 132.5H147.5Z" fill="#707070"/>
<path d="M190.292 133.125V141.219C190.292 142.063 190.979 142.75 191.823 142.75H196.417V143.844C196.417 144.206 196.123 144.5 195.761 144.5H188.323C187.961 144.5 187.667 144.206 187.667 143.844V133.781C187.667 133.419 187.961 133.125 188.323 133.125H190.292ZM196.417 130.5V133.344C196.417 133.705 196.712 134 197.073 134H199.917V141.219C199.917 141.581 199.623 141.875 199.261 141.875H191.823C191.461 141.875 191.167 141.581 191.167 141.219V131.156C191.167 130.794 191.461 130.5 191.823 130.5H196.417ZM197.457 130.5C197.607 130.5 197.815 130.586 197.921 130.692L199.725 132.495C199.831 132.601 199.917 132.809 199.917 132.959V133.125H197.292V130.5H197.457Z" fill="#707070"/>
<path d="M216 137.5C216 127.283 224.283 119 234.5 119C244.717 119 253 127.283 253 137.5C253 147.717 244.717 156 234.5 156C224.283 156 216 147.717 216 137.5Z" fill="#C7C7C7" fill-opacity="0.25" style="mix-blend-mode:multiply"/>
<path fill-rule="evenodd" clip-rule="evenodd" d="M231.834 140.5L233.365 142.031C233.993 142.659 235.007 142.659 235.635 142.031L237.166 140.5H241.75C242.166 140.5 242.5 140.834 242.5 141.25V144.75C242.5 145.166 242.166 145.5 241.75 145.5H227.25C226.834 145.5 226.5 145.166 226.5 144.75V141.25C226.5 140.834 226.834 140.5 227.25 140.5H231.834ZM238 143.375C237.656 143.375 237.375 143.656 237.375 144C237.375 144.344 237.656 144.625 238 144.625C238.344 144.625 238.625 144.344 238.625 144C238.625 143.656 238.344 143.375 238 143.375ZM240 143.375C239.656 143.375 239.375 143.656 239.375 144C239.375 144.344 239.656 144.625 240 144.625C240.344 144.625 240.625 144.344 240.625 144C240.625 143.656 240.344 143.375 240 143.375ZM235.75 129.5C236.166 129.5 236.5 129.834 236.5 130.25V135.5H239.24C239.796 135.5 240.075 136.172 239.682 136.565L234.928 141.322C234.693 141.556 234.309 141.556 234.075 141.322L229.315 136.565C228.922 136.172 229.2 135.5 229.756 135.5H232.5V130.25C232.5 129.834 232.834 129.5 233.25 129.5H235.75Z" fill="#707070"/>
<path fill-rule="evenodd" clip-rule="evenodd" d="M279.995 131.998C280.203 131.741 280.582 131.704 280.84 131.911V131.913C282.462 133.23 283.5 135.246 283.5 137.501C283.5 139.756 282.462 141.769 280.84 143.089C280.582 143.298 280.205 143.258 279.995 143.001C279.785 142.743 279.825 142.366 280.082 142.156C281.437 141.056 282.3 139.381 282.3 137.501C282.3 135.621 281.437 133.946 280.082 132.844C279.825 132.634 279.788 132.255 279.995 131.998ZM274.168 132.103C274.403 131.894 274.74 131.843 275.027 131.971C275.315 132.101 275.5 132.386 275.5 132.701V142.301C275.5 142.616 275.315 142.901 275.027 143.031C274.74 143.161 274.403 143.108 274.168 142.898L270.795 139.901H269.1C268.217 139.901 267.5 139.183 267.5 138.301V136.701C267.5 135.819 268.217 135.101 269.1 135.1H270.795L274.168 132.103ZM278.482 133.861C278.69 133.604 279.07 133.566 279.327 133.773V133.776C280.407 134.656 281.1 135.998 281.1 137.501C281.1 139.003 280.407 140.345 279.327 141.225C279.07 141.435 278.692 141.396 278.482 141.139C278.272 140.881 278.313 140.504 278.57 140.294C279.383 139.634 279.9 138.628 279.9 137.501C279.9 136.373 279.383 135.368 278.57 134.706C278.313 134.496 278.275 134.119 278.482 133.861ZM276.97 135.723C277.177 135.466 277.558 135.428 277.815 135.636V135.639C278.353 136.079 278.7 136.748 278.7 137.501C278.7 138.253 278.353 138.923 277.815 139.363C277.558 139.573 277.18 139.534 276.97 139.276C276.76 139.019 276.8 138.64 277.058 138.43C277.327 138.21 277.5 137.876 277.5 137.501C277.5 137.126 277.328 136.791 277.058 136.568C276.8 136.358 276.762 135.981 276.97 135.723Z" fill="#707070"/>
<defs>
<clipPath id="clip0_1795_77456">
<rect width="33" height="31" fill="white" transform="translate(29 32)"/>
</clipPath>
</defs>
</svg>
