<svg width="405" height="433" viewBox="0 0 405 433" fill="none" xmlns="http://www.w3.org/2000/svg">
<g clip-path="url(#clip0_698_62797)">
<rect width="405" height="433" fill="white"/>
<rect width="375" height="960" transform="translate(15 15)" fill="white"/>
<path d="M60.1533 53.0771C60.4792 52.7517 61.0074 52.7516 61.333 53.0771L61.9229 53.667C62.2483 53.9928 62.2483 54.5211 61.9229 54.8467L59.2686 57.5L61.9229 60.1533C62.2482 60.4792 62.2483 61.0075 61.9229 61.333L61.333 61.9229C61.0075 62.2483 60.4789 62.2482 60.1533 61.9229L57.5 59.2686L54.8467 61.9229C54.5211 62.2483 53.9926 62.2483 53.667 61.9229L53.0771 61.333C52.7516 61.0072 52.7517 60.4789 53.0771 60.1533L55.7305 57.5L53.0771 54.8467C52.7517 54.5208 52.7516 53.9926 53.0771 53.667L53.667 53.0771C53.9928 52.7516 54.5211 52.7517 54.8467 53.0771L57.5 55.7305L60.1533 53.0771Z" fill="#1F1F1F"/>
<path d="M234 57.5C234 47.2827 242.283 39 252.5 39H347.5C357.717 39 366 47.2827 366 57.5V57.5C366 67.7173 357.717 76 347.5 76H252.5C242.283 76 234 67.7173 234 57.5V57.5Z" fill="#0066CC"/>
<path d="M267.25 52.7502C267.734 52.7502 268.125 53.1413 268.125 53.6252C268.125 54.1091 267.734 54.5002 267.25 54.5002H264.625C264.141 54.5002 263.75 54.8913 263.75 55.3752V62.3752C263.75 62.8591 264.141 63.2502 264.625 63.2502H271.625C272.109 63.2502 272.5 62.8591 272.5 62.3752V59.7502C272.5 59.2663 272.891 58.8752 273.375 58.8752C273.859 58.8752 274.25 59.2663 274.25 59.7502V62.3752C274.25 63.8243 273.074 65.0002 271.625 65.0002H264.625C263.176 65.0002 262 63.8243 262 62.3752V55.3752C262 53.926 263.176 52.7502 264.625 52.7502H267.25ZM273.969 55.7112L269.394 60.2883C269.224 60.4551 269.019 60.5836 268.795 60.6575L266.367 61.467C266.129 61.5463 265.869 61.4864 265.694 61.3088C265.519 61.1312 265.456 60.8711 265.535 60.636L266.345 58.2073C266.419 57.9805 266.547 57.7754 266.714 57.6086L271.289 53.0315L273.969 55.7112ZM272.729 51.593C273.328 50.9942 274.297 50.9942 274.896 51.593L275.406 52.1018C276.005 52.7006 276.005 53.669 275.406 54.2678L274.584 55.0901L271.906 52.4133L272.729 51.593Z" fill="white"/>
<path d="M284.246 62V52.2H285.366L291.106 60.32L291.078 52.2H292.1V62H291.12L285.24 53.698L285.268 62H284.246ZM297.48 62.14C296.845 62.14 296.271 61.986 295.758 61.678C295.244 61.3607 294.838 60.936 294.54 60.404C294.241 59.8627 294.092 59.256 294.092 58.584C294.092 57.912 294.232 57.31 294.512 56.778C294.801 56.246 295.188 55.826 295.674 55.518C296.159 55.21 296.7 55.056 297.298 55.056C297.904 55.056 298.441 55.21 298.908 55.518C299.384 55.8167 299.757 56.2273 300.028 56.75C300.308 57.2633 300.448 57.8467 300.448 58.5V58.808H295.086C295.123 59.2747 295.249 59.6947 295.464 60.068C295.688 60.432 295.977 60.7213 296.332 60.936C296.696 61.1413 297.092 61.244 297.522 61.244C297.876 61.244 298.217 61.1833 298.544 61.062C298.88 60.9313 299.164 60.7587 299.398 60.544L300.042 61.23C299.65 61.538 299.244 61.7667 298.824 61.916C298.404 62.0653 297.956 62.14 297.48 62.14ZM295.114 58.08H299.44C299.393 57.6693 299.267 57.3053 299.062 56.988C298.866 56.6613 298.614 56.4047 298.306 56.218C298.007 56.0313 297.671 55.938 297.298 55.938C296.924 55.938 296.584 56.0313 296.276 56.218C295.968 56.3953 295.711 56.6473 295.506 56.974C295.31 57.2913 295.179 57.66 295.114 58.08ZM303.274 62L301.398 55.168H302.392L303.82 60.628L305.458 55.168H306.368L308.006 60.628L309.42 55.168H310.386L308.524 62H307.53L305.906 56.484L304.282 62H303.274ZM318.165 62.112C317.53 62.112 316.956 61.958 316.443 61.65C315.939 61.3327 315.537 60.908 315.239 60.376C314.94 59.8347 314.791 59.2373 314.791 58.584C314.791 57.9213 314.94 57.324 315.239 56.792C315.537 56.26 315.939 55.84 316.443 55.532C316.956 55.2147 317.53 55.056 318.165 55.056C318.669 55.056 319.149 55.1493 319.607 55.336C320.064 55.5227 320.461 55.784 320.797 56.12L320.139 56.834C319.896 56.5633 319.602 56.3533 319.257 56.204C318.911 56.0547 318.561 55.98 318.207 55.98C317.759 55.98 317.353 56.0967 316.989 56.33C316.634 56.5633 316.349 56.876 316.135 57.268C315.92 57.66 315.813 58.0987 315.813 58.584C315.813 59.0693 315.92 59.508 316.135 59.9C316.349 60.292 316.634 60.6047 316.989 60.838C317.353 61.0713 317.759 61.188 318.207 61.188C318.561 61.188 318.911 61.1133 319.257 60.964C319.602 60.8053 319.896 60.5953 320.139 60.334L320.797 61.048C320.461 61.384 320.064 61.6453 319.607 61.832C319.149 62.0187 318.669 62.112 318.165 62.112ZM322.222 62V51.892L323.244 51.682V56.274C323.505 55.8633 323.818 55.56 324.182 55.364C324.546 55.1587 324.957 55.056 325.414 55.056C325.909 55.056 326.338 55.1633 326.702 55.378C327.075 55.5833 327.365 55.8773 327.57 56.26C327.785 56.6333 327.892 57.072 327.892 57.576V62H326.87V57.87C326.87 57.2633 326.702 56.7873 326.366 56.442C326.039 56.0873 325.596 55.91 325.036 55.91C324.663 55.91 324.322 55.9987 324.014 56.176C323.706 56.3533 323.449 56.6147 323.244 56.96V62H322.222ZM332.06 62.126C331.575 62.126 331.146 62.0373 330.772 61.86C330.399 61.6827 330.105 61.44 329.89 61.132C329.685 60.8147 329.582 60.4507 329.582 60.04C329.582 59.6293 329.69 59.2747 329.904 58.976C330.119 58.668 330.418 58.43 330.8 58.262C331.183 58.094 331.631 58.01 332.144 58.01C332.536 58.01 332.905 58.052 333.25 58.136C333.605 58.22 333.932 58.3553 334.23 58.542V57.604C334.23 57.044 334.081 56.624 333.782 56.344C333.484 56.0547 333.045 55.91 332.466 55.91C332.149 55.91 331.822 55.9567 331.486 56.05C331.16 56.1433 330.796 56.2927 330.394 56.498L330.016 55.714C330.931 55.2753 331.79 55.056 332.592 55.056C333.442 55.056 334.095 55.266 334.552 55.686C335.01 56.0967 335.238 56.6893 335.238 57.464V62H334.23V61.202C333.932 61.51 333.6 61.7433 333.236 61.902C332.872 62.0513 332.48 62.126 332.06 62.126ZM330.562 60.012C330.562 60.4133 330.716 60.7353 331.024 60.978C331.342 61.2207 331.757 61.342 332.27 61.342C332.653 61.342 333.003 61.2767 333.32 61.146C333.647 61.0153 333.95 60.8193 334.23 60.558V59.242C333.941 59.074 333.642 58.9527 333.334 58.878C333.026 58.794 332.681 58.752 332.298 58.752C331.776 58.752 331.356 58.8687 331.038 59.102C330.721 59.326 330.562 59.6293 330.562 60.012ZM339.715 62.14C339.127 62.14 338.679 62 338.371 61.72C338.072 61.4307 337.923 61.0153 337.923 60.474V56.008H336.509V55.168H337.923V53.292L338.945 53.054V55.168H340.905V56.008H338.945V60.208C338.945 60.572 339.019 60.8333 339.169 60.992C339.327 61.1507 339.584 61.23 339.939 61.23C340.116 61.23 340.275 61.216 340.415 61.188C340.555 61.16 340.718 61.1133 340.905 61.048V61.958C340.718 62.0233 340.522 62.07 340.317 62.098C340.111 62.126 339.911 62.14 339.715 62.14Z" fill="white"/>
<path d="M51 103C55.9718 103 60 107.028 60 112C60 116.972 55.9718 121 51 121C46.0282 121 42 116.972 42 112C42 107.028 46.0282 103 51 103ZM51 104.742C46.9899 104.742 43.7422 107.99 43.7422 112C43.7422 116.01 46.9899 119.258 51 119.258C55.0101 119.258 58.2578 116.01 58.2578 112C58.2578 107.99 55.0101 104.742 51 104.742ZM51.5811 106.483C51.8202 106.484 52.0164 106.68 52.0166 106.919V112.062L54.4404 113.825C54.6364 113.967 54.6767 114.24 54.5352 114.436L53.8525 115.375C53.7111 115.567 53.4391 115.611 53.2432 115.47L50.1621 113.23C50.0496 113.147 49.9844 113.016 49.9844 112.878V106.919C49.9846 106.68 50.1798 106.484 50.4189 106.483H51.5811Z" fill="#1F1F1F"/>
<path d="M77.7439 118.198C76.8079 118.198 75.9379 118.036 75.1339 117.712C74.3419 117.376 73.6399 116.914 73.0279 116.326C72.4279 115.726 71.9599 115.036 71.6239 114.256C71.2999 113.464 71.1379 112.612 71.1379 111.7C71.1379 110.788 71.2999 109.942 71.6239 109.162C71.9599 108.37 72.4279 107.68 73.0279 107.092C73.6399 106.492 74.3479 106.03 75.1519 105.706C75.9559 105.37 76.8199 105.202 77.7439 105.202C78.4039 105.202 79.0459 105.292 79.6699 105.472C80.3059 105.64 80.8879 105.886 81.4159 106.21C81.9559 106.534 82.4239 106.924 82.8199 107.38L81.5599 108.676C81.0919 108.112 80.5219 107.686 79.8499 107.398C79.1779 107.098 78.4759 106.948 77.7439 106.948C76.8559 106.948 76.0579 107.158 75.3499 107.578C74.6419 107.998 74.0839 108.568 73.6759 109.288C73.2679 109.996 73.0639 110.8 73.0639 111.7C73.0639 112.6 73.2679 113.41 73.6759 114.13C74.0959 114.838 74.6659 115.402 75.3859 115.822C76.1059 116.242 76.9099 116.452 77.7979 116.452C78.5299 116.452 79.2199 116.308 79.8679 116.02C80.5279 115.72 81.0859 115.3 81.5419 114.76L82.7839 116.02C82.3639 116.464 81.8839 116.854 81.3439 117.19C80.8159 117.514 80.2399 117.766 79.6159 117.946C79.0039 118.114 78.3799 118.198 77.7439 118.198ZM84.417 118V105.4L86.217 105.004V109.774C86.925 109.03 87.843 108.658 88.971 108.658C89.679 108.658 90.297 108.808 90.825 109.108C91.365 109.408 91.785 109.828 92.085 110.368C92.397 110.908 92.553 111.532 92.553 112.24V118H90.753V112.546C90.753 111.826 90.549 111.262 90.141 110.854C89.733 110.434 89.175 110.224 88.467 110.224C87.987 110.224 87.555 110.326 87.171 110.53C86.787 110.734 86.469 111.028 86.217 111.412V118H84.417ZM97.5279 118.162C96.8679 118.162 96.2859 118.048 95.7819 117.82C95.2779 117.58 94.8819 117.25 94.5939 116.83C94.3059 116.41 94.1619 115.924 94.1619 115.372C94.1619 114.508 94.4919 113.83 95.1519 113.338C95.8119 112.834 96.7179 112.582 97.8699 112.582C98.7699 112.582 99.6039 112.756 100.372 113.104V112.132C100.372 110.824 99.6279 110.17 98.1399 110.17C97.7199 110.17 97.2819 110.236 96.8259 110.368C96.3699 110.488 95.8599 110.68 95.2959 110.944L94.6299 109.594C95.3259 109.27 95.9739 109.036 96.5739 108.892C97.1739 108.736 97.7799 108.658 98.3919 108.658C99.5799 108.658 100.498 108.94 101.146 109.504C101.806 110.068 102.136 110.872 102.136 111.916V118H100.372V117.208C99.9639 117.532 99.5259 117.772 99.0579 117.928C98.5899 118.084 98.0799 118.162 97.5279 118.162ZM95.8899 115.336C95.8899 115.78 96.0759 116.14 96.4479 116.416C96.8319 116.692 97.3299 116.83 97.9419 116.83C98.9259 116.83 99.7359 116.536 100.372 115.948V114.4C99.7119 114.016 98.9259 113.824 98.0139 113.824C97.3539 113.824 96.8319 113.962 96.4479 114.238C96.0759 114.502 95.8899 114.868 95.8899 115.336ZM107.87 118.162C106.982 118.162 106.304 117.958 105.836 117.55C105.368 117.13 105.134 116.524 105.134 115.732V110.35H103.19V108.838H105.134V106.498L106.916 106.066V108.838H109.616V110.35H106.916V115.318C106.916 115.786 107.018 116.122 107.222 116.326C107.438 116.518 107.786 116.614 108.266 116.614C108.518 116.614 108.74 116.596 108.932 116.56C109.136 116.524 109.352 116.47 109.58 116.398V117.91C109.34 117.994 109.058 118.054 108.734 118.09C108.422 118.138 108.134 118.162 107.87 118.162ZM114.704 118V105.4L116.504 105.004V109.774C117.212 109.03 118.13 108.658 119.258 108.658C119.966 108.658 120.584 108.808 121.112 109.108C121.652 109.408 122.072 109.828 122.372 110.368C122.684 110.908 122.84 111.532 122.84 112.24V118H121.04V112.546C121.04 111.826 120.836 111.262 120.428 110.854C120.02 110.434 119.462 110.224 118.754 110.224C118.274 110.224 117.842 110.326 117.458 110.53C117.074 110.734 116.756 111.028 116.504 111.412V118H114.704ZM124.917 118V108.838H126.717V118H124.917ZM125.817 107.362C125.517 107.362 125.259 107.254 125.043 107.038C124.827 106.81 124.719 106.546 124.719 106.246C124.719 105.934 124.827 105.676 125.043 105.472C125.259 105.256 125.517 105.148 125.817 105.148C126.129 105.148 126.393 105.256 126.609 105.472C126.825 105.676 126.933 105.934 126.933 106.246C126.933 106.546 126.825 106.81 126.609 107.038C126.393 107.254 126.129 107.362 125.817 107.362ZM131.987 118.18C131.195 118.18 130.451 118.066 129.755 117.838C129.071 117.598 128.477 117.262 127.973 116.83L128.963 115.642C129.431 116.014 129.911 116.302 130.403 116.506C130.907 116.698 131.417 116.794 131.933 116.794C132.581 116.794 133.109 116.668 133.517 116.416C133.925 116.164 134.129 115.834 134.129 115.426C134.129 114.778 133.637 114.382 132.653 114.238L130.997 114.004C130.085 113.872 129.401 113.59 128.945 113.158C128.489 112.726 128.261 112.15 128.261 111.43C128.261 110.878 128.411 110.398 128.711 109.99C129.011 109.57 129.431 109.246 129.971 109.018C130.511 108.778 131.141 108.658 131.861 108.658C132.521 108.658 133.157 108.754 133.769 108.946C134.381 109.138 134.969 109.438 135.533 109.846L134.615 111.034C133.619 110.386 132.653 110.062 131.717 110.062C131.165 110.062 130.721 110.182 130.385 110.422C130.049 110.65 129.881 110.95 129.881 111.322C129.881 111.658 129.995 111.922 130.223 112.114C130.463 112.294 130.853 112.42 131.393 112.492L133.049 112.726C133.961 112.858 134.651 113.14 135.119 113.572C135.587 113.992 135.821 114.562 135.821 115.282C135.821 115.834 135.653 116.332 135.317 116.776C134.981 117.208 134.525 117.55 133.949 117.802C133.373 118.054 132.719 118.18 131.987 118.18ZM140.952 118.162C140.064 118.162 139.386 117.958 138.918 117.55C138.45 117.13 138.216 116.524 138.216 115.732V110.35H136.272V108.838H138.216V106.498L139.998 106.066V108.838H142.698V110.35H139.998V115.318C139.998 115.786 140.1 116.122 140.304 116.326C140.52 116.518 140.868 116.614 141.348 116.614C141.6 116.614 141.822 116.596 142.014 116.56C142.218 116.524 142.434 116.47 142.662 116.398V117.91C142.422 117.994 142.14 118.054 141.816 118.09C141.504 118.138 141.216 118.162 140.952 118.162ZM148.24 118.18C147.352 118.18 146.542 117.97 145.81 117.55C145.09 117.13 144.52 116.56 144.1 115.84C143.68 115.12 143.47 114.316 143.47 113.428C143.47 112.54 143.68 111.736 144.1 111.016C144.52 110.296 145.09 109.726 145.81 109.306C146.542 108.874 147.352 108.658 148.24 108.658C149.14 108.658 149.95 108.874 150.67 109.306C151.39 109.726 151.96 110.296 152.38 111.016C152.8 111.736 153.01 112.54 153.01 113.428C153.01 114.316 152.8 115.12 152.38 115.84C151.96 116.56 151.39 117.13 150.67 117.55C149.95 117.97 149.14 118.18 148.24 118.18ZM148.24 116.596C148.804 116.596 149.308 116.458 149.752 116.182C150.208 115.894 150.568 115.51 150.832 115.03C151.108 114.55 151.246 114.016 151.246 113.428C151.246 112.828 151.114 112.294 150.85 111.826C150.586 111.346 150.226 110.962 149.77 110.674C149.314 110.386 148.804 110.242 148.24 110.242C147.676 110.242 147.166 110.386 146.71 110.674C146.254 110.962 145.894 111.346 145.63 111.826C145.366 112.294 145.234 112.828 145.234 113.428C145.234 114.016 145.366 114.55 145.63 115.03C145.894 115.51 146.254 115.894 146.71 116.182C147.166 116.458 147.676 116.596 148.24 116.596ZM154.712 118V108.838H156.512V110.008C156.8 109.576 157.154 109.24 157.574 109C158.006 108.748 158.492 108.622 159.032 108.622C159.404 108.634 159.71 108.688 159.95 108.784V110.404C159.602 110.272 159.248 110.206 158.888 110.206C158.36 110.206 157.892 110.35 157.484 110.638C157.076 110.914 156.752 111.322 156.512 111.862V118H154.712ZM162.179 121.87C161.987 121.87 161.807 121.858 161.639 121.834C161.471 121.822 161.333 121.798 161.225 121.762V120.178C161.441 120.226 161.705 120.25 162.017 120.25C162.857 120.25 163.463 119.8 163.835 118.9L164.231 118.018L160.559 108.838H162.557L165.221 115.822L168.173 108.838H170.117L165.689 119.134C165.401 119.782 165.095 120.304 164.771 120.7C164.447 121.108 164.075 121.402 163.655 121.582C163.235 121.774 162.743 121.87 162.179 121.87Z" fill="#151515"/>
<path d="M45 132.5H360C363.038 132.5 365.5 134.962 365.5 138V163C365.5 166.038 363.038 168.5 360 168.5H45C41.9624 168.5 39.5 166.038 39.5 163V138C39.5 134.962 41.9624 132.5 45 132.5Z" fill="white"/>
<path d="M45 132.5H360C363.038 132.5 365.5 134.962 365.5 138V163C365.5 166.038 363.038 168.5 360 168.5H45C41.9624 168.5 39.5 166.038 39.5 163V138C39.5 134.962 41.9624 132.5 45 132.5Z" stroke="#C7C7C7"/>
<path d="M56.6875 144C59.8293 144 62.375 146.546 62.375 149.688C62.375 151.008 61.9265 152.222 61.1719 153.188H61.6172C61.7921 153.188 61.959 153.256 62.082 153.379L64.8086 156.105C65.0627 156.363 65.0626 156.778 64.8057 157.035L64.0322 157.809C63.778 158.066 63.3625 158.065 63.1055 157.809L60.3789 155.082C60.256 154.959 60.1875 154.792 60.1875 154.617V154.172C59.2223 154.927 58.0082 155.375 56.6875 155.375C53.5457 155.375 51 152.829 51 149.688C51 146.546 53.5457 144 56.6875 144ZM56.6875 146.188C54.7516 146.188 53.1875 147.754 53.1875 149.688C53.1875 151.623 54.7543 153.188 56.6875 153.188C58.6234 153.187 60.1875 151.621 60.1875 149.688C60.1875 147.752 58.6207 146.188 56.6875 146.188Z" fill="#1F1F1F"/>
<path d="M77.246 155V145.2H83.938V146.152H78.324V149.652H82.16V150.59H78.324V155H77.246ZM85.3758 155V148.168H86.3978V155H85.3758ZM85.8938 146.474C85.6885 146.474 85.5112 146.404 85.3618 146.264C85.2218 146.115 85.1518 145.942 85.1518 145.746C85.1518 145.55 85.2218 145.382 85.3618 145.242C85.5112 145.093 85.6885 145.018 85.8938 145.018C86.0992 145.018 86.2718 145.093 86.4118 145.242C86.5612 145.382 86.6358 145.55 86.6358 145.746C86.6358 145.942 86.5612 146.115 86.4118 146.264C86.2718 146.404 86.0992 146.474 85.8938 146.474ZM88.4934 155V148.168H89.5154V149.274C89.7767 148.863 90.0894 148.56 90.4534 148.364C90.8174 148.159 91.228 148.056 91.6854 148.056C92.18 148.056 92.6094 148.163 92.9734 148.378C93.3467 148.583 93.636 148.877 93.8414 149.26C94.056 149.633 94.1634 150.072 94.1634 150.576V155H93.1414V150.87C93.1414 150.263 92.9734 149.787 92.6374 149.442C92.3107 149.087 91.8674 148.91 91.3074 148.91C90.934 148.91 90.5934 148.999 90.2854 149.176C89.9774 149.353 89.7207 149.615 89.5154 149.96V155H88.4934ZM99.06 155.098C98.472 155.098 97.94 154.944 97.464 154.636C96.988 154.319 96.61 153.899 96.33 153.376C96.05 152.844 95.91 152.251 95.91 151.598C95.91 150.935 96.05 150.343 96.33 149.82C96.6193 149.288 97.0066 148.868 97.492 148.56C97.9773 148.243 98.5186 148.084 99.116 148.084C99.536 148.084 99.928 148.168 100.292 148.336C100.656 148.495 100.973 148.728 101.244 149.036V144.892L102.266 144.682V155H101.244V154.09C100.983 154.417 100.665 154.669 100.292 154.846C99.9186 155.014 99.508 155.098 99.06 155.098ZM99.312 154.202C99.7133 154.202 100.082 154.123 100.418 153.964C100.754 153.805 101.029 153.581 101.244 153.292V149.904C101.02 149.615 100.735 149.391 100.39 149.232C100.054 149.064 99.6946 148.98 99.312 148.98C98.8546 148.98 98.444 149.092 98.08 149.316C97.7253 149.54 97.4406 149.848 97.226 150.24C97.0206 150.632 96.918 151.08 96.918 151.584C96.918 152.079 97.0206 152.527 97.226 152.928C97.4406 153.32 97.7253 153.633 98.08 153.866C98.444 154.09 98.8546 154.202 99.312 154.202ZM107.634 155V144.99L108.656 144.78V149.106C108.917 148.779 109.235 148.527 109.608 148.35C109.981 148.173 110.397 148.084 110.854 148.084C111.451 148.084 111.983 148.243 112.45 148.56C112.926 148.868 113.304 149.288 113.584 149.82C113.864 150.343 114.004 150.931 114.004 151.584C114.004 152.237 113.859 152.83 113.57 153.362C113.29 153.894 112.907 154.319 112.422 154.636C111.946 154.944 111.405 155.098 110.798 155.098C110.369 155.098 109.967 155.014 109.594 154.846C109.23 154.669 108.913 154.421 108.642 154.104V155H107.634ZM110.602 154.216C111.059 154.216 111.465 154.104 111.82 153.88C112.184 153.647 112.469 153.334 112.674 152.942C112.889 152.541 112.996 152.093 112.996 151.598C112.996 151.094 112.889 150.646 112.674 150.254C112.469 149.862 112.184 149.554 111.82 149.33C111.465 149.097 111.059 148.98 110.602 148.98C110.201 148.98 109.827 149.064 109.482 149.232C109.146 149.391 108.871 149.619 108.656 149.918V153.264C108.88 153.563 109.16 153.796 109.496 153.964C109.841 154.132 110.21 154.216 110.602 154.216ZM115.885 158.066C115.67 158.066 115.451 158.033 115.227 157.968V157.058C115.32 157.077 115.418 157.091 115.521 157.1C115.624 157.109 115.712 157.114 115.787 157.114C116.048 157.114 116.263 157.044 116.431 156.904C116.608 156.764 116.758 156.545 116.879 156.246L117.383 155L114.751 148.168H115.885L117.957 153.782L120.155 148.168H121.289L117.845 156.554C117.696 156.918 117.532 157.212 117.355 157.436C117.178 157.66 116.972 157.819 116.739 157.912C116.506 158.015 116.221 158.066 115.885 158.066ZM125.831 155V148.168H126.853V149.274C127.115 148.863 127.427 148.56 127.791 148.364C128.155 148.159 128.566 148.056 129.023 148.056C129.518 148.056 129.947 148.163 130.311 148.378C130.685 148.583 130.974 148.877 131.179 149.26C131.394 149.633 131.501 150.072 131.501 150.576V155H130.479V150.87C130.479 150.263 130.311 149.787 129.975 149.442C129.649 149.087 129.205 148.91 128.645 148.91C128.272 148.91 127.931 148.999 127.623 149.176C127.315 149.353 127.059 149.615 126.853 149.96V155H125.831ZM135.67 155.126C135.185 155.126 134.755 155.037 134.382 154.86C134.009 154.683 133.715 154.44 133.5 154.132C133.295 153.815 133.192 153.451 133.192 153.04C133.192 152.629 133.299 152.275 133.514 151.976C133.729 151.668 134.027 151.43 134.41 151.262C134.793 151.094 135.241 151.01 135.754 151.01C136.146 151.01 136.515 151.052 136.86 151.136C137.215 151.22 137.541 151.355 137.84 151.542V150.604C137.84 150.044 137.691 149.624 137.392 149.344C137.093 149.055 136.655 148.91 136.076 148.91C135.759 148.91 135.432 148.957 135.096 149.05C134.769 149.143 134.405 149.293 134.004 149.498L133.626 148.714C134.541 148.275 135.399 148.056 136.202 148.056C137.051 148.056 137.705 148.266 138.162 148.686C138.619 149.097 138.848 149.689 138.848 150.464V155H137.84V154.202C137.541 154.51 137.21 154.743 136.846 154.902C136.482 155.051 136.09 155.126 135.67 155.126ZM134.172 153.012C134.172 153.413 134.326 153.735 134.634 153.978C134.951 154.221 135.367 154.342 135.88 154.342C136.263 154.342 136.613 154.277 136.93 154.146C137.257 154.015 137.56 153.819 137.84 153.558V152.242C137.551 152.074 137.252 151.953 136.944 151.878C136.636 151.794 136.291 151.752 135.908 151.752C135.385 151.752 134.965 151.869 134.648 152.102C134.331 152.326 134.172 152.629 134.172 153.012ZM140.925 155V148.168H141.947V149.232C142.208 148.84 142.507 148.546 142.843 148.35C143.179 148.154 143.557 148.056 143.977 148.056C144.462 148.056 144.887 148.177 145.251 148.42C145.615 148.653 145.89 148.975 146.077 149.386C146.348 148.947 146.67 148.616 147.043 148.392C147.426 148.168 147.864 148.056 148.359 148.056C148.816 148.056 149.218 148.163 149.563 148.378C149.918 148.593 150.193 148.891 150.389 149.274C150.585 149.647 150.683 150.086 150.683 150.59V155H149.661V150.842C149.661 150.245 149.512 149.773 149.213 149.428C148.914 149.083 148.504 148.91 147.981 148.91C147.626 148.91 147.304 148.999 147.015 149.176C146.735 149.353 146.488 149.624 146.273 149.988C146.292 150.081 146.306 150.179 146.315 150.282C146.324 150.385 146.329 150.487 146.329 150.59V155H145.307V150.842C145.307 150.245 145.153 149.773 144.845 149.428C144.546 149.083 144.136 148.91 143.613 148.91C142.913 148.91 142.358 149.246 141.947 149.918V155H140.925ZM155.831 155.14C155.197 155.14 154.623 154.986 154.109 154.678C153.596 154.361 153.19 153.936 152.891 153.404C152.593 152.863 152.443 152.256 152.443 151.584C152.443 150.912 152.583 150.31 152.863 149.778C153.153 149.246 153.54 148.826 154.025 148.518C154.511 148.21 155.052 148.056 155.649 148.056C156.256 148.056 156.793 148.21 157.259 148.518C157.735 148.817 158.109 149.227 158.379 149.75C158.659 150.263 158.799 150.847 158.799 151.5V151.808H153.437C153.475 152.275 153.601 152.695 153.815 153.068C154.039 153.432 154.329 153.721 154.683 153.936C155.047 154.141 155.444 154.244 155.873 154.244C156.228 154.244 156.569 154.183 156.895 154.062C157.231 153.931 157.516 153.759 157.749 153.544L158.393 154.23C158.001 154.538 157.595 154.767 157.175 154.916C156.755 155.065 156.307 155.14 155.831 155.14ZM153.465 151.08H157.791C157.745 150.669 157.619 150.305 157.413 149.988C157.217 149.661 156.965 149.405 156.657 149.218C156.359 149.031 156.023 148.938 155.649 148.938C155.276 148.938 154.935 149.031 154.627 149.218C154.319 149.395 154.063 149.647 153.857 149.974C153.661 150.291 153.531 150.66 153.465 151.08Z" fill="#4D4D4D"/>
<path d="M58.626 208V199.656H55.35V198.2H63.582V199.656H60.306V208H58.626ZM66.6508 208.126C65.9882 208.126 65.3862 207.967 64.8448 207.65C64.3128 207.333 63.8928 206.903 63.5848 206.362C63.2768 205.811 63.1228 205.191 63.1228 204.5C63.1228 203.809 63.2768 203.193 63.5848 202.652C63.8928 202.101 64.3128 201.667 64.8448 201.35C65.3768 201.033 65.9788 200.874 66.6508 200.874C67.3228 200.874 67.9202 201.033 68.4428 201.35C68.9748 201.667 69.3948 202.101 69.7028 202.652C70.0108 203.193 70.1648 203.809 70.1648 204.5C70.1648 205.191 70.0108 205.811 69.7028 206.362C69.3948 206.903 68.9748 207.333 68.4428 207.65C67.9202 207.967 67.3228 208.126 66.6508 208.126ZM66.6508 206.782C67.0335 206.782 67.3695 206.684 67.6588 206.488C67.9575 206.292 68.1908 206.021 68.3588 205.676C68.5268 205.321 68.6108 204.929 68.6108 204.5C68.6108 204.061 68.5268 203.674 68.3588 203.338C68.1908 202.993 67.9575 202.722 67.6588 202.526C67.3695 202.321 67.0335 202.218 66.6508 202.218C66.2682 202.218 65.9275 202.321 65.6288 202.526C65.3302 202.722 65.0968 202.993 64.9288 203.338C64.7608 203.674 64.6768 204.061 64.6768 204.5C64.6768 204.939 64.7608 205.331 64.9288 205.676C65.0968 206.021 65.3302 206.292 65.6288 206.488C65.9275 206.684 66.2682 206.782 66.6508 206.782ZM74.6404 208.07C74.0524 208.07 73.5204 207.911 73.0444 207.594C72.5684 207.267 72.1857 206.838 71.8964 206.306C71.6164 205.765 71.4764 205.163 71.4764 204.5C71.4764 203.828 71.621 203.226 71.9104 202.694C72.1997 202.153 72.5917 201.723 73.0864 201.406C73.5904 201.089 74.1457 200.93 74.7524 200.93C75.1537 200.93 75.527 201.009 75.8724 201.168C76.227 201.317 76.535 201.541 76.7964 201.84V197.962L78.3784 197.682V208H76.8104V207.076C76.5584 207.393 76.2457 207.641 75.8724 207.818C75.499 207.986 75.0884 208.07 74.6404 208.07ZM75.1304 206.74C75.4664 206.74 75.779 206.675 76.0684 206.544C76.3577 206.404 76.6004 206.213 76.7964 205.97V203.016C76.591 202.773 76.3437 202.587 76.0544 202.456C75.765 202.325 75.457 202.26 75.1304 202.26C74.729 202.26 74.3697 202.358 74.0524 202.554C73.7444 202.741 73.497 203.002 73.3104 203.338C73.1237 203.674 73.0304 204.061 73.0304 204.5C73.0304 204.92 73.1237 205.303 73.3104 205.648C73.497 205.984 73.7444 206.25 74.0524 206.446C74.3697 206.642 74.729 206.74 75.1304 206.74ZM82.4713 208.126C81.9859 208.126 81.5519 208.037 81.1693 207.86C80.7959 207.673 80.5019 207.421 80.2873 207.104C80.0819 206.777 79.9793 206.404 79.9793 205.984C79.9793 205.564 80.0866 205.2 80.3013 204.892C80.5253 204.584 80.8379 204.346 81.2393 204.178C81.6406 204.01 82.1166 203.926 82.6673 203.926C82.9939 203.926 83.3159 203.963 83.6333 204.038C83.9506 204.103 84.2586 204.215 84.5573 204.374V203.59C84.5573 203.123 84.4219 202.773 84.1513 202.54C83.8899 202.307 83.4886 202.19 82.9473 202.19C82.6579 202.19 82.3453 202.237 82.0093 202.33C81.6826 202.414 81.3139 202.549 80.9033 202.736L80.3433 201.588C81.3699 201.112 82.3406 200.874 83.2553 200.874C84.1699 200.874 84.8746 201.098 85.3693 201.546C85.8733 201.985 86.1253 202.61 86.1253 203.422V208H84.5573V207.272C84.2586 207.561 83.9366 207.776 83.5913 207.916C83.2459 208.056 82.8726 208.126 82.4713 208.126ZM81.4633 205.956C81.4633 206.283 81.5939 206.539 81.8553 206.726C82.1166 206.913 82.4666 207.006 82.9053 207.006C83.2226 207.006 83.5166 206.959 83.7873 206.866C84.0673 206.763 84.3239 206.614 84.5573 206.418V205.284C84.3146 205.172 84.0626 205.088 83.8013 205.032C83.5399 204.976 83.2553 204.948 82.9473 204.948C82.4899 204.948 82.1259 205.037 81.8553 205.214C81.5939 205.391 81.4633 205.639 81.4633 205.956ZM88.4078 211.066C88.1558 211.066 87.8945 211.033 87.6238 210.968V209.596C87.7172 209.615 87.8152 209.629 87.9178 209.638C88.0298 209.647 88.1372 209.652 88.2398 209.652C88.5198 209.652 88.7485 209.587 88.9258 209.456C89.1032 209.325 89.2525 209.125 89.3738 208.854L89.6958 208.07L87.0498 200.986H88.7998L90.5918 206.18L92.5378 200.986H94.2738L90.9138 209.218C90.7365 209.666 90.5358 210.025 90.3118 210.296C90.0878 210.567 89.8218 210.763 89.5138 210.884C89.2152 211.005 88.8465 211.066 88.4078 211.066Z" fill="#151515"/>
<path d="M71 234.333C71.9193 234.333 72.667 235.081 72.667 236V243.5C72.667 244.419 71.9193 245.167 71 245.167H67.3877L64.75 247.146L64.7451 247.151L64.6123 247.25L64.167 247.583C64.042 247.677 63.8727 247.692 63.7295 247.622C63.5863 247.552 63.5 247.409 63.5 247.25V245.167H61C60.0807 245.167 59.333 244.419 59.333 243.5V236C59.333 235.081 60.0807 234.333 61 234.333H71ZM61 235.583C60.7708 235.583 60.583 235.771 60.583 236V243.5C60.583 243.729 60.7708 243.917 61 243.917H63.5C64.1901 243.917 64.75 244.477 64.75 245.167V245.583L66.6377 244.167C66.8538 244.006 67.117 243.917 67.3877 243.917H71C71.2292 243.917 71.417 243.729 71.417 243.5V236C71.417 235.771 71.2292 235.583 71 235.583H61Z" fill="#1F1F1F"/>
<path d="M81.424 246.5V235.3H86.016C86.7307 235.3 87.3547 235.439 87.888 235.716C88.4213 235.983 88.8373 236.356 89.136 236.836C89.4347 237.316 89.584 237.881 89.584 238.532C89.584 239.279 89.376 239.919 88.96 240.452C88.544 240.975 87.9733 241.343 87.248 241.556L89.632 246.5H88.272L86 241.716H82.656V246.5H81.424ZM82.656 240.692H85.92C86.656 240.692 87.2427 240.5 87.68 240.116C88.128 239.721 88.352 239.199 88.352 238.548C88.352 237.887 88.128 237.364 87.68 236.98C87.2427 236.585 86.656 236.388 85.92 236.388H82.656V240.692ZM94.6731 246.66C93.9478 246.66 93.2918 246.484 92.7051 246.132C92.1185 245.769 91.6545 245.284 91.3131 244.676C90.9718 244.057 90.8011 243.364 90.8011 242.596C90.8011 241.828 90.9611 241.14 91.2811 240.532C91.6118 239.924 92.0545 239.444 92.6091 239.092C93.1638 238.74 93.7825 238.564 94.4651 238.564C95.1585 238.564 95.7718 238.74 96.3051 239.092C96.8491 239.433 97.2758 239.903 97.5851 240.5C97.9051 241.087 98.0651 241.753 98.0651 242.5V242.852H91.9371C91.9798 243.385 92.1238 243.865 92.3691 244.292C92.6251 244.708 92.9558 245.039 93.3611 245.284C93.7771 245.519 94.2305 245.636 94.7211 245.636C95.1265 245.636 95.5158 245.567 95.8891 245.428C96.2731 245.279 96.5985 245.081 96.8651 244.836L97.6011 245.62C97.1531 245.972 96.6891 246.233 96.2091 246.404C95.7291 246.575 95.2171 246.66 94.6731 246.66ZM91.9691 242.02H96.9131C96.8598 241.551 96.7158 241.135 96.4811 240.772C96.2571 240.399 95.9691 240.105 95.6171 239.892C95.2758 239.679 94.8918 239.572 94.4651 239.572C94.0385 239.572 93.6491 239.679 93.2971 239.892C92.9451 240.095 92.6518 240.383 92.4171 240.756C92.1931 241.119 92.0438 241.54 91.9691 242.02ZM103.307 246.612C102.635 246.612 102.027 246.436 101.483 246.084C100.939 245.721 100.507 245.241 100.187 244.644C99.8674 244.036 99.7074 243.359 99.7074 242.612C99.7074 241.855 99.8674 241.177 100.187 240.58C100.518 239.972 100.961 239.492 101.515 239.14C102.07 238.777 102.689 238.596 103.371 238.596C103.851 238.596 104.299 238.692 104.715 238.884C105.131 239.065 105.494 239.332 105.803 239.684V234.948L106.971 234.708V246.5H105.803V245.46C105.505 245.833 105.142 246.121 104.715 246.324C104.289 246.516 103.819 246.612 103.307 246.612ZM103.595 245.588C104.054 245.588 104.475 245.497 104.859 245.316C105.243 245.135 105.558 244.879 105.803 244.548V240.676C105.547 240.345 105.222 240.089 104.827 239.908C104.443 239.716 104.033 239.62 103.595 239.62C103.073 239.62 102.603 239.748 102.187 240.004C101.782 240.26 101.457 240.612 101.211 241.06C100.977 241.508 100.859 242.02 100.859 242.596C100.859 243.161 100.977 243.673 101.211 244.132C101.457 244.58 101.782 244.937 102.187 245.204C102.603 245.46 103.073 245.588 103.595 245.588ZM113.314 246.5V235.3H114.546V240.308H120.978V235.3H122.21V246.5H120.978V241.412H114.546V246.5H113.314ZM127.085 246.644C126.53 246.644 126.039 246.543 125.613 246.34C125.186 246.137 124.85 245.86 124.605 245.508C124.37 245.145 124.253 244.729 124.253 244.26C124.253 243.791 124.375 243.385 124.621 243.044C124.866 242.692 125.207 242.42 125.645 242.228C126.082 242.036 126.594 241.94 127.181 241.94C127.629 241.94 128.05 241.988 128.445 242.084C128.85 242.18 129.223 242.335 129.565 242.548V241.476C129.565 240.836 129.394 240.356 129.053 240.036C128.711 239.705 128.21 239.54 127.549 239.54C127.186 239.54 126.813 239.593 126.429 239.7C126.055 239.807 125.639 239.977 125.181 240.212L124.749 239.316C125.794 238.815 126.775 238.564 127.693 238.564C128.663 238.564 129.41 238.804 129.933 239.284C130.455 239.753 130.717 240.431 130.717 241.316V246.5H129.565V245.588C129.223 245.94 128.845 246.207 128.429 246.388C128.013 246.559 127.565 246.644 127.085 246.644ZM125.373 244.228C125.373 244.687 125.549 245.055 125.901 245.332C126.263 245.609 126.738 245.748 127.325 245.748C127.762 245.748 128.162 245.673 128.525 245.524C128.898 245.375 129.245 245.151 129.565 244.852V243.348C129.234 243.156 128.893 243.017 128.541 242.932C128.189 242.836 127.794 242.788 127.357 242.788C126.759 242.788 126.279 242.921 125.917 243.188C125.554 243.444 125.373 243.791 125.373 244.228ZM135.832 246.66C135.16 246.66 134.648 246.5 134.296 246.18C133.955 245.849 133.784 245.375 133.784 244.756V239.652H132.168V238.692H133.784V236.548L134.952 236.276V238.692H137.192V239.652H134.952V244.452C134.952 244.868 135.038 245.167 135.208 245.348C135.39 245.529 135.683 245.62 136.088 245.62C136.291 245.62 136.472 245.604 136.632 245.572C136.792 245.54 136.979 245.487 137.192 245.412V246.452C136.979 246.527 136.755 246.58 136.52 246.612C136.286 246.644 136.056 246.66 135.832 246.66ZM142.638 249.844V238.692H143.789V239.812C144.088 239.417 144.451 239.119 144.878 238.916C145.315 238.703 145.795 238.596 146.318 238.596C147 238.596 147.608 238.777 148.142 239.14C148.686 239.492 149.118 239.972 149.438 240.58C149.758 241.177 149.918 241.849 149.918 242.596C149.918 243.343 149.752 244.02 149.422 244.628C149.102 245.236 148.664 245.721 148.11 246.084C147.566 246.436 146.947 246.612 146.254 246.612C145.763 246.612 145.31 246.521 144.894 246.34C144.478 246.148 144.115 245.876 143.806 245.524V249.844H142.638ZM146.03 245.604C146.552 245.604 147.016 245.476 147.422 245.22C147.838 244.953 148.163 244.596 148.398 244.148C148.643 243.689 148.766 243.177 148.766 242.612C148.766 242.036 148.643 241.524 148.398 241.076C148.163 240.628 147.838 240.276 147.422 240.02C147.016 239.753 146.552 239.62 146.03 239.62C145.571 239.62 145.144 239.716 144.75 239.908C144.366 240.089 144.051 240.351 143.806 240.692V244.516C144.062 244.857 144.382 245.124 144.766 245.316C145.16 245.508 145.582 245.604 146.03 245.604ZM151.966 246.5V238.692H153.134V240.292C153.336 239.748 153.624 239.327 153.998 239.028C154.382 238.719 154.819 238.564 155.31 238.564C155.448 238.564 155.576 238.575 155.694 238.596C155.811 238.607 155.928 238.633 156.046 238.676V239.732C155.918 239.689 155.779 239.657 155.63 239.636C155.491 239.604 155.358 239.588 155.23 239.588C154.75 239.588 154.328 239.727 153.966 240.004C153.614 240.281 153.336 240.671 153.134 241.172V246.5H151.966ZM160.562 246.628C159.837 246.628 159.186 246.452 158.61 246.1C158.034 245.748 157.581 245.268 157.25 244.66C156.92 244.052 156.754 243.364 156.754 242.596C156.754 241.828 156.92 241.14 157.25 240.532C157.581 239.924 158.034 239.444 158.61 239.092C159.186 238.74 159.837 238.564 160.562 238.564C161.277 238.564 161.917 238.74 162.482 239.092C163.058 239.444 163.512 239.924 163.842 240.532C164.173 241.14 164.338 241.828 164.338 242.596C164.338 243.364 164.173 244.052 163.842 244.66C163.512 245.268 163.058 245.748 162.482 246.1C161.917 246.452 161.277 246.628 160.562 246.628ZM160.546 245.604C161.058 245.604 161.512 245.476 161.906 245.22C162.301 244.953 162.61 244.591 162.834 244.132C163.069 243.673 163.186 243.161 163.186 242.596C163.186 242.02 163.069 241.508 162.834 241.06C162.61 240.601 162.301 240.244 161.906 239.988C161.512 239.721 161.058 239.588 160.546 239.588C160.034 239.588 159.581 239.721 159.186 239.988C158.792 240.244 158.477 240.601 158.242 241.06C158.018 241.508 157.906 242.02 157.906 242.596C157.906 243.161 158.018 243.673 158.242 244.132C158.477 244.591 158.792 244.953 159.186 245.22C159.581 245.476 160.034 245.604 160.546 245.604ZM169.636 246.612C168.964 246.612 168.356 246.436 167.812 246.084C167.268 245.721 166.836 245.241 166.516 244.644C166.196 244.036 166.036 243.359 166.036 242.612C166.036 241.855 166.196 241.177 166.516 240.58C166.846 239.972 167.289 239.492 167.844 239.14C168.398 238.777 169.017 238.596 169.7 238.596C170.18 238.596 170.628 238.692 171.044 238.884C171.46 239.065 171.822 239.332 172.132 239.684V234.948L173.3 234.708V246.5H172.132V245.46C171.833 245.833 171.47 246.121 171.044 246.324C170.617 246.516 170.148 246.612 169.636 246.612ZM169.924 245.588C170.382 245.588 170.804 245.497 171.188 245.316C171.572 245.135 171.886 244.879 172.132 244.548V240.676C171.876 240.345 171.55 240.089 171.156 239.908C170.772 239.716 170.361 239.62 169.924 239.62C169.401 239.62 168.932 239.748 168.516 240.004C168.11 240.26 167.785 240.612 167.539 241.06C167.305 241.508 167.188 242.02 167.188 242.596C167.188 243.161 167.305 243.673 167.539 244.132C167.785 244.58 168.11 244.937 168.516 245.204C168.932 245.46 169.401 245.588 169.924 245.588ZM178.484 246.628C177.929 246.628 177.439 246.505 177.012 246.26C176.585 246.015 176.249 245.673 176.004 245.236C175.769 244.799 175.652 244.297 175.652 243.732V238.692H176.836V243.396C176.836 244.089 177.023 244.639 177.396 245.044C177.769 245.449 178.276 245.652 178.916 245.652C179.353 245.652 179.743 245.551 180.084 245.348C180.436 245.145 180.729 244.852 180.964 244.468V238.692H182.132V246.5H180.964V245.236C180.665 245.695 180.308 246.041 179.892 246.276C179.487 246.511 179.017 246.628 178.484 246.628ZM188.032 246.628C187.307 246.628 186.651 246.452 186.064 246.1C185.488 245.737 185.029 245.252 184.688 244.644C184.347 244.025 184.176 243.343 184.176 242.596C184.176 241.839 184.347 241.156 184.688 240.548C185.029 239.94 185.488 239.46 186.064 239.108C186.651 238.745 187.307 238.564 188.032 238.564C188.608 238.564 189.157 238.671 189.68 238.884C190.203 239.097 190.656 239.396 191.04 239.78L190.288 240.596C190.011 240.287 189.675 240.047 189.28 239.876C188.885 239.705 188.485 239.62 188.08 239.62C187.568 239.62 187.104 239.753 186.688 240.02C186.283 240.287 185.957 240.644 185.712 241.092C185.467 241.54 185.344 242.041 185.344 242.596C185.344 243.151 185.467 243.652 185.712 244.1C185.957 244.548 186.283 244.905 186.688 245.172C187.104 245.439 187.568 245.572 188.08 245.572C188.485 245.572 188.885 245.487 189.28 245.316C189.675 245.135 190.011 244.895 190.288 244.596L191.04 245.412C190.656 245.796 190.203 246.095 189.68 246.308C189.157 246.521 188.608 246.628 188.032 246.628ZM195.801 246.66C195.129 246.66 194.617 246.5 194.265 246.18C193.924 245.849 193.753 245.375 193.753 244.756V239.652H192.137V238.692H193.753V236.548L194.921 236.276V238.692H197.161V239.652H194.921V244.452C194.921 244.868 195.006 245.167 195.177 245.348C195.358 245.529 195.652 245.62 196.057 245.62C196.26 245.62 196.441 245.604 196.601 245.572C196.761 245.54 196.948 245.487 197.161 245.412V246.452C196.948 246.527 196.724 246.58 196.489 246.612C196.254 246.644 196.025 246.66 195.801 246.66ZM201.444 246.66C200.804 246.66 200.212 246.564 199.668 246.372C199.124 246.169 198.66 245.881 198.276 245.508L198.9 244.74C199.369 245.081 199.801 245.332 200.196 245.492C200.591 245.641 200.996 245.716 201.412 245.716C201.977 245.716 202.447 245.583 202.82 245.316C203.193 245.049 203.38 244.708 203.38 244.292C203.38 243.972 203.268 243.721 203.044 243.54C202.831 243.359 202.473 243.22 201.972 243.124L200.692 242.9C199.935 242.761 199.375 242.527 199.012 242.196C198.66 241.865 198.484 241.417 198.484 240.852C198.484 240.404 198.601 240.009 198.836 239.668C199.081 239.327 199.417 239.06 199.844 238.868C200.271 238.665 200.756 238.564 201.3 238.564C201.833 238.564 202.34 238.644 202.82 238.804C203.3 238.953 203.785 239.199 204.276 239.54L203.7 240.356C203.295 240.068 202.889 239.86 202.484 239.732C202.079 239.593 201.668 239.524 201.252 239.524C200.74 239.524 200.329 239.636 200.02 239.86C199.711 240.084 199.556 240.388 199.556 240.772C199.556 241.092 199.652 241.337 199.844 241.508C200.047 241.679 200.399 241.807 200.9 241.892L202.212 242.132C203.001 242.271 203.577 242.511 203.94 242.852C204.303 243.193 204.484 243.652 204.484 244.228C204.484 244.687 204.351 245.103 204.084 245.476C203.817 245.839 203.455 246.127 202.996 246.34C202.537 246.553 202.02 246.66 201.444 246.66ZM212.413 246.644C211.858 246.644 211.368 246.543 210.941 246.34C210.514 246.137 210.178 245.86 209.933 245.508C209.698 245.145 209.581 244.729 209.581 244.26C209.581 243.791 209.704 243.385 209.949 243.044C210.194 242.692 210.536 242.42 210.973 242.228C211.41 242.036 211.922 241.94 212.509 241.94C212.957 241.94 213.378 241.988 213.773 242.084C214.178 242.18 214.552 242.335 214.893 242.548V241.476C214.893 240.836 214.722 240.356 214.381 240.036C214.04 239.705 213.538 239.54 212.877 239.54C212.514 239.54 212.141 239.593 211.757 239.7C211.384 239.807 210.968 239.977 210.509 240.212L210.077 239.316C211.122 238.815 212.104 238.564 213.021 238.564C213.992 238.564 214.738 238.804 215.261 239.284C215.784 239.753 216.045 240.431 216.045 241.316V246.5H214.893V245.588C214.552 245.94 214.173 246.207 213.757 246.388C213.341 246.559 212.893 246.644 212.413 246.644ZM210.701 244.228C210.701 244.687 210.877 245.055 211.229 245.332C211.592 245.609 212.066 245.748 212.653 245.748C213.09 245.748 213.49 245.673 213.853 245.524C214.226 245.375 214.573 245.151 214.893 244.852V243.348C214.562 243.156 214.221 243.017 213.869 242.932C213.517 242.836 213.122 242.788 212.685 242.788C212.088 242.788 211.608 242.921 211.245 243.188C210.882 243.444 210.701 243.791 210.701 244.228ZM218.419 246.5V238.692H219.587V239.956C219.885 239.487 220.243 239.14 220.659 238.916C221.075 238.681 221.544 238.564 222.067 238.564C222.632 238.564 223.123 238.687 223.539 238.932C223.965 239.167 224.296 239.503 224.531 239.94C224.776 240.367 224.899 240.868 224.899 241.444V246.5H223.731V241.78C223.731 241.087 223.539 240.543 223.155 240.148C222.781 239.743 222.275 239.54 221.635 239.54C221.208 239.54 220.819 239.641 220.467 239.844C220.115 240.047 219.821 240.345 219.587 240.74V246.5H218.419ZM230.495 246.612C229.823 246.612 229.215 246.436 228.671 246.084C228.127 245.721 227.695 245.241 227.375 244.644C227.055 244.036 226.895 243.359 226.895 242.612C226.895 241.855 227.055 241.177 227.375 240.58C227.706 239.972 228.148 239.492 228.703 239.14C229.258 238.777 229.876 238.596 230.559 238.596C231.039 238.596 231.487 238.692 231.903 238.884C232.319 239.065 232.682 239.332 232.991 239.684V234.948L234.159 234.708V246.5H232.991V245.46C232.692 245.833 232.33 246.121 231.903 246.324C231.476 246.516 231.007 246.612 230.495 246.612ZM230.783 245.588C231.242 245.588 231.663 245.497 232.047 245.316C232.431 245.135 232.746 244.879 232.991 244.548V240.676C232.735 240.345 232.41 240.089 232.015 239.908C231.631 239.716 231.22 239.62 230.783 239.62C230.26 239.62 229.791 239.748 229.375 240.004C228.97 240.26 228.644 240.612 228.399 241.06C228.164 241.508 228.047 242.02 228.047 242.596C228.047 243.161 228.164 243.673 228.399 244.132C228.644 244.58 228.97 244.937 229.375 245.204C229.791 245.46 230.26 245.588 230.783 245.588ZM242.71 246.66C242.07 246.66 241.478 246.564 240.934 246.372C240.39 246.169 239.926 245.881 239.542 245.508L240.166 244.74C240.635 245.081 241.067 245.332 241.462 245.492C241.856 245.641 242.262 245.716 242.678 245.716C243.243 245.716 243.712 245.583 244.086 245.316C244.459 245.049 244.646 244.708 244.646 244.292C244.646 243.972 244.534 243.721 244.31 243.54C244.096 243.359 243.739 243.22 243.238 243.124L241.958 242.9C241.2 242.761 240.64 242.527 240.278 242.196C239.926 241.865 239.75 241.417 239.75 240.852C239.75 240.404 239.867 240.009 240.102 239.668C240.347 239.327 240.683 239.06 241.11 238.868C241.536 238.665 242.022 238.564 242.566 238.564C243.099 238.564 243.606 238.644 244.086 238.804C244.566 238.953 245.051 239.199 245.542 239.54L244.966 240.356C244.56 240.068 244.155 239.86 243.75 239.732C243.344 239.593 242.934 239.524 242.518 239.524C242.006 239.524 241.595 239.636 241.286 239.86C240.976 240.084 240.822 240.388 240.822 240.772C240.822 241.092 240.918 241.337 241.11 241.508C241.312 241.679 241.664 241.807 242.166 241.892L243.478 242.132C244.267 242.271 244.843 242.511 245.206 242.852C245.568 243.193 245.75 243.652 245.75 244.228C245.75 244.687 245.616 245.103 245.35 245.476C245.083 245.839 244.72 246.127 244.262 246.34C243.803 246.553 243.286 246.66 242.71 246.66ZM251.126 246.66C250.401 246.66 249.745 246.484 249.158 246.132C248.572 245.769 248.108 245.284 247.766 244.676C247.425 244.057 247.254 243.364 247.254 242.596C247.254 241.828 247.414 241.14 247.734 240.532C248.065 239.924 248.508 239.444 249.062 239.092C249.617 238.74 250.236 238.564 250.918 238.564C251.612 238.564 252.225 238.74 252.758 239.092C253.302 239.433 253.729 239.903 254.038 240.5C254.358 241.087 254.518 241.753 254.518 242.5V242.852H248.39C248.433 243.385 248.577 243.865 248.822 244.292C249.078 244.708 249.409 245.039 249.814 245.284C250.23 245.519 250.684 245.636 251.174 245.636C251.58 245.636 251.969 245.567 252.342 245.428C252.726 245.279 253.052 245.081 253.318 244.836L254.054 245.62C253.606 245.972 253.142 246.233 252.662 246.404C252.182 246.575 251.67 246.66 251.126 246.66ZM248.422 242.02H253.366C253.313 241.551 253.169 241.135 252.934 240.772C252.71 240.399 252.422 240.105 252.07 239.892C251.729 239.679 251.345 239.572 250.918 239.572C250.492 239.572 250.102 239.679 249.75 239.892C249.398 240.095 249.105 240.383 248.87 240.756C248.646 241.119 248.497 241.54 248.422 242.02ZM256.513 246.5V238.692H257.681V240.292C257.883 239.748 258.171 239.327 258.545 239.028C258.929 238.719 259.366 238.564 259.857 238.564C259.995 238.564 260.123 238.575 260.241 238.596C260.358 238.607 260.475 238.633 260.593 238.676V239.732C260.465 239.689 260.326 239.657 260.177 239.636C260.038 239.604 259.905 239.588 259.777 239.588C259.297 239.588 258.875 239.727 258.513 240.004C258.161 240.281 257.883 240.671 257.681 241.172V246.5H256.513ZM264.612 246.5L261.412 238.692H262.676L265.204 245.044L267.7 238.692H268.948L265.732 246.5H264.612ZM270.372 246.5V238.692H271.539V246.5H270.372ZM270.964 236.756C270.729 236.756 270.526 236.676 270.356 236.516C270.196 236.345 270.116 236.148 270.116 235.924C270.116 235.7 270.196 235.508 270.356 235.348C270.526 235.177 270.729 235.092 270.964 235.092C271.198 235.092 271.396 235.177 271.556 235.348C271.726 235.508 271.812 235.7 271.812 235.924C271.812 236.148 271.726 236.345 271.556 236.516C271.396 236.676 271.198 236.756 270.964 236.756ZM277.438 246.628C276.713 246.628 276.057 246.452 275.47 246.1C274.894 245.737 274.436 245.252 274.094 244.644C273.753 244.025 273.582 243.343 273.582 242.596C273.582 241.839 273.753 241.156 274.094 240.548C274.436 239.94 274.894 239.46 275.47 239.108C276.057 238.745 276.713 238.564 277.438 238.564C278.014 238.564 278.564 238.671 279.086 238.884C279.609 239.097 280.062 239.396 280.446 239.78L279.694 240.596C279.417 240.287 279.081 240.047 278.686 239.876C278.292 239.705 277.892 239.62 277.486 239.62C276.974 239.62 276.51 239.753 276.094 240.02C275.689 240.287 275.364 240.644 275.118 241.092C274.873 241.54 274.75 242.041 274.75 242.596C274.75 243.151 274.873 243.652 275.118 244.1C275.364 244.548 275.689 244.905 276.094 245.172C276.51 245.439 276.974 245.572 277.486 245.572C277.892 245.572 278.292 245.487 278.686 245.316C279.081 245.135 279.417 244.895 279.694 244.596L280.446 245.412C280.062 245.796 279.609 246.095 279.086 246.308C278.564 246.521 278.014 246.628 277.438 246.628ZM285.361 246.66C284.635 246.66 283.979 246.484 283.393 246.132C282.806 245.769 282.342 245.284 282.001 244.676C281.659 244.057 281.489 243.364 281.489 242.596C281.489 241.828 281.649 241.14 281.969 240.532C282.299 239.924 282.742 239.444 283.297 239.092C283.851 238.74 284.47 238.564 285.153 238.564C285.846 238.564 286.459 238.74 286.993 239.092C287.537 239.433 287.963 239.903 288.273 240.5C288.593 241.087 288.753 241.753 288.753 242.5V242.852H282.625C282.667 243.385 282.811 243.865 283.057 244.292C283.313 244.708 283.643 245.039 284.049 245.284C284.465 245.519 284.918 245.636 285.409 245.636C285.814 245.636 286.203 245.567 286.577 245.428C286.961 245.279 287.286 245.081 287.553 244.836L288.289 245.62C287.841 245.972 287.377 246.233 286.897 246.404C286.417 246.575 285.905 246.66 285.361 246.66ZM282.657 242.02H287.601C287.547 241.551 287.403 241.135 287.169 240.772C286.945 240.399 286.657 240.105 286.305 239.892C285.963 239.679 285.579 239.572 285.153 239.572C284.726 239.572 284.337 239.679 283.985 239.892C283.633 240.095 283.339 240.383 283.105 240.756C282.881 241.119 282.731 241.54 282.657 242.02ZM293.241 246.66C292.601 246.66 292.009 246.564 291.465 246.372C290.921 246.169 290.457 245.881 290.073 245.508L290.697 244.74C291.166 245.081 291.598 245.332 291.993 245.492C292.388 245.641 292.793 245.716 293.209 245.716C293.774 245.716 294.244 245.583 294.617 245.316C294.99 245.049 295.177 244.708 295.177 244.292C295.177 243.972 295.065 243.721 294.841 243.54C294.628 243.359 294.27 243.22 293.769 243.124L292.489 242.9C291.732 242.761 291.172 242.527 290.809 242.196C290.457 241.865 290.281 241.417 290.281 240.852C290.281 240.404 290.398 240.009 290.633 239.668C290.878 239.327 291.214 239.06 291.641 238.868C292.068 238.665 292.553 238.564 293.097 238.564C293.63 238.564 294.137 238.644 294.617 238.804C295.097 238.953 295.582 239.199 296.073 239.54L295.497 240.356C295.092 240.068 294.686 239.86 294.281 239.732C293.876 239.593 293.465 239.524 293.049 239.524C292.537 239.524 292.126 239.636 291.817 239.86C291.508 240.084 291.353 240.388 291.353 240.772C291.353 241.092 291.449 241.337 291.641 241.508C291.844 241.679 292.196 241.807 292.697 241.892L294.009 242.132C294.798 242.271 295.374 242.511 295.737 242.852C296.1 243.193 296.281 243.652 296.281 244.228C296.281 244.687 296.148 245.103 295.881 245.476C295.614 245.839 295.252 246.127 294.793 246.34C294.334 246.553 293.817 246.66 293.241 246.66Z" fill="#151515"/>
<path d="M344.564 240.792C344.564 241.92 343.656 242.833 342.532 242.833C341.409 242.833 340.5 241.92 340.5 240.792C340.5 239.663 341.409 238.75 342.532 238.75C343.656 238.75 344.564 239.663 344.564 240.792ZM349.532 240.792C349.532 241.92 348.623 242.833 347.5 242.833C346.377 242.833 345.468 241.92 345.468 240.792C345.468 239.663 346.377 238.75 347.5 238.75C348.623 238.75 349.532 239.663 349.532 240.792ZM354.5 240.792C354.5 241.92 353.591 242.833 352.468 242.833C351.344 242.833 350.436 241.92 350.436 240.792C350.436 239.663 351.344 238.75 352.468 238.75C353.591 238.75 354.5 239.663 354.5 240.792Z" fill="#1F1F1F"/>
<rect width="327" height="651" transform="translate(39 283)" fill="white"/>
<g clip-path="url(#clip1_698_62797)">
<path d="M58.626 298V289.656H55.35V288.2H63.582V289.656H60.306V298H58.626ZM64.9077 298V287.962L66.4897 287.682V292.134C66.7604 291.714 67.0824 291.401 67.4557 291.196C67.8291 290.981 68.2444 290.874 68.7017 290.874C69.1871 290.874 69.6117 290.981 69.9757 291.196C70.3397 291.401 70.6244 291.691 70.8297 292.064C71.0444 292.437 71.1517 292.876 71.1517 293.38V298H69.5557V293.828C69.5557 293.315 69.4157 292.909 69.1357 292.61C68.8557 292.302 68.4824 292.148 68.0157 292.148C67.6984 292.148 67.4091 292.223 67.1477 292.372C66.8957 292.512 66.6764 292.722 66.4897 293.002V298H64.9077ZM73.0422 298V290.986H74.6242V298H73.0422ZM73.8402 289.558C73.5695 289.558 73.3362 289.465 73.1402 289.278C72.9535 289.082 72.8602 288.853 72.8602 288.592C72.8602 288.321 72.9535 288.093 73.1402 287.906C73.3362 287.71 73.5695 287.612 73.8402 287.612C74.1108 287.612 74.3395 287.71 74.5262 287.906C74.7222 288.093 74.8202 288.317 74.8202 288.578C74.8202 288.849 74.7222 289.082 74.5262 289.278C74.3395 289.465 74.1108 289.558 73.8402 289.558ZM78.9635 298.14C78.3662 298.14 77.8062 298.061 77.2835 297.902C76.7702 297.734 76.3268 297.496 75.9535 297.188L76.6955 296.138C77.1622 296.427 77.5635 296.633 77.8995 296.754C78.2448 296.875 78.5948 296.936 78.9495 296.936C79.3695 296.936 79.7102 296.847 79.9715 296.67C80.2328 296.493 80.3635 296.264 80.3635 295.984C80.3635 295.769 80.2842 295.601 80.1255 295.48C79.9762 295.349 79.7288 295.251 79.3835 295.186L78.1515 294.976C77.4702 294.845 76.9615 294.621 76.6255 294.304C76.2895 293.987 76.1215 293.567 76.1215 293.044C76.1215 292.605 76.2335 292.227 76.4575 291.91C76.6908 291.583 77.0082 291.331 77.4095 291.154C77.8202 290.967 78.2962 290.874 78.8375 290.874C79.3228 290.874 79.7942 290.944 80.2515 291.084C80.7088 291.224 81.1568 291.434 81.5955 291.714L80.8535 292.764C80.4988 292.531 80.1442 292.363 79.7895 292.26C79.4442 292.148 79.0942 292.092 78.7395 292.092C78.3755 292.092 78.0815 292.167 77.8575 292.316C77.6428 292.456 77.5355 292.652 77.5355 292.904C77.5355 293.128 77.6055 293.301 77.7455 293.422C77.8948 293.534 78.1515 293.618 78.5155 293.674L79.7615 293.912C80.4615 294.033 80.9795 294.257 81.3155 294.584C81.6608 294.901 81.8335 295.326 81.8335 295.858C81.8335 296.287 81.7075 296.675 81.4555 297.02C81.2035 297.365 80.8628 297.641 80.4335 297.846C80.0042 298.042 79.5142 298.14 78.9635 298.14ZM86.4273 298V290.986H88.0093V292.092C88.2706 291.691 88.5739 291.387 88.9193 291.182C89.2739 290.977 89.6613 290.874 90.0813 290.874C90.5666 290.874 90.9866 290.995 91.3413 291.238C91.7053 291.481 91.9759 291.807 92.1533 292.218C92.4333 291.779 92.7646 291.448 93.1473 291.224C93.5393 290.991 93.9826 290.874 94.4773 290.874C94.9253 290.874 95.3219 290.981 95.6673 291.196C96.0219 291.411 96.2926 291.709 96.4793 292.092C96.6753 292.475 96.7733 292.913 96.7733 293.408V298H95.1913V293.758C95.1913 293.263 95.0653 292.871 94.8133 292.582C94.5613 292.293 94.2159 292.148 93.7773 292.148C93.4973 292.148 93.2359 292.218 92.9933 292.358C92.7599 292.498 92.5546 292.708 92.3773 292.988C92.3866 293.053 92.3913 293.123 92.3913 293.198C92.4006 293.263 92.4053 293.333 92.4053 293.408V298H90.8093V293.758C90.8093 293.263 90.6833 292.871 90.4313 292.582C90.1793 292.293 89.8339 292.148 89.3953 292.148C88.8259 292.148 88.3639 292.419 88.0093 292.96V298H86.4273ZM101.897 298.126C101.234 298.126 100.632 297.967 100.091 297.65C99.5589 297.333 99.1389 296.903 98.8309 296.362C98.5229 295.811 98.3689 295.191 98.3689 294.5C98.3689 293.809 98.5229 293.193 98.8309 292.652C99.1389 292.101 99.5589 291.667 100.091 291.35C100.623 291.033 101.225 290.874 101.897 290.874C102.569 290.874 103.166 291.033 103.689 291.35C104.221 291.667 104.641 292.101 104.949 292.652C105.257 293.193 105.411 293.809 105.411 294.5C105.411 295.191 105.257 295.811 104.949 296.362C104.641 296.903 104.221 297.333 103.689 297.65C103.166 297.967 102.569 298.126 101.897 298.126ZM101.897 296.782C102.28 296.782 102.616 296.684 102.905 296.488C103.204 296.292 103.437 296.021 103.605 295.676C103.773 295.321 103.857 294.929 103.857 294.5C103.857 294.061 103.773 293.674 103.605 293.338C103.437 292.993 103.204 292.722 102.905 292.526C102.616 292.321 102.28 292.218 101.897 292.218C101.514 292.218 101.174 292.321 100.875 292.526C100.576 292.722 100.343 292.993 100.175 293.338C100.007 293.674 99.9229 294.061 99.9229 294.5C99.9229 294.939 100.007 295.331 100.175 295.676C100.343 296.021 100.576 296.292 100.875 296.488C101.174 296.684 101.514 296.782 101.897 296.782ZM107.044 298V290.986H108.626V292.134C108.897 291.714 109.219 291.401 109.592 291.196C109.966 290.981 110.381 290.874 110.838 290.874C111.324 290.874 111.748 290.981 112.112 291.196C112.476 291.401 112.761 291.691 112.966 292.064C113.181 292.437 113.288 292.876 113.288 293.38V298H111.692V293.828C111.692 293.315 111.552 292.909 111.272 292.61C110.992 292.302 110.619 292.148 110.152 292.148C109.835 292.148 109.546 292.223 109.284 292.372C109.032 292.512 108.813 292.722 108.626 293.002V298H107.044ZM118.012 298.14C117.302 298.14 116.766 297.977 116.402 297.65C116.038 297.314 115.856 296.824 115.856 296.18V292.246H114.456V290.986H115.856V289.054L117.438 288.718V290.986H119.384V292.246H117.438V295.83C117.438 296.175 117.512 296.423 117.662 296.572C117.811 296.712 118.063 296.782 118.418 296.782C118.576 296.782 118.721 296.773 118.852 296.754C118.992 296.726 119.164 296.679 119.37 296.614V297.944C119.174 298.009 118.95 298.056 118.698 298.084C118.455 298.121 118.226 298.14 118.012 298.14ZM120.785 298V287.962L122.367 287.682V292.134C122.637 291.714 122.959 291.401 123.333 291.196C123.706 290.981 124.121 290.874 124.579 290.874C125.064 290.874 125.489 290.981 125.853 291.196C126.217 291.401 126.501 291.691 126.707 292.064C126.921 292.437 127.029 292.876 127.029 293.38V298H125.433V293.828C125.433 293.315 125.293 292.909 125.013 292.61C124.733 292.302 124.359 292.148 123.893 292.148C123.575 292.148 123.286 292.223 123.025 292.372C122.773 292.512 122.553 292.722 122.367 293.002V298H120.785Z" fill="#151515"/>
<path d="M71 324.333C71.9193 324.333 72.667 325.081 72.667 326V333.5C72.667 334.419 71.9193 335.167 71 335.167H67.3877L64.75 337.146L64.7451 337.151L64.6123 337.25L64.167 337.583C64.042 337.677 63.8727 337.692 63.7295 337.622C63.5863 337.552 63.5 337.409 63.5 337.25V335.167H61C60.0807 335.167 59.333 334.419 59.333 333.5V326C59.333 325.081 60.0807 324.333 61 324.333H71ZM61 325.583C60.7708 325.583 60.583 325.771 60.583 326V333.5C60.583 333.729 60.7708 333.917 61 333.917H63.5C64.1901 333.917 64.75 334.477 64.75 335.167V335.583L66.6377 334.167C66.8538 334.006 67.117 333.917 67.3877 333.917H71C71.2292 333.917 71.417 333.729 71.417 333.5V326C71.417 325.771 71.2292 325.583 71 325.583H61Z" fill="#1F1F1F"/>
<path d="M81.408 336.5V325.3H82.64V336.5H81.408ZM85.2469 336.5V328.692H86.4149V329.956C86.7135 329.487 87.0709 329.14 87.4869 328.916C87.9029 328.681 88.3722 328.564 88.8949 328.564C89.4602 328.564 89.9509 328.687 90.3669 328.932C90.7935 329.167 91.1242 329.503 91.3589 329.94C91.6042 330.367 91.7269 330.868 91.7269 331.444V336.5H90.5589V331.78C90.5589 331.087 90.3669 330.543 89.9829 330.148C89.6095 329.743 89.1029 329.54 88.4629 329.54C88.0362 329.54 87.6469 329.641 87.2949 329.844C86.9429 330.047 86.6495 330.345 86.4149 330.74V336.5H85.2469ZM96.491 336.66C95.851 336.66 95.259 336.564 94.715 336.372C94.171 336.169 93.707 335.881 93.323 335.508L93.947 334.74C94.4163 335.081 94.8483 335.332 95.243 335.492C95.6377 335.641 96.043 335.716 96.459 335.716C97.0243 335.716 97.4937 335.583 97.867 335.316C98.2403 335.049 98.427 334.708 98.427 334.292C98.427 333.972 98.315 333.721 98.091 333.54C97.8777 333.359 97.5203 333.22 97.019 333.124L95.739 332.9C94.9817 332.761 94.4217 332.527 94.059 332.196C93.707 331.865 93.531 331.417 93.531 330.852C93.531 330.404 93.6483 330.009 93.883 329.668C94.1283 329.327 94.4643 329.06 94.891 328.868C95.3177 328.665 95.803 328.564 96.347 328.564C96.8803 328.564 97.387 328.644 97.867 328.804C98.347 328.953 98.8323 329.199 99.323 329.54L98.747 330.356C98.3417 330.068 97.9363 329.86 97.531 329.732C97.1257 329.593 96.715 329.524 96.299 329.524C95.787 329.524 95.3763 329.636 95.067 329.86C94.7577 330.084 94.603 330.388 94.603 330.772C94.603 331.092 94.699 331.337 94.891 331.508C95.0937 331.679 95.4457 331.807 95.947 331.892L97.259 332.132C98.0483 332.271 98.6243 332.511 98.987 332.852C99.3497 333.193 99.531 333.652 99.531 334.228C99.531 334.687 99.3977 335.103 99.131 335.476C98.8643 335.839 98.5017 336.127 98.043 336.34C97.5843 336.553 97.067 336.66 96.491 336.66ZM104.129 336.66C103.457 336.66 102.945 336.5 102.593 336.18C102.252 335.849 102.081 335.375 102.081 334.756V329.652H100.465V328.692H102.081V326.548L103.249 326.276V328.692H105.489V329.652H103.249V334.452C103.249 334.868 103.334 335.167 103.505 335.348C103.686 335.529 103.98 335.62 104.385 335.62C104.588 335.62 104.769 335.604 104.929 335.572C105.089 335.54 105.276 335.487 105.489 335.412V336.452C105.276 336.527 105.052 336.58 104.817 336.612C104.582 336.644 104.353 336.66 104.129 336.66ZM109.616 336.644C109.061 336.644 108.571 336.543 108.144 336.34C107.717 336.137 107.381 335.86 107.136 335.508C106.901 335.145 106.784 334.729 106.784 334.26C106.784 333.791 106.907 333.385 107.152 333.044C107.397 332.692 107.739 332.42 108.176 332.228C108.613 332.036 109.125 331.94 109.712 331.94C110.16 331.94 110.581 331.988 110.976 332.084C111.381 332.18 111.755 332.335 112.096 332.548V331.476C112.096 330.836 111.925 330.356 111.584 330.036C111.243 329.705 110.741 329.54 110.08 329.54C109.717 329.54 109.344 329.593 108.96 329.7C108.587 329.807 108.171 329.977 107.712 330.212L107.28 329.316C108.325 328.815 109.307 328.564 110.224 328.564C111.195 328.564 111.941 328.804 112.464 329.284C112.987 329.753 113.248 330.431 113.248 331.316V336.5H112.096V335.588C111.755 335.94 111.376 336.207 110.96 336.388C110.544 336.559 110.096 336.644 109.616 336.644ZM107.904 334.228C107.904 334.687 108.08 335.055 108.432 335.332C108.795 335.609 109.269 335.748 109.856 335.748C110.293 335.748 110.693 335.673 111.056 335.524C111.429 335.375 111.776 335.151 112.096 334.852V333.348C111.765 333.156 111.424 333.017 111.072 332.932C110.72 332.836 110.325 332.788 109.888 332.788C109.291 332.788 108.811 332.921 108.448 333.188C108.085 333.444 107.904 333.791 107.904 334.228ZM115.622 336.5V324.948L116.79 324.708V336.5H115.622ZM119.184 336.5V324.948L120.352 324.708V336.5H119.184ZM125.163 336.644C124.608 336.644 124.118 336.543 123.691 336.34C123.264 336.137 122.928 335.86 122.683 335.508C122.448 335.145 122.331 334.729 122.331 334.26C122.331 333.791 122.454 333.385 122.699 333.044C122.944 332.692 123.286 332.42 123.723 332.228C124.16 332.036 124.672 331.94 125.259 331.94C125.707 331.94 126.128 331.988 126.523 332.084C126.928 332.18 127.302 332.335 127.643 332.548V331.476C127.643 330.836 127.472 330.356 127.131 330.036C126.79 329.705 126.288 329.54 125.627 329.54C125.264 329.54 124.891 329.593 124.507 329.7C124.134 329.807 123.718 329.977 123.259 330.212L122.827 329.316C123.872 328.815 124.854 328.564 125.771 328.564C126.742 328.564 127.488 328.804 128.011 329.284C128.534 329.753 128.795 330.431 128.795 331.316V336.5H127.643V335.588C127.302 335.94 126.923 336.207 126.507 336.388C126.091 336.559 125.643 336.644 125.163 336.644ZM123.451 334.228C123.451 334.687 123.627 335.055 123.979 335.332C124.342 335.609 124.816 335.748 125.403 335.748C125.84 335.748 126.24 335.673 126.603 335.524C126.976 335.375 127.323 335.151 127.643 334.852V333.348C127.312 333.156 126.971 333.017 126.619 332.932C126.267 332.836 125.872 332.788 125.435 332.788C124.838 332.788 124.358 332.921 123.995 333.188C123.632 333.444 123.451 333.791 123.451 334.228ZM133.91 336.66C133.238 336.66 132.726 336.5 132.374 336.18C132.033 335.849 131.862 335.375 131.862 334.756V329.652H130.246V328.692H131.862V326.548L133.03 326.276V328.692H135.27V329.652H133.03V334.452C133.03 334.868 133.116 335.167 133.286 335.348C133.468 335.529 133.761 335.62 134.166 335.62C134.369 335.62 134.55 335.604 134.71 335.572C134.87 335.54 135.057 335.487 135.27 335.412V336.452C135.057 336.527 134.833 336.58 134.598 336.612C134.364 336.644 134.134 336.66 133.91 336.66ZM136.965 336.5V328.692H138.133V336.5H136.965ZM137.557 326.756C137.323 326.756 137.12 326.676 136.949 326.516C136.789 326.345 136.709 326.148 136.709 325.924C136.709 325.7 136.789 325.508 136.949 325.348C137.12 325.177 137.323 325.092 137.557 325.092C137.792 325.092 137.989 325.177 138.149 325.348C138.32 325.508 138.405 325.7 138.405 325.924C138.405 326.148 138.32 326.345 138.149 326.516C137.989 326.676 137.792 326.756 137.557 326.756ZM143.984 336.628C143.259 336.628 142.608 336.452 142.032 336.1C141.456 335.748 141.003 335.268 140.672 334.66C140.341 334.052 140.176 333.364 140.176 332.596C140.176 331.828 140.341 331.14 140.672 330.532C141.003 329.924 141.456 329.444 142.032 329.092C142.608 328.74 143.259 328.564 143.984 328.564C144.699 328.564 145.339 328.74 145.904 329.092C146.48 329.444 146.933 329.924 147.264 330.532C147.595 331.14 147.76 331.828 147.76 332.596C147.76 333.364 147.595 334.052 147.264 334.66C146.933 335.268 146.48 335.748 145.904 336.1C145.339 336.452 144.699 336.628 143.984 336.628ZM143.968 335.604C144.48 335.604 144.933 335.476 145.328 335.22C145.723 334.953 146.032 334.591 146.256 334.132C146.491 333.673 146.608 333.161 146.608 332.596C146.608 332.02 146.491 331.508 146.256 331.06C146.032 330.601 145.723 330.244 145.328 329.988C144.933 329.721 144.48 329.588 143.968 329.588C143.456 329.588 143.003 329.721 142.608 329.988C142.213 330.244 141.899 330.601 141.664 331.06C141.44 331.508 141.328 332.02 141.328 332.596C141.328 333.161 141.44 333.673 141.664 334.132C141.899 334.591 142.213 334.953 142.608 335.22C143.003 335.476 143.456 335.604 143.968 335.604ZM149.809 336.5V328.692H150.977V329.956C151.276 329.487 151.633 329.14 152.049 328.916C152.465 328.681 152.935 328.564 153.457 328.564C154.023 328.564 154.513 328.687 154.929 328.932C155.356 329.167 155.687 329.503 155.921 329.94C156.167 330.367 156.289 330.868 156.289 331.444V336.5H155.121V331.78C155.121 331.087 154.929 330.543 154.545 330.148C154.172 329.743 153.665 329.54 153.025 329.54C152.599 329.54 152.209 329.641 151.857 329.844C151.505 330.047 151.212 330.345 150.977 330.74V336.5H149.809Z" fill="#151515"/>
<path d="M344.564 330.792C344.564 331.92 343.656 332.833 342.532 332.833C341.409 332.833 340.5 331.92 340.5 330.792C340.5 329.663 341.409 328.75 342.532 328.75C343.656 328.75 344.564 329.663 344.564 330.792ZM349.532 330.792C349.532 331.92 348.623 332.833 347.5 332.833C346.377 332.833 345.468 331.92 345.468 330.792C345.468 329.663 346.377 328.75 347.5 328.75C348.623 328.75 349.532 329.663 349.532 330.792ZM354.5 330.792C354.5 331.92 353.591 332.833 352.468 332.833C351.344 332.833 350.436 331.92 350.436 330.792C350.436 329.663 351.344 328.75 352.468 328.75C353.591 328.75 354.5 329.663 354.5 330.792Z" fill="#1F1F1F"/>
<path d="M71 369.333C71.9193 369.333 72.667 370.081 72.667 371V378.5C72.667 379.419 71.9193 380.167 71 380.167H67.3877L64.75 382.146L64.7451 382.151L64.6123 382.25L64.167 382.583C64.042 382.677 63.8727 382.692 63.7295 382.622C63.5863 382.552 63.5 382.409 63.5 382.25V380.167H61C60.0807 380.167 59.333 379.419 59.333 378.5V371C59.333 370.081 60.0807 369.333 61 369.333H71ZM61 370.583C60.7708 370.583 60.583 370.771 60.583 371V378.5C60.583 378.729 60.7708 378.917 61 378.917H63.5C64.1901 378.917 64.75 379.477 64.75 380.167V380.583L66.6377 379.167C66.8538 379.006 67.117 378.917 67.3877 378.917H71C71.2292 378.917 71.417 378.729 71.417 378.5V371C71.417 370.771 71.2292 370.583 71 370.583H61Z" fill="#1F1F1F"/>
<path d="M84.32 381.5V371.388H80.448V370.3H89.424V371.388H85.552V381.5H84.32ZM90.3563 381.5V373.692H91.5243V375.292C91.7269 374.748 92.0149 374.327 92.3883 374.028C92.7723 373.719 93.2096 373.564 93.7003 373.564C93.8389 373.564 93.9669 373.575 94.0843 373.596C94.2016 373.607 94.3189 373.633 94.4363 373.676V374.732C94.3083 374.689 94.1696 374.657 94.0203 374.636C93.8816 374.604 93.7483 374.588 93.6203 374.588C93.1403 374.588 92.7189 374.727 92.3563 375.004C92.0043 375.281 91.7269 375.671 91.5243 376.172V381.5H90.3563ZM98.9529 381.628C98.2275 381.628 97.5769 381.452 97.0009 381.1C96.4249 380.748 95.9715 380.268 95.6409 379.66C95.3102 379.052 95.1449 378.364 95.1449 377.596C95.1449 376.828 95.3102 376.14 95.6409 375.532C95.9715 374.924 96.4249 374.444 97.0009 374.092C97.5769 373.74 98.2275 373.564 98.9529 373.564C99.6675 373.564 100.308 373.74 100.873 374.092C101.449 374.444 101.902 374.924 102.233 375.532C102.564 376.14 102.729 376.828 102.729 377.596C102.729 378.364 102.564 379.052 102.233 379.66C101.902 380.268 101.449 380.748 100.873 381.1C100.308 381.452 99.6675 381.628 98.9529 381.628ZM98.9369 380.604C99.4489 380.604 99.9022 380.476 100.297 380.22C100.692 379.953 101.001 379.591 101.225 379.132C101.46 378.673 101.577 378.161 101.577 377.596C101.577 377.02 101.46 376.508 101.225 376.06C101.001 375.601 100.692 375.244 100.297 374.988C99.9022 374.721 99.4489 374.588 98.9369 374.588C98.4249 374.588 97.9715 374.721 97.5769 374.988C97.1822 375.244 96.8675 375.601 96.6329 376.06C96.4089 376.508 96.2969 377.02 96.2969 377.596C96.2969 378.161 96.4089 378.673 96.6329 379.132C96.8675 379.591 97.1822 379.953 97.5769 380.22C97.9715 380.476 98.4249 380.604 98.9369 380.604ZM107.562 381.628C107.007 381.628 106.517 381.505 106.09 381.26C105.663 381.015 105.327 380.673 105.082 380.236C104.847 379.799 104.73 379.297 104.73 378.732V373.692H105.914V378.396C105.914 379.089 106.101 379.639 106.474 380.044C106.847 380.449 107.354 380.652 107.994 380.652C108.431 380.652 108.821 380.551 109.162 380.348C109.514 380.145 109.807 379.852 110.042 379.468V373.692H111.21V381.5H110.042V380.236C109.743 380.695 109.386 381.041 108.97 381.276C108.565 381.511 108.095 381.628 107.562 381.628ZM113.606 381.5V370.06L114.774 369.82V374.764C115.073 374.391 115.436 374.103 115.862 373.9C116.289 373.697 116.764 373.596 117.286 373.596C117.969 373.596 118.577 373.777 119.11 374.14C119.654 374.492 120.086 374.972 120.406 375.58C120.726 376.177 120.886 376.849 120.886 377.596C120.886 378.343 120.721 379.02 120.39 379.628C120.07 380.236 119.633 380.721 119.078 381.084C118.534 381.436 117.916 381.612 117.222 381.612C116.732 381.612 116.273 381.516 115.846 381.324C115.43 381.121 115.068 380.839 114.758 380.476V381.5H113.606ZM116.998 380.604C117.521 380.604 117.985 380.476 118.39 380.22C118.806 379.953 119.132 379.596 119.366 379.148C119.612 378.689 119.734 378.177 119.734 377.612C119.734 377.036 119.612 376.524 119.366 376.076C119.132 375.628 118.806 375.276 118.39 375.02C117.985 374.753 117.521 374.62 116.998 374.62C116.54 374.62 116.113 374.716 115.718 374.908C115.334 375.089 115.02 375.351 114.774 375.692V379.516C115.03 379.857 115.35 380.124 115.734 380.316C116.129 380.508 116.55 380.604 116.998 380.604ZM122.934 381.5V369.948L124.102 369.708V381.5H122.934ZM130.017 381.66C129.292 381.66 128.636 381.484 128.049 381.132C127.462 380.769 126.998 380.284 126.657 379.676C126.316 379.057 126.145 378.364 126.145 377.596C126.145 376.828 126.305 376.14 126.625 375.532C126.956 374.924 127.398 374.444 127.953 374.092C128.508 373.74 129.126 373.564 129.809 373.564C130.502 373.564 131.116 373.74 131.649 374.092C132.193 374.433 132.62 374.903 132.929 375.5C133.249 376.087 133.409 376.753 133.409 377.5V377.852H127.281C127.324 378.385 127.468 378.865 127.713 379.292C127.969 379.708 128.3 380.039 128.705 380.284C129.121 380.519 129.574 380.636 130.065 380.636C130.47 380.636 130.86 380.567 131.233 380.428C131.617 380.279 131.942 380.081 132.209 379.836L132.945 380.62C132.497 380.972 132.033 381.233 131.553 381.404C131.073 381.575 130.561 381.66 130.017 381.66ZM127.313 377.02H132.257C132.204 376.551 132.06 376.135 131.825 375.772C131.601 375.399 131.313 375.105 130.961 374.892C130.62 374.679 130.236 374.572 129.809 374.572C129.382 374.572 128.993 374.679 128.641 374.892C128.289 375.095 127.996 375.383 127.761 375.756C127.537 376.119 127.388 376.54 127.313 377.02ZM137.897 381.66C137.257 381.66 136.665 381.564 136.121 381.372C135.577 381.169 135.113 380.881 134.729 380.508L135.353 379.74C135.823 380.081 136.255 380.332 136.649 380.492C137.044 380.641 137.449 380.716 137.865 380.716C138.431 380.716 138.9 380.583 139.273 380.316C139.647 380.049 139.833 379.708 139.833 379.292C139.833 378.972 139.721 378.721 139.497 378.54C139.284 378.359 138.927 378.22 138.425 378.124L137.145 377.9C136.388 377.761 135.828 377.527 135.465 377.196C135.113 376.865 134.937 376.417 134.937 375.852C134.937 375.404 135.055 375.009 135.289 374.668C135.535 374.327 135.871 374.06 136.297 373.868C136.724 373.665 137.209 373.564 137.753 373.564C138.287 373.564 138.793 373.644 139.273 373.804C139.753 373.953 140.239 374.199 140.729 374.54L140.153 375.356C139.748 375.068 139.343 374.86 138.937 374.732C138.532 374.593 138.121 374.524 137.705 374.524C137.193 374.524 136.783 374.636 136.473 374.86C136.164 375.084 136.009 375.388 136.009 375.772C136.009 376.092 136.105 376.337 136.297 376.508C136.5 376.679 136.852 376.807 137.353 376.892L138.665 377.132C139.455 377.271 140.031 377.511 140.393 377.852C140.756 378.193 140.937 378.652 140.937 379.228C140.937 379.687 140.804 380.103 140.537 380.476C140.271 380.839 139.908 381.127 139.449 381.34C138.991 381.553 138.473 381.66 137.897 381.66ZM142.716 381.5V369.948L143.884 369.708V374.956C144.182 374.487 144.54 374.14 144.956 373.916C145.372 373.681 145.841 373.564 146.364 373.564C146.929 373.564 147.42 373.687 147.836 373.932C148.262 374.167 148.593 374.503 148.828 374.94C149.073 375.367 149.196 375.868 149.196 376.444V381.5H148.028V376.78C148.028 376.087 147.836 375.543 147.452 375.148C147.078 374.743 146.572 374.54 145.932 374.54C145.505 374.54 145.116 374.641 144.764 374.844C144.412 375.047 144.118 375.345 143.884 375.74V381.5H142.716ZM155 381.628C154.274 381.628 153.624 381.452 153.048 381.1C152.472 380.748 152.018 380.268 151.688 379.66C151.357 379.052 151.192 378.364 151.192 377.596C151.192 376.828 151.357 376.14 151.688 375.532C152.018 374.924 152.472 374.444 153.048 374.092C153.624 373.74 154.274 373.564 155 373.564C155.714 373.564 156.354 373.74 156.92 374.092C157.496 374.444 157.949 374.924 158.28 375.532C158.61 376.14 158.776 376.828 158.776 377.596C158.776 378.364 158.61 379.052 158.28 379.66C157.949 380.268 157.496 380.748 156.92 381.1C156.354 381.452 155.714 381.628 155 381.628ZM154.984 380.604C155.496 380.604 155.949 380.476 156.344 380.22C156.738 379.953 157.048 379.591 157.272 379.132C157.506 378.673 157.624 378.161 157.624 377.596C157.624 377.02 157.506 376.508 157.272 376.06C157.048 375.601 156.738 375.244 156.344 374.988C155.949 374.721 155.496 374.588 154.984 374.588C154.472 374.588 154.018 374.721 153.624 374.988C153.229 375.244 152.914 375.601 152.68 376.06C152.456 376.508 152.344 377.02 152.344 377.596C152.344 378.161 152.456 378.673 152.68 379.132C152.914 379.591 153.229 379.953 153.624 380.22C154.018 380.476 154.472 380.604 154.984 380.604ZM164.281 381.628C163.556 381.628 162.905 381.452 162.329 381.1C161.753 380.748 161.3 380.268 160.969 379.66C160.638 379.052 160.473 378.364 160.473 377.596C160.473 376.828 160.638 376.14 160.969 375.532C161.3 374.924 161.753 374.444 162.329 374.092C162.905 373.74 163.556 373.564 164.281 373.564C164.996 373.564 165.636 373.74 166.201 374.092C166.777 374.444 167.23 374.924 167.561 375.532C167.892 376.14 168.057 376.828 168.057 377.596C168.057 378.364 167.892 379.052 167.561 379.66C167.23 380.268 166.777 380.748 166.201 381.1C165.636 381.452 164.996 381.628 164.281 381.628ZM164.265 380.604C164.777 380.604 165.23 380.476 165.625 380.22C166.02 379.953 166.329 379.591 166.553 379.132C166.788 378.673 166.905 378.161 166.905 377.596C166.905 377.02 166.788 376.508 166.553 376.06C166.329 375.601 166.02 375.244 165.625 374.988C165.23 374.721 164.777 374.588 164.265 374.588C163.753 374.588 163.3 374.721 162.905 374.988C162.51 375.244 162.196 375.601 161.961 376.06C161.737 376.508 161.625 377.02 161.625 377.596C161.625 378.161 161.737 378.673 161.961 379.132C162.196 379.591 162.51 379.953 162.905 380.22C163.3 380.476 163.753 380.604 164.265 380.604ZM172.598 381.66C171.926 381.66 171.414 381.5 171.062 381.18C170.721 380.849 170.55 380.375 170.55 379.756V374.652H168.934V373.692H170.55V371.548L171.718 371.276V373.692H173.958V374.652H171.718V379.452C171.718 379.868 171.803 380.167 171.974 380.348C172.155 380.529 172.449 380.62 172.854 380.62C173.057 380.62 173.238 380.604 173.398 380.572C173.558 380.54 173.745 380.487 173.958 380.412V381.452C173.745 381.527 173.521 381.58 173.286 381.612C173.051 381.644 172.822 381.66 172.598 381.66ZM181.819 381.66C181.179 381.66 180.587 381.564 180.043 381.372C179.499 381.169 179.035 380.881 178.651 380.508L179.275 379.74C179.744 380.081 180.176 380.332 180.571 380.492C180.966 380.641 181.371 380.716 181.787 380.716C182.352 380.716 182.822 380.583 183.195 380.316C183.568 380.049 183.755 379.708 183.755 379.292C183.755 378.972 183.643 378.721 183.419 378.54C183.206 378.359 182.848 378.22 182.347 378.124L181.067 377.9C180.31 377.761 179.75 377.527 179.387 377.196C179.035 376.865 178.859 376.417 178.859 375.852C178.859 375.404 178.976 375.009 179.211 374.668C179.456 374.327 179.792 374.06 180.219 373.868C180.646 373.665 181.131 373.564 181.675 373.564C182.208 373.564 182.715 373.644 183.195 373.804C183.675 373.953 184.16 374.199 184.651 374.54L184.075 375.356C183.67 375.068 183.264 374.86 182.859 374.732C182.454 374.593 182.043 374.524 181.627 374.524C181.115 374.524 180.704 374.636 180.395 374.86C180.086 375.084 179.931 375.388 179.931 375.772C179.931 376.092 180.027 376.337 180.219 376.508C180.422 376.679 180.774 376.807 181.275 376.892L182.587 377.132C183.376 377.271 183.952 377.511 184.315 377.852C184.678 378.193 184.859 378.652 184.859 379.228C184.859 379.687 184.726 380.103 184.459 380.476C184.192 380.839 183.83 381.127 183.371 381.34C182.912 381.553 182.395 381.66 181.819 381.66ZM186.817 385.004C186.572 385.004 186.321 384.967 186.065 384.892V383.852C186.172 383.873 186.284 383.889 186.401 383.9C186.519 383.911 186.62 383.916 186.705 383.916C187.004 383.916 187.249 383.836 187.441 383.676C187.644 383.516 187.815 383.265 187.953 382.924L188.529 381.5L185.521 373.692H186.817L189.185 380.108L191.697 373.692H192.993L189.057 383.276C188.887 383.692 188.7 384.028 188.497 384.284C188.295 384.54 188.06 384.721 187.793 384.828C187.527 384.945 187.201 385.004 186.817 385.004ZM196.866 381.66C196.226 381.66 195.634 381.564 195.09 381.372C194.546 381.169 194.082 380.881 193.698 380.508L194.322 379.74C194.791 380.081 195.223 380.332 195.618 380.492C196.013 380.641 196.418 380.716 196.834 380.716C197.399 380.716 197.869 380.583 198.242 380.316C198.615 380.049 198.802 379.708 198.802 379.292C198.802 378.972 198.69 378.721 198.466 378.54C198.253 378.359 197.895 378.22 197.394 378.124L196.114 377.9C195.357 377.761 194.797 377.527 194.434 377.196C194.082 376.865 193.906 376.417 193.906 375.852C193.906 375.404 194.023 375.009 194.258 374.668C194.503 374.327 194.839 374.06 195.266 373.868C195.693 373.665 196.178 373.564 196.722 373.564C197.255 373.564 197.762 373.644 198.242 373.804C198.722 373.953 199.207 374.199 199.698 374.54L199.122 375.356C198.717 375.068 198.311 374.86 197.906 374.732C197.501 374.593 197.09 374.524 196.674 374.524C196.162 374.524 195.751 374.636 195.442 374.86C195.133 375.084 194.978 375.388 194.978 375.772C194.978 376.092 195.074 376.337 195.266 376.508C195.469 376.679 195.821 376.807 196.322 376.892L197.634 377.132C198.423 377.271 198.999 377.511 199.362 377.852C199.725 378.193 199.906 378.652 199.906 379.228C199.906 379.687 199.773 380.103 199.506 380.476C199.239 380.839 198.877 381.127 198.418 381.34C197.959 381.553 197.442 381.66 196.866 381.66ZM204.504 381.66C203.832 381.66 203.32 381.5 202.968 381.18C202.627 380.849 202.456 380.375 202.456 379.756V374.652H200.84V373.692H202.456V371.548L203.624 371.276V373.692H205.864V374.652H203.624V379.452C203.624 379.868 203.709 380.167 203.88 380.348C204.061 380.529 204.355 380.62 204.76 380.62C204.963 380.62 205.144 380.604 205.304 380.572C205.464 380.54 205.651 380.487 205.864 380.412V381.452C205.651 381.527 205.427 381.58 205.192 381.612C204.957 381.644 204.728 381.66 204.504 381.66ZM210.939 381.66C210.213 381.66 209.557 381.484 208.971 381.132C208.384 380.769 207.92 380.284 207.579 379.676C207.237 379.057 207.067 378.364 207.067 377.596C207.067 376.828 207.227 376.14 207.547 375.532C207.877 374.924 208.32 374.444 208.875 374.092C209.429 373.74 210.048 373.564 210.731 373.564C211.424 373.564 212.037 373.74 212.571 374.092C213.115 374.433 213.541 374.903 213.851 375.5C214.171 376.087 214.331 376.753 214.331 377.5V377.852H208.203C208.245 378.385 208.389 378.865 208.635 379.292C208.891 379.708 209.221 380.039 209.627 380.284C210.043 380.519 210.496 380.636 210.987 380.636C211.392 380.636 211.781 380.567 212.155 380.428C212.539 380.279 212.864 380.081 213.131 379.836L213.867 380.62C213.419 380.972 212.955 381.233 212.475 381.404C211.995 381.575 211.483 381.66 210.939 381.66ZM208.235 377.02H213.179C213.125 376.551 212.981 376.135 212.747 375.772C212.523 375.399 212.235 375.105 211.883 374.892C211.541 374.679 211.157 374.572 210.731 374.572C210.304 374.572 209.915 374.679 209.563 374.892C209.211 375.095 208.917 375.383 208.683 375.756C208.459 376.119 208.309 376.54 208.235 377.02ZM216.325 381.5V373.692H217.493V374.908C217.792 374.46 218.133 374.124 218.517 373.9C218.901 373.676 219.333 373.564 219.813 373.564C220.368 373.564 220.853 373.703 221.269 373.98C221.685 374.247 222 374.615 222.213 375.084C222.522 374.583 222.89 374.204 223.317 373.948C223.754 373.692 224.256 373.564 224.821 373.564C225.344 373.564 225.802 373.687 226.197 373.932C226.602 374.177 226.917 374.519 227.141 374.956C227.365 375.383 227.477 375.884 227.477 376.46V381.5H226.309V376.748C226.309 376.065 226.138 375.527 225.797 375.132C225.456 374.737 224.986 374.54 224.389 374.54C223.984 374.54 223.616 374.641 223.285 374.844C222.965 375.047 222.682 375.356 222.437 375.772C222.458 375.879 222.474 375.991 222.485 376.108C222.496 376.225 222.501 376.343 222.501 376.46V381.5H221.333V376.748C221.333 376.065 221.157 375.527 220.805 375.132C220.464 374.737 219.994 374.54 219.397 374.54C218.597 374.54 217.962 374.924 217.493 375.692V381.5H216.325ZM237.079 381.628C236.354 381.628 235.698 381.452 235.111 381.1C234.535 380.737 234.076 380.252 233.735 379.644C233.394 379.025 233.223 378.343 233.223 377.596C233.223 376.839 233.394 376.156 233.735 375.548C234.076 374.94 234.535 374.46 235.111 374.108C235.698 373.745 236.354 373.564 237.079 373.564C237.655 373.564 238.204 373.671 238.727 373.884C239.25 374.097 239.703 374.396 240.087 374.78L239.335 375.596C239.058 375.287 238.722 375.047 238.327 374.876C237.932 374.705 237.532 374.62 237.127 374.62C236.615 374.62 236.151 374.753 235.735 375.02C235.33 375.287 235.004 375.644 234.759 376.092C234.514 376.54 234.391 377.041 234.391 377.596C234.391 378.151 234.514 378.652 234.759 379.1C235.004 379.548 235.33 379.905 235.735 380.172C236.151 380.439 236.615 380.572 237.127 380.572C237.532 380.572 237.932 380.487 238.327 380.316C238.722 380.135 239.058 379.895 239.335 379.596L240.087 380.412C239.703 380.796 239.25 381.095 238.727 381.308C238.204 381.521 237.655 381.628 237.079 381.628ZM241.716 381.5V373.692H242.884V375.292C243.086 374.748 243.374 374.327 243.748 374.028C244.132 373.719 244.569 373.564 245.06 373.564C245.198 373.564 245.326 373.575 245.444 373.596C245.561 373.607 245.678 373.633 245.796 373.676V374.732C245.668 374.689 245.529 374.657 245.38 374.636C245.241 374.604 245.108 374.588 244.98 374.588C244.5 374.588 244.078 374.727 243.716 375.004C243.364 375.281 243.086 375.671 242.884 376.172V381.5H241.716ZM249.429 381.644C248.874 381.644 248.383 381.543 247.957 381.34C247.53 381.137 247.194 380.86 246.949 380.508C246.714 380.145 246.597 379.729 246.597 379.26C246.597 378.791 246.719 378.385 246.965 378.044C247.21 377.692 247.551 377.42 247.989 377.228C248.426 377.036 248.938 376.94 249.525 376.94C249.973 376.94 250.394 376.988 250.789 377.084C251.194 377.18 251.567 377.335 251.909 377.548V376.476C251.909 375.836 251.738 375.356 251.397 375.036C251.055 374.705 250.554 374.54 249.893 374.54C249.53 374.54 249.157 374.593 248.773 374.7C248.399 374.807 247.983 374.977 247.525 375.212L247.093 374.316C248.138 373.815 249.119 373.564 250.036 373.564C251.007 373.564 251.754 373.804 252.277 374.284C252.799 374.753 253.061 375.431 253.061 376.316V381.5H251.909V380.588C251.567 380.94 251.189 381.207 250.773 381.388C250.357 381.559 249.909 381.644 249.429 381.644ZM247.717 379.228C247.717 379.687 247.893 380.055 248.245 380.332C248.607 380.609 249.082 380.748 249.669 380.748C250.106 380.748 250.506 380.673 250.869 380.524C251.242 380.375 251.589 380.151 251.909 379.852V378.348C251.578 378.156 251.237 378.017 250.885 377.932C250.533 377.836 250.138 377.788 249.701 377.788C249.103 377.788 248.623 377.921 248.261 378.188C247.898 378.444 247.717 378.791 247.717 379.228ZM257.85 381.66C257.21 381.66 256.618 381.564 256.074 381.372C255.53 381.169 255.066 380.881 254.682 380.508L255.306 379.74C255.776 380.081 256.208 380.332 256.602 380.492C256.997 380.641 257.402 380.716 257.818 380.716C258.384 380.716 258.853 380.583 259.226 380.316C259.6 380.049 259.786 379.708 259.786 379.292C259.786 378.972 259.674 378.721 259.45 378.54C259.237 378.359 258.88 378.22 258.378 378.124L257.098 377.9C256.341 377.761 255.781 377.527 255.418 377.196C255.066 376.865 254.89 376.417 254.89 375.852C254.89 375.404 255.008 375.009 255.242 374.668C255.488 374.327 255.824 374.06 256.25 373.868C256.677 373.665 257.162 373.564 257.706 373.564C258.24 373.564 258.746 373.644 259.226 373.804C259.706 373.953 260.192 374.199 260.682 374.54L260.106 375.356C259.701 375.068 259.296 374.86 258.89 374.732C258.485 374.593 258.074 374.524 257.658 374.524C257.146 374.524 256.736 374.636 256.426 374.86C256.117 375.084 255.962 375.388 255.962 375.772C255.962 376.092 256.058 376.337 256.25 376.508C256.453 376.679 256.805 376.807 257.306 376.892L258.618 377.132C259.408 377.271 259.984 377.511 260.346 377.852C260.709 378.193 260.89 378.652 260.89 379.228C260.89 379.687 260.757 380.103 260.49 380.476C260.224 380.839 259.861 381.127 259.402 381.34C258.944 381.553 258.426 381.66 257.85 381.66ZM262.669 381.5V369.948L263.837 369.708V374.956C264.135 374.487 264.493 374.14 264.909 373.916C265.325 373.681 265.794 373.564 266.317 373.564C266.882 373.564 267.373 373.687 267.789 373.932C268.215 374.167 268.546 374.503 268.781 374.94C269.026 375.367 269.149 375.868 269.149 376.444V381.5H267.981V376.78C267.981 376.087 267.789 375.543 267.405 375.148C267.031 374.743 266.525 374.54 265.885 374.54C265.458 374.54 265.069 374.641 264.717 374.844C264.365 375.047 264.071 375.345 263.837 375.74V381.5H262.669Z" fill="#151515"/>
<path d="M344.564 375.792C344.564 376.92 343.656 377.833 342.532 377.833C341.409 377.833 340.5 376.92 340.5 375.792C340.5 374.663 341.409 373.75 342.532 373.75C343.656 373.75 344.564 374.663 344.564 375.792ZM349.532 375.792C349.532 376.92 348.623 377.833 347.5 377.833C346.377 377.833 345.468 376.92 345.468 375.792C345.468 374.663 346.377 373.75 347.5 373.75C348.623 373.75 349.532 374.663 349.532 375.792ZM354.5 375.792C354.5 376.92 353.591 377.833 352.468 377.833C351.344 377.833 350.436 376.92 350.436 375.792C350.436 374.663 351.344 373.75 352.468 373.75C353.591 373.75 354.5 374.663 354.5 375.792Z" fill="#1F1F1F"/>
</g>
<path d="M56.176 433V423.2H58.36L61.23 429.15L64.086 423.2H66.27V433H64.688V425.328L61.216 432.3L57.73 425.286V433H56.176ZM70.4127 433.126C69.9274 433.126 69.4934 433.037 69.1107 432.86C68.7374 432.673 68.4434 432.421 68.2287 432.104C68.0234 431.777 67.9207 431.404 67.9207 430.984C67.9207 430.564 68.028 430.2 68.2427 429.892C68.4667 429.584 68.7794 429.346 69.1807 429.178C69.582 429.01 70.058 428.926 70.6087 428.926C70.9354 428.926 71.2574 428.963 71.5747 429.038C71.892 429.103 72.2 429.215 72.4987 429.374V428.59C72.4987 428.123 72.3634 427.773 72.0927 427.54C71.8314 427.307 71.43 427.19 70.8887 427.19C70.5994 427.19 70.2867 427.237 69.9507 427.33C69.624 427.414 69.2554 427.549 68.8447 427.736L68.2847 426.588C69.3114 426.112 70.282 425.874 71.1967 425.874C72.1114 425.874 72.816 426.098 73.3107 426.546C73.8147 426.985 74.0667 427.61 74.0667 428.422V433H72.4987V432.272C72.2 432.561 71.878 432.776 71.5327 432.916C71.1874 433.056 70.814 433.126 70.4127 433.126ZM69.4047 430.956C69.4047 431.283 69.5354 431.539 69.7967 431.726C70.058 431.913 70.408 432.006 70.8467 432.006C71.164 432.006 71.458 431.959 71.7287 431.866C72.0087 431.763 72.2654 431.614 72.4987 431.418V430.284C72.256 430.172 72.004 430.088 71.7427 430.032C71.4814 429.976 71.1967 429.948 70.8887 429.948C70.4314 429.948 70.0674 430.037 69.7967 430.214C69.5354 430.391 69.4047 430.639 69.4047 430.956ZM75.982 433V425.986H77.564V427.498C77.7693 426.966 78.0353 426.56 78.362 426.28C78.6886 426 79.0666 425.86 79.496 425.86C79.6266 425.869 79.7433 425.883 79.846 425.902C79.9486 425.911 80.0606 425.944 80.182 426V427.386C80.0606 427.33 79.9206 427.288 79.762 427.26C79.6126 427.232 79.4633 427.218 79.314 427.218C78.9313 427.218 78.586 427.321 78.278 427.526C77.9793 427.731 77.7413 428.016 77.564 428.38V433H75.982ZM84.3699 433.126C83.7073 433.126 83.1053 432.967 82.5639 432.65C82.0319 432.323 81.6073 431.885 81.2899 431.334C80.9819 430.783 80.8279 430.172 80.8279 429.5C80.8279 428.819 80.9819 428.207 81.2899 427.666C81.6073 427.115 82.0319 426.681 82.5639 426.364C83.1053 426.037 83.7073 425.874 84.3699 425.874C84.9113 425.874 85.4246 425.977 85.9099 426.182C86.4046 426.387 86.8246 426.681 87.1699 427.064L86.1899 428.086C85.9473 427.815 85.6766 427.61 85.3779 427.47C85.0793 427.33 84.7619 427.26 84.4259 427.26C84.0433 427.26 83.6979 427.363 83.3899 427.568C83.0913 427.764 82.8533 428.03 82.6759 428.366C82.4986 428.702 82.4099 429.08 82.4099 429.5C82.4099 429.92 82.4986 430.303 82.6759 430.648C82.8533 430.984 83.0913 431.25 83.3899 431.446C83.6979 431.642 84.0433 431.74 84.4259 431.74C84.7619 431.74 85.0793 431.67 85.3779 431.53C85.6766 431.39 85.9473 431.189 86.1899 430.928L87.1699 431.936C86.8246 432.319 86.4046 432.613 85.9099 432.818C85.4246 433.023 84.9113 433.126 84.3699 433.126ZM88.478 433V422.962L90.06 422.682V427.134C90.3307 426.714 90.6527 426.401 91.026 426.196C91.3994 425.981 91.8147 425.874 92.272 425.874C92.7574 425.874 93.182 425.981 93.546 426.196C93.91 426.401 94.1947 426.691 94.4 427.064C94.6147 427.437 94.722 427.876 94.722 428.38V433H93.126V428.828C93.126 428.315 92.986 427.909 92.706 427.61C92.426 427.302 92.0527 427.148 91.586 427.148C91.2687 427.148 90.9794 427.223 90.718 427.372C90.466 427.512 90.2467 427.722 90.06 428.002V433H88.478Z" fill="#151515"/>
</g>
<defs>
<clipPath id="clip0_698_62797">
<rect width="405" height="433" fill="white"/>
</clipPath>
<clipPath id="clip1_698_62797">
<rect width="327" height="111" fill="white" transform="translate(39 283)"/>
</clipPath>
</defs>
</svg>
