<svg width="403" height="406" viewBox="0 0 403 406" fill="none" xmlns="http://www.w3.org/2000/svg">
<g clip-path="url(#clip0_759_63388)">
<rect width="403" height="406" fill="white"/>
<rect width="375" height="960" transform="translate(14)" fill="white"/>
<path d="M59.1533 38.0771C59.4792 37.7517 60.0074 37.7516 60.333 38.0771L60.9229 38.667C61.2483 38.9928 61.2483 39.5211 60.9229 39.8467L58.2686 42.5L60.9229 45.1533C61.2482 45.4792 61.2483 46.0075 60.9229 46.333L60.333 46.9229C60.0075 47.2483 59.4789 47.2482 59.1533 46.9229L56.5 44.2686L53.8467 46.9229C53.5211 47.2483 52.9926 47.2483 52.667 46.9229L52.0771 46.333C51.7516 46.0072 51.7517 45.4789 52.0771 45.1533L54.7305 42.5L52.0771 39.8467C51.7517 39.5208 51.7516 38.9926 52.0771 38.667L52.667 38.0771C52.9928 37.7516 53.5211 37.7517 53.8467 38.0771L56.5 40.7305L59.1533 38.0771Z" fill="#1F1F1F"/>
<path d="M245 42.5C245 32.2827 253.283 24 263.5 24H358.5C368.717 24 377 32.2827 377 42.5V42.5C377 52.7173 368.717 61 358.5 61H263.5C253.283 61 245 52.7173 245 42.5V42.5Z" fill="#0066CC"/>
<path d="M278.25 37.7502C278.734 37.7502 279.125 38.1413 279.125 38.6252C279.125 39.1091 278.734 39.5002 278.25 39.5002H275.625C275.141 39.5002 274.75 39.8913 274.75 40.3752V47.3752C274.75 47.8591 275.141 48.2502 275.625 48.2502H282.625C283.109 48.2502 283.5 47.8591 283.5 47.3752V44.7502C283.5 44.2663 283.891 43.8752 284.375 43.8752C284.859 43.8752 285.25 44.2663 285.25 44.7502V47.3752C285.25 48.8243 284.074 50.0002 282.625 50.0002H275.625C274.176 50.0002 273 48.8243 273 47.3752V40.3752C273 38.926 274.176 37.7502 275.625 37.7502H278.25ZM284.969 40.7112L280.394 45.2883C280.224 45.4551 280.019 45.5836 279.795 45.6575L277.367 46.467C277.129 46.5463 276.869 46.4864 276.694 46.3088C276.519 46.1312 276.456 45.8711 276.535 45.636L277.345 43.2073C277.419 42.9805 277.547 42.7754 277.714 42.6086L282.289 38.0315L284.969 40.7112ZM283.729 36.593C284.328 35.9942 285.297 35.9942 285.896 36.593L286.406 37.1018C287.005 37.7006 287.005 38.669 286.406 39.2678L285.584 40.0901L282.906 37.4133L283.729 36.593Z" fill="white"/>
<path d="M295.246 47V37.2H296.366L302.106 45.32L302.078 37.2H303.1V47H302.12L296.24 38.698L296.268 47H295.246ZM308.48 47.14C307.845 47.14 307.271 46.986 306.758 46.678C306.244 46.3607 305.838 45.936 305.54 45.404C305.241 44.8627 305.092 44.256 305.092 43.584C305.092 42.912 305.232 42.31 305.512 41.778C305.801 41.246 306.188 40.826 306.674 40.518C307.159 40.21 307.7 40.056 308.298 40.056C308.904 40.056 309.441 40.21 309.908 40.518C310.384 40.8167 310.757 41.2273 311.028 41.75C311.308 42.2633 311.448 42.8467 311.448 43.5V43.808H306.086C306.123 44.2747 306.249 44.6947 306.464 45.068C306.688 45.432 306.977 45.7213 307.332 45.936C307.696 46.1413 308.092 46.244 308.522 46.244C308.876 46.244 309.217 46.1833 309.544 46.062C309.88 45.9313 310.164 45.7587 310.398 45.544L311.042 46.23C310.65 46.538 310.244 46.7667 309.824 46.916C309.404 47.0653 308.956 47.14 308.48 47.14ZM306.114 43.08H310.44C310.393 42.6693 310.267 42.3053 310.062 41.988C309.866 41.6613 309.614 41.4047 309.306 41.218C309.007 41.0313 308.671 40.938 308.298 40.938C307.924 40.938 307.584 41.0313 307.276 41.218C306.968 41.3953 306.711 41.6473 306.506 41.974C306.31 42.2913 306.179 42.66 306.114 43.08ZM314.274 47L312.398 40.168H313.392L314.82 45.628L316.458 40.168H317.368L319.006 45.628L320.42 40.168H321.386L319.524 47H318.53L316.906 41.484L315.282 47H314.274ZM329.165 47.112C328.53 47.112 327.956 46.958 327.443 46.65C326.939 46.3327 326.537 45.908 326.239 45.376C325.94 44.8347 325.791 44.2373 325.791 43.584C325.791 42.9213 325.94 42.324 326.239 41.792C326.537 41.26 326.939 40.84 327.443 40.532C327.956 40.2147 328.53 40.056 329.165 40.056C329.669 40.056 330.149 40.1493 330.607 40.336C331.064 40.5227 331.461 40.784 331.797 41.12L331.139 41.834C330.896 41.5633 330.602 41.3533 330.257 41.204C329.911 41.0547 329.561 40.98 329.207 40.98C328.759 40.98 328.353 41.0967 327.989 41.33C327.634 41.5633 327.349 41.876 327.135 42.268C326.92 42.66 326.813 43.0987 326.813 43.584C326.813 44.0693 326.92 44.508 327.135 44.9C327.349 45.292 327.634 45.6047 327.989 45.838C328.353 46.0713 328.759 46.188 329.207 46.188C329.561 46.188 329.911 46.1133 330.257 45.964C330.602 45.8053 330.896 45.5953 331.139 45.334L331.797 46.048C331.461 46.384 331.064 46.6453 330.607 46.832C330.149 47.0187 329.669 47.112 329.165 47.112ZM333.222 47V36.892L334.244 36.682V41.274C334.505 40.8633 334.818 40.56 335.182 40.364C335.546 40.1587 335.957 40.056 336.414 40.056C336.909 40.056 337.338 40.1633 337.702 40.378C338.075 40.5833 338.365 40.8773 338.57 41.26C338.785 41.6333 338.892 42.072 338.892 42.576V47H337.87V42.87C337.87 42.2633 337.702 41.7873 337.366 41.442C337.039 41.0873 336.596 40.91 336.036 40.91C335.663 40.91 335.322 40.9987 335.014 41.176C334.706 41.3533 334.449 41.6147 334.244 41.96V47H333.222ZM343.06 47.126C342.575 47.126 342.146 47.0373 341.772 46.86C341.399 46.6827 341.105 46.44 340.89 46.132C340.685 45.8147 340.582 45.4507 340.582 45.04C340.582 44.6293 340.69 44.2747 340.904 43.976C341.119 43.668 341.418 43.43 341.8 43.262C342.183 43.094 342.631 43.01 343.144 43.01C343.536 43.01 343.905 43.052 344.25 43.136C344.605 43.22 344.932 43.3553 345.23 43.542V42.604C345.23 42.044 345.081 41.624 344.782 41.344C344.484 41.0547 344.045 40.91 343.466 40.91C343.149 40.91 342.822 40.9567 342.486 41.05C342.16 41.1433 341.796 41.2927 341.394 41.498L341.016 40.714C341.931 40.2753 342.79 40.056 343.592 40.056C344.442 40.056 345.095 40.266 345.552 40.686C346.01 41.0967 346.238 41.6893 346.238 42.464V47H345.23V46.202C344.932 46.51 344.6 46.7433 344.236 46.902C343.872 47.0513 343.48 47.126 343.06 47.126ZM341.562 45.012C341.562 45.4133 341.716 45.7353 342.024 45.978C342.342 46.2207 342.757 46.342 343.27 46.342C343.653 46.342 344.003 46.2767 344.32 46.146C344.647 46.0153 344.95 45.8193 345.23 45.558V44.242C344.941 44.074 344.642 43.9527 344.334 43.878C344.026 43.794 343.681 43.752 343.298 43.752C342.776 43.752 342.356 43.8687 342.038 44.102C341.721 44.326 341.562 44.6293 341.562 45.012ZM350.715 47.14C350.127 47.14 349.679 47 349.371 46.72C349.072 46.4307 348.923 46.0153 348.923 45.474V41.008H347.509V40.168H348.923V38.292L349.945 38.054V40.168H351.905V41.008H349.945V45.208C349.945 45.572 350.019 45.8333 350.169 45.992C350.327 46.1507 350.584 46.23 350.939 46.23C351.116 46.23 351.275 46.216 351.415 46.188C351.555 46.16 351.718 46.1133 351.905 46.048V46.958C351.718 47.0233 351.522 47.07 351.317 47.098C351.111 47.126 350.911 47.14 350.715 47.14Z" fill="white"/>
<path d="M50 88C54.9718 88 59 92.0282 59 97C59 101.972 54.9718 106 50 106C45.0282 106 41 101.972 41 97C41 92.0282 45.0282 88 50 88ZM50 89.7422C45.9899 89.7422 42.7422 92.9899 42.7422 97C42.7422 101.01 45.9899 104.258 50 104.258C54.0101 104.258 57.2578 101.01 57.2578 97C57.2578 92.9899 54.0101 89.7422 50 89.7422ZM50.5811 91.4834C50.8202 91.4836 51.0164 91.6798 51.0166 91.9189V97.0615L53.4404 98.8252C53.6364 98.9667 53.6767 99.2396 53.5352 99.4355L52.8525 100.375C52.7111 100.567 52.4391 100.611 52.2432 100.47L49.1621 98.2305C49.0496 98.147 48.9844 98.0158 48.9844 97.8779V91.9189C48.9846 91.6798 49.1798 91.4836 49.4189 91.4834H50.5811Z" fill="#1F1F1F"/>
<path d="M76.7439 103.198C75.8079 103.198 74.9379 103.036 74.1339 102.712C73.3419 102.376 72.6399 101.914 72.0279 101.326C71.4279 100.726 70.9599 100.036 70.6239 99.256C70.2999 98.464 70.1379 97.612 70.1379 96.7C70.1379 95.788 70.2999 94.942 70.6239 94.162C70.9599 93.37 71.4279 92.68 72.0279 92.092C72.6399 91.492 73.3479 91.03 74.1519 90.706C74.9559 90.37 75.8199 90.202 76.7439 90.202C77.4039 90.202 78.0459 90.292 78.6699 90.472C79.3059 90.64 79.8879 90.886 80.4159 91.21C80.9559 91.534 81.4239 91.924 81.8199 92.38L80.5599 93.676C80.0919 93.112 79.5219 92.686 78.8499 92.398C78.1779 92.098 77.4759 91.948 76.7439 91.948C75.8559 91.948 75.0579 92.158 74.3499 92.578C73.6419 92.998 73.0839 93.568 72.6759 94.288C72.2679 94.996 72.0639 95.8 72.0639 96.7C72.0639 97.6 72.2679 98.41 72.6759 99.13C73.0959 99.838 73.6659 100.402 74.3859 100.822C75.1059 101.242 75.9099 101.452 76.7979 101.452C77.5299 101.452 78.2199 101.308 78.8679 101.02C79.5279 100.72 80.0859 100.3 80.5419 99.76L81.7839 101.02C81.3639 101.464 80.8839 101.854 80.3439 102.19C79.8159 102.514 79.2399 102.766 78.6159 102.946C78.0039 103.114 77.3799 103.198 76.7439 103.198ZM83.417 103V90.4L85.217 90.004V94.774C85.925 94.03 86.843 93.658 87.971 93.658C88.679 93.658 89.297 93.808 89.825 94.108C90.365 94.408 90.785 94.828 91.085 95.368C91.397 95.908 91.553 96.532 91.553 97.24V103H89.753V97.546C89.753 96.826 89.549 96.262 89.141 95.854C88.733 95.434 88.175 95.224 87.467 95.224C86.987 95.224 86.555 95.326 86.171 95.53C85.787 95.734 85.469 96.028 85.217 96.412V103H83.417ZM96.5279 103.162C95.8679 103.162 95.2859 103.048 94.7819 102.82C94.2779 102.58 93.8819 102.25 93.5939 101.83C93.3059 101.41 93.1619 100.924 93.1619 100.372C93.1619 99.508 93.4919 98.83 94.1519 98.338C94.8119 97.834 95.7179 97.582 96.8699 97.582C97.7699 97.582 98.6039 97.756 99.3719 98.104V97.132C99.3719 95.824 98.6279 95.17 97.1399 95.17C96.7199 95.17 96.2819 95.236 95.8259 95.368C95.3699 95.488 94.8599 95.68 94.2959 95.944L93.6299 94.594C94.3259 94.27 94.9739 94.036 95.5739 93.892C96.1739 93.736 96.7799 93.658 97.3919 93.658C98.5799 93.658 99.4979 93.94 100.146 94.504C100.806 95.068 101.136 95.872 101.136 96.916V103H99.3719V102.208C98.9639 102.532 98.5259 102.772 98.0579 102.928C97.5899 103.084 97.0799 103.162 96.5279 103.162ZM94.8899 100.336C94.8899 100.78 95.0759 101.14 95.4479 101.416C95.8319 101.692 96.3299 101.83 96.9419 101.83C97.9259 101.83 98.7359 101.536 99.3719 100.948V99.4C98.7119 99.016 97.9259 98.824 97.0139 98.824C96.3539 98.824 95.8319 98.962 95.4479 99.238C95.0759 99.502 94.8899 99.868 94.8899 100.336ZM106.87 103.162C105.982 103.162 105.304 102.958 104.836 102.55C104.368 102.13 104.134 101.524 104.134 100.732V95.35H102.19V93.838H104.134V91.498L105.916 91.066V93.838H108.616V95.35H105.916V100.318C105.916 100.786 106.018 101.122 106.222 101.326C106.438 101.518 106.786 101.614 107.266 101.614C107.518 101.614 107.74 101.596 107.932 101.56C108.136 101.524 108.352 101.47 108.58 101.398V102.91C108.34 102.994 108.058 103.054 107.734 103.09C107.422 103.138 107.134 103.162 106.87 103.162ZM113.704 103V90.4L115.504 90.004V94.774C116.212 94.03 117.13 93.658 118.258 93.658C118.966 93.658 119.584 93.808 120.112 94.108C120.652 94.408 121.072 94.828 121.372 95.368C121.684 95.908 121.84 96.532 121.84 97.24V103H120.04V97.546C120.04 96.826 119.836 96.262 119.428 95.854C119.02 95.434 118.462 95.224 117.754 95.224C117.274 95.224 116.842 95.326 116.458 95.53C116.074 95.734 115.756 96.028 115.504 96.412V103H113.704ZM123.917 103V93.838H125.717V103H123.917ZM124.817 92.362C124.517 92.362 124.259 92.254 124.043 92.038C123.827 91.81 123.719 91.546 123.719 91.246C123.719 90.934 123.827 90.676 124.043 90.472C124.259 90.256 124.517 90.148 124.817 90.148C125.129 90.148 125.393 90.256 125.609 90.472C125.825 90.676 125.933 90.934 125.933 91.246C125.933 91.546 125.825 91.81 125.609 92.038C125.393 92.254 125.129 92.362 124.817 92.362ZM130.987 103.18C130.195 103.18 129.451 103.066 128.755 102.838C128.071 102.598 127.477 102.262 126.973 101.83L127.963 100.642C128.431 101.014 128.911 101.302 129.403 101.506C129.907 101.698 130.417 101.794 130.933 101.794C131.581 101.794 132.109 101.668 132.517 101.416C132.925 101.164 133.129 100.834 133.129 100.426C133.129 99.778 132.637 99.382 131.653 99.238L129.997 99.004C129.085 98.872 128.401 98.59 127.945 98.158C127.489 97.726 127.261 97.15 127.261 96.43C127.261 95.878 127.411 95.398 127.711 94.99C128.011 94.57 128.431 94.246 128.971 94.018C129.511 93.778 130.141 93.658 130.861 93.658C131.521 93.658 132.157 93.754 132.769 93.946C133.381 94.138 133.969 94.438 134.533 94.846L133.615 96.034C132.619 95.386 131.653 95.062 130.717 95.062C130.165 95.062 129.721 95.182 129.385 95.422C129.049 95.65 128.881 95.95 128.881 96.322C128.881 96.658 128.995 96.922 129.223 97.114C129.463 97.294 129.853 97.42 130.393 97.492L132.049 97.726C132.961 97.858 133.651 98.14 134.119 98.572C134.587 98.992 134.821 99.562 134.821 100.282C134.821 100.834 134.653 101.332 134.317 101.776C133.981 102.208 133.525 102.55 132.949 102.802C132.373 103.054 131.719 103.18 130.987 103.18ZM139.952 103.162C139.064 103.162 138.386 102.958 137.918 102.55C137.45 102.13 137.216 101.524 137.216 100.732V95.35H135.272V93.838H137.216V91.498L138.998 91.066V93.838H141.698V95.35H138.998V100.318C138.998 100.786 139.1 101.122 139.304 101.326C139.52 101.518 139.868 101.614 140.348 101.614C140.6 101.614 140.822 101.596 141.014 101.56C141.218 101.524 141.434 101.47 141.662 101.398V102.91C141.422 102.994 141.14 103.054 140.816 103.09C140.504 103.138 140.216 103.162 139.952 103.162ZM147.24 103.18C146.352 103.18 145.542 102.97 144.81 102.55C144.09 102.13 143.52 101.56 143.1 100.84C142.68 100.12 142.47 99.316 142.47 98.428C142.47 97.54 142.68 96.736 143.1 96.016C143.52 95.296 144.09 94.726 144.81 94.306C145.542 93.874 146.352 93.658 147.24 93.658C148.14 93.658 148.95 93.874 149.67 94.306C150.39 94.726 150.96 95.296 151.38 96.016C151.8 96.736 152.01 97.54 152.01 98.428C152.01 99.316 151.8 100.12 151.38 100.84C150.96 101.56 150.39 102.13 149.67 102.55C148.95 102.97 148.14 103.18 147.24 103.18ZM147.24 101.596C147.804 101.596 148.308 101.458 148.752 101.182C149.208 100.894 149.568 100.51 149.832 100.03C150.108 99.55 150.246 99.016 150.246 98.428C150.246 97.828 150.114 97.294 149.85 96.826C149.586 96.346 149.226 95.962 148.77 95.674C148.314 95.386 147.804 95.242 147.24 95.242C146.676 95.242 146.166 95.386 145.71 95.674C145.254 95.962 144.894 96.346 144.63 96.826C144.366 97.294 144.234 97.828 144.234 98.428C144.234 99.016 144.366 99.55 144.63 100.03C144.894 100.51 145.254 100.894 145.71 101.182C146.166 101.458 146.676 101.596 147.24 101.596ZM153.712 103V93.838H155.512V95.008C155.8 94.576 156.154 94.24 156.574 94C157.006 93.748 157.492 93.622 158.032 93.622C158.404 93.634 158.71 93.688 158.95 93.784V95.404C158.602 95.272 158.248 95.206 157.888 95.206C157.36 95.206 156.892 95.35 156.484 95.638C156.076 95.914 155.752 96.322 155.512 96.862V103H153.712ZM161.179 106.87C160.987 106.87 160.807 106.858 160.639 106.834C160.471 106.822 160.333 106.798 160.225 106.762V105.178C160.441 105.226 160.705 105.25 161.017 105.25C161.857 105.25 162.463 104.8 162.835 103.9L163.231 103.018L159.559 93.838H161.557L164.221 100.822L167.173 93.838H169.117L164.689 104.134C164.401 104.782 164.095 105.304 163.771 105.7C163.447 106.108 163.075 106.402 162.655 106.582C162.235 106.774 161.743 106.87 161.179 106.87Z" fill="#151515"/>
<path d="M44 117.5H359C362.038 117.5 364.5 119.962 364.5 123V148C364.5 151.038 362.038 153.5 359 153.5H44C40.9624 153.5 38.5 151.038 38.5 148V123C38.5 119.962 40.9624 117.5 44 117.5Z" fill="white"/>
<path d="M44 117.5H359C362.038 117.5 364.5 119.962 364.5 123V148C364.5 151.038 362.038 153.5 359 153.5H44C40.9624 153.5 38.5 151.038 38.5 148V123C38.5 119.962 40.9624 117.5 44 117.5Z" stroke="#C7C7C7"/>
<path d="M55.6875 129C58.8293 129 61.375 131.546 61.375 134.688C61.375 136.008 60.9265 137.222 60.1719 138.188H60.6172C60.7921 138.188 60.959 138.256 61.082 138.379L63.8086 141.105C64.0627 141.363 64.0626 141.778 63.8057 142.035L63.0322 142.809C62.778 143.066 62.3625 143.065 62.1055 142.809L59.3789 140.082C59.256 139.959 59.1875 139.792 59.1875 139.617V139.172C58.2223 139.927 57.0082 140.375 55.6875 140.375C52.5457 140.375 50 137.829 50 134.688C50 131.546 52.5457 129 55.6875 129ZM55.6875 131.188C53.7516 131.188 52.1875 132.754 52.1875 134.688C52.1875 136.623 53.7543 138.188 55.6875 138.188C57.6234 138.187 59.1875 136.621 59.1875 134.688C59.1875 132.752 57.6207 131.188 55.6875 131.188Z" fill="#1F1F1F"/>
<path d="M76.246 140V130.2H82.938V131.152H77.324V134.652H81.16V135.59H77.324V140H76.246ZM84.3758 140V133.168H85.3978V140H84.3758ZM84.8938 131.474C84.6885 131.474 84.5112 131.404 84.3618 131.264C84.2218 131.115 84.1518 130.942 84.1518 130.746C84.1518 130.55 84.2218 130.382 84.3618 130.242C84.5112 130.093 84.6885 130.018 84.8938 130.018C85.0992 130.018 85.2718 130.093 85.4118 130.242C85.5612 130.382 85.6358 130.55 85.6358 130.746C85.6358 130.942 85.5612 131.115 85.4118 131.264C85.2718 131.404 85.0992 131.474 84.8938 131.474ZM87.4934 140V133.168H88.5154V134.274C88.7767 133.863 89.0894 133.56 89.4534 133.364C89.8174 133.159 90.228 133.056 90.6854 133.056C91.18 133.056 91.6094 133.163 91.9734 133.378C92.3467 133.583 92.636 133.877 92.8414 134.26C93.056 134.633 93.1634 135.072 93.1634 135.576V140H92.1414V135.87C92.1414 135.263 91.9734 134.787 91.6374 134.442C91.3107 134.087 90.8674 133.91 90.3074 133.91C89.934 133.91 89.5934 133.999 89.2854 134.176C88.9774 134.353 88.7207 134.615 88.5154 134.96V140H87.4934ZM98.06 140.098C97.472 140.098 96.94 139.944 96.464 139.636C95.988 139.319 95.61 138.899 95.33 138.376C95.05 137.844 94.91 137.251 94.91 136.598C94.91 135.935 95.05 135.343 95.33 134.82C95.6193 134.288 96.0066 133.868 96.492 133.56C96.9773 133.243 97.5186 133.084 98.116 133.084C98.536 133.084 98.928 133.168 99.292 133.336C99.656 133.495 99.9733 133.728 100.244 134.036V129.892L101.266 129.682V140H100.244V139.09C99.9826 139.417 99.6653 139.669 99.292 139.846C98.9186 140.014 98.508 140.098 98.06 140.098ZM98.312 139.202C98.7133 139.202 99.082 139.123 99.418 138.964C99.754 138.805 100.029 138.581 100.244 138.292V134.904C100.02 134.615 99.7353 134.391 99.39 134.232C99.054 134.064 98.6946 133.98 98.312 133.98C97.8546 133.98 97.444 134.092 97.08 134.316C96.7253 134.54 96.4406 134.848 96.226 135.24C96.0206 135.632 95.918 136.08 95.918 136.584C95.918 137.079 96.0206 137.527 96.226 137.928C96.4406 138.32 96.7253 138.633 97.08 138.866C97.444 139.09 97.8546 139.202 98.312 139.202ZM106.634 140V129.99L107.656 129.78V134.106C107.917 133.779 108.235 133.527 108.608 133.35C108.981 133.173 109.397 133.084 109.854 133.084C110.451 133.084 110.983 133.243 111.45 133.56C111.926 133.868 112.304 134.288 112.584 134.82C112.864 135.343 113.004 135.931 113.004 136.584C113.004 137.237 112.859 137.83 112.57 138.362C112.29 138.894 111.907 139.319 111.422 139.636C110.946 139.944 110.405 140.098 109.798 140.098C109.369 140.098 108.967 140.014 108.594 139.846C108.23 139.669 107.913 139.421 107.642 139.104V140H106.634ZM109.602 139.216C110.059 139.216 110.465 139.104 110.82 138.88C111.184 138.647 111.469 138.334 111.674 137.942C111.889 137.541 111.996 137.093 111.996 136.598C111.996 136.094 111.889 135.646 111.674 135.254C111.469 134.862 111.184 134.554 110.82 134.33C110.465 134.097 110.059 133.98 109.602 133.98C109.201 133.98 108.827 134.064 108.482 134.232C108.146 134.391 107.871 134.619 107.656 134.918V138.264C107.88 138.563 108.16 138.796 108.496 138.964C108.841 139.132 109.21 139.216 109.602 139.216ZM114.885 143.066C114.67 143.066 114.451 143.033 114.227 142.968V142.058C114.32 142.077 114.418 142.091 114.521 142.1C114.624 142.109 114.712 142.114 114.787 142.114C115.048 142.114 115.263 142.044 115.431 141.904C115.608 141.764 115.758 141.545 115.879 141.246L116.383 140L113.751 133.168H114.885L116.957 138.782L119.155 133.168H120.289L116.845 141.554C116.696 141.918 116.532 142.212 116.355 142.436C116.178 142.66 115.972 142.819 115.739 142.912C115.506 143.015 115.221 143.066 114.885 143.066ZM124.831 140V133.168H125.853V134.274C126.115 133.863 126.427 133.56 126.791 133.364C127.155 133.159 127.566 133.056 128.023 133.056C128.518 133.056 128.947 133.163 129.311 133.378C129.685 133.583 129.974 133.877 130.179 134.26C130.394 134.633 130.501 135.072 130.501 135.576V140H129.479V135.87C129.479 135.263 129.311 134.787 128.975 134.442C128.649 134.087 128.205 133.91 127.645 133.91C127.272 133.91 126.931 133.999 126.623 134.176C126.315 134.353 126.059 134.615 125.853 134.96V140H124.831ZM134.67 140.126C134.185 140.126 133.755 140.037 133.382 139.86C133.009 139.683 132.715 139.44 132.5 139.132C132.295 138.815 132.192 138.451 132.192 138.04C132.192 137.629 132.299 137.275 132.514 136.976C132.729 136.668 133.027 136.43 133.41 136.262C133.793 136.094 134.241 136.01 134.754 136.01C135.146 136.01 135.515 136.052 135.86 136.136C136.215 136.22 136.541 136.355 136.84 136.542V135.604C136.84 135.044 136.691 134.624 136.392 134.344C136.093 134.055 135.655 133.91 135.076 133.91C134.759 133.91 134.432 133.957 134.096 134.05C133.769 134.143 133.405 134.293 133.004 134.498L132.626 133.714C133.541 133.275 134.399 133.056 135.202 133.056C136.051 133.056 136.705 133.266 137.162 133.686C137.619 134.097 137.848 134.689 137.848 135.464V140H136.84V139.202C136.541 139.51 136.21 139.743 135.846 139.902C135.482 140.051 135.09 140.126 134.67 140.126ZM133.172 138.012C133.172 138.413 133.326 138.735 133.634 138.978C133.951 139.221 134.367 139.342 134.88 139.342C135.263 139.342 135.613 139.277 135.93 139.146C136.257 139.015 136.56 138.819 136.84 138.558V137.242C136.551 137.074 136.252 136.953 135.944 136.878C135.636 136.794 135.291 136.752 134.908 136.752C134.385 136.752 133.965 136.869 133.648 137.102C133.331 137.326 133.172 137.629 133.172 138.012ZM139.925 140V133.168H140.947V134.232C141.208 133.84 141.507 133.546 141.843 133.35C142.179 133.154 142.557 133.056 142.977 133.056C143.462 133.056 143.887 133.177 144.251 133.42C144.615 133.653 144.89 133.975 145.077 134.386C145.348 133.947 145.67 133.616 146.043 133.392C146.426 133.168 146.864 133.056 147.359 133.056C147.816 133.056 148.218 133.163 148.563 133.378C148.918 133.593 149.193 133.891 149.389 134.274C149.585 134.647 149.683 135.086 149.683 135.59V140H148.661V135.842C148.661 135.245 148.512 134.773 148.213 134.428C147.914 134.083 147.504 133.91 146.981 133.91C146.626 133.91 146.304 133.999 146.015 134.176C145.735 134.353 145.488 134.624 145.273 134.988C145.292 135.081 145.306 135.179 145.315 135.282C145.324 135.385 145.329 135.487 145.329 135.59V140H144.307V135.842C144.307 135.245 144.153 134.773 143.845 134.428C143.546 134.083 143.136 133.91 142.613 133.91C141.913 133.91 141.358 134.246 140.947 134.918V140H139.925ZM154.831 140.14C154.197 140.14 153.623 139.986 153.109 139.678C152.596 139.361 152.19 138.936 151.891 138.404C151.593 137.863 151.443 137.256 151.443 136.584C151.443 135.912 151.583 135.31 151.863 134.778C152.153 134.246 152.54 133.826 153.025 133.518C153.511 133.21 154.052 133.056 154.649 133.056C155.256 133.056 155.793 133.21 156.259 133.518C156.735 133.817 157.109 134.227 157.379 134.75C157.659 135.263 157.799 135.847 157.799 136.5V136.808H152.437C152.475 137.275 152.601 137.695 152.815 138.068C153.039 138.432 153.329 138.721 153.683 138.936C154.047 139.141 154.444 139.244 154.873 139.244C155.228 139.244 155.569 139.183 155.895 139.062C156.231 138.931 156.516 138.759 156.749 138.544L157.393 139.23C157.001 139.538 156.595 139.767 156.175 139.916C155.755 140.065 155.307 140.14 154.831 140.14ZM152.465 136.08H156.791C156.745 135.669 156.619 135.305 156.413 134.988C156.217 134.661 155.965 134.405 155.657 134.218C155.359 134.031 155.023 133.938 154.649 133.938C154.276 133.938 153.935 134.031 153.627 134.218C153.319 134.395 153.063 134.647 152.857 134.974C152.661 135.291 152.531 135.66 152.465 136.08Z" fill="#4D4D4D"/>
<path d="M38 184C38 180.686 40.6863 178 44 178H359C362.314 178 365 180.686 365 184V209C365 212.314 362.314 215 359 215H44C40.6863 215 38 212.314 38 209V184Z" fill="#F2F2F2"/>
<rect width="327" height="651" transform="translate(38 239)" fill="white"/>
<g clip-path="url(#clip1_759_63388)">
<path d="M38 245C38 241.686 40.6863 239 44 239H262C265.314 239 268 241.686 268 245V254C268 257.314 265.314 260 262 260H44C40.6863 260 38 257.314 38 254V245Z" fill="#F2F2F2"/>
<path d="M38 274C38 270.686 40.6863 268 44 268H359C362.314 268 365 270.686 365 274V299C365 302.314 362.314 305 359 305H44C40.6863 305 38 302.314 38 299V274Z" fill="#F2F2F2"/>
<path d="M38 319C38 315.686 40.6863 313 44 313H359C362.314 313 365 315.686 365 319V344C365 347.314 362.314 350 359 350H44C40.6863 350 38 347.314 38 344V319Z" fill="#F2F2F2"/>
</g>
<path d="M38 380C38 376.686 40.6863 374 44 374H262C265.314 374 268 376.686 268 380V389C268 392.314 265.314 395 262 395H44C40.6863 395 38 392.314 38 389V380Z" fill="#F2F2F2"/>
<path d="M38 409C38 405.686 40.6863 403 44 403H359C362.314 403 365 405.686 365 409V434C365 437.314 362.314 440 359 440H44C40.6863 440 38 437.314 38 434V409Z" fill="#F2F2F2"/>
</g>
<defs>
<clipPath id="clip0_759_63388">
<rect width="403" height="406" fill="white"/>
</clipPath>
<clipPath id="clip1_759_63388">
<rect width="327" height="111" fill="white" transform="translate(38 239)"/>
</clipPath>
</defs>
</svg>
