<svg width="510" height="262" viewBox="0 0 510 262" fill="none" xmlns="http://www.w3.org/2000/svg">
<g clip-path="url(#clip0_703_63193)">
<rect width="510" height="262" fill="white"/>
<g filter="url(#filter0_d_703_63193)">
<g clip-path="url(#clip1_703_63193)">
<path d="M15 30C15 21.1634 22.1634 14 31 14H479C487.837 14 495 21.1634 495 30V196C495 204.837 487.837 212 479 212H31C22.1635 212 15 204.837 15 196V30Z" fill="#F2F2F2"/>
<mask id="path-3-inside-1_703_63193" fill="white">
<path d="M39 82C39 68.7452 49.7452 58 63 58V58C76.2548 58 87 68.7452 87 82V82C87 95.2548 76.2548 106 63 106V106C49.7452 106 39 95.2548 39 82V82Z"/>
</mask>
<path d="M39 82M87 82M87 82M39 82M63 58M87 82M63 106M39 82M63 106V105C50.2975 105 40 94.7025 40 82H39H38C38 95.8071 49.1929 107 63 107V106ZM87 82H86C86 94.7025 75.7025 105 63 105V106V107C76.8071 107 88 95.8071 88 82H87ZM63 58V59C75.7025 59 86 69.2975 86 82H87H88C88 68.1929 76.8071 57 63 57V58ZM63 58V57C49.1929 57 38 68.1929 38 82H39H40C40 69.2975 50.2975 59 63 59V58Z" fill="#C7C7C7" mask="url(#path-3-inside-1_703_63193)"/>
<g clip-path="url(#clip2_703_63193)">
<path d="M76.7 75.0714H64.6V71.75H66.525C67.2834 71.75 67.9 71.1294 67.9 70.3661V65.3839C67.9 64.6206 67.2834 64 66.525 64H60.475C59.7166 64 59.1 64.6206 59.1 65.3839V70.3661C59.1 71.1294 59.7166 71.75 60.475 71.75H62.4V75.0714H50.3C48.4803 75.0714 47 76.5613 47 78.3929V91.6786C47 93.5101 48.4803 95 50.3 95H76.7C78.5197 95 80 93.5101 80 91.6786V78.3929C80 76.5613 78.5197 75.0714 76.7 75.0714ZM61.3 66.2143H65.7V69.5357H61.3V66.2143ZM77.8 91.6786C77.8 92.2894 77.3069 92.7857 76.7 92.7857H50.3C49.6936 92.7857 49.2 92.2894 49.2 91.6786V78.3929C49.2 77.7825 49.6936 77.2857 50.3 77.2857H76.7C77.3069 77.2857 77.8 77.7825 77.8 78.3929V91.6786ZM55.525 81.7143V83.9286C55.525 84.387 55.1555 84.7589 54.7 84.7589H52.5C52.0445 84.7589 51.675 84.387 51.675 83.9286V81.7143C51.675 81.2559 52.0445 80.8839 52.5 80.8839H54.7C55.1555 80.8839 55.525 81.2559 55.525 81.7143ZM75.325 81.7143V83.9286C75.325 84.387 74.9555 84.7589 74.5 84.7589H72.3C71.8445 84.7589 71.475 84.387 71.475 83.9286V81.7143C71.475 81.2559 71.8445 80.8839 72.3 80.8839H74.5C74.9555 80.8839 75.325 81.2559 75.325 81.7143ZM67.5691 86.6683C67.8893 87.0965 67.8033 87.703 67.3779 88.0241C66.2521 88.8761 64.9115 89.3259 63.5 89.3259C62.0885 89.3259 60.7473 88.8761 59.6215 88.0241C59.1961 87.703 59.1107 87.0965 59.4298 86.6683C59.7494 86.2391 60.3536 86.1526 60.7774 86.4759C62.3576 87.6695 64.6408 87.6695 66.2221 86.4759C66.6475 86.1515 67.2512 86.2402 67.5691 86.6683Z" fill="#1F1F1F"/>
</g>
<path d="M112.176 73V63.2H116.544C117.151 63.2 117.687 63.3073 118.154 63.522C118.621 63.7367 118.98 64.04 119.232 64.432C119.493 64.8147 119.624 65.2627 119.624 65.776C119.624 66.28 119.479 66.7233 119.19 67.106C118.901 67.4793 118.513 67.7593 118.028 67.946C118.625 68.1233 119.097 68.4173 119.442 68.828C119.787 69.2293 119.96 69.71 119.96 70.27C119.96 70.8113 119.825 71.2873 119.554 71.698C119.283 72.1087 118.905 72.4307 118.42 72.664C117.935 72.888 117.37 73 116.726 73H112.176ZM113.856 67.33H116.362C116.847 67.33 117.23 67.204 117.51 66.952C117.799 66.7 117.944 66.364 117.944 65.944C117.944 65.524 117.799 65.1927 117.51 64.95C117.23 64.698 116.847 64.572 116.362 64.572H113.856V67.33ZM113.856 71.628H116.516C117.048 71.628 117.473 71.4927 117.79 71.222C118.107 70.942 118.266 70.5733 118.266 70.116C118.266 69.668 118.107 69.3087 117.79 69.038C117.482 68.758 117.057 68.618 116.516 68.618H113.856V71.628ZM124.797 73.126C124.135 73.126 123.533 72.9673 122.991 72.65C122.459 72.3327 122.039 71.9033 121.731 71.362C121.423 70.8113 121.269 70.1907 121.269 69.5C121.269 68.8093 121.423 68.1933 121.731 67.652C122.039 67.1013 122.459 66.6673 122.991 66.35C123.523 66.0327 124.125 65.874 124.797 65.874C125.469 65.874 126.067 66.0327 126.589 66.35C127.121 66.6673 127.541 67.1013 127.849 67.652C128.157 68.1933 128.311 68.8093 128.311 69.5C128.311 70.1907 128.157 70.8113 127.849 71.362C127.541 71.9033 127.121 72.3327 126.589 72.65C126.067 72.9673 125.469 73.126 124.797 73.126ZM124.797 71.782C125.18 71.782 125.516 71.684 125.805 71.488C126.104 71.292 126.337 71.0213 126.505 70.676C126.673 70.3213 126.757 69.9293 126.757 69.5C126.757 69.0613 126.673 68.674 126.505 68.338C126.337 67.9927 126.104 67.722 125.805 67.526C125.516 67.3207 125.18 67.218 124.797 67.218C124.415 67.218 124.074 67.3207 123.775 67.526C123.477 67.722 123.243 67.9927 123.075 68.338C122.907 68.674 122.823 69.0613 122.823 69.5C122.823 69.9387 122.907 70.3307 123.075 70.676C123.243 71.0213 123.477 71.292 123.775 71.488C124.074 71.684 124.415 71.782 124.797 71.782ZM132.641 73.14C131.931 73.14 131.395 72.9767 131.031 72.65C130.667 72.314 130.485 71.824 130.485 71.18V67.246H129.085V65.986H130.485V64.054L132.067 63.718V65.986H134.013V67.246H132.067V70.83C132.067 71.1753 132.141 71.4227 132.291 71.572C132.44 71.712 132.692 71.782 133.047 71.782C133.205 71.782 133.35 71.7727 133.481 71.754C133.621 71.726 133.793 71.6793 133.999 71.614V72.944C133.803 73.0093 133.579 73.056 133.327 73.084C133.084 73.1213 132.855 73.14 132.641 73.14Z" fill="#151515"/>
<path d="M152 60H162C166.694 60 170.5 63.8056 170.5 68.5C170.5 73.1944 166.694 77 162 77H152C147.306 77 143.5 73.1944 143.5 68.5C143.5 63.8056 147.306 60 152 60Z" stroke="#C7C7C7"/>
<path d="M151.072 72.5L154.372 64.1H156.04L159.292 72.5H157.744L156.88 70.148H153.436L152.572 72.5H151.072ZM153.856 69.02H156.484L155.164 65.468L153.856 69.02ZM160.315 72.5V64.1H161.755V72.5H160.315Z" fill="#151515"/>
<path d="M180.836 72.5V65.036L179.492 65.636V64.844L181.16 64.1H181.7V72.5H180.836ZM184.18 72.596C184.004 72.596 183.852 72.532 183.724 72.404C183.604 72.276 183.544 72.124 183.544 71.948C183.544 71.764 183.604 71.612 183.724 71.492C183.852 71.364 184.004 71.3 184.18 71.3C184.356 71.3 184.504 71.364 184.624 71.492C184.752 71.612 184.816 71.764 184.816 71.948C184.816 72.124 184.752 72.276 184.624 72.404C184.504 72.532 184.356 72.596 184.18 72.596ZM184.18 67.832C184.004 67.832 183.852 67.768 183.724 67.64C183.604 67.512 183.544 67.36 183.544 67.184C183.544 67 183.604 66.848 183.724 66.728C183.852 66.6 184.004 66.536 184.18 66.536C184.356 66.536 184.504 66.6 184.624 66.728C184.752 66.848 184.816 67 184.816 67.184C184.816 67.36 184.752 67.512 184.624 67.64C184.504 67.768 184.356 67.832 184.18 67.832ZM189.064 72.632C188.488 72.632 187.948 72.532 187.444 72.332C186.948 72.132 186.508 71.836 186.124 71.444L186.7 70.88C187.052 71.232 187.412 71.488 187.78 71.648C188.156 71.8 188.58 71.876 189.052 71.876C189.46 71.876 189.82 71.804 190.132 71.66C190.452 71.516 190.7 71.316 190.876 71.06C191.052 70.804 191.14 70.512 191.14 70.184C191.14 69.872 191.06 69.596 190.9 69.356C190.748 69.108 190.536 68.916 190.264 68.78C189.992 68.644 189.68 68.576 189.328 68.576H188.332V67.832H189.292C189.748 67.832 190.116 67.692 190.396 67.412C190.684 67.132 190.828 66.768 190.828 66.32C190.828 66.024 190.748 65.756 190.588 65.516C190.428 65.276 190.208 65.088 189.928 64.952C189.656 64.808 189.348 64.736 189.004 64.736C188.572 64.736 188.184 64.816 187.84 64.976C187.504 65.128 187.16 65.388 186.808 65.756L186.232 65.18C186.608 64.78 187.032 64.48 187.504 64.28C187.976 64.072 188.48 63.968 189.016 63.968C189.528 63.968 189.984 64.068 190.384 64.268C190.792 64.468 191.112 64.744 191.344 65.096C191.576 65.44 191.692 65.832 191.692 66.272C191.692 66.712 191.548 67.108 191.26 67.46C190.972 67.804 190.592 68.044 190.12 68.18C190.688 68.308 191.144 68.556 191.488 68.924C191.832 69.292 192.004 69.72 192.004 70.208C192.004 70.672 191.876 71.088 191.62 71.456C191.372 71.824 191.024 72.112 190.576 72.32C190.136 72.528 189.632 72.632 189.064 72.632ZM196.554 72.632C195.914 72.632 195.346 72.448 194.85 72.08C194.362 71.712 193.978 71.204 193.698 70.556C193.418 69.9 193.278 69.148 193.278 68.3C193.278 67.444 193.418 66.692 193.698 66.044C193.978 65.396 194.362 64.888 194.85 64.52C195.346 64.152 195.914 63.968 196.554 63.968C197.194 63.968 197.758 64.152 198.246 64.52C198.742 64.888 199.13 65.396 199.41 66.044C199.69 66.692 199.83 67.444 199.83 68.3C199.83 69.148 199.69 69.9 199.41 70.556C199.13 71.204 198.742 71.712 198.246 72.08C197.758 72.448 197.194 72.632 196.554 72.632ZM196.554 71.852C197.042 71.852 197.462 71.708 197.814 71.42C198.174 71.124 198.454 70.712 198.654 70.184C198.854 69.648 198.954 69.02 198.954 68.3C198.954 67.58 198.854 66.956 198.654 66.428C198.454 65.892 198.174 65.48 197.814 65.192C197.462 64.896 197.042 64.748 196.554 64.748C196.074 64.748 195.654 64.896 195.294 65.192C194.934 65.48 194.654 65.892 194.454 66.428C194.254 66.956 194.154 67.58 194.154 68.3C194.154 69.02 194.254 69.648 194.454 70.184C194.654 70.712 194.934 71.124 195.294 71.42C195.654 71.708 196.074 71.852 196.554 71.852ZM204.384 72.5V64.1H207.852C208.396 64.1 208.868 64.204 209.268 64.412C209.668 64.612 209.976 64.9 210.192 65.276C210.416 65.644 210.528 66.08 210.528 66.584C210.528 67.08 210.416 67.516 210.192 67.892C209.976 68.268 209.668 68.56 209.268 68.768C208.868 68.968 208.396 69.068 207.852 69.068H205.308V72.5H204.384ZM205.308 68.276H207.744C208.328 68.276 208.784 68.124 209.112 67.82C209.44 67.516 209.604 67.104 209.604 66.584C209.604 66.064 209.44 65.656 209.112 65.36C208.784 65.064 208.328 64.916 207.744 64.916H205.308V68.276ZM212.236 72.5V64.1H213.52L216.328 70.076L219.136 64.1H220.42V72.5H219.544V65.192L216.328 71.9L213.1 65.168V72.5H212.236Z" fill="#151515"/>
<path d="M115.544 109V104.424L111.192 97.8H112.632L116.2 103.352L119.784 97.8H121.144L116.776 104.456V109H115.544ZM124.328 109.128C123.603 109.128 122.952 108.952 122.376 108.6C121.8 108.248 121.347 107.768 121.016 107.16C120.685 106.552 120.52 105.864 120.52 105.096C120.52 104.328 120.685 103.64 121.016 103.032C121.347 102.424 121.8 101.944 122.376 101.592C122.952 101.24 123.603 101.064 124.328 101.064C125.043 101.064 125.683 101.24 126.248 101.592C126.824 101.944 127.277 102.424 127.608 103.032C127.939 103.64 128.104 104.328 128.104 105.096C128.104 105.864 127.939 106.552 127.608 107.16C127.277 107.768 126.824 108.248 126.248 108.6C125.683 108.952 125.043 109.128 124.328 109.128ZM124.312 108.104C124.824 108.104 125.277 107.976 125.672 107.72C126.067 107.453 126.376 107.091 126.6 106.632C126.835 106.173 126.952 105.661 126.952 105.096C126.952 104.52 126.835 104.008 126.6 103.56C126.376 103.101 126.067 102.744 125.672 102.488C125.277 102.221 124.824 102.088 124.312 102.088C123.8 102.088 123.347 102.221 122.952 102.488C122.557 102.744 122.243 103.101 122.008 103.56C121.784 104.008 121.672 104.52 121.672 105.096C121.672 105.661 121.784 106.173 122.008 106.632C122.243 107.091 122.557 107.453 122.952 107.72C123.347 107.976 123.8 108.104 124.312 108.104ZM132.937 109.128C132.382 109.128 131.892 109.005 131.465 108.76C131.038 108.515 130.702 108.173 130.457 107.736C130.222 107.299 130.105 106.797 130.105 106.232V101.192H131.289V105.896C131.289 106.589 131.476 107.139 131.849 107.544C132.222 107.949 132.729 108.152 133.369 108.152C133.806 108.152 134.196 108.051 134.537 107.848C134.889 107.645 135.182 107.352 135.417 106.968V101.192H136.585V109H135.417V107.736C135.118 108.195 134.761 108.541 134.345 108.776C133.94 109.011 133.47 109.128 132.937 109.128ZM142.716 109V101.192H143.884V102.408C144.182 101.96 144.524 101.624 144.908 101.4C145.292 101.176 145.724 101.064 146.204 101.064C146.758 101.064 147.244 101.203 147.66 101.48C148.076 101.747 148.39 102.115 148.604 102.584C148.913 102.083 149.281 101.704 149.708 101.448C150.145 101.192 150.646 101.064 151.212 101.064C151.734 101.064 152.193 101.187 152.588 101.432C152.993 101.677 153.308 102.019 153.532 102.456C153.756 102.883 153.868 103.384 153.868 103.96V109H152.7V104.248C152.7 103.565 152.529 103.027 152.188 102.632C151.846 102.237 151.377 102.04 150.78 102.04C150.374 102.04 150.006 102.141 149.676 102.344C149.356 102.547 149.073 102.856 148.828 103.272C148.849 103.379 148.865 103.491 148.876 103.608C148.886 103.725 148.892 103.843 148.892 103.96V109H147.724V104.248C147.724 103.565 147.548 103.027 147.196 102.632C146.854 102.237 146.385 102.04 145.788 102.04C144.988 102.04 144.353 102.424 143.884 103.192V109H142.716ZM158.937 109.128C158.382 109.128 157.892 109.005 157.465 108.76C157.038 108.515 156.702 108.173 156.457 107.736C156.222 107.299 156.105 106.797 156.105 106.232V101.192H157.289V105.896C157.289 106.589 157.476 107.139 157.849 107.544C158.222 107.949 158.729 108.152 159.369 108.152C159.806 108.152 160.196 108.051 160.537 107.848C160.889 107.645 161.182 107.352 161.417 106.968V101.192H162.585V109H161.417V107.736C161.118 108.195 160.761 108.541 160.345 108.776C159.94 109.011 159.47 109.128 158.937 109.128ZM167.397 109.16C166.757 109.16 166.165 109.064 165.621 108.872C165.077 108.669 164.613 108.381 164.229 108.008L164.853 107.24C165.323 107.581 165.755 107.832 166.149 107.992C166.544 108.141 166.949 108.216 167.365 108.216C167.931 108.216 168.4 108.083 168.773 107.816C169.147 107.549 169.333 107.208 169.333 106.792C169.333 106.472 169.221 106.221 168.997 106.04C168.784 105.859 168.427 105.72 167.925 105.624L166.645 105.4C165.888 105.261 165.328 105.027 164.965 104.696C164.613 104.365 164.437 103.917 164.437 103.352C164.437 102.904 164.555 102.509 164.789 102.168C165.035 101.827 165.371 101.56 165.797 101.368C166.224 101.165 166.709 101.064 167.253 101.064C167.787 101.064 168.293 101.144 168.773 101.304C169.253 101.453 169.739 101.699 170.229 102.04L169.653 102.856C169.248 102.568 168.843 102.36 168.437 102.232C168.032 102.093 167.621 102.024 167.205 102.024C166.693 102.024 166.283 102.136 165.973 102.36C165.664 102.584 165.509 102.888 165.509 103.272C165.509 103.592 165.605 103.837 165.797 104.008C166 104.179 166.352 104.307 166.853 104.392L168.165 104.632C168.955 104.771 169.531 105.011 169.893 105.352C170.256 105.693 170.437 106.152 170.437 106.728C170.437 107.187 170.304 107.603 170.037 107.976C169.771 108.339 169.408 108.627 168.949 108.84C168.491 109.053 167.973 109.16 167.397 109.16ZM175.035 109.16C174.363 109.16 173.851 109 173.499 108.68C173.158 108.349 172.987 107.875 172.987 107.256V102.152H171.371V101.192H172.987V99.048L174.155 98.776V101.192H176.395V102.152H174.155V106.952C174.155 107.368 174.241 107.667 174.411 107.848C174.593 108.029 174.886 108.12 175.291 108.12C175.494 108.12 175.675 108.104 175.835 108.072C175.995 108.04 176.182 107.987 176.395 107.912V108.952C176.182 109.027 175.958 109.08 175.723 109.112C175.489 109.144 175.259 109.16 175.035 109.16ZM184.257 109.16C183.617 109.16 183.025 109.064 182.481 108.872C181.937 108.669 181.473 108.381 181.089 108.008L181.713 107.24C182.182 107.581 182.614 107.832 183.009 107.992C183.403 108.141 183.809 108.216 184.225 108.216C184.79 108.216 185.259 108.083 185.633 107.816C186.006 107.549 186.193 107.208 186.193 106.792C186.193 106.472 186.081 106.221 185.857 106.04C185.643 105.859 185.286 105.72 184.785 105.624L183.505 105.4C182.747 105.261 182.187 105.027 181.825 104.696C181.473 104.365 181.297 103.917 181.297 103.352C181.297 102.904 181.414 102.509 181.649 102.168C181.894 101.827 182.23 101.56 182.657 101.368C183.083 101.165 183.569 101.064 184.113 101.064C184.646 101.064 185.153 101.144 185.633 101.304C186.113 101.453 186.598 101.699 187.089 102.04L186.513 102.856C186.107 102.568 185.702 102.36 185.297 102.232C184.891 102.093 184.481 102.024 184.065 102.024C183.553 102.024 183.142 102.136 182.833 102.36C182.523 102.584 182.369 102.888 182.369 103.272C182.369 103.592 182.465 103.837 182.657 104.008C182.859 104.179 183.211 104.307 183.713 104.392L185.025 104.632C185.814 104.771 186.39 105.011 186.753 105.352C187.115 105.693 187.297 106.152 187.297 106.728C187.297 107.187 187.163 107.603 186.897 107.976C186.63 108.339 186.267 108.627 185.809 108.84C185.35 109.053 184.833 109.16 184.257 109.16ZM191.569 109.144C191.014 109.144 190.524 109.043 190.097 108.84C189.67 108.637 189.334 108.36 189.089 108.008C188.854 107.645 188.737 107.229 188.737 106.76C188.737 106.291 188.86 105.885 189.105 105.544C189.35 105.192 189.692 104.92 190.129 104.728C190.566 104.536 191.078 104.44 191.665 104.44C192.113 104.44 192.534 104.488 192.929 104.584C193.334 104.68 193.708 104.835 194.049 105.048V103.976C194.049 103.336 193.878 102.856 193.537 102.536C193.196 102.205 192.694 102.04 192.033 102.04C191.67 102.04 191.297 102.093 190.913 102.2C190.54 102.307 190.124 102.477 189.665 102.712L189.233 101.816C190.278 101.315 191.26 101.064 192.177 101.064C193.148 101.064 193.894 101.304 194.417 101.784C194.94 102.253 195.201 102.931 195.201 103.816V109H194.049V108.088C193.708 108.44 193.329 108.707 192.913 108.888C192.497 109.059 192.049 109.144 191.569 109.144ZM189.857 106.728C189.857 107.187 190.033 107.555 190.385 107.832C190.748 108.109 191.222 108.248 191.809 108.248C192.246 108.248 192.646 108.173 193.009 108.024C193.382 107.875 193.729 107.651 194.049 107.352V105.848C193.718 105.656 193.377 105.517 193.025 105.432C192.673 105.336 192.278 105.288 191.841 105.288C191.244 105.288 190.764 105.421 190.401 105.688C190.038 105.944 189.857 106.291 189.857 106.728ZM199.503 109L196.303 101.192H197.567L200.095 107.544L202.591 101.192H203.839L200.623 109H199.503ZM208.564 109.16C207.838 109.16 207.182 108.984 206.596 108.632C206.009 108.269 205.545 107.784 205.204 107.176C204.862 106.557 204.692 105.864 204.692 105.096C204.692 104.328 204.852 103.64 205.172 103.032C205.502 102.424 205.945 101.944 206.5 101.592C207.054 101.24 207.673 101.064 208.356 101.064C209.049 101.064 209.662 101.24 210.196 101.592C210.74 101.933 211.166 102.403 211.476 103C211.796 103.587 211.956 104.253 211.956 105V105.352H205.828C205.87 105.885 206.014 106.365 206.26 106.792C206.516 107.208 206.846 107.539 207.252 107.784C207.668 108.019 208.121 108.136 208.612 108.136C209.017 108.136 209.406 108.067 209.78 107.928C210.164 107.779 210.489 107.581 210.756 107.336L211.492 108.12C211.044 108.472 210.58 108.733 210.1 108.904C209.62 109.075 209.108 109.16 208.564 109.16ZM205.86 104.52H210.804C210.75 104.051 210.606 103.635 210.372 103.272C210.148 102.899 209.86 102.605 209.508 102.392C209.166 102.179 208.782 102.072 208.356 102.072C207.929 102.072 207.54 102.179 207.188 102.392C206.836 102.595 206.542 102.883 206.308 103.256C206.084 103.619 205.934 104.04 205.86 104.52ZM218.02 112.504C217.775 112.504 217.524 112.467 217.268 112.392V111.352C217.375 111.373 217.487 111.389 217.604 111.4C217.722 111.411 217.823 111.416 217.908 111.416C218.207 111.416 218.452 111.336 218.644 111.176C218.847 111.016 219.018 110.765 219.156 110.424L219.732 109L216.724 101.192H218.02L220.388 107.608L222.9 101.192H224.196L220.26 110.776C220.09 111.192 219.903 111.528 219.7 111.784C219.498 112.04 219.263 112.221 218.996 112.328C218.73 112.445 218.404 112.504 218.02 112.504ZM228.875 109.128C228.149 109.128 227.499 108.952 226.923 108.6C226.347 108.248 225.893 107.768 225.563 107.16C225.232 106.552 225.067 105.864 225.067 105.096C225.067 104.328 225.232 103.64 225.563 103.032C225.893 102.424 226.347 101.944 226.923 101.592C227.499 101.24 228.149 101.064 228.875 101.064C229.589 101.064 230.229 101.24 230.795 101.592C231.371 101.944 231.824 102.424 232.155 103.032C232.485 103.64 232.651 104.328 232.651 105.096C232.651 105.864 232.485 106.552 232.155 107.16C231.824 107.768 231.371 108.248 230.795 108.6C230.229 108.952 229.589 109.128 228.875 109.128ZM228.859 108.104C229.371 108.104 229.824 107.976 230.219 107.72C230.613 107.453 230.923 107.091 231.147 106.632C231.381 106.173 231.499 105.661 231.499 105.096C231.499 104.52 231.381 104.008 231.147 103.56C230.923 103.101 230.613 102.744 230.219 102.488C229.824 102.221 229.371 102.088 228.859 102.088C228.347 102.088 227.893 102.221 227.499 102.488C227.104 102.744 226.789 103.101 226.555 103.56C226.331 104.008 226.219 104.52 226.219 105.096C226.219 105.661 226.331 106.173 226.555 106.632C226.789 107.091 227.104 107.453 227.499 107.72C227.893 107.976 228.347 108.104 228.859 108.104ZM237.484 109.128C236.929 109.128 236.439 109.005 236.012 108.76C235.585 108.515 235.249 108.173 235.004 107.736C234.769 107.299 234.652 106.797 234.652 106.232V101.192H235.836V105.896C235.836 106.589 236.023 107.139 236.396 107.544C236.769 107.949 237.276 108.152 237.916 108.152C238.353 108.152 238.743 108.051 239.084 107.848C239.436 107.645 239.729 107.352 239.964 106.968V101.192H241.132V109H239.964V107.736C239.665 108.195 239.308 108.541 238.892 108.776C238.487 109.011 238.017 109.128 237.484 109.128ZM243.528 109V101.192H244.696V102.792C244.899 102.248 245.187 101.827 245.56 101.528C245.944 101.219 246.381 101.064 246.872 101.064C247.011 101.064 247.139 101.075 247.256 101.096C247.373 101.107 247.491 101.133 247.608 101.176V102.232C247.48 102.189 247.341 102.157 247.192 102.136C247.053 102.104 246.92 102.088 246.792 102.088C246.312 102.088 245.891 102.227 245.528 102.504C245.176 102.781 244.899 103.171 244.696 103.672V109H243.528ZM256.408 109.16C255.682 109.16 255.026 108.984 254.44 108.632C253.853 108.269 253.389 107.784 253.048 107.176C252.706 106.557 252.536 105.864 252.536 105.096C252.536 104.328 252.696 103.64 253.016 103.032C253.346 102.424 253.789 101.944 254.344 101.592C254.898 101.24 255.517 101.064 256.2 101.064C256.893 101.064 257.506 101.24 258.04 101.592C258.584 101.933 259.01 102.403 259.32 103C259.64 103.587 259.8 104.253 259.8 105V105.352H253.672C253.714 105.885 253.858 106.365 254.104 106.792C254.36 107.208 254.69 107.539 255.096 107.784C255.512 108.019 255.965 108.136 256.456 108.136C256.861 108.136 257.25 108.067 257.624 107.928C258.008 107.779 258.333 107.581 258.6 107.336L259.336 108.12C258.888 108.472 258.424 108.733 257.944 108.904C257.464 109.075 256.952 109.16 256.408 109.16ZM253.704 104.52H258.648C258.594 104.051 258.45 103.635 258.216 103.272C257.992 102.899 257.704 102.605 257.352 102.392C257.01 102.179 256.626 102.072 256.2 102.072C255.773 102.072 255.384 102.179 255.032 102.392C254.68 102.595 254.386 102.883 254.152 103.256C253.928 103.619 253.778 104.04 253.704 104.52ZM265.042 109.112C264.37 109.112 263.762 108.936 263.218 108.584C262.674 108.221 262.242 107.741 261.922 107.144C261.602 106.536 261.442 105.859 261.442 105.112C261.442 104.355 261.602 103.677 261.922 103.08C262.252 102.472 262.695 101.992 263.25 101.64C263.804 101.277 264.423 101.096 265.106 101.096C265.586 101.096 266.034 101.192 266.45 101.384C266.866 101.565 267.228 101.832 267.538 102.184V97.448L268.706 97.208V109H267.538V107.96C267.239 108.333 266.876 108.621 266.45 108.824C266.023 109.016 265.554 109.112 265.042 109.112ZM265.33 108.088C265.788 108.088 266.21 107.997 266.594 107.816C266.978 107.635 267.292 107.379 267.538 107.048V103.176C267.282 102.845 266.956 102.589 266.562 102.408C266.178 102.216 265.767 102.12 265.33 102.12C264.807 102.12 264.338 102.248 263.922 102.504C263.516 102.76 263.191 103.112 262.946 103.56C262.711 104.008 262.594 104.52 262.594 105.096C262.594 105.661 262.711 106.173 262.946 106.632C263.191 107.08 263.516 107.437 263.922 107.704C264.338 107.96 264.807 108.088 265.33 108.088ZM271.09 109V101.192H272.258V109H271.09ZM271.682 99.256C271.448 99.256 271.245 99.176 271.074 99.016C270.914 98.8453 270.834 98.648 270.834 98.424C270.834 98.2 270.914 98.008 271.074 97.848C271.245 97.6773 271.448 97.592 271.682 97.592C271.917 97.592 272.114 97.6773 272.274 97.848C272.445 98.008 272.53 98.2 272.53 98.424C272.53 98.648 272.445 98.8453 272.274 99.016C272.114 99.176 271.917 99.256 271.682 99.256ZM277.629 109.16C276.957 109.16 276.445 109 276.093 108.68C275.752 108.349 275.581 107.875 275.581 107.256V102.152H273.965V101.192H275.581V99.048L276.749 98.776V101.192H278.989V102.152H276.749V106.952C276.749 107.368 276.834 107.667 277.005 107.848C277.186 108.029 277.48 108.12 277.885 108.12C278.088 108.12 278.269 108.104 278.429 108.072C278.589 108.04 278.776 107.987 278.989 107.912V108.952C278.776 109.027 278.552 109.08 278.317 109.112C278.082 109.144 277.853 109.16 277.629 109.16ZM283.272 109.16C282.632 109.16 282.04 109.064 281.496 108.872C280.952 108.669 280.488 108.381 280.104 108.008L280.728 107.24C281.198 107.581 281.63 107.832 282.024 107.992C282.419 108.141 282.824 108.216 283.24 108.216C283.806 108.216 284.275 108.083 284.648 107.816C285.022 107.549 285.208 107.208 285.208 106.792C285.208 106.472 285.096 106.221 284.872 106.04C284.659 105.859 284.302 105.72 283.8 105.624L282.52 105.4C281.763 105.261 281.203 105.027 280.84 104.696C280.488 104.365 280.312 103.917 280.312 103.352C280.312 102.904 280.43 102.509 280.664 102.168C280.91 101.827 281.246 101.56 281.672 101.368C282.099 101.165 282.584 101.064 283.128 101.064C283.662 101.064 284.168 101.144 284.648 101.304C285.128 101.453 285.614 101.699 286.104 102.04L285.528 102.856C285.123 102.568 284.718 102.36 284.312 102.232C283.907 102.093 283.496 102.024 283.08 102.024C282.568 102.024 282.158 102.136 281.848 102.36C281.539 102.584 281.384 102.888 281.384 103.272C281.384 103.592 281.48 103.837 281.672 104.008C281.875 104.179 282.227 104.307 282.728 104.392L284.04 104.632C284.83 104.771 285.406 105.011 285.768 105.352C286.131 105.693 286.312 106.152 286.312 106.728C286.312 107.187 286.179 107.603 285.912 107.976C285.646 108.339 285.283 108.627 284.824 108.84C284.366 109.053 283.848 109.16 283.272 109.16ZM287.534 111.512L288.494 107.816H289.742L288.446 111.512H287.534ZM295.653 109V101.192H296.821V109H295.653ZM296.245 99.256C296.01 99.256 295.807 99.176 295.637 99.016C295.477 98.8453 295.397 98.648 295.397 98.424C295.397 98.2 295.477 98.008 295.637 97.848C295.807 97.6773 296.01 97.592 296.245 97.592C296.479 97.592 296.677 97.6773 296.837 97.848C297.007 98.008 297.093 98.2 297.093 98.424C297.093 98.648 297.007 98.8453 296.837 99.016C296.677 99.176 296.479 99.256 296.245 99.256ZM299.216 109V101.192H300.384V102.456C300.682 101.987 301.04 101.64 301.456 101.416C301.872 101.181 302.341 101.064 302.864 101.064C303.429 101.064 303.92 101.187 304.336 101.432C304.762 101.667 305.093 102.003 305.328 102.44C305.573 102.867 305.696 103.368 305.696 103.944V109H304.528V104.28C304.528 103.587 304.336 103.043 303.952 102.648C303.578 102.243 303.072 102.04 302.432 102.04C302.005 102.04 301.616 102.141 301.264 102.344C300.912 102.547 300.618 102.845 300.384 103.24V109H299.216ZM315.234 109.128C314.509 109.128 313.858 108.952 313.282 108.6C312.706 108.248 312.253 107.768 311.922 107.16C311.591 106.552 311.426 105.864 311.426 105.096C311.426 104.328 311.591 103.64 311.922 103.032C312.253 102.424 312.706 101.944 313.282 101.592C313.858 101.24 314.509 101.064 315.234 101.064C315.949 101.064 316.589 101.24 317.154 101.592C317.73 101.944 318.183 102.424 318.514 103.032C318.845 103.64 319.01 104.328 319.01 105.096C319.01 105.864 318.845 106.552 318.514 107.16C318.183 107.768 317.73 108.248 317.154 108.6C316.589 108.952 315.949 109.128 315.234 109.128ZM315.218 108.104C315.73 108.104 316.183 107.976 316.578 107.72C316.973 107.453 317.282 107.091 317.506 106.632C317.741 106.173 317.858 105.661 317.858 105.096C317.858 104.52 317.741 104.008 317.506 103.56C317.282 103.101 316.973 102.744 316.578 102.488C316.183 102.221 315.73 102.088 315.218 102.088C314.706 102.088 314.253 102.221 313.858 102.488C313.463 102.744 313.149 103.101 312.914 103.56C312.69 104.008 312.578 104.52 312.578 105.096C312.578 105.661 312.69 106.173 312.914 106.632C313.149 107.091 313.463 107.453 313.858 107.72C314.253 107.976 314.706 108.104 315.218 108.104ZM321.059 109V101.192H322.227V102.792C322.43 102.248 322.718 101.827 323.091 101.528C323.475 101.219 323.913 101.064 324.403 101.064C324.542 101.064 324.67 101.075 324.787 101.096C324.905 101.107 325.022 101.133 325.139 101.176V102.232C325.011 102.189 324.873 102.157 324.723 102.136C324.585 102.104 324.451 102.088 324.323 102.088C323.843 102.088 323.422 102.227 323.059 102.504C322.707 102.781 322.43 103.171 322.227 103.672V109H321.059ZM329.448 109.112C328.776 109.112 328.168 108.936 327.624 108.584C327.08 108.221 326.648 107.741 326.328 107.144C326.008 106.536 325.848 105.859 325.848 105.112C325.848 104.355 326.008 103.677 326.328 103.08C326.659 102.472 327.101 101.992 327.656 101.64C328.211 101.277 328.829 101.096 329.512 101.096C329.992 101.096 330.44 101.192 330.856 101.384C331.272 101.565 331.635 101.832 331.944 102.184V97.448L333.112 97.208V109H331.944V107.96C331.645 108.333 331.283 108.621 330.856 108.824C330.429 109.016 329.96 109.112 329.448 109.112ZM329.736 108.088C330.195 108.088 330.616 107.997 331 107.816C331.384 107.635 331.699 107.379 331.944 107.048V103.176C331.688 102.845 331.363 102.589 330.968 102.408C330.584 102.216 330.173 102.12 329.736 102.12C329.213 102.12 328.744 102.248 328.328 102.504C327.923 102.76 327.597 103.112 327.352 103.56C327.117 104.008 327 104.52 327 105.096C327 105.661 327.117 106.173 327.352 106.632C327.597 107.08 327.923 107.437 328.328 107.704C328.744 107.96 329.213 108.088 329.736 108.088ZM339.033 109.16C338.307 109.16 337.651 108.984 337.065 108.632C336.478 108.269 336.014 107.784 335.673 107.176C335.331 106.557 335.161 105.864 335.161 105.096C335.161 104.328 335.321 103.64 335.641 103.032C335.971 102.424 336.414 101.944 336.969 101.592C337.523 101.24 338.142 101.064 338.825 101.064C339.518 101.064 340.131 101.24 340.665 101.592C341.209 101.933 341.635 102.403 341.945 103C342.265 103.587 342.425 104.253 342.425 105V105.352H336.297C336.339 105.885 336.483 106.365 336.729 106.792C336.985 107.208 337.315 107.539 337.721 107.784C338.137 108.019 338.59 108.136 339.081 108.136C339.486 108.136 339.875 108.067 340.249 107.928C340.633 107.779 340.958 107.581 341.225 107.336L341.961 108.12C341.513 108.472 341.049 108.733 340.569 108.904C340.089 109.075 339.577 109.16 339.033 109.16ZM336.329 104.52H341.273C341.219 104.051 341.075 103.635 340.841 103.272C340.617 102.899 340.329 102.605 339.977 102.392C339.635 102.179 339.251 102.072 338.825 102.072C338.398 102.072 338.009 102.179 337.657 102.392C337.305 102.595 337.011 102.883 336.777 103.256C336.553 103.619 336.403 104.04 336.329 104.52ZM344.419 109V101.192H345.587V102.792C345.789 102.248 346.077 101.827 346.451 101.528C346.835 101.219 347.272 101.064 347.763 101.064C347.901 101.064 348.029 101.075 348.147 101.096C348.264 101.107 348.381 101.133 348.499 101.176V102.232C348.371 102.189 348.232 102.157 348.083 102.136C347.944 102.104 347.811 102.088 347.683 102.088C347.203 102.088 346.781 102.227 346.419 102.504C346.067 102.781 345.789 103.171 345.587 103.672V109H344.419ZM354.77 109V102.152H353.026V101.192H354.77V99.56C354.77 98.792 354.973 98.2 355.378 97.784C355.783 97.368 356.359 97.16 357.106 97.16C357.319 97.16 357.511 97.1707 357.682 97.192C357.863 97.2133 358.023 97.2507 358.162 97.304V98.36C357.991 98.3067 357.837 98.2693 357.698 98.248C357.559 98.2267 357.399 98.216 357.218 98.216C356.77 98.216 356.445 98.328 356.242 98.552C356.039 98.7653 355.938 99.1067 355.938 99.576V101.192H358.162V102.152H355.938V109H354.77ZM362.828 109.128C362.103 109.128 361.452 108.952 360.876 108.6C360.3 108.248 359.847 107.768 359.516 107.16C359.185 106.552 359.02 105.864 359.02 105.096C359.02 104.328 359.185 103.64 359.516 103.032C359.847 102.424 360.3 101.944 360.876 101.592C361.452 101.24 362.103 101.064 362.828 101.064C363.543 101.064 364.183 101.24 364.748 101.592C365.324 101.944 365.777 102.424 366.108 103.032C366.439 103.64 366.604 104.328 366.604 105.096C366.604 105.864 366.439 106.552 366.108 107.16C365.777 107.768 365.324 108.248 364.748 108.6C364.183 108.952 363.543 109.128 362.828 109.128ZM362.812 108.104C363.324 108.104 363.777 107.976 364.172 107.72C364.567 107.453 364.876 107.091 365.1 106.632C365.335 106.173 365.452 105.661 365.452 105.096C365.452 104.52 365.335 104.008 365.1 103.56C364.876 103.101 364.567 102.744 364.172 102.488C363.777 102.221 363.324 102.088 362.812 102.088C362.3 102.088 361.847 102.221 361.452 102.488C361.057 102.744 360.743 103.101 360.508 103.56C360.284 104.008 360.172 104.52 360.172 105.096C360.172 105.661 360.284 106.173 360.508 106.632C360.743 107.091 361.057 107.453 361.452 107.72C361.847 107.976 362.3 108.104 362.812 108.104ZM368.653 109V101.192H369.821V102.792C370.024 102.248 370.312 101.827 370.685 101.528C371.069 101.219 371.506 101.064 371.997 101.064C372.136 101.064 372.264 101.075 372.381 101.096C372.498 101.107 372.616 101.133 372.733 101.176V102.232C372.605 102.189 372.466 102.157 372.317 102.136C372.178 102.104 372.045 102.088 371.917 102.088C371.437 102.088 371.016 102.227 370.653 102.504C370.301 102.781 370.024 103.171 369.821 103.672V109H368.653ZM380.989 109.16C380.317 109.16 379.805 109 379.453 108.68C379.111 108.349 378.941 107.875 378.941 107.256V102.152H377.325V101.192H378.941V99.048L380.109 98.776V101.192H382.349V102.152H380.109V106.952C380.109 107.368 380.194 107.667 380.365 107.848C380.546 108.029 380.839 108.12 381.245 108.12C381.447 108.12 381.629 108.104 381.789 108.072C381.949 108.04 382.135 107.987 382.349 107.912V108.952C382.135 109.027 381.911 109.08 381.677 109.112C381.442 109.144 381.213 109.16 380.989 109.16ZM384.059 109V97.448L385.227 97.208V102.456C385.526 101.987 385.883 101.64 386.299 101.416C386.715 101.181 387.185 101.064 387.707 101.064C388.273 101.064 388.763 101.187 389.179 101.432C389.606 101.667 389.937 102.003 390.171 102.44C390.417 102.867 390.539 103.368 390.539 103.944V109H389.371V104.28C389.371 103.587 389.179 103.043 388.795 102.648C388.422 102.243 387.915 102.04 387.275 102.04C386.849 102.04 386.459 102.141 386.107 102.344C385.755 102.547 385.462 102.845 385.227 103.24V109H384.059ZM396.408 109.16C395.682 109.16 395.026 108.984 394.44 108.632C393.853 108.269 393.389 107.784 393.048 107.176C392.706 106.557 392.536 105.864 392.536 105.096C392.536 104.328 392.696 103.64 393.016 103.032C393.346 102.424 393.789 101.944 394.344 101.592C394.898 101.24 395.517 101.064 396.2 101.064C396.893 101.064 397.506 101.24 398.04 101.592C398.584 101.933 399.01 102.403 399.32 103C399.64 103.587 399.8 104.253 399.8 105V105.352H393.672C393.714 105.885 393.858 106.365 394.104 106.792C394.36 107.208 394.69 107.539 395.096 107.784C395.512 108.019 395.965 108.136 396.456 108.136C396.861 108.136 397.25 108.067 397.624 107.928C398.008 107.779 398.333 107.581 398.6 107.336L399.336 108.12C398.888 108.472 398.424 108.733 397.944 108.904C397.464 109.075 396.952 109.16 396.408 109.16ZM393.704 104.52H398.648C398.594 104.051 398.45 103.635 398.216 103.272C397.992 102.899 397.704 102.605 397.352 102.392C397.01 102.179 396.626 102.072 396.2 102.072C395.773 102.072 395.384 102.179 395.032 102.392C394.68 102.595 394.386 102.883 394.152 103.256C393.928 103.619 393.778 104.04 393.704 104.52ZM404.288 109.16C403.648 109.16 403.056 109.064 402.512 108.872C401.968 108.669 401.504 108.381 401.12 108.008L401.744 107.24C402.213 107.581 402.645 107.832 403.04 107.992C403.435 108.141 403.84 108.216 404.256 108.216C404.821 108.216 405.291 108.083 405.664 107.816C406.037 107.549 406.224 107.208 406.224 106.792C406.224 106.472 406.112 106.221 405.888 106.04C405.675 105.859 405.317 105.72 404.816 105.624L403.536 105.4C402.779 105.261 402.219 105.027 401.856 104.696C401.504 104.365 401.328 103.917 401.328 103.352C401.328 102.904 401.445 102.509 401.68 102.168C401.925 101.827 402.261 101.56 402.688 101.368C403.115 101.165 403.6 101.064 404.144 101.064C404.677 101.064 405.184 101.144 405.664 101.304C406.144 101.453 406.629 101.699 407.12 102.04L406.544 102.856C406.139 102.568 405.733 102.36 405.328 102.232C404.923 102.093 404.512 102.024 404.096 102.024C403.584 102.024 403.173 102.136 402.864 102.36C402.555 102.584 402.4 102.888 402.4 103.272C402.4 103.592 402.496 103.837 402.688 104.008C402.891 104.179 403.243 104.307 403.744 104.392L405.056 104.632C405.845 104.771 406.421 105.011 406.784 105.352C407.147 105.693 407.328 106.152 407.328 106.728C407.328 107.187 407.195 107.603 406.928 107.976C406.661 108.339 406.299 108.627 405.84 108.84C405.381 109.053 404.864 109.16 404.288 109.16ZM412.704 109.16C411.979 109.16 411.323 108.984 410.736 108.632C410.15 108.269 409.686 107.784 409.344 107.176C409.003 106.557 408.832 105.864 408.832 105.096C408.832 104.328 408.992 103.64 409.312 103.032C409.643 102.424 410.086 101.944 410.64 101.592C411.195 101.24 411.814 101.064 412.496 101.064C413.19 101.064 413.803 101.24 414.336 101.592C414.88 101.933 415.307 102.403 415.616 103C415.936 103.587 416.096 104.253 416.096 105V105.352H409.968C410.011 105.885 410.155 106.365 410.4 106.792C410.656 107.208 410.987 107.539 411.392 107.784C411.808 108.019 412.262 108.136 412.752 108.136C413.158 108.136 413.547 108.067 413.92 107.928C414.304 107.779 414.63 107.581 414.896 107.336L415.632 108.12C415.184 108.472 414.72 108.733 414.24 108.904C413.76 109.075 413.248 109.16 412.704 109.16ZM410 104.52H414.944C414.891 104.051 414.747 103.635 414.512 103.272C414.288 102.899 414 102.605 413.648 102.392C413.307 102.179 412.923 102.072 412.496 102.072C412.07 102.072 411.68 102.179 411.328 102.392C410.976 102.595 410.683 102.883 410.448 103.256C410.224 103.619 410.075 104.04 410 104.52ZM115.704 133.128C114.979 133.128 114.323 132.952 113.736 132.6C113.16 132.237 112.701 131.752 112.36 131.144C112.019 130.525 111.848 129.843 111.848 129.096C111.848 128.339 112.019 127.656 112.36 127.048C112.701 126.44 113.16 125.96 113.736 125.608C114.323 125.245 114.979 125.064 115.704 125.064C116.28 125.064 116.829 125.171 117.352 125.384C117.875 125.597 118.328 125.896 118.712 126.28L117.96 127.096C117.683 126.787 117.347 126.547 116.952 126.376C116.557 126.205 116.157 126.12 115.752 126.12C115.24 126.12 114.776 126.253 114.36 126.52C113.955 126.787 113.629 127.144 113.384 127.592C113.139 128.04 113.016 128.541 113.016 129.096C113.016 129.651 113.139 130.152 113.384 130.6C113.629 131.048 113.955 131.405 114.36 131.672C114.776 131.939 115.24 132.072 115.752 132.072C116.157 132.072 116.557 131.987 116.952 131.816C117.347 131.635 117.683 131.395 117.96 131.096L118.712 131.912C118.328 132.296 117.875 132.595 117.352 132.808C116.829 133.021 116.28 133.128 115.704 133.128ZM120.341 133V121.448L121.509 121.208V126.456C121.807 125.987 122.165 125.64 122.581 125.416C122.997 125.181 123.466 125.064 123.989 125.064C124.554 125.064 125.045 125.187 125.461 125.432C125.887 125.667 126.218 126.003 126.453 126.44C126.698 126.867 126.821 127.368 126.821 127.944V133H125.653V128.28C125.653 127.587 125.461 127.043 125.077 126.648C124.703 126.243 124.197 126.04 123.557 126.04C123.13 126.04 122.741 126.141 122.389 126.344C122.037 126.547 121.743 126.845 121.509 127.24V133H120.341ZM131.585 133.144C131.03 133.144 130.539 133.043 130.113 132.84C129.686 132.637 129.35 132.36 129.105 132.008C128.87 131.645 128.753 131.229 128.753 130.76C128.753 130.291 128.875 129.885 129.121 129.544C129.366 129.192 129.707 128.92 130.145 128.728C130.582 128.536 131.094 128.44 131.681 128.44C132.129 128.44 132.55 128.488 132.945 128.584C133.35 128.68 133.723 128.835 134.065 129.048V127.976C134.065 127.336 133.894 126.856 133.553 126.536C133.211 126.205 132.71 126.04 132.049 126.04C131.686 126.04 131.313 126.093 130.929 126.2C130.555 126.307 130.139 126.477 129.681 126.712L129.249 125.816C130.294 125.315 131.275 125.064 132.193 125.064C133.163 125.064 133.91 125.304 134.433 125.784C134.955 126.253 135.217 126.931 135.217 127.816V133H134.065V132.088C133.723 132.44 133.345 132.707 132.929 132.888C132.513 133.059 132.065 133.144 131.585 133.144ZM129.873 130.728C129.873 131.187 130.049 131.555 130.401 131.832C130.763 132.109 131.238 132.248 131.825 132.248C132.262 132.248 132.662 132.173 133.025 132.024C133.398 131.875 133.745 131.651 134.065 131.352V129.848C133.734 129.656 133.393 129.517 133.041 129.432C132.689 129.336 132.294 129.288 131.857 129.288C131.259 129.288 130.779 129.421 130.417 129.688C130.054 129.944 129.873 130.291 129.873 130.728ZM137.591 133V125.192H138.759V126.456C139.057 125.987 139.415 125.64 139.831 125.416C140.247 125.181 140.716 125.064 141.239 125.064C141.804 125.064 142.295 125.187 142.711 125.432C143.137 125.667 143.468 126.003 143.703 126.44C143.948 126.867 144.071 127.368 144.071 127.944V133H142.903V128.28C142.903 127.587 142.711 127.043 142.327 126.648C141.953 126.243 141.447 126.04 140.807 126.04C140.38 126.04 139.991 126.141 139.639 126.344C139.287 126.547 138.993 126.845 138.759 127.24V133H137.591ZM150.035 136.504C149.512 136.504 148.984 136.429 148.451 136.28C147.928 136.141 147.443 135.944 146.995 135.688L147.491 134.792C147.971 135.037 148.408 135.219 148.803 135.336C149.197 135.453 149.592 135.512 149.987 135.512C150.701 135.512 151.24 135.341 151.603 135C151.976 134.659 152.163 134.163 152.163 133.512V131.944C151.864 132.317 151.501 132.605 151.075 132.808C150.648 133 150.179 133.096 149.667 133.096C148.995 133.096 148.387 132.92 147.843 132.568C147.299 132.205 146.867 131.725 146.547 131.128C146.227 130.52 146.067 129.843 146.067 129.096C146.067 128.349 146.227 127.677 146.547 127.08C146.877 126.472 147.32 125.992 147.875 125.64C148.429 125.277 149.048 125.096 149.731 125.096C150.221 125.096 150.675 125.192 151.091 125.384C151.507 125.565 151.869 125.837 152.179 126.2V125.192H153.331V133.496C153.331 134.467 153.048 135.208 152.483 135.72C151.917 136.243 151.101 136.504 150.035 136.504ZM149.955 132.088C150.413 132.088 150.835 131.997 151.219 131.816C151.603 131.624 151.917 131.363 152.163 131.032V127.176C151.907 126.845 151.581 126.589 151.187 126.408C150.803 126.216 150.392 126.12 149.955 126.12C149.432 126.12 148.963 126.248 148.547 126.504C148.141 126.76 147.816 127.112 147.571 127.56C147.336 128.008 147.219 128.52 147.219 129.096C147.219 129.661 147.336 130.173 147.571 130.632C147.816 131.08 148.141 131.437 148.547 131.704C148.963 131.96 149.432 132.088 149.955 132.088ZM159.251 133.16C158.526 133.16 157.87 132.984 157.283 132.632C156.697 132.269 156.233 131.784 155.891 131.176C155.55 130.557 155.379 129.864 155.379 129.096C155.379 128.328 155.539 127.64 155.859 127.032C156.19 126.424 156.633 125.944 157.187 125.592C157.742 125.24 158.361 125.064 159.043 125.064C159.737 125.064 160.35 125.24 160.883 125.592C161.427 125.933 161.854 126.403 162.163 127C162.483 127.587 162.643 128.253 162.643 129V129.352H156.515C156.558 129.885 156.702 130.365 156.947 130.792C157.203 131.208 157.534 131.539 157.939 131.784C158.355 132.019 158.809 132.136 159.299 132.136C159.705 132.136 160.094 132.067 160.467 131.928C160.851 131.779 161.177 131.581 161.443 131.336L162.179 132.12C161.731 132.472 161.267 132.733 160.787 132.904C160.307 133.075 159.795 133.16 159.251 133.16ZM156.547 128.52H161.491C161.438 128.051 161.294 127.635 161.059 127.272C160.835 126.899 160.547 126.605 160.195 126.392C159.854 126.179 159.47 126.072 159.043 126.072C158.617 126.072 158.227 126.179 157.875 126.392C157.523 126.595 157.23 126.883 156.995 127.256C156.771 127.619 156.622 128.04 156.547 128.52ZM167.132 133.16C166.492 133.16 165.9 133.064 165.356 132.872C164.812 132.669 164.348 132.381 163.964 132.008L164.588 131.24C165.057 131.581 165.489 131.832 165.884 131.992C166.278 132.141 166.684 132.216 167.1 132.216C167.665 132.216 168.134 132.083 168.508 131.816C168.881 131.549 169.068 131.208 169.068 130.792C169.068 130.472 168.956 130.221 168.732 130.04C168.518 129.859 168.161 129.72 167.66 129.624L166.38 129.4C165.622 129.261 165.062 129.027 164.7 128.696C164.348 128.365 164.172 127.917 164.172 127.352C164.172 126.904 164.289 126.509 164.524 126.168C164.769 125.827 165.105 125.56 165.532 125.368C165.958 125.165 166.444 125.064 166.988 125.064C167.521 125.064 168.028 125.144 168.508 125.304C168.988 125.453 169.473 125.699 169.964 126.04L169.388 126.856C168.982 126.568 168.577 126.36 168.172 126.232C167.766 126.093 167.356 126.024 166.94 126.024C166.428 126.024 166.017 126.136 165.708 126.36C165.398 126.584 165.244 126.888 165.244 127.272C165.244 127.592 165.34 127.837 165.532 128.008C165.734 128.179 166.086 128.307 166.588 128.392L167.9 128.632C168.689 128.771 169.265 129.011 169.628 129.352C169.99 129.693 170.172 130.152 170.172 130.728C170.172 131.187 170.038 131.603 169.772 131.976C169.505 132.339 169.142 132.627 168.684 132.84C168.225 133.053 167.708 133.16 167.132 133.16ZM178.66 133.16C177.988 133.16 177.476 133 177.124 132.68C176.783 132.349 176.612 131.875 176.612 131.256V126.152H174.996V125.192H176.612V123.048L177.78 122.776V125.192H180.02V126.152H177.78V130.952C177.78 131.368 177.866 131.667 178.036 131.848C178.218 132.029 178.511 132.12 178.916 132.12C179.119 132.12 179.3 132.104 179.46 132.072C179.62 132.04 179.807 131.987 180.02 131.912V132.952C179.807 133.027 179.583 133.08 179.348 133.112C179.114 133.144 178.884 133.16 178.66 133.16ZM185.031 133.128C184.306 133.128 183.655 132.952 183.079 132.6C182.503 132.248 182.05 131.768 181.719 131.16C181.388 130.552 181.223 129.864 181.223 129.096C181.223 128.328 181.388 127.64 181.719 127.032C182.05 126.424 182.503 125.944 183.079 125.592C183.655 125.24 184.306 125.064 185.031 125.064C185.746 125.064 186.386 125.24 186.951 125.592C187.527 125.944 187.98 126.424 188.311 127.032C188.642 127.64 188.807 128.328 188.807 129.096C188.807 129.864 188.642 130.552 188.311 131.16C187.98 131.768 187.527 132.248 186.951 132.6C186.386 132.952 185.746 133.128 185.031 133.128ZM185.015 132.104C185.527 132.104 185.98 131.976 186.375 131.72C186.77 131.453 187.079 131.091 187.303 130.632C187.538 130.173 187.655 129.661 187.655 129.096C187.655 128.52 187.538 128.008 187.303 127.56C187.079 127.101 186.77 126.744 186.375 126.488C185.98 126.221 185.527 126.088 185.015 126.088C184.503 126.088 184.05 126.221 183.655 126.488C183.26 126.744 182.946 127.101 182.711 127.56C182.487 128.008 182.375 128.52 182.375 129.096C182.375 129.661 182.487 130.173 182.711 130.632C182.946 131.091 183.26 131.453 183.655 131.72C184.05 131.976 184.503 132.104 185.015 132.104ZM194.591 133V121.56L195.759 121.32V126.264C196.057 125.891 196.42 125.603 196.847 125.4C197.273 125.197 197.748 125.096 198.271 125.096C198.953 125.096 199.561 125.277 200.095 125.64C200.639 125.992 201.071 126.472 201.391 127.08C201.711 127.677 201.871 128.349 201.871 129.096C201.871 129.843 201.705 130.52 201.375 131.128C201.055 131.736 200.617 132.221 200.063 132.584C199.519 132.936 198.9 133.112 198.207 133.112C197.716 133.112 197.257 133.016 196.831 132.824C196.415 132.621 196.052 132.339 195.743 131.976V133H194.591ZM197.983 132.104C198.505 132.104 198.969 131.976 199.375 131.72C199.791 131.453 200.116 131.096 200.351 130.648C200.596 130.189 200.719 129.677 200.719 129.112C200.719 128.536 200.596 128.024 200.351 127.576C200.116 127.128 199.791 126.776 199.375 126.52C198.969 126.253 198.505 126.12 197.983 126.12C197.524 126.12 197.097 126.216 196.703 126.408C196.319 126.589 196.004 126.851 195.759 127.192V131.016C196.015 131.357 196.335 131.624 196.719 131.816C197.113 132.008 197.535 132.104 197.983 132.104ZM207.439 133.16C206.713 133.16 206.057 132.984 205.471 132.632C204.884 132.269 204.42 131.784 204.079 131.176C203.737 130.557 203.567 129.864 203.567 129.096C203.567 128.328 203.727 127.64 204.047 127.032C204.377 126.424 204.82 125.944 205.375 125.592C205.929 125.24 206.548 125.064 207.231 125.064C207.924 125.064 208.537 125.24 209.071 125.592C209.615 125.933 210.041 126.403 210.351 127C210.671 127.587 210.831 128.253 210.831 129V129.352H204.703C204.745 129.885 204.889 130.365 205.135 130.792C205.391 131.208 205.721 131.539 206.127 131.784C206.543 132.019 206.996 132.136 207.487 132.136C207.892 132.136 208.281 132.067 208.655 131.928C209.039 131.779 209.364 131.581 209.631 131.336L210.367 132.12C209.919 132.472 209.455 132.733 208.975 132.904C208.495 133.075 207.983 133.16 207.439 133.16ZM204.735 128.52H209.679C209.625 128.051 209.481 127.635 209.247 127.272C209.023 126.899 208.735 126.605 208.383 126.392C208.041 126.179 207.657 126.072 207.231 126.072C206.804 126.072 206.415 126.179 206.063 126.392C205.711 126.595 205.417 126.883 205.183 127.256C204.959 127.619 204.809 128.04 204.735 128.52ZM218.975 133.144C218.421 133.144 217.93 133.043 217.503 132.84C217.077 132.637 216.741 132.36 216.495 132.008C216.261 131.645 216.143 131.229 216.143 130.76C216.143 130.291 216.266 129.885 216.511 129.544C216.757 129.192 217.098 128.92 217.535 128.728C217.973 128.536 218.485 128.44 219.071 128.44C219.519 128.44 219.941 128.488 220.335 128.584C220.741 128.68 221.114 128.835 221.455 129.048V127.976C221.455 127.336 221.285 126.856 220.943 126.536C220.602 126.205 220.101 126.04 219.439 126.04C219.077 126.04 218.703 126.093 218.319 126.2C217.946 126.307 217.53 126.477 217.071 126.712L216.639 125.816C217.685 125.315 218.666 125.064 219.583 125.064C220.554 125.064 221.301 125.304 221.823 125.784C222.346 126.253 222.607 126.931 222.607 127.816V133H221.455V132.088C221.114 132.44 220.735 132.707 220.319 132.888C219.903 133.059 219.455 133.144 218.975 133.144ZM217.263 130.728C217.263 131.187 217.439 131.555 217.791 131.832C218.154 132.109 218.629 132.248 219.215 132.248C219.653 132.248 220.053 132.173 220.415 132.024C220.789 131.875 221.135 131.651 221.455 131.352V129.848C221.125 129.656 220.783 129.517 220.431 129.432C220.079 129.336 219.685 129.288 219.247 129.288C218.65 129.288 218.17 129.421 217.807 129.688C217.445 129.944 217.263 130.291 217.263 130.728ZM224.981 136.344V125.192H226.133V126.312C226.432 125.917 226.795 125.619 227.221 125.416C227.659 125.203 228.139 125.096 228.661 125.096C229.344 125.096 229.952 125.277 230.485 125.64C231.029 125.992 231.461 126.472 231.781 127.08C232.101 127.677 232.261 128.349 232.261 129.096C232.261 129.843 232.096 130.52 231.765 131.128C231.445 131.736 231.008 132.221 230.453 132.584C229.909 132.936 229.291 133.112 228.597 133.112C228.107 133.112 227.653 133.021 227.237 132.84C226.821 132.648 226.459 132.376 226.149 132.024V136.344H224.981ZM228.373 132.104C228.896 132.104 229.36 131.976 229.765 131.72C230.181 131.453 230.507 131.096 230.741 130.648C230.987 130.189 231.109 129.677 231.109 129.112C231.109 128.536 230.987 128.024 230.741 127.576C230.507 127.128 230.181 126.776 229.765 126.52C229.36 126.253 228.896 126.12 228.373 126.12C227.915 126.12 227.488 126.216 227.093 126.408C226.709 126.589 226.395 126.851 226.149 127.192V131.016C226.405 131.357 226.725 131.624 227.109 131.816C227.504 132.008 227.925 132.104 228.373 132.104ZM234.309 136.344V125.192H235.461V126.312C235.76 125.917 236.123 125.619 236.549 125.416C236.987 125.203 237.467 125.096 237.989 125.096C238.672 125.096 239.28 125.277 239.813 125.64C240.357 125.992 240.789 126.472 241.109 127.08C241.429 127.677 241.589 128.349 241.589 129.096C241.589 129.843 241.424 130.52 241.093 131.128C240.773 131.736 240.336 132.221 239.781 132.584C239.237 132.936 238.619 133.112 237.925 133.112C237.435 133.112 236.981 133.021 236.565 132.84C236.149 132.648 235.787 132.376 235.477 132.024V136.344H234.309ZM237.701 132.104C238.224 132.104 238.688 131.976 239.093 131.72C239.509 131.453 239.835 131.096 240.069 130.648C240.315 130.189 240.437 129.677 240.437 129.112C240.437 128.536 240.315 128.024 240.069 127.576C239.835 127.128 239.509 126.776 239.093 126.52C238.688 126.253 238.224 126.12 237.701 126.12C237.243 126.12 236.816 126.216 236.421 126.408C236.037 126.589 235.723 126.851 235.477 127.192V131.016C235.733 131.357 236.053 131.624 236.437 131.816C236.832 132.008 237.253 132.104 237.701 132.104ZM243.638 133V121.448L244.806 121.208V133H243.638ZM247.184 133V125.192H248.352V133H247.184ZM247.776 123.256C247.541 123.256 247.339 123.176 247.168 123.016C247.008 122.845 246.928 122.648 246.928 122.424C246.928 122.2 247.008 122.008 247.168 121.848C247.339 121.677 247.541 121.592 247.776 121.592C248.011 121.592 248.208 121.677 248.368 121.848C248.539 122.008 248.624 122.2 248.624 122.424C248.624 122.648 248.539 122.845 248.368 123.016C248.208 123.176 248.011 123.256 247.776 123.256ZM254.267 133.16C253.542 133.16 252.886 132.984 252.299 132.632C251.712 132.269 251.248 131.784 250.907 131.176C250.566 130.557 250.395 129.864 250.395 129.096C250.395 128.328 250.555 127.64 250.875 127.032C251.206 126.424 251.648 125.944 252.203 125.592C252.758 125.24 253.376 125.064 254.059 125.064C254.752 125.064 255.366 125.24 255.899 125.592C256.443 125.933 256.87 126.403 257.179 127C257.499 127.587 257.659 128.253 257.659 129V129.352H251.531C251.574 129.885 251.718 130.365 251.963 130.792C252.219 131.208 252.55 131.539 252.955 131.784C253.371 132.019 253.824 132.136 254.315 132.136C254.72 132.136 255.11 132.067 255.483 131.928C255.867 131.779 256.192 131.581 256.459 131.336L257.195 132.12C256.747 132.472 256.283 132.733 255.803 132.904C255.323 133.075 254.811 133.16 254.267 133.16ZM251.563 128.52H256.507C256.454 128.051 256.31 127.635 256.075 127.272C255.851 126.899 255.563 126.605 255.211 126.392C254.87 126.179 254.486 126.072 254.059 126.072C253.632 126.072 253.243 126.179 252.891 126.392C252.539 126.595 252.246 126.883 252.011 127.256C251.787 127.619 251.638 128.04 251.563 128.52ZM262.901 133.112C262.229 133.112 261.621 132.936 261.077 132.584C260.533 132.221 260.101 131.741 259.781 131.144C259.461 130.536 259.301 129.859 259.301 129.112C259.301 128.355 259.461 127.677 259.781 127.08C260.112 126.472 260.554 125.992 261.109 125.64C261.664 125.277 262.282 125.096 262.965 125.096C263.445 125.096 263.893 125.192 264.309 125.384C264.725 125.565 265.088 125.832 265.397 126.184V121.448L266.565 121.208V133H265.397V131.96C265.098 132.333 264.736 132.621 264.309 132.824C263.882 133.016 263.413 133.112 262.901 133.112ZM263.189 132.088C263.648 132.088 264.069 131.997 264.453 131.816C264.837 131.635 265.152 131.379 265.397 131.048V127.176C265.141 126.845 264.816 126.589 264.421 126.408C264.037 126.216 263.626 126.12 263.189 126.12C262.666 126.12 262.197 126.248 261.781 126.504C261.376 126.76 261.05 127.112 260.805 127.56C260.57 128.008 260.453 128.52 260.453 129.096C260.453 129.661 260.57 130.173 260.805 130.632C261.05 131.08 261.376 131.437 261.781 131.704C262.197 131.96 262.666 132.088 263.189 132.088ZM275.676 133.16C275.004 133.16 274.492 133 274.14 132.68C273.799 132.349 273.628 131.875 273.628 131.256V126.152H272.012V125.192H273.628V123.048L274.796 122.776V125.192H277.036V126.152H274.796V130.952C274.796 131.368 274.881 131.667 275.052 131.848C275.233 132.029 275.527 132.12 275.932 132.12C276.135 132.12 276.316 132.104 276.476 132.072C276.636 132.04 276.823 131.987 277.036 131.912V132.952C276.823 133.027 276.599 133.08 276.364 133.112C276.129 133.144 275.9 133.16 275.676 133.16ZM282.047 133.128C281.321 133.128 280.671 132.952 280.095 132.6C279.519 132.248 279.065 131.768 278.735 131.16C278.404 130.552 278.239 129.864 278.239 129.096C278.239 128.328 278.404 127.64 278.735 127.032C279.065 126.424 279.519 125.944 280.095 125.592C280.671 125.24 281.321 125.064 282.047 125.064C282.761 125.064 283.401 125.24 283.967 125.592C284.543 125.944 284.996 126.424 285.327 127.032C285.657 127.64 285.823 128.328 285.823 129.096C285.823 129.864 285.657 130.552 285.327 131.16C284.996 131.768 284.543 132.248 283.967 132.6C283.401 132.952 282.761 133.128 282.047 133.128ZM282.031 132.104C282.543 132.104 282.996 131.976 283.391 131.72C283.785 131.453 284.095 131.091 284.319 130.632C284.553 130.173 284.671 129.661 284.671 129.096C284.671 128.52 284.553 128.008 284.319 127.56C284.095 127.101 283.785 126.744 283.391 126.488C282.996 126.221 282.543 126.088 282.031 126.088C281.519 126.088 281.065 126.221 280.671 126.488C280.276 126.744 279.961 127.101 279.727 127.56C279.503 128.008 279.391 128.52 279.391 129.096C279.391 129.661 279.503 130.173 279.727 130.632C279.961 131.091 280.276 131.453 280.671 131.72C281.065 131.976 281.519 132.104 282.031 132.104ZM291.942 136.504C291.697 136.504 291.446 136.467 291.19 136.392V135.352C291.297 135.373 291.409 135.389 291.526 135.4C291.644 135.411 291.745 135.416 291.83 135.416C292.129 135.416 292.374 135.336 292.566 135.176C292.769 135.016 292.94 134.765 293.078 134.424L293.654 133L290.646 125.192H291.942L294.31 131.608L296.822 125.192H298.118L294.182 134.776C294.012 135.192 293.825 135.528 293.622 135.784C293.42 136.04 293.185 136.221 292.918 136.328C292.652 136.445 292.326 136.504 291.942 136.504ZM302.797 133.128C302.071 133.128 301.421 132.952 300.845 132.6C300.269 132.248 299.815 131.768 299.485 131.16C299.154 130.552 298.989 129.864 298.989 129.096C298.989 128.328 299.154 127.64 299.485 127.032C299.815 126.424 300.269 125.944 300.845 125.592C301.421 125.24 302.071 125.064 302.797 125.064C303.511 125.064 304.151 125.24 304.717 125.592C305.293 125.944 305.746 126.424 306.077 127.032C306.407 127.64 306.573 128.328 306.573 129.096C306.573 129.864 306.407 130.552 306.077 131.16C305.746 131.768 305.293 132.248 304.717 132.6C304.151 132.952 303.511 133.128 302.797 133.128ZM302.781 132.104C303.293 132.104 303.746 131.976 304.141 131.72C304.535 131.453 304.845 131.091 305.069 130.632C305.303 130.173 305.421 129.661 305.421 129.096C305.421 128.52 305.303 128.008 305.069 127.56C304.845 127.101 304.535 126.744 304.141 126.488C303.746 126.221 303.293 126.088 302.781 126.088C302.269 126.088 301.815 126.221 301.421 126.488C301.026 126.744 300.711 127.101 300.477 127.56C300.253 128.008 300.141 128.52 300.141 129.096C300.141 129.661 300.253 130.173 300.477 130.632C300.711 131.091 301.026 131.453 301.421 131.72C301.815 131.976 302.269 132.104 302.781 132.104ZM311.406 133.128C310.851 133.128 310.361 133.005 309.934 132.76C309.507 132.515 309.171 132.173 308.926 131.736C308.691 131.299 308.574 130.797 308.574 130.232V125.192H309.758V129.896C309.758 130.589 309.945 131.139 310.318 131.544C310.691 131.949 311.198 132.152 311.838 132.152C312.275 132.152 312.665 132.051 313.006 131.848C313.358 131.645 313.651 131.352 313.886 130.968V125.192H315.054V133H313.886V131.736C313.587 132.195 313.23 132.541 312.814 132.776C312.409 133.011 311.939 133.128 311.406 133.128ZM317.45 133V125.192H318.618V126.792C318.821 126.248 319.109 125.827 319.482 125.528C319.866 125.219 320.303 125.064 320.794 125.064C320.933 125.064 321.061 125.075 321.178 125.096C321.295 125.107 321.413 125.133 321.53 125.176V126.232C321.402 126.189 321.263 126.157 321.114 126.136C320.975 126.104 320.842 126.088 320.714 126.088C320.234 126.088 319.813 126.227 319.45 126.504C319.098 126.781 318.821 127.171 318.618 127.672V133H317.45ZM329.225 133.144C328.671 133.144 328.18 133.043 327.753 132.84C327.327 132.637 326.991 132.36 326.745 132.008C326.511 131.645 326.393 131.229 326.393 130.76C326.393 130.291 326.516 129.885 326.761 129.544C327.007 129.192 327.348 128.92 327.785 128.728C328.223 128.536 328.735 128.44 329.321 128.44C329.769 128.44 330.191 128.488 330.585 128.584C330.991 128.68 331.364 128.835 331.705 129.048V127.976C331.705 127.336 331.535 126.856 331.193 126.536C330.852 126.205 330.351 126.04 329.689 126.04C329.327 126.04 328.953 126.093 328.569 126.2C328.196 126.307 327.78 126.477 327.321 126.712L326.889 125.816C327.935 125.315 328.916 125.064 329.833 125.064C330.804 125.064 331.551 125.304 332.073 125.784C332.596 126.253 332.857 126.931 332.857 127.816V133H331.705V132.088C331.364 132.44 330.985 132.707 330.569 132.888C330.153 133.059 329.705 133.144 329.225 133.144ZM327.513 130.728C327.513 131.187 327.689 131.555 328.041 131.832C328.404 132.109 328.879 132.248 329.465 132.248C329.903 132.248 330.303 132.173 330.665 132.024C331.039 131.875 331.385 131.651 331.705 131.352V129.848C331.375 129.656 331.033 129.517 330.681 129.432C330.329 129.336 329.935 129.288 329.497 129.288C328.9 129.288 328.42 129.421 328.057 129.688C327.695 129.944 327.513 130.291 327.513 130.728ZM338.735 133.128C338.01 133.128 337.354 132.952 336.767 132.6C336.191 132.237 335.733 131.752 335.391 131.144C335.05 130.525 334.879 129.843 334.879 129.096C334.879 128.339 335.05 127.656 335.391 127.048C335.733 126.44 336.191 125.96 336.767 125.608C337.354 125.245 338.01 125.064 338.735 125.064C339.311 125.064 339.861 125.171 340.383 125.384C340.906 125.597 341.359 125.896 341.743 126.28L340.991 127.096C340.714 126.787 340.378 126.547 339.983 126.376C339.589 126.205 339.189 126.12 338.783 126.12C338.271 126.12 337.807 126.253 337.391 126.52C336.986 126.787 336.661 127.144 336.415 127.592C336.17 128.04 336.047 128.541 336.047 129.096C336.047 129.651 336.17 130.152 336.415 130.6C336.661 131.048 336.986 131.405 337.391 131.672C337.807 131.939 338.271 132.072 338.783 132.072C339.189 132.072 339.589 131.987 339.983 131.816C340.378 131.635 340.714 131.395 340.991 131.096L341.743 131.912C341.359 132.296 340.906 132.595 340.383 132.808C339.861 133.021 339.311 133.128 338.735 133.128ZM346.641 133.128C345.916 133.128 345.26 132.952 344.674 132.6C344.098 132.237 343.639 131.752 343.298 131.144C342.956 130.525 342.786 129.843 342.786 129.096C342.786 128.339 342.956 127.656 343.298 127.048C343.639 126.44 344.098 125.96 344.674 125.608C345.26 125.245 345.916 125.064 346.641 125.064C347.218 125.064 347.767 125.171 348.29 125.384C348.812 125.597 349.266 125.896 349.65 126.28L348.898 127.096C348.62 126.787 348.284 126.547 347.89 126.376C347.495 126.205 347.095 126.12 346.69 126.12C346.178 126.12 345.714 126.253 345.298 126.52C344.892 126.787 344.567 127.144 344.322 127.592C344.076 128.04 343.954 128.541 343.954 129.096C343.954 129.651 344.076 130.152 344.322 130.6C344.567 131.048 344.892 131.405 345.298 131.672C345.714 131.939 346.178 132.072 346.69 132.072C347.095 132.072 347.495 131.987 347.89 131.816C348.284 131.635 348.62 131.395 348.898 131.096L349.65 131.912C349.266 132.296 348.812 132.595 348.29 132.808C347.767 133.021 347.218 133.128 346.641 133.128ZM354.5 133.128C353.774 133.128 353.124 132.952 352.548 132.6C351.972 132.248 351.518 131.768 351.188 131.16C350.857 130.552 350.692 129.864 350.692 129.096C350.692 128.328 350.857 127.64 351.188 127.032C351.518 126.424 351.972 125.944 352.548 125.592C353.124 125.24 353.774 125.064 354.5 125.064C355.214 125.064 355.854 125.24 356.42 125.592C356.996 125.944 357.449 126.424 357.78 127.032C358.11 127.64 358.276 128.328 358.276 129.096C358.276 129.864 358.11 130.552 357.78 131.16C357.449 131.768 356.996 132.248 356.42 132.6C355.854 132.952 355.214 133.128 354.5 133.128ZM354.484 132.104C354.996 132.104 355.449 131.976 355.844 131.72C356.238 131.453 356.548 131.091 356.772 130.632C357.006 130.173 357.124 129.661 357.124 129.096C357.124 128.52 357.006 128.008 356.772 127.56C356.548 127.101 356.238 126.744 355.844 126.488C355.449 126.221 354.996 126.088 354.484 126.088C353.972 126.088 353.518 126.221 353.124 126.488C352.729 126.744 352.414 127.101 352.18 127.56C351.956 128.008 351.844 128.52 351.844 129.096C351.844 129.661 351.956 130.173 352.18 130.632C352.414 131.091 352.729 131.453 353.124 131.72C353.518 131.976 353.972 132.104 354.484 132.104ZM363.109 133.128C362.554 133.128 362.064 133.005 361.637 132.76C361.21 132.515 360.874 132.173 360.629 131.736C360.394 131.299 360.277 130.797 360.277 130.232V125.192H361.461V129.896C361.461 130.589 361.648 131.139 362.021 131.544C362.394 131.949 362.901 132.152 363.541 132.152C363.978 132.152 364.368 132.051 364.709 131.848C365.061 131.645 365.354 131.352 365.589 130.968V125.192H366.757V133H365.589V131.736C365.29 132.195 364.933 132.541 364.517 132.776C364.112 133.011 363.642 133.128 363.109 133.128ZM369.153 133V125.192H370.321V126.456C370.62 125.987 370.977 125.64 371.393 125.416C371.809 125.181 372.278 125.064 372.801 125.064C373.366 125.064 373.857 125.187 374.273 125.432C374.7 125.667 375.03 126.003 375.265 126.44C375.51 126.867 375.633 127.368 375.633 127.944V133H374.465V128.28C374.465 127.587 374.273 127.043 373.889 126.648C373.516 126.243 373.009 126.04 372.369 126.04C371.942 126.04 371.553 126.141 371.201 126.344C370.849 126.547 370.556 126.845 370.321 127.24V133H369.153ZM380.723 133.16C380.051 133.16 379.539 133 379.187 132.68C378.846 132.349 378.675 131.875 378.675 131.256V126.152H377.059V125.192H378.675V123.048L379.843 122.776V125.192H382.083V126.152H379.843V130.952C379.843 131.368 379.928 131.667 380.099 131.848C380.28 132.029 380.574 132.12 380.979 132.12C381.182 132.12 381.363 132.104 381.523 132.072C381.683 132.04 381.87 131.987 382.083 131.912V132.952C381.87 133.027 381.646 133.08 381.411 133.112C381.176 133.144 380.947 133.16 380.723 133.16ZM384.594 133.128C384.359 133.128 384.156 133.043 383.986 132.872C383.826 132.701 383.746 132.499 383.746 132.264C383.746 132.019 383.826 131.816 383.986 131.656C384.156 131.485 384.359 131.4 384.594 131.4C384.828 131.4 385.026 131.485 385.186 131.656C385.356 131.816 385.442 132.019 385.442 132.264C385.442 132.499 385.356 132.701 385.186 132.872C385.026 133.043 384.828 133.128 384.594 133.128Z" fill="#151515"/>
<path d="M128.838 164.131C129.179 162.937 130.426 162.247 131.619 162.588C132.813 162.929 133.503 164.176 133.162 165.369L132.984 165.994C132.888 166.338 132.762 166.675 132.615 167H135.5C136.606 167 137.5 167.897 137.5 169C137.5 169.553 137.275 170.053 136.912 170.422C136.968 170.606 137 170.803 137 171.006C137 171.656 136.69 172.234 136.209 172.6C136.234 172.731 136.25 172.865 136.25 173.006C136.25 173.64 135.956 174.203 135.5 174.568C135.466 175.643 134.584 176.506 133.5 176.506H130.453C129.763 176.506 129.088 176.303 128.513 175.919L126.584 174.635C126.237 174.404 126.144 173.941 126.375 173.594C126.606 173.247 127.072 173.154 127.416 173.385L129.344 174.669C129.672 174.888 130.059 175.003 130.453 175.003H133.5C133.775 175.003 134 174.778 134 174.503C134 174.456 133.994 174.41 133.981 174.369C133.878 173.997 134.072 173.609 134.432 173.469C134.619 173.397 134.75 173.212 134.75 173.003C134.75 172.884 134.709 172.778 134.644 172.693C134.481 172.487 134.441 172.213 134.531 171.966C134.622 171.719 134.838 171.54 135.094 171.49C135.325 171.446 135.5 171.244 135.5 171C135.5 170.872 135.453 170.756 135.375 170.669C135.213 170.485 135.15 170.231 135.209 169.99C135.268 169.75 135.444 169.556 135.675 169.469C135.865 169.397 136 169.213 136 169C136 168.725 135.775 168.5 135.5 168.5H131.325C131.044 168.5 130.787 168.344 130.659 168.094C130.531 167.844 130.55 167.544 130.713 167.315C131.085 166.791 131.366 166.203 131.544 165.581L131.722 164.956C131.834 164.556 131.606 164.141 131.206 164.028C130.806 163.916 130.391 164.147 130.278 164.544L130.1 165.169C129.921 165.797 129.6 166.375 129.159 166.859L127.557 168.622C127.279 168.928 126.803 168.95 126.497 168.672C126.191 168.394 126.169 167.919 126.447 167.612L128.05 165.85C128.334 165.537 128.544 165.162 128.659 164.756L128.838 164.131ZM124.5 167.5C125.053 167.5 125.5 167.947 125.5 168.5V175.5C125.5 176.053 125.053 176.5 124.5 176.5H122.5C121.947 176.5 121.5 176.053 121.5 175.5V168.5C121.5 167.947 121.947 167.5 122.5 167.5H124.5Z" fill="#707070"/>
<path d="M174.5 162.494C175.584 162.494 176.466 163.357 176.5 164.432C176.956 164.797 177.25 165.36 177.25 165.994C177.25 166.135 177.234 166.269 177.209 166.4C177.69 166.766 178 167.344 178 167.994C178 168.197 177.968 168.394 177.912 168.578C178.275 168.947 178.5 169.447 178.5 170C178.5 171.103 177.606 172 176.5 172H173.615C173.762 172.325 173.888 172.662 173.984 173.006L174.162 173.631C174.503 174.824 173.813 176.071 172.619 176.412C171.426 176.753 170.179 176.063 169.838 174.869L169.659 174.244C169.544 173.838 169.334 173.463 169.05 173.15L167.447 171.388C167.169 171.081 167.191 170.606 167.497 170.328C167.803 170.05 168.279 170.072 168.557 170.378L170.159 172.141C170.6 172.625 170.921 173.203 171.1 173.831L171.278 174.456C171.391 174.853 171.806 175.084 172.206 174.972C172.606 174.859 172.834 174.444 172.722 174.044L172.544 173.419C172.366 172.797 172.085 172.209 171.713 171.685C171.55 171.456 171.531 171.156 171.659 170.906C171.787 170.656 172.044 170.5 172.325 170.5H176.5C176.775 170.5 177 170.275 177 170C177 169.788 176.865 169.603 176.675 169.531C176.444 169.444 176.268 169.25 176.209 169.01C176.15 168.769 176.213 168.515 176.375 168.331C176.453 168.244 176.5 168.128 176.5 168C176.5 167.756 176.325 167.554 176.094 167.51C175.838 167.46 175.622 167.281 175.531 167.034C175.441 166.787 175.481 166.513 175.644 166.307C175.709 166.222 175.75 166.116 175.75 165.997C175.75 165.788 175.619 165.603 175.432 165.531C175.072 165.391 174.878 165.003 174.981 164.631C174.994 164.59 175 164.544 175 164.497C175 164.222 174.775 163.997 174.5 163.997H171.453C171.059 163.997 170.672 164.112 170.344 164.331L168.416 165.615C168.072 165.846 167.606 165.753 167.375 165.406C167.144 165.059 167.237 164.596 167.584 164.365L169.513 163.081C170.088 162.697 170.763 162.494 171.453 162.494H174.5ZM165.5 164.5C166.053 164.5 166.5 164.947 166.5 165.5V172.5C166.5 173.053 166.053 173.5 165.5 173.5H163.5C162.947 173.5 162.5 173.053 162.5 172.5V165.5C162.5 164.947 162.947 164.5 163.5 164.5H165.5Z" fill="#707070"/>
<path d="M208.292 165.125V173.219C208.292 174.063 208.979 174.75 209.823 174.75H214.417V175.844C214.417 176.206 214.123 176.5 213.761 176.5H206.323C205.961 176.5 205.667 176.206 205.667 175.844V165.781C205.667 165.419 205.961 165.125 206.323 165.125H208.292ZM214.417 162.5V165.344C214.417 165.705 214.712 166 215.073 166H217.917V173.219C217.917 173.581 217.623 173.875 217.261 173.875H209.823C209.461 173.875 209.167 173.581 209.167 173.219V163.156C209.167 162.794 209.461 162.5 209.823 162.5H214.417ZM215.457 162.5C215.607 162.5 215.815 162.586 215.921 162.692L217.725 164.495C217.831 164.601 217.917 164.809 217.917 164.959V165.125H215.292V162.5H215.457Z" fill="#707070"/>
<path d="M249.834 172.5L251.365 174.031C251.993 174.659 253.007 174.659 253.635 174.031L255.166 172.5H259.75C260.166 172.5 260.5 172.834 260.5 173.25V176.75C260.5 177.166 260.166 177.5 259.75 177.5H245.25C244.834 177.5 244.5 177.166 244.5 176.75V173.25C244.5 172.834 244.834 172.5 245.25 172.5H249.834ZM256 175.375C255.656 175.375 255.375 175.656 255.375 176C255.375 176.344 255.656 176.625 256 176.625C256.344 176.625 256.625 176.344 256.625 176C256.625 175.656 256.344 175.375 256 175.375ZM258 175.375C257.656 175.375 257.375 175.656 257.375 176C257.375 176.344 257.656 176.625 258 176.625C258.344 176.625 258.625 176.344 258.625 176C258.625 175.656 258.344 175.375 258 175.375ZM253.75 161.5C254.166 161.5 254.5 161.834 254.5 162.25V167.5H257.24C257.796 167.5 258.075 168.172 257.682 168.565L252.928 173.322C252.693 173.556 252.309 173.556 252.075 173.322L247.315 168.565C246.922 168.172 247.2 167.5 247.756 167.5H250.5V162.25C250.5 161.834 250.834 161.5 251.25 161.5H253.75Z" fill="#707070"/>
<g clip-path="url(#clip3_703_63193)">
<path d="M297.995 163.998C298.203 163.741 298.582 163.704 298.84 163.911V163.913C300.462 165.23 301.5 167.246 301.5 169.501C301.5 171.756 300.462 173.769 298.84 175.089C298.582 175.298 298.205 175.258 297.995 175.001C297.785 174.743 297.825 174.366 298.082 174.156C299.437 173.056 300.3 171.381 300.3 169.501C300.3 167.621 299.437 165.946 298.082 164.844C297.825 164.634 297.788 164.255 297.995 163.998ZM292.168 164.103C292.403 163.894 292.74 163.843 293.027 163.971C293.315 164.101 293.5 164.386 293.5 164.701V174.301C293.5 174.616 293.315 174.901 293.027 175.031C292.74 175.161 292.403 175.108 292.168 174.898L288.795 171.901H287.1C286.217 171.901 285.5 171.183 285.5 170.301V168.701C285.5 167.819 286.217 167.101 287.1 167.1H288.795L292.168 164.103ZM296.482 165.861C296.69 165.604 297.07 165.566 297.327 165.773V165.776C298.407 166.656 299.1 167.998 299.1 169.501C299.1 171.003 298.407 172.345 297.327 173.225C297.07 173.435 296.692 173.396 296.482 173.139C296.272 172.881 296.313 172.504 296.57 172.294C297.383 171.634 297.9 170.628 297.9 169.501C297.9 168.373 297.383 167.368 296.57 166.706C296.313 166.496 296.275 166.119 296.482 165.861ZM294.97 167.723C295.177 167.466 295.558 167.428 295.815 167.636V167.639C296.353 168.079 296.7 168.748 296.7 169.501C296.7 170.253 296.353 170.923 295.815 171.363C295.558 171.573 295.18 171.534 294.97 171.276C294.76 171.019 294.8 170.64 295.058 170.43C295.327 170.21 295.5 169.876 295.5 169.501C295.5 169.126 295.328 168.791 295.058 168.568C294.8 168.358 294.762 167.981 294.97 167.723Z" fill="#707070"/>
</g>
</g>
</g>
<path d="M128 185.333C126.527 185.333 125.333 186.527 125.333 188C125.333 189.473 126.527 190.667 128 190.667C129.473 190.667 130.667 189.473 130.667 188C130.667 186.527 129.473 185.333 128 185.333ZM128 188L127.5 188L127.5 216L128 216L128.5 216L128.5 188L128 188Z" fill="#C806CC"/>
<path d="M109 220C109 217.791 110.791 216 113 216H143C145.209 216 147 217.791 147 220V244C147 246.209 145.209 248 143 248H113C110.791 248 109 246.209 109 244V220Z" fill="#C806CC"/>
<path d="M127.888 238V227.254L125.62 228.208V226.624L128.536 225.4H129.67V238H127.888Z" fill="white"/>
<path d="M212 185.333C210.527 185.333 209.333 186.527 209.333 188C209.333 189.473 210.527 190.667 212 190.667C213.473 190.667 214.667 189.473 214.667 188C214.667 186.527 213.473 185.333 212 185.333ZM212 188L211.5 188L211.5 216L212 216L212.5 216L212.5 188L212 188Z" fill="#C806CC"/>
<path d="M193 220C193 217.791 194.791 216 197 216H227C229.209 216 231 217.791 231 220V244C231 246.209 229.209 248 227 248H197C194.791 248 193 246.209 193 244V220Z" fill="#C806CC"/>
<path d="M211.859 238.198C210.959 238.198 210.113 238.042 209.321 237.73C208.541 237.406 207.863 236.944 207.287 236.344L208.457 235.228C208.961 235.756 209.471 236.134 209.987 236.362C210.515 236.578 211.133 236.686 211.841 236.686C212.693 236.686 213.383 236.476 213.911 236.056C214.451 235.636 214.721 235.096 214.721 234.436C214.721 233.812 214.493 233.308 214.037 232.924C213.593 232.54 213.017 232.348 212.309 232.348H210.779V230.89H212.183C212.819 230.89 213.329 230.704 213.713 230.332C214.097 229.96 214.289 229.474 214.289 228.874C214.289 228.466 214.181 228.106 213.965 227.794C213.749 227.47 213.449 227.218 213.065 227.038C212.693 226.846 212.267 226.75 211.787 226.75C211.151 226.75 210.587 226.864 210.095 227.092C209.615 227.308 209.117 227.692 208.601 228.244L207.431 227.128C208.007 226.504 208.673 226.03 209.429 225.706C210.185 225.37 210.983 225.202 211.823 225.202C212.639 225.202 213.359 225.352 213.983 225.652C214.619 225.952 215.117 226.366 215.477 226.894C215.849 227.422 216.035 228.028 216.035 228.712C216.035 229.384 215.813 229.978 215.369 230.494C214.937 231.01 214.367 231.37 213.659 231.574C214.511 231.754 215.189 232.114 215.693 232.654C216.197 233.182 216.449 233.806 216.449 234.526C216.449 235.234 216.251 235.864 215.855 236.416C215.471 236.968 214.931 237.406 214.235 237.73C213.539 238.042 212.747 238.198 211.859 238.198Z" fill="white"/>
<path d="M254 185.333C252.527 185.333 251.333 186.527 251.333 188C251.333 189.473 252.527 190.667 254 190.667C255.473 190.667 256.667 189.473 256.667 188C256.667 186.527 255.473 185.333 254 185.333ZM254 188L253.5 188L253.5 216L254 216L254.5 216L254.5 188L254 188Z" fill="#C806CC"/>
<path d="M235 220C235 217.791 236.791 216 239 216H269C271.209 216 273 217.791 273 220V244C273 246.209 271.209 248 269 248H239C236.791 248 235 246.209 235 244V220Z" fill="#C806CC"/>
<path d="M255.866 238V234.796H248.72V233.374L255.65 225.4H257.648V233.284H259.178V234.796H257.648V238H255.866ZM250.862 233.284H255.866V227.524L250.862 233.284Z" fill="white"/>
<path d="M296 185.333C294.527 185.333 293.333 186.527 293.333 188C293.333 189.473 294.527 190.667 296 190.667C297.473 190.667 298.667 189.473 298.667 188C298.667 186.527 297.473 185.333 296 185.333ZM296 188L295.5 188L295.5 216L296 216L296.5 216L296.5 188L296 188Z" fill="#C806CC"/>
<path d="M277 220C277 217.791 278.791 216 281 216H311C313.209 216 315 217.791 315 220V244C315 246.209 313.209 248 311 248H281C278.791 248 277 246.209 277 244V220Z" fill="#C806CC"/>
<path d="M295.802 238.198C294.122 238.198 292.664 237.628 291.428 236.488L292.49 235.3C293.03 235.792 293.564 236.152 294.092 236.38C294.632 236.596 295.22 236.704 295.856 236.704C296.708 236.704 297.392 236.458 297.908 235.966C298.436 235.474 298.7 234.838 298.7 234.058C298.7 233.302 298.43 232.69 297.89 232.222C297.362 231.754 296.672 231.52 295.82 231.52C295.388 231.52 294.962 231.58 294.542 231.7C294.122 231.808 293.684 231.982 293.228 232.222L292.004 231.844L292.292 225.4H299.78V226.894H293.804L293.624 230.782C294.092 230.542 294.536 230.38 294.956 230.296C295.388 230.2 295.832 230.152 296.288 230.152C297.128 230.152 297.854 230.314 298.466 230.638C299.09 230.95 299.576 231.394 299.924 231.97C300.272 232.546 300.446 233.212 300.446 233.968C300.446 234.808 300.248 235.546 299.852 236.182C299.468 236.806 298.928 237.298 298.232 237.658C297.536 238.018 296.726 238.198 295.802 238.198Z" fill="white"/>
<path d="M170 185.333C168.527 185.333 167.333 186.527 167.333 188C167.333 189.473 168.527 190.667 170 190.667C171.473 190.667 172.667 189.473 172.667 188C172.667 186.527 171.473 185.333 170 185.333ZM170 188L169.5 188L169.5 216L170 216L170.5 216L170.5 188L170 188Z" fill="#C806CC"/>
<path d="M151 220C151 217.791 152.791 216 155 216H185C187.209 216 189 217.791 189 220V244C189 246.209 187.209 248 185 248H155C152.791 248 151 246.209 151 244V220Z" fill="#C806CC"/>
<path d="M165.89 238V236.74L171.002 231.304C171.518 230.764 171.866 230.302 172.046 229.918C172.238 229.534 172.334 229.126 172.334 228.694C172.334 228.13 172.106 227.662 171.65 227.29C171.194 226.918 170.618 226.732 169.922 226.732C169.346 226.732 168.806 226.846 168.302 227.074C167.798 227.302 167.24 227.698 166.628 228.262L165.656 227.074C166.988 225.826 168.422 225.202 169.958 225.202C170.762 225.202 171.47 225.346 172.082 225.634C172.694 225.922 173.168 226.324 173.504 226.84C173.852 227.344 174.026 227.926 174.026 228.586C174.026 229.006 173.972 229.396 173.864 229.756C173.756 230.104 173.57 230.476 173.306 230.872C173.042 231.256 172.67 231.7 172.19 232.204L168.086 236.524L174.278 236.506V238H165.89Z" fill="white"/>
</g>
<defs>
<filter id="filter0_d_703_63193" x="-5" y="4" width="520" height="238" filterUnits="userSpaceOnUse" color-interpolation-filters="sRGB">
<feFlood flood-opacity="0" result="BackgroundImageFix"/>
<feColorMatrix in="SourceAlpha" type="matrix" values="0 0 0 0 0 0 0 0 0 0 0 0 0 0 0 0 0 0 127 0" result="hardAlpha"/>
<feOffset dy="10"/>
<feGaussianBlur stdDeviation="10"/>
<feColorMatrix type="matrix" values="0 0 0 0 0.160784 0 0 0 0 0.160784 0 0 0 0 0.160784 0 0 0 0.15 0"/>
<feBlend mode="normal" in2="BackgroundImageFix" result="effect1_dropShadow_703_63193"/>
<feBlend mode="normal" in="SourceGraphic" in2="effect1_dropShadow_703_63193" result="shape"/>
</filter>
<clipPath id="clip0_703_63193">
<rect width="510" height="262" fill="white"/>
</clipPath>
<clipPath id="clip1_703_63193">
<path d="M15 30C15 21.1634 22.1634 14 31 14H479C487.837 14 495 21.1634 495 30V196C495 204.837 487.837 212 479 212H31C22.1635 212 15 204.837 15 196V30Z" fill="white"/>
</clipPath>
<clipPath id="clip2_703_63193">
<rect width="33" height="31" fill="white" transform="translate(47 64)"/>
</clipPath>
<clipPath id="clip3_703_63193">
<rect width="16" height="24" fill="white" transform="translate(285.5 157.5)"/>
</clipPath>
</defs>
</svg>
