<svg width="524" height="215" viewBox="0 0 524 215" fill="none" xmlns="http://www.w3.org/2000/svg">
<rect width="524" height="215" fill="white"/>
<path d="M22 43H502V157C502 165.837 494.837 173 486 173H38C29.1635 173 22 165.837 22 157V43Z" fill="#F2F2F2"/>
<mask id="path-2-inside-1_189_23259" fill="white">
<path d="M22 43H502V173H22V43Z"/>
</mask>
<path d="M22 43V44H502V43V42H22V43Z" fill="#C7C7C7" mask="url(#path-2-inside-1_189_23259)"/>
<path d="M46 91C46 73.3269 60.3269 59 78 59H446C463.673 59 478 73.3269 478 91C478 108.673 463.673 123 446 123H78C60.3269 123 46 108.673 46 91Z" fill="white"/>
<path d="M71.408 97V85.8H72.64V97H71.408ZM74.8469 88.696L75.8069 85H77.0549L75.7589 88.696H74.8469ZM79.0906 97V89.192H80.2586V90.408C80.5573 89.96 80.8986 89.624 81.2826 89.4C81.6666 89.176 82.0986 89.064 82.5786 89.064C83.1333 89.064 83.6186 89.2027 84.0346 89.48C84.4506 89.7467 84.7653 90.1147 84.9786 90.584C85.288 90.0827 85.656 89.704 86.0826 89.448C86.52 89.192 87.0213 89.064 87.5866 89.064C88.1093 89.064 88.568 89.1867 88.9626 89.432C89.368 89.6773 89.6826 90.0187 89.9066 90.456C90.1306 90.8827 90.2426 91.384 90.2426 91.96V97H89.0746V92.248C89.0746 91.5653 88.904 91.0267 88.5626 90.632C88.2213 90.2373 87.752 90.04 87.1546 90.04C86.7493 90.04 86.3813 90.1413 86.0506 90.344C85.7306 90.5467 85.448 90.856 85.2026 91.272C85.224 91.3787 85.24 91.4907 85.2506 91.608C85.2613 91.7253 85.2666 91.8427 85.2666 91.96V97H84.0986V92.248C84.0986 91.5653 83.9226 91.0267 83.5706 90.632C83.2293 90.2373 82.76 90.04 82.1626 90.04C81.3626 90.04 80.728 90.424 80.2586 91.192V97H79.0906ZM96.3406 97V85.448L97.5086 85.208V97H96.3406ZM103.359 97.128C102.634 97.128 101.983 96.952 101.407 96.6C100.831 96.248 100.378 95.768 100.047 95.16C99.7165 94.552 99.5511 93.864 99.5511 93.096C99.5511 92.328 99.7165 91.64 100.047 91.032C100.378 90.424 100.831 89.944 101.407 89.592C101.983 89.24 102.634 89.064 103.359 89.064C104.074 89.064 104.714 89.24 105.279 89.592C105.855 89.944 106.308 90.424 106.639 91.032C106.97 91.64 107.135 92.328 107.135 93.096C107.135 93.864 106.97 94.552 106.639 95.16C106.308 95.768 105.855 96.248 105.279 96.6C104.714 96.952 104.074 97.128 103.359 97.128ZM103.343 96.104C103.855 96.104 104.308 95.976 104.703 95.72C105.098 95.4533 105.407 95.0907 105.631 94.632C105.866 94.1733 105.983 93.6613 105.983 93.096C105.983 92.52 105.866 92.008 105.631 91.56C105.407 91.1013 105.098 90.744 104.703 90.488C104.308 90.2213 103.855 90.088 103.343 90.088C102.831 90.088 102.378 90.2213 101.983 90.488C101.588 90.744 101.274 91.1013 101.039 91.56C100.815 92.008 100.703 92.52 100.703 93.096C100.703 93.6613 100.815 94.1733 101.039 94.632C101.274 95.0907 101.588 95.4533 101.983 95.72C102.378 95.976 102.831 96.104 103.343 96.104ZM112.64 97.128C111.915 97.128 111.264 96.952 110.688 96.6C110.112 96.248 109.659 95.768 109.328 95.16C108.998 94.552 108.832 93.864 108.832 93.096C108.832 92.328 108.998 91.64 109.328 91.032C109.659 90.424 110.112 89.944 110.688 89.592C111.264 89.24 111.915 89.064 112.64 89.064C113.355 89.064 113.995 89.24 114.56 89.592C115.136 89.944 115.59 90.424 115.92 91.032C116.251 91.64 116.416 92.328 116.416 93.096C116.416 93.864 116.251 94.552 115.92 95.16C115.59 95.768 115.136 96.248 114.56 96.6C113.995 96.952 113.355 97.128 112.64 97.128ZM112.624 96.104C113.136 96.104 113.59 95.976 113.984 95.72C114.379 95.4533 114.688 95.0907 114.912 94.632C115.147 94.1733 115.264 93.6613 115.264 93.096C115.264 92.52 115.147 92.008 114.912 91.56C114.688 91.1013 114.379 90.744 113.984 90.488C113.59 90.2213 113.136 90.088 112.624 90.088C112.112 90.088 111.659 90.2213 111.264 90.488C110.87 90.744 110.555 91.1013 110.32 91.56C110.096 92.008 109.984 92.52 109.984 93.096C109.984 93.6613 110.096 94.1733 110.32 94.632C110.555 95.0907 110.87 95.4533 111.264 95.72C111.659 95.976 112.112 96.104 112.624 96.104ZM118.466 97V85.448L119.634 85.208V92.696L123.346 89.192H124.754L120.786 92.904L124.93 97H123.394L119.634 93.272V97H118.466ZM126.278 97V89.192H127.446V97H126.278ZM126.87 87.256C126.635 87.256 126.432 87.176 126.262 87.016C126.102 86.8453 126.022 86.648 126.022 86.424C126.022 86.2 126.102 86.008 126.262 85.848C126.432 85.6773 126.635 85.592 126.87 85.592C127.104 85.592 127.302 85.6773 127.462 85.848C127.632 86.008 127.718 86.2 127.718 86.424C127.718 86.648 127.632 86.8453 127.462 87.016C127.302 87.176 127.104 87.256 126.87 87.256ZM129.841 97V89.192H131.009V90.456C131.307 89.9867 131.665 89.64 132.081 89.416C132.497 89.1813 132.966 89.064 133.489 89.064C134.054 89.064 134.545 89.1867 134.961 89.432C135.387 89.6667 135.718 90.0027 135.953 90.44C136.198 90.8667 136.321 91.368 136.321 91.944V97H135.153V92.28C135.153 91.5867 134.961 91.0427 134.577 90.648C134.203 90.2427 133.697 90.04 133.057 90.04C132.63 90.04 132.241 90.1413 131.889 90.344C131.537 90.5467 131.243 90.8453 131.009 91.24V97H129.841ZM142.285 100.504C141.762 100.504 141.234 100.429 140.701 100.28C140.178 100.141 139.693 99.944 139.245 99.688L139.741 98.792C140.221 99.0373 140.658 99.2187 141.053 99.336C141.447 99.4533 141.842 99.512 142.237 99.512C142.951 99.512 143.49 99.3413 143.853 99C144.226 98.6587 144.413 98.1627 144.413 97.512V95.944C144.114 96.3173 143.751 96.6053 143.325 96.808C142.898 97 142.429 97.096 141.917 97.096C141.245 97.096 140.637 96.92 140.093 96.568C139.549 96.2053 139.117 95.7253 138.797 95.128C138.477 94.52 138.317 93.8427 138.317 93.096C138.317 92.3493 138.477 91.6773 138.797 91.08C139.127 90.472 139.57 89.992 140.125 89.64C140.679 89.2773 141.298 89.096 141.981 89.096C142.471 89.096 142.925 89.192 143.341 89.384C143.757 89.5653 144.119 89.8373 144.429 90.2V89.192H145.581V97.496C145.581 98.4667 145.298 99.208 144.733 99.72C144.167 100.243 143.351 100.504 142.285 100.504ZM142.205 96.088C142.663 96.088 143.085 95.9973 143.469 95.816C143.853 95.624 144.167 95.3627 144.413 95.032V91.176C144.157 90.8453 143.831 90.5893 143.437 90.408C143.053 90.216 142.642 90.12 142.205 90.12C141.682 90.12 141.213 90.248 140.797 90.504C140.391 90.76 140.066 91.112 139.821 91.56C139.586 92.008 139.469 92.52 139.469 93.096C139.469 93.6613 139.586 94.1733 139.821 94.632C140.066 95.08 140.391 95.4373 140.797 95.704C141.213 95.96 141.682 96.088 142.205 96.088ZM152.708 97V90.152H150.964V89.192H152.708V87.56C152.708 86.792 152.91 86.2 153.316 85.784C153.721 85.368 154.297 85.16 155.044 85.16C155.257 85.16 155.449 85.1707 155.62 85.192C155.801 85.2133 155.961 85.2507 156.1 85.304V86.36C155.929 86.3067 155.774 86.2693 155.636 86.248C155.497 86.2267 155.337 86.216 155.156 86.216C154.708 86.216 154.382 86.328 154.18 86.552C153.977 86.7653 153.876 87.1067 153.876 87.576V89.192H156.1V90.152H153.876V97H152.708ZM160.765 97.128C160.04 97.128 159.389 96.952 158.813 96.6C158.237 96.248 157.784 95.768 157.453 95.16C157.123 94.552 156.957 93.864 156.957 93.096C156.957 92.328 157.123 91.64 157.453 91.032C157.784 90.424 158.237 89.944 158.813 89.592C159.389 89.24 160.04 89.064 160.765 89.064C161.48 89.064 162.12 89.24 162.685 89.592C163.261 89.944 163.715 90.424 164.045 91.032C164.376 91.64 164.541 92.328 164.541 93.096C164.541 93.864 164.376 94.552 164.045 95.16C163.715 95.768 163.261 96.248 162.685 96.6C162.12 96.952 161.48 97.128 160.765 97.128ZM160.749 96.104C161.261 96.104 161.715 95.976 162.109 95.72C162.504 95.4533 162.813 95.0907 163.037 94.632C163.272 94.1733 163.389 93.6613 163.389 93.096C163.389 92.52 163.272 92.008 163.037 91.56C162.813 91.1013 162.504 90.744 162.109 90.488C161.715 90.2213 161.261 90.088 160.749 90.088C160.237 90.088 159.784 90.2213 159.389 90.488C158.995 90.744 158.68 91.1013 158.445 91.56C158.221 92.008 158.109 92.52 158.109 93.096C158.109 93.6613 158.221 94.1733 158.445 94.632C158.68 95.0907 158.995 95.4533 159.389 95.72C159.784 95.976 160.237 96.104 160.749 96.104ZM166.591 97V89.192H167.759V90.792C167.961 90.248 168.249 89.8267 168.623 89.528C169.007 89.2187 169.444 89.064 169.935 89.064C170.073 89.064 170.201 89.0747 170.319 89.096C170.436 89.1067 170.553 89.1333 170.671 89.176V90.232C170.543 90.1893 170.404 90.1573 170.255 90.136C170.116 90.104 169.983 90.088 169.855 90.088C169.375 90.088 168.953 90.2267 168.591 90.504C168.239 90.7813 167.961 91.1707 167.759 91.672V97H166.591ZM175.95 97V85.448L177.118 85.208V90.456C177.417 89.9867 177.774 89.64 178.19 89.416C178.606 89.1813 179.075 89.064 179.598 89.064C180.163 89.064 180.654 89.1867 181.07 89.432C181.497 89.6667 181.827 90.0027 182.062 90.44C182.307 90.8667 182.43 91.368 182.43 91.944V97H181.262V92.28C181.262 91.5867 181.07 91.0427 180.686 90.648C180.313 90.2427 179.806 90.04 179.166 90.04C178.739 90.04 178.35 90.1413 177.998 90.344C177.646 90.5467 177.353 90.8453 177.118 91.24V97H175.95ZM188.298 97.16C187.573 97.16 186.917 96.984 186.33 96.632C185.743 96.2693 185.279 95.784 184.938 95.176C184.597 94.5573 184.426 93.864 184.426 93.096C184.426 92.328 184.586 91.64 184.906 91.032C185.237 90.424 185.679 89.944 186.234 89.592C186.789 89.24 187.407 89.064 188.09 89.064C188.783 89.064 189.397 89.24 189.93 89.592C190.474 89.9333 190.901 90.4027 191.21 91C191.53 91.5867 191.69 92.2533 191.69 93V93.352H185.562C185.605 93.8853 185.749 94.3653 185.994 94.792C186.25 95.208 186.581 95.5387 186.986 95.784C187.402 96.0187 187.855 96.136 188.346 96.136C188.751 96.136 189.141 96.0667 189.514 95.928C189.898 95.7787 190.223 95.5813 190.49 95.336L191.226 96.12C190.778 96.472 190.314 96.7333 189.834 96.904C189.354 97.0747 188.842 97.16 188.298 97.16ZM185.594 92.52H190.538C190.485 92.0507 190.341 91.6347 190.106 91.272C189.882 90.8987 189.594 90.6053 189.242 90.392C188.901 90.1787 188.517 90.072 188.09 90.072C187.663 90.072 187.274 90.1787 186.922 90.392C186.57 90.5947 186.277 90.8827 186.042 91.256C185.818 91.6187 185.669 92.04 185.594 92.52ZM193.684 97V85.448L194.852 85.208V97H193.684ZM197.247 100.344V89.192H198.399V90.312C198.698 89.9173 199.06 89.6187 199.487 89.416C199.924 89.2027 200.404 89.096 200.927 89.096C201.61 89.096 202.218 89.2773 202.751 89.64C203.295 89.992 203.727 90.472 204.047 91.08C204.367 91.6773 204.527 92.3493 204.527 93.096C204.527 93.8427 204.362 94.52 204.031 95.128C203.711 95.736 203.274 96.2213 202.719 96.584C202.175 96.936 201.556 97.112 200.863 97.112C200.372 97.112 199.919 97.0213 199.503 96.84C199.087 96.648 198.724 96.376 198.415 96.024V100.344H197.247ZM200.639 96.104C201.162 96.104 201.626 95.976 202.031 95.72C202.447 95.4533 202.772 95.096 203.007 94.648C203.252 94.1893 203.375 93.6773 203.375 93.112C203.375 92.536 203.252 92.024 203.007 91.576C202.772 91.128 202.447 90.776 202.031 90.52C201.626 90.2533 201.162 90.12 200.639 90.12C200.18 90.12 199.754 90.216 199.359 90.408C198.975 90.5893 198.66 90.8507 198.415 91.192V95.016C198.671 95.3573 198.991 95.624 199.375 95.816C199.77 96.008 200.191 96.104 200.639 96.104ZM211.701 97L209.557 89.192H210.693L212.325 95.432L214.197 89.192H215.237L217.109 95.432L218.725 89.192H219.829L217.701 97H216.565L214.709 90.696L212.853 97H211.701ZM221.465 97V89.192H222.633V97H221.465ZM222.057 87.256C221.823 87.256 221.62 87.176 221.449 87.016C221.289 86.8453 221.209 86.648 221.209 86.424C221.209 86.2 221.289 86.008 221.449 85.848C221.62 85.6773 221.823 85.592 222.057 85.592C222.292 85.592 222.489 85.6773 222.649 85.848C222.82 86.008 222.905 86.2 222.905 86.424C222.905 86.648 222.82 86.8453 222.649 87.016C222.489 87.176 222.292 87.256 222.057 87.256ZM228.004 97.16C227.332 97.16 226.82 97 226.468 96.68C226.127 96.3493 225.956 95.8747 225.956 95.256V90.152H224.34V89.192H225.956V87.048L227.124 86.776V89.192H229.364V90.152H227.124V94.952C227.124 95.368 227.209 95.6667 227.38 95.848C227.561 96.0293 227.855 96.12 228.26 96.12C228.463 96.12 228.644 96.104 228.804 96.072C228.964 96.04 229.151 95.9867 229.364 95.912V96.952C229.151 97.0267 228.927 97.08 228.692 97.112C228.457 97.144 228.228 97.16 228.004 97.16ZM231.075 97V85.448L232.243 85.208V90.456C232.542 89.9867 232.899 89.64 233.315 89.416C233.731 89.1813 234.2 89.064 234.723 89.064C235.288 89.064 235.779 89.1867 236.195 89.432C236.622 89.6667 236.952 90.0027 237.187 90.44C237.432 90.8667 237.555 91.368 237.555 91.944V97H236.387V92.28C236.387 91.5867 236.195 91.0427 235.811 90.648C235.438 90.2427 234.931 90.04 234.291 90.04C233.864 90.04 233.475 90.1413 233.123 90.344C232.771 90.5467 232.478 90.8453 232.243 91.24V97H231.075ZM240.703 97.128C240.468 97.128 240.266 97.0427 240.095 96.872C239.935 96.7013 239.855 96.4987 239.855 96.264C239.855 96.0187 239.935 95.816 240.095 95.656C240.266 95.4853 240.468 95.4 240.703 95.4C240.938 95.4 241.135 95.4853 241.295 95.656C241.466 95.816 241.551 96.0187 241.551 96.264C241.551 96.4987 241.466 96.7013 241.295 96.872C241.135 97.0427 240.938 97.128 240.703 97.128ZM244.703 97.128C244.468 97.128 244.266 97.0427 244.095 96.872C243.935 96.7013 243.855 96.4987 243.855 96.264C243.855 96.0187 243.935 95.816 244.095 95.656C244.266 95.4853 244.468 95.4 244.703 95.4C244.938 95.4 245.135 95.4853 245.295 95.656C245.466 95.816 245.551 96.0187 245.551 96.264C245.551 96.4987 245.466 96.7013 245.295 96.872C245.135 97.0427 244.938 97.128 244.703 97.128Z" fill="#4D4D4D"/>
<path d="M334.062 82.3564C335.871 80.5479 338.801 80.5479 340.609 82.3564C342.418 84.165 342.418 87.0947 340.609 88.9033L333.734 95.7783C332.617 96.8955 330.805 96.8955 329.688 95.7783C328.57 94.6611 328.57 92.8486 329.688 91.7314L335.312 86.1064C335.738 85.6807 336.434 85.6807 336.859 86.1064C337.285 86.5322 337.285 87.2275 336.859 87.6533L331.234 93.2783C330.973 93.54 330.973 93.9697 331.234 94.2314C331.496 94.4932 331.926 94.4932 332.188 94.2314L339.062 87.3564C340.016 86.4033 340.016 84.8564 339.062 83.9033C338.109 82.9502 336.562 82.9502 335.609 83.9033L328.422 91.0908C326.777 92.7354 326.777 95.3994 328.422 97.0439C330.066 98.6885 332.73 98.6885 334.375 97.0439L340.312 91.1064C340.738 90.6807 341.434 90.6807 341.859 91.1064C342.285 91.5322 342.285 92.2275 341.859 92.6533L335.922 98.5908C333.422 101.091 329.375 101.091 326.875 98.5908C324.375 96.0908 324.375 92.0439 326.875 89.5439L334.062 82.3564Z" fill="#707070"/>
<path fill-rule="evenodd" clip-rule="evenodd" d="M395.938 88.5C396.457 88.5 396.875 88.918 396.875 89.4375V91C396.875 94.4805 394.289 97.3555 390.938 97.8125V99.125H392.812C393.332 99.125 393.75 99.543 393.75 100.062C393.75 100.582 393.332 101 392.812 101H387.188C386.668 101 386.25 100.582 386.25 100.062C386.25 99.543 386.668 99.125 387.188 99.125H389.062V97.8125C385.711 97.3555 383.125 94.4805 383.125 91V89.4375C383.125 88.918 383.543 88.5 384.062 88.5C384.582 88.5 385 88.918 385 89.4375V91C385 93.7617 387.238 96 390 96C392.762 96 395 93.7617 395 91V89.4375C395 88.918 395.418 88.5 395.938 88.5ZM390 81C392.07 81 393.75 82.6797 393.75 84.75V91C393.75 93.0703 392.07 94.75 390 94.75C387.93 94.75 386.25 93.0703 386.25 91V84.75C386.25 82.6797 387.93 81 390 81Z" fill="#707070"/>
<path fill-rule="evenodd" clip-rule="evenodd" d="M454.13 81.1622C454.548 80.9241 455.063 80.9474 455.458 81.2168C455.852 81.4903 456.059 81.9631 455.985 82.4356L453.485 98.6856C453.427 99.0644 453.196 99.3965 452.86 99.584C452.524 99.7715 452.122 99.7948 451.767 99.6465L447.095 97.7051L444.419 100.6C444.071 100.978 443.524 101.103 443.044 100.916C442.563 100.729 442.251 100.264 442.251 99.7481V96.4825C442.251 96.3262 442.309 96.1778 442.415 96.0645L448.962 88.92C449.188 88.6739 449.18 88.2949 448.946 88.0606C448.712 87.8263 448.333 87.8108 448.087 88.0333L440.142 95.0919L436.692 93.3653C436.278 93.1583 436.013 92.7442 436.001 92.2833C435.989 91.8223 436.231 91.3926 436.63 91.1622L454.13 81.1622Z" fill="#0066CC"/>
<path d="M132.95 152L136.274 143.6H137.378L140.654 152H139.658L138.662 149.36H134.918L133.922 152H132.95ZM135.206 148.628H138.386L136.79 144.44L135.206 148.628ZM141.664 152V143.336L142.54 143.156V152H141.664ZM145.38 152L143.772 146.144H144.624L145.848 150.824L147.252 146.144H148.032L149.436 150.824L150.648 146.144H151.476L149.88 152H149.028L147.636 147.272L146.244 152H145.38ZM154.468 152.108C154.052 152.108 153.684 152.032 153.364 151.88C153.044 151.728 152.792 151.52 152.608 151.256C152.432 150.984 152.344 150.672 152.344 150.32C152.344 149.968 152.436 149.664 152.62 149.408C152.804 149.144 153.06 148.94 153.388 148.796C153.716 148.652 154.1 148.58 154.54 148.58C154.876 148.58 155.192 148.616 155.488 148.688C155.792 148.76 156.072 148.876 156.328 149.036V148.232C156.328 147.752 156.2 147.392 155.944 147.152C155.688 146.904 155.312 146.78 154.816 146.78C154.544 146.78 154.264 146.82 153.976 146.9C153.696 146.98 153.384 147.108 153.04 147.284L152.716 146.612C153.5 146.236 154.236 146.048 154.924 146.048C155.652 146.048 156.212 146.228 156.604 146.588C156.996 146.94 157.192 147.448 157.192 148.112V152H156.328V151.316C156.072 151.58 155.788 151.78 155.476 151.916C155.164 152.044 154.828 152.108 154.468 152.108ZM153.184 150.296C153.184 150.64 153.316 150.916 153.58 151.124C153.852 151.332 154.208 151.436 154.648 151.436C154.976 151.436 155.276 151.38 155.548 151.268C155.828 151.156 156.088 150.988 156.328 150.764V149.636C156.08 149.492 155.824 149.388 155.56 149.324C155.296 149.252 155 149.216 154.672 149.216C154.224 149.216 153.864 149.316 153.592 149.516C153.32 149.708 153.184 149.968 153.184 150.296ZM159.107 154.628C158.923 154.628 158.735 154.6 158.543 154.544V153.764C158.623 153.78 158.707 153.792 158.795 153.8C158.883 153.808 158.959 153.812 159.023 153.812C159.247 153.812 159.431 153.752 159.575 153.632C159.727 153.512 159.855 153.324 159.959 153.068L160.391 152L158.135 146.144H159.107L160.883 150.956L162.767 146.144H163.739L160.787 153.332C160.659 153.644 160.519 153.896 160.367 154.088C160.215 154.28 160.039 154.416 159.839 154.496C159.639 154.584 159.395 154.628 159.107 154.628ZM166.644 152.12C166.164 152.12 165.72 152.048 165.312 151.904C164.904 151.752 164.556 151.536 164.268 151.256L164.736 150.68C165.088 150.936 165.412 151.124 165.708 151.244C166.004 151.356 166.308 151.412 166.62 151.412C167.044 151.412 167.396 151.312 167.676 151.112C167.956 150.912 168.096 150.656 168.096 150.344C168.096 150.104 168.012 149.916 167.844 149.78C167.684 149.644 167.416 149.54 167.04 149.468L166.08 149.3C165.512 149.196 165.092 149.02 164.82 148.772C164.556 148.524 164.424 148.188 164.424 147.764C164.424 147.428 164.512 147.132 164.688 146.876C164.872 146.62 165.124 146.42 165.444 146.276C165.764 146.124 166.128 146.048 166.536 146.048C166.936 146.048 167.316 146.108 167.676 146.228C168.036 146.34 168.4 146.524 168.768 146.78L168.336 147.392C168.032 147.176 167.728 147.02 167.424 146.924C167.12 146.82 166.812 146.768 166.5 146.768C166.116 146.768 165.808 146.852 165.576 147.02C165.344 147.188 165.228 147.416 165.228 147.704C165.228 147.944 165.3 148.128 165.444 148.256C165.596 148.384 165.86 148.48 166.236 148.544L167.22 148.724C167.812 148.828 168.244 149.008 168.516 149.264C168.788 149.52 168.924 149.864 168.924 150.296C168.924 150.64 168.824 150.952 168.624 151.232C168.424 151.504 168.152 151.72 167.808 151.88C167.464 152.04 167.076 152.12 166.644 152.12ZM173.058 152V146.144H173.934V147.344C174.086 146.936 174.302 146.62 174.582 146.396C174.87 146.164 175.198 146.048 175.566 146.048C175.67 146.048 175.766 146.056 175.854 146.072C175.942 146.08 176.03 146.1 176.118 146.132V146.924C176.022 146.892 175.918 146.868 175.806 146.852C175.702 146.828 175.602 146.816 175.506 146.816C175.146 146.816 174.83 146.92 174.558 147.128C174.294 147.336 174.086 147.628 173.934 148.004V152H173.058ZM179.554 152.12C179.01 152.12 178.518 151.988 178.078 151.724C177.638 151.452 177.29 151.088 177.034 150.632C176.778 150.168 176.65 149.648 176.65 149.072C176.65 148.496 176.77 147.98 177.01 147.524C177.258 147.068 177.59 146.708 178.006 146.444C178.422 146.18 178.886 146.048 179.398 146.048C179.918 146.048 180.378 146.18 180.778 146.444C181.186 146.7 181.506 147.052 181.738 147.5C181.978 147.94 182.098 148.44 182.098 149V149.264H177.502C177.534 149.664 177.642 150.024 177.826 150.344C178.018 150.656 178.266 150.904 178.57 151.088C178.882 151.264 179.222 151.352 179.59 151.352C179.894 151.352 180.186 151.3 180.466 151.196C180.754 151.084 180.998 150.936 181.198 150.752L181.75 151.34C181.414 151.604 181.066 151.8 180.706 151.928C180.346 152.056 179.962 152.12 179.554 152.12ZM177.526 148.64H181.234C181.194 148.288 181.086 147.976 180.91 147.704C180.742 147.424 180.526 147.204 180.262 147.044C180.006 146.884 179.718 146.804 179.398 146.804C179.078 146.804 178.786 146.884 178.522 147.044C178.258 147.196 178.038 147.412 177.862 147.692C177.694 147.964 177.582 148.28 177.526 148.64ZM185.098 152L182.698 146.144H183.646L185.542 150.908L187.414 146.144H188.35L185.938 152H185.098ZM189.417 152V146.144H190.293V152H189.417ZM189.861 144.692C189.685 144.692 189.533 144.632 189.405 144.512C189.285 144.384 189.225 144.236 189.225 144.068C189.225 143.9 189.285 143.756 189.405 143.636C189.533 143.508 189.685 143.444 189.861 143.444C190.037 143.444 190.185 143.508 190.305 143.636C190.433 143.756 190.497 143.9 190.497 144.068C190.497 144.236 190.433 144.384 190.305 144.512C190.185 144.632 190.037 144.692 189.861 144.692ZM194.729 152.12C194.185 152.12 193.693 151.988 193.253 151.724C192.813 151.452 192.465 151.088 192.209 150.632C191.953 150.168 191.825 149.648 191.825 149.072C191.825 148.496 191.945 147.98 192.185 147.524C192.433 147.068 192.765 146.708 193.181 146.444C193.597 146.18 194.061 146.048 194.573 146.048C195.093 146.048 195.553 146.18 195.953 146.444C196.361 146.7 196.681 147.052 196.913 147.5C197.153 147.94 197.273 148.44 197.273 149V149.264H192.677C192.709 149.664 192.817 150.024 193.001 150.344C193.193 150.656 193.441 150.904 193.745 151.088C194.057 151.264 194.397 151.352 194.765 151.352C195.069 151.352 195.361 151.3 195.641 151.196C195.929 151.084 196.173 150.936 196.373 150.752L196.925 151.34C196.589 151.604 196.241 151.8 195.881 151.928C195.521 152.056 195.137 152.12 194.729 152.12ZM192.701 148.64H196.409C196.369 148.288 196.261 147.976 196.085 147.704C195.917 147.424 195.701 147.204 195.437 147.044C195.181 146.884 194.893 146.804 194.573 146.804C194.253 146.804 193.961 146.884 193.697 147.044C193.433 147.196 193.213 147.412 193.037 147.692C192.869 147.964 192.757 148.28 192.701 148.64ZM199.696 152L198.088 146.144H198.94L200.164 150.824L201.568 146.144H202.348L203.752 150.824L204.964 146.144H205.792L204.196 152H203.344L201.952 147.272L200.56 152H199.696ZM209.04 152L212.364 143.6H213.468L216.744 152H215.748L214.752 149.36H211.008L210.012 152H209.04ZM211.296 148.628H214.476L212.88 144.44L211.296 148.628ZM217.91 152V143.6H218.834V152H217.91ZM220.621 149V148.244H224.617V149H220.621ZM229.079 154.628C228.687 154.628 228.291 154.572 227.891 154.46C227.499 154.356 227.135 154.208 226.799 154.016L227.171 153.344C227.531 153.528 227.859 153.664 228.155 153.752C228.451 153.84 228.747 153.884 229.043 153.884C229.579 153.884 229.983 153.756 230.255 153.5C230.535 153.244 230.675 152.872 230.675 152.384V151.208C230.451 151.488 230.179 151.704 229.859 151.856C229.539 152 229.187 152.072 228.803 152.072C228.299 152.072 227.843 151.94 227.435 151.676C227.027 151.404 226.703 151.044 226.463 150.596C226.223 150.14 226.103 149.632 226.103 149.072C226.103 148.512 226.223 148.008 226.463 147.56C226.711 147.104 227.043 146.744 227.459 146.48C227.875 146.208 228.339 146.072 228.851 146.072C229.219 146.072 229.559 146.144 229.871 146.288C230.183 146.424 230.455 146.628 230.687 146.9V146.144H231.551V152.372C231.551 153.1 231.339 153.656 230.915 154.04C230.491 154.432 229.879 154.628 229.079 154.628ZM229.019 151.316C229.363 151.316 229.679 151.248 229.967 151.112C230.255 150.968 230.491 150.772 230.675 150.524V147.632C230.483 147.384 230.239 147.192 229.943 147.056C229.655 146.912 229.347 146.84 229.019 146.84C228.627 146.84 228.275 146.936 227.963 147.128C227.659 147.32 227.415 147.584 227.231 147.92C227.055 148.256 226.967 148.64 226.967 149.072C226.967 149.496 227.055 149.88 227.231 150.224C227.415 150.56 227.659 150.828 227.963 151.028C228.275 151.22 228.627 151.316 229.019 151.316ZM235.991 152.12C235.447 152.12 234.955 151.988 234.515 151.724C234.075 151.452 233.727 151.088 233.471 150.632C233.215 150.168 233.087 149.648 233.087 149.072C233.087 148.496 233.207 147.98 233.447 147.524C233.695 147.068 234.027 146.708 234.443 146.444C234.859 146.18 235.323 146.048 235.835 146.048C236.355 146.048 236.815 146.18 237.215 146.444C237.623 146.7 237.943 147.052 238.175 147.5C238.415 147.94 238.535 148.44 238.535 149V149.264H233.939C233.971 149.664 234.079 150.024 234.263 150.344C234.455 150.656 234.703 150.904 235.007 151.088C235.319 151.264 235.659 151.352 236.027 151.352C236.331 151.352 236.623 151.3 236.903 151.196C237.191 151.084 237.435 150.936 237.635 150.752L238.187 151.34C237.851 151.604 237.503 151.8 237.143 151.928C236.783 152.056 236.399 152.12 235.991 152.12ZM233.963 148.64H237.671C237.631 148.288 237.523 147.976 237.347 147.704C237.179 147.424 236.963 147.204 236.699 147.044C236.443 146.884 236.155 146.804 235.835 146.804C235.515 146.804 235.223 146.884 234.959 147.044C234.695 147.196 234.475 147.412 234.299 147.692C234.131 147.964 234.019 148.28 233.963 148.64ZM240.031 152V146.144H240.907V147.092C241.131 146.74 241.399 146.48 241.711 146.312C242.023 146.136 242.375 146.048 242.767 146.048C243.191 146.048 243.559 146.14 243.871 146.324C244.191 146.5 244.439 146.752 244.615 147.08C244.799 147.4 244.891 147.776 244.891 148.208V152H244.015V148.46C244.015 147.94 243.871 147.532 243.583 147.236C243.303 146.932 242.923 146.78 242.443 146.78C242.123 146.78 241.831 146.856 241.567 147.008C241.303 147.16 241.083 147.384 240.907 147.68V152H240.031ZM249.292 152.12C248.748 152.12 248.256 151.988 247.816 151.724C247.376 151.452 247.028 151.088 246.772 150.632C246.516 150.168 246.388 149.648 246.388 149.072C246.388 148.496 246.508 147.98 246.748 147.524C246.996 147.068 247.328 146.708 247.744 146.444C248.16 146.18 248.624 146.048 249.136 146.048C249.656 146.048 250.116 146.18 250.516 146.444C250.924 146.7 251.244 147.052 251.476 147.5C251.716 147.94 251.836 148.44 251.836 149V149.264H247.24C247.272 149.664 247.38 150.024 247.564 150.344C247.756 150.656 248.004 150.904 248.308 151.088C248.62 151.264 248.96 151.352 249.328 151.352C249.632 151.352 249.924 151.3 250.204 151.196C250.492 151.084 250.736 150.936 250.936 150.752L251.488 151.34C251.152 151.604 250.804 151.8 250.444 151.928C250.084 152.056 249.7 152.12 249.292 152.12ZM247.264 148.64H250.972C250.932 148.288 250.824 147.976 250.648 147.704C250.48 147.424 250.264 147.204 250 147.044C249.744 146.884 249.456 146.804 249.136 146.804C248.816 146.804 248.524 146.884 248.26 147.044C247.996 147.196 247.776 147.412 247.6 147.692C247.432 147.964 247.32 148.28 247.264 148.64ZM253.332 152V146.144H254.208V147.344C254.36 146.936 254.576 146.62 254.856 146.396C255.144 146.164 255.472 146.048 255.84 146.048C255.944 146.048 256.04 146.056 256.128 146.072C256.216 146.08 256.304 146.1 256.392 146.132V146.924C256.296 146.892 256.192 146.868 256.08 146.852C255.976 146.828 255.876 146.816 255.78 146.816C255.42 146.816 255.104 146.92 254.832 147.128C254.568 147.336 254.36 147.628 254.208 148.004V152H253.332ZM259.116 152.108C258.7 152.108 258.332 152.032 258.012 151.88C257.692 151.728 257.44 151.52 257.256 151.256C257.08 150.984 256.992 150.672 256.992 150.32C256.992 149.968 257.084 149.664 257.268 149.408C257.452 149.144 257.708 148.94 258.036 148.796C258.364 148.652 258.748 148.58 259.188 148.58C259.524 148.58 259.84 148.616 260.136 148.688C260.44 148.76 260.72 148.876 260.976 149.036V148.232C260.976 147.752 260.848 147.392 260.592 147.152C260.336 146.904 259.96 146.78 259.464 146.78C259.192 146.78 258.912 146.82 258.624 146.9C258.344 146.98 258.032 147.108 257.688 147.284L257.364 146.612C258.148 146.236 258.884 146.048 259.572 146.048C260.3 146.048 260.86 146.228 261.252 146.588C261.644 146.94 261.84 147.448 261.84 148.112V152H260.976V151.316C260.72 151.58 260.436 151.78 260.124 151.916C259.812 152.044 259.476 152.108 259.116 152.108ZM257.832 150.296C257.832 150.64 257.964 150.916 258.228 151.124C258.5 151.332 258.856 151.436 259.296 151.436C259.624 151.436 259.924 151.38 260.196 151.268C260.476 151.156 260.736 150.988 260.976 150.764V149.636C260.728 149.492 260.472 149.388 260.208 149.324C259.944 149.252 259.648 149.216 259.32 149.216C258.872 149.216 258.512 149.316 258.24 149.516C257.968 149.708 257.832 149.968 257.832 150.296ZM265.677 152.12C265.173 152.12 264.789 152 264.525 151.76C264.269 151.512 264.141 151.156 264.141 150.692V146.864H262.929V146.144H264.141V144.536L265.017 144.332V146.144H266.697V146.864H265.017V150.464C265.017 150.776 265.081 151 265.209 151.136C265.345 151.272 265.565 151.34 265.869 151.34C266.021 151.34 266.157 151.328 266.277 151.304C266.397 151.28 266.537 151.24 266.697 151.184V151.964C266.537 152.02 266.369 152.06 266.193 152.084C266.017 152.108 265.845 152.12 265.677 152.12ZM270.503 152.12C269.959 152.12 269.467 151.988 269.027 151.724C268.587 151.452 268.239 151.088 267.983 150.632C267.727 150.168 267.599 149.648 267.599 149.072C267.599 148.496 267.719 147.98 267.959 147.524C268.207 147.068 268.539 146.708 268.955 146.444C269.371 146.18 269.835 146.048 270.347 146.048C270.867 146.048 271.327 146.18 271.727 146.444C272.135 146.7 272.455 147.052 272.687 147.5C272.927 147.94 273.047 148.44 273.047 149V149.264H268.451C268.483 149.664 268.591 150.024 268.775 150.344C268.967 150.656 269.215 150.904 269.519 151.088C269.831 151.264 270.171 151.352 270.539 151.352C270.843 151.352 271.135 151.3 271.415 151.196C271.703 151.084 271.947 150.936 272.147 150.752L272.699 151.34C272.363 151.604 272.015 151.8 271.655 151.928C271.295 152.056 270.911 152.12 270.503 152.12ZM268.475 148.64H272.183C272.143 148.288 272.035 147.976 271.859 147.704C271.691 147.424 271.475 147.204 271.211 147.044C270.955 146.884 270.667 146.804 270.347 146.804C270.027 146.804 269.735 146.884 269.471 147.044C269.207 147.196 268.987 147.412 268.811 147.692C268.643 147.964 268.531 148.28 268.475 148.64ZM276.979 152.084C276.475 152.084 276.019 151.952 275.611 151.688C275.203 151.416 274.879 151.056 274.639 150.608C274.399 150.152 274.279 149.644 274.279 149.084C274.279 148.516 274.399 148.008 274.639 147.56C274.887 147.104 275.219 146.744 275.635 146.48C276.051 146.208 276.515 146.072 277.027 146.072C277.387 146.072 277.723 146.144 278.035 146.288C278.347 146.424 278.619 146.624 278.851 146.888V143.336L279.727 143.156V152H278.851V151.22C278.627 151.5 278.355 151.716 278.035 151.868C277.715 152.012 277.363 152.084 276.979 152.084ZM277.195 151.316C277.539 151.316 277.855 151.248 278.143 151.112C278.431 150.976 278.667 150.784 278.851 150.536V147.632C278.659 147.384 278.415 147.192 278.119 147.056C277.831 146.912 277.523 146.84 277.195 146.84C276.803 146.84 276.451 146.936 276.139 147.128C275.835 147.32 275.591 147.584 275.407 147.92C275.231 148.256 275.143 148.64 275.143 149.072C275.143 149.496 275.231 149.88 275.407 150.224C275.591 150.56 275.835 150.828 276.139 151.028C276.451 151.22 276.803 151.316 277.195 151.316ZM286.956 152.096C286.412 152.096 285.92 151.964 285.48 151.7C285.048 151.428 284.704 151.064 284.448 150.608C284.192 150.144 284.064 149.632 284.064 149.072C284.064 148.504 284.192 147.992 284.448 147.536C284.704 147.08 285.048 146.72 285.48 146.456C285.92 146.184 286.412 146.048 286.956 146.048C287.388 146.048 287.8 146.128 288.192 146.288C288.584 146.448 288.924 146.672 289.212 146.96L288.648 147.572C288.44 147.34 288.188 147.16 287.892 147.032C287.596 146.904 287.296 146.84 286.992 146.84C286.608 146.84 286.26 146.94 285.948 147.14C285.644 147.34 285.4 147.608 285.216 147.944C285.032 148.28 284.94 148.656 284.94 149.072C284.94 149.488 285.032 149.864 285.216 150.2C285.4 150.536 285.644 150.804 285.948 151.004C286.26 151.204 286.608 151.304 286.992 151.304C287.296 151.304 287.596 151.24 287.892 151.112C288.188 150.976 288.44 150.796 288.648 150.572L289.212 151.184C288.924 151.472 288.584 151.696 288.192 151.856C287.8 152.016 287.388 152.096 286.956 152.096ZM292.849 152.096C292.305 152.096 291.817 151.964 291.385 151.7C290.953 151.436 290.613 151.076 290.365 150.62C290.117 150.164 289.993 149.648 289.993 149.072C289.993 148.496 290.117 147.98 290.365 147.524C290.613 147.068 290.953 146.708 291.385 146.444C291.817 146.18 292.305 146.048 292.849 146.048C293.385 146.048 293.865 146.18 294.289 146.444C294.721 146.708 295.061 147.068 295.309 147.524C295.557 147.98 295.681 148.496 295.681 149.072C295.681 149.648 295.557 150.164 295.309 150.62C295.061 151.076 294.721 151.436 294.289 151.7C293.865 151.964 293.385 152.096 292.849 152.096ZM292.837 151.328C293.221 151.328 293.561 151.232 293.857 151.04C294.153 150.84 294.385 150.568 294.553 150.224C294.729 149.88 294.817 149.496 294.817 149.072C294.817 148.64 294.729 148.256 294.553 147.92C294.385 147.576 294.153 147.308 293.857 147.116C293.561 146.916 293.221 146.816 292.837 146.816C292.453 146.816 292.113 146.916 291.817 147.116C291.521 147.308 291.285 147.576 291.109 147.92C290.941 148.256 290.857 148.64 290.857 149.072C290.857 149.496 290.941 149.88 291.109 150.224C291.285 150.568 291.521 150.84 291.817 151.04C292.113 151.232 292.453 151.328 292.837 151.328ZM297.218 152V146.144H298.094V147.092C298.318 146.74 298.586 146.48 298.898 146.312C299.21 146.136 299.562 146.048 299.954 146.048C300.378 146.048 300.746 146.14 301.058 146.324C301.378 146.5 301.626 146.752 301.802 147.08C301.986 147.4 302.078 147.776 302.078 148.208V152H301.202V148.46C301.202 147.94 301.058 147.532 300.77 147.236C300.49 146.932 300.11 146.78 299.63 146.78C299.31 146.78 299.018 146.856 298.754 147.008C298.49 147.16 298.27 147.384 298.094 147.68V152H297.218ZM305.896 152.12C305.392 152.12 305.008 152 304.744 151.76C304.488 151.512 304.36 151.156 304.36 150.692V146.864H303.148V146.144H304.36V144.536L305.236 144.332V146.144H306.916V146.864H305.236V150.464C305.236 150.776 305.3 151 305.428 151.136C305.564 151.272 305.784 151.34 306.088 151.34C306.24 151.34 306.376 151.328 306.496 151.304C306.616 151.28 306.756 151.24 306.916 151.184V151.964C306.756 152.02 306.588 152.06 306.412 152.084C306.236 152.108 306.064 152.12 305.896 152.12ZM310.722 152.12C310.178 152.12 309.686 151.988 309.246 151.724C308.806 151.452 308.458 151.088 308.202 150.632C307.946 150.168 307.818 149.648 307.818 149.072C307.818 148.496 307.938 147.98 308.178 147.524C308.426 147.068 308.758 146.708 309.174 146.444C309.59 146.18 310.054 146.048 310.566 146.048C311.086 146.048 311.546 146.18 311.946 146.444C312.354 146.7 312.674 147.052 312.906 147.5C313.146 147.94 313.266 148.44 313.266 149V149.264H308.67C308.702 149.664 308.81 150.024 308.994 150.344C309.186 150.656 309.434 150.904 309.738 151.088C310.05 151.264 310.39 151.352 310.758 151.352C311.062 151.352 311.354 151.3 311.634 151.196C311.922 151.084 312.166 150.936 312.366 150.752L312.918 151.34C312.582 151.604 312.234 151.8 311.874 151.928C311.514 152.056 311.13 152.12 310.722 152.12ZM308.694 148.64H312.402C312.362 148.288 312.254 147.976 312.078 147.704C311.91 147.424 311.694 147.204 311.43 147.044C311.174 146.884 310.886 146.804 310.566 146.804C310.246 146.804 309.954 146.884 309.69 147.044C309.426 147.196 309.206 147.412 309.03 147.692C308.862 147.964 308.75 148.28 308.694 148.64ZM314.761 152V146.144H315.637V147.092C315.861 146.74 316.129 146.48 316.441 146.312C316.753 146.136 317.105 146.048 317.497 146.048C317.921 146.048 318.289 146.14 318.601 146.324C318.921 146.5 319.169 146.752 319.345 147.08C319.529 147.4 319.621 147.776 319.621 148.208V152H318.745V148.46C318.745 147.94 318.601 147.532 318.313 147.236C318.033 146.932 317.653 146.78 317.173 146.78C316.853 146.78 316.561 146.856 316.297 147.008C316.033 147.16 315.813 147.384 315.637 147.68V152H314.761ZM323.439 152.12C322.935 152.12 322.551 152 322.287 151.76C322.031 151.512 321.903 151.156 321.903 150.692V146.864H320.691V146.144H321.903V144.536L322.779 144.332V146.144H324.459V146.864H322.779V150.464C322.779 150.776 322.843 151 322.971 151.136C323.107 151.272 323.327 151.34 323.631 151.34C323.783 151.34 323.919 151.328 324.039 151.304C324.159 151.28 324.299 151.24 324.459 151.184V151.964C324.299 152.02 324.131 152.06 323.955 152.084C323.779 152.108 323.607 152.12 323.439 152.12ZM328.543 154.508V146.144H329.407V146.984C329.631 146.688 329.903 146.464 330.223 146.312C330.551 146.152 330.911 146.072 331.303 146.072C331.815 146.072 332.271 146.208 332.671 146.48C333.079 146.744 333.403 147.104 333.643 147.56C333.883 148.008 334.003 148.512 334.003 149.072C334.003 149.632 333.879 150.14 333.631 150.596C333.391 151.052 333.063 151.416 332.647 151.688C332.239 151.952 331.775 152.084 331.255 152.084C330.887 152.084 330.547 152.016 330.235 151.88C329.923 151.736 329.651 151.532 329.419 151.268V154.508H328.543ZM331.087 151.328C331.479 151.328 331.827 151.232 332.131 151.04C332.443 150.84 332.687 150.572 332.863 150.236C333.047 149.892 333.139 149.508 333.139 149.084C333.139 148.652 333.047 148.268 332.863 147.932C332.687 147.596 332.443 147.332 332.131 147.14C331.827 146.94 331.479 146.84 331.087 146.84C330.743 146.84 330.423 146.912 330.127 147.056C329.839 147.192 329.603 147.388 329.419 147.644V150.512C329.611 150.768 329.851 150.968 330.139 151.112C330.435 151.256 330.751 151.328 331.087 151.328ZM335.539 152V146.144H336.415V147.344C336.567 146.936 336.783 146.62 337.063 146.396C337.351 146.164 337.679 146.048 338.047 146.048C338.151 146.048 338.247 146.056 338.335 146.072C338.423 146.08 338.511 146.1 338.599 146.132V146.924C338.503 146.892 338.399 146.868 338.287 146.852C338.183 146.828 338.083 146.816 337.987 146.816C337.627 146.816 337.311 146.92 337.039 147.128C336.775 147.336 336.567 147.628 336.415 148.004V152H335.539ZM339.745 152V146.144H340.621V152H339.745ZM340.189 144.692C340.013 144.692 339.861 144.632 339.733 144.512C339.613 144.384 339.553 144.236 339.553 144.068C339.553 143.9 339.613 143.756 339.733 143.636C339.861 143.508 340.013 143.444 340.189 143.444C340.365 143.444 340.513 143.508 340.633 143.636C340.761 143.756 340.825 143.9 340.825 144.068C340.825 144.236 340.761 144.384 340.633 144.512C340.513 144.632 340.365 144.692 340.189 144.692ZM345.01 152.096C344.466 152.096 343.978 151.964 343.546 151.7C343.114 151.436 342.774 151.076 342.526 150.62C342.278 150.164 342.154 149.648 342.154 149.072C342.154 148.496 342.278 147.98 342.526 147.524C342.774 147.068 343.114 146.708 343.546 146.444C343.978 146.18 344.466 146.048 345.01 146.048C345.546 146.048 346.026 146.18 346.45 146.444C346.882 146.708 347.222 147.068 347.47 147.524C347.718 147.98 347.842 148.496 347.842 149.072C347.842 149.648 347.718 150.164 347.47 150.62C347.222 151.076 346.882 151.436 346.45 151.7C346.026 151.964 345.546 152.096 345.01 152.096ZM344.998 151.328C345.382 151.328 345.722 151.232 346.018 151.04C346.314 150.84 346.546 150.568 346.714 150.224C346.89 149.88 346.978 149.496 346.978 149.072C346.978 148.64 346.89 148.256 346.714 147.92C346.546 147.576 346.314 147.308 346.018 147.116C345.722 146.916 345.382 146.816 344.998 146.816C344.614 146.816 344.274 146.916 343.978 147.116C343.682 147.308 343.446 147.576 343.27 147.92C343.102 148.256 343.018 148.64 343.018 149.072C343.018 149.496 343.102 149.88 343.27 150.224C343.446 150.568 343.682 150.84 343.978 151.04C344.274 151.232 344.614 151.328 344.998 151.328ZM349.379 152V146.144H350.255V147.344C350.407 146.936 350.623 146.62 350.903 146.396C351.191 146.164 351.519 146.048 351.887 146.048C351.991 146.048 352.087 146.056 352.175 146.072C352.263 146.08 352.351 146.1 352.439 146.132V146.924C352.343 146.892 352.239 146.868 352.127 146.852C352.023 146.828 351.923 146.816 351.827 146.816C351.467 146.816 351.151 146.92 350.879 147.128C350.615 147.336 350.407 147.628 350.255 148.004V152H349.379ZM358.63 152.12C358.126 152.12 357.742 152 357.478 151.76C357.222 151.512 357.094 151.156 357.094 150.692V146.864H355.882V146.144H357.094V144.536L357.97 144.332V146.144H359.65V146.864H357.97V150.464C357.97 150.776 358.034 151 358.162 151.136C358.298 151.272 358.518 151.34 358.822 151.34C358.974 151.34 359.11 151.328 359.23 151.304C359.35 151.28 359.49 151.24 359.65 151.184V151.964C359.49 152.02 359.322 152.06 359.146 152.084C358.97 152.108 358.798 152.12 358.63 152.12ZM363.408 152.096C362.864 152.096 362.376 151.964 361.944 151.7C361.512 151.436 361.172 151.076 360.924 150.62C360.676 150.164 360.552 149.648 360.552 149.072C360.552 148.496 360.676 147.98 360.924 147.524C361.172 147.068 361.512 146.708 361.944 146.444C362.376 146.18 362.864 146.048 363.408 146.048C363.944 146.048 364.424 146.18 364.848 146.444C365.28 146.708 365.62 147.068 365.868 147.524C366.116 147.98 366.24 148.496 366.24 149.072C366.24 149.648 366.116 150.164 365.868 150.62C365.62 151.076 365.28 151.436 364.848 151.7C364.424 151.964 363.944 152.096 363.408 152.096ZM363.396 151.328C363.78 151.328 364.12 151.232 364.416 151.04C364.712 150.84 364.944 150.568 365.112 150.224C365.288 149.88 365.376 149.496 365.376 149.072C365.376 148.64 365.288 148.256 365.112 147.92C364.944 147.576 364.712 147.308 364.416 147.116C364.12 146.916 363.78 146.816 363.396 146.816C363.012 146.816 362.672 146.916 362.376 147.116C362.08 147.308 361.844 147.576 361.668 147.92C361.5 148.256 361.416 148.64 361.416 149.072C361.416 149.496 361.5 149.88 361.668 150.224C361.844 150.568 362.08 150.84 362.376 151.04C362.672 151.232 363.012 151.328 363.396 151.328ZM372.666 152.096C372.25 152.096 371.882 152.004 371.562 151.82C371.242 151.636 370.99 151.38 370.806 151.052C370.63 150.724 370.542 150.348 370.542 149.924V146.144H371.43V149.672C371.43 150.192 371.57 150.604 371.85 150.908C372.13 151.212 372.51 151.364 372.99 151.364C373.318 151.364 373.61 151.288 373.866 151.136C374.13 150.984 374.35 150.764 374.526 150.476V146.144H375.402V152H374.526V151.052C374.302 151.396 374.034 151.656 373.722 151.832C373.418 152.008 373.066 152.096 372.666 152.096ZM379.011 152.12C378.531 152.12 378.087 152.048 377.679 151.904C377.271 151.752 376.923 151.536 376.635 151.256L377.103 150.68C377.455 150.936 377.779 151.124 378.075 151.244C378.371 151.356 378.675 151.412 378.987 151.412C379.411 151.412 379.763 151.312 380.043 151.112C380.323 150.912 380.463 150.656 380.463 150.344C380.463 150.104 380.379 149.916 380.211 149.78C380.051 149.644 379.783 149.54 379.407 149.468L378.447 149.3C377.879 149.196 377.459 149.02 377.187 148.772C376.923 148.524 376.791 148.188 376.791 147.764C376.791 147.428 376.879 147.132 377.055 146.876C377.239 146.62 377.491 146.42 377.811 146.276C378.131 146.124 378.495 146.048 378.903 146.048C379.303 146.048 379.683 146.108 380.043 146.228C380.403 146.34 380.767 146.524 381.135 146.78L380.703 147.392C380.399 147.176 380.095 147.02 379.791 146.924C379.487 146.82 379.179 146.768 378.867 146.768C378.483 146.768 378.175 146.852 377.943 147.02C377.711 147.188 377.595 147.416 377.595 147.704C377.595 147.944 377.667 148.128 377.811 148.256C377.963 148.384 378.227 148.48 378.603 148.544L379.587 148.724C380.179 148.828 380.611 149.008 380.883 149.264C381.155 149.52 381.291 149.864 381.291 150.296C381.291 150.64 381.191 150.952 380.991 151.232C380.791 151.504 380.519 151.72 380.175 151.88C379.831 152.04 379.443 152.12 379.011 152.12ZM385.323 152.12C384.779 152.12 384.287 151.988 383.847 151.724C383.407 151.452 383.059 151.088 382.803 150.632C382.547 150.168 382.419 149.648 382.419 149.072C382.419 148.496 382.539 147.98 382.779 147.524C383.027 147.068 383.359 146.708 383.775 146.444C384.191 146.18 384.655 146.048 385.167 146.048C385.687 146.048 386.147 146.18 386.547 146.444C386.955 146.7 387.275 147.052 387.507 147.5C387.747 147.94 387.867 148.44 387.867 149V149.264H383.271C383.303 149.664 383.411 150.024 383.595 150.344C383.787 150.656 384.035 150.904 384.339 151.088C384.651 151.264 384.991 151.352 385.359 151.352C385.663 151.352 385.955 151.3 386.235 151.196C386.523 151.084 386.767 150.936 386.967 150.752L387.519 151.34C387.183 151.604 386.835 151.8 386.475 151.928C386.115 152.056 385.731 152.12 385.323 152.12ZM383.295 148.64H387.003C386.963 148.288 386.855 147.976 386.679 147.704C386.511 147.424 386.295 147.204 386.031 147.044C385.775 146.884 385.487 146.804 385.167 146.804C384.847 146.804 384.555 146.884 384.291 147.044C384.027 147.196 383.807 147.412 383.631 147.692C383.463 147.964 383.351 148.28 383.295 148.64ZM389.658 152.096C389.482 152.096 389.33 152.032 389.202 151.904C389.082 151.776 389.022 151.624 389.022 151.448C389.022 151.264 389.082 151.112 389.202 150.992C389.33 150.864 389.482 150.8 389.658 150.8C389.834 150.8 389.982 150.864 390.102 150.992C390.23 151.112 390.294 151.264 390.294 151.448C390.294 151.624 390.23 151.776 390.102 151.904C389.982 152.032 389.834 152.096 389.658 152.096Z" fill="#151515"/>
<path d="M315 16C315 13.7909 316.791 12 319 12H349C351.209 12 353 13.7909 353 16V40C353 42.2091 351.209 44 349 44H319C316.791 44 315 42.2091 315 40V16Z" fill="#C806CC"/>
<path d="M333.888 34V23.254L331.62 24.208V22.624L334.536 21.4H335.67V34H333.888Z" fill="white"/>
<path d="M334 69.3333C332.527 69.3333 331.333 70.5272 331.333 72C331.333 73.4728 332.527 74.6667 334 74.6667C335.473 74.6667 336.667 73.4728 336.667 72C336.667 70.5272 335.473 69.3333 334 69.3333ZM334 44L333.5 44L333.5 72L334 72L334.5 72L334.5 44L334 44Z" fill="#C806CC"/>
<path d="M371 17C371 14.7909 372.791 13 375 13H405C407.209 13 409 14.7909 409 17V41C409 43.2091 407.209 45 405 45H375C372.791 45 371 43.2091 371 41V17Z" fill="#C806CC"/>
<path d="M385.89 35V33.74L391.002 28.304C391.518 27.764 391.866 27.302 392.046 26.918C392.238 26.534 392.334 26.126 392.334 25.694C392.334 25.13 392.106 24.662 391.65 24.29C391.194 23.918 390.618 23.732 389.922 23.732C389.346 23.732 388.806 23.846 388.302 24.074C387.798 24.302 387.24 24.698 386.628 25.262L385.656 24.074C386.988 22.826 388.422 22.202 389.958 22.202C390.762 22.202 391.47 22.346 392.082 22.634C392.694 22.922 393.168 23.324 393.504 23.84C393.852 24.344 394.026 24.926 394.026 25.586C394.026 26.006 393.972 26.396 393.864 26.756C393.756 27.104 393.57 27.476 393.306 27.872C393.042 28.256 392.67 28.7 392.19 29.204L388.086 33.524L394.278 33.506V35H385.89Z" fill="white"/>
<path d="M390 70.3333C388.527 70.3333 387.333 71.5272 387.333 73C387.333 74.4728 388.527 75.6667 390 75.6667C391.473 75.6667 392.667 74.4728 392.667 73C392.667 71.5272 391.473 70.3333 390 70.3333ZM390 45L389.5 45L389.5 73L390 73L390.5 73L390.5 45L390 45Z" fill="#C806CC"/>
<path d="M427 18C427 15.7909 428.791 14 431 14H461C463.209 14 465 15.7909 465 18V42C465 44.2091 463.209 46 461 46H431C428.791 46 427 44.2091 427 42V18Z" fill="#C806CC"/>
<path d="M445.859 36.198C444.959 36.198 444.113 36.042 443.321 35.73C442.541 35.406 441.863 34.944 441.287 34.344L442.457 33.228C442.961 33.756 443.471 34.134 443.987 34.362C444.515 34.578 445.133 34.686 445.841 34.686C446.693 34.686 447.383 34.476 447.911 34.056C448.451 33.636 448.721 33.096 448.721 32.436C448.721 31.812 448.493 31.308 448.037 30.924C447.593 30.54 447.017 30.348 446.309 30.348H444.779V28.89H446.183C446.819 28.89 447.329 28.704 447.713 28.332C448.097 27.96 448.289 27.474 448.289 26.874C448.289 26.466 448.181 26.106 447.965 25.794C447.749 25.47 447.449 25.218 447.065 25.038C446.693 24.846 446.267 24.75 445.787 24.75C445.151 24.75 444.587 24.864 444.095 25.092C443.615 25.308 443.117 25.692 442.601 26.244L441.431 25.128C442.007 24.504 442.673 24.03 443.429 23.706C444.185 23.37 444.983 23.202 445.823 23.202C446.639 23.202 447.359 23.352 447.983 23.652C448.619 23.952 449.117 24.366 449.477 24.894C449.849 25.422 450.035 26.028 450.035 26.712C450.035 27.384 449.813 27.978 449.369 28.494C448.937 29.01 448.367 29.37 447.659 29.574C448.511 29.754 449.189 30.114 449.693 30.654C450.197 31.182 450.449 31.806 450.449 32.526C450.449 33.234 450.251 33.864 449.855 34.416C449.471 34.968 448.931 35.406 448.235 35.73C447.539 36.042 446.747 36.198 445.859 36.198Z" fill="white"/>
<path d="M446 71.3333C444.527 71.3333 443.333 72.5272 443.333 74C443.333 75.4728 444.527 76.6667 446 76.6667C447.473 76.6667 448.667 75.4728 448.667 74C448.667 72.5272 447.473 71.3333 446 71.3333ZM446 46L445.5 46L445.5 74L446 74L446.5 74L446.5 46L446 46Z" fill="#C806CC"/>
</svg>
