<svg width="404" height="178" viewBox="0 0 404 178" fill="none" xmlns="http://www.w3.org/2000/svg">
<g clip-path="url(#clip0_3375_28016)">
<rect width="404" height="178" fill="white"/>
<rect width="375" height="960" transform="translate(12)" fill="white"/>
<path d="M55.9854 36.9102C56.3112 36.5846 56.8394 36.5846 57.165 36.9102L57.7549 37.5C58.08 37.8258 58.0801 38.3532 57.7549 38.6787L55.1016 41.332L57.7549 43.9854C58.0803 44.3112 58.0804 44.8395 57.7549 45.165L57.165 45.7539C56.8394 46.0795 56.3109 46.0795 55.9854 45.7539L53.332 43.1016L50.6787 45.7539C50.3531 46.0795 49.8256 46.0795 49.5 45.7539L48.9102 45.165C48.5846 44.8392 48.5846 44.3109 48.9102 43.9854L51.5635 41.332L48.9102 38.6787C48.5848 38.3529 48.5848 37.8256 48.9102 37.5L49.5 36.9102C49.8258 36.5846 50.3531 36.5847 50.6787 36.9102L53.332 39.5635L55.9854 36.9102Z" fill="#1F1F1F"/>
<path d="M231 42.5C231 32.2827 239.283 24 249.5 24H344.5C354.717 24 363 32.2827 363 42.5C363 52.7173 354.717 61 344.5 61H249.5C239.283 61 231 52.7173 231 42.5Z" fill="#0066CC"/>
<path d="M264.25 37.7495C264.734 37.7495 265.125 38.1405 265.125 38.6245C265.125 39.1083 264.734 39.4995 264.25 39.4995H261.625C261.141 39.4995 260.75 39.8905 260.75 40.3745V47.3745C260.75 47.8583 261.141 48.2495 261.625 48.2495H268.625C269.109 48.2495 269.5 47.8583 269.5 47.3745V44.7495C269.5 44.2655 269.891 43.8745 270.375 43.8745C270.859 43.8745 271.25 44.2655 271.25 44.7495V47.3745C271.25 48.8235 270.074 49.9995 268.625 49.9995H261.625C260.176 49.9995 259 48.8235 259 47.3745V40.3745C259 38.9253 260.176 37.7495 261.625 37.7495H264.25ZM270.969 40.7104L266.394 45.2876C266.224 45.4544 266.019 45.5829 265.795 45.6567L263.367 46.4663C263.129 46.5456 262.869 46.4856 262.694 46.3081C262.519 46.1305 262.456 45.8703 262.535 45.6353L263.345 43.2065C263.419 42.9797 263.547 42.7746 263.714 42.6079L268.289 38.0308L270.969 40.7104ZM269.729 36.5923C270.328 35.9935 271.297 35.9935 271.896 36.5923L272.406 37.1011C273.005 37.6999 273.005 38.6683 272.406 39.2671L271.584 40.0894L268.906 37.4126L269.729 36.5923Z" fill="white"/>
<path d="M281.246 47V37.2H282.366L288.106 45.32L288.078 37.2H289.1V47H288.12L282.24 38.698L282.268 47H281.246ZM294.48 47.14C293.845 47.14 293.271 46.986 292.758 46.678C292.244 46.3607 291.838 45.936 291.54 45.404C291.241 44.8627 291.092 44.256 291.092 43.584C291.092 42.912 291.232 42.31 291.512 41.778C291.801 41.246 292.188 40.826 292.674 40.518C293.159 40.21 293.7 40.056 294.298 40.056C294.904 40.056 295.441 40.21 295.908 40.518C296.384 40.8167 296.757 41.2273 297.028 41.75C297.308 42.2633 297.448 42.8467 297.448 43.5V43.808H292.086C292.123 44.2747 292.249 44.6947 292.464 45.068C292.688 45.432 292.977 45.7213 293.332 45.936C293.696 46.1413 294.092 46.244 294.522 46.244C294.876 46.244 295.217 46.1833 295.544 46.062C295.88 45.9313 296.164 45.7587 296.398 45.544L297.042 46.23C296.65 46.538 296.244 46.7667 295.824 46.916C295.404 47.0653 294.956 47.14 294.48 47.14ZM292.114 43.08H296.44C296.393 42.6693 296.267 42.3053 296.062 41.988C295.866 41.6613 295.614 41.4047 295.306 41.218C295.007 41.0313 294.671 40.938 294.298 40.938C293.924 40.938 293.584 41.0313 293.276 41.218C292.968 41.3953 292.711 41.6473 292.506 41.974C292.31 42.2913 292.179 42.66 292.114 43.08ZM300.274 47L298.398 40.168H299.392L300.82 45.628L302.458 40.168H303.368L305.006 45.628L306.42 40.168H307.386L305.524 47H304.53L302.906 41.484L301.282 47H300.274ZM315.165 47.112C314.53 47.112 313.956 46.958 313.443 46.65C312.939 46.3327 312.537 45.908 312.239 45.376C311.94 44.8347 311.791 44.2373 311.791 43.584C311.791 42.9213 311.94 42.324 312.239 41.792C312.537 41.26 312.939 40.84 313.443 40.532C313.956 40.2147 314.53 40.056 315.165 40.056C315.669 40.056 316.149 40.1493 316.607 40.336C317.064 40.5227 317.461 40.784 317.797 41.12L317.139 41.834C316.896 41.5633 316.602 41.3533 316.257 41.204C315.911 41.0547 315.561 40.98 315.207 40.98C314.759 40.98 314.353 41.0967 313.989 41.33C313.634 41.5633 313.349 41.876 313.135 42.268C312.92 42.66 312.813 43.0987 312.813 43.584C312.813 44.0693 312.92 44.508 313.135 44.9C313.349 45.292 313.634 45.6047 313.989 45.838C314.353 46.0713 314.759 46.188 315.207 46.188C315.561 46.188 315.911 46.1133 316.257 45.964C316.602 45.8053 316.896 45.5953 317.139 45.334L317.797 46.048C317.461 46.384 317.064 46.6453 316.607 46.832C316.149 47.0187 315.669 47.112 315.165 47.112ZM319.222 47V36.892L320.244 36.682V41.274C320.505 40.8633 320.818 40.56 321.182 40.364C321.546 40.1587 321.957 40.056 322.414 40.056C322.909 40.056 323.338 40.1633 323.702 40.378C324.075 40.5833 324.365 40.8773 324.57 41.26C324.785 41.6333 324.892 42.072 324.892 42.576V47H323.87V42.87C323.87 42.2633 323.702 41.7873 323.366 41.442C323.039 41.0873 322.596 40.91 322.036 40.91C321.663 40.91 321.322 40.9987 321.014 41.176C320.706 41.3533 320.449 41.6147 320.244 41.96V47H319.222ZM329.06 47.126C328.575 47.126 328.146 47.0373 327.772 46.86C327.399 46.6827 327.105 46.44 326.89 46.132C326.685 45.8147 326.582 45.4507 326.582 45.04C326.582 44.6293 326.69 44.2747 326.904 43.976C327.119 43.668 327.418 43.43 327.8 43.262C328.183 43.094 328.631 43.01 329.144 43.01C329.536 43.01 329.905 43.052 330.25 43.136C330.605 43.22 330.932 43.3553 331.23 43.542V42.604C331.23 42.044 331.081 41.624 330.782 41.344C330.484 41.0547 330.045 40.91 329.466 40.91C329.149 40.91 328.822 40.9567 328.486 41.05C328.16 41.1433 327.796 41.2927 327.394 41.498L327.016 40.714C327.931 40.2753 328.79 40.056 329.592 40.056C330.442 40.056 331.095 40.266 331.552 40.686C332.01 41.0967 332.238 41.6893 332.238 42.464V47H331.23V46.202C330.932 46.51 330.6 46.7433 330.236 46.902C329.872 47.0513 329.48 47.126 329.06 47.126ZM327.562 45.012C327.562 45.4133 327.716 45.7353 328.024 45.978C328.342 46.2207 328.757 46.342 329.27 46.342C329.653 46.342 330.003 46.2767 330.32 46.146C330.647 46.0153 330.95 45.8193 331.23 45.558V44.242C330.941 44.074 330.642 43.9527 330.334 43.878C330.026 43.794 329.681 43.752 329.298 43.752C328.776 43.752 328.356 43.8687 328.038 44.102C327.721 44.326 327.562 44.6293 327.562 45.012ZM336.715 47.14C336.127 47.14 335.679 47 335.371 46.72C335.072 46.4307 334.923 46.0153 334.923 45.474V41.008H333.509V40.168H334.923V38.292L335.945 38.054V40.168H337.905V41.008H335.945V45.208C335.945 45.572 336.019 45.8333 336.169 45.992C336.327 46.1507 336.584 46.23 336.939 46.23C337.116 46.23 337.275 46.216 337.415 46.188C337.555 46.16 337.718 46.1133 337.905 46.048V46.958C337.718 47.0233 337.522 47.07 337.317 47.098C337.111 47.126 336.911 47.14 336.715 47.14Z" fill="white"/>
<path d="M48 88C52.9718 88 57 92.0282 57 97C57 101.972 52.9718 106 48 106C43.0282 106 39 101.972 39 97C39 92.0282 43.0282 88 48 88ZM48 89.7422C43.9899 89.7422 40.7422 92.9899 40.7422 97C40.7422 101.01 43.9899 104.258 48 104.258C52.0101 104.258 55.2578 101.01 55.2578 97C55.2578 92.9899 52.0101 89.7422 48 89.7422ZM48.5811 91.4834C48.8202 91.4836 49.0164 91.6798 49.0166 91.9189V97.0615L51.4404 98.8252C51.6364 98.9667 51.6767 99.2396 51.5352 99.4355L50.8525 100.375C50.7111 100.567 50.4391 100.611 50.2432 100.47L47.1621 98.2305C47.0496 98.147 46.9844 98.0158 46.9844 97.8779V91.9189C46.9846 91.6798 47.1798 91.4836 47.4189 91.4834H48.5811Z" fill="#1F1F1F"/>
<path d="M74.7439 103.198C73.8079 103.198 72.9379 103.036 72.1339 102.712C71.3419 102.376 70.6399 101.914 70.0279 101.326C69.4279 100.726 68.9599 100.036 68.6239 99.256C68.2999 98.464 68.1379 97.612 68.1379 96.7C68.1379 95.788 68.2999 94.942 68.6239 94.162C68.9599 93.37 69.4279 92.68 70.0279 92.092C70.6399 91.492 71.3479 91.03 72.1519 90.706C72.9559 90.37 73.8199 90.202 74.7439 90.202C75.4039 90.202 76.0459 90.292 76.6699 90.472C77.3059 90.64 77.8879 90.886 78.4159 91.21C78.9559 91.534 79.4239 91.924 79.8199 92.38L78.5599 93.676C78.0919 93.112 77.5219 92.686 76.8499 92.398C76.1779 92.098 75.4759 91.948 74.7439 91.948C73.8559 91.948 73.0579 92.158 72.3499 92.578C71.6419 92.998 71.0839 93.568 70.6759 94.288C70.2679 94.996 70.0639 95.8 70.0639 96.7C70.0639 97.6 70.2679 98.41 70.6759 99.13C71.0959 99.838 71.6659 100.402 72.3859 100.822C73.1059 101.242 73.9099 101.452 74.7979 101.452C75.5299 101.452 76.2199 101.308 76.8679 101.02C77.5279 100.72 78.0859 100.3 78.5419 99.76L79.7839 101.02C79.3639 101.464 78.8839 101.854 78.3439 102.19C77.8159 102.514 77.2399 102.766 76.6159 102.946C76.0039 103.114 75.3799 103.198 74.7439 103.198ZM81.417 103V90.4L83.217 90.004V94.774C83.925 94.03 84.843 93.658 85.971 93.658C86.679 93.658 87.297 93.808 87.825 94.108C88.365 94.408 88.785 94.828 89.085 95.368C89.397 95.908 89.553 96.532 89.553 97.24V103H87.753V97.546C87.753 96.826 87.549 96.262 87.141 95.854C86.733 95.434 86.175 95.224 85.467 95.224C84.987 95.224 84.555 95.326 84.171 95.53C83.787 95.734 83.469 96.028 83.217 96.412V103H81.417ZM94.5279 103.162C93.8679 103.162 93.2859 103.048 92.7819 102.82C92.2779 102.58 91.8819 102.25 91.5939 101.83C91.3059 101.41 91.1619 100.924 91.1619 100.372C91.1619 99.508 91.4919 98.83 92.1519 98.338C92.8119 97.834 93.7179 97.582 94.8699 97.582C95.7699 97.582 96.6039 97.756 97.3719 98.104V97.132C97.3719 95.824 96.6279 95.17 95.1399 95.17C94.7199 95.17 94.2819 95.236 93.8259 95.368C93.3699 95.488 92.8599 95.68 92.2959 95.944L91.6299 94.594C92.3259 94.27 92.9739 94.036 93.5739 93.892C94.1739 93.736 94.7799 93.658 95.3919 93.658C96.5799 93.658 97.4979 93.94 98.1459 94.504C98.8059 95.068 99.1359 95.872 99.1359 96.916V103H97.3719V102.208C96.9639 102.532 96.5259 102.772 96.0579 102.928C95.5899 103.084 95.0799 103.162 94.5279 103.162ZM92.8899 100.336C92.8899 100.78 93.0759 101.14 93.4479 101.416C93.8319 101.692 94.3299 101.83 94.9419 101.83C95.9259 101.83 96.7359 101.536 97.3719 100.948V99.4C96.7119 99.016 95.9259 98.824 95.0139 98.824C94.3539 98.824 93.8319 98.962 93.4479 99.238C93.0759 99.502 92.8899 99.868 92.8899 100.336ZM104.87 103.162C103.982 103.162 103.304 102.958 102.836 102.55C102.368 102.13 102.134 101.524 102.134 100.732V95.35H100.19V93.838H102.134V91.498L103.916 91.066V93.838H106.616V95.35H103.916V100.318C103.916 100.786 104.018 101.122 104.222 101.326C104.438 101.518 104.786 101.614 105.266 101.614C105.518 101.614 105.74 101.596 105.932 101.56C106.136 101.524 106.352 101.47 106.58 101.398V102.91C106.34 102.994 106.058 103.054 105.734 103.09C105.422 103.138 105.134 103.162 104.87 103.162ZM111.704 103V90.4L113.504 90.004V94.774C114.212 94.03 115.13 93.658 116.258 93.658C116.966 93.658 117.584 93.808 118.112 94.108C118.652 94.408 119.072 94.828 119.372 95.368C119.684 95.908 119.84 96.532 119.84 97.24V103H118.04V97.546C118.04 96.826 117.836 96.262 117.428 95.854C117.02 95.434 116.462 95.224 115.754 95.224C115.274 95.224 114.842 95.326 114.458 95.53C114.074 95.734 113.756 96.028 113.504 96.412V103H111.704ZM121.917 103V93.838H123.717V103H121.917ZM122.817 92.362C122.517 92.362 122.259 92.254 122.043 92.038C121.827 91.81 121.719 91.546 121.719 91.246C121.719 90.934 121.827 90.676 122.043 90.472C122.259 90.256 122.517 90.148 122.817 90.148C123.129 90.148 123.393 90.256 123.609 90.472C123.825 90.676 123.933 90.934 123.933 91.246C123.933 91.546 123.825 91.81 123.609 92.038C123.393 92.254 123.129 92.362 122.817 92.362ZM128.987 103.18C128.195 103.18 127.451 103.066 126.755 102.838C126.071 102.598 125.477 102.262 124.973 101.83L125.963 100.642C126.431 101.014 126.911 101.302 127.403 101.506C127.907 101.698 128.417 101.794 128.933 101.794C129.581 101.794 130.109 101.668 130.517 101.416C130.925 101.164 131.129 100.834 131.129 100.426C131.129 99.778 130.637 99.382 129.653 99.238L127.997 99.004C127.085 98.872 126.401 98.59 125.945 98.158C125.489 97.726 125.261 97.15 125.261 96.43C125.261 95.878 125.411 95.398 125.711 94.99C126.011 94.57 126.431 94.246 126.971 94.018C127.511 93.778 128.141 93.658 128.861 93.658C129.521 93.658 130.157 93.754 130.769 93.946C131.381 94.138 131.969 94.438 132.533 94.846L131.615 96.034C130.619 95.386 129.653 95.062 128.717 95.062C128.165 95.062 127.721 95.182 127.385 95.422C127.049 95.65 126.881 95.95 126.881 96.322C126.881 96.658 126.995 96.922 127.223 97.114C127.463 97.294 127.853 97.42 128.393 97.492L130.049 97.726C130.961 97.858 131.651 98.14 132.119 98.572C132.587 98.992 132.821 99.562 132.821 100.282C132.821 100.834 132.653 101.332 132.317 101.776C131.981 102.208 131.525 102.55 130.949 102.802C130.373 103.054 129.719 103.18 128.987 103.18ZM137.952 103.162C137.064 103.162 136.386 102.958 135.918 102.55C135.45 102.13 135.216 101.524 135.216 100.732V95.35H133.272V93.838H135.216V91.498L136.998 91.066V93.838H139.698V95.35H136.998V100.318C136.998 100.786 137.1 101.122 137.304 101.326C137.52 101.518 137.868 101.614 138.348 101.614C138.6 101.614 138.822 101.596 139.014 101.56C139.218 101.524 139.434 101.47 139.662 101.398V102.91C139.422 102.994 139.14 103.054 138.816 103.09C138.504 103.138 138.216 103.162 137.952 103.162ZM145.24 103.18C144.352 103.18 143.542 102.97 142.81 102.55C142.09 102.13 141.52 101.56 141.1 100.84C140.68 100.12 140.47 99.316 140.47 98.428C140.47 97.54 140.68 96.736 141.1 96.016C141.52 95.296 142.09 94.726 142.81 94.306C143.542 93.874 144.352 93.658 145.24 93.658C146.14 93.658 146.95 93.874 147.67 94.306C148.39 94.726 148.96 95.296 149.38 96.016C149.8 96.736 150.01 97.54 150.01 98.428C150.01 99.316 149.8 100.12 149.38 100.84C148.96 101.56 148.39 102.13 147.67 102.55C146.95 102.97 146.14 103.18 145.24 103.18ZM145.24 101.596C145.804 101.596 146.308 101.458 146.752 101.182C147.208 100.894 147.568 100.51 147.832 100.03C148.108 99.55 148.246 99.016 148.246 98.428C148.246 97.828 148.114 97.294 147.85 96.826C147.586 96.346 147.226 95.962 146.77 95.674C146.314 95.386 145.804 95.242 145.24 95.242C144.676 95.242 144.166 95.386 143.71 95.674C143.254 95.962 142.894 96.346 142.63 96.826C142.366 97.294 142.234 97.828 142.234 98.428C142.234 99.016 142.366 99.55 142.63 100.03C142.894 100.51 143.254 100.894 143.71 101.182C144.166 101.458 144.676 101.596 145.24 101.596ZM151.712 103V93.838H153.512V95.008C153.8 94.576 154.154 94.24 154.574 94C155.006 93.748 155.492 93.622 156.032 93.622C156.404 93.634 156.71 93.688 156.95 93.784V95.404C156.602 95.272 156.248 95.206 155.888 95.206C155.36 95.206 154.892 95.35 154.484 95.638C154.076 95.914 153.752 96.322 153.512 96.862V103H151.712ZM159.179 106.87C158.987 106.87 158.807 106.858 158.639 106.834C158.471 106.822 158.333 106.798 158.225 106.762V105.178C158.441 105.226 158.705 105.25 159.017 105.25C159.857 105.25 160.463 104.8 160.835 103.9L161.231 103.018L157.559 93.838H159.557L162.221 100.822L165.173 93.838H167.117L162.689 104.134C162.401 104.782 162.095 105.304 161.771 105.7C161.447 106.108 161.075 106.402 160.655 106.582C160.235 106.774 159.743 106.87 159.179 106.87Z" fill="#151515"/>
<path d="M42 117.5H357C360.038 117.5 362.5 119.962 362.5 123V148C362.5 151.038 360.038 153.5 357 153.5H42C38.9624 153.5 36.5 151.038 36.5 148V123C36.5 119.962 38.9624 117.5 42 117.5Z" fill="white"/>
<path d="M42 117.5H357C360.038 117.5 362.5 119.962 362.5 123V148C362.5 151.038 360.038 153.5 357 153.5H42C38.9624 153.5 36.5 151.038 36.5 148V123C36.5 119.962 38.9624 117.5 42 117.5Z" stroke="#C7C7C7"/>
<path d="M53.6875 129C56.8293 129 59.375 131.546 59.375 134.688C59.375 136.008 58.9265 137.222 58.1719 138.188H58.6172C58.7921 138.188 58.959 138.256 59.082 138.379L61.8086 141.105C62.0627 141.363 62.0626 141.778 61.8057 142.035L61.0322 142.809C60.778 143.066 60.3625 143.065 60.1055 142.809L57.3789 140.082C57.256 139.959 57.1875 139.792 57.1875 139.617V139.172C56.2223 139.927 55.0082 140.375 53.6875 140.375C50.5457 140.375 48 137.829 48 134.688C48 131.546 50.5457 129 53.6875 129ZM53.6875 131.188C51.7516 131.188 50.1875 132.754 50.1875 134.688C50.1875 136.623 51.7543 138.188 53.6875 138.188C55.6234 138.187 57.1875 136.621 57.1875 134.688C57.1875 132.752 55.6207 131.188 53.6875 131.188Z" fill="#1F1F1F"/>
<path d="M74.246 140V130.2H80.938V131.152H75.324V134.652H79.16V135.59H75.324V140H74.246ZM82.3758 140V133.168H83.3978V140H82.3758ZM82.8938 131.474C82.6885 131.474 82.5112 131.404 82.3618 131.264C82.2218 131.115 82.1518 130.942 82.1518 130.746C82.1518 130.55 82.2218 130.382 82.3618 130.242C82.5112 130.093 82.6885 130.018 82.8938 130.018C83.0992 130.018 83.2718 130.093 83.4118 130.242C83.5612 130.382 83.6358 130.55 83.6358 130.746C83.6358 130.942 83.5612 131.115 83.4118 131.264C83.2718 131.404 83.0992 131.474 82.8938 131.474ZM85.4934 140V133.168H86.5154V134.274C86.7767 133.863 87.0894 133.56 87.4534 133.364C87.8174 133.159 88.228 133.056 88.6854 133.056C89.18 133.056 89.6094 133.163 89.9734 133.378C90.3467 133.583 90.636 133.877 90.8414 134.26C91.056 134.633 91.1634 135.072 91.1634 135.576V140H90.1414V135.87C90.1414 135.263 89.9734 134.787 89.6374 134.442C89.3107 134.087 88.8674 133.91 88.3074 133.91C87.934 133.91 87.5934 133.999 87.2854 134.176C86.9774 134.353 86.7207 134.615 86.5154 134.96V140H85.4934ZM96.06 140.098C95.472 140.098 94.94 139.944 94.464 139.636C93.988 139.319 93.61 138.899 93.33 138.376C93.05 137.844 92.91 137.251 92.91 136.598C92.91 135.935 93.05 135.343 93.33 134.82C93.6193 134.288 94.0066 133.868 94.492 133.56C94.9773 133.243 95.5186 133.084 96.116 133.084C96.536 133.084 96.928 133.168 97.292 133.336C97.656 133.495 97.9733 133.728 98.244 134.036V129.892L99.266 129.682V140H98.244V139.09C97.9826 139.417 97.6653 139.669 97.292 139.846C96.9186 140.014 96.508 140.098 96.06 140.098ZM96.312 139.202C96.7133 139.202 97.082 139.123 97.418 138.964C97.754 138.805 98.0293 138.581 98.244 138.292V134.904C98.02 134.615 97.7353 134.391 97.39 134.232C97.054 134.064 96.6946 133.98 96.312 133.98C95.8546 133.98 95.444 134.092 95.08 134.316C94.7253 134.54 94.4406 134.848 94.226 135.24C94.0206 135.632 93.918 136.08 93.918 136.584C93.918 137.079 94.0206 137.527 94.226 137.928C94.4406 138.32 94.7253 138.633 95.08 138.866C95.444 139.09 95.8546 139.202 96.312 139.202ZM104.634 140V129.99L105.656 129.78V134.106C105.917 133.779 106.235 133.527 106.608 133.35C106.981 133.173 107.397 133.084 107.854 133.084C108.451 133.084 108.983 133.243 109.45 133.56C109.926 133.868 110.304 134.288 110.584 134.82C110.864 135.343 111.004 135.931 111.004 136.584C111.004 137.237 110.859 137.83 110.57 138.362C110.29 138.894 109.907 139.319 109.422 139.636C108.946 139.944 108.405 140.098 107.798 140.098C107.369 140.098 106.967 140.014 106.594 139.846C106.23 139.669 105.913 139.421 105.642 139.104V140H104.634ZM107.602 139.216C108.059 139.216 108.465 139.104 108.82 138.88C109.184 138.647 109.469 138.334 109.674 137.942C109.889 137.541 109.996 137.093 109.996 136.598C109.996 136.094 109.889 135.646 109.674 135.254C109.469 134.862 109.184 134.554 108.82 134.33C108.465 134.097 108.059 133.98 107.602 133.98C107.201 133.98 106.827 134.064 106.482 134.232C106.146 134.391 105.871 134.619 105.656 134.918V138.264C105.88 138.563 106.16 138.796 106.496 138.964C106.841 139.132 107.21 139.216 107.602 139.216ZM112.885 143.066C112.67 143.066 112.451 143.033 112.227 142.968V142.058C112.32 142.077 112.418 142.091 112.521 142.1C112.624 142.109 112.712 142.114 112.787 142.114C113.048 142.114 113.263 142.044 113.431 141.904C113.608 141.764 113.758 141.545 113.879 141.246L114.383 140L111.751 133.168H112.885L114.957 138.782L117.155 133.168H118.289L114.845 141.554C114.696 141.918 114.532 142.212 114.355 142.436C114.178 142.66 113.972 142.819 113.739 142.912C113.506 143.015 113.221 143.066 112.885 143.066ZM122.831 140V133.168H123.853V134.274C124.115 133.863 124.427 133.56 124.791 133.364C125.155 133.159 125.566 133.056 126.023 133.056C126.518 133.056 126.947 133.163 127.311 133.378C127.685 133.583 127.974 133.877 128.179 134.26C128.394 134.633 128.501 135.072 128.501 135.576V140H127.479V135.87C127.479 135.263 127.311 134.787 126.975 134.442C126.649 134.087 126.205 133.91 125.645 133.91C125.272 133.91 124.931 133.999 124.623 134.176C124.315 134.353 124.059 134.615 123.853 134.96V140H122.831ZM132.67 140.126C132.185 140.126 131.755 140.037 131.382 139.86C131.009 139.683 130.715 139.44 130.5 139.132C130.295 138.815 130.192 138.451 130.192 138.04C130.192 137.629 130.299 137.275 130.514 136.976C130.729 136.668 131.027 136.43 131.41 136.262C131.793 136.094 132.241 136.01 132.754 136.01C133.146 136.01 133.515 136.052 133.86 136.136C134.215 136.22 134.541 136.355 134.84 136.542V135.604C134.84 135.044 134.691 134.624 134.392 134.344C134.093 134.055 133.655 133.91 133.076 133.91C132.759 133.91 132.432 133.957 132.096 134.05C131.769 134.143 131.405 134.293 131.004 134.498L130.626 133.714C131.541 133.275 132.399 133.056 133.202 133.056C134.051 133.056 134.705 133.266 135.162 133.686C135.619 134.097 135.848 134.689 135.848 135.464V140H134.84V139.202C134.541 139.51 134.21 139.743 133.846 139.902C133.482 140.051 133.09 140.126 132.67 140.126ZM131.172 138.012C131.172 138.413 131.326 138.735 131.634 138.978C131.951 139.221 132.367 139.342 132.88 139.342C133.263 139.342 133.613 139.277 133.93 139.146C134.257 139.015 134.56 138.819 134.84 138.558V137.242C134.551 137.074 134.252 136.953 133.944 136.878C133.636 136.794 133.291 136.752 132.908 136.752C132.385 136.752 131.965 136.869 131.648 137.102C131.331 137.326 131.172 137.629 131.172 138.012ZM137.925 140V133.168H138.947V134.232C139.208 133.84 139.507 133.546 139.843 133.35C140.179 133.154 140.557 133.056 140.977 133.056C141.462 133.056 141.887 133.177 142.251 133.42C142.615 133.653 142.89 133.975 143.077 134.386C143.348 133.947 143.67 133.616 144.043 133.392C144.426 133.168 144.864 133.056 145.359 133.056C145.816 133.056 146.218 133.163 146.563 133.378C146.918 133.593 147.193 133.891 147.389 134.274C147.585 134.647 147.683 135.086 147.683 135.59V140H146.661V135.842C146.661 135.245 146.512 134.773 146.213 134.428C145.914 134.083 145.504 133.91 144.981 133.91C144.626 133.91 144.304 133.999 144.015 134.176C143.735 134.353 143.488 134.624 143.273 134.988C143.292 135.081 143.306 135.179 143.315 135.282C143.324 135.385 143.329 135.487 143.329 135.59V140H142.307V135.842C142.307 135.245 142.153 134.773 141.845 134.428C141.546 134.083 141.136 133.91 140.613 133.91C139.913 133.91 139.358 134.246 138.947 134.918V140H137.925ZM152.831 140.14C152.197 140.14 151.623 139.986 151.109 139.678C150.596 139.361 150.19 138.936 149.891 138.404C149.593 137.863 149.443 137.256 149.443 136.584C149.443 135.912 149.583 135.31 149.863 134.778C150.153 134.246 150.54 133.826 151.025 133.518C151.511 133.21 152.052 133.056 152.649 133.056C153.256 133.056 153.793 133.21 154.259 133.518C154.735 133.817 155.109 134.227 155.379 134.75C155.659 135.263 155.799 135.847 155.799 136.5V136.808H150.437C150.475 137.275 150.601 137.695 150.815 138.068C151.039 138.432 151.329 138.721 151.683 138.936C152.047 139.141 152.444 139.244 152.873 139.244C153.228 139.244 153.569 139.183 153.895 139.062C154.231 138.931 154.516 138.759 154.749 138.544L155.393 139.23C155.001 139.538 154.595 139.767 154.175 139.916C153.755 140.065 153.307 140.14 152.831 140.14ZM150.465 136.08H154.791C154.745 135.669 154.619 135.305 154.413 134.988C154.217 134.661 153.965 134.405 153.657 134.218C153.359 134.031 153.023 133.938 152.649 133.938C152.276 133.938 151.935 134.031 151.627 134.218C151.319 134.395 151.063 134.647 150.857 134.974C150.661 135.291 150.531 135.66 150.465 136.08Z" fill="#4D4D4D"/>
</g>
<defs>
<clipPath id="clip0_3375_28016">
<rect width="404" height="178" fill="white"/>
</clipPath>
</defs>
</svg>
