<svg width="403" height="373" viewBox="0 0 403 373" fill="none" xmlns="http://www.w3.org/2000/svg">
<g clip-path="url(#clip0_759_63665)">
<rect width="403" height="373" fill="white"/>
<g clip-path="url(#clip1_759_63665)">
<rect width="375" height="960" transform="translate(14)" fill="white"/>
<path d="M56.6533 38.0771C56.9792 37.7517 57.5074 37.7516 57.833 38.0771L58.4229 38.667C58.7483 38.9928 58.7483 39.5211 58.4229 39.8467L55.7686 42.5L58.4229 45.1533C58.7482 45.4792 58.7483 46.0075 58.4229 46.333L57.833 46.9229C57.5075 47.2483 56.9789 47.2482 56.6533 46.9229L54 44.2686L51.3467 46.9229C51.0211 47.2483 50.4926 47.2483 50.167 46.9229L49.5771 46.333C49.2516 46.0072 49.2517 45.4789 49.5771 45.1533L52.2305 42.5L49.5771 39.8467C49.2517 39.5208 49.2516 38.9926 49.5771 38.667L50.167 38.0771C50.4928 37.7516 51.0211 37.7517 51.3467 38.0771L54 40.7305L56.6533 38.0771Z" fill="#1F1F1F"/>
<path d="M233 42.5C233 32.2827 241.283 24 251.5 24H346.5C356.717 24 365 32.2827 365 42.5V42.5C365 52.7173 356.717 61 346.5 61H251.5C241.283 61 233 52.7173 233 42.5V42.5Z" fill="#0066CC"/>
<path d="M266.25 37.7504C266.734 37.7504 267.125 38.1414 267.125 38.6254C267.125 39.1092 266.734 39.5004 266.25 39.5004H263.625C263.141 39.5004 262.75 39.8914 262.75 40.3754V47.3754C262.75 47.8592 263.141 48.2504 263.625 48.2504H270.625C271.109 48.2504 271.5 47.8592 271.5 47.3754V44.7504C271.5 44.2664 271.891 43.8754 272.375 43.8754C272.859 43.8754 273.25 44.2664 273.25 44.7504V47.3754C273.25 48.8244 272.074 50.0004 270.625 50.0004H263.625C262.176 50.0004 261 48.8244 261 47.3754V40.3754C261 38.9261 262.176 37.7504 263.625 37.7504H266.25ZM272.969 40.7113L268.394 45.2885C268.224 45.4552 268.019 45.5838 267.795 45.6576L265.367 46.4672C265.129 46.5464 264.869 46.4865 264.694 46.309C264.519 46.1313 264.456 45.8712 264.535 45.6361L265.345 43.2074C265.419 42.9806 265.547 42.7755 265.714 42.6088L270.289 38.0316L272.969 40.7113ZM271.729 36.5931C272.328 35.9943 273.297 35.9943 273.896 36.5931L274.406 37.1019C275.005 37.7008 275.005 38.6691 274.406 39.2679L273.584 40.0902L270.906 37.4135L271.729 36.5931Z" fill="white"/>
<path d="M283.246 47V37.2H284.366L290.106 45.32L290.078 37.2H291.1V47H290.12L284.24 38.698L284.268 47H283.246ZM296.48 47.14C295.845 47.14 295.271 46.986 294.758 46.678C294.244 46.3607 293.838 45.936 293.54 45.404C293.241 44.8627 293.092 44.256 293.092 43.584C293.092 42.912 293.232 42.31 293.512 41.778C293.801 41.246 294.188 40.826 294.674 40.518C295.159 40.21 295.7 40.056 296.298 40.056C296.904 40.056 297.441 40.21 297.908 40.518C298.384 40.8167 298.757 41.2273 299.028 41.75C299.308 42.2633 299.448 42.8467 299.448 43.5V43.808H294.086C294.123 44.2747 294.249 44.6947 294.464 45.068C294.688 45.432 294.977 45.7213 295.332 45.936C295.696 46.1413 296.092 46.244 296.522 46.244C296.876 46.244 297.217 46.1833 297.544 46.062C297.88 45.9313 298.164 45.7587 298.398 45.544L299.042 46.23C298.65 46.538 298.244 46.7667 297.824 46.916C297.404 47.0653 296.956 47.14 296.48 47.14ZM294.114 43.08H298.44C298.393 42.6693 298.267 42.3053 298.062 41.988C297.866 41.6613 297.614 41.4047 297.306 41.218C297.007 41.0313 296.671 40.938 296.298 40.938C295.924 40.938 295.584 41.0313 295.276 41.218C294.968 41.3953 294.711 41.6473 294.506 41.974C294.31 42.2913 294.179 42.66 294.114 43.08ZM302.274 47L300.398 40.168H301.392L302.82 45.628L304.458 40.168H305.368L307.006 45.628L308.42 40.168H309.386L307.524 47H306.53L304.906 41.484L303.282 47H302.274ZM317.165 47.112C316.53 47.112 315.956 46.958 315.443 46.65C314.939 46.3327 314.537 45.908 314.239 45.376C313.94 44.8347 313.791 44.2373 313.791 43.584C313.791 42.9213 313.94 42.324 314.239 41.792C314.537 41.26 314.939 40.84 315.443 40.532C315.956 40.2147 316.53 40.056 317.165 40.056C317.669 40.056 318.149 40.1493 318.607 40.336C319.064 40.5227 319.461 40.784 319.797 41.12L319.139 41.834C318.896 41.5633 318.602 41.3533 318.257 41.204C317.911 41.0547 317.561 40.98 317.207 40.98C316.759 40.98 316.353 41.0967 315.989 41.33C315.634 41.5633 315.349 41.876 315.135 42.268C314.92 42.66 314.813 43.0987 314.813 43.584C314.813 44.0693 314.92 44.508 315.135 44.9C315.349 45.292 315.634 45.6047 315.989 45.838C316.353 46.0713 316.759 46.188 317.207 46.188C317.561 46.188 317.911 46.1133 318.257 45.964C318.602 45.8053 318.896 45.5953 319.139 45.334L319.797 46.048C319.461 46.384 319.064 46.6453 318.607 46.832C318.149 47.0187 317.669 47.112 317.165 47.112ZM321.222 47V36.892L322.244 36.682V41.274C322.505 40.8633 322.818 40.56 323.182 40.364C323.546 40.1587 323.957 40.056 324.414 40.056C324.909 40.056 325.338 40.1633 325.702 40.378C326.075 40.5833 326.365 40.8773 326.57 41.26C326.785 41.6333 326.892 42.072 326.892 42.576V47H325.87V42.87C325.87 42.2633 325.702 41.7873 325.366 41.442C325.039 41.0873 324.596 40.91 324.036 40.91C323.663 40.91 323.322 40.9987 323.014 41.176C322.706 41.3533 322.449 41.6147 322.244 41.96V47H321.222ZM331.06 47.126C330.575 47.126 330.146 47.0373 329.772 46.86C329.399 46.6827 329.105 46.44 328.89 46.132C328.685 45.8147 328.582 45.4507 328.582 45.04C328.582 44.6293 328.69 44.2747 328.904 43.976C329.119 43.668 329.418 43.43 329.8 43.262C330.183 43.094 330.631 43.01 331.144 43.01C331.536 43.01 331.905 43.052 332.25 43.136C332.605 43.22 332.932 43.3553 333.23 43.542V42.604C333.23 42.044 333.081 41.624 332.782 41.344C332.484 41.0547 332.045 40.91 331.466 40.91C331.149 40.91 330.822 40.9567 330.486 41.05C330.16 41.1433 329.796 41.2927 329.394 41.498L329.016 40.714C329.931 40.2753 330.79 40.056 331.592 40.056C332.442 40.056 333.095 40.266 333.552 40.686C334.01 41.0967 334.238 41.6893 334.238 42.464V47H333.23V46.202C332.932 46.51 332.6 46.7433 332.236 46.902C331.872 47.0513 331.48 47.126 331.06 47.126ZM329.562 45.012C329.562 45.4133 329.716 45.7353 330.024 45.978C330.342 46.2207 330.757 46.342 331.27 46.342C331.653 46.342 332.003 46.2767 332.32 46.146C332.647 46.0153 332.95 45.8193 333.23 45.558V44.242C332.941 44.074 332.642 43.9527 332.334 43.878C332.026 43.794 331.681 43.752 331.298 43.752C330.776 43.752 330.356 43.8687 330.038 44.102C329.721 44.326 329.562 44.6293 329.562 45.012ZM338.715 47.14C338.127 47.14 337.679 47 337.371 46.72C337.072 46.4307 336.923 46.0153 336.923 45.474V41.008H335.509V40.168H336.923V38.292L337.945 38.054V40.168H339.905V41.008H337.945V45.208C337.945 45.572 338.019 45.8333 338.169 45.992C338.327 46.1507 338.584 46.23 338.939 46.23C339.116 46.23 339.275 46.216 339.415 46.188C339.555 46.16 339.718 46.1133 339.905 46.048V46.958C339.718 47.0233 339.522 47.07 339.317 47.098C339.111 47.126 338.911 47.14 338.715 47.14Z" fill="white"/>
<path d="M44 85.5H359C362.038 85.5 364.5 87.9624 364.5 91V116C364.5 119.038 362.038 121.5 359 121.5H44C40.9624 121.5 38.5 119.038 38.5 116V91C38.5 87.9624 40.9624 85.5 44 85.5Z" fill="white"/>
<path d="M44 85.5H359C362.038 85.5 364.5 87.9624 364.5 91V116C364.5 119.038 362.038 121.5 359 121.5H44C40.9624 121.5 38.5 119.038 38.5 116V91C38.5 87.9624 40.9624 85.5 44 85.5Z" stroke="#C7C7C7"/>
<path d="M55.6875 97C58.8293 97 61.375 99.5457 61.375 102.688C61.375 104.008 60.9265 105.222 60.1719 106.188H60.6172C60.7921 106.188 60.959 106.256 61.082 106.379L63.8086 109.105C64.0627 109.363 64.0626 109.778 63.8057 110.035L63.0322 110.809C62.778 111.066 62.3625 111.065 62.1055 110.809L59.3789 108.082C59.256 107.959 59.1875 107.792 59.1875 107.617V107.172C58.2223 107.927 57.0082 108.375 55.6875 108.375C52.5457 108.375 50 105.829 50 102.688C50 99.5457 52.5457 97 55.6875 97ZM55.6875 99.1875C53.7516 99.1875 52.1875 100.754 52.1875 102.688C52.1875 104.623 53.7543 106.188 55.6875 106.188C57.6234 106.187 59.1875 104.621 59.1875 102.688C59.1875 100.752 57.6207 99.1875 55.6875 99.1875Z" fill="#1F1F1F"/>
<path d="M76.246 108V98.2H82.938V99.152H77.324V102.652H81.16V103.59H77.324V108H76.246ZM84.3758 108V101.168H85.3978V108H84.3758ZM84.8938 99.474C84.6885 99.474 84.5112 99.404 84.3618 99.264C84.2218 99.1147 84.1518 98.942 84.1518 98.746C84.1518 98.55 84.2218 98.382 84.3618 98.242C84.5112 98.0927 84.6885 98.018 84.8938 98.018C85.0992 98.018 85.2718 98.0927 85.4118 98.242C85.5612 98.382 85.6358 98.55 85.6358 98.746C85.6358 98.942 85.5612 99.1147 85.4118 99.264C85.2718 99.404 85.0992 99.474 84.8938 99.474ZM87.4934 108V101.168H88.5154V102.274C88.7767 101.863 89.0894 101.56 89.4534 101.364C89.8174 101.159 90.228 101.056 90.6854 101.056C91.18 101.056 91.6094 101.163 91.9734 101.378C92.3467 101.583 92.636 101.877 92.8414 102.26C93.056 102.633 93.1634 103.072 93.1634 103.576V108H92.1414V103.87C92.1414 103.263 91.9734 102.787 91.6374 102.442C91.3107 102.087 90.8674 101.91 90.3074 101.91C89.934 101.91 89.5934 101.999 89.2854 102.176C88.9774 102.353 88.7207 102.615 88.5154 102.96V108H87.4934ZM98.06 108.098C97.472 108.098 96.94 107.944 96.464 107.636C95.988 107.319 95.61 106.899 95.33 106.376C95.05 105.844 94.91 105.251 94.91 104.598C94.91 103.935 95.05 103.343 95.33 102.82C95.6193 102.288 96.0066 101.868 96.492 101.56C96.9773 101.243 97.5186 101.084 98.116 101.084C98.536 101.084 98.928 101.168 99.292 101.336C99.656 101.495 99.9733 101.728 100.244 102.036V97.892L101.266 97.682V108H100.244V107.09C99.9826 107.417 99.6653 107.669 99.292 107.846C98.9186 108.014 98.508 108.098 98.06 108.098ZM98.312 107.202C98.7133 107.202 99.082 107.123 99.418 106.964C99.754 106.805 100.029 106.581 100.244 106.292V102.904C100.02 102.615 99.7353 102.391 99.39 102.232C99.054 102.064 98.6946 101.98 98.312 101.98C97.8546 101.98 97.444 102.092 97.08 102.316C96.7253 102.54 96.4406 102.848 96.226 103.24C96.0206 103.632 95.918 104.08 95.918 104.584C95.918 105.079 96.0206 105.527 96.226 105.928C96.4406 106.32 96.7253 106.633 97.08 106.866C97.444 107.09 97.8546 107.202 98.312 107.202ZM106.634 108V97.99L107.656 97.78V102.106C107.917 101.779 108.235 101.527 108.608 101.35C108.981 101.173 109.397 101.084 109.854 101.084C110.451 101.084 110.983 101.243 111.45 101.56C111.926 101.868 112.304 102.288 112.584 102.82C112.864 103.343 113.004 103.931 113.004 104.584C113.004 105.237 112.859 105.83 112.57 106.362C112.29 106.894 111.907 107.319 111.422 107.636C110.946 107.944 110.405 108.098 109.798 108.098C109.369 108.098 108.967 108.014 108.594 107.846C108.23 107.669 107.913 107.421 107.642 107.104V108H106.634ZM109.602 107.216C110.059 107.216 110.465 107.104 110.82 106.88C111.184 106.647 111.469 106.334 111.674 105.942C111.889 105.541 111.996 105.093 111.996 104.598C111.996 104.094 111.889 103.646 111.674 103.254C111.469 102.862 111.184 102.554 110.82 102.33C110.465 102.097 110.059 101.98 109.602 101.98C109.201 101.98 108.827 102.064 108.482 102.232C108.146 102.391 107.871 102.619 107.656 102.918V106.264C107.88 106.563 108.16 106.796 108.496 106.964C108.841 107.132 109.21 107.216 109.602 107.216ZM114.885 111.066C114.67 111.066 114.451 111.033 114.227 110.968V110.058C114.32 110.077 114.418 110.091 114.521 110.1C114.624 110.109 114.712 110.114 114.787 110.114C115.048 110.114 115.263 110.044 115.431 109.904C115.608 109.764 115.758 109.545 115.879 109.246L116.383 108L113.751 101.168H114.885L116.957 106.782L119.155 101.168H120.289L116.845 109.554C116.696 109.918 116.532 110.212 116.355 110.436C116.178 110.66 115.972 110.819 115.739 110.912C115.506 111.015 115.221 111.066 114.885 111.066ZM124.831 108V101.168H125.853V102.274C126.115 101.863 126.427 101.56 126.791 101.364C127.155 101.159 127.566 101.056 128.023 101.056C128.518 101.056 128.947 101.163 129.311 101.378C129.685 101.583 129.974 101.877 130.179 102.26C130.394 102.633 130.501 103.072 130.501 103.576V108H129.479V103.87C129.479 103.263 129.311 102.787 128.975 102.442C128.649 102.087 128.205 101.91 127.645 101.91C127.272 101.91 126.931 101.999 126.623 102.176C126.315 102.353 126.059 102.615 125.853 102.96V108H124.831ZM134.67 108.126C134.185 108.126 133.755 108.037 133.382 107.86C133.009 107.683 132.715 107.44 132.5 107.132C132.295 106.815 132.192 106.451 132.192 106.04C132.192 105.629 132.299 105.275 132.514 104.976C132.729 104.668 133.027 104.43 133.41 104.262C133.793 104.094 134.241 104.01 134.754 104.01C135.146 104.01 135.515 104.052 135.86 104.136C136.215 104.22 136.541 104.355 136.84 104.542V103.604C136.84 103.044 136.691 102.624 136.392 102.344C136.093 102.055 135.655 101.91 135.076 101.91C134.759 101.91 134.432 101.957 134.096 102.05C133.769 102.143 133.405 102.293 133.004 102.498L132.626 101.714C133.541 101.275 134.399 101.056 135.202 101.056C136.051 101.056 136.705 101.266 137.162 101.686C137.619 102.097 137.848 102.689 137.848 103.464V108H136.84V107.202C136.541 107.51 136.21 107.743 135.846 107.902C135.482 108.051 135.09 108.126 134.67 108.126ZM133.172 106.012C133.172 106.413 133.326 106.735 133.634 106.978C133.951 107.221 134.367 107.342 134.88 107.342C135.263 107.342 135.613 107.277 135.93 107.146C136.257 107.015 136.56 106.819 136.84 106.558V105.242C136.551 105.074 136.252 104.953 135.944 104.878C135.636 104.794 135.291 104.752 134.908 104.752C134.385 104.752 133.965 104.869 133.648 105.102C133.331 105.326 133.172 105.629 133.172 106.012ZM139.925 108V101.168H140.947V102.232C141.208 101.84 141.507 101.546 141.843 101.35C142.179 101.154 142.557 101.056 142.977 101.056C143.462 101.056 143.887 101.177 144.251 101.42C144.615 101.653 144.89 101.975 145.077 102.386C145.348 101.947 145.67 101.616 146.043 101.392C146.426 101.168 146.864 101.056 147.359 101.056C147.816 101.056 148.218 101.163 148.563 101.378C148.918 101.593 149.193 101.891 149.389 102.274C149.585 102.647 149.683 103.086 149.683 103.59V108H148.661V103.842C148.661 103.245 148.512 102.773 148.213 102.428C147.914 102.083 147.504 101.91 146.981 101.91C146.626 101.91 146.304 101.999 146.015 102.176C145.735 102.353 145.488 102.624 145.273 102.988C145.292 103.081 145.306 103.179 145.315 103.282C145.324 103.385 145.329 103.487 145.329 103.59V108H144.307V103.842C144.307 103.245 144.153 102.773 143.845 102.428C143.546 102.083 143.136 101.91 142.613 101.91C141.913 101.91 141.358 102.246 140.947 102.918V108H139.925ZM154.831 108.14C154.197 108.14 153.623 107.986 153.109 107.678C152.596 107.361 152.19 106.936 151.891 106.404C151.593 105.863 151.443 105.256 151.443 104.584C151.443 103.912 151.583 103.31 151.863 102.778C152.153 102.246 152.54 101.826 153.025 101.518C153.511 101.21 154.052 101.056 154.649 101.056C155.256 101.056 155.793 101.21 156.259 101.518C156.735 101.817 157.109 102.227 157.379 102.75C157.659 103.263 157.799 103.847 157.799 104.5V104.808H152.437C152.475 105.275 152.601 105.695 152.815 106.068C153.039 106.432 153.329 106.721 153.683 106.936C154.047 107.141 154.444 107.244 154.873 107.244C155.228 107.244 155.569 107.183 155.895 107.062C156.231 106.931 156.516 106.759 156.749 106.544L157.393 107.23C157.001 107.538 156.595 107.767 156.175 107.916C155.755 108.065 155.307 108.14 154.831 108.14ZM152.465 104.08H156.791C156.745 103.669 156.619 103.305 156.413 102.988C156.217 102.661 155.965 102.405 155.657 102.218C155.359 102.031 155.023 101.938 154.649 101.938C154.276 101.938 153.935 102.031 153.627 102.218C153.319 102.395 153.063 102.647 152.857 102.974C152.661 103.291 152.531 103.66 152.465 104.08Z" fill="#4D4D4D"/>
<rect width="327" height="194" transform="translate(38 146)" fill="white"/>
<path d="M193.721 185C202.11 185 209.303 188.937 212.365 194.536C222.057 195.683 229.494 202.109 229.494 209.885C229.494 213.492 227.89 216.798 225.217 219.432C226.703 222.414 228.848 224.727 228.891 224.76C229.503 225.411 229.668 226.363 229.318 227.189C228.959 228.015 228.152 228.551 227.258 228.551C222.047 228.551 217.857 226.577 215.087 224.779C213.24 225.207 211.296 225.439 209.274 225.439C200.895 225.439 193.73 221.512 190.678 215.932C189.735 215.816 188.811 215.66 187.917 215.456C185.147 217.264 180.947 219.228 175.746 219.228C174.852 219.228 174.036 218.693 173.686 217.867C173.326 217.041 173.501 216.088 174.113 215.436C174.164 215.384 176.294 213.075 177.777 210.099C175.104 207.455 173.5 204.15 173.5 200.553C173.5 191.96 182.551 185 193.721 185ZM213.872 199.582C213.901 199.902 213.94 200.223 213.94 200.553C213.94 208.418 206.357 214.892 196.51 215.942C199.338 218.82 204.024 220.773 209.273 220.773C210.877 220.773 212.482 220.589 214.037 220.229L215.972 219.782L217.634 220.861C219.004 221.746 220.405 222.445 221.824 222.941C221.562 222.484 221.299 221.998 221.046 221.503L219.539 218.479L221.94 216.107C223.253 214.805 224.827 212.675 224.827 209.885C224.827 205.103 220.132 200.991 213.872 199.582ZM193.72 189.666C185.292 189.666 178.166 194.653 178.166 200.553C178.166 203.343 179.741 205.472 181.054 206.775L183.465 209.157L181.958 212.18C181.705 212.676 181.442 213.162 181.18 213.619C182.599 213.123 183.999 212.423 185.37 211.539L187.032 210.46L188.957 210.897C190.512 211.257 192.116 211.441 193.72 211.441C202.148 211.441 209.273 206.454 209.273 200.553C209.273 194.653 202.148 189.666 193.72 189.666Z" fill="#707070"/>
<path d="M134.701 270.2C133.581 270.2 132.501 269.98 131.461 269.54C130.421 269.1 129.501 268.48 128.701 267.68L129.981 266.2C130.741 266.947 131.514 267.5 132.301 267.86C133.101 268.22 133.934 268.4 134.801 268.4C135.481 268.4 136.074 268.307 136.581 268.12C137.101 267.92 137.501 267.64 137.781 267.28C138.061 266.92 138.201 266.513 138.201 266.06C138.201 265.433 137.981 264.953 137.541 264.62C137.101 264.287 136.374 264.033 135.361 263.86L133.021 263.48C131.741 263.253 130.781 262.84 130.141 262.24C129.514 261.64 129.201 260.84 129.201 259.84C129.201 259.04 129.414 258.34 129.841 257.74C130.268 257.127 130.868 256.653 131.641 256.32C132.428 255.987 133.334 255.82 134.361 255.82C135.374 255.82 136.368 255.987 137.341 256.32C138.328 256.64 139.214 257.107 140.001 257.72L138.841 259.32C137.334 258.173 135.808 257.6 134.261 257.6C133.354 257.6 132.621 257.793 132.061 258.18C131.501 258.553 131.221 259.053 131.221 259.68C131.221 260.253 131.414 260.693 131.801 261C132.188 261.293 132.828 261.507 133.721 261.64L135.981 262.02C137.461 262.26 138.548 262.693 139.241 263.32C139.934 263.947 140.281 264.807 140.281 265.9C140.281 266.753 140.048 267.507 139.581 268.16C139.114 268.8 138.461 269.3 137.621 269.66C136.781 270.02 135.808 270.2 134.701 270.2ZM146.054 270.18C145.067 270.18 144.314 269.953 143.794 269.5C143.274 269.033 143.014 268.36 143.014 267.48V261.5H140.854V259.82H143.014V257.22L144.994 256.74V259.82H147.994V261.5H144.994V267.02C144.994 267.54 145.107 267.913 145.334 268.14C145.574 268.353 145.96 268.46 146.494 268.46C146.774 268.46 147.02 268.44 147.234 268.4C147.46 268.36 147.7 268.3 147.954 268.22V269.9C147.687 269.993 147.374 270.06 147.014 270.1C146.667 270.153 146.347 270.18 146.054 270.18ZM152.687 270.18C151.954 270.18 151.307 270.053 150.747 269.8C150.187 269.533 149.747 269.167 149.427 268.7C149.107 268.233 148.947 267.693 148.947 267.08C148.947 266.12 149.314 265.367 150.047 264.82C150.78 264.26 151.787 263.98 153.067 263.98C154.067 263.98 154.994 264.173 155.847 264.56V263.48C155.847 262.027 155.02 261.3 153.367 261.3C152.9 261.3 152.414 261.373 151.907 261.52C151.4 261.653 150.834 261.867 150.207 262.16L149.467 260.66C150.24 260.3 150.96 260.04 151.627 259.88C152.294 259.707 152.967 259.62 153.647 259.62C154.967 259.62 155.987 259.933 156.707 260.56C157.44 261.187 157.807 262.08 157.807 263.24V270H155.847V269.12C155.394 269.48 154.907 269.747 154.387 269.92C153.867 270.093 153.3 270.18 152.687 270.18ZM150.867 267.04C150.867 267.533 151.074 267.933 151.487 268.24C151.914 268.547 152.467 268.7 153.147 268.7C154.24 268.7 155.14 268.373 155.847 267.72V266C155.114 265.573 154.24 265.36 153.227 265.36C152.494 265.36 151.914 265.513 151.487 265.82C151.074 266.113 150.867 266.52 150.867 267.04ZM160.112 270V259.82H162.112V261.12C162.432 260.64 162.825 260.267 163.292 260C163.772 259.72 164.312 259.58 164.912 259.58C165.325 259.593 165.665 259.653 165.932 259.76V261.56C165.545 261.413 165.152 261.34 164.752 261.34C164.165 261.34 163.645 261.5 163.192 261.82C162.738 262.127 162.378 262.58 162.112 263.18V270H160.112ZM171.894 270.18C170.907 270.18 170.154 269.953 169.634 269.5C169.114 269.033 168.854 268.36 168.854 267.48V261.5H166.694V259.82H168.854V257.22L170.834 256.74V259.82H173.834V261.5H170.834V267.02C170.834 267.54 170.947 267.913 171.174 268.14C171.414 268.353 171.8 268.46 172.334 268.46C172.614 268.46 172.86 268.44 173.074 268.4C173.3 268.36 173.54 268.3 173.794 268.22V269.9C173.527 269.993 173.214 270.06 172.854 270.1C172.507 270.153 172.187 270.18 171.894 270.18ZM182.707 270.18C181.973 270.18 181.327 270.053 180.767 269.8C180.207 269.533 179.767 269.167 179.447 268.7C179.127 268.233 178.967 267.693 178.967 267.08C178.967 266.12 179.333 265.367 180.067 264.82C180.8 264.26 181.807 263.98 183.087 263.98C184.087 263.98 185.013 264.173 185.867 264.56V263.48C185.867 262.027 185.04 261.3 183.387 261.3C182.92 261.3 182.433 261.373 181.927 261.52C181.42 261.653 180.853 261.867 180.227 262.16L179.487 260.66C180.26 260.3 180.98 260.04 181.647 259.88C182.313 259.707 182.987 259.62 183.667 259.62C184.987 259.62 186.007 259.933 186.727 260.56C187.46 261.187 187.827 262.08 187.827 263.24V270H185.867V269.12C185.413 269.48 184.927 269.747 184.407 269.92C183.887 270.093 183.32 270.18 182.707 270.18ZM180.887 267.04C180.887 267.533 181.093 267.933 181.507 268.24C181.933 268.547 182.487 268.7 183.167 268.7C184.26 268.7 185.16 268.373 185.867 267.72V266C185.133 265.573 184.26 265.36 183.247 265.36C182.513 265.36 181.933 265.513 181.507 265.82C181.093 266.113 180.887 266.52 180.887 267.04ZM194.311 270V259.82H196.311V260.86C197.098 260.033 198.118 259.62 199.371 259.62C200.158 259.62 200.844 259.787 201.431 260.12C202.031 260.453 202.498 260.92 202.831 261.52C203.178 262.12 203.351 262.813 203.351 263.6V270H201.351V263.94C201.351 263.14 201.124 262.513 200.671 262.06C200.218 261.593 199.598 261.36 198.811 261.36C198.278 261.36 197.798 261.473 197.371 261.7C196.944 261.927 196.591 262.253 196.311 262.68V270H194.311ZM210.539 270.18C209.539 270.18 208.632 269.947 207.819 269.48C207.019 269.013 206.379 268.38 205.899 267.58C205.432 266.78 205.199 265.887 205.199 264.9C205.199 263.927 205.425 263.047 205.879 262.26C206.332 261.46 206.945 260.827 207.719 260.36C208.492 259.88 209.352 259.64 210.299 259.64C211.245 259.64 212.085 259.88 212.819 260.36C213.552 260.827 214.132 261.467 214.559 262.28C214.999 263.08 215.219 263.987 215.219 265V265.56H207.199C207.305 266.12 207.512 266.62 207.819 267.06C208.139 267.5 208.539 267.847 209.019 268.1C209.512 268.353 210.045 268.48 210.619 268.48C211.112 268.48 211.585 268.407 212.039 268.26C212.505 268.1 212.892 267.873 213.199 267.58L214.479 268.84C213.879 269.293 213.259 269.633 212.619 269.86C211.992 270.073 211.299 270.18 210.539 270.18ZM207.219 264.06H213.239C213.159 263.527 212.972 263.06 212.679 262.66C212.399 262.247 212.045 261.927 211.619 261.7C211.205 261.46 210.752 261.34 210.259 261.34C209.485 261.34 208.819 261.593 208.259 262.1C207.712 262.593 207.365 263.247 207.219 264.06ZM218.828 270L215.988 259.82H217.928L219.908 267.3L222.228 259.82H223.948L226.268 267.3L228.248 259.82H230.128L227.268 270H225.348L223.068 262.54L220.768 270H218.828ZM240.517 270.18C239.543 270.18 238.657 269.947 237.857 269.48C237.07 269.013 236.443 268.38 235.977 267.58C235.51 266.78 235.277 265.887 235.277 264.9C235.277 263.913 235.51 263.027 235.977 262.24C236.443 261.44 237.07 260.807 237.857 260.34C238.657 259.86 239.543 259.62 240.517 259.62C241.29 259.62 242.03 259.767 242.737 260.06C243.457 260.353 244.077 260.767 244.597 261.3L243.357 262.68C242.97 262.253 242.537 261.933 242.057 261.72C241.577 261.507 241.077 261.4 240.557 261.4C239.943 261.4 239.383 261.553 238.877 261.86C238.383 262.167 237.99 262.587 237.697 263.12C237.403 263.653 237.257 264.247 237.257 264.9C237.257 265.553 237.403 266.153 237.697 266.7C237.99 267.233 238.39 267.653 238.897 267.96C239.403 268.267 239.97 268.42 240.597 268.42C241.623 268.42 242.537 268.013 243.337 267.2L244.557 268.48C244.023 269.027 243.403 269.447 242.697 269.74C242.003 270.033 241.277 270.18 240.517 270.18ZM246.166 270V256L248.166 255.56V260.86C248.953 260.033 249.973 259.62 251.226 259.62C252.013 259.62 252.7 259.787 253.286 260.12C253.886 260.453 254.353 260.92 254.686 261.52C255.033 262.12 255.206 262.813 255.206 263.6V270H253.206V263.94C253.206 263.14 252.98 262.513 252.526 262.06C252.073 261.593 251.453 261.36 250.666 261.36C250.133 261.36 249.653 261.473 249.226 261.7C248.8 261.927 248.446 262.253 248.166 262.68V270H246.166ZM260.734 270.18C260.001 270.18 259.354 270.053 258.794 269.8C258.234 269.533 257.794 269.167 257.474 268.7C257.154 268.233 256.994 267.693 256.994 267.08C256.994 266.12 257.361 265.367 258.094 264.82C258.827 264.26 259.834 263.98 261.114 263.98C262.114 263.98 263.041 264.173 263.894 264.56V263.48C263.894 262.027 263.067 261.3 261.414 261.3C260.947 261.3 260.461 261.373 259.954 261.52C259.447 261.653 258.881 261.867 258.254 262.16L257.514 260.66C258.287 260.3 259.007 260.04 259.674 259.88C260.341 259.707 261.014 259.62 261.694 259.62C263.014 259.62 264.034 259.933 264.754 260.56C265.487 261.187 265.854 262.08 265.854 263.24V270H263.894V269.12C263.441 269.48 262.954 269.747 262.434 269.92C261.914 270.093 261.347 270.18 260.734 270.18ZM258.914 267.04C258.914 267.533 259.121 267.933 259.534 268.24C259.961 268.547 260.514 268.7 261.194 268.7C262.287 268.7 263.187 268.373 263.894 267.72V266C263.161 265.573 262.287 265.36 261.274 265.36C260.541 265.36 259.961 265.513 259.534 265.82C259.121 266.113 258.914 266.52 258.914 267.04ZM272.226 270.18C271.239 270.18 270.486 269.953 269.966 269.5C269.446 269.033 269.186 268.36 269.186 267.48V261.5H267.026V259.82H269.186V257.22L271.166 256.74V259.82H274.166V261.5H271.166V267.02C271.166 267.54 271.279 267.913 271.506 268.14C271.746 268.353 272.132 268.46 272.666 268.46C272.946 268.46 273.192 268.44 273.406 268.4C273.632 268.36 273.872 268.3 274.126 268.22V269.9C273.859 269.993 273.546 270.06 273.186 270.1C272.839 270.153 272.519 270.18 272.226 270.18Z" fill="#151515"/>
<path d="M68.769 310L73.201 298.8H74.673L79.041 310H77.713L76.385 306.48H71.393L70.065 310H68.769ZM71.777 305.504H76.017L73.889 299.92L71.777 305.504ZM83.579 310.128C82.8537 310.128 82.1977 309.952 81.611 309.6C81.035 309.237 80.5763 308.752 80.235 308.144C79.8937 307.525 79.723 306.843 79.723 306.096C79.723 305.339 79.8937 304.656 80.235 304.048C80.5763 303.44 81.035 302.96 81.611 302.608C82.1977 302.245 82.8537 302.064 83.579 302.064C84.155 302.064 84.7043 302.171 85.227 302.384C85.7497 302.597 86.203 302.896 86.587 303.28L85.835 304.096C85.5577 303.787 85.2217 303.547 84.827 303.376C84.4323 303.205 84.0323 303.12 83.627 303.12C83.115 303.12 82.651 303.253 82.235 303.52C81.8297 303.787 81.5043 304.144 81.259 304.592C81.0137 305.04 80.891 305.541 80.891 306.096C80.891 306.651 81.0137 307.152 81.259 307.6C81.5043 308.048 81.8297 308.405 82.235 308.672C82.651 308.939 83.115 309.072 83.627 309.072C84.0323 309.072 84.4323 308.987 84.827 308.816C85.2217 308.635 85.5577 308.395 85.835 308.096L86.587 308.912C86.203 309.296 85.7497 309.595 85.227 309.808C84.7043 310.021 84.155 310.128 83.579 310.128ZM91.4852 310.128C90.7599 310.128 90.1039 309.952 89.5173 309.6C88.9413 309.237 88.4826 308.752 88.1413 308.144C87.7999 307.525 87.6293 306.843 87.6293 306.096C87.6293 305.339 87.7999 304.656 88.1413 304.048C88.4826 303.44 88.9413 302.96 89.5173 302.608C90.1039 302.245 90.7599 302.064 91.4852 302.064C92.0613 302.064 92.6106 302.171 93.1333 302.384C93.6559 302.597 94.1093 302.896 94.4933 303.28L93.7413 304.096C93.4639 303.787 93.1279 303.547 92.7333 303.376C92.3386 303.205 91.9386 303.12 91.5333 303.12C91.0213 303.12 90.5573 303.253 90.1413 303.52C89.7359 303.787 89.4106 304.144 89.1653 304.592C88.9199 305.04 88.7973 305.541 88.7973 306.096C88.7973 306.651 88.9199 307.152 89.1653 307.6C89.4106 308.048 89.7359 308.405 90.1413 308.672C90.5573 308.939 91.0213 309.072 91.5333 309.072C91.9386 309.072 92.3386 308.987 92.7333 308.816C93.1279 308.635 93.4639 308.395 93.7413 308.096L94.4933 308.912C94.1093 309.296 93.6559 309.595 93.1333 309.808C92.6106 310.021 92.0613 310.128 91.4852 310.128ZM99.4075 310.16C98.6822 310.16 98.0262 309.984 97.4395 309.632C96.8528 309.269 96.3888 308.784 96.0475 308.176C95.7062 307.557 95.5355 306.864 95.5355 306.096C95.5355 305.328 95.6955 304.64 96.0155 304.032C96.3462 303.424 96.7888 302.944 97.3435 302.592C97.8982 302.24 98.5168 302.064 99.1995 302.064C99.8928 302.064 100.506 302.24 101.04 302.592C101.584 302.933 102.01 303.403 102.32 304C102.64 304.587 102.8 305.253 102.8 306V306.352H96.6715C96.7142 306.885 96.8582 307.365 97.1035 307.792C97.3595 308.208 97.6902 308.539 98.0955 308.784C98.5115 309.019 98.9648 309.136 99.4555 309.136C99.8608 309.136 100.25 309.067 100.624 308.928C101.008 308.779 101.333 308.581 101.6 308.336L102.336 309.12C101.888 309.472 101.424 309.733 100.944 309.904C100.464 310.075 99.9515 310.16 99.4075 310.16ZM96.7035 305.52H101.648C101.594 305.051 101.45 304.635 101.216 304.272C100.992 303.899 100.704 303.605 100.352 303.392C100.01 303.179 99.6262 303.072 99.1995 303.072C98.7728 303.072 98.3835 303.179 98.0315 303.392C97.6795 303.595 97.3862 303.883 97.1515 304.256C96.9275 304.619 96.7782 305.04 96.7035 305.52ZM107.288 310.16C106.648 310.16 106.056 310.064 105.512 309.872C104.968 309.669 104.504 309.381 104.12 309.008L104.744 308.24C105.213 308.581 105.645 308.832 106.04 308.992C106.435 309.141 106.84 309.216 107.256 309.216C107.821 309.216 108.291 309.083 108.664 308.816C109.037 308.549 109.224 308.208 109.224 307.792C109.224 307.472 109.112 307.221 108.888 307.04C108.675 306.859 108.317 306.72 107.816 306.624L106.536 306.4C105.779 306.261 105.219 306.027 104.856 305.696C104.504 305.365 104.328 304.917 104.328 304.352C104.328 303.904 104.445 303.509 104.68 303.168C104.925 302.827 105.261 302.56 105.688 302.368C106.115 302.165 106.6 302.064 107.144 302.064C107.677 302.064 108.184 302.144 108.664 302.304C109.144 302.453 109.629 302.699 110.12 303.04L109.544 303.856C109.139 303.568 108.733 303.36 108.328 303.232C107.923 303.093 107.512 303.024 107.096 303.024C106.584 303.024 106.173 303.136 105.864 303.36C105.555 303.584 105.4 303.888 105.4 304.272C105.4 304.592 105.496 304.837 105.688 305.008C105.891 305.179 106.243 305.307 106.744 305.392L108.056 305.632C108.845 305.771 109.421 306.011 109.784 306.352C110.147 306.693 110.328 307.152 110.328 307.728C110.328 308.187 110.195 308.603 109.928 308.976C109.661 309.339 109.299 309.627 108.84 309.84C108.381 310.053 107.864 310.16 107.288 310.16ZM114.522 310.16C113.882 310.16 113.29 310.064 112.746 309.872C112.202 309.669 111.738 309.381 111.354 309.008L111.978 308.24C112.448 308.581 112.88 308.832 113.274 308.992C113.669 309.141 114.074 309.216 114.49 309.216C115.056 309.216 115.525 309.083 115.898 308.816C116.272 308.549 116.458 308.208 116.458 307.792C116.458 307.472 116.346 307.221 116.122 307.04C115.909 306.859 115.552 306.72 115.05 306.624L113.77 306.4C113.013 306.261 112.453 306.027 112.09 305.696C111.738 305.365 111.562 304.917 111.562 304.352C111.562 303.904 111.68 303.509 111.914 303.168C112.16 302.827 112.496 302.56 112.922 302.368C113.349 302.165 113.834 302.064 114.378 302.064C114.912 302.064 115.418 302.144 115.898 302.304C116.378 302.453 116.864 302.699 117.354 303.04L116.778 303.856C116.373 303.568 115.968 303.36 115.562 303.232C115.157 303.093 114.746 303.024 114.33 303.024C113.818 303.024 113.408 303.136 113.098 303.36C112.789 303.584 112.634 303.888 112.634 304.272C112.634 304.592 112.73 304.837 112.922 305.008C113.125 305.179 113.477 305.307 113.978 305.392L115.29 305.632C116.08 305.771 116.656 306.011 117.018 306.352C117.381 306.693 117.562 307.152 117.562 307.728C117.562 308.187 117.429 308.603 117.162 308.976C116.896 309.339 116.533 309.627 116.074 309.84C115.616 310.053 115.098 310.16 114.522 310.16ZM126.051 310.16C125.379 310.16 124.867 310 124.515 309.68C124.174 309.349 124.003 308.875 124.003 308.256V303.152H122.387V302.192H124.003V300.048L125.171 299.776V302.192H127.411V303.152H125.171V307.952C125.171 308.368 125.256 308.667 125.427 308.848C125.608 309.029 125.902 309.12 126.307 309.12C126.51 309.12 126.691 309.104 126.851 309.072C127.011 309.04 127.198 308.987 127.411 308.912V309.952C127.198 310.027 126.974 310.08 126.739 310.112C126.504 310.144 126.275 310.16 126.051 310.16ZM129.106 310V302.192H130.274V310H129.106ZM129.698 300.256C129.463 300.256 129.261 300.176 129.09 300.016C128.93 299.845 128.85 299.648 128.85 299.424C128.85 299.2 128.93 299.008 129.09 298.848C129.261 298.677 129.463 298.592 129.698 298.592C129.933 298.592 130.13 298.677 130.29 298.848C130.461 299.008 130.546 299.2 130.546 299.424C130.546 299.648 130.461 299.845 130.29 300.016C130.13 300.176 129.933 300.256 129.698 300.256ZM132.669 310V302.192H133.837V303.408C134.135 302.96 134.477 302.624 134.861 302.4C135.245 302.176 135.677 302.064 136.157 302.064C136.711 302.064 137.197 302.203 137.613 302.48C138.029 302.747 138.343 303.115 138.557 303.584C138.866 303.083 139.234 302.704 139.661 302.448C140.098 302.192 140.599 302.064 141.165 302.064C141.687 302.064 142.146 302.187 142.541 302.432C142.946 302.677 143.261 303.019 143.485 303.456C143.709 303.883 143.821 304.384 143.821 304.96V310H142.653V305.248C142.653 304.565 142.482 304.027 142.141 303.632C141.799 303.237 141.33 303.04 140.733 303.04C140.327 303.04 139.959 303.141 139.629 303.344C139.309 303.547 139.026 303.856 138.781 304.272C138.802 304.379 138.818 304.491 138.829 304.608C138.839 304.725 138.845 304.843 138.845 304.96V310H137.677V305.248C137.677 304.565 137.501 304.027 137.149 303.632C136.807 303.237 136.338 303.04 135.741 303.04C134.941 303.04 134.306 303.424 133.837 304.192V310H132.669ZM149.704 310.16C148.979 310.16 148.323 309.984 147.736 309.632C147.15 309.269 146.686 308.784 146.344 308.176C146.003 307.557 145.832 306.864 145.832 306.096C145.832 305.328 145.992 304.64 146.312 304.032C146.643 303.424 147.086 302.944 147.64 302.592C148.195 302.24 148.814 302.064 149.496 302.064C150.19 302.064 150.803 302.24 151.336 302.592C151.88 302.933 152.307 303.403 152.616 304C152.936 304.587 153.096 305.253 153.096 306V306.352H146.968C147.011 306.885 147.155 307.365 147.4 307.792C147.656 308.208 147.987 308.539 148.392 308.784C148.808 309.019 149.262 309.136 149.752 309.136C150.158 309.136 150.547 309.067 150.92 308.928C151.304 308.779 151.63 308.581 151.896 308.336L152.632 309.12C152.184 309.472 151.72 309.733 151.24 309.904C150.76 310.075 150.248 310.16 149.704 310.16ZM147 305.52H151.944C151.891 305.051 151.747 304.635 151.512 304.272C151.288 303.899 151 303.605 150.648 303.392C150.307 303.179 149.923 303.072 149.496 303.072C149.07 303.072 148.68 303.179 148.328 303.392C147.976 303.595 147.683 303.883 147.448 304.256C147.224 304.619 147.075 305.04 147 305.52ZM155.091 310V298.448L156.259 298.208V310H155.091ZM158.989 313.504C158.744 313.504 158.493 313.467 158.237 313.392V312.352C158.344 312.373 158.456 312.389 158.573 312.4C158.69 312.411 158.792 312.416 158.877 312.416C159.176 312.416 159.421 312.336 159.613 312.176C159.816 312.016 159.986 311.765 160.125 311.424L160.701 310L157.693 302.192H158.989L161.357 308.608L163.869 302.192H165.165L161.229 311.776C161.058 312.192 160.872 312.528 160.669 312.784C160.466 313.04 160.232 313.221 159.965 313.328C159.698 313.445 159.373 313.504 158.989 313.504ZM172.772 310.144C172.218 310.144 171.727 310.043 171.3 309.84C170.874 309.637 170.538 309.36 170.292 309.008C170.058 308.645 169.94 308.229 169.94 307.76C169.94 307.291 170.063 306.885 170.308 306.544C170.554 306.192 170.895 305.92 171.332 305.728C171.77 305.536 172.282 305.44 172.868 305.44C173.316 305.44 173.738 305.488 174.132 305.584C174.538 305.68 174.911 305.835 175.252 306.048V304.976C175.252 304.336 175.082 303.856 174.74 303.536C174.399 303.205 173.898 303.04 173.236 303.04C172.874 303.04 172.5 303.093 172.116 303.2C171.743 303.307 171.327 303.477 170.868 303.712L170.436 302.816C171.482 302.315 172.463 302.064 173.38 302.064C174.351 302.064 175.098 302.304 175.62 302.784C176.143 303.253 176.404 303.931 176.404 304.816V310H175.252V309.088C174.911 309.44 174.532 309.707 174.116 309.888C173.7 310.059 173.252 310.144 172.772 310.144ZM171.06 307.728C171.06 308.187 171.236 308.555 171.588 308.832C171.951 309.109 172.426 309.248 173.012 309.248C173.45 309.248 173.85 309.173 174.212 309.024C174.586 308.875 174.932 308.651 175.252 308.352V306.848C174.922 306.656 174.58 306.517 174.228 306.432C173.876 306.336 173.482 306.288 173.044 306.288C172.447 306.288 171.967 306.421 171.604 306.688C171.242 306.944 171.06 307.291 171.06 307.728ZM181.194 310.16C180.554 310.16 179.962 310.064 179.418 309.872C178.874 309.669 178.41 309.381 178.026 309.008L178.65 308.24C179.119 308.581 179.551 308.832 179.946 308.992C180.341 309.141 180.746 309.216 181.162 309.216C181.727 309.216 182.197 309.083 182.57 308.816C182.943 308.549 183.13 308.208 183.13 307.792C183.13 307.472 183.018 307.221 182.794 307.04C182.581 306.859 182.223 306.72 181.722 306.624L180.442 306.4C179.685 306.261 179.125 306.027 178.762 305.696C178.41 305.365 178.234 304.917 178.234 304.352C178.234 303.904 178.351 303.509 178.586 303.168C178.831 302.827 179.167 302.56 179.594 302.368C180.021 302.165 180.506 302.064 181.05 302.064C181.583 302.064 182.09 302.144 182.57 302.304C183.05 302.453 183.535 302.699 184.026 303.04L183.45 303.856C183.045 303.568 182.639 303.36 182.234 303.232C181.829 303.093 181.418 303.024 181.002 303.024C180.49 303.024 180.079 303.136 179.77 303.36C179.461 303.584 179.306 303.888 179.306 304.272C179.306 304.592 179.402 304.837 179.594 305.008C179.797 305.179 180.149 305.307 180.65 305.392L181.962 305.632C182.751 305.771 183.327 306.011 183.69 306.352C184.053 306.693 184.234 307.152 184.234 307.728C184.234 308.187 184.101 308.603 183.834 308.976C183.567 309.339 183.205 309.627 182.746 309.84C182.287 310.053 181.77 310.16 181.194 310.16ZM188.429 310.16C187.789 310.16 187.197 310.064 186.653 309.872C186.109 309.669 185.645 309.381 185.261 309.008L185.885 308.24C186.354 308.581 186.786 308.832 187.181 308.992C187.575 309.141 187.981 309.216 188.397 309.216C188.962 309.216 189.431 309.083 189.805 308.816C190.178 308.549 190.365 308.208 190.365 307.792C190.365 307.472 190.253 307.221 190.029 307.04C189.815 306.859 189.458 306.72 188.957 306.624L187.677 306.4C186.919 306.261 186.359 306.027 185.997 305.696C185.645 305.365 185.469 304.917 185.469 304.352C185.469 303.904 185.586 303.509 185.821 303.168C186.066 302.827 186.402 302.56 186.829 302.368C187.255 302.165 187.741 302.064 188.285 302.064C188.818 302.064 189.325 302.144 189.805 302.304C190.285 302.453 190.77 302.699 191.261 303.04L190.685 303.856C190.279 303.568 189.874 303.36 189.469 303.232C189.063 303.093 188.653 303.024 188.237 303.024C187.725 303.024 187.314 303.136 187.005 303.36C186.695 303.584 186.541 303.888 186.541 304.272C186.541 304.592 186.637 304.837 186.829 305.008C187.031 305.179 187.383 305.307 187.885 305.392L189.197 305.632C189.986 305.771 190.562 306.011 190.925 306.352C191.287 306.693 191.469 307.152 191.469 307.728C191.469 308.187 191.335 308.603 191.069 308.976C190.802 309.339 190.439 309.627 189.981 309.84C189.522 310.053 189.005 310.16 188.429 310.16ZM193.231 310V302.192H194.399V310H193.231ZM193.823 300.256C193.588 300.256 193.386 300.176 193.215 300.016C193.055 299.845 192.975 299.648 192.975 299.424C192.975 299.2 193.055 299.008 193.215 298.848C193.386 298.677 193.588 298.592 193.823 298.592C194.058 298.592 194.255 298.677 194.415 298.848C194.586 299.008 194.671 299.2 194.671 299.424C194.671 299.648 194.586 299.845 194.415 300.016C194.255 300.176 194.058 300.256 193.823 300.256ZM199.21 310.16C198.57 310.16 197.978 310.064 197.434 309.872C196.89 309.669 196.426 309.381 196.042 309.008L196.666 308.24C197.135 308.581 197.567 308.832 197.962 308.992C198.356 309.141 198.762 309.216 199.178 309.216C199.743 309.216 200.212 309.083 200.586 308.816C200.959 308.549 201.146 308.208 201.146 307.792C201.146 307.472 201.034 307.221 200.81 307.04C200.596 306.859 200.239 306.72 199.738 306.624L198.458 306.4C197.7 306.261 197.14 306.027 196.778 305.696C196.426 305.365 196.25 304.917 196.25 304.352C196.25 303.904 196.367 303.509 196.602 303.168C196.847 302.827 197.183 302.56 197.61 302.368C198.036 302.165 198.522 302.064 199.066 302.064C199.599 302.064 200.106 302.144 200.586 302.304C201.066 302.453 201.551 302.699 202.042 303.04L201.466 303.856C201.06 303.568 200.655 303.36 200.25 303.232C199.844 303.093 199.434 303.024 199.018 303.024C198.506 303.024 198.095 303.136 197.786 303.36C197.476 303.584 197.322 303.888 197.322 304.272C197.322 304.592 197.418 304.837 197.61 305.008C197.812 305.179 198.164 305.307 198.666 305.392L199.978 305.632C200.767 305.771 201.343 306.011 201.706 306.352C202.068 306.693 202.25 307.152 202.25 307.728C202.25 308.187 202.116 308.603 201.85 308.976C201.583 309.339 201.22 309.627 200.762 309.84C200.303 310.053 199.786 310.16 199.21 310.16ZM206.848 310.16C206.176 310.16 205.664 310 205.312 309.68C204.971 309.349 204.8 308.875 204.8 308.256V303.152H203.184V302.192H204.8V300.048L205.968 299.776V302.192H208.208V303.152H205.968V307.952C205.968 308.368 206.053 308.667 206.224 308.848C206.405 309.029 206.699 309.12 207.104 309.12C207.307 309.12 207.488 309.104 207.648 309.072C207.808 309.04 207.995 308.987 208.208 308.912V309.952C207.995 310.027 207.771 310.08 207.536 310.112C207.301 310.144 207.072 310.16 206.848 310.16ZM212.335 310.144C211.78 310.144 211.289 310.043 210.863 309.84C210.436 309.637 210.1 309.36 209.855 309.008C209.62 308.645 209.503 308.229 209.503 307.76C209.503 307.291 209.625 306.885 209.871 306.544C210.116 306.192 210.457 305.92 210.895 305.728C211.332 305.536 211.844 305.44 212.431 305.44C212.879 305.44 213.3 305.488 213.695 305.584C214.1 305.68 214.473 305.835 214.815 306.048V304.976C214.815 304.336 214.644 303.856 214.303 303.536C213.961 303.205 213.46 303.04 212.799 303.04C212.436 303.04 212.063 303.093 211.679 303.2C211.305 303.307 210.889 303.477 210.431 303.712L209.999 302.816C211.044 302.315 212.025 302.064 212.943 302.064C213.913 302.064 214.66 302.304 215.183 302.784C215.705 303.253 215.967 303.931 215.967 304.816V310H214.815V309.088C214.473 309.44 214.095 309.707 213.679 309.888C213.263 310.059 212.815 310.144 212.335 310.144ZM210.623 307.728C210.623 308.187 210.799 308.555 211.151 308.832C211.513 309.109 211.988 309.248 212.575 309.248C213.012 309.248 213.412 309.173 213.775 309.024C214.148 308.875 214.495 308.651 214.815 308.352V306.848C214.484 306.656 214.143 306.517 213.791 306.432C213.439 306.336 213.044 306.288 212.607 306.288C212.009 306.288 211.529 306.421 211.167 306.688C210.804 306.944 210.623 307.291 210.623 307.728ZM218.341 310V302.192H219.509V303.456C219.807 302.987 220.165 302.64 220.581 302.416C220.997 302.181 221.466 302.064 221.989 302.064C222.554 302.064 223.045 302.187 223.461 302.432C223.887 302.667 224.218 303.003 224.453 303.44C224.698 303.867 224.821 304.368 224.821 304.944V310H223.653V305.28C223.653 304.587 223.461 304.043 223.077 303.648C222.703 303.243 222.197 303.04 221.557 303.04C221.13 303.04 220.741 303.141 220.389 303.344C220.037 303.547 219.743 303.845 219.509 304.24V310H218.341ZM230.673 310.128C229.947 310.128 229.291 309.952 228.705 309.6C228.129 309.237 227.67 308.752 227.329 308.144C226.987 307.525 226.817 306.843 226.817 306.096C226.817 305.339 226.987 304.656 227.329 304.048C227.67 303.44 228.129 302.96 228.705 302.608C229.291 302.245 229.947 302.064 230.673 302.064C231.249 302.064 231.798 302.171 232.321 302.384C232.843 302.597 233.297 302.896 233.681 303.28L232.929 304.096C232.651 303.787 232.315 303.547 231.921 303.376C231.526 303.205 231.126 303.12 230.721 303.12C230.209 303.12 229.745 303.253 229.329 303.52C228.923 303.787 228.598 304.144 228.353 304.592C228.107 305.04 227.985 305.541 227.985 306.096C227.985 306.651 228.107 307.152 228.353 307.6C228.598 308.048 228.923 308.405 229.329 308.672C229.745 308.939 230.209 309.072 230.721 309.072C231.126 309.072 231.526 308.987 231.921 308.816C232.315 308.635 232.651 308.395 232.929 308.096L233.681 308.912C233.297 309.296 232.843 309.595 232.321 309.808C231.798 310.021 231.249 310.128 230.673 310.128ZM238.595 310.16C237.87 310.16 237.214 309.984 236.627 309.632C236.04 309.269 235.576 308.784 235.235 308.176C234.894 307.557 234.723 306.864 234.723 306.096C234.723 305.328 234.883 304.64 235.203 304.032C235.534 303.424 235.976 302.944 236.531 302.592C237.086 302.24 237.704 302.064 238.387 302.064C239.08 302.064 239.694 302.24 240.227 302.592C240.771 302.933 241.198 303.403 241.507 304C241.827 304.587 241.987 305.253 241.987 306V306.352H235.859C235.902 306.885 236.046 307.365 236.291 307.792C236.547 308.208 236.878 308.539 237.283 308.784C237.699 309.019 238.152 309.136 238.643 309.136C239.048 309.136 239.438 309.067 239.811 308.928C240.195 308.779 240.52 308.581 240.787 308.336L241.523 309.12C241.075 309.472 240.611 309.733 240.131 309.904C239.651 310.075 239.139 310.16 238.595 310.16ZM235.891 305.52H240.835C240.782 305.051 240.638 304.635 240.403 304.272C240.179 303.899 239.891 303.605 239.539 303.392C239.198 303.179 238.814 303.072 238.387 303.072C237.96 303.072 237.571 303.179 237.219 303.392C236.867 303.595 236.574 303.883 236.339 304.256C236.115 304.619 235.966 305.04 235.891 305.52ZM247.716 310V298.56L248.884 298.32V303.264C249.182 302.891 249.545 302.603 249.972 302.4C250.398 302.197 250.873 302.096 251.396 302.096C252.078 302.096 252.686 302.277 253.22 302.64C253.764 302.992 254.196 303.472 254.516 304.08C254.836 304.677 254.996 305.349 254.996 306.096C254.996 306.843 254.83 307.52 254.5 308.128C254.18 308.736 253.742 309.221 253.188 309.584C252.644 309.936 252.025 310.112 251.332 310.112C250.841 310.112 250.382 310.016 249.956 309.824C249.54 309.621 249.177 309.339 248.868 308.976V310H247.716ZM251.108 309.104C251.63 309.104 252.094 308.976 252.5 308.72C252.916 308.453 253.241 308.096 253.476 307.648C253.721 307.189 253.844 306.677 253.844 306.112C253.844 305.536 253.721 305.024 253.476 304.576C253.241 304.128 252.916 303.776 252.5 303.52C252.094 303.253 251.63 303.12 251.108 303.12C250.649 303.12 250.222 303.216 249.828 303.408C249.444 303.589 249.129 303.851 248.884 304.192V308.016C249.14 308.357 249.46 308.624 249.844 308.816C250.238 309.008 250.66 309.104 251.108 309.104ZM257.145 313.504C256.9 313.504 256.649 313.467 256.393 313.392V312.352C256.5 312.373 256.612 312.389 256.729 312.4C256.847 312.411 256.948 312.416 257.033 312.416C257.332 312.416 257.577 312.336 257.769 312.176C257.972 312.016 258.143 311.765 258.281 311.424L258.857 310L255.849 302.192H257.145L259.513 308.608L262.025 302.192H263.321L259.385 311.776C259.215 312.192 259.028 312.528 258.825 312.784C258.623 313.04 258.388 313.221 258.121 313.328C257.855 313.445 257.529 313.504 257.145 313.504ZM270.929 310.16C270.289 310.16 269.697 310.064 269.153 309.872C268.609 309.669 268.145 309.381 267.761 309.008L268.385 308.24C268.854 308.581 269.286 308.832 269.681 308.992C270.075 309.141 270.481 309.216 270.897 309.216C271.462 309.216 271.931 309.083 272.305 308.816C272.678 308.549 272.865 308.208 272.865 307.792C272.865 307.472 272.753 307.221 272.529 307.04C272.315 306.859 271.958 306.72 271.457 306.624L270.177 306.4C269.419 306.261 268.859 306.027 268.497 305.696C268.145 305.365 267.969 304.917 267.969 304.352C267.969 303.904 268.086 303.509 268.321 303.168C268.566 302.827 268.902 302.56 269.329 302.368C269.755 302.165 270.241 302.064 270.785 302.064C271.318 302.064 271.825 302.144 272.305 302.304C272.785 302.453 273.27 302.699 273.761 303.04L273.185 303.856C272.779 303.568 272.374 303.36 271.969 303.232C271.563 303.093 271.153 303.024 270.737 303.024C270.225 303.024 269.814 303.136 269.505 303.36C269.195 303.584 269.041 303.888 269.041 304.272C269.041 304.592 269.137 304.837 269.329 305.008C269.531 305.179 269.883 305.307 270.385 305.392L271.697 305.632C272.486 305.771 273.062 306.011 273.425 306.352C273.787 306.693 273.969 307.152 273.969 307.728C273.969 308.187 273.835 308.603 273.569 308.976C273.302 309.339 272.939 309.627 272.481 309.84C272.022 310.053 271.505 310.16 270.929 310.16ZM278.567 310.16C277.895 310.16 277.383 310 277.031 309.68C276.689 309.349 276.519 308.875 276.519 308.256V303.152H274.903V302.192H276.519V300.048L277.687 299.776V302.192H279.927V303.152H277.687V307.952C277.687 308.368 277.772 308.667 277.943 308.848C278.124 309.029 278.417 309.12 278.823 309.12C279.025 309.12 279.207 309.104 279.367 309.072C279.527 309.04 279.713 308.987 279.927 308.912V309.952C279.713 310.027 279.489 310.08 279.255 310.112C279.02 310.144 278.791 310.16 278.567 310.16ZM284.054 310.144C283.499 310.144 283.008 310.043 282.582 309.84C282.155 309.637 281.819 309.36 281.574 309.008C281.339 308.645 281.222 308.229 281.222 307.76C281.222 307.291 281.344 306.885 281.59 306.544C281.835 306.192 282.176 305.92 282.614 305.728C283.051 305.536 283.563 305.44 284.15 305.44C284.598 305.44 285.019 305.488 285.414 305.584C285.819 305.68 286.192 305.835 286.534 306.048V304.976C286.534 304.336 286.363 303.856 286.022 303.536C285.68 303.205 285.179 303.04 284.518 303.04C284.155 303.04 283.782 303.093 283.398 303.2C283.024 303.307 282.608 303.477 282.15 303.712L281.718 302.816C282.763 302.315 283.744 302.064 284.661 302.064C285.632 302.064 286.379 302.304 286.902 302.784C287.424 303.253 287.686 303.931 287.686 304.816V310H286.534V309.088C286.192 309.44 285.814 309.707 285.398 309.888C284.982 310.059 284.534 310.144 284.054 310.144ZM282.342 307.728C282.342 308.187 282.518 308.555 282.87 308.832C283.232 309.109 283.707 309.248 284.294 309.248C284.731 309.248 285.131 309.173 285.494 309.024C285.867 308.875 286.214 308.651 286.534 308.352V306.848C286.203 306.656 285.862 306.517 285.51 306.432C285.158 306.336 284.763 306.288 284.326 306.288C283.728 306.288 283.248 306.421 282.886 306.688C282.523 306.944 282.342 307.291 282.342 307.728ZM290.059 310V302.192H291.227V303.792C291.43 303.248 291.718 302.827 292.091 302.528C292.475 302.219 292.913 302.064 293.403 302.064C293.542 302.064 293.67 302.075 293.787 302.096C293.905 302.107 294.022 302.133 294.139 302.176V303.232C294.011 303.189 293.873 303.157 293.723 303.136C293.585 303.104 293.451 303.088 293.323 303.088C292.843 303.088 292.422 303.227 292.059 303.504C291.707 303.781 291.43 304.171 291.227 304.672V310H290.059ZM298.66 310.16C297.988 310.16 297.476 310 297.124 309.68C296.783 309.349 296.612 308.875 296.612 308.256V303.152H294.996V302.192H296.612V300.048L297.78 299.776V302.192H300.02V303.152H297.78V307.952C297.78 308.368 297.866 308.667 298.036 308.848C298.218 309.029 298.511 309.12 298.916 309.12C299.119 309.12 299.3 309.104 299.46 309.072C299.62 309.04 299.807 308.987 300.02 308.912V309.952C299.807 310.027 299.583 310.08 299.348 310.112C299.114 310.144 298.884 310.16 298.66 310.16ZM301.715 310V302.192H302.883V310H301.715ZM302.307 300.256C302.073 300.256 301.87 300.176 301.699 300.016C301.539 299.845 301.459 299.648 301.459 299.424C301.459 299.2 301.539 299.008 301.699 298.848C301.87 298.677 302.073 298.592 302.307 298.592C302.542 298.592 302.739 298.677 302.899 298.848C303.07 299.008 303.155 299.2 303.155 299.424C303.155 299.648 303.07 299.845 302.899 300.016C302.739 300.176 302.542 300.256 302.307 300.256ZM305.278 310V302.192H306.446V303.456C306.745 302.987 307.102 302.64 307.518 302.416C307.934 302.181 308.403 302.064 308.926 302.064C309.491 302.064 309.982 302.187 310.398 302.432C310.825 302.667 311.155 303.003 311.39 303.44C311.635 303.867 311.758 304.368 311.758 304.944V310H310.59V305.28C310.59 304.587 310.398 304.043 310.014 303.648C309.641 303.243 309.134 303.04 308.494 303.04C308.067 303.04 307.678 303.141 307.326 303.344C306.974 303.547 306.681 303.845 306.446 304.24V310H305.278ZM317.722 313.504C317.2 313.504 316.672 313.429 316.138 313.28C315.616 313.141 315.13 312.944 314.682 312.688L315.178 311.792C315.658 312.037 316.096 312.219 316.49 312.336C316.885 312.453 317.28 312.512 317.674 312.512C318.389 312.512 318.928 312.341 319.29 312C319.664 311.659 319.85 311.163 319.85 310.512V308.944C319.552 309.317 319.189 309.605 318.762 309.808C318.336 310 317.866 310.096 317.354 310.096C316.682 310.096 316.074 309.92 315.53 309.568C314.986 309.205 314.554 308.725 314.234 308.128C313.914 307.52 313.754 306.843 313.754 306.096C313.754 305.349 313.914 304.677 314.234 304.08C314.565 303.472 315.008 302.992 315.562 302.64C316.117 302.277 316.736 302.096 317.418 302.096C317.909 302.096 318.362 302.192 318.778 302.384C319.194 302.565 319.557 302.837 319.866 303.2V302.192H321.018V310.496C321.018 311.467 320.736 312.208 320.17 312.72C319.605 313.243 318.789 313.504 317.722 313.504ZM317.642 309.088C318.101 309.088 318.522 308.997 318.906 308.816C319.29 308.624 319.605 308.363 319.85 308.032V304.176C319.594 303.845 319.269 303.589 318.874 303.408C318.49 303.216 318.08 303.12 317.642 303.12C317.12 303.12 316.65 303.248 316.234 303.504C315.829 303.76 315.504 304.112 315.258 304.56C315.024 305.008 314.906 305.52 314.906 306.096C314.906 306.661 315.024 307.173 315.258 307.632C315.504 308.08 315.829 308.437 316.234 308.704C316.65 308.96 317.12 309.088 317.642 309.088ZM329.569 310.144C329.014 310.144 328.524 310.043 328.097 309.84C327.67 309.637 327.334 309.36 327.089 309.008C326.854 308.645 326.737 308.229 326.737 307.76C326.737 307.291 326.86 306.885 327.105 306.544C327.35 306.192 327.692 305.92 328.129 305.728C328.566 305.536 329.078 305.44 329.665 305.44C330.113 305.44 330.534 305.488 330.929 305.584C331.334 305.68 331.708 305.835 332.049 306.048V304.976C332.049 304.336 331.878 303.856 331.537 303.536C331.196 303.205 330.694 303.04 330.033 303.04C329.67 303.04 329.297 303.093 328.913 303.2C328.54 303.307 328.124 303.477 327.665 303.712L327.233 302.816C328.278 302.315 329.26 302.064 330.177 302.064C331.148 302.064 331.894 302.304 332.417 302.784C332.94 303.253 333.201 303.931 333.201 304.816V310H332.049V309.088C331.708 309.44 331.329 309.707 330.913 309.888C330.497 310.059 330.049 310.144 329.569 310.144ZM327.857 307.728C327.857 308.187 328.033 308.555 328.385 308.832C328.748 309.109 329.222 309.248 329.809 309.248C330.246 309.248 330.646 309.173 331.009 309.024C331.382 308.875 331.729 308.651 332.049 308.352V306.848C331.718 306.656 331.377 306.517 331.025 306.432C330.673 306.336 330.278 306.288 329.841 306.288C329.244 306.288 328.764 306.421 328.401 306.688C328.038 306.944 327.857 307.291 327.857 307.728ZM98.1493 334.128C97.424 334.128 96.768 333.952 96.1813 333.6C95.6053 333.237 95.1466 332.752 94.8053 332.144C94.464 331.525 94.2933 330.843 94.2933 330.096C94.2933 329.339 94.464 328.656 94.8053 328.048C95.1466 327.44 95.6053 326.96 96.1813 326.608C96.768 326.245 97.424 326.064 98.1493 326.064C98.7253 326.064 99.2746 326.171 99.7973 326.384C100.32 326.597 100.773 326.896 101.157 327.28L100.405 328.096C100.128 327.787 99.792 327.547 99.3973 327.376C99.0026 327.205 98.6026 327.12 98.1973 327.12C97.6853 327.12 97.2213 327.253 96.8053 327.52C96.4 327.787 96.0746 328.144 95.8293 328.592C95.584 329.04 95.4613 329.541 95.4613 330.096C95.4613 330.651 95.584 331.152 95.8293 331.6C96.0746 332.048 96.4 332.405 96.8053 332.672C97.2213 332.939 97.6853 333.072 98.1973 333.072C98.6026 333.072 99.0026 332.987 99.3973 332.816C99.792 332.635 100.128 332.395 100.405 332.096L101.157 332.912C100.773 333.296 100.32 333.595 99.7973 333.808C99.2746 334.021 98.7253 334.128 98.1493 334.128ZM106.008 334.128C105.282 334.128 104.632 333.952 104.056 333.6C103.48 333.248 103.026 332.768 102.696 332.16C102.365 331.552 102.2 330.864 102.2 330.096C102.2 329.328 102.365 328.64 102.696 328.032C103.026 327.424 103.48 326.944 104.056 326.592C104.632 326.24 105.282 326.064 106.008 326.064C106.722 326.064 107.362 326.24 107.928 326.592C108.504 326.944 108.957 327.424 109.288 328.032C109.618 328.64 109.784 329.328 109.784 330.096C109.784 330.864 109.618 331.552 109.288 332.16C108.957 332.768 108.504 333.248 107.928 333.6C107.362 333.952 106.722 334.128 106.008 334.128ZM105.992 333.104C106.504 333.104 106.957 332.976 107.352 332.72C107.746 332.453 108.056 332.091 108.28 331.632C108.514 331.173 108.632 330.661 108.632 330.096C108.632 329.52 108.514 329.008 108.28 328.56C108.056 328.101 107.746 327.744 107.352 327.488C106.957 327.221 106.504 327.088 105.992 327.088C105.48 327.088 105.026 327.221 104.632 327.488C104.237 327.744 103.922 328.101 103.688 328.56C103.464 329.008 103.352 329.52 103.352 330.096C103.352 330.661 103.464 331.173 103.688 331.632C103.922 332.091 104.237 332.453 104.632 332.72C105.026 332.976 105.48 333.104 105.992 333.104ZM111.833 334V326.192H113.001V327.456C113.299 326.987 113.657 326.64 114.073 326.416C114.489 326.181 114.958 326.064 115.481 326.064C116.046 326.064 116.537 326.187 116.953 326.432C117.379 326.667 117.71 327.003 117.945 327.44C118.19 327.867 118.313 328.368 118.313 328.944V334H117.145V329.28C117.145 328.587 116.953 328.043 116.569 327.648C116.195 327.243 115.689 327.04 115.049 327.04C114.622 327.04 114.233 327.141 113.881 327.344C113.529 327.547 113.235 327.845 113.001 328.24V334H111.833ZM122.588 334L119.388 326.192H120.652L123.18 332.544L125.676 326.192H126.924L123.708 334H122.588ZM131.65 334.16C130.924 334.16 130.268 333.984 129.682 333.632C129.095 333.269 128.631 332.784 128.29 332.176C127.948 331.557 127.778 330.864 127.778 330.096C127.778 329.328 127.938 328.64 128.258 328.032C128.588 327.424 129.031 326.944 129.586 326.592C130.14 326.24 130.759 326.064 131.442 326.064C132.135 326.064 132.748 326.24 133.282 326.592C133.826 326.933 134.252 327.403 134.562 328C134.882 328.587 135.042 329.253 135.042 330V330.352H128.914C128.956 330.885 129.1 331.365 129.346 331.792C129.602 332.208 129.932 332.539 130.338 332.784C130.754 333.019 131.207 333.136 131.698 333.136C132.103 333.136 132.492 333.067 132.866 332.928C133.25 332.779 133.575 332.581 133.842 332.336L134.578 333.12C134.13 333.472 133.666 333.733 133.186 333.904C132.706 334.075 132.194 334.16 131.65 334.16ZM128.946 329.52H133.89C133.836 329.051 133.692 328.635 133.458 328.272C133.234 327.899 132.946 327.605 132.594 327.392C132.252 327.179 131.868 327.072 131.442 327.072C131.015 327.072 130.626 327.179 130.274 327.392C129.922 327.595 129.628 327.883 129.394 328.256C129.17 328.619 129.02 329.04 128.946 329.52ZM137.036 334V326.192H138.204V327.792C138.407 327.248 138.695 326.827 139.068 326.528C139.452 326.219 139.889 326.064 140.38 326.064C140.519 326.064 140.647 326.075 140.764 326.096C140.881 326.107 140.999 326.133 141.116 326.176V327.232C140.988 327.189 140.849 327.157 140.7 327.136C140.561 327.104 140.428 327.088 140.3 327.088C139.82 327.088 139.399 327.227 139.036 327.504C138.684 327.781 138.407 328.171 138.204 328.672V334H137.036ZM144.999 334.16C144.359 334.16 143.767 334.064 143.223 333.872C142.679 333.669 142.215 333.381 141.831 333.008L142.455 332.24C142.924 332.581 143.356 332.832 143.751 332.992C144.145 333.141 144.551 333.216 144.967 333.216C145.532 333.216 146.001 333.083 146.375 332.816C146.748 332.549 146.935 332.208 146.935 331.792C146.935 331.472 146.823 331.221 146.599 331.04C146.385 330.859 146.028 330.72 145.527 330.624L144.247 330.4C143.489 330.261 142.929 330.027 142.567 329.696C142.215 329.365 142.039 328.917 142.039 328.352C142.039 327.904 142.156 327.509 142.391 327.168C142.636 326.827 142.972 326.56 143.399 326.368C143.825 326.165 144.311 326.064 144.855 326.064C145.388 326.064 145.895 326.144 146.375 326.304C146.855 326.453 147.34 326.699 147.831 327.04L147.255 327.856C146.849 327.568 146.444 327.36 146.039 327.232C145.633 327.093 145.223 327.024 144.807 327.024C144.295 327.024 143.884 327.136 143.575 327.36C143.265 327.584 143.111 327.888 143.111 328.272C143.111 328.592 143.207 328.837 143.399 329.008C143.601 329.179 143.953 329.307 144.455 329.392L145.767 329.632C146.556 329.771 147.132 330.011 147.495 330.352C147.857 330.693 148.039 331.152 148.039 331.728C148.039 332.187 147.905 332.603 147.639 332.976C147.372 333.339 147.009 333.627 146.551 333.84C146.092 334.053 145.575 334.16 144.999 334.16ZM152.311 334.144C151.757 334.144 151.266 334.043 150.839 333.84C150.413 333.637 150.077 333.36 149.831 333.008C149.597 332.645 149.479 332.229 149.479 331.76C149.479 331.291 149.602 330.885 149.847 330.544C150.093 330.192 150.434 329.92 150.871 329.728C151.309 329.536 151.821 329.44 152.407 329.44C152.855 329.44 153.277 329.488 153.671 329.584C154.077 329.68 154.45 329.835 154.791 330.048V328.976C154.791 328.336 154.621 327.856 154.279 327.536C153.938 327.205 153.437 327.04 152.775 327.04C152.413 327.04 152.039 327.093 151.655 327.2C151.282 327.307 150.866 327.477 150.407 327.712L149.975 326.816C151.021 326.315 152.002 326.064 152.919 326.064C153.89 326.064 154.637 326.304 155.159 326.784C155.682 327.253 155.943 327.931 155.943 328.816V334H154.791V333.088C154.45 333.44 154.071 333.707 153.655 333.888C153.239 334.059 152.791 334.144 152.311 334.144ZM150.599 331.728C150.599 332.187 150.775 332.555 151.127 332.832C151.49 333.109 151.965 333.248 152.551 333.248C152.989 333.248 153.389 333.173 153.751 333.024C154.125 332.875 154.471 332.651 154.791 332.352V330.848C154.461 330.656 154.119 330.517 153.767 330.432C153.415 330.336 153.021 330.288 152.583 330.288C151.986 330.288 151.506 330.421 151.143 330.688C150.781 330.944 150.599 331.291 150.599 331.728ZM161.059 334.16C160.387 334.16 159.875 334 159.523 333.68C159.181 333.349 159.011 332.875 159.011 332.256V327.152H157.395V326.192H159.011V324.048L160.179 323.776V326.192H162.419V327.152H160.179V331.952C160.179 332.368 160.264 332.667 160.435 332.848C160.616 333.029 160.909 333.12 161.315 333.12C161.517 333.12 161.699 333.104 161.859 333.072C162.019 333.04 162.205 332.987 162.419 332.912V333.952C162.205 334.027 161.981 334.08 161.747 334.112C161.512 334.144 161.283 334.16 161.059 334.16ZM164.114 334V326.192H165.282V334H164.114ZM164.706 324.256C164.471 324.256 164.268 324.176 164.098 324.016C163.938 323.845 163.858 323.648 163.858 323.424C163.858 323.2 163.938 323.008 164.098 322.848C164.268 322.677 164.471 322.592 164.706 322.592C164.94 322.592 165.138 322.677 165.298 322.848C165.468 323.008 165.554 323.2 165.554 323.424C165.554 323.648 165.468 323.845 165.298 324.016C165.138 324.176 164.94 324.256 164.706 324.256ZM171.133 334.128C170.407 334.128 169.757 333.952 169.181 333.6C168.605 333.248 168.151 332.768 167.821 332.16C167.49 331.552 167.325 330.864 167.325 330.096C167.325 329.328 167.49 328.64 167.821 328.032C168.151 327.424 168.605 326.944 169.181 326.592C169.757 326.24 170.407 326.064 171.133 326.064C171.847 326.064 172.487 326.24 173.053 326.592C173.629 326.944 174.082 327.424 174.413 328.032C174.743 328.64 174.909 329.328 174.909 330.096C174.909 330.864 174.743 331.552 174.413 332.16C174.082 332.768 173.629 333.248 173.053 333.6C172.487 333.952 171.847 334.128 171.133 334.128ZM171.117 333.104C171.629 333.104 172.082 332.976 172.477 332.72C172.871 332.453 173.181 332.091 173.405 331.632C173.639 331.173 173.757 330.661 173.757 330.096C173.757 329.52 173.639 329.008 173.405 328.56C173.181 328.101 172.871 327.744 172.477 327.488C172.082 327.221 171.629 327.088 171.117 327.088C170.605 327.088 170.151 327.221 169.757 327.488C169.362 327.744 169.047 328.101 168.813 328.56C168.589 329.008 168.477 329.52 168.477 330.096C168.477 330.661 168.589 331.173 168.813 331.632C169.047 332.091 169.362 332.453 169.757 332.72C170.151 332.976 170.605 333.104 171.117 333.104ZM176.958 334V326.192H178.126V327.456C178.424 326.987 178.782 326.64 179.198 326.416C179.614 326.181 180.083 326.064 180.606 326.064C181.171 326.064 181.662 326.187 182.078 326.432C182.504 326.667 182.835 327.003 183.07 327.44C183.315 327.867 183.438 328.368 183.438 328.944V334H182.27V329.28C182.27 328.587 182.078 328.043 181.694 327.648C181.32 327.243 180.814 327.04 180.174 327.04C179.747 327.04 179.358 327.141 179.006 327.344C178.654 327.547 178.36 327.845 178.126 328.24V334H176.958ZM190.912 334L188.768 326.192H189.904L191.536 332.432L193.408 326.192H194.448L196.32 332.432L197.936 326.192H199.04L196.912 334H195.776L193.92 327.696L192.064 334H190.912ZM200.676 334V326.192H201.844V334H200.676ZM201.268 324.256C201.034 324.256 200.831 324.176 200.66 324.016C200.5 323.845 200.42 323.648 200.42 323.424C200.42 323.2 200.5 323.008 200.66 322.848C200.831 322.677 201.034 322.592 201.268 322.592C201.503 322.592 201.7 322.677 201.86 322.848C202.031 323.008 202.116 323.2 202.116 323.424C202.116 323.648 202.031 323.845 201.86 324.016C201.7 324.176 201.503 324.256 201.268 324.256ZM207.215 334.16C206.543 334.16 206.031 334 205.679 333.68C205.338 333.349 205.167 332.875 205.167 332.256V327.152H203.551V326.192H205.167V324.048L206.335 323.776V326.192H208.575V327.152H206.335V331.952C206.335 332.368 206.42 332.667 206.591 332.848C206.772 333.029 207.066 333.12 207.471 333.12C207.674 333.12 207.855 333.104 208.015 333.072C208.175 333.04 208.362 332.987 208.575 332.912V333.952C208.362 334.027 208.138 334.08 207.903 334.112C207.668 334.144 207.439 334.16 207.215 334.16ZM210.286 334V322.448L211.454 322.208V327.456C211.753 326.987 212.11 326.64 212.526 326.416C212.942 326.181 213.411 326.064 213.934 326.064C214.499 326.064 214.99 326.187 215.406 326.432C215.833 326.667 216.163 327.003 216.398 327.44C216.643 327.867 216.766 328.368 216.766 328.944V334H215.598V329.28C215.598 328.587 215.406 328.043 215.022 327.648C214.649 327.243 214.142 327.04 213.502 327.04C213.075 327.04 212.686 327.141 212.334 327.344C211.982 327.547 211.689 327.845 211.454 328.24V334H210.286ZM225.264 334.144C224.71 334.144 224.219 334.043 223.792 333.84C223.366 333.637 223.03 333.36 222.784 333.008C222.55 332.645 222.432 332.229 222.432 331.76C222.432 331.291 222.555 330.885 222.8 330.544C223.046 330.192 223.387 329.92 223.824 329.728C224.262 329.536 224.774 329.44 225.36 329.44C225.808 329.44 226.23 329.488 226.624 329.584C227.03 329.68 227.403 329.835 227.744 330.048V328.976C227.744 328.336 227.574 327.856 227.232 327.536C226.891 327.205 226.39 327.04 225.728 327.04C225.366 327.04 224.992 327.093 224.608 327.2C224.235 327.307 223.819 327.477 223.36 327.712L222.928 326.816C223.974 326.315 224.955 326.064 225.872 326.064C226.843 326.064 227.59 326.304 228.112 326.784C228.635 327.253 228.896 327.931 228.896 328.816V334H227.744V333.088C227.403 333.44 227.024 333.707 226.608 333.888C226.192 334.059 225.744 334.144 225.264 334.144ZM223.552 331.728C223.552 332.187 223.728 332.555 224.08 332.832C224.443 333.109 224.918 333.248 225.504 333.248C225.942 333.248 226.342 333.173 226.704 333.024C227.078 332.875 227.424 332.651 227.744 332.352V330.848C227.414 330.656 227.072 330.517 226.72 330.432C226.368 330.336 225.974 330.288 225.536 330.288C224.939 330.288 224.459 330.421 224.096 330.688C223.734 330.944 223.552 331.291 223.552 331.728ZM231.27 334V326.192H232.438V327.456C232.737 326.987 233.094 326.64 233.51 326.416C233.926 326.181 234.396 326.064 234.918 326.064C235.484 326.064 235.974 326.187 236.39 326.432C236.817 326.667 237.148 327.003 237.382 327.44C237.628 327.867 237.75 328.368 237.75 328.944V334H236.582V329.28C236.582 328.587 236.39 328.043 236.006 327.648C235.633 327.243 235.126 327.04 234.486 327.04C234.06 327.04 233.67 327.141 233.318 327.344C232.966 327.547 232.673 327.845 232.438 328.24V334H231.27ZM242.777 334L247.209 322.8H248.681L253.049 334H251.721L250.393 330.48H245.401L244.073 334H242.777ZM245.785 329.504H250.025L247.897 323.92L245.785 329.504ZM254.603 334V322.8H255.835V334H254.603ZM262.177 334V326.192H263.345V327.408C263.643 326.96 263.985 326.624 264.369 326.4C264.753 326.176 265.185 326.064 265.665 326.064C266.219 326.064 266.705 326.203 267.121 326.48C267.537 326.747 267.851 327.115 268.065 327.584C268.374 327.083 268.742 326.704 269.169 326.448C269.606 326.192 270.107 326.064 270.673 326.064C271.195 326.064 271.654 326.187 272.049 326.432C272.454 326.677 272.769 327.019 272.993 327.456C273.217 327.883 273.329 328.384 273.329 328.96V334H272.161V329.248C272.161 328.565 271.99 328.027 271.649 327.632C271.307 327.237 270.838 327.04 270.241 327.04C269.835 327.04 269.467 327.141 269.137 327.344C268.817 327.547 268.534 327.856 268.289 328.272C268.31 328.379 268.326 328.491 268.337 328.608C268.347 328.725 268.353 328.843 268.353 328.96V334H267.185V329.248C267.185 328.565 267.009 328.027 266.657 327.632C266.315 327.237 265.846 327.04 265.249 327.04C264.449 327.04 263.814 327.424 263.345 328.192V334H262.177ZM279.148 334.128C278.423 334.128 277.772 333.952 277.196 333.6C276.62 333.248 276.167 332.768 275.836 332.16C275.506 331.552 275.34 330.864 275.34 330.096C275.34 329.328 275.506 328.64 275.836 328.032C276.167 327.424 276.62 326.944 277.196 326.592C277.772 326.24 278.423 326.064 279.148 326.064C279.863 326.064 280.503 326.24 281.068 326.592C281.644 326.944 282.098 327.424 282.428 328.032C282.759 328.64 282.924 329.328 282.924 330.096C282.924 330.864 282.759 331.552 282.428 332.16C282.098 332.768 281.644 333.248 281.068 333.6C280.503 333.952 279.863 334.128 279.148 334.128ZM279.132 333.104C279.644 333.104 280.098 332.976 280.492 332.72C280.887 332.453 281.196 332.091 281.42 331.632C281.655 331.173 281.772 330.661 281.772 330.096C281.772 329.52 281.655 329.008 281.42 328.56C281.196 328.101 280.887 327.744 280.492 327.488C280.098 327.221 279.644 327.088 279.132 327.088C278.62 327.088 278.167 327.221 277.772 327.488C277.378 327.744 277.063 328.101 276.828 328.56C276.604 329.008 276.492 329.52 276.492 330.096C276.492 330.661 276.604 331.173 276.828 331.632C277.063 332.091 277.378 332.453 277.772 332.72C278.167 332.976 278.62 333.104 279.132 333.104ZM288.221 334.112C287.549 334.112 286.941 333.936 286.397 333.584C285.853 333.221 285.421 332.741 285.101 332.144C284.781 331.536 284.621 330.859 284.621 330.112C284.621 329.355 284.781 328.677 285.101 328.08C285.432 327.472 285.875 326.992 286.429 326.64C286.984 326.277 287.603 326.096 288.285 326.096C288.765 326.096 289.213 326.192 289.629 326.384C290.045 326.565 290.408 326.832 290.717 327.184V322.448L291.885 322.208V334H290.717V332.96C290.419 333.333 290.056 333.621 289.629 333.824C289.203 334.016 288.733 334.112 288.221 334.112ZM288.509 333.088C288.968 333.088 289.389 332.997 289.773 332.816C290.157 332.635 290.472 332.379 290.717 332.048V328.176C290.461 327.845 290.136 327.589 289.741 327.408C289.357 327.216 288.947 327.12 288.509 327.12C287.987 327.12 287.517 327.248 287.101 327.504C286.696 327.76 286.371 328.112 286.125 328.56C285.891 329.008 285.773 329.52 285.773 330.096C285.773 330.661 285.891 331.173 286.125 331.632C286.371 332.08 286.696 332.437 287.101 332.704C287.517 332.96 287.987 333.088 288.509 333.088ZM297.806 334.16C297.081 334.16 296.425 333.984 295.838 333.632C295.251 333.269 294.787 332.784 294.446 332.176C294.105 331.557 293.934 330.864 293.934 330.096C293.934 329.328 294.094 328.64 294.414 328.032C294.745 327.424 295.187 326.944 295.742 326.592C296.297 326.24 296.915 326.064 297.598 326.064C298.291 326.064 298.905 326.24 299.438 326.592C299.982 326.933 300.409 327.403 300.718 328C301.038 328.587 301.198 329.253 301.198 330V330.352H295.07C295.113 330.885 295.257 331.365 295.502 331.792C295.758 332.208 296.089 332.539 296.494 332.784C296.91 333.019 297.363 333.136 297.854 333.136C298.259 333.136 298.649 333.067 299.022 332.928C299.406 332.779 299.731 332.581 299.998 332.336L300.734 333.12C300.286 333.472 299.822 333.733 299.342 333.904C298.862 334.075 298.35 334.16 297.806 334.16ZM295.102 329.52H300.046C299.993 329.051 299.849 328.635 299.614 328.272C299.39 327.899 299.102 327.605 298.75 327.392C298.409 327.179 298.025 327.072 297.598 327.072C297.171 327.072 296.782 327.179 296.43 327.392C296.078 327.595 295.785 327.883 295.55 328.256C295.326 328.619 295.177 329.04 295.102 329.52ZM303.192 334V322.448L304.36 322.208V334H303.192ZM307.555 334.128C307.32 334.128 307.117 334.043 306.947 333.872C306.787 333.701 306.707 333.499 306.707 333.264C306.707 333.019 306.787 332.816 306.947 332.656C307.117 332.485 307.32 332.4 307.555 332.4C307.789 332.4 307.987 332.485 308.147 332.656C308.317 332.816 308.403 333.019 308.403 333.264C308.403 333.499 308.317 333.701 308.147 333.872C307.987 334.043 307.789 334.128 307.555 334.128Z" fill="#4D4D4D"/>
</g>
</g>
<defs>
<clipPath id="clip0_759_63665">
<rect width="403" height="373" fill="white"/>
</clipPath>
<clipPath id="clip1_759_63665">
<rect width="375" height="960" fill="white" transform="translate(14)"/>
</clipPath>
</defs>
</svg>
