<svg width="403" height="373" viewBox="0 0 403 373" fill="none" xmlns="http://www.w3.org/2000/svg">
<g clip-path="url(#clip0_759_63665)">
<rect width="403" height="373" fill="white"/>
<g clip-path="url(#clip1_759_63665)">
<rect width="375" height="960" transform="translate(14)" fill="white"/>
<path d="M59.1533 38.0771C59.4792 37.7517 60.0074 37.7516 60.333 38.0771L60.9229 38.667C61.2483 38.9928 61.2483 39.5211 60.9229 39.8467L58.2686 42.5L60.9229 45.1533C61.2482 45.4792 61.2483 46.0075 60.9229 46.333L60.333 46.9229C60.0075 47.2483 59.4789 47.2482 59.1533 46.9229L56.5 44.2686L53.8467 46.9229C53.5211 47.2483 52.9926 47.2483 52.667 46.9229L52.0771 46.333C51.7516 46.0072 51.7517 45.4789 52.0771 45.1533L54.7305 42.5L52.0771 39.8467C51.7517 39.5208 51.7516 38.9926 52.0771 38.667L52.667 38.0771C52.9928 37.7516 53.5211 37.7517 53.8467 38.0771L56.5 40.7305L59.1533 38.0771Z" fill="#1F1F1F"/>
<path d="M233 42.5C233 32.2827 241.283 24 251.5 24H346.5C356.717 24 365 32.2827 365 42.5V42.5C365 52.7173 356.717 61 346.5 61H251.5C241.283 61 233 52.7173 233 42.5V42.5Z" fill="#0066CC"/>
<path d="M266.25 37.7504C266.734 37.7504 267.125 38.1414 267.125 38.6254C267.125 39.1092 266.734 39.5004 266.25 39.5004H263.625C263.141 39.5004 262.75 39.8914 262.75 40.3754V47.3754C262.75 47.8592 263.141 48.2504 263.625 48.2504H270.625C271.109 48.2504 271.5 47.8592 271.5 47.3754V44.7504C271.5 44.2664 271.891 43.8754 272.375 43.8754C272.859 43.8754 273.25 44.2664 273.25 44.7504V47.3754C273.25 48.8244 272.074 50.0004 270.625 50.0004H263.625C262.176 50.0004 261 48.8244 261 47.3754V40.3754C261 38.9261 262.176 37.7504 263.625 37.7504H266.25ZM272.969 40.7113L268.394 45.2885C268.224 45.4552 268.019 45.5838 267.795 45.6576L265.367 46.4672C265.129 46.5464 264.869 46.4865 264.694 46.309C264.519 46.1313 264.456 45.8712 264.535 45.6361L265.345 43.2074C265.419 42.9806 265.547 42.7755 265.714 42.6088L270.289 38.0316L272.969 40.7113ZM271.729 36.5931C272.328 35.9943 273.297 35.9943 273.896 36.5931L274.406 37.1019C275.005 37.7008 275.005 38.6691 274.406 39.2679L273.584 40.0902L270.906 37.4135L271.729 36.5931Z" fill="white"/>
<path d="M283.246 47V37.2H284.366L290.106 45.32L290.078 37.2H291.1V47H290.12L284.24 38.698L284.268 47H283.246ZM296.48 47.14C295.845 47.14 295.271 46.986 294.758 46.678C294.244 46.3607 293.838 45.936 293.54 45.404C293.241 44.8627 293.092 44.256 293.092 43.584C293.092 42.912 293.232 42.31 293.512 41.778C293.801 41.246 294.188 40.826 294.674 40.518C295.159 40.21 295.7 40.056 296.298 40.056C296.904 40.056 297.441 40.21 297.908 40.518C298.384 40.8167 298.757 41.2273 299.028 41.75C299.308 42.2633 299.448 42.8467 299.448 43.5V43.808H294.086C294.123 44.2747 294.249 44.6947 294.464 45.068C294.688 45.432 294.977 45.7213 295.332 45.936C295.696 46.1413 296.092 46.244 296.522 46.244C296.876 46.244 297.217 46.1833 297.544 46.062C297.88 45.9313 298.164 45.7587 298.398 45.544L299.042 46.23C298.65 46.538 298.244 46.7667 297.824 46.916C297.404 47.0653 296.956 47.14 296.48 47.14ZM294.114 43.08H298.44C298.393 42.6693 298.267 42.3053 298.062 41.988C297.866 41.6613 297.614 41.4047 297.306 41.218C297.007 41.0313 296.671 40.938 296.298 40.938C295.924 40.938 295.584 41.0313 295.276 41.218C294.968 41.3953 294.711 41.6473 294.506 41.974C294.31 42.2913 294.179 42.66 294.114 43.08ZM302.274 47L300.398 40.168H301.392L302.82 45.628L304.458 40.168H305.368L307.006 45.628L308.42 40.168H309.386L307.524 47H306.53L304.906 41.484L303.282 47H302.274ZM317.165 47.112C316.53 47.112 315.956 46.958 315.443 46.65C314.939 46.3327 314.537 45.908 314.239 45.376C313.94 44.8347 313.791 44.2373 313.791 43.584C313.791 42.9213 313.94 42.324 314.239 41.792C314.537 41.26 314.939 40.84 315.443 40.532C315.956 40.2147 316.53 40.056 317.165 40.056C317.669 40.056 318.149 40.1493 318.607 40.336C319.064 40.5227 319.461 40.784 319.797 41.12L319.139 41.834C318.896 41.5633 318.602 41.3533 318.257 41.204C317.911 41.0547 317.561 40.98 317.207 40.98C316.759 40.98 316.353 41.0967 315.989 41.33C315.634 41.5633 315.349 41.876 315.135 42.268C314.92 42.66 314.813 43.0987 314.813 43.584C314.813 44.0693 314.92 44.508 315.135 44.9C315.349 45.292 315.634 45.6047 315.989 45.838C316.353 46.0713 316.759 46.188 317.207 46.188C317.561 46.188 317.911 46.1133 318.257 45.964C318.602 45.8053 318.896 45.5953 319.139 45.334L319.797 46.048C319.461 46.384 319.064 46.6453 318.607 46.832C318.149 47.0187 317.669 47.112 317.165 47.112ZM321.222 47V36.892L322.244 36.682V41.274C322.505 40.8633 322.818 40.56 323.182 40.364C323.546 40.1587 323.957 40.056 324.414 40.056C324.909 40.056 325.338 40.1633 325.702 40.378C326.075 40.5833 326.365 40.8773 326.57 41.26C326.785 41.6333 326.892 42.072 326.892 42.576V47H325.87V42.87C325.87 42.2633 325.702 41.7873 325.366 41.442C325.039 41.0873 324.596 40.91 324.036 40.91C323.663 40.91 323.322 40.9987 323.014 41.176C322.706 41.3533 322.449 41.6147 322.244 41.96V47H321.222ZM331.06 47.126C330.575 47.126 330.146 47.0373 329.772 46.86C329.399 46.6827 329.105 46.44 328.89 46.132C328.685 45.8147 328.582 45.4507 328.582 45.04C328.582 44.6293 328.69 44.2747 328.904 43.976C329.119 43.668 329.418 43.43 329.8 43.262C330.183 43.094 330.631 43.01 331.144 43.01C331.536 43.01 331.905 43.052 332.25 43.136C332.605 43.22 332.932 43.3553 333.23 43.542V42.604C333.23 42.044 333.081 41.624 332.782 41.344C332.484 41.0547 332.045 40.91 331.466 40.91C331.149 40.91 330.822 40.9567 330.486 41.05C330.16 41.1433 329.796 41.2927 329.394 41.498L329.016 40.714C329.931 40.2753 330.79 40.056 331.592 40.056C332.442 40.056 333.095 40.266 333.552 40.686C334.01 41.0967 334.238 41.6893 334.238 42.464V47H333.23V46.202C332.932 46.51 332.6 46.7433 332.236 46.902C331.872 47.0513 331.48 47.126 331.06 47.126ZM329.562 45.012C329.562 45.4133 329.716 45.7353 330.024 45.978C330.342 46.2207 330.757 46.342 331.27 46.342C331.653 46.342 332.003 46.2767 332.32 46.146C332.647 46.0153 332.95 45.8193 333.23 45.558V44.242C332.941 44.074 332.642 43.9527 332.334 43.878C332.026 43.794 331.681 43.752 331.298 43.752C330.776 43.752 330.356 43.8687 330.038 44.102C329.721 44.326 329.562 44.6293 329.562 45.012ZM338.715 47.14C338.127 47.14 337.679 47 337.371 46.72C337.072 46.4307 336.923 46.0153 336.923 45.474V41.008H335.509V40.168H336.923V38.292L337.945 38.054V40.168H339.905V41.008H337.945V45.208C337.945 45.572 338.019 45.8333 338.169 45.992C338.327 46.1507 338.584 46.23 338.939 46.23C339.116 46.23 339.275 46.216 339.415 46.188C339.555 46.16 339.718 46.1133 339.905 46.048V46.958C339.718 47.0233 339.522 47.07 339.317 47.098C339.111 47.126 338.911 47.14 338.715 47.14Z" fill="white"/>
<path d="M50 88C54.9718 88 59 92.0282 59 97C59 101.972 54.9718 106 50 106C45.0282 106 41 101.972 41 97C41 92.0282 45.0282 88 50 88ZM50 89.7422C45.9899 89.7422 42.7422 92.9899 42.7422 97C42.7422 101.01 45.9899 104.258 50 104.258C54.0101 104.258 57.2578 101.01 57.2578 97C57.2578 92.9899 54.0101 89.7422 50 89.7422ZM50.5811 91.4834C50.8202 91.4836 51.0164 91.6798 51.0166 91.9189V97.0615L53.4404 98.8252C53.6364 98.9667 53.6767 99.2396 53.5352 99.4355L52.8525 100.375C52.7111 100.567 52.4391 100.611 52.2432 100.47L49.1621 98.2305C49.0496 98.147 48.9844 98.0158 48.9844 97.8779V91.9189C48.9846 91.6798 49.1798 91.4836 49.4189 91.4834H50.5811Z" fill="#1F1F1F"/>
<path d="M76.7439 103.198C75.8079 103.198 74.9379 103.036 74.1339 102.712C73.3419 102.376 72.6399 101.914 72.0279 101.326C71.4279 100.726 70.9599 100.036 70.6239 99.256C70.2999 98.464 70.1379 97.612 70.1379 96.7C70.1379 95.788 70.2999 94.942 70.6239 94.162C70.9599 93.37 71.4279 92.68 72.0279 92.092C72.6399 91.492 73.3479 91.03 74.1519 90.706C74.9559 90.37 75.8199 90.202 76.7439 90.202C77.4039 90.202 78.0459 90.292 78.6699 90.472C79.3059 90.64 79.8879 90.886 80.4159 91.21C80.9559 91.534 81.4239 91.924 81.8199 92.38L80.5599 93.676C80.0919 93.112 79.5219 92.686 78.8499 92.398C78.1779 92.098 77.4759 91.948 76.7439 91.948C75.8559 91.948 75.0579 92.158 74.3499 92.578C73.6419 92.998 73.0839 93.568 72.6759 94.288C72.2679 94.996 72.0639 95.8 72.0639 96.7C72.0639 97.6 72.2679 98.41 72.6759 99.13C73.0959 99.838 73.6659 100.402 74.3859 100.822C75.1059 101.242 75.9099 101.452 76.7979 101.452C77.5299 101.452 78.2199 101.308 78.8679 101.02C79.5279 100.72 80.0859 100.3 80.5419 99.76L81.7839 101.02C81.3639 101.464 80.8839 101.854 80.3439 102.19C79.8159 102.514 79.2399 102.766 78.6159 102.946C78.0039 103.114 77.3799 103.198 76.7439 103.198ZM83.417 103V90.4L85.217 90.004V94.774C85.925 94.03 86.843 93.658 87.971 93.658C88.679 93.658 89.297 93.808 89.825 94.108C90.365 94.408 90.785 94.828 91.085 95.368C91.397 95.908 91.553 96.532 91.553 97.24V103H89.753V97.546C89.753 96.826 89.549 96.262 89.141 95.854C88.733 95.434 88.175 95.224 87.467 95.224C86.987 95.224 86.555 95.326 86.171 95.53C85.787 95.734 85.469 96.028 85.217 96.412V103H83.417ZM96.5279 103.162C95.8679 103.162 95.2859 103.048 94.7819 102.82C94.2779 102.58 93.8819 102.25 93.5939 101.83C93.3059 101.41 93.1619 100.924 93.1619 100.372C93.1619 99.508 93.4919 98.83 94.1519 98.338C94.8119 97.834 95.7179 97.582 96.8699 97.582C97.7699 97.582 98.6039 97.756 99.3719 98.104V97.132C99.3719 95.824 98.6279 95.17 97.1399 95.17C96.7199 95.17 96.2819 95.236 95.8259 95.368C95.3699 95.488 94.8599 95.68 94.2959 95.944L93.6299 94.594C94.3259 94.27 94.9739 94.036 95.5739 93.892C96.1739 93.736 96.7799 93.658 97.3919 93.658C98.5799 93.658 99.4979 93.94 100.146 94.504C100.806 95.068 101.136 95.872 101.136 96.916V103H99.3719V102.208C98.9639 102.532 98.5259 102.772 98.0579 102.928C97.5899 103.084 97.0799 103.162 96.5279 103.162ZM94.8899 100.336C94.8899 100.78 95.0759 101.14 95.4479 101.416C95.8319 101.692 96.3299 101.83 96.9419 101.83C97.9259 101.83 98.7359 101.536 99.3719 100.948V99.4C98.7119 99.016 97.9259 98.824 97.0139 98.824C96.3539 98.824 95.8319 98.962 95.4479 99.238C95.0759 99.502 94.8899 99.868 94.8899 100.336ZM106.87 103.162C105.982 103.162 105.304 102.958 104.836 102.55C104.368 102.13 104.134 101.524 104.134 100.732V95.35H102.19V93.838H104.134V91.498L105.916 91.066V93.838H108.616V95.35H105.916V100.318C105.916 100.786 106.018 101.122 106.222 101.326C106.438 101.518 106.786 101.614 107.266 101.614C107.518 101.614 107.74 101.596 107.932 101.56C108.136 101.524 108.352 101.47 108.58 101.398V102.91C108.34 102.994 108.058 103.054 107.734 103.09C107.422 103.138 107.134 103.162 106.87 103.162ZM113.704 103V90.4L115.504 90.004V94.774C116.212 94.03 117.13 93.658 118.258 93.658C118.966 93.658 119.584 93.808 120.112 94.108C120.652 94.408 121.072 94.828 121.372 95.368C121.684 95.908 121.84 96.532 121.84 97.24V103H120.04V97.546C120.04 96.826 119.836 96.262 119.428 95.854C119.02 95.434 118.462 95.224 117.754 95.224C117.274 95.224 116.842 95.326 116.458 95.53C116.074 95.734 115.756 96.028 115.504 96.412V103H113.704ZM123.917 103V93.838H125.717V103H123.917ZM124.817 92.362C124.517 92.362 124.259 92.254 124.043 92.038C123.827 91.81 123.719 91.546 123.719 91.246C123.719 90.934 123.827 90.676 124.043 90.472C124.259 90.256 124.517 90.148 124.817 90.148C125.129 90.148 125.393 90.256 125.609 90.472C125.825 90.676 125.933 90.934 125.933 91.246C125.933 91.546 125.825 91.81 125.609 92.038C125.393 92.254 125.129 92.362 124.817 92.362ZM130.987 103.18C130.195 103.18 129.451 103.066 128.755 102.838C128.071 102.598 127.477 102.262 126.973 101.83L127.963 100.642C128.431 101.014 128.911 101.302 129.403 101.506C129.907 101.698 130.417 101.794 130.933 101.794C131.581 101.794 132.109 101.668 132.517 101.416C132.925 101.164 133.129 100.834 133.129 100.426C133.129 99.778 132.637 99.382 131.653 99.238L129.997 99.004C129.085 98.872 128.401 98.59 127.945 98.158C127.489 97.726 127.261 97.15 127.261 96.43C127.261 95.878 127.411 95.398 127.711 94.99C128.011 94.57 128.431 94.246 128.971 94.018C129.511 93.778 130.141 93.658 130.861 93.658C131.521 93.658 132.157 93.754 132.769 93.946C133.381 94.138 133.969 94.438 134.533 94.846L133.615 96.034C132.619 95.386 131.653 95.062 130.717 95.062C130.165 95.062 129.721 95.182 129.385 95.422C129.049 95.65 128.881 95.95 128.881 96.322C128.881 96.658 128.995 96.922 129.223 97.114C129.463 97.294 129.853 97.42 130.393 97.492L132.049 97.726C132.961 97.858 133.651 98.14 134.119 98.572C134.587 98.992 134.821 99.562 134.821 100.282C134.821 100.834 134.653 101.332 134.317 101.776C133.981 102.208 133.525 102.55 132.949 102.802C132.373 103.054 131.719 103.18 130.987 103.18ZM139.952 103.162C139.064 103.162 138.386 102.958 137.918 102.55C137.45 102.13 137.216 101.524 137.216 100.732V95.35H135.272V93.838H137.216V91.498L138.998 91.066V93.838H141.698V95.35H138.998V100.318C138.998 100.786 139.1 101.122 139.304 101.326C139.52 101.518 139.868 101.614 140.348 101.614C140.6 101.614 140.822 101.596 141.014 101.56C141.218 101.524 141.434 101.47 141.662 101.398V102.91C141.422 102.994 141.14 103.054 140.816 103.09C140.504 103.138 140.216 103.162 139.952 103.162ZM147.24 103.18C146.352 103.18 145.542 102.97 144.81 102.55C144.09 102.13 143.52 101.56 143.1 100.84C142.68 100.12 142.47 99.316 142.47 98.428C142.47 97.54 142.68 96.736 143.1 96.016C143.52 95.296 144.09 94.726 144.81 94.306C145.542 93.874 146.352 93.658 147.24 93.658C148.14 93.658 148.95 93.874 149.67 94.306C150.39 94.726 150.96 95.296 151.38 96.016C151.8 96.736 152.01 97.54 152.01 98.428C152.01 99.316 151.8 100.12 151.38 100.84C150.96 101.56 150.39 102.13 149.67 102.55C148.95 102.97 148.14 103.18 147.24 103.18ZM147.24 101.596C147.804 101.596 148.308 101.458 148.752 101.182C149.208 100.894 149.568 100.51 149.832 100.03C150.108 99.55 150.246 99.016 150.246 98.428C150.246 97.828 150.114 97.294 149.85 96.826C149.586 96.346 149.226 95.962 148.77 95.674C148.314 95.386 147.804 95.242 147.24 95.242C146.676 95.242 146.166 95.386 145.71 95.674C145.254 95.962 144.894 96.346 144.63 96.826C144.366 97.294 144.234 97.828 144.234 98.428C144.234 99.016 144.366 99.55 144.63 100.03C144.894 100.51 145.254 100.894 145.71 101.182C146.166 101.458 146.676 101.596 147.24 101.596ZM153.712 103V93.838H155.512V95.008C155.8 94.576 156.154 94.24 156.574 94C157.006 93.748 157.492 93.622 158.032 93.622C158.404 93.634 158.71 93.688 158.95 93.784V95.404C158.602 95.272 158.248 95.206 157.888 95.206C157.36 95.206 156.892 95.35 156.484 95.638C156.076 95.914 155.752 96.322 155.512 96.862V103H153.712ZM161.179 106.87C160.987 106.87 160.807 106.858 160.639 106.834C160.471 106.822 160.333 106.798 160.225 106.762V105.178C160.441 105.226 160.705 105.25 161.017 105.25C161.857 105.25 162.463 104.8 162.835 103.9L163.231 103.018L159.559 93.838H161.557L164.221 100.822L167.173 93.838H169.117L164.689 104.134C164.401 104.782 164.095 105.304 163.771 105.7C163.447 106.108 163.075 106.402 162.655 106.582C162.235 106.774 161.743 106.87 161.179 106.87Z" fill="#151515"/>
<path d="M44 117.5H359C362.038 117.5 364.5 119.962 364.5 123V148C364.5 151.038 362.038 153.5 359 153.5H44C40.9624 153.5 38.5 151.038 38.5 148V123C38.5 119.962 40.9624 117.5 44 117.5Z" fill="white"/>
<path d="M44 117.5H359C362.038 117.5 364.5 119.962 364.5 123V148C364.5 151.038 362.038 153.5 359 153.5H44C40.9624 153.5 38.5 151.038 38.5 148V123C38.5 119.962 40.9624 117.5 44 117.5Z" stroke="#C7C7C7"/>
<path d="M55.6875 129C58.8293 129 61.375 131.546 61.375 134.688C61.375 136.008 60.9265 137.222 60.1719 138.188H60.6172C60.7921 138.188 60.959 138.256 61.082 138.379L63.8086 141.105C64.0627 141.363 64.0626 141.778 63.8057 142.035L63.0322 142.809C62.778 143.066 62.3625 143.065 62.1055 142.809L59.3789 140.082C59.256 139.959 59.1875 139.792 59.1875 139.617V139.172C58.2223 139.927 57.0082 140.375 55.6875 140.375C52.5457 140.375 50 137.829 50 134.688C50 131.546 52.5457 129 55.6875 129ZM55.6875 131.188C53.7516 131.188 52.1875 132.754 52.1875 134.688C52.1875 136.623 53.7543 138.188 55.6875 138.188C57.6234 138.187 59.1875 136.621 59.1875 134.688C59.1875 132.752 57.6207 131.188 55.6875 131.188Z" fill="#1F1F1F"/>
<path d="M76.246 140V130.2H82.938V131.152H77.324V134.652H81.16V135.59H77.324V140H76.246ZM84.3758 140V133.168H85.3978V140H84.3758ZM84.8938 131.474C84.6885 131.474 84.5112 131.404 84.3618 131.264C84.2218 131.115 84.1518 130.942 84.1518 130.746C84.1518 130.55 84.2218 130.382 84.3618 130.242C84.5112 130.093 84.6885 130.018 84.8938 130.018C85.0992 130.018 85.2718 130.093 85.4118 130.242C85.5612 130.382 85.6358 130.55 85.6358 130.746C85.6358 130.942 85.5612 131.115 85.4118 131.264C85.2718 131.404 85.0992 131.474 84.8938 131.474ZM87.4934 140V133.168H88.5154V134.274C88.7767 133.863 89.0894 133.56 89.4534 133.364C89.8174 133.159 90.228 133.056 90.6854 133.056C91.18 133.056 91.6094 133.163 91.9734 133.378C92.3467 133.583 92.636 133.877 92.8414 134.26C93.056 134.633 93.1634 135.072 93.1634 135.576V140H92.1414V135.87C92.1414 135.263 91.9734 134.787 91.6374 134.442C91.3107 134.087 90.8674 133.91 90.3074 133.91C89.934 133.91 89.5934 133.999 89.2854 134.176C88.9774 134.353 88.7207 134.615 88.5154 134.96V140H87.4934ZM98.06 140.098C97.472 140.098 96.94 139.944 96.464 139.636C95.988 139.319 95.61 138.899 95.33 138.376C95.05 137.844 94.91 137.251 94.91 136.598C94.91 135.935 95.05 135.343 95.33 134.82C95.6193 134.288 96.0066 133.868 96.492 133.56C96.9773 133.243 97.5186 133.084 98.116 133.084C98.536 133.084 98.928 133.168 99.292 133.336C99.656 133.495 99.9733 133.728 100.244 134.036V129.892L101.266 129.682V140H100.244V139.09C99.9826 139.417 99.6653 139.669 99.292 139.846C98.9186 140.014 98.508 140.098 98.06 140.098ZM98.312 139.202C98.7133 139.202 99.082 139.123 99.418 138.964C99.754 138.805 100.029 138.581 100.244 138.292V134.904C100.02 134.615 99.7353 134.391 99.39 134.232C99.054 134.064 98.6946 133.98 98.312 133.98C97.8546 133.98 97.444 134.092 97.08 134.316C96.7253 134.54 96.4406 134.848 96.226 135.24C96.0206 135.632 95.918 136.08 95.918 136.584C95.918 137.079 96.0206 137.527 96.226 137.928C96.4406 138.32 96.7253 138.633 97.08 138.866C97.444 139.09 97.8546 139.202 98.312 139.202ZM106.634 140V129.99L107.656 129.78V134.106C107.917 133.779 108.235 133.527 108.608 133.35C108.981 133.173 109.397 133.084 109.854 133.084C110.451 133.084 110.983 133.243 111.45 133.56C111.926 133.868 112.304 134.288 112.584 134.82C112.864 135.343 113.004 135.931 113.004 136.584C113.004 137.237 112.859 137.83 112.57 138.362C112.29 138.894 111.907 139.319 111.422 139.636C110.946 139.944 110.405 140.098 109.798 140.098C109.369 140.098 108.967 140.014 108.594 139.846C108.23 139.669 107.913 139.421 107.642 139.104V140H106.634ZM109.602 139.216C110.059 139.216 110.465 139.104 110.82 138.88C111.184 138.647 111.469 138.334 111.674 137.942C111.889 137.541 111.996 137.093 111.996 136.598C111.996 136.094 111.889 135.646 111.674 135.254C111.469 134.862 111.184 134.554 110.82 134.33C110.465 134.097 110.059 133.98 109.602 133.98C109.201 133.98 108.827 134.064 108.482 134.232C108.146 134.391 107.871 134.619 107.656 134.918V138.264C107.88 138.563 108.16 138.796 108.496 138.964C108.841 139.132 109.21 139.216 109.602 139.216ZM114.885 143.066C114.67 143.066 114.451 143.033 114.227 142.968V142.058C114.32 142.077 114.418 142.091 114.521 142.1C114.624 142.109 114.712 142.114 114.787 142.114C115.048 142.114 115.263 142.044 115.431 141.904C115.608 141.764 115.758 141.545 115.879 141.246L116.383 140L113.751 133.168H114.885L116.957 138.782L119.155 133.168H120.289L116.845 141.554C116.696 141.918 116.532 142.212 116.355 142.436C116.178 142.66 115.972 142.819 115.739 142.912C115.506 143.015 115.221 143.066 114.885 143.066ZM124.831 140V133.168H125.853V134.274C126.115 133.863 126.427 133.56 126.791 133.364C127.155 133.159 127.566 133.056 128.023 133.056C128.518 133.056 128.947 133.163 129.311 133.378C129.685 133.583 129.974 133.877 130.179 134.26C130.394 134.633 130.501 135.072 130.501 135.576V140H129.479V135.87C129.479 135.263 129.311 134.787 128.975 134.442C128.649 134.087 128.205 133.91 127.645 133.91C127.272 133.91 126.931 133.999 126.623 134.176C126.315 134.353 126.059 134.615 125.853 134.96V140H124.831ZM134.67 140.126C134.185 140.126 133.755 140.037 133.382 139.86C133.009 139.683 132.715 139.44 132.5 139.132C132.295 138.815 132.192 138.451 132.192 138.04C132.192 137.629 132.299 137.275 132.514 136.976C132.729 136.668 133.027 136.43 133.41 136.262C133.793 136.094 134.241 136.01 134.754 136.01C135.146 136.01 135.515 136.052 135.86 136.136C136.215 136.22 136.541 136.355 136.84 136.542V135.604C136.84 135.044 136.691 134.624 136.392 134.344C136.093 134.055 135.655 133.91 135.076 133.91C134.759 133.91 134.432 133.957 134.096 134.05C133.769 134.143 133.405 134.293 133.004 134.498L132.626 133.714C133.541 133.275 134.399 133.056 135.202 133.056C136.051 133.056 136.705 133.266 137.162 133.686C137.619 134.097 137.848 134.689 137.848 135.464V140H136.84V139.202C136.541 139.51 136.21 139.743 135.846 139.902C135.482 140.051 135.09 140.126 134.67 140.126ZM133.172 138.012C133.172 138.413 133.326 138.735 133.634 138.978C133.951 139.221 134.367 139.342 134.88 139.342C135.263 139.342 135.613 139.277 135.93 139.146C136.257 139.015 136.56 138.819 136.84 138.558V137.242C136.551 137.074 136.252 136.953 135.944 136.878C135.636 136.794 135.291 136.752 134.908 136.752C134.385 136.752 133.965 136.869 133.648 137.102C133.331 137.326 133.172 137.629 133.172 138.012ZM139.925 140V133.168H140.947V134.232C141.208 133.84 141.507 133.546 141.843 133.35C142.179 133.154 142.557 133.056 142.977 133.056C143.462 133.056 143.887 133.177 144.251 133.42C144.615 133.653 144.89 133.975 145.077 134.386C145.348 133.947 145.67 133.616 146.043 133.392C146.426 133.168 146.864 133.056 147.359 133.056C147.816 133.056 148.218 133.163 148.563 133.378C148.918 133.593 149.193 133.891 149.389 134.274C149.585 134.647 149.683 135.086 149.683 135.59V140H148.661V135.842C148.661 135.245 148.512 134.773 148.213 134.428C147.914 134.083 147.504 133.91 146.981 133.91C146.626 133.91 146.304 133.999 146.015 134.176C145.735 134.353 145.488 134.624 145.273 134.988C145.292 135.081 145.306 135.179 145.315 135.282C145.324 135.385 145.329 135.487 145.329 135.59V140H144.307V135.842C144.307 135.245 144.153 134.773 143.845 134.428C143.546 134.083 143.136 133.91 142.613 133.91C141.913 133.91 141.358 134.246 140.947 134.918V140H139.925ZM154.831 140.14C154.197 140.14 153.623 139.986 153.109 139.678C152.596 139.361 152.19 138.936 151.891 138.404C151.593 137.863 151.443 137.256 151.443 136.584C151.443 135.912 151.583 135.31 151.863 134.778C152.153 134.246 152.54 133.826 153.025 133.518C153.511 133.21 154.052 133.056 154.649 133.056C155.256 133.056 155.793 133.21 156.259 133.518C156.735 133.817 157.109 134.227 157.379 134.75C157.659 135.263 157.799 135.847 157.799 136.5V136.808H152.437C152.475 137.275 152.601 137.695 152.815 138.068C153.039 138.432 153.329 138.721 153.683 138.936C154.047 139.141 154.444 139.244 154.873 139.244C155.228 139.244 155.569 139.183 155.895 139.062C156.231 138.931 156.516 138.759 156.749 138.544L157.393 139.23C157.001 139.538 156.595 139.767 156.175 139.916C155.755 140.065 155.307 140.14 154.831 140.14ZM152.465 136.08H156.791C156.745 135.669 156.619 135.305 156.413 134.988C156.217 134.661 155.965 134.405 155.657 134.218C155.359 134.031 155.023 133.938 154.649 133.938C154.276 133.938 153.935 134.031 153.627 134.218C153.319 134.395 153.063 134.647 152.857 134.974C152.661 135.291 152.531 135.66 152.465 136.08Z" fill="#4D4D4D"/>
<rect width="327" height="194" transform="translate(38 178)" fill="white"/>
<path d="M193.721 217C202.11 217 209.303 220.937 212.365 226.536C222.057 227.683 229.494 234.109 229.494 241.885C229.494 245.492 227.89 248.798 225.217 251.432C226.703 254.414 228.848 256.727 228.891 256.76C229.503 257.411 229.668 258.363 229.318 259.189C228.959 260.015 228.152 260.551 227.258 260.551C222.047 260.551 217.857 258.577 215.087 256.779C213.24 257.207 211.296 257.439 209.274 257.439C200.895 257.439 193.73 253.512 190.678 247.932C189.735 247.816 188.811 247.66 187.917 247.456C185.147 249.264 180.947 251.228 175.746 251.228C174.852 251.228 174.036 250.693 173.686 249.867C173.326 249.041 173.501 248.088 174.113 247.436C174.164 247.384 176.294 245.075 177.777 242.099C175.104 239.455 173.5 236.15 173.5 232.553C173.5 223.96 182.551 217 193.721 217ZM213.872 231.582C213.901 231.902 213.94 232.223 213.94 232.553C213.94 240.418 206.357 246.892 196.51 247.942C199.338 250.82 204.024 252.773 209.273 252.773C210.877 252.773 212.482 252.589 214.037 252.229L215.972 251.782L217.634 252.861C219.004 253.746 220.405 254.445 221.824 254.941C221.562 254.484 221.299 253.998 221.046 253.503L219.539 250.479L221.94 248.107C223.253 246.805 224.827 244.675 224.827 241.885C224.827 237.103 220.132 232.991 213.872 231.582ZM193.72 221.666C185.292 221.666 178.166 226.653 178.166 232.553C178.166 235.343 179.741 237.472 181.054 238.775L183.465 241.157L181.958 244.18C181.705 244.676 181.442 245.162 181.18 245.619C182.599 245.123 183.999 244.423 185.37 243.539L187.032 242.46L188.957 242.897C190.512 243.257 192.116 243.441 193.72 243.441C202.148 243.441 209.273 238.454 209.273 232.553C209.273 226.653 202.148 221.666 193.72 221.666Z" fill="#707070"/>
<path d="M134.701 302.2C133.581 302.2 132.501 301.98 131.461 301.54C130.421 301.1 129.501 300.48 128.701 299.68L129.981 298.2C130.741 298.947 131.514 299.5 132.301 299.86C133.101 300.22 133.934 300.4 134.801 300.4C135.481 300.4 136.074 300.307 136.581 300.12C137.101 299.92 137.501 299.64 137.781 299.28C138.061 298.92 138.201 298.513 138.201 298.06C138.201 297.433 137.981 296.953 137.541 296.62C137.101 296.287 136.374 296.033 135.361 295.86L133.021 295.48C131.741 295.253 130.781 294.84 130.141 294.24C129.514 293.64 129.201 292.84 129.201 291.84C129.201 291.04 129.414 290.34 129.841 289.74C130.268 289.127 130.868 288.653 131.641 288.32C132.428 287.987 133.334 287.82 134.361 287.82C135.374 287.82 136.368 287.987 137.341 288.32C138.328 288.64 139.214 289.107 140.001 289.72L138.841 291.32C137.334 290.173 135.808 289.6 134.261 289.6C133.354 289.6 132.621 289.793 132.061 290.18C131.501 290.553 131.221 291.053 131.221 291.68C131.221 292.253 131.414 292.693 131.801 293C132.188 293.293 132.828 293.507 133.721 293.64L135.981 294.02C137.461 294.26 138.548 294.693 139.241 295.32C139.934 295.947 140.281 296.807 140.281 297.9C140.281 298.753 140.048 299.507 139.581 300.16C139.114 300.8 138.461 301.3 137.621 301.66C136.781 302.02 135.808 302.2 134.701 302.2ZM146.054 302.18C145.067 302.18 144.314 301.953 143.794 301.5C143.274 301.033 143.014 300.36 143.014 299.48V293.5H140.854V291.82H143.014V289.22L144.994 288.74V291.82H147.994V293.5H144.994V299.02C144.994 299.54 145.107 299.913 145.334 300.14C145.574 300.353 145.96 300.46 146.494 300.46C146.774 300.46 147.02 300.44 147.234 300.4C147.46 300.36 147.7 300.3 147.954 300.22V301.9C147.687 301.993 147.374 302.06 147.014 302.1C146.667 302.153 146.347 302.18 146.054 302.18ZM152.687 302.18C151.954 302.18 151.307 302.053 150.747 301.8C150.187 301.533 149.747 301.167 149.427 300.7C149.107 300.233 148.947 299.693 148.947 299.08C148.947 298.12 149.314 297.367 150.047 296.82C150.78 296.26 151.787 295.98 153.067 295.98C154.067 295.98 154.994 296.173 155.847 296.56V295.48C155.847 294.027 155.02 293.3 153.367 293.3C152.9 293.3 152.414 293.373 151.907 293.52C151.4 293.653 150.834 293.867 150.207 294.16L149.467 292.66C150.24 292.3 150.96 292.04 151.627 291.88C152.294 291.707 152.967 291.62 153.647 291.62C154.967 291.62 155.987 291.933 156.707 292.56C157.44 293.187 157.807 294.08 157.807 295.24V302H155.847V301.12C155.394 301.48 154.907 301.747 154.387 301.92C153.867 302.093 153.3 302.18 152.687 302.18ZM150.867 299.04C150.867 299.533 151.074 299.933 151.487 300.24C151.914 300.547 152.467 300.7 153.147 300.7C154.24 300.7 155.14 300.373 155.847 299.72V298C155.114 297.573 154.24 297.36 153.227 297.36C152.494 297.36 151.914 297.513 151.487 297.82C151.074 298.113 150.867 298.52 150.867 299.04ZM160.112 302V291.82H162.112V293.12C162.432 292.64 162.825 292.267 163.292 292C163.772 291.72 164.312 291.58 164.912 291.58C165.325 291.593 165.665 291.653 165.932 291.76V293.56C165.545 293.413 165.152 293.34 164.752 293.34C164.165 293.34 163.645 293.5 163.192 293.82C162.738 294.127 162.378 294.58 162.112 295.18V302H160.112ZM171.894 302.18C170.907 302.18 170.154 301.953 169.634 301.5C169.114 301.033 168.854 300.36 168.854 299.48V293.5H166.694V291.82H168.854V289.22L170.834 288.74V291.82H173.834V293.5H170.834V299.02C170.834 299.54 170.947 299.913 171.174 300.14C171.414 300.353 171.8 300.46 172.334 300.46C172.614 300.46 172.86 300.44 173.074 300.4C173.3 300.36 173.54 300.3 173.794 300.22V301.9C173.527 301.993 173.214 302.06 172.854 302.1C172.507 302.153 172.187 302.18 171.894 302.18ZM182.707 302.18C181.973 302.18 181.327 302.053 180.767 301.8C180.207 301.533 179.767 301.167 179.447 300.7C179.127 300.233 178.967 299.693 178.967 299.08C178.967 298.12 179.333 297.367 180.067 296.82C180.8 296.26 181.807 295.98 183.087 295.98C184.087 295.98 185.013 296.173 185.867 296.56V295.48C185.867 294.027 185.04 293.3 183.387 293.3C182.92 293.3 182.433 293.373 181.927 293.52C181.42 293.653 180.853 293.867 180.227 294.16L179.487 292.66C180.26 292.3 180.98 292.04 181.647 291.88C182.313 291.707 182.987 291.62 183.667 291.62C184.987 291.62 186.007 291.933 186.727 292.56C187.46 293.187 187.827 294.08 187.827 295.24V302H185.867V301.12C185.413 301.48 184.927 301.747 184.407 301.92C183.887 302.093 183.32 302.18 182.707 302.18ZM180.887 299.04C180.887 299.533 181.093 299.933 181.507 300.24C181.933 300.547 182.487 300.7 183.167 300.7C184.26 300.7 185.16 300.373 185.867 299.72V298C185.133 297.573 184.26 297.36 183.247 297.36C182.513 297.36 181.933 297.513 181.507 297.82C181.093 298.113 180.887 298.52 180.887 299.04ZM194.311 302V291.82H196.311V292.86C197.098 292.033 198.118 291.62 199.371 291.62C200.158 291.62 200.844 291.787 201.431 292.12C202.031 292.453 202.498 292.92 202.831 293.52C203.178 294.12 203.351 294.813 203.351 295.6V302H201.351V295.94C201.351 295.14 201.124 294.513 200.671 294.06C200.218 293.593 199.598 293.36 198.811 293.36C198.278 293.36 197.798 293.473 197.371 293.7C196.944 293.927 196.591 294.253 196.311 294.68V302H194.311ZM210.539 302.18C209.539 302.18 208.632 301.947 207.819 301.48C207.019 301.013 206.379 300.38 205.899 299.58C205.432 298.78 205.199 297.887 205.199 296.9C205.199 295.927 205.425 295.047 205.879 294.26C206.332 293.46 206.945 292.827 207.719 292.36C208.492 291.88 209.352 291.64 210.299 291.64C211.245 291.64 212.085 291.88 212.819 292.36C213.552 292.827 214.132 293.467 214.559 294.28C214.999 295.08 215.219 295.987 215.219 297V297.56H207.199C207.305 298.12 207.512 298.62 207.819 299.06C208.139 299.5 208.539 299.847 209.019 300.1C209.512 300.353 210.045 300.48 210.619 300.48C211.112 300.48 211.585 300.407 212.039 300.26C212.505 300.1 212.892 299.873 213.199 299.58L214.479 300.84C213.879 301.293 213.259 301.633 212.619 301.86C211.992 302.073 211.299 302.18 210.539 302.18ZM207.219 296.06H213.239C213.159 295.527 212.972 295.06 212.679 294.66C212.399 294.247 212.045 293.927 211.619 293.7C211.205 293.46 210.752 293.34 210.259 293.34C209.485 293.34 208.819 293.593 208.259 294.1C207.712 294.593 207.365 295.247 207.219 296.06ZM218.828 302L215.988 291.82H217.928L219.908 299.3L222.228 291.82H223.948L226.268 299.3L228.248 291.82H230.128L227.268 302H225.348L223.068 294.54L220.768 302H218.828ZM240.517 302.18C239.543 302.18 238.657 301.947 237.857 301.48C237.07 301.013 236.443 300.38 235.977 299.58C235.51 298.78 235.277 297.887 235.277 296.9C235.277 295.913 235.51 295.027 235.977 294.24C236.443 293.44 237.07 292.807 237.857 292.34C238.657 291.86 239.543 291.62 240.517 291.62C241.29 291.62 242.03 291.767 242.737 292.06C243.457 292.353 244.077 292.767 244.597 293.3L243.357 294.68C242.97 294.253 242.537 293.933 242.057 293.72C241.577 293.507 241.077 293.4 240.557 293.4C239.943 293.4 239.383 293.553 238.877 293.86C238.383 294.167 237.99 294.587 237.697 295.12C237.403 295.653 237.257 296.247 237.257 296.9C237.257 297.553 237.403 298.153 237.697 298.7C237.99 299.233 238.39 299.653 238.897 299.96C239.403 300.267 239.97 300.42 240.597 300.42C241.623 300.42 242.537 300.013 243.337 299.2L244.557 300.48C244.023 301.027 243.403 301.447 242.697 301.74C242.003 302.033 241.277 302.18 240.517 302.18ZM246.166 302V288L248.166 287.56V292.86C248.953 292.033 249.973 291.62 251.226 291.62C252.013 291.62 252.7 291.787 253.286 292.12C253.886 292.453 254.353 292.92 254.686 293.52C255.033 294.12 255.206 294.813 255.206 295.6V302H253.206V295.94C253.206 295.14 252.98 294.513 252.526 294.06C252.073 293.593 251.453 293.36 250.666 293.36C250.133 293.36 249.653 293.473 249.226 293.7C248.8 293.927 248.446 294.253 248.166 294.68V302H246.166ZM260.734 302.18C260.001 302.18 259.354 302.053 258.794 301.8C258.234 301.533 257.794 301.167 257.474 300.7C257.154 300.233 256.994 299.693 256.994 299.08C256.994 298.12 257.361 297.367 258.094 296.82C258.827 296.26 259.834 295.98 261.114 295.98C262.114 295.98 263.041 296.173 263.894 296.56V295.48C263.894 294.027 263.067 293.3 261.414 293.3C260.947 293.3 260.461 293.373 259.954 293.52C259.447 293.653 258.881 293.867 258.254 294.16L257.514 292.66C258.287 292.3 259.007 292.04 259.674 291.88C260.341 291.707 261.014 291.62 261.694 291.62C263.014 291.62 264.034 291.933 264.754 292.56C265.487 293.187 265.854 294.08 265.854 295.24V302H263.894V301.12C263.441 301.48 262.954 301.747 262.434 301.92C261.914 302.093 261.347 302.18 260.734 302.18ZM258.914 299.04C258.914 299.533 259.121 299.933 259.534 300.24C259.961 300.547 260.514 300.7 261.194 300.7C262.287 300.7 263.187 300.373 263.894 299.72V298C263.161 297.573 262.287 297.36 261.274 297.36C260.541 297.36 259.961 297.513 259.534 297.82C259.121 298.113 258.914 298.52 258.914 299.04ZM272.226 302.18C271.239 302.18 270.486 301.953 269.966 301.5C269.446 301.033 269.186 300.36 269.186 299.48V293.5H267.026V291.82H269.186V289.22L271.166 288.74V291.82H274.166V293.5H271.166V299.02C271.166 299.54 271.279 299.913 271.506 300.14C271.746 300.353 272.132 300.46 272.666 300.46C272.946 300.46 273.192 300.44 273.406 300.4C273.632 300.36 273.872 300.3 274.126 300.22V301.9C273.859 301.993 273.546 302.06 273.186 302.1C272.839 302.153 272.519 302.18 272.226 302.18Z" fill="#151515"/>
<path d="M68.769 342L73.201 330.8H74.673L79.041 342H77.713L76.385 338.48H71.393L70.065 342H68.769ZM71.777 337.504H76.017L73.889 331.92L71.777 337.504ZM83.579 342.128C82.8537 342.128 82.1977 341.952 81.611 341.6C81.035 341.237 80.5763 340.752 80.235 340.144C79.8937 339.525 79.723 338.843 79.723 338.096C79.723 337.339 79.8937 336.656 80.235 336.048C80.5763 335.44 81.035 334.96 81.611 334.608C82.1977 334.245 82.8537 334.064 83.579 334.064C84.155 334.064 84.7043 334.171 85.227 334.384C85.7497 334.597 86.203 334.896 86.587 335.28L85.835 336.096C85.5577 335.787 85.2217 335.547 84.827 335.376C84.4323 335.205 84.0323 335.12 83.627 335.12C83.115 335.12 82.651 335.253 82.235 335.52C81.8297 335.787 81.5043 336.144 81.259 336.592C81.0137 337.04 80.891 337.541 80.891 338.096C80.891 338.651 81.0137 339.152 81.259 339.6C81.5043 340.048 81.8297 340.405 82.235 340.672C82.651 340.939 83.115 341.072 83.627 341.072C84.0323 341.072 84.4323 340.987 84.827 340.816C85.2217 340.635 85.5577 340.395 85.835 340.096L86.587 340.912C86.203 341.296 85.7497 341.595 85.227 341.808C84.7043 342.021 84.155 342.128 83.579 342.128ZM91.4852 342.128C90.7599 342.128 90.1039 341.952 89.5173 341.6C88.9413 341.237 88.4826 340.752 88.1413 340.144C87.7999 339.525 87.6293 338.843 87.6293 338.096C87.6293 337.339 87.7999 336.656 88.1413 336.048C88.4826 335.44 88.9413 334.96 89.5173 334.608C90.1039 334.245 90.7599 334.064 91.4852 334.064C92.0613 334.064 92.6106 334.171 93.1333 334.384C93.6559 334.597 94.1093 334.896 94.4933 335.28L93.7413 336.096C93.4639 335.787 93.1279 335.547 92.7333 335.376C92.3386 335.205 91.9386 335.12 91.5333 335.12C91.0213 335.12 90.5573 335.253 90.1413 335.52C89.7359 335.787 89.4106 336.144 89.1653 336.592C88.9199 337.04 88.7973 337.541 88.7973 338.096C88.7973 338.651 88.9199 339.152 89.1653 339.6C89.4106 340.048 89.7359 340.405 90.1413 340.672C90.5573 340.939 91.0213 341.072 91.5333 341.072C91.9386 341.072 92.3386 340.987 92.7333 340.816C93.1279 340.635 93.4639 340.395 93.7413 340.096L94.4933 340.912C94.1093 341.296 93.6559 341.595 93.1333 341.808C92.6106 342.021 92.0613 342.128 91.4852 342.128ZM99.4075 342.16C98.6822 342.16 98.0262 341.984 97.4395 341.632C96.8528 341.269 96.3888 340.784 96.0475 340.176C95.7062 339.557 95.5355 338.864 95.5355 338.096C95.5355 337.328 95.6955 336.64 96.0155 336.032C96.3462 335.424 96.7888 334.944 97.3435 334.592C97.8982 334.24 98.5168 334.064 99.1995 334.064C99.8928 334.064 100.506 334.24 101.04 334.592C101.584 334.933 102.01 335.403 102.32 336C102.64 336.587 102.8 337.253 102.8 338V338.352H96.6715C96.7142 338.885 96.8582 339.365 97.1035 339.792C97.3595 340.208 97.6902 340.539 98.0955 340.784C98.5115 341.019 98.9648 341.136 99.4555 341.136C99.8608 341.136 100.25 341.067 100.624 340.928C101.008 340.779 101.333 340.581 101.6 340.336L102.336 341.12C101.888 341.472 101.424 341.733 100.944 341.904C100.464 342.075 99.9515 342.16 99.4075 342.16ZM96.7035 337.52H101.648C101.594 337.051 101.45 336.635 101.216 336.272C100.992 335.899 100.704 335.605 100.352 335.392C100.01 335.179 99.6262 335.072 99.1995 335.072C98.7728 335.072 98.3835 335.179 98.0315 335.392C97.6795 335.595 97.3862 335.883 97.1515 336.256C96.9275 336.619 96.7782 337.04 96.7035 337.52ZM107.288 342.16C106.648 342.16 106.056 342.064 105.512 341.872C104.968 341.669 104.504 341.381 104.12 341.008L104.744 340.24C105.213 340.581 105.645 340.832 106.04 340.992C106.435 341.141 106.84 341.216 107.256 341.216C107.821 341.216 108.291 341.083 108.664 340.816C109.037 340.549 109.224 340.208 109.224 339.792C109.224 339.472 109.112 339.221 108.888 339.04C108.675 338.859 108.317 338.72 107.816 338.624L106.536 338.4C105.779 338.261 105.219 338.027 104.856 337.696C104.504 337.365 104.328 336.917 104.328 336.352C104.328 335.904 104.445 335.509 104.68 335.168C104.925 334.827 105.261 334.56 105.688 334.368C106.115 334.165 106.6 334.064 107.144 334.064C107.677 334.064 108.184 334.144 108.664 334.304C109.144 334.453 109.629 334.699 110.12 335.04L109.544 335.856C109.139 335.568 108.733 335.36 108.328 335.232C107.923 335.093 107.512 335.024 107.096 335.024C106.584 335.024 106.173 335.136 105.864 335.36C105.555 335.584 105.4 335.888 105.4 336.272C105.4 336.592 105.496 336.837 105.688 337.008C105.891 337.179 106.243 337.307 106.744 337.392L108.056 337.632C108.845 337.771 109.421 338.011 109.784 338.352C110.147 338.693 110.328 339.152 110.328 339.728C110.328 340.187 110.195 340.603 109.928 340.976C109.661 341.339 109.299 341.627 108.84 341.84C108.381 342.053 107.864 342.16 107.288 342.16ZM114.522 342.16C113.882 342.16 113.29 342.064 112.746 341.872C112.202 341.669 111.738 341.381 111.354 341.008L111.978 340.24C112.448 340.581 112.88 340.832 113.274 340.992C113.669 341.141 114.074 341.216 114.49 341.216C115.056 341.216 115.525 341.083 115.898 340.816C116.272 340.549 116.458 340.208 116.458 339.792C116.458 339.472 116.346 339.221 116.122 339.04C115.909 338.859 115.552 338.72 115.05 338.624L113.77 338.4C113.013 338.261 112.453 338.027 112.09 337.696C111.738 337.365 111.562 336.917 111.562 336.352C111.562 335.904 111.68 335.509 111.914 335.168C112.16 334.827 112.496 334.56 112.922 334.368C113.349 334.165 113.834 334.064 114.378 334.064C114.912 334.064 115.418 334.144 115.898 334.304C116.378 334.453 116.864 334.699 117.354 335.04L116.778 335.856C116.373 335.568 115.968 335.36 115.562 335.232C115.157 335.093 114.746 335.024 114.33 335.024C113.818 335.024 113.408 335.136 113.098 335.36C112.789 335.584 112.634 335.888 112.634 336.272C112.634 336.592 112.73 336.837 112.922 337.008C113.125 337.179 113.477 337.307 113.978 337.392L115.29 337.632C116.08 337.771 116.656 338.011 117.018 338.352C117.381 338.693 117.562 339.152 117.562 339.728C117.562 340.187 117.429 340.603 117.162 340.976C116.896 341.339 116.533 341.627 116.074 341.84C115.616 342.053 115.098 342.16 114.522 342.16ZM126.051 342.16C125.379 342.16 124.867 342 124.515 341.68C124.174 341.349 124.003 340.875 124.003 340.256V335.152H122.387V334.192H124.003V332.048L125.171 331.776V334.192H127.411V335.152H125.171V339.952C125.171 340.368 125.256 340.667 125.427 340.848C125.608 341.029 125.902 341.12 126.307 341.12C126.51 341.12 126.691 341.104 126.851 341.072C127.011 341.04 127.198 340.987 127.411 340.912V341.952C127.198 342.027 126.974 342.08 126.739 342.112C126.504 342.144 126.275 342.16 126.051 342.16ZM129.106 342V334.192H130.274V342H129.106ZM129.698 332.256C129.463 332.256 129.261 332.176 129.09 332.016C128.93 331.845 128.85 331.648 128.85 331.424C128.85 331.2 128.93 331.008 129.09 330.848C129.261 330.677 129.463 330.592 129.698 330.592C129.933 330.592 130.13 330.677 130.29 330.848C130.461 331.008 130.546 331.2 130.546 331.424C130.546 331.648 130.461 331.845 130.29 332.016C130.13 332.176 129.933 332.256 129.698 332.256ZM132.669 342V334.192H133.837V335.408C134.135 334.96 134.477 334.624 134.861 334.4C135.245 334.176 135.677 334.064 136.157 334.064C136.711 334.064 137.197 334.203 137.613 334.48C138.029 334.747 138.343 335.115 138.557 335.584C138.866 335.083 139.234 334.704 139.661 334.448C140.098 334.192 140.599 334.064 141.165 334.064C141.687 334.064 142.146 334.187 142.541 334.432C142.946 334.677 143.261 335.019 143.485 335.456C143.709 335.883 143.821 336.384 143.821 336.96V342H142.653V337.248C142.653 336.565 142.482 336.027 142.141 335.632C141.799 335.237 141.33 335.04 140.733 335.04C140.327 335.04 139.959 335.141 139.629 335.344C139.309 335.547 139.026 335.856 138.781 336.272C138.802 336.379 138.818 336.491 138.829 336.608C138.839 336.725 138.845 336.843 138.845 336.96V342H137.677V337.248C137.677 336.565 137.501 336.027 137.149 335.632C136.807 335.237 136.338 335.04 135.741 335.04C134.941 335.04 134.306 335.424 133.837 336.192V342H132.669ZM149.704 342.16C148.979 342.16 148.323 341.984 147.736 341.632C147.15 341.269 146.686 340.784 146.344 340.176C146.003 339.557 145.832 338.864 145.832 338.096C145.832 337.328 145.992 336.64 146.312 336.032C146.643 335.424 147.086 334.944 147.64 334.592C148.195 334.24 148.814 334.064 149.496 334.064C150.19 334.064 150.803 334.24 151.336 334.592C151.88 334.933 152.307 335.403 152.616 336C152.936 336.587 153.096 337.253 153.096 338V338.352H146.968C147.011 338.885 147.155 339.365 147.4 339.792C147.656 340.208 147.987 340.539 148.392 340.784C148.808 341.019 149.262 341.136 149.752 341.136C150.158 341.136 150.547 341.067 150.92 340.928C151.304 340.779 151.63 340.581 151.896 340.336L152.632 341.12C152.184 341.472 151.72 341.733 151.24 341.904C150.76 342.075 150.248 342.16 149.704 342.16ZM147 337.52H151.944C151.891 337.051 151.747 336.635 151.512 336.272C151.288 335.899 151 335.605 150.648 335.392C150.307 335.179 149.923 335.072 149.496 335.072C149.07 335.072 148.68 335.179 148.328 335.392C147.976 335.595 147.683 335.883 147.448 336.256C147.224 336.619 147.075 337.04 147 337.52ZM155.091 342V330.448L156.259 330.208V342H155.091ZM158.989 345.504C158.744 345.504 158.493 345.467 158.237 345.392V344.352C158.344 344.373 158.456 344.389 158.573 344.4C158.69 344.411 158.792 344.416 158.877 344.416C159.176 344.416 159.421 344.336 159.613 344.176C159.816 344.016 159.986 343.765 160.125 343.424L160.701 342L157.693 334.192H158.989L161.357 340.608L163.869 334.192H165.165L161.229 343.776C161.058 344.192 160.872 344.528 160.669 344.784C160.466 345.04 160.232 345.221 159.965 345.328C159.698 345.445 159.373 345.504 158.989 345.504ZM172.772 342.144C172.218 342.144 171.727 342.043 171.3 341.84C170.874 341.637 170.538 341.36 170.292 341.008C170.058 340.645 169.94 340.229 169.94 339.76C169.94 339.291 170.063 338.885 170.308 338.544C170.554 338.192 170.895 337.92 171.332 337.728C171.77 337.536 172.282 337.44 172.868 337.44C173.316 337.44 173.738 337.488 174.132 337.584C174.538 337.68 174.911 337.835 175.252 338.048V336.976C175.252 336.336 175.082 335.856 174.74 335.536C174.399 335.205 173.898 335.04 173.236 335.04C172.874 335.04 172.5 335.093 172.116 335.2C171.743 335.307 171.327 335.477 170.868 335.712L170.436 334.816C171.482 334.315 172.463 334.064 173.38 334.064C174.351 334.064 175.098 334.304 175.62 334.784C176.143 335.253 176.404 335.931 176.404 336.816V342H175.252V341.088C174.911 341.44 174.532 341.707 174.116 341.888C173.7 342.059 173.252 342.144 172.772 342.144ZM171.06 339.728C171.06 340.187 171.236 340.555 171.588 340.832C171.951 341.109 172.426 341.248 173.012 341.248C173.45 341.248 173.85 341.173 174.212 341.024C174.586 340.875 174.932 340.651 175.252 340.352V338.848C174.922 338.656 174.58 338.517 174.228 338.432C173.876 338.336 173.482 338.288 173.044 338.288C172.447 338.288 171.967 338.421 171.604 338.688C171.242 338.944 171.06 339.291 171.06 339.728ZM181.194 342.16C180.554 342.16 179.962 342.064 179.418 341.872C178.874 341.669 178.41 341.381 178.026 341.008L178.65 340.24C179.119 340.581 179.551 340.832 179.946 340.992C180.341 341.141 180.746 341.216 181.162 341.216C181.727 341.216 182.197 341.083 182.57 340.816C182.943 340.549 183.13 340.208 183.13 339.792C183.13 339.472 183.018 339.221 182.794 339.04C182.581 338.859 182.223 338.72 181.722 338.624L180.442 338.4C179.685 338.261 179.125 338.027 178.762 337.696C178.41 337.365 178.234 336.917 178.234 336.352C178.234 335.904 178.351 335.509 178.586 335.168C178.831 334.827 179.167 334.56 179.594 334.368C180.021 334.165 180.506 334.064 181.05 334.064C181.583 334.064 182.09 334.144 182.57 334.304C183.05 334.453 183.535 334.699 184.026 335.04L183.45 335.856C183.045 335.568 182.639 335.36 182.234 335.232C181.829 335.093 181.418 335.024 181.002 335.024C180.49 335.024 180.079 335.136 179.77 335.36C179.461 335.584 179.306 335.888 179.306 336.272C179.306 336.592 179.402 336.837 179.594 337.008C179.797 337.179 180.149 337.307 180.65 337.392L181.962 337.632C182.751 337.771 183.327 338.011 183.69 338.352C184.053 338.693 184.234 339.152 184.234 339.728C184.234 340.187 184.101 340.603 183.834 340.976C183.567 341.339 183.205 341.627 182.746 341.84C182.287 342.053 181.77 342.16 181.194 342.16ZM188.429 342.16C187.789 342.16 187.197 342.064 186.653 341.872C186.109 341.669 185.645 341.381 185.261 341.008L185.885 340.24C186.354 340.581 186.786 340.832 187.181 340.992C187.575 341.141 187.981 341.216 188.397 341.216C188.962 341.216 189.431 341.083 189.805 340.816C190.178 340.549 190.365 340.208 190.365 339.792C190.365 339.472 190.253 339.221 190.029 339.04C189.815 338.859 189.458 338.72 188.957 338.624L187.677 338.4C186.919 338.261 186.359 338.027 185.997 337.696C185.645 337.365 185.469 336.917 185.469 336.352C185.469 335.904 185.586 335.509 185.821 335.168C186.066 334.827 186.402 334.56 186.829 334.368C187.255 334.165 187.741 334.064 188.285 334.064C188.818 334.064 189.325 334.144 189.805 334.304C190.285 334.453 190.77 334.699 191.261 335.04L190.685 335.856C190.279 335.568 189.874 335.36 189.469 335.232C189.063 335.093 188.653 335.024 188.237 335.024C187.725 335.024 187.314 335.136 187.005 335.36C186.695 335.584 186.541 335.888 186.541 336.272C186.541 336.592 186.637 336.837 186.829 337.008C187.031 337.179 187.383 337.307 187.885 337.392L189.197 337.632C189.986 337.771 190.562 338.011 190.925 338.352C191.287 338.693 191.469 339.152 191.469 339.728C191.469 340.187 191.335 340.603 191.069 340.976C190.802 341.339 190.439 341.627 189.981 341.84C189.522 342.053 189.005 342.16 188.429 342.16ZM193.231 342V334.192H194.399V342H193.231ZM193.823 332.256C193.588 332.256 193.386 332.176 193.215 332.016C193.055 331.845 192.975 331.648 192.975 331.424C192.975 331.2 193.055 331.008 193.215 330.848C193.386 330.677 193.588 330.592 193.823 330.592C194.058 330.592 194.255 330.677 194.415 330.848C194.586 331.008 194.671 331.2 194.671 331.424C194.671 331.648 194.586 331.845 194.415 332.016C194.255 332.176 194.058 332.256 193.823 332.256ZM199.21 342.16C198.57 342.16 197.978 342.064 197.434 341.872C196.89 341.669 196.426 341.381 196.042 341.008L196.666 340.24C197.135 340.581 197.567 340.832 197.962 340.992C198.356 341.141 198.762 341.216 199.178 341.216C199.743 341.216 200.212 341.083 200.586 340.816C200.959 340.549 201.146 340.208 201.146 339.792C201.146 339.472 201.034 339.221 200.81 339.04C200.596 338.859 200.239 338.72 199.738 338.624L198.458 338.4C197.7 338.261 197.14 338.027 196.778 337.696C196.426 337.365 196.25 336.917 196.25 336.352C196.25 335.904 196.367 335.509 196.602 335.168C196.847 334.827 197.183 334.56 197.61 334.368C198.036 334.165 198.522 334.064 199.066 334.064C199.599 334.064 200.106 334.144 200.586 334.304C201.066 334.453 201.551 334.699 202.042 335.04L201.466 335.856C201.06 335.568 200.655 335.36 200.25 335.232C199.844 335.093 199.434 335.024 199.018 335.024C198.506 335.024 198.095 335.136 197.786 335.36C197.476 335.584 197.322 335.888 197.322 336.272C197.322 336.592 197.418 336.837 197.61 337.008C197.812 337.179 198.164 337.307 198.666 337.392L199.978 337.632C200.767 337.771 201.343 338.011 201.706 338.352C202.068 338.693 202.25 339.152 202.25 339.728C202.25 340.187 202.116 340.603 201.85 340.976C201.583 341.339 201.22 341.627 200.762 341.84C200.303 342.053 199.786 342.16 199.21 342.16ZM206.848 342.16C206.176 342.16 205.664 342 205.312 341.68C204.971 341.349 204.8 340.875 204.8 340.256V335.152H203.184V334.192H204.8V332.048L205.968 331.776V334.192H208.208V335.152H205.968V339.952C205.968 340.368 206.053 340.667 206.224 340.848C206.405 341.029 206.699 341.12 207.104 341.12C207.307 341.12 207.488 341.104 207.648 341.072C207.808 341.04 207.995 340.987 208.208 340.912V341.952C207.995 342.027 207.771 342.08 207.536 342.112C207.301 342.144 207.072 342.16 206.848 342.16ZM212.335 342.144C211.78 342.144 211.289 342.043 210.863 341.84C210.436 341.637 210.1 341.36 209.855 341.008C209.62 340.645 209.503 340.229 209.503 339.76C209.503 339.291 209.625 338.885 209.871 338.544C210.116 338.192 210.457 337.92 210.895 337.728C211.332 337.536 211.844 337.44 212.431 337.44C212.879 337.44 213.3 337.488 213.695 337.584C214.1 337.68 214.473 337.835 214.815 338.048V336.976C214.815 336.336 214.644 335.856 214.303 335.536C213.961 335.205 213.46 335.04 212.799 335.04C212.436 335.04 212.063 335.093 211.679 335.2C211.305 335.307 210.889 335.477 210.431 335.712L209.999 334.816C211.044 334.315 212.025 334.064 212.943 334.064C213.913 334.064 214.66 334.304 215.183 334.784C215.705 335.253 215.967 335.931 215.967 336.816V342H214.815V341.088C214.473 341.44 214.095 341.707 213.679 341.888C213.263 342.059 212.815 342.144 212.335 342.144ZM210.623 339.728C210.623 340.187 210.799 340.555 211.151 340.832C211.513 341.109 211.988 341.248 212.575 341.248C213.012 341.248 213.412 341.173 213.775 341.024C214.148 340.875 214.495 340.651 214.815 340.352V338.848C214.484 338.656 214.143 338.517 213.791 338.432C213.439 338.336 213.044 338.288 212.607 338.288C212.009 338.288 211.529 338.421 211.167 338.688C210.804 338.944 210.623 339.291 210.623 339.728ZM218.341 342V334.192H219.509V335.456C219.807 334.987 220.165 334.64 220.581 334.416C220.997 334.181 221.466 334.064 221.989 334.064C222.554 334.064 223.045 334.187 223.461 334.432C223.887 334.667 224.218 335.003 224.453 335.44C224.698 335.867 224.821 336.368 224.821 336.944V342H223.653V337.28C223.653 336.587 223.461 336.043 223.077 335.648C222.703 335.243 222.197 335.04 221.557 335.04C221.13 335.04 220.741 335.141 220.389 335.344C220.037 335.547 219.743 335.845 219.509 336.24V342H218.341ZM230.673 342.128C229.947 342.128 229.291 341.952 228.705 341.6C228.129 341.237 227.67 340.752 227.329 340.144C226.987 339.525 226.817 338.843 226.817 338.096C226.817 337.339 226.987 336.656 227.329 336.048C227.67 335.44 228.129 334.96 228.705 334.608C229.291 334.245 229.947 334.064 230.673 334.064C231.249 334.064 231.798 334.171 232.321 334.384C232.843 334.597 233.297 334.896 233.681 335.28L232.929 336.096C232.651 335.787 232.315 335.547 231.921 335.376C231.526 335.205 231.126 335.12 230.721 335.12C230.209 335.12 229.745 335.253 229.329 335.52C228.923 335.787 228.598 336.144 228.353 336.592C228.107 337.04 227.985 337.541 227.985 338.096C227.985 338.651 228.107 339.152 228.353 339.6C228.598 340.048 228.923 340.405 229.329 340.672C229.745 340.939 230.209 341.072 230.721 341.072C231.126 341.072 231.526 340.987 231.921 340.816C232.315 340.635 232.651 340.395 232.929 340.096L233.681 340.912C233.297 341.296 232.843 341.595 232.321 341.808C231.798 342.021 231.249 342.128 230.673 342.128ZM238.595 342.16C237.87 342.16 237.214 341.984 236.627 341.632C236.04 341.269 235.576 340.784 235.235 340.176C234.894 339.557 234.723 338.864 234.723 338.096C234.723 337.328 234.883 336.64 235.203 336.032C235.534 335.424 235.976 334.944 236.531 334.592C237.086 334.24 237.704 334.064 238.387 334.064C239.08 334.064 239.694 334.24 240.227 334.592C240.771 334.933 241.198 335.403 241.507 336C241.827 336.587 241.987 337.253 241.987 338V338.352H235.859C235.902 338.885 236.046 339.365 236.291 339.792C236.547 340.208 236.878 340.539 237.283 340.784C237.699 341.019 238.152 341.136 238.643 341.136C239.048 341.136 239.438 341.067 239.811 340.928C240.195 340.779 240.52 340.581 240.787 340.336L241.523 341.12C241.075 341.472 240.611 341.733 240.131 341.904C239.651 342.075 239.139 342.16 238.595 342.16ZM235.891 337.52H240.835C240.782 337.051 240.638 336.635 240.403 336.272C240.179 335.899 239.891 335.605 239.539 335.392C239.198 335.179 238.814 335.072 238.387 335.072C237.96 335.072 237.571 335.179 237.219 335.392C236.867 335.595 236.574 335.883 236.339 336.256C236.115 336.619 235.966 337.04 235.891 337.52ZM247.716 342V330.56L248.884 330.32V335.264C249.182 334.891 249.545 334.603 249.972 334.4C250.398 334.197 250.873 334.096 251.396 334.096C252.078 334.096 252.686 334.277 253.22 334.64C253.764 334.992 254.196 335.472 254.516 336.08C254.836 336.677 254.996 337.349 254.996 338.096C254.996 338.843 254.83 339.52 254.5 340.128C254.18 340.736 253.742 341.221 253.188 341.584C252.644 341.936 252.025 342.112 251.332 342.112C250.841 342.112 250.382 342.016 249.956 341.824C249.54 341.621 249.177 341.339 248.868 340.976V342H247.716ZM251.108 341.104C251.63 341.104 252.094 340.976 252.5 340.72C252.916 340.453 253.241 340.096 253.476 339.648C253.721 339.189 253.844 338.677 253.844 338.112C253.844 337.536 253.721 337.024 253.476 336.576C253.241 336.128 252.916 335.776 252.5 335.52C252.094 335.253 251.63 335.12 251.108 335.12C250.649 335.12 250.222 335.216 249.828 335.408C249.444 335.589 249.129 335.851 248.884 336.192V340.016C249.14 340.357 249.46 340.624 249.844 340.816C250.238 341.008 250.66 341.104 251.108 341.104ZM257.145 345.504C256.9 345.504 256.649 345.467 256.393 345.392V344.352C256.5 344.373 256.612 344.389 256.729 344.4C256.847 344.411 256.948 344.416 257.033 344.416C257.332 344.416 257.577 344.336 257.769 344.176C257.972 344.016 258.143 343.765 258.281 343.424L258.857 342L255.849 334.192H257.145L259.513 340.608L262.025 334.192H263.321L259.385 343.776C259.215 344.192 259.028 344.528 258.825 344.784C258.623 345.04 258.388 345.221 258.121 345.328C257.855 345.445 257.529 345.504 257.145 345.504ZM270.929 342.16C270.289 342.16 269.697 342.064 269.153 341.872C268.609 341.669 268.145 341.381 267.761 341.008L268.385 340.24C268.854 340.581 269.286 340.832 269.681 340.992C270.075 341.141 270.481 341.216 270.897 341.216C271.462 341.216 271.931 341.083 272.305 340.816C272.678 340.549 272.865 340.208 272.865 339.792C272.865 339.472 272.753 339.221 272.529 339.04C272.315 338.859 271.958 338.72 271.457 338.624L270.177 338.4C269.419 338.261 268.859 338.027 268.497 337.696C268.145 337.365 267.969 336.917 267.969 336.352C267.969 335.904 268.086 335.509 268.321 335.168C268.566 334.827 268.902 334.56 269.329 334.368C269.755 334.165 270.241 334.064 270.785 334.064C271.318 334.064 271.825 334.144 272.305 334.304C272.785 334.453 273.27 334.699 273.761 335.04L273.185 335.856C272.779 335.568 272.374 335.36 271.969 335.232C271.563 335.093 271.153 335.024 270.737 335.024C270.225 335.024 269.814 335.136 269.505 335.36C269.195 335.584 269.041 335.888 269.041 336.272C269.041 336.592 269.137 336.837 269.329 337.008C269.531 337.179 269.883 337.307 270.385 337.392L271.697 337.632C272.486 337.771 273.062 338.011 273.425 338.352C273.787 338.693 273.969 339.152 273.969 339.728C273.969 340.187 273.835 340.603 273.569 340.976C273.302 341.339 272.939 341.627 272.481 341.84C272.022 342.053 271.505 342.16 270.929 342.16ZM278.567 342.16C277.895 342.16 277.383 342 277.031 341.68C276.689 341.349 276.519 340.875 276.519 340.256V335.152H274.903V334.192H276.519V332.048L277.687 331.776V334.192H279.927V335.152H277.687V339.952C277.687 340.368 277.772 340.667 277.943 340.848C278.124 341.029 278.417 341.12 278.823 341.12C279.025 341.12 279.207 341.104 279.367 341.072C279.527 341.04 279.713 340.987 279.927 340.912V341.952C279.713 342.027 279.489 342.08 279.255 342.112C279.02 342.144 278.791 342.16 278.567 342.16ZM284.054 342.144C283.499 342.144 283.008 342.043 282.582 341.84C282.155 341.637 281.819 341.36 281.574 341.008C281.339 340.645 281.222 340.229 281.222 339.76C281.222 339.291 281.344 338.885 281.59 338.544C281.835 338.192 282.176 337.92 282.614 337.728C283.051 337.536 283.563 337.44 284.15 337.44C284.598 337.44 285.019 337.488 285.414 337.584C285.819 337.68 286.192 337.835 286.534 338.048V336.976C286.534 336.336 286.363 335.856 286.022 335.536C285.68 335.205 285.179 335.04 284.518 335.04C284.155 335.04 283.782 335.093 283.398 335.2C283.024 335.307 282.608 335.477 282.15 335.712L281.718 334.816C282.763 334.315 283.744 334.064 284.661 334.064C285.632 334.064 286.379 334.304 286.902 334.784C287.424 335.253 287.686 335.931 287.686 336.816V342H286.534V341.088C286.192 341.44 285.814 341.707 285.398 341.888C284.982 342.059 284.534 342.144 284.054 342.144ZM282.342 339.728C282.342 340.187 282.518 340.555 282.87 340.832C283.232 341.109 283.707 341.248 284.294 341.248C284.731 341.248 285.131 341.173 285.494 341.024C285.867 340.875 286.214 340.651 286.534 340.352V338.848C286.203 338.656 285.862 338.517 285.51 338.432C285.158 338.336 284.763 338.288 284.326 338.288C283.728 338.288 283.248 338.421 282.886 338.688C282.523 338.944 282.342 339.291 282.342 339.728ZM290.059 342V334.192H291.227V335.792C291.43 335.248 291.718 334.827 292.091 334.528C292.475 334.219 292.913 334.064 293.403 334.064C293.542 334.064 293.67 334.075 293.787 334.096C293.905 334.107 294.022 334.133 294.139 334.176V335.232C294.011 335.189 293.873 335.157 293.723 335.136C293.585 335.104 293.451 335.088 293.323 335.088C292.843 335.088 292.422 335.227 292.059 335.504C291.707 335.781 291.43 336.171 291.227 336.672V342H290.059ZM298.66 342.16C297.988 342.16 297.476 342 297.124 341.68C296.783 341.349 296.612 340.875 296.612 340.256V335.152H294.996V334.192H296.612V332.048L297.78 331.776V334.192H300.02V335.152H297.78V339.952C297.78 340.368 297.866 340.667 298.036 340.848C298.218 341.029 298.511 341.12 298.916 341.12C299.119 341.12 299.3 341.104 299.46 341.072C299.62 341.04 299.807 340.987 300.02 340.912V341.952C299.807 342.027 299.583 342.08 299.348 342.112C299.114 342.144 298.884 342.16 298.66 342.16ZM301.715 342V334.192H302.883V342H301.715ZM302.307 332.256C302.073 332.256 301.87 332.176 301.699 332.016C301.539 331.845 301.459 331.648 301.459 331.424C301.459 331.2 301.539 331.008 301.699 330.848C301.87 330.677 302.073 330.592 302.307 330.592C302.542 330.592 302.739 330.677 302.899 330.848C303.07 331.008 303.155 331.2 303.155 331.424C303.155 331.648 303.07 331.845 302.899 332.016C302.739 332.176 302.542 332.256 302.307 332.256ZM305.278 342V334.192H306.446V335.456C306.745 334.987 307.102 334.64 307.518 334.416C307.934 334.181 308.403 334.064 308.926 334.064C309.491 334.064 309.982 334.187 310.398 334.432C310.825 334.667 311.155 335.003 311.39 335.44C311.635 335.867 311.758 336.368 311.758 336.944V342H310.59V337.28C310.59 336.587 310.398 336.043 310.014 335.648C309.641 335.243 309.134 335.04 308.494 335.04C308.067 335.04 307.678 335.141 307.326 335.344C306.974 335.547 306.681 335.845 306.446 336.24V342H305.278ZM317.722 345.504C317.2 345.504 316.672 345.429 316.138 345.28C315.616 345.141 315.13 344.944 314.682 344.688L315.178 343.792C315.658 344.037 316.096 344.219 316.49 344.336C316.885 344.453 317.28 344.512 317.674 344.512C318.389 344.512 318.928 344.341 319.29 344C319.664 343.659 319.85 343.163 319.85 342.512V340.944C319.552 341.317 319.189 341.605 318.762 341.808C318.336 342 317.866 342.096 317.354 342.096C316.682 342.096 316.074 341.92 315.53 341.568C314.986 341.205 314.554 340.725 314.234 340.128C313.914 339.52 313.754 338.843 313.754 338.096C313.754 337.349 313.914 336.677 314.234 336.08C314.565 335.472 315.008 334.992 315.562 334.64C316.117 334.277 316.736 334.096 317.418 334.096C317.909 334.096 318.362 334.192 318.778 334.384C319.194 334.565 319.557 334.837 319.866 335.2V334.192H321.018V342.496C321.018 343.467 320.736 344.208 320.17 344.72C319.605 345.243 318.789 345.504 317.722 345.504ZM317.642 341.088C318.101 341.088 318.522 340.997 318.906 340.816C319.29 340.624 319.605 340.363 319.85 340.032V336.176C319.594 335.845 319.269 335.589 318.874 335.408C318.49 335.216 318.08 335.12 317.642 335.12C317.12 335.12 316.65 335.248 316.234 335.504C315.829 335.76 315.504 336.112 315.258 336.56C315.024 337.008 314.906 337.52 314.906 338.096C314.906 338.661 315.024 339.173 315.258 339.632C315.504 340.08 315.829 340.437 316.234 340.704C316.65 340.96 317.12 341.088 317.642 341.088ZM329.569 342.144C329.014 342.144 328.524 342.043 328.097 341.84C327.67 341.637 327.334 341.36 327.089 341.008C326.854 340.645 326.737 340.229 326.737 339.76C326.737 339.291 326.86 338.885 327.105 338.544C327.35 338.192 327.692 337.92 328.129 337.728C328.566 337.536 329.078 337.44 329.665 337.44C330.113 337.44 330.534 337.488 330.929 337.584C331.334 337.68 331.708 337.835 332.049 338.048V336.976C332.049 336.336 331.878 335.856 331.537 335.536C331.196 335.205 330.694 335.04 330.033 335.04C329.67 335.04 329.297 335.093 328.913 335.2C328.54 335.307 328.124 335.477 327.665 335.712L327.233 334.816C328.278 334.315 329.26 334.064 330.177 334.064C331.148 334.064 331.894 334.304 332.417 334.784C332.94 335.253 333.201 335.931 333.201 336.816V342H332.049V341.088C331.708 341.44 331.329 341.707 330.913 341.888C330.497 342.059 330.049 342.144 329.569 342.144ZM327.857 339.728C327.857 340.187 328.033 340.555 328.385 340.832C328.748 341.109 329.222 341.248 329.809 341.248C330.246 341.248 330.646 341.173 331.009 341.024C331.382 340.875 331.729 340.651 332.049 340.352V338.848C331.718 338.656 331.377 338.517 331.025 338.432C330.673 338.336 330.278 338.288 329.841 338.288C329.244 338.288 328.764 338.421 328.401 338.688C328.038 338.944 327.857 339.291 327.857 339.728ZM98.1493 366.128C97.424 366.128 96.768 365.952 96.1813 365.6C95.6053 365.237 95.1466 364.752 94.8053 364.144C94.464 363.525 94.2933 362.843 94.2933 362.096C94.2933 361.339 94.464 360.656 94.8053 360.048C95.1466 359.44 95.6053 358.96 96.1813 358.608C96.768 358.245 97.424 358.064 98.1493 358.064C98.7253 358.064 99.2746 358.171 99.7973 358.384C100.32 358.597 100.773 358.896 101.157 359.28L100.405 360.096C100.128 359.787 99.792 359.547 99.3973 359.376C99.0026 359.205 98.6026 359.12 98.1973 359.12C97.6853 359.12 97.2213 359.253 96.8053 359.52C96.4 359.787 96.0746 360.144 95.8293 360.592C95.584 361.04 95.4613 361.541 95.4613 362.096C95.4613 362.651 95.584 363.152 95.8293 363.6C96.0746 364.048 96.4 364.405 96.8053 364.672C97.2213 364.939 97.6853 365.072 98.1973 365.072C98.6026 365.072 99.0026 364.987 99.3973 364.816C99.792 364.635 100.128 364.395 100.405 364.096L101.157 364.912C100.773 365.296 100.32 365.595 99.7973 365.808C99.2746 366.021 98.7253 366.128 98.1493 366.128ZM106.008 366.128C105.282 366.128 104.632 365.952 104.056 365.6C103.48 365.248 103.026 364.768 102.696 364.16C102.365 363.552 102.2 362.864 102.2 362.096C102.2 361.328 102.365 360.64 102.696 360.032C103.026 359.424 103.48 358.944 104.056 358.592C104.632 358.24 105.282 358.064 106.008 358.064C106.722 358.064 107.362 358.24 107.928 358.592C108.504 358.944 108.957 359.424 109.288 360.032C109.618 360.64 109.784 361.328 109.784 362.096C109.784 362.864 109.618 363.552 109.288 364.16C108.957 364.768 108.504 365.248 107.928 365.6C107.362 365.952 106.722 366.128 106.008 366.128ZM105.992 365.104C106.504 365.104 106.957 364.976 107.352 364.72C107.746 364.453 108.056 364.091 108.28 363.632C108.514 363.173 108.632 362.661 108.632 362.096C108.632 361.52 108.514 361.008 108.28 360.56C108.056 360.101 107.746 359.744 107.352 359.488C106.957 359.221 106.504 359.088 105.992 359.088C105.48 359.088 105.026 359.221 104.632 359.488C104.237 359.744 103.922 360.101 103.688 360.56C103.464 361.008 103.352 361.52 103.352 362.096C103.352 362.661 103.464 363.173 103.688 363.632C103.922 364.091 104.237 364.453 104.632 364.72C105.026 364.976 105.48 365.104 105.992 365.104ZM111.833 366V358.192H113.001V359.456C113.299 358.987 113.657 358.64 114.073 358.416C114.489 358.181 114.958 358.064 115.481 358.064C116.046 358.064 116.537 358.187 116.953 358.432C117.379 358.667 117.71 359.003 117.945 359.44C118.19 359.867 118.313 360.368 118.313 360.944V366H117.145V361.28C117.145 360.587 116.953 360.043 116.569 359.648C116.195 359.243 115.689 359.04 115.049 359.04C114.622 359.04 114.233 359.141 113.881 359.344C113.529 359.547 113.235 359.845 113.001 360.24V366H111.833ZM122.588 366L119.388 358.192H120.652L123.18 364.544L125.676 358.192H126.924L123.708 366H122.588ZM131.65 366.16C130.924 366.16 130.268 365.984 129.682 365.632C129.095 365.269 128.631 364.784 128.29 364.176C127.948 363.557 127.778 362.864 127.778 362.096C127.778 361.328 127.938 360.64 128.258 360.032C128.588 359.424 129.031 358.944 129.586 358.592C130.14 358.24 130.759 358.064 131.442 358.064C132.135 358.064 132.748 358.24 133.282 358.592C133.826 358.933 134.252 359.403 134.562 360C134.882 360.587 135.042 361.253 135.042 362V362.352H128.914C128.956 362.885 129.1 363.365 129.346 363.792C129.602 364.208 129.932 364.539 130.338 364.784C130.754 365.019 131.207 365.136 131.698 365.136C132.103 365.136 132.492 365.067 132.866 364.928C133.25 364.779 133.575 364.581 133.842 364.336L134.578 365.12C134.13 365.472 133.666 365.733 133.186 365.904C132.706 366.075 132.194 366.16 131.65 366.16ZM128.946 361.52H133.89C133.836 361.051 133.692 360.635 133.458 360.272C133.234 359.899 132.946 359.605 132.594 359.392C132.252 359.179 131.868 359.072 131.442 359.072C131.015 359.072 130.626 359.179 130.274 359.392C129.922 359.595 129.628 359.883 129.394 360.256C129.17 360.619 129.02 361.04 128.946 361.52ZM137.036 366V358.192H138.204V359.792C138.407 359.248 138.695 358.827 139.068 358.528C139.452 358.219 139.889 358.064 140.38 358.064C140.519 358.064 140.647 358.075 140.764 358.096C140.881 358.107 140.999 358.133 141.116 358.176V359.232C140.988 359.189 140.849 359.157 140.7 359.136C140.561 359.104 140.428 359.088 140.3 359.088C139.82 359.088 139.399 359.227 139.036 359.504C138.684 359.781 138.407 360.171 138.204 360.672V366H137.036ZM144.999 366.16C144.359 366.16 143.767 366.064 143.223 365.872C142.679 365.669 142.215 365.381 141.831 365.008L142.455 364.24C142.924 364.581 143.356 364.832 143.751 364.992C144.145 365.141 144.551 365.216 144.967 365.216C145.532 365.216 146.001 365.083 146.375 364.816C146.748 364.549 146.935 364.208 146.935 363.792C146.935 363.472 146.823 363.221 146.599 363.04C146.385 362.859 146.028 362.72 145.527 362.624L144.247 362.4C143.489 362.261 142.929 362.027 142.567 361.696C142.215 361.365 142.039 360.917 142.039 360.352C142.039 359.904 142.156 359.509 142.391 359.168C142.636 358.827 142.972 358.56 143.399 358.368C143.825 358.165 144.311 358.064 144.855 358.064C145.388 358.064 145.895 358.144 146.375 358.304C146.855 358.453 147.34 358.699 147.831 359.04L147.255 359.856C146.849 359.568 146.444 359.36 146.039 359.232C145.633 359.093 145.223 359.024 144.807 359.024C144.295 359.024 143.884 359.136 143.575 359.36C143.265 359.584 143.111 359.888 143.111 360.272C143.111 360.592 143.207 360.837 143.399 361.008C143.601 361.179 143.953 361.307 144.455 361.392L145.767 361.632C146.556 361.771 147.132 362.011 147.495 362.352C147.857 362.693 148.039 363.152 148.039 363.728C148.039 364.187 147.905 364.603 147.639 364.976C147.372 365.339 147.009 365.627 146.551 365.84C146.092 366.053 145.575 366.16 144.999 366.16ZM152.311 366.144C151.757 366.144 151.266 366.043 150.839 365.84C150.413 365.637 150.077 365.36 149.831 365.008C149.597 364.645 149.479 364.229 149.479 363.76C149.479 363.291 149.602 362.885 149.847 362.544C150.093 362.192 150.434 361.92 150.871 361.728C151.309 361.536 151.821 361.44 152.407 361.44C152.855 361.44 153.277 361.488 153.671 361.584C154.077 361.68 154.45 361.835 154.791 362.048V360.976C154.791 360.336 154.621 359.856 154.279 359.536C153.938 359.205 153.437 359.04 152.775 359.04C152.413 359.04 152.039 359.093 151.655 359.2C151.282 359.307 150.866 359.477 150.407 359.712L149.975 358.816C151.021 358.315 152.002 358.064 152.919 358.064C153.89 358.064 154.637 358.304 155.159 358.784C155.682 359.253 155.943 359.931 155.943 360.816V366H154.791V365.088C154.45 365.44 154.071 365.707 153.655 365.888C153.239 366.059 152.791 366.144 152.311 366.144ZM150.599 363.728C150.599 364.187 150.775 364.555 151.127 364.832C151.49 365.109 151.965 365.248 152.551 365.248C152.989 365.248 153.389 365.173 153.751 365.024C154.125 364.875 154.471 364.651 154.791 364.352V362.848C154.461 362.656 154.119 362.517 153.767 362.432C153.415 362.336 153.021 362.288 152.583 362.288C151.986 362.288 151.506 362.421 151.143 362.688C150.781 362.944 150.599 363.291 150.599 363.728ZM161.059 366.16C160.387 366.16 159.875 366 159.523 365.68C159.181 365.349 159.011 364.875 159.011 364.256V359.152H157.395V358.192H159.011V356.048L160.179 355.776V358.192H162.419V359.152H160.179V363.952C160.179 364.368 160.264 364.667 160.435 364.848C160.616 365.029 160.909 365.12 161.315 365.12C161.517 365.12 161.699 365.104 161.859 365.072C162.019 365.04 162.205 364.987 162.419 364.912V365.952C162.205 366.027 161.981 366.08 161.747 366.112C161.512 366.144 161.283 366.16 161.059 366.16ZM164.114 366V358.192H165.282V366H164.114ZM164.706 356.256C164.471 356.256 164.268 356.176 164.098 356.016C163.938 355.845 163.858 355.648 163.858 355.424C163.858 355.2 163.938 355.008 164.098 354.848C164.268 354.677 164.471 354.592 164.706 354.592C164.94 354.592 165.138 354.677 165.298 354.848C165.468 355.008 165.554 355.2 165.554 355.424C165.554 355.648 165.468 355.845 165.298 356.016C165.138 356.176 164.94 356.256 164.706 356.256ZM171.133 366.128C170.407 366.128 169.757 365.952 169.181 365.6C168.605 365.248 168.151 364.768 167.821 364.16C167.49 363.552 167.325 362.864 167.325 362.096C167.325 361.328 167.49 360.64 167.821 360.032C168.151 359.424 168.605 358.944 169.181 358.592C169.757 358.24 170.407 358.064 171.133 358.064C171.847 358.064 172.487 358.24 173.053 358.592C173.629 358.944 174.082 359.424 174.413 360.032C174.743 360.64 174.909 361.328 174.909 362.096C174.909 362.864 174.743 363.552 174.413 364.16C174.082 364.768 173.629 365.248 173.053 365.6C172.487 365.952 171.847 366.128 171.133 366.128ZM171.117 365.104C171.629 365.104 172.082 364.976 172.477 364.72C172.871 364.453 173.181 364.091 173.405 363.632C173.639 363.173 173.757 362.661 173.757 362.096C173.757 361.52 173.639 361.008 173.405 360.56C173.181 360.101 172.871 359.744 172.477 359.488C172.082 359.221 171.629 359.088 171.117 359.088C170.605 359.088 170.151 359.221 169.757 359.488C169.362 359.744 169.047 360.101 168.813 360.56C168.589 361.008 168.477 361.52 168.477 362.096C168.477 362.661 168.589 363.173 168.813 363.632C169.047 364.091 169.362 364.453 169.757 364.72C170.151 364.976 170.605 365.104 171.117 365.104ZM176.958 366V358.192H178.126V359.456C178.424 358.987 178.782 358.64 179.198 358.416C179.614 358.181 180.083 358.064 180.606 358.064C181.171 358.064 181.662 358.187 182.078 358.432C182.504 358.667 182.835 359.003 183.07 359.44C183.315 359.867 183.438 360.368 183.438 360.944V366H182.27V361.28C182.27 360.587 182.078 360.043 181.694 359.648C181.32 359.243 180.814 359.04 180.174 359.04C179.747 359.04 179.358 359.141 179.006 359.344C178.654 359.547 178.36 359.845 178.126 360.24V366H176.958ZM190.912 366L188.768 358.192H189.904L191.536 364.432L193.408 358.192H194.448L196.32 364.432L197.936 358.192H199.04L196.912 366H195.776L193.92 359.696L192.064 366H190.912ZM200.676 366V358.192H201.844V366H200.676ZM201.268 356.256C201.034 356.256 200.831 356.176 200.66 356.016C200.5 355.845 200.42 355.648 200.42 355.424C200.42 355.2 200.5 355.008 200.66 354.848C200.831 354.677 201.034 354.592 201.268 354.592C201.503 354.592 201.7 354.677 201.86 354.848C202.031 355.008 202.116 355.2 202.116 355.424C202.116 355.648 202.031 355.845 201.86 356.016C201.7 356.176 201.503 356.256 201.268 356.256ZM207.215 366.16C206.543 366.16 206.031 366 205.679 365.68C205.338 365.349 205.167 364.875 205.167 364.256V359.152H203.551V358.192H205.167V356.048L206.335 355.776V358.192H208.575V359.152H206.335V363.952C206.335 364.368 206.42 364.667 206.591 364.848C206.772 365.029 207.066 365.12 207.471 365.12C207.674 365.12 207.855 365.104 208.015 365.072C208.175 365.04 208.362 364.987 208.575 364.912V365.952C208.362 366.027 208.138 366.08 207.903 366.112C207.668 366.144 207.439 366.16 207.215 366.16ZM210.286 366V354.448L211.454 354.208V359.456C211.753 358.987 212.11 358.64 212.526 358.416C212.942 358.181 213.411 358.064 213.934 358.064C214.499 358.064 214.99 358.187 215.406 358.432C215.833 358.667 216.163 359.003 216.398 359.44C216.643 359.867 216.766 360.368 216.766 360.944V366H215.598V361.28C215.598 360.587 215.406 360.043 215.022 359.648C214.649 359.243 214.142 359.04 213.502 359.04C213.075 359.04 212.686 359.141 212.334 359.344C211.982 359.547 211.689 359.845 211.454 360.24V366H210.286ZM225.264 366.144C224.71 366.144 224.219 366.043 223.792 365.84C223.366 365.637 223.03 365.36 222.784 365.008C222.55 364.645 222.432 364.229 222.432 363.76C222.432 363.291 222.555 362.885 222.8 362.544C223.046 362.192 223.387 361.92 223.824 361.728C224.262 361.536 224.774 361.44 225.36 361.44C225.808 361.44 226.23 361.488 226.624 361.584C227.03 361.68 227.403 361.835 227.744 362.048V360.976C227.744 360.336 227.574 359.856 227.232 359.536C226.891 359.205 226.39 359.04 225.728 359.04C225.366 359.04 224.992 359.093 224.608 359.2C224.235 359.307 223.819 359.477 223.36 359.712L222.928 358.816C223.974 358.315 224.955 358.064 225.872 358.064C226.843 358.064 227.59 358.304 228.112 358.784C228.635 359.253 228.896 359.931 228.896 360.816V366H227.744V365.088C227.403 365.44 227.024 365.707 226.608 365.888C226.192 366.059 225.744 366.144 225.264 366.144ZM223.552 363.728C223.552 364.187 223.728 364.555 224.08 364.832C224.443 365.109 224.918 365.248 225.504 365.248C225.942 365.248 226.342 365.173 226.704 365.024C227.078 364.875 227.424 364.651 227.744 364.352V362.848C227.414 362.656 227.072 362.517 226.72 362.432C226.368 362.336 225.974 362.288 225.536 362.288C224.939 362.288 224.459 362.421 224.096 362.688C223.734 362.944 223.552 363.291 223.552 363.728ZM231.27 366V358.192H232.438V359.456C232.737 358.987 233.094 358.64 233.51 358.416C233.926 358.181 234.396 358.064 234.918 358.064C235.484 358.064 235.974 358.187 236.39 358.432C236.817 358.667 237.148 359.003 237.382 359.44C237.628 359.867 237.75 360.368 237.75 360.944V366H236.582V361.28C236.582 360.587 236.39 360.043 236.006 359.648C235.633 359.243 235.126 359.04 234.486 359.04C234.06 359.04 233.67 359.141 233.318 359.344C232.966 359.547 232.673 359.845 232.438 360.24V366H231.27ZM242.777 366L247.209 354.8H248.681L253.049 366H251.721L250.393 362.48H245.401L244.073 366H242.777ZM245.785 361.504H250.025L247.897 355.92L245.785 361.504ZM254.603 366V354.8H255.835V366H254.603ZM262.177 366V358.192H263.345V359.408C263.643 358.96 263.985 358.624 264.369 358.4C264.753 358.176 265.185 358.064 265.665 358.064C266.219 358.064 266.705 358.203 267.121 358.48C267.537 358.747 267.851 359.115 268.065 359.584C268.374 359.083 268.742 358.704 269.169 358.448C269.606 358.192 270.107 358.064 270.673 358.064C271.195 358.064 271.654 358.187 272.049 358.432C272.454 358.677 272.769 359.019 272.993 359.456C273.217 359.883 273.329 360.384 273.329 360.96V366H272.161V361.248C272.161 360.565 271.99 360.027 271.649 359.632C271.307 359.237 270.838 359.04 270.241 359.04C269.835 359.04 269.467 359.141 269.137 359.344C268.817 359.547 268.534 359.856 268.289 360.272C268.31 360.379 268.326 360.491 268.337 360.608C268.347 360.725 268.353 360.843 268.353 360.96V366H267.185V361.248C267.185 360.565 267.009 360.027 266.657 359.632C266.315 359.237 265.846 359.04 265.249 359.04C264.449 359.04 263.814 359.424 263.345 360.192V366H262.177ZM279.148 366.128C278.423 366.128 277.772 365.952 277.196 365.6C276.62 365.248 276.167 364.768 275.836 364.16C275.506 363.552 275.34 362.864 275.34 362.096C275.34 361.328 275.506 360.64 275.836 360.032C276.167 359.424 276.62 358.944 277.196 358.592C277.772 358.24 278.423 358.064 279.148 358.064C279.863 358.064 280.503 358.24 281.068 358.592C281.644 358.944 282.098 359.424 282.428 360.032C282.759 360.64 282.924 361.328 282.924 362.096C282.924 362.864 282.759 363.552 282.428 364.16C282.098 364.768 281.644 365.248 281.068 365.6C280.503 365.952 279.863 366.128 279.148 366.128ZM279.132 365.104C279.644 365.104 280.098 364.976 280.492 364.72C280.887 364.453 281.196 364.091 281.42 363.632C281.655 363.173 281.772 362.661 281.772 362.096C281.772 361.52 281.655 361.008 281.42 360.56C281.196 360.101 280.887 359.744 280.492 359.488C280.098 359.221 279.644 359.088 279.132 359.088C278.62 359.088 278.167 359.221 277.772 359.488C277.378 359.744 277.063 360.101 276.828 360.56C276.604 361.008 276.492 361.52 276.492 362.096C276.492 362.661 276.604 363.173 276.828 363.632C277.063 364.091 277.378 364.453 277.772 364.72C278.167 364.976 278.62 365.104 279.132 365.104ZM288.221 366.112C287.549 366.112 286.941 365.936 286.397 365.584C285.853 365.221 285.421 364.741 285.101 364.144C284.781 363.536 284.621 362.859 284.621 362.112C284.621 361.355 284.781 360.677 285.101 360.08C285.432 359.472 285.875 358.992 286.429 358.64C286.984 358.277 287.603 358.096 288.285 358.096C288.765 358.096 289.213 358.192 289.629 358.384C290.045 358.565 290.408 358.832 290.717 359.184V354.448L291.885 354.208V366H290.717V364.96C290.419 365.333 290.056 365.621 289.629 365.824C289.203 366.016 288.733 366.112 288.221 366.112ZM288.509 365.088C288.968 365.088 289.389 364.997 289.773 364.816C290.157 364.635 290.472 364.379 290.717 364.048V360.176C290.461 359.845 290.136 359.589 289.741 359.408C289.357 359.216 288.947 359.12 288.509 359.12C287.987 359.12 287.517 359.248 287.101 359.504C286.696 359.76 286.371 360.112 286.125 360.56C285.891 361.008 285.773 361.52 285.773 362.096C285.773 362.661 285.891 363.173 286.125 363.632C286.371 364.08 286.696 364.437 287.101 364.704C287.517 364.96 287.987 365.088 288.509 365.088ZM297.806 366.16C297.081 366.16 296.425 365.984 295.838 365.632C295.251 365.269 294.787 364.784 294.446 364.176C294.105 363.557 293.934 362.864 293.934 362.096C293.934 361.328 294.094 360.64 294.414 360.032C294.745 359.424 295.187 358.944 295.742 358.592C296.297 358.24 296.915 358.064 297.598 358.064C298.291 358.064 298.905 358.24 299.438 358.592C299.982 358.933 300.409 359.403 300.718 360C301.038 360.587 301.198 361.253 301.198 362V362.352H295.07C295.113 362.885 295.257 363.365 295.502 363.792C295.758 364.208 296.089 364.539 296.494 364.784C296.91 365.019 297.363 365.136 297.854 365.136C298.259 365.136 298.649 365.067 299.022 364.928C299.406 364.779 299.731 364.581 299.998 364.336L300.734 365.12C300.286 365.472 299.822 365.733 299.342 365.904C298.862 366.075 298.35 366.16 297.806 366.16ZM295.102 361.52H300.046C299.993 361.051 299.849 360.635 299.614 360.272C299.39 359.899 299.102 359.605 298.75 359.392C298.409 359.179 298.025 359.072 297.598 359.072C297.171 359.072 296.782 359.179 296.43 359.392C296.078 359.595 295.785 359.883 295.55 360.256C295.326 360.619 295.177 361.04 295.102 361.52ZM303.192 366V354.448L304.36 354.208V366H303.192ZM307.555 366.128C307.32 366.128 307.117 366.043 306.947 365.872C306.787 365.701 306.707 365.499 306.707 365.264C306.707 365.019 306.787 364.816 306.947 364.656C307.117 364.485 307.32 364.4 307.555 364.4C307.789 364.4 307.987 364.485 308.147 364.656C308.317 364.816 308.403 365.019 308.403 365.264C308.403 365.499 308.317 365.701 308.147 365.872C307.987 366.043 307.789 366.128 307.555 366.128Z" fill="#4D4D4D"/>
</g>
</g>
<defs>
<clipPath id="clip0_759_63665">
<rect width="403" height="373" fill="white"/>
</clipPath>
<clipPath id="clip1_759_63665">
<rect width="375" height="960" fill="white" transform="translate(14)"/>
</clipPath>
</defs>
</svg>
