<svg width="403" height="399" viewBox="0 0 403 399" fill="none" xmlns="http://www.w3.org/2000/svg">
<g clip-path="url(#clip0_759_63389)">
<rect width="403" height="399" fill="white"/>
<g clip-path="url(#clip1_759_63389)">
<rect width="375" height="960" transform="translate(14)" fill="white"/>
<path d="M59.1533 38.0771C59.4792 37.7517 60.0074 37.7516 60.333 38.0771L60.9229 38.667C61.2483 38.9928 61.2483 39.5211 60.9229 39.8467L58.2686 42.5L60.9229 45.1533C61.2482 45.4792 61.2483 46.0075 60.9229 46.333L60.333 46.9229C60.0075 47.2483 59.4789 47.2482 59.1533 46.9229L56.5 44.2686L53.8467 46.9229C53.5211 47.2483 52.9926 47.2483 52.667 46.9229L52.0771 46.333C51.7516 46.0072 51.7517 45.4789 52.0771 45.1533L54.7305 42.5L52.0771 39.8467C51.7517 39.5208 51.7516 38.9926 52.0771 38.667L52.667 38.0771C52.9928 37.7516 53.5211 37.7517 53.8467 38.0771L56.5 40.7305L59.1533 38.0771Z" fill="#1F1F1F"/>
<path d="M233 42.5C233 32.2827 241.283 24 251.5 24H346.5C356.717 24 365 32.2827 365 42.5V42.5C365 52.7173 356.717 61 346.5 61H251.5C241.283 61 233 52.7173 233 42.5V42.5Z" fill="#0066CC"/>
<path d="M266.25 37.7504C266.734 37.7504 267.125 38.1414 267.125 38.6254C267.125 39.1092 266.734 39.5004 266.25 39.5004H263.625C263.141 39.5004 262.75 39.8914 262.75 40.3754V47.3754C262.75 47.8592 263.141 48.2504 263.625 48.2504H270.625C271.109 48.2504 271.5 47.8592 271.5 47.3754V44.7504C271.5 44.2664 271.891 43.8754 272.375 43.8754C272.859 43.8754 273.25 44.2664 273.25 44.7504V47.3754C273.25 48.8244 272.074 50.0004 270.625 50.0004H263.625C262.176 50.0004 261 48.8244 261 47.3754V40.3754C261 38.9261 262.176 37.7504 263.625 37.7504H266.25ZM272.969 40.7113L268.394 45.2885C268.224 45.4552 268.019 45.5838 267.795 45.6576L265.367 46.4672C265.129 46.5464 264.869 46.4865 264.694 46.309C264.519 46.1313 264.456 45.8712 264.535 45.6361L265.345 43.2074C265.419 42.9806 265.547 42.7755 265.714 42.6088L270.289 38.0316L272.969 40.7113ZM271.729 36.5931C272.328 35.9943 273.297 35.9943 273.896 36.5931L274.406 37.1019C275.005 37.7008 275.005 38.6691 274.406 39.2679L273.584 40.0902L270.906 37.4135L271.729 36.5931Z" fill="white"/>
<path d="M283.246 47V37.2H284.366L290.106 45.32L290.078 37.2H291.1V47H290.12L284.24 38.698L284.268 47H283.246ZM296.48 47.14C295.845 47.14 295.271 46.986 294.758 46.678C294.244 46.3607 293.838 45.936 293.54 45.404C293.241 44.8627 293.092 44.256 293.092 43.584C293.092 42.912 293.232 42.31 293.512 41.778C293.801 41.246 294.188 40.826 294.674 40.518C295.159 40.21 295.7 40.056 296.298 40.056C296.904 40.056 297.441 40.21 297.908 40.518C298.384 40.8167 298.757 41.2273 299.028 41.75C299.308 42.2633 299.448 42.8467 299.448 43.5V43.808H294.086C294.123 44.2747 294.249 44.6947 294.464 45.068C294.688 45.432 294.977 45.7213 295.332 45.936C295.696 46.1413 296.092 46.244 296.522 46.244C296.876 46.244 297.217 46.1833 297.544 46.062C297.88 45.9313 298.164 45.7587 298.398 45.544L299.042 46.23C298.65 46.538 298.244 46.7667 297.824 46.916C297.404 47.0653 296.956 47.14 296.48 47.14ZM294.114 43.08H298.44C298.393 42.6693 298.267 42.3053 298.062 41.988C297.866 41.6613 297.614 41.4047 297.306 41.218C297.007 41.0313 296.671 40.938 296.298 40.938C295.924 40.938 295.584 41.0313 295.276 41.218C294.968 41.3953 294.711 41.6473 294.506 41.974C294.31 42.2913 294.179 42.66 294.114 43.08ZM302.274 47L300.398 40.168H301.392L302.82 45.628L304.458 40.168H305.368L307.006 45.628L308.42 40.168H309.386L307.524 47H306.53L304.906 41.484L303.282 47H302.274ZM317.165 47.112C316.53 47.112 315.956 46.958 315.443 46.65C314.939 46.3327 314.537 45.908 314.239 45.376C313.94 44.8347 313.791 44.2373 313.791 43.584C313.791 42.9213 313.94 42.324 314.239 41.792C314.537 41.26 314.939 40.84 315.443 40.532C315.956 40.2147 316.53 40.056 317.165 40.056C317.669 40.056 318.149 40.1493 318.607 40.336C319.064 40.5227 319.461 40.784 319.797 41.12L319.139 41.834C318.896 41.5633 318.602 41.3533 318.257 41.204C317.911 41.0547 317.561 40.98 317.207 40.98C316.759 40.98 316.353 41.0967 315.989 41.33C315.634 41.5633 315.349 41.876 315.135 42.268C314.92 42.66 314.813 43.0987 314.813 43.584C314.813 44.0693 314.92 44.508 315.135 44.9C315.349 45.292 315.634 45.6047 315.989 45.838C316.353 46.0713 316.759 46.188 317.207 46.188C317.561 46.188 317.911 46.1133 318.257 45.964C318.602 45.8053 318.896 45.5953 319.139 45.334L319.797 46.048C319.461 46.384 319.064 46.6453 318.607 46.832C318.149 47.0187 317.669 47.112 317.165 47.112ZM321.222 47V36.892L322.244 36.682V41.274C322.505 40.8633 322.818 40.56 323.182 40.364C323.546 40.1587 323.957 40.056 324.414 40.056C324.909 40.056 325.338 40.1633 325.702 40.378C326.075 40.5833 326.365 40.8773 326.57 41.26C326.785 41.6333 326.892 42.072 326.892 42.576V47H325.87V42.87C325.87 42.2633 325.702 41.7873 325.366 41.442C325.039 41.0873 324.596 40.91 324.036 40.91C323.663 40.91 323.322 40.9987 323.014 41.176C322.706 41.3533 322.449 41.6147 322.244 41.96V47H321.222ZM331.06 47.126C330.575 47.126 330.146 47.0373 329.772 46.86C329.399 46.6827 329.105 46.44 328.89 46.132C328.685 45.8147 328.582 45.4507 328.582 45.04C328.582 44.6293 328.69 44.2747 328.904 43.976C329.119 43.668 329.418 43.43 329.8 43.262C330.183 43.094 330.631 43.01 331.144 43.01C331.536 43.01 331.905 43.052 332.25 43.136C332.605 43.22 332.932 43.3553 333.23 43.542V42.604C333.23 42.044 333.081 41.624 332.782 41.344C332.484 41.0547 332.045 40.91 331.466 40.91C331.149 40.91 330.822 40.9567 330.486 41.05C330.16 41.1433 329.796 41.2927 329.394 41.498L329.016 40.714C329.931 40.2753 330.79 40.056 331.592 40.056C332.442 40.056 333.095 40.266 333.552 40.686C334.01 41.0967 334.238 41.6893 334.238 42.464V47H333.23V46.202C332.932 46.51 332.6 46.7433 332.236 46.902C331.872 47.0513 331.48 47.126 331.06 47.126ZM329.562 45.012C329.562 45.4133 329.716 45.7353 330.024 45.978C330.342 46.2207 330.757 46.342 331.27 46.342C331.653 46.342 332.003 46.2767 332.32 46.146C332.647 46.0153 332.95 45.8193 333.23 45.558V44.242C332.941 44.074 332.642 43.9527 332.334 43.878C332.026 43.794 331.681 43.752 331.298 43.752C330.776 43.752 330.356 43.8687 330.038 44.102C329.721 44.326 329.562 44.6293 329.562 45.012ZM338.715 47.14C338.127 47.14 337.679 47 337.371 46.72C337.072 46.4307 336.923 46.0153 336.923 45.474V41.008H335.509V40.168H336.923V38.292L337.945 38.054V40.168H339.905V41.008H337.945V45.208C337.945 45.572 338.019 45.8333 338.169 45.992C338.327 46.1507 338.584 46.23 338.939 46.23C339.116 46.23 339.275 46.216 339.415 46.188C339.555 46.16 339.718 46.1133 339.905 46.048V46.958C339.718 47.0233 339.522 47.07 339.317 47.098C339.111 47.126 338.911 47.14 338.715 47.14Z" fill="white"/>
<path d="M50 88C54.9718 88 59 92.0282 59 97C59 101.972 54.9718 106 50 106C45.0282 106 41 101.972 41 97C41 92.0282 45.0282 88 50 88ZM50 89.7422C45.9899 89.7422 42.7422 92.9899 42.7422 97C42.7422 101.01 45.9899 104.258 50 104.258C54.0101 104.258 57.2578 101.01 57.2578 97C57.2578 92.9899 54.0101 89.7422 50 89.7422ZM50.5811 91.4834C50.8202 91.4836 51.0164 91.6798 51.0166 91.9189V97.0615L53.4404 98.8252C53.6364 98.9667 53.6767 99.2396 53.5352 99.4355L52.8525 100.375C52.7111 100.567 52.4391 100.611 52.2432 100.47L49.1621 98.2305C49.0496 98.147 48.9844 98.0158 48.9844 97.8779V91.9189C48.9846 91.6798 49.1798 91.4836 49.4189 91.4834H50.5811Z" fill="#1F1F1F"/>
<path d="M76.7439 103.198C75.8079 103.198 74.9379 103.036 74.1339 102.712C73.3419 102.376 72.6399 101.914 72.0279 101.326C71.4279 100.726 70.9599 100.036 70.6239 99.256C70.2999 98.464 70.1379 97.612 70.1379 96.7C70.1379 95.788 70.2999 94.942 70.6239 94.162C70.9599 93.37 71.4279 92.68 72.0279 92.092C72.6399 91.492 73.3479 91.03 74.1519 90.706C74.9559 90.37 75.8199 90.202 76.7439 90.202C77.4039 90.202 78.0459 90.292 78.6699 90.472C79.3059 90.64 79.8879 90.886 80.4159 91.21C80.9559 91.534 81.4239 91.924 81.8199 92.38L80.5599 93.676C80.0919 93.112 79.5219 92.686 78.8499 92.398C78.1779 92.098 77.4759 91.948 76.7439 91.948C75.8559 91.948 75.0579 92.158 74.3499 92.578C73.6419 92.998 73.0839 93.568 72.6759 94.288C72.2679 94.996 72.0639 95.8 72.0639 96.7C72.0639 97.6 72.2679 98.41 72.6759 99.13C73.0959 99.838 73.6659 100.402 74.3859 100.822C75.1059 101.242 75.9099 101.452 76.7979 101.452C77.5299 101.452 78.2199 101.308 78.8679 101.02C79.5279 100.72 80.0859 100.3 80.5419 99.76L81.7839 101.02C81.3639 101.464 80.8839 101.854 80.3439 102.19C79.8159 102.514 79.2399 102.766 78.6159 102.946C78.0039 103.114 77.3799 103.198 76.7439 103.198ZM83.417 103V90.4L85.217 90.004V94.774C85.925 94.03 86.843 93.658 87.971 93.658C88.679 93.658 89.297 93.808 89.825 94.108C90.365 94.408 90.785 94.828 91.085 95.368C91.397 95.908 91.553 96.532 91.553 97.24V103H89.753V97.546C89.753 96.826 89.549 96.262 89.141 95.854C88.733 95.434 88.175 95.224 87.467 95.224C86.987 95.224 86.555 95.326 86.171 95.53C85.787 95.734 85.469 96.028 85.217 96.412V103H83.417ZM96.5279 103.162C95.8679 103.162 95.2859 103.048 94.7819 102.82C94.2779 102.58 93.8819 102.25 93.5939 101.83C93.3059 101.41 93.1619 100.924 93.1619 100.372C93.1619 99.508 93.4919 98.83 94.1519 98.338C94.8119 97.834 95.7179 97.582 96.8699 97.582C97.7699 97.582 98.6039 97.756 99.3719 98.104V97.132C99.3719 95.824 98.6279 95.17 97.1399 95.17C96.7199 95.17 96.2819 95.236 95.8259 95.368C95.3699 95.488 94.8599 95.68 94.2959 95.944L93.6299 94.594C94.3259 94.27 94.9739 94.036 95.5739 93.892C96.1739 93.736 96.7799 93.658 97.3919 93.658C98.5799 93.658 99.4979 93.94 100.146 94.504C100.806 95.068 101.136 95.872 101.136 96.916V103H99.3719V102.208C98.9639 102.532 98.5259 102.772 98.0579 102.928C97.5899 103.084 97.0799 103.162 96.5279 103.162ZM94.8899 100.336C94.8899 100.78 95.0759 101.14 95.4479 101.416C95.8319 101.692 96.3299 101.83 96.9419 101.83C97.9259 101.83 98.7359 101.536 99.3719 100.948V99.4C98.7119 99.016 97.9259 98.824 97.0139 98.824C96.3539 98.824 95.8319 98.962 95.4479 99.238C95.0759 99.502 94.8899 99.868 94.8899 100.336ZM106.87 103.162C105.982 103.162 105.304 102.958 104.836 102.55C104.368 102.13 104.134 101.524 104.134 100.732V95.35H102.19V93.838H104.134V91.498L105.916 91.066V93.838H108.616V95.35H105.916V100.318C105.916 100.786 106.018 101.122 106.222 101.326C106.438 101.518 106.786 101.614 107.266 101.614C107.518 101.614 107.74 101.596 107.932 101.56C108.136 101.524 108.352 101.47 108.58 101.398V102.91C108.34 102.994 108.058 103.054 107.734 103.09C107.422 103.138 107.134 103.162 106.87 103.162ZM113.704 103V90.4L115.504 90.004V94.774C116.212 94.03 117.13 93.658 118.258 93.658C118.966 93.658 119.584 93.808 120.112 94.108C120.652 94.408 121.072 94.828 121.372 95.368C121.684 95.908 121.84 96.532 121.84 97.24V103H120.04V97.546C120.04 96.826 119.836 96.262 119.428 95.854C119.02 95.434 118.462 95.224 117.754 95.224C117.274 95.224 116.842 95.326 116.458 95.53C116.074 95.734 115.756 96.028 115.504 96.412V103H113.704ZM123.917 103V93.838H125.717V103H123.917ZM124.817 92.362C124.517 92.362 124.259 92.254 124.043 92.038C123.827 91.81 123.719 91.546 123.719 91.246C123.719 90.934 123.827 90.676 124.043 90.472C124.259 90.256 124.517 90.148 124.817 90.148C125.129 90.148 125.393 90.256 125.609 90.472C125.825 90.676 125.933 90.934 125.933 91.246C125.933 91.546 125.825 91.81 125.609 92.038C125.393 92.254 125.129 92.362 124.817 92.362ZM130.987 103.18C130.195 103.18 129.451 103.066 128.755 102.838C128.071 102.598 127.477 102.262 126.973 101.83L127.963 100.642C128.431 101.014 128.911 101.302 129.403 101.506C129.907 101.698 130.417 101.794 130.933 101.794C131.581 101.794 132.109 101.668 132.517 101.416C132.925 101.164 133.129 100.834 133.129 100.426C133.129 99.778 132.637 99.382 131.653 99.238L129.997 99.004C129.085 98.872 128.401 98.59 127.945 98.158C127.489 97.726 127.261 97.15 127.261 96.43C127.261 95.878 127.411 95.398 127.711 94.99C128.011 94.57 128.431 94.246 128.971 94.018C129.511 93.778 130.141 93.658 130.861 93.658C131.521 93.658 132.157 93.754 132.769 93.946C133.381 94.138 133.969 94.438 134.533 94.846L133.615 96.034C132.619 95.386 131.653 95.062 130.717 95.062C130.165 95.062 129.721 95.182 129.385 95.422C129.049 95.65 128.881 95.95 128.881 96.322C128.881 96.658 128.995 96.922 129.223 97.114C129.463 97.294 129.853 97.42 130.393 97.492L132.049 97.726C132.961 97.858 133.651 98.14 134.119 98.572C134.587 98.992 134.821 99.562 134.821 100.282C134.821 100.834 134.653 101.332 134.317 101.776C133.981 102.208 133.525 102.55 132.949 102.802C132.373 103.054 131.719 103.18 130.987 103.18ZM139.952 103.162C139.064 103.162 138.386 102.958 137.918 102.55C137.45 102.13 137.216 101.524 137.216 100.732V95.35H135.272V93.838H137.216V91.498L138.998 91.066V93.838H141.698V95.35H138.998V100.318C138.998 100.786 139.1 101.122 139.304 101.326C139.52 101.518 139.868 101.614 140.348 101.614C140.6 101.614 140.822 101.596 141.014 101.56C141.218 101.524 141.434 101.47 141.662 101.398V102.91C141.422 102.994 141.14 103.054 140.816 103.09C140.504 103.138 140.216 103.162 139.952 103.162ZM147.24 103.18C146.352 103.18 145.542 102.97 144.81 102.55C144.09 102.13 143.52 101.56 143.1 100.84C142.68 100.12 142.47 99.316 142.47 98.428C142.47 97.54 142.68 96.736 143.1 96.016C143.52 95.296 144.09 94.726 144.81 94.306C145.542 93.874 146.352 93.658 147.24 93.658C148.14 93.658 148.95 93.874 149.67 94.306C150.39 94.726 150.96 95.296 151.38 96.016C151.8 96.736 152.01 97.54 152.01 98.428C152.01 99.316 151.8 100.12 151.38 100.84C150.96 101.56 150.39 102.13 149.67 102.55C148.95 102.97 148.14 103.18 147.24 103.18ZM147.24 101.596C147.804 101.596 148.308 101.458 148.752 101.182C149.208 100.894 149.568 100.51 149.832 100.03C150.108 99.55 150.246 99.016 150.246 98.428C150.246 97.828 150.114 97.294 149.85 96.826C149.586 96.346 149.226 95.962 148.77 95.674C148.314 95.386 147.804 95.242 147.24 95.242C146.676 95.242 146.166 95.386 145.71 95.674C145.254 95.962 144.894 96.346 144.63 96.826C144.366 97.294 144.234 97.828 144.234 98.428C144.234 99.016 144.366 99.55 144.63 100.03C144.894 100.51 145.254 100.894 145.71 101.182C146.166 101.458 146.676 101.596 147.24 101.596ZM153.712 103V93.838H155.512V95.008C155.8 94.576 156.154 94.24 156.574 94C157.006 93.748 157.492 93.622 158.032 93.622C158.404 93.634 158.71 93.688 158.95 93.784V95.404C158.602 95.272 158.248 95.206 157.888 95.206C157.36 95.206 156.892 95.35 156.484 95.638C156.076 95.914 155.752 96.322 155.512 96.862V103H153.712ZM161.179 106.87C160.987 106.87 160.807 106.858 160.639 106.834C160.471 106.822 160.333 106.798 160.225 106.762V105.178C160.441 105.226 160.705 105.25 161.017 105.25C161.857 105.25 162.463 104.8 162.835 103.9L163.231 103.018L159.559 93.838H161.557L164.221 100.822L167.173 93.838H169.117L164.689 104.134C164.401 104.782 164.095 105.304 163.771 105.7C163.447 106.108 163.075 106.402 162.655 106.582C162.235 106.774 161.743 106.87 161.179 106.87Z" fill="#151515"/>
<path d="M44 117.5H359C362.038 117.5 364.5 119.962 364.5 123V148C364.5 151.038 362.038 153.5 359 153.5H44C40.9624 153.5 38.5 151.038 38.5 148V123C38.5 119.962 40.9624 117.5 44 117.5Z" fill="white"/>
<path d="M44 117.5H359C362.038 117.5 364.5 119.962 364.5 123V148C364.5 151.038 362.038 153.5 359 153.5H44C40.9624 153.5 38.5 151.038 38.5 148V123C38.5 119.962 40.9624 117.5 44 117.5Z" stroke="#C7C7C7"/>
<path d="M55.6875 129C58.8293 129 61.375 131.546 61.375 134.688C61.375 136.008 60.9265 137.222 60.1719 138.188H60.6172C60.7921 138.188 60.959 138.256 61.082 138.379L63.8086 141.105C64.0627 141.363 64.0626 141.778 63.8057 142.035L63.0322 142.809C62.778 143.066 62.3625 143.065 62.1055 142.809L59.3789 140.082C59.256 139.959 59.1875 139.792 59.1875 139.617V139.172C58.2223 139.927 57.0082 140.375 55.6875 140.375C52.5457 140.375 50 137.829 50 134.688C50 131.546 52.5457 129 55.6875 129ZM55.6875 131.188C53.7516 131.188 52.1875 132.754 52.1875 134.688C52.1875 136.623 53.7543 138.188 55.6875 138.188C57.6234 138.187 59.1875 136.621 59.1875 134.688C59.1875 132.752 57.6207 131.188 55.6875 131.188Z" fill="#1F1F1F"/>
<path d="M76.246 140V130.2H82.938V131.152H77.324V134.652H81.16V135.59H77.324V140H76.246ZM84.3758 140V133.168H85.3978V140H84.3758ZM84.8938 131.474C84.6885 131.474 84.5112 131.404 84.3618 131.264C84.2218 131.115 84.1518 130.942 84.1518 130.746C84.1518 130.55 84.2218 130.382 84.3618 130.242C84.5112 130.093 84.6885 130.018 84.8938 130.018C85.0992 130.018 85.2718 130.093 85.4118 130.242C85.5612 130.382 85.6358 130.55 85.6358 130.746C85.6358 130.942 85.5612 131.115 85.4118 131.264C85.2718 131.404 85.0992 131.474 84.8938 131.474ZM87.4934 140V133.168H88.5154V134.274C88.7767 133.863 89.0894 133.56 89.4534 133.364C89.8174 133.159 90.228 133.056 90.6854 133.056C91.18 133.056 91.6094 133.163 91.9734 133.378C92.3467 133.583 92.636 133.877 92.8414 134.26C93.056 134.633 93.1634 135.072 93.1634 135.576V140H92.1414V135.87C92.1414 135.263 91.9734 134.787 91.6374 134.442C91.3107 134.087 90.8674 133.91 90.3074 133.91C89.934 133.91 89.5934 133.999 89.2854 134.176C88.9774 134.353 88.7207 134.615 88.5154 134.96V140H87.4934ZM98.06 140.098C97.472 140.098 96.94 139.944 96.464 139.636C95.988 139.319 95.61 138.899 95.33 138.376C95.05 137.844 94.91 137.251 94.91 136.598C94.91 135.935 95.05 135.343 95.33 134.82C95.6193 134.288 96.0066 133.868 96.492 133.56C96.9773 133.243 97.5186 133.084 98.116 133.084C98.536 133.084 98.928 133.168 99.292 133.336C99.656 133.495 99.9733 133.728 100.244 134.036V129.892L101.266 129.682V140H100.244V139.09C99.9826 139.417 99.6653 139.669 99.292 139.846C98.9186 140.014 98.508 140.098 98.06 140.098ZM98.312 139.202C98.7133 139.202 99.082 139.123 99.418 138.964C99.754 138.805 100.029 138.581 100.244 138.292V134.904C100.02 134.615 99.7353 134.391 99.39 134.232C99.054 134.064 98.6946 133.98 98.312 133.98C97.8546 133.98 97.444 134.092 97.08 134.316C96.7253 134.54 96.4406 134.848 96.226 135.24C96.0206 135.632 95.918 136.08 95.918 136.584C95.918 137.079 96.0206 137.527 96.226 137.928C96.4406 138.32 96.7253 138.633 97.08 138.866C97.444 139.09 97.8546 139.202 98.312 139.202ZM106.634 140V129.99L107.656 129.78V134.106C107.917 133.779 108.235 133.527 108.608 133.35C108.981 133.173 109.397 133.084 109.854 133.084C110.451 133.084 110.983 133.243 111.45 133.56C111.926 133.868 112.304 134.288 112.584 134.82C112.864 135.343 113.004 135.931 113.004 136.584C113.004 137.237 112.859 137.83 112.57 138.362C112.29 138.894 111.907 139.319 111.422 139.636C110.946 139.944 110.405 140.098 109.798 140.098C109.369 140.098 108.967 140.014 108.594 139.846C108.23 139.669 107.913 139.421 107.642 139.104V140H106.634ZM109.602 139.216C110.059 139.216 110.465 139.104 110.82 138.88C111.184 138.647 111.469 138.334 111.674 137.942C111.889 137.541 111.996 137.093 111.996 136.598C111.996 136.094 111.889 135.646 111.674 135.254C111.469 134.862 111.184 134.554 110.82 134.33C110.465 134.097 110.059 133.98 109.602 133.98C109.201 133.98 108.827 134.064 108.482 134.232C108.146 134.391 107.871 134.619 107.656 134.918V138.264C107.88 138.563 108.16 138.796 108.496 138.964C108.841 139.132 109.21 139.216 109.602 139.216ZM114.885 143.066C114.67 143.066 114.451 143.033 114.227 142.968V142.058C114.32 142.077 114.418 142.091 114.521 142.1C114.624 142.109 114.712 142.114 114.787 142.114C115.048 142.114 115.263 142.044 115.431 141.904C115.608 141.764 115.758 141.545 115.879 141.246L116.383 140L113.751 133.168H114.885L116.957 138.782L119.155 133.168H120.289L116.845 141.554C116.696 141.918 116.532 142.212 116.355 142.436C116.178 142.66 115.972 142.819 115.739 142.912C115.506 143.015 115.221 143.066 114.885 143.066ZM124.831 140V133.168H125.853V134.274C126.115 133.863 126.427 133.56 126.791 133.364C127.155 133.159 127.566 133.056 128.023 133.056C128.518 133.056 128.947 133.163 129.311 133.378C129.685 133.583 129.974 133.877 130.179 134.26C130.394 134.633 130.501 135.072 130.501 135.576V140H129.479V135.87C129.479 135.263 129.311 134.787 128.975 134.442C128.649 134.087 128.205 133.91 127.645 133.91C127.272 133.91 126.931 133.999 126.623 134.176C126.315 134.353 126.059 134.615 125.853 134.96V140H124.831ZM134.67 140.126C134.185 140.126 133.755 140.037 133.382 139.86C133.009 139.683 132.715 139.44 132.5 139.132C132.295 138.815 132.192 138.451 132.192 138.04C132.192 137.629 132.299 137.275 132.514 136.976C132.729 136.668 133.027 136.43 133.41 136.262C133.793 136.094 134.241 136.01 134.754 136.01C135.146 136.01 135.515 136.052 135.86 136.136C136.215 136.22 136.541 136.355 136.84 136.542V135.604C136.84 135.044 136.691 134.624 136.392 134.344C136.093 134.055 135.655 133.91 135.076 133.91C134.759 133.91 134.432 133.957 134.096 134.05C133.769 134.143 133.405 134.293 133.004 134.498L132.626 133.714C133.541 133.275 134.399 133.056 135.202 133.056C136.051 133.056 136.705 133.266 137.162 133.686C137.619 134.097 137.848 134.689 137.848 135.464V140H136.84V139.202C136.541 139.51 136.21 139.743 135.846 139.902C135.482 140.051 135.09 140.126 134.67 140.126ZM133.172 138.012C133.172 138.413 133.326 138.735 133.634 138.978C133.951 139.221 134.367 139.342 134.88 139.342C135.263 139.342 135.613 139.277 135.93 139.146C136.257 139.015 136.56 138.819 136.84 138.558V137.242C136.551 137.074 136.252 136.953 135.944 136.878C135.636 136.794 135.291 136.752 134.908 136.752C134.385 136.752 133.965 136.869 133.648 137.102C133.331 137.326 133.172 137.629 133.172 138.012ZM139.925 140V133.168H140.947V134.232C141.208 133.84 141.507 133.546 141.843 133.35C142.179 133.154 142.557 133.056 142.977 133.056C143.462 133.056 143.887 133.177 144.251 133.42C144.615 133.653 144.89 133.975 145.077 134.386C145.348 133.947 145.67 133.616 146.043 133.392C146.426 133.168 146.864 133.056 147.359 133.056C147.816 133.056 148.218 133.163 148.563 133.378C148.918 133.593 149.193 133.891 149.389 134.274C149.585 134.647 149.683 135.086 149.683 135.59V140H148.661V135.842C148.661 135.245 148.512 134.773 148.213 134.428C147.914 134.083 147.504 133.91 146.981 133.91C146.626 133.91 146.304 133.999 146.015 134.176C145.735 134.353 145.488 134.624 145.273 134.988C145.292 135.081 145.306 135.179 145.315 135.282C145.324 135.385 145.329 135.487 145.329 135.59V140H144.307V135.842C144.307 135.245 144.153 134.773 143.845 134.428C143.546 134.083 143.136 133.91 142.613 133.91C141.913 133.91 141.358 134.246 140.947 134.918V140H139.925ZM154.831 140.14C154.197 140.14 153.623 139.986 153.109 139.678C152.596 139.361 152.19 138.936 151.891 138.404C151.593 137.863 151.443 137.256 151.443 136.584C151.443 135.912 151.583 135.31 151.863 134.778C152.153 134.246 152.54 133.826 153.025 133.518C153.511 133.21 154.052 133.056 154.649 133.056C155.256 133.056 155.793 133.21 156.259 133.518C156.735 133.817 157.109 134.227 157.379 134.75C157.659 135.263 157.799 135.847 157.799 136.5V136.808H152.437C152.475 137.275 152.601 137.695 152.815 138.068C153.039 138.432 153.329 138.721 153.683 138.936C154.047 139.141 154.444 139.244 154.873 139.244C155.228 139.244 155.569 139.183 155.895 139.062C156.231 138.931 156.516 138.759 156.749 138.544L157.393 139.23C157.001 139.538 156.595 139.767 156.175 139.916C155.755 140.065 155.307 140.14 154.831 140.14ZM152.465 136.08H156.791C156.745 135.669 156.619 135.305 156.413 134.988C156.217 134.661 155.965 134.405 155.657 134.218C155.359 134.031 155.023 133.938 154.649 133.938C154.276 133.938 153.935 134.031 153.627 134.218C153.319 134.395 153.063 134.647 152.857 134.974C152.661 135.291 152.531 135.66 152.465 136.08Z" fill="#4D4D4D"/>
<rect width="327" height="194" transform="translate(38 178)" fill="white"/>
<path d="M196.25 210C208.817 210 219 220.183 219 232.75C219 238.032 217.206 242.889 214.188 246.75H215.97C216.67 246.75 217.337 247.023 217.829 247.515L228.734 258.421C229.751 259.449 229.752 261.111 228.724 262.139L225.628 265.234C224.611 266.262 222.948 266.262 221.92 265.234L211.016 254.33C210.523 253.838 210.25 253.17 210.25 252.47V250.687C206.389 253.706 201.533 255.5 196.25 255.5C183.683 255.5 173.5 245.317 173.5 232.75C173.5 220.183 183.683 210 196.25 210ZM196.25 218.75C188.506 218.75 182.25 225.017 182.25 232.75C182.25 240.493 188.517 246.75 196.25 246.75C203.994 246.75 210.25 240.483 210.25 232.75C210.25 225.006 203.983 218.75 196.25 218.75Z" fill="#707070"/>
<path d="M127.861 302V288H129.901L137.721 298.4V288H139.701V302H137.861L129.861 291.28V302H127.861ZM147.168 302.2C146.182 302.2 145.282 301.967 144.468 301.5C143.668 301.033 143.035 300.4 142.568 299.6C142.102 298.8 141.868 297.907 141.868 296.92C141.868 295.933 142.102 295.04 142.568 294.24C143.035 293.44 143.668 292.807 144.468 292.34C145.282 291.86 146.182 291.62 147.168 291.62C148.168 291.62 149.068 291.86 149.868 292.34C150.668 292.807 151.302 293.44 151.768 294.24C152.235 295.04 152.468 295.933 152.468 296.92C152.468 297.907 152.235 298.8 151.768 299.6C151.302 300.4 150.668 301.033 149.868 301.5C149.068 301.967 148.168 302.2 147.168 302.2ZM147.168 300.44C147.795 300.44 148.355 300.287 148.848 299.98C149.355 299.66 149.755 299.233 150.048 298.7C150.355 298.167 150.508 297.573 150.508 296.92C150.508 296.253 150.362 295.66 150.068 295.14C149.775 294.607 149.375 294.18 148.868 293.86C148.362 293.54 147.795 293.38 147.168 293.38C146.542 293.38 145.975 293.54 145.468 293.86C144.962 294.18 144.562 294.607 144.268 295.14C143.975 295.66 143.828 296.253 143.828 296.92C143.828 297.573 143.975 298.167 144.268 298.7C144.562 299.233 144.962 299.66 145.468 299.98C145.975 300.287 146.542 300.44 147.168 300.44ZM158.539 302V291.82H160.539V293.12C160.859 292.64 161.253 292.267 161.719 292C162.199 291.72 162.739 291.58 163.339 291.58C163.753 291.593 164.093 291.653 164.359 291.76V293.56C163.973 293.413 163.579 293.34 163.179 293.34C162.593 293.34 162.073 293.5 161.619 293.82C161.166 294.127 160.806 294.58 160.539 295.18V302H158.539ZM170.255 302.18C169.255 302.18 168.349 301.947 167.535 301.48C166.735 301.013 166.095 300.38 165.615 299.58C165.149 298.78 164.915 297.887 164.915 296.9C164.915 295.927 165.142 295.047 165.595 294.26C166.049 293.46 166.662 292.827 167.435 292.36C168.209 291.88 169.069 291.64 170.015 291.64C170.962 291.64 171.802 291.88 172.535 292.36C173.269 292.827 173.849 293.467 174.275 294.28C174.715 295.08 174.935 295.987 174.935 297V297.56H166.915C167.022 298.12 167.229 298.62 167.535 299.06C167.855 299.5 168.255 299.847 168.735 300.1C169.229 300.353 169.762 300.48 170.335 300.48C170.829 300.48 171.302 300.407 171.755 300.26C172.222 300.1 172.609 299.873 172.915 299.58L174.195 300.84C173.595 301.293 172.975 301.633 172.335 301.86C171.709 302.073 171.015 302.18 170.255 302.18ZM166.935 296.06H172.955C172.875 295.527 172.689 295.06 172.395 294.66C172.115 294.247 171.762 293.927 171.335 293.7C170.922 293.46 170.469 293.34 169.975 293.34C169.202 293.34 168.535 293.593 167.975 294.1C167.429 294.593 167.082 295.247 166.935 296.06ZM180.438 302.2C179.558 302.2 178.731 302.073 177.958 301.82C177.198 301.553 176.538 301.18 175.978 300.7L177.078 299.38C177.598 299.793 178.131 300.113 178.678 300.34C179.238 300.553 179.804 300.66 180.378 300.66C181.098 300.66 181.684 300.52 182.138 300.24C182.591 299.96 182.818 299.593 182.818 299.14C182.818 298.42 182.271 297.98 181.178 297.82L179.338 297.56C178.324 297.413 177.564 297.1 177.058 296.62C176.551 296.14 176.298 295.5 176.298 294.7C176.298 294.087 176.464 293.553 176.798 293.1C177.131 292.633 177.598 292.273 178.198 292.02C178.798 291.753 179.498 291.62 180.298 291.62C181.031 291.62 181.738 291.727 182.418 291.94C183.098 292.153 183.751 292.487 184.378 292.94L183.358 294.26C182.251 293.54 181.178 293.18 180.138 293.18C179.524 293.18 179.031 293.313 178.658 293.58C178.284 293.833 178.098 294.167 178.098 294.58C178.098 294.953 178.224 295.247 178.478 295.46C178.744 295.66 179.178 295.8 179.778 295.88L181.618 296.14C182.631 296.287 183.398 296.6 183.918 297.08C184.438 297.547 184.698 298.18 184.698 298.98C184.698 299.593 184.511 300.147 184.138 300.64C183.764 301.12 183.258 301.5 182.618 301.78C181.978 302.06 181.251 302.2 180.438 302.2ZM190.175 302.2C189.388 302.2 188.695 302.033 188.095 301.7C187.495 301.367 187.028 300.9 186.695 300.3C186.361 299.7 186.195 299 186.195 298.2V291.82H188.175V297.86C188.175 298.66 188.401 299.293 188.855 299.76C189.321 300.227 189.941 300.46 190.715 300.46C191.808 300.46 192.641 300.013 193.215 299.12V291.82H195.215V302H193.215V300.96C192.428 301.787 191.415 302.2 190.175 302.2ZM197.582 302V288L199.582 287.62V302H197.582ZM206.298 302.18C205.311 302.18 204.558 301.953 204.038 301.5C203.518 301.033 203.258 300.36 203.258 299.48V293.5H201.098V291.82H203.258V289.22L205.238 288.74V291.82H208.238V293.5H205.238V299.02C205.238 299.54 205.351 299.913 205.578 300.14C205.818 300.353 206.204 300.46 206.738 300.46C207.018 300.46 207.264 300.44 207.478 300.4C207.704 300.36 207.944 300.3 208.198 300.22V301.9C207.931 301.993 207.618 302.06 207.258 302.1C206.911 302.153 206.591 302.18 206.298 302.18ZM213.407 302.2C212.527 302.2 211.7 302.073 210.927 301.82C210.167 301.553 209.507 301.18 208.947 300.7L210.047 299.38C210.567 299.793 211.1 300.113 211.647 300.34C212.207 300.553 212.773 300.66 213.347 300.66C214.067 300.66 214.653 300.52 215.107 300.24C215.56 299.96 215.787 299.593 215.787 299.14C215.787 298.42 215.24 297.98 214.147 297.82L212.307 297.56C211.293 297.413 210.533 297.1 210.027 296.62C209.52 296.14 209.267 295.5 209.267 294.7C209.267 294.087 209.433 293.553 209.767 293.1C210.1 292.633 210.567 292.273 211.167 292.02C211.767 291.753 212.467 291.62 213.267 291.62C214 291.62 214.707 291.727 215.387 291.94C216.067 292.153 216.72 292.487 217.347 292.94L216.327 294.26C215.22 293.54 214.147 293.18 213.107 293.18C212.493 293.18 212 293.313 211.627 293.58C211.253 293.833 211.067 294.167 211.067 294.58C211.067 294.953 211.193 295.247 211.447 295.46C211.713 295.66 212.147 295.8 212.747 295.88L214.587 296.14C215.6 296.287 216.367 296.6 216.887 297.08C217.407 297.547 217.667 298.18 217.667 298.98C217.667 299.593 217.48 300.147 217.107 300.64C216.733 301.12 216.227 301.5 215.587 301.78C214.947 302.06 214.22 302.2 213.407 302.2ZM224.903 302V293.5H222.543V291.82H224.903V290.28C224.903 289.213 225.196 288.4 225.783 287.84C226.383 287.28 227.236 287 228.343 287C228.623 287 228.883 287.02 229.123 287.06C229.376 287.087 229.603 287.133 229.803 287.2V288.92C229.563 288.853 229.35 288.807 229.163 288.78C228.976 288.74 228.77 288.72 228.543 288.72C227.436 288.72 226.883 289.26 226.883 290.34V291.82H229.803V293.5H226.883V302H224.903ZM235.704 302.2C234.717 302.2 233.817 301.967 233.004 301.5C232.204 301.033 231.57 300.4 231.104 299.6C230.637 298.8 230.404 297.907 230.404 296.92C230.404 295.933 230.637 295.04 231.104 294.24C231.57 293.44 232.204 292.807 233.004 292.34C233.817 291.86 234.717 291.62 235.704 291.62C236.704 291.62 237.604 291.86 238.404 292.34C239.204 292.807 239.837 293.44 240.304 294.24C240.77 295.04 241.004 295.933 241.004 296.92C241.004 297.907 240.77 298.8 240.304 299.6C239.837 300.4 239.204 301.033 238.404 301.5C237.604 301.967 236.704 302.2 235.704 302.2ZM235.704 300.44C236.33 300.44 236.89 300.287 237.384 299.98C237.89 299.66 238.29 299.233 238.584 298.7C238.89 298.167 239.044 297.573 239.044 296.92C239.044 296.253 238.897 295.66 238.604 295.14C238.31 294.607 237.91 294.18 237.404 293.86C236.897 293.54 236.33 293.38 235.704 293.38C235.077 293.38 234.51 293.54 234.004 293.86C233.497 294.18 233.097 294.607 232.804 295.14C232.51 295.66 232.364 296.253 232.364 296.92C232.364 297.573 232.51 298.167 232.804 298.7C233.097 299.233 233.497 299.66 234.004 299.98C234.51 300.287 235.077 300.44 235.704 300.44ZM246.835 302.2C246.048 302.2 245.355 302.033 244.755 301.7C244.155 301.367 243.688 300.9 243.355 300.3C243.022 299.7 242.855 299 242.855 298.2V291.82H244.835V297.86C244.835 298.66 245.062 299.293 245.515 299.76C245.982 300.227 246.602 300.46 247.375 300.46C248.468 300.46 249.302 300.013 249.875 299.12V291.82H251.875V302H249.875V300.96C249.088 301.787 248.075 302.2 246.835 302.2ZM254.243 302V291.82H256.243V292.86C257.029 292.033 258.049 291.62 259.303 291.62C260.089 291.62 260.776 291.787 261.363 292.12C261.963 292.453 262.429 292.92 262.763 293.52C263.109 294.12 263.283 294.813 263.283 295.6V302H261.283V295.94C261.283 295.14 261.056 294.513 260.603 294.06C260.149 293.593 259.529 293.36 258.743 293.36C258.209 293.36 257.729 293.473 257.303 293.7C256.876 293.927 256.523 294.253 256.243 294.68V302H254.243ZM270.27 302.16C269.323 302.16 268.457 301.927 267.67 301.46C266.883 300.993 266.263 300.367 265.81 299.58C265.357 298.78 265.13 297.887 265.13 296.9C265.13 295.913 265.357 295.027 265.81 294.24C266.277 293.453 266.903 292.827 267.69 292.36C268.477 291.893 269.35 291.66 270.31 291.66C271.457 291.66 272.477 292 273.37 292.68V288L275.37 287.62V302H273.39V301.02C272.523 301.78 271.483 302.16 270.27 302.16ZM270.53 300.42C271.117 300.42 271.65 300.313 272.13 300.1C272.623 299.887 273.037 299.58 273.37 299.18V294.6C273.037 294.227 272.623 293.933 272.13 293.72C271.637 293.493 271.103 293.38 270.53 293.38C269.89 293.38 269.31 293.533 268.79 293.84C268.27 294.147 267.857 294.567 267.55 295.1C267.243 295.62 267.09 296.213 267.09 296.88C267.09 297.547 267.243 298.147 267.55 298.68C267.857 299.213 268.27 299.64 268.79 299.96C269.31 300.267 269.89 300.42 270.53 300.42Z" fill="#151515"/>
<path d="M39.5034 342L43.9354 330.8H45.4074L49.7754 342H48.4474L47.1194 338.48H42.1274L40.7994 342H39.5034ZM42.5114 337.504H46.7514L44.6234 331.92L42.5114 337.504ZM54.0574 342.112C53.3854 342.112 52.7774 341.936 52.2334 341.584C51.6894 341.221 51.2574 340.741 50.9374 340.144C50.6174 339.536 50.4574 338.859 50.4574 338.112C50.4574 337.355 50.6174 336.677 50.9374 336.08C51.268 335.472 51.7107 334.992 52.2654 334.64C52.82 334.277 53.4387 334.096 54.1214 334.096C54.6014 334.096 55.0494 334.192 55.4654 334.384C55.8814 334.565 56.244 334.832 56.5534 335.184V330.448L57.7214 330.208V342H56.5534V340.96C56.2547 341.333 55.892 341.621 55.4654 341.824C55.0387 342.016 54.5694 342.112 54.0574 342.112ZM54.3454 341.088C54.804 341.088 55.2254 340.997 55.6094 340.816C55.9934 340.635 56.308 340.379 56.5534 340.048V336.176C56.2974 335.845 55.972 335.589 55.5774 335.408C55.1934 335.216 54.7827 335.12 54.3454 335.12C53.8227 335.12 53.3534 335.248 52.9374 335.504C52.532 335.76 52.2067 336.112 51.9614 336.56C51.7267 337.008 51.6094 337.52 51.6094 338.096C51.6094 338.661 51.7267 339.173 51.9614 339.632C52.2067 340.08 52.532 340.437 52.9374 340.704C53.3534 340.96 53.8227 341.088 54.3454 341.088ZM60.7139 332.256C60.4792 332.256 60.2765 332.176 60.1059 332.016C59.9459 331.845 59.8659 331.648 59.8659 331.424C59.8659 331.2 59.9459 331.008 60.1059 330.848C60.2765 330.677 60.4792 330.592 60.7139 330.592C60.9485 330.592 61.1459 330.677 61.3059 330.848C61.4765 331.008 61.5619 331.2 61.5619 331.424C61.5619 331.648 61.4765 331.845 61.3059 332.016C61.1459 332.176 60.9485 332.256 60.7139 332.256ZM59.3219 345.504C59.1939 345.504 59.0659 345.488 58.9379 345.456C58.8205 345.435 58.7085 345.419 58.6019 345.408V344.4C58.6979 344.421 58.7939 344.437 58.8899 344.448C58.9752 344.459 59.0712 344.464 59.1779 344.464C59.5192 344.464 59.7592 344.384 59.8979 344.224C60.0472 344.064 60.1219 343.803 60.1219 343.44V334.192H61.2899V343.504C61.2899 344.133 61.1192 344.624 60.7779 344.976C60.4472 345.328 59.9619 345.504 59.3219 345.504ZM66.4684 342.128C65.9137 342.128 65.423 342.005 64.9964 341.76C64.5697 341.515 64.2337 341.173 63.9884 340.736C63.7537 340.299 63.6364 339.797 63.6364 339.232V334.192H64.8204V338.896C64.8204 339.589 65.007 340.139 65.3804 340.544C65.7537 340.949 66.2604 341.152 66.9004 341.152C67.3377 341.152 67.727 341.051 68.0684 340.848C68.4204 340.645 68.7137 340.352 68.9484 339.968V334.192H70.1164V342H68.9484V340.736C68.6497 341.195 68.2924 341.541 67.8764 341.776C67.471 342.011 67.0017 342.128 66.4684 342.128ZM74.9285 342.16C74.2885 342.16 73.6965 342.064 73.1525 341.872C72.6085 341.669 72.1445 341.381 71.7605 341.008L72.3845 340.24C72.8538 340.581 73.2858 340.832 73.6805 340.992C74.0752 341.141 74.4805 341.216 74.8965 341.216C75.4618 341.216 75.9312 341.083 76.3045 340.816C76.6778 340.549 76.8645 340.208 76.8645 339.792C76.8645 339.472 76.7525 339.221 76.5285 339.04C76.3152 338.859 75.9578 338.72 75.4565 338.624L74.1765 338.4C73.4192 338.261 72.8592 338.027 72.4965 337.696C72.1445 337.365 71.9685 336.917 71.9685 336.352C71.9685 335.904 72.0858 335.509 72.3205 335.168C72.5658 334.827 72.9018 334.56 73.3285 334.368C73.7552 334.165 74.2405 334.064 74.7845 334.064C75.3178 334.064 75.8245 334.144 76.3045 334.304C76.7845 334.453 77.2698 334.699 77.7605 335.04L77.1845 335.856C76.7792 335.568 76.3738 335.36 75.9685 335.232C75.5632 335.093 75.1525 335.024 74.7365 335.024C74.2245 335.024 73.8138 335.136 73.5045 335.36C73.1952 335.584 73.0405 335.888 73.0405 336.272C73.0405 336.592 73.1365 336.837 73.3285 337.008C73.5312 337.179 73.8832 337.307 74.3845 337.392L75.6965 337.632C76.4858 337.771 77.0618 338.011 77.4245 338.352C77.7872 338.693 77.9685 339.152 77.9685 339.728C77.9685 340.187 77.8352 340.603 77.5685 340.976C77.3018 341.339 76.9392 341.627 76.4805 341.84C76.0218 342.053 75.5045 342.16 74.9285 342.16ZM82.5666 342.16C81.8946 342.16 81.3826 342 81.0306 341.68C80.6893 341.349 80.5186 340.875 80.5186 340.256V335.152H78.9026V334.192H80.5186V332.048L81.6866 331.776V334.192H83.9266V335.152H81.6866V339.952C81.6866 340.368 81.772 340.667 81.9426 340.848C82.124 341.029 82.4173 341.12 82.8226 341.12C83.0253 341.12 83.2066 341.104 83.3666 341.072C83.5266 341.04 83.7133 340.987 83.9266 340.912V341.952C83.7133 342.027 83.4893 342.08 83.2546 342.112C83.02 342.144 82.7906 342.16 82.5666 342.16ZM89.7079 345.504C89.4625 345.504 89.2119 345.467 88.9559 345.392V344.352C89.0625 344.373 89.1745 344.389 89.2919 344.4C89.4092 344.411 89.5105 344.416 89.5959 344.416C89.8945 344.416 90.1399 344.336 90.3319 344.176C90.5345 344.016 90.7052 343.765 90.8439 343.424L91.4199 342L88.4119 334.192H89.7079L92.0759 340.608L94.5879 334.192H95.8839L91.9479 343.776C91.7772 344.192 91.5905 344.528 91.3879 344.784C91.1852 345.04 90.9505 345.221 90.6839 345.328C90.4172 345.445 90.0919 345.504 89.7079 345.504ZM100.562 342.128C99.8369 342.128 99.1863 341.952 98.6103 341.6C98.0343 341.248 97.5809 340.768 97.2503 340.16C96.9196 339.552 96.7543 338.864 96.7543 338.096C96.7543 337.328 96.9196 336.64 97.2503 336.032C97.5809 335.424 98.0343 334.944 98.6103 334.592C99.1863 334.24 99.8369 334.064 100.562 334.064C101.277 334.064 101.917 334.24 102.482 334.592C103.058 334.944 103.512 335.424 103.842 336.032C104.173 336.64 104.338 337.328 104.338 338.096C104.338 338.864 104.173 339.552 103.842 340.16C103.512 340.768 103.058 341.248 102.482 341.6C101.917 341.952 101.277 342.128 100.562 342.128ZM100.546 341.104C101.058 341.104 101.512 340.976 101.906 340.72C102.301 340.453 102.61 340.091 102.834 339.632C103.069 339.173 103.186 338.661 103.186 338.096C103.186 337.52 103.069 337.008 102.834 336.56C102.61 336.101 102.301 335.744 101.906 335.488C101.512 335.221 101.058 335.088 100.546 335.088C100.034 335.088 99.5809 335.221 99.1863 335.488C98.7916 335.744 98.4769 336.101 98.2423 336.56C98.0183 337.008 97.9062 337.52 97.9062 338.096C97.9062 338.661 98.0183 339.173 98.2423 339.632C98.4769 340.091 98.7916 340.453 99.1863 340.72C99.5809 340.976 100.034 341.104 100.546 341.104ZM109.172 342.128C108.617 342.128 108.126 342.005 107.7 341.76C107.273 341.515 106.937 341.173 106.692 340.736C106.457 340.299 106.34 339.797 106.34 339.232V334.192H107.524V338.896C107.524 339.589 107.71 340.139 108.084 340.544C108.457 340.949 108.964 341.152 109.604 341.152C110.041 341.152 110.43 341.051 110.772 340.848C111.124 340.645 111.417 340.352 111.652 339.968V334.192H112.82V342H111.652V340.736C111.353 341.195 110.996 341.541 110.58 341.776C110.174 342.011 109.705 342.128 109.172 342.128ZM115.216 342V334.192H116.384V335.792C116.586 335.248 116.874 334.827 117.248 334.528C117.632 334.219 118.069 334.064 118.56 334.064C118.698 334.064 118.826 334.075 118.944 334.096C119.061 334.107 119.178 334.133 119.296 334.176V335.232C119.168 335.189 119.029 335.157 118.88 335.136C118.741 335.104 118.608 335.088 118.48 335.088C118 335.088 117.578 335.227 117.216 335.504C116.864 335.781 116.586 336.171 116.384 336.672V342H115.216ZM126.991 342.16C126.351 342.16 125.759 342.064 125.215 341.872C124.671 341.669 124.207 341.381 123.823 341.008L124.447 340.24C124.916 340.581 125.348 340.832 125.743 340.992C126.138 341.141 126.543 341.216 126.959 341.216C127.524 341.216 127.994 341.083 128.367 340.816C128.74 340.549 128.927 340.208 128.927 339.792C128.927 339.472 128.815 339.221 128.591 339.04C128.378 338.859 128.02 338.72 127.519 338.624L126.239 338.4C125.482 338.261 124.922 338.027 124.559 337.696C124.207 337.365 124.031 336.917 124.031 336.352C124.031 335.904 124.148 335.509 124.383 335.168C124.628 334.827 124.964 334.56 125.391 334.368C125.818 334.165 126.303 334.064 126.847 334.064C127.38 334.064 127.887 334.144 128.367 334.304C128.847 334.453 129.332 334.699 129.823 335.04L129.247 335.856C128.842 335.568 128.436 335.36 128.031 335.232C127.626 335.093 127.215 335.024 126.799 335.024C126.287 335.024 125.876 335.136 125.567 335.36C125.258 335.584 125.103 335.888 125.103 336.272C125.103 336.592 125.199 336.837 125.391 337.008C125.594 337.179 125.946 337.307 126.447 337.392L127.759 337.632C128.548 337.771 129.124 338.011 129.487 338.352C129.85 338.693 130.031 339.152 130.031 339.728C130.031 340.187 129.898 340.603 129.631 340.976C129.364 341.339 129.002 341.627 128.543 341.84C128.084 342.053 127.567 342.16 126.991 342.16ZM135.408 342.16C134.682 342.16 134.026 341.984 133.44 341.632C132.853 341.269 132.389 340.784 132.048 340.176C131.706 339.557 131.536 338.864 131.536 338.096C131.536 337.328 131.696 336.64 132.016 336.032C132.346 335.424 132.789 334.944 133.344 334.592C133.898 334.24 134.517 334.064 135.2 334.064C135.893 334.064 136.506 334.24 137.04 334.592C137.584 334.933 138.01 335.403 138.32 336C138.64 336.587 138.8 337.253 138.8 338V338.352H132.672C132.714 338.885 132.858 339.365 133.104 339.792C133.36 340.208 133.69 340.539 134.096 340.784C134.512 341.019 134.965 341.136 135.456 341.136C135.861 341.136 136.25 341.067 136.624 340.928C137.008 340.779 137.333 340.581 137.6 340.336L138.336 341.12C137.888 341.472 137.424 341.733 136.944 341.904C136.464 342.075 135.952 342.16 135.408 342.16ZM132.704 337.52H137.648C137.594 337.051 137.45 336.635 137.216 336.272C136.992 335.899 136.704 335.605 136.352 335.392C136.01 335.179 135.626 335.072 135.2 335.072C134.773 335.072 134.384 335.179 134.032 335.392C133.68 335.595 133.386 335.883 133.152 336.256C132.928 336.619 132.778 337.04 132.704 337.52ZM143.054 342.144C142.499 342.144 142.008 342.043 141.582 341.84C141.155 341.637 140.819 341.36 140.574 341.008C140.339 340.645 140.222 340.229 140.222 339.76C140.222 339.291 140.344 338.885 140.59 338.544C140.835 338.192 141.176 337.92 141.614 337.728C142.051 337.536 142.563 337.44 143.15 337.44C143.598 337.44 144.019 337.488 144.414 337.584C144.819 337.68 145.192 337.835 145.534 338.048V336.976C145.534 336.336 145.363 335.856 145.022 335.536C144.68 335.205 144.179 335.04 143.518 335.04C143.155 335.04 142.782 335.093 142.398 335.2C142.024 335.307 141.608 335.477 141.15 335.712L140.718 334.816C141.763 334.315 142.744 334.064 143.661 334.064C144.632 334.064 145.379 334.304 145.902 334.784C146.424 335.253 146.686 335.931 146.686 336.816V342H145.534V341.088C145.192 341.44 144.814 341.707 144.398 341.888C143.982 342.059 143.534 342.144 143.054 342.144ZM141.342 339.728C141.342 340.187 141.518 340.555 141.87 340.832C142.232 341.109 142.707 341.248 143.294 341.248C143.731 341.248 144.131 341.173 144.494 341.024C144.867 340.875 145.214 340.651 145.534 340.352V338.848C145.203 338.656 144.862 338.517 144.51 338.432C144.158 338.336 143.763 338.288 143.326 338.288C142.728 338.288 142.248 338.421 141.886 338.688C141.523 338.944 141.342 339.291 141.342 339.728ZM149.059 342V334.192H150.227V335.792C150.43 335.248 150.718 334.827 151.091 334.528C151.475 334.219 151.913 334.064 152.403 334.064C152.542 334.064 152.67 334.075 152.787 334.096C152.905 334.107 153.022 334.133 153.139 334.176V335.232C153.011 335.189 152.873 335.157 152.723 335.136C152.585 335.104 152.451 335.088 152.323 335.088C151.843 335.088 151.422 335.227 151.059 335.504C150.707 335.781 150.43 336.171 150.227 336.672V342H149.059ZM157.704 342.128C156.979 342.128 156.323 341.952 155.736 341.6C155.16 341.237 154.701 340.752 154.36 340.144C154.019 339.525 153.848 338.843 153.848 338.096C153.848 337.339 154.019 336.656 154.36 336.048C154.701 335.44 155.16 334.96 155.736 334.608C156.323 334.245 156.979 334.064 157.704 334.064C158.28 334.064 158.829 334.171 159.352 334.384C159.875 334.597 160.328 334.896 160.712 335.28L159.96 336.096C159.683 335.787 159.347 335.547 158.952 335.376C158.557 335.205 158.157 335.12 157.752 335.12C157.24 335.12 156.776 335.253 156.36 335.52C155.955 335.787 155.629 336.144 155.384 336.592C155.139 337.04 155.016 337.541 155.016 338.096C155.016 338.651 155.139 339.152 155.384 339.6C155.629 340.048 155.955 340.405 156.36 340.672C156.776 340.939 157.24 341.072 157.752 341.072C158.157 341.072 158.557 340.987 158.952 340.816C159.347 340.635 159.683 340.395 159.96 340.096L160.712 340.912C160.328 341.296 159.875 341.595 159.352 341.808C158.829 342.021 158.28 342.128 157.704 342.128ZM162.341 342V330.448L163.509 330.208V335.456C163.807 334.987 164.165 334.64 164.581 334.416C164.997 334.181 165.466 334.064 165.989 334.064C166.554 334.064 167.045 334.187 167.461 334.432C167.887 334.667 168.218 335.003 168.453 335.44C168.698 335.867 168.821 336.368 168.821 336.944V342H167.653V337.28C167.653 336.587 167.461 336.043 167.077 335.648C166.703 335.243 166.197 335.04 165.557 335.04C165.13 335.04 164.741 335.141 164.389 335.344C164.037 335.547 163.743 335.845 163.509 336.24V342H162.341ZM180.647 345.344V340.96C180.348 341.333 179.986 341.621 179.559 341.824C179.132 342.016 178.663 342.112 178.151 342.112C177.479 342.112 176.871 341.936 176.327 341.584C175.783 341.221 175.351 340.741 175.031 340.144C174.711 339.536 174.551 338.859 174.551 338.112C174.551 337.355 174.711 336.677 175.031 336.08C175.362 335.472 175.804 334.992 176.359 334.64C176.914 334.277 177.532 334.096 178.215 334.096C178.695 334.096 179.143 334.192 179.559 334.384C179.975 334.565 180.338 334.832 180.647 335.184V334.192H181.815V345.344H180.647ZM178.439 341.088C178.898 341.088 179.319 340.997 179.703 340.816C180.087 340.635 180.402 340.379 180.647 340.048V336.176C180.391 335.845 180.066 335.589 179.671 335.408C179.287 335.216 178.876 335.12 178.439 335.12C177.916 335.12 177.447 335.248 177.031 335.504C176.626 335.76 176.3 336.112 176.055 336.56C175.82 337.008 175.703 337.52 175.703 338.096C175.703 338.661 175.82 339.173 176.055 339.632C176.3 340.08 176.626 340.437 177.031 340.704C177.447 340.96 177.916 341.088 178.439 341.088ZM187 342.128C186.445 342.128 185.954 342.005 185.528 341.76C185.101 341.515 184.765 341.173 184.52 340.736C184.285 340.299 184.168 339.797 184.168 339.232V334.192H185.352V338.896C185.352 339.589 185.538 340.139 185.912 340.544C186.285 340.949 186.792 341.152 187.432 341.152C187.869 341.152 188.258 341.051 188.6 340.848C188.952 340.645 189.245 340.352 189.48 339.968V334.192H190.648V342H189.48V340.736C189.181 341.195 188.824 341.541 188.408 341.776C188.002 342.011 187.533 342.128 187 342.128ZM196.564 342.16C195.838 342.16 195.182 341.984 194.596 341.632C194.009 341.269 193.545 340.784 193.204 340.176C192.862 339.557 192.692 338.864 192.692 338.096C192.692 337.328 192.852 336.64 193.172 336.032C193.502 335.424 193.945 334.944 194.5 334.592C195.054 334.24 195.673 334.064 196.356 334.064C197.049 334.064 197.662 334.24 198.196 334.592C198.74 334.933 199.166 335.403 199.476 336C199.796 336.587 199.956 337.253 199.956 338V338.352H193.828C193.87 338.885 194.014 339.365 194.26 339.792C194.516 340.208 194.846 340.539 195.252 340.784C195.668 341.019 196.121 341.136 196.612 341.136C197.017 341.136 197.406 341.067 197.78 340.928C198.164 340.779 198.489 340.581 198.756 340.336L199.492 341.12C199.044 341.472 198.58 341.733 198.1 341.904C197.62 342.075 197.108 342.16 196.564 342.16ZM193.86 337.52H198.804C198.75 337.051 198.606 336.635 198.372 336.272C198.148 335.899 197.86 335.605 197.508 335.392C197.166 335.179 196.782 335.072 196.356 335.072C195.929 335.072 195.54 335.179 195.188 335.392C194.836 335.595 194.542 335.883 194.308 336.256C194.084 336.619 193.934 337.04 193.86 337.52ZM201.95 342V334.192H203.118V335.792C203.321 335.248 203.609 334.827 203.982 334.528C204.366 334.219 204.803 334.064 205.294 334.064C205.433 334.064 205.561 334.075 205.678 334.096C205.795 334.107 205.913 334.133 206.03 334.176V335.232C205.902 335.189 205.763 335.157 205.614 335.136C205.475 335.104 205.342 335.088 205.214 335.088C204.734 335.088 204.313 335.227 203.95 335.504C203.598 335.781 203.321 336.171 203.118 336.672V342H201.95ZM208.067 345.504C207.822 345.504 207.571 345.467 207.315 345.392V344.352C207.422 344.373 207.534 344.389 207.651 344.4C207.769 344.411 207.87 344.416 207.955 344.416C208.254 344.416 208.499 344.336 208.691 344.176C208.894 344.016 209.065 343.765 209.203 343.424L209.779 342L206.771 334.192H208.067L210.435 340.608L212.947 334.192H214.243L210.307 343.776C210.137 344.192 209.95 344.528 209.747 344.784C209.545 345.04 209.31 345.221 209.043 345.328C208.777 345.445 208.451 345.504 208.067 345.504ZM221.85 342.144C221.296 342.144 220.805 342.043 220.378 341.84C219.952 341.637 219.616 341.36 219.37 341.008C219.136 340.645 219.018 340.229 219.018 339.76C219.018 339.291 219.141 338.885 219.386 338.544C219.632 338.192 219.973 337.92 220.41 337.728C220.848 337.536 221.36 337.44 221.946 337.44C222.394 337.44 222.816 337.488 223.21 337.584C223.616 337.68 223.989 337.835 224.33 338.048V336.976C224.33 336.336 224.16 335.856 223.818 335.536C223.477 335.205 222.976 335.04 222.314 335.04C221.952 335.04 221.578 335.093 221.194 335.2C220.821 335.307 220.405 335.477 219.946 335.712L219.514 334.816C220.56 334.315 221.541 334.064 222.458 334.064C223.429 334.064 224.176 334.304 224.698 334.784C225.221 335.253 225.482 335.931 225.482 336.816V342H224.33V341.088C223.989 341.44 223.61 341.707 223.194 341.888C222.778 342.059 222.33 342.144 221.85 342.144ZM220.138 339.728C220.138 340.187 220.314 340.555 220.666 340.832C221.029 341.109 221.504 341.248 222.09 341.248C222.528 341.248 222.928 341.173 223.29 341.024C223.664 340.875 224.01 340.651 224.33 340.352V338.848C224 338.656 223.658 338.517 223.306 338.432C222.954 338.336 222.56 338.288 222.122 338.288C221.525 338.288 221.045 338.421 220.682 338.688C220.32 338.944 220.138 339.291 220.138 339.728ZM227.856 342V334.192H229.024V335.456C229.323 334.987 229.68 334.64 230.096 334.416C230.512 334.181 230.982 334.064 231.504 334.064C232.07 334.064 232.56 334.187 232.976 334.432C233.403 334.667 233.734 335.003 233.968 335.44C234.214 335.867 234.336 336.368 234.336 336.944V342H233.168V337.28C233.168 336.587 232.976 336.043 232.592 335.648C232.219 335.243 231.712 335.04 231.072 335.04C230.646 335.04 230.256 335.141 229.904 335.344C229.552 335.547 229.259 335.845 229.024 336.24V342H227.856ZM239.932 342.112C239.26 342.112 238.652 341.936 238.108 341.584C237.564 341.221 237.132 340.741 236.812 340.144C236.492 339.536 236.332 338.859 236.332 338.112C236.332 337.355 236.492 336.677 236.812 336.08C237.143 335.472 237.586 334.992 238.14 334.64C238.695 334.277 239.314 334.096 239.996 334.096C240.476 334.096 240.924 334.192 241.34 334.384C241.756 334.565 242.119 334.832 242.428 335.184V330.448L243.596 330.208V342H242.428V340.96C242.13 341.333 241.767 341.621 241.34 341.824C240.914 342.016 240.444 342.112 239.932 342.112ZM240.22 341.088C240.679 341.088 241.1 340.997 241.484 340.816C241.868 340.635 242.183 340.379 242.428 340.048V336.176C242.172 335.845 241.847 335.589 241.452 335.408C241.068 335.216 240.658 335.12 240.22 335.12C239.698 335.12 239.228 335.248 238.812 335.504C238.407 335.76 238.082 336.112 237.836 336.56C237.602 337.008 237.484 337.52 237.484 338.096C237.484 338.661 237.602 339.173 237.836 339.632C238.082 340.08 238.407 340.437 238.812 340.704C239.228 340.96 239.698 341.088 240.22 341.088ZM252.707 342.16C252.035 342.16 251.523 342 251.171 341.68C250.83 341.349 250.659 340.875 250.659 340.256V335.152H249.043V334.192H250.659V332.048L251.827 331.776V334.192H254.067V335.152H251.827V339.952C251.827 340.368 251.913 340.667 252.083 340.848C252.265 341.029 252.558 341.12 252.963 341.12C253.166 341.12 253.347 341.104 253.507 341.072C253.667 341.04 253.854 340.987 254.067 340.912V341.952C253.854 342.027 253.63 342.08 253.395 342.112C253.161 342.144 252.931 342.16 252.707 342.16ZM255.778 342V334.192H256.946V335.792C257.149 335.248 257.437 334.827 257.81 334.528C258.194 334.219 258.631 334.064 259.122 334.064C259.261 334.064 259.389 334.075 259.506 334.096C259.623 334.107 259.741 334.133 259.858 334.176V335.232C259.73 335.189 259.591 335.157 259.442 335.136C259.303 335.104 259.17 335.088 259.042 335.088C258.562 335.088 258.141 335.227 257.778 335.504C257.426 335.781 257.149 336.171 256.946 336.672V342H255.778ZM261.895 345.504C261.65 345.504 261.399 345.467 261.143 345.392V344.352C261.25 344.373 261.362 344.389 261.479 344.4C261.597 344.411 261.698 344.416 261.783 344.416C262.082 344.416 262.327 344.336 262.519 344.176C262.722 344.016 262.893 343.765 263.031 343.424L263.607 342L260.599 334.192H261.895L264.263 340.608L266.775 334.192H268.071L264.135 343.776C263.965 344.192 263.778 344.528 263.575 344.784C263.373 345.04 263.138 345.221 262.871 345.328C262.605 345.445 262.279 345.504 261.895 345.504ZM275.679 342.144C275.124 342.144 274.633 342.043 274.207 341.84C273.78 341.637 273.444 341.36 273.199 341.008C272.964 340.645 272.847 340.229 272.847 339.76C272.847 339.291 272.969 338.885 273.215 338.544C273.46 338.192 273.801 337.92 274.239 337.728C274.676 337.536 275.188 337.44 275.775 337.44C276.223 337.44 276.644 337.488 277.039 337.584C277.444 337.68 277.817 337.835 278.159 338.048V336.976C278.159 336.336 277.988 335.856 277.647 335.536C277.305 335.205 276.804 335.04 276.143 335.04C275.78 335.04 275.407 335.093 275.023 335.2C274.649 335.307 274.233 335.477 273.775 335.712L273.343 334.816C274.388 334.315 275.369 334.064 276.286 334.064C277.257 334.064 278.004 334.304 278.527 334.784C279.049 335.253 279.311 335.931 279.311 336.816V342H278.159V341.088C277.817 341.44 277.439 341.707 277.023 341.888C276.607 342.059 276.159 342.144 275.679 342.144ZM273.967 339.728C273.967 340.187 274.143 340.555 274.495 340.832C274.857 341.109 275.332 341.248 275.919 341.248C276.356 341.248 276.756 341.173 277.119 341.024C277.492 340.875 277.839 340.651 278.159 340.352V338.848C277.828 338.656 277.487 338.517 277.135 338.432C276.783 338.336 276.388 338.288 275.951 338.288C275.353 338.288 274.873 338.421 274.511 338.688C274.148 338.944 273.967 339.291 273.967 339.728ZM285.3 345.504C284.778 345.504 284.25 345.429 283.716 345.28C283.194 345.141 282.708 344.944 282.26 344.688L282.756 343.792C283.236 344.037 283.674 344.219 284.068 344.336C284.463 344.453 284.858 344.512 285.252 344.512C285.967 344.512 286.506 344.341 286.868 344C287.242 343.659 287.428 343.163 287.428 342.512V340.944C287.13 341.317 286.767 341.605 286.34 341.808C285.914 342 285.444 342.096 284.932 342.096C284.26 342.096 283.652 341.92 283.108 341.568C282.564 341.205 282.132 340.725 281.812 340.128C281.492 339.52 281.332 338.843 281.332 338.096C281.332 337.349 281.492 336.677 281.812 336.08C282.143 335.472 282.586 334.992 283.14 334.64C283.695 334.277 284.314 334.096 284.996 334.096C285.487 334.096 285.94 334.192 286.356 334.384C286.772 334.565 287.135 334.837 287.444 335.2V334.192H288.596V342.496C288.596 343.467 288.314 344.208 287.748 344.72C287.183 345.243 286.367 345.504 285.3 345.504ZM285.22 341.088C285.679 341.088 286.1 340.997 286.484 340.816C286.868 340.624 287.183 340.363 287.428 340.032V336.176C287.172 335.845 286.847 335.589 286.452 335.408C286.068 335.216 285.658 335.12 285.22 335.12C284.698 335.12 284.228 335.248 283.812 335.504C283.407 335.76 283.082 336.112 282.836 336.56C282.602 337.008 282.484 337.52 282.484 338.096C282.484 338.661 282.602 339.173 282.836 339.632C283.082 340.08 283.407 340.437 283.812 340.704C284.228 340.96 284.698 341.088 285.22 341.088ZM293.413 342.144C292.858 342.144 292.368 342.043 291.941 341.84C291.514 341.637 291.178 341.36 290.933 341.008C290.698 340.645 290.581 340.229 290.581 339.76C290.581 339.291 290.704 338.885 290.949 338.544C291.194 338.192 291.536 337.92 291.973 337.728C292.41 337.536 292.922 337.44 293.509 337.44C293.957 337.44 294.378 337.488 294.773 337.584C295.178 337.68 295.552 337.835 295.893 338.048V336.976C295.893 336.336 295.722 335.856 295.381 335.536C295.04 335.205 294.538 335.04 293.877 335.04C293.514 335.04 293.141 335.093 292.757 335.2C292.384 335.307 291.968 335.477 291.509 335.712L291.077 334.816C292.122 334.315 293.104 334.064 294.021 334.064C294.992 334.064 295.738 334.304 296.261 334.784C296.784 335.253 297.045 335.931 297.045 336.816V342H295.893V341.088C295.552 341.44 295.173 341.707 294.757 341.888C294.341 342.059 293.893 342.144 293.413 342.144ZM291.701 339.728C291.701 340.187 291.877 340.555 292.229 340.832C292.592 341.109 293.066 341.248 293.653 341.248C294.09 341.248 294.49 341.173 294.853 341.024C295.226 340.875 295.573 340.651 295.893 340.352V338.848C295.562 338.656 295.221 338.517 294.869 338.432C294.517 338.336 294.122 338.288 293.685 338.288C293.088 338.288 292.608 338.421 292.245 338.688C291.882 338.944 291.701 339.291 291.701 339.728ZM299.403 342V334.192H300.571V342H299.403ZM299.995 332.256C299.76 332.256 299.557 332.176 299.387 332.016C299.227 331.845 299.147 331.648 299.147 331.424C299.147 331.2 299.227 331.008 299.387 330.848C299.557 330.677 299.76 330.592 299.995 330.592C300.229 330.592 300.427 330.677 300.587 330.848C300.757 331.008 300.843 331.2 300.843 331.424C300.843 331.648 300.757 331.845 300.587 332.016C300.427 332.176 300.229 332.256 299.995 332.256ZM302.966 342V334.192H304.134V335.456C304.432 334.987 304.79 334.64 305.206 334.416C305.622 334.181 306.091 334.064 306.614 334.064C307.179 334.064 307.67 334.187 308.086 334.432C308.512 334.667 308.843 335.003 309.078 335.44C309.323 335.867 309.446 336.368 309.446 336.944V342H308.278V337.28C308.278 336.587 308.086 336.043 307.702 335.648C307.328 335.243 306.822 335.04 306.182 335.04C305.755 335.04 305.366 335.141 305.014 335.344C304.662 335.547 304.368 335.845 304.134 336.24V342H302.966ZM312.594 342.128C312.359 342.128 312.156 342.043 311.986 341.872C311.826 341.701 311.746 341.499 311.746 341.264C311.746 341.019 311.826 340.816 311.986 340.656C312.156 340.485 312.359 340.4 312.594 340.4C312.828 340.4 313.026 340.485 313.186 340.656C313.356 340.816 313.442 341.019 313.442 341.264C313.442 341.499 313.356 341.701 313.186 341.872C313.026 342.043 312.828 342.128 312.594 342.128ZM324.92 342.176C324.12 342.176 323.373 342.032 322.68 341.744C321.997 341.445 321.395 341.035 320.872 340.512C320.349 339.979 319.944 339.365 319.656 338.672C319.368 337.968 319.224 337.211 319.224 336.4C319.224 335.589 319.368 334.837 319.656 334.144C319.944 333.44 320.349 332.827 320.872 332.304C321.395 331.771 321.997 331.36 322.68 331.072C323.373 330.773 324.12 330.624 324.92 330.624C325.475 330.624 326.003 330.699 326.504 330.848C327.016 330.987 327.496 331.195 327.944 331.472C328.392 331.739 328.792 332.069 329.144 332.464L328.328 333.312C327.912 332.811 327.4 332.427 326.792 332.16C326.195 331.883 325.571 331.744 324.92 331.744C324.291 331.744 323.704 331.861 323.16 332.096C322.616 332.331 322.141 332.661 321.736 333.088C321.341 333.515 321.032 334.011 320.808 334.576C320.584 335.131 320.472 335.739 320.472 336.4C320.472 337.051 320.584 337.659 320.808 338.224C321.032 338.789 321.341 339.285 321.736 339.712C322.141 340.139 322.616 340.469 323.16 340.704C323.704 340.939 324.291 341.056 324.92 341.056C325.571 341.056 326.195 340.917 326.792 340.64C327.4 340.363 327.912 339.979 328.328 339.488L329.144 340.336C328.792 340.731 328.392 341.067 327.944 341.344C327.496 341.611 327.016 341.819 326.504 341.968C326.003 342.107 325.475 342.176 324.92 342.176ZM331.138 342V330.448L332.306 330.208V335.456C332.604 334.987 332.962 334.64 333.378 334.416C333.794 334.181 334.263 334.064 334.786 334.064C335.351 334.064 335.842 334.187 336.258 334.432C336.684 334.667 337.015 335.003 337.25 335.44C337.495 335.867 337.618 336.368 337.618 336.944V342H336.45V337.28C336.45 336.587 336.258 336.043 335.874 335.648C335.5 335.243 334.994 335.04 334.354 335.04C333.927 335.04 333.538 335.141 333.186 335.344C332.834 335.547 332.54 335.845 332.306 336.24V342H331.138ZM343.486 342.16C342.76 342.16 342.104 341.984 341.518 341.632C340.931 341.269 340.467 340.784 340.126 340.176C339.784 339.557 339.614 338.864 339.614 338.096C339.614 337.328 339.774 336.64 340.094 336.032C340.424 335.424 340.867 334.944 341.422 334.592C341.976 334.24 342.595 334.064 343.278 334.064C343.971 334.064 344.584 334.24 345.118 334.592C345.662 334.933 346.088 335.403 346.398 336C346.718 336.587 346.878 337.253 346.878 338V338.352H340.75C340.792 338.885 340.936 339.365 341.182 339.792C341.438 340.208 341.768 340.539 342.174 340.784C342.59 341.019 343.043 341.136 343.534 341.136C343.939 341.136 344.328 341.067 344.702 340.928C345.086 340.779 345.411 340.581 345.678 340.336L346.414 341.12C345.966 341.472 345.502 341.733 345.022 341.904C344.542 342.075 344.03 342.16 343.486 342.16ZM340.782 337.52H345.726C345.672 337.051 345.528 336.635 345.294 336.272C345.07 335.899 344.782 335.605 344.43 335.392C344.088 335.179 343.704 335.072 343.278 335.072C342.851 335.072 342.462 335.179 342.11 335.392C341.758 335.595 341.464 335.883 341.23 336.256C341.006 336.619 340.856 337.04 340.782 337.52ZM352.376 342.128C351.651 342.128 350.995 341.952 350.408 341.6C349.832 341.237 349.373 340.752 349.032 340.144C348.691 339.525 348.52 338.843 348.52 338.096C348.52 337.339 348.691 336.656 349.032 336.048C349.373 335.44 349.832 334.96 350.408 334.608C350.995 334.245 351.651 334.064 352.376 334.064C352.952 334.064 353.501 334.171 354.024 334.384C354.547 334.597 355 334.896 355.384 335.28L354.632 336.096C354.355 335.787 354.019 335.547 353.624 335.376C353.229 335.205 352.829 335.12 352.424 335.12C351.912 335.12 351.448 335.253 351.032 335.52C350.627 335.787 350.301 336.144 350.056 336.592C349.811 337.04 349.688 337.541 349.688 338.096C349.688 338.651 349.811 339.152 350.056 339.6C350.301 340.048 350.627 340.405 351.032 340.672C351.448 340.939 351.912 341.072 352.424 341.072C352.829 341.072 353.229 340.987 353.624 340.816C354.019 340.635 354.355 340.395 354.632 340.096L355.384 340.912C355 341.296 354.547 341.595 354.024 341.808C353.501 342.021 352.952 342.128 352.376 342.128ZM357.013 342V330.448L358.181 330.208V337.696L361.893 334.192H363.301L359.333 337.904L363.477 342H361.941L358.181 338.272V342H357.013ZM61.5204 369.504C61.275 369.504 61.0244 369.467 60.7684 369.392V368.352C60.875 368.373 60.987 368.389 61.1044 368.4C61.2217 368.411 61.323 368.416 61.4084 368.416C61.707 368.416 61.9524 368.336 62.1444 368.176C62.347 368.016 62.5177 367.765 62.6564 367.424L63.2324 366L60.2244 358.192H61.5204L63.8884 364.608L66.4004 358.192H67.6964L63.7604 367.776C63.5897 368.192 63.403 368.528 63.2004 368.784C62.9977 369.04 62.763 369.221 62.4964 369.328C62.2297 369.445 61.9044 369.504 61.5204 369.504ZM72.3748 366.128C71.6494 366.128 70.9988 365.952 70.4228 365.6C69.8468 365.248 69.3934 364.768 69.0628 364.16C68.7321 363.552 68.5668 362.864 68.5668 362.096C68.5668 361.328 68.7321 360.64 69.0628 360.032C69.3934 359.424 69.8468 358.944 70.4228 358.592C70.9988 358.24 71.6494 358.064 72.3748 358.064C73.0894 358.064 73.7294 358.24 74.2948 358.592C74.8708 358.944 75.3241 359.424 75.6548 360.032C75.9854 360.64 76.1508 361.328 76.1508 362.096C76.1508 362.864 75.9854 363.552 75.6548 364.16C75.3241 364.768 74.8708 365.248 74.2948 365.6C73.7294 365.952 73.0894 366.128 72.3748 366.128ZM72.3588 365.104C72.8708 365.104 73.3241 364.976 73.7188 364.72C74.1134 364.453 74.4228 364.091 74.6468 363.632C74.8814 363.173 74.9988 362.661 74.9988 362.096C74.9988 361.52 74.8814 361.008 74.6468 360.56C74.4228 360.101 74.1134 359.744 73.7188 359.488C73.3241 359.221 72.8708 359.088 72.3588 359.088C71.8468 359.088 71.3934 359.221 70.9988 359.488C70.6041 359.744 70.2894 360.101 70.0548 360.56C69.8308 361.008 69.7188 361.52 69.7188 362.096C69.7188 362.661 69.8308 363.173 70.0548 363.632C70.2894 364.091 70.6041 364.453 70.9988 364.72C71.3934 364.976 71.8468 365.104 72.3588 365.104ZM80.984 366.128C80.4293 366.128 79.9387 366.005 79.512 365.76C79.0853 365.515 78.7493 365.173 78.504 364.736C78.2693 364.299 78.152 363.797 78.152 363.232V358.192H79.336V362.896C79.336 363.589 79.5227 364.139 79.896 364.544C80.2693 364.949 80.776 365.152 81.416 365.152C81.8533 365.152 82.2427 365.051 82.584 364.848C82.936 364.645 83.2293 364.352 83.464 363.968V358.192H84.632V366H83.464V364.736C83.1653 365.195 82.808 365.541 82.392 365.776C81.9867 366.011 81.5173 366.128 80.984 366.128ZM87.0281 366V358.192H88.1961V359.792C88.3988 359.248 88.6868 358.827 89.0601 358.528C89.4441 358.219 89.8815 358.064 90.3721 358.064C90.5108 358.064 90.6388 358.075 90.7561 358.096C90.8735 358.107 90.9908 358.133 91.1081 358.176V359.232C90.9801 359.189 90.8415 359.157 90.6921 359.136C90.5535 359.104 90.4201 359.088 90.2921 359.088C89.8121 359.088 89.3908 359.227 89.0281 359.504C88.6761 359.781 88.3988 360.171 88.1961 360.672V366H87.0281ZM98.8035 366.16C98.1635 366.16 97.5715 366.064 97.0275 365.872C96.4835 365.669 96.0195 365.381 95.6355 365.008L96.2595 364.24C96.7288 364.581 97.1608 364.832 97.5555 364.992C97.9502 365.141 98.3555 365.216 98.7715 365.216C99.3368 365.216 99.8062 365.083 100.18 364.816C100.553 364.549 100.74 364.208 100.74 363.792C100.74 363.472 100.628 363.221 100.404 363.04C100.19 362.859 99.8328 362.72 99.3315 362.624L98.0515 362.4C97.2942 362.261 96.7342 362.027 96.3715 361.696C96.0195 361.365 95.8435 360.917 95.8435 360.352C95.8435 359.904 95.9608 359.509 96.1955 359.168C96.4408 358.827 96.7768 358.56 97.2035 358.368C97.6302 358.165 98.1155 358.064 98.6595 358.064C99.1928 358.064 99.6995 358.144 100.18 358.304C100.66 358.453 101.145 358.699 101.636 359.04L101.06 359.856C100.654 359.568 100.249 359.36 99.8435 359.232C99.4382 359.093 99.0275 359.024 98.6115 359.024C98.0995 359.024 97.6888 359.136 97.3795 359.36C97.0702 359.584 96.9155 359.888 96.9155 360.272C96.9155 360.592 97.0115 360.837 97.2035 361.008C97.4062 361.179 97.7582 361.307 98.2595 361.392L99.5715 361.632C100.361 361.771 100.937 362.011 101.3 362.352C101.662 362.693 101.844 363.152 101.844 363.728C101.844 364.187 101.71 364.603 101.444 364.976C101.177 365.339 100.814 365.627 100.356 365.84C99.8968 366.053 99.3795 366.16 98.8035 366.16ZM103.622 369.344V358.192H104.774V359.312C105.073 358.917 105.435 358.619 105.862 358.416C106.299 358.203 106.779 358.096 107.302 358.096C107.985 358.096 108.593 358.277 109.126 358.64C109.67 358.992 110.102 359.472 110.422 360.08C110.742 360.677 110.902 361.349 110.902 362.096C110.902 362.843 110.737 363.52 110.406 364.128C110.086 364.736 109.649 365.221 109.094 365.584C108.55 365.936 107.931 366.112 107.238 366.112C106.747 366.112 106.294 366.021 105.878 365.84C105.462 365.648 105.099 365.376 104.79 365.024V369.344H103.622ZM107.014 365.104C107.537 365.104 108.001 364.976 108.406 364.72C108.822 364.453 109.147 364.096 109.382 363.648C109.627 363.189 109.75 362.677 109.75 362.112C109.75 361.536 109.627 361.024 109.382 360.576C109.147 360.128 108.822 359.776 108.406 359.52C108.001 359.253 107.537 359.12 107.014 359.12C106.555 359.12 106.129 359.216 105.734 359.408C105.35 359.589 105.035 359.851 104.79 360.192V364.016C105.046 364.357 105.366 364.624 105.75 364.816C106.145 365.008 106.566 365.104 107.014 365.104ZM116.47 366.16C115.745 366.16 115.089 365.984 114.502 365.632C113.915 365.269 113.451 364.784 113.11 364.176C112.769 363.557 112.598 362.864 112.598 362.096C112.598 361.328 112.758 360.64 113.078 360.032C113.409 359.424 113.851 358.944 114.406 358.592C114.961 358.24 115.579 358.064 116.262 358.064C116.955 358.064 117.569 358.24 118.102 358.592C118.646 358.933 119.073 359.403 119.382 360C119.702 360.587 119.862 361.253 119.862 362V362.352H113.734C113.777 362.885 113.921 363.365 114.166 363.792C114.422 364.208 114.753 364.539 115.158 364.784C115.574 365.019 116.027 365.136 116.518 365.136C116.923 365.136 117.313 365.067 117.686 364.928C118.07 364.779 118.395 364.581 118.662 364.336L119.398 365.12C118.95 365.472 118.486 365.733 118.006 365.904C117.526 366.075 117.014 366.16 116.47 366.16ZM113.766 361.52H118.71C118.657 361.051 118.513 360.635 118.278 360.272C118.054 359.899 117.766 359.605 117.414 359.392C117.073 359.179 116.689 359.072 116.262 359.072C115.835 359.072 115.446 359.179 115.094 359.392C114.742 359.595 114.449 359.883 114.214 360.256C113.99 360.619 113.841 361.04 113.766 361.52ZM121.856 366V354.448L123.024 354.208V366H121.856ZM125.419 366V354.448L126.587 354.208V366H125.419ZM128.965 366V358.192H130.133V366H128.965ZM129.557 356.256C129.323 356.256 129.12 356.176 128.949 356.016C128.789 355.845 128.709 355.648 128.709 355.424C128.709 355.2 128.789 355.008 128.949 354.848C129.12 354.677 129.323 354.592 129.557 354.592C129.792 354.592 129.989 354.677 130.149 354.848C130.32 355.008 130.405 355.2 130.405 355.424C130.405 355.648 130.32 355.845 130.149 356.016C129.989 356.176 129.792 356.256 129.557 356.256ZM132.528 366V358.192H133.696V359.456C133.995 358.987 134.352 358.64 134.768 358.416C135.184 358.181 135.653 358.064 136.176 358.064C136.741 358.064 137.232 358.187 137.648 358.432C138.075 358.667 138.405 359.003 138.64 359.44C138.885 359.867 139.008 360.368 139.008 360.944V366H137.84V361.28C137.84 360.587 137.648 360.043 137.264 359.648C136.891 359.243 136.384 359.04 135.744 359.04C135.317 359.04 134.928 359.141 134.576 359.344C134.224 359.547 133.931 359.845 133.696 360.24V366H132.528ZM144.972 369.504C144.45 369.504 143.922 369.429 143.388 369.28C142.866 369.141 142.38 368.944 141.932 368.688L142.428 367.792C142.908 368.037 143.346 368.219 143.74 368.336C144.135 368.453 144.53 368.512 144.924 368.512C145.639 368.512 146.178 368.341 146.54 368C146.914 367.659 147.1 367.163 147.1 366.512V364.944C146.802 365.317 146.439 365.605 146.012 365.808C145.586 366 145.116 366.096 144.604 366.096C143.932 366.096 143.324 365.92 142.78 365.568C142.236 365.205 141.804 364.725 141.484 364.128C141.164 363.52 141.004 362.843 141.004 362.096C141.004 361.349 141.164 360.677 141.484 360.08C141.815 359.472 142.258 358.992 142.812 358.64C143.367 358.277 143.986 358.096 144.668 358.096C145.159 358.096 145.612 358.192 146.028 358.384C146.444 358.565 146.807 358.837 147.116 359.2V358.192H148.268V366.496C148.268 367.467 147.986 368.208 147.42 368.72C146.855 369.243 146.039 369.504 144.972 369.504ZM144.892 365.088C145.351 365.088 145.772 364.997 146.156 364.816C146.54 364.624 146.855 364.363 147.1 364.032V360.176C146.844 359.845 146.519 359.589 146.124 359.408C145.74 359.216 145.33 359.12 144.892 359.12C144.37 359.12 143.9 359.248 143.484 359.504C143.079 359.76 142.754 360.112 142.508 360.56C142.274 361.008 142.156 361.52 142.156 362.096C142.156 362.661 142.274 363.173 142.508 363.632C142.754 364.08 143.079 364.437 143.484 364.704C143.9 364.96 144.37 365.088 144.892 365.088ZM157.859 366.128C157.134 366.128 156.483 365.952 155.907 365.6C155.331 365.248 154.878 364.768 154.547 364.16C154.216 363.552 154.051 362.864 154.051 362.096C154.051 361.328 154.216 360.64 154.547 360.032C154.878 359.424 155.331 358.944 155.907 358.592C156.483 358.24 157.134 358.064 157.859 358.064C158.574 358.064 159.214 358.24 159.779 358.592C160.355 358.944 160.808 359.424 161.139 360.032C161.47 360.64 161.635 361.328 161.635 362.096C161.635 362.864 161.47 363.552 161.139 364.16C160.808 364.768 160.355 365.248 159.779 365.6C159.214 365.952 158.574 366.128 157.859 366.128ZM157.843 365.104C158.355 365.104 158.808 364.976 159.203 364.72C159.598 364.453 159.907 364.091 160.131 363.632C160.366 363.173 160.483 362.661 160.483 362.096C160.483 361.52 160.366 361.008 160.131 360.56C159.907 360.101 159.598 359.744 159.203 359.488C158.808 359.221 158.355 359.088 157.843 359.088C157.331 359.088 156.878 359.221 156.483 359.488C156.088 359.744 155.774 360.101 155.539 360.56C155.315 361.008 155.203 361.52 155.203 362.096C155.203 362.661 155.315 363.173 155.539 363.632C155.774 364.091 156.088 364.453 156.483 364.72C156.878 364.976 157.331 365.104 157.843 365.104ZM163.684 366V358.192H164.852V359.792C165.055 359.248 165.343 358.827 165.716 358.528C166.1 358.219 166.538 358.064 167.028 358.064C167.167 358.064 167.295 358.075 167.412 358.096C167.53 358.107 167.647 358.133 167.764 358.176V359.232C167.636 359.189 167.498 359.157 167.348 359.136C167.21 359.104 167.076 359.088 166.948 359.088C166.468 359.088 166.047 359.227 165.684 359.504C165.332 359.781 165.055 360.171 164.852 360.672V366H163.684ZM176.02 366.16C175.348 366.16 174.836 366 174.484 365.68C174.142 365.349 173.972 364.875 173.972 364.256V359.152H172.356V358.192H173.972V356.048L175.14 355.776V358.192H177.38V359.152H175.14V363.952C175.14 364.368 175.225 364.667 175.396 364.848C175.577 365.029 175.87 365.12 176.276 365.12C176.478 365.12 176.66 365.104 176.82 365.072C176.98 365.04 177.166 364.987 177.38 364.912V365.952C177.166 366.027 176.942 366.08 176.708 366.112C176.473 366.144 176.244 366.16 176.02 366.16ZM179.091 366V358.192H180.259V359.792C180.461 359.248 180.749 358.827 181.123 358.528C181.507 358.219 181.944 358.064 182.435 358.064C182.573 358.064 182.701 358.075 182.819 358.096C182.936 358.107 183.053 358.133 183.171 358.176V359.232C183.043 359.189 182.904 359.157 182.755 359.136C182.616 359.104 182.483 359.088 182.355 359.088C181.875 359.088 181.453 359.227 181.091 359.504C180.739 359.781 180.461 360.171 180.259 360.672V366H179.091ZM185.208 369.504C184.963 369.504 184.712 369.467 184.456 369.392V368.352C184.563 368.373 184.675 368.389 184.792 368.4C184.909 368.411 185.011 368.416 185.096 368.416C185.395 368.416 185.64 368.336 185.832 368.176C186.035 368.016 186.205 367.765 186.344 367.424L186.92 366L183.912 358.192H185.208L187.576 364.608L190.088 358.192H191.384L187.448 367.776C187.277 368.192 187.091 368.528 186.888 368.784C186.685 369.04 186.451 369.221 186.184 369.328C185.917 369.445 185.592 369.504 185.208 369.504ZM198.991 366.144C198.436 366.144 197.946 366.043 197.519 365.84C197.092 365.637 196.756 365.36 196.511 365.008C196.276 364.645 196.159 364.229 196.159 363.76C196.159 363.291 196.282 362.885 196.527 362.544C196.772 362.192 197.114 361.92 197.551 361.728C197.988 361.536 198.5 361.44 199.087 361.44C199.535 361.44 199.956 361.488 200.351 361.584C200.756 361.68 201.13 361.835 201.471 362.048V360.976C201.471 360.336 201.3 359.856 200.959 359.536C200.618 359.205 200.116 359.04 199.455 359.04C199.092 359.04 198.719 359.093 198.335 359.2C197.962 359.307 197.546 359.477 197.087 359.712L196.655 358.816C197.7 358.315 198.682 358.064 199.599 358.064C200.57 358.064 201.316 358.304 201.839 358.784C202.362 359.253 202.623 359.931 202.623 360.816V366H201.471V365.088C201.13 365.44 200.751 365.707 200.335 365.888C199.919 366.059 199.471 366.144 198.991 366.144ZM197.279 363.728C197.279 364.187 197.455 364.555 197.807 364.832C198.17 365.109 198.644 365.248 199.231 365.248C199.668 365.248 200.068 365.173 200.431 365.024C200.804 364.875 201.151 364.651 201.471 364.352V362.848C201.14 362.656 200.799 362.517 200.447 362.432C200.095 362.336 199.7 362.288 199.263 362.288C198.666 362.288 198.186 362.421 197.823 362.688C197.46 362.944 197.279 363.291 197.279 363.728ZM208.731 366V358.192H209.899V359.408C210.198 358.96 210.539 358.624 210.923 358.4C211.307 358.176 211.739 358.064 212.219 358.064C212.774 358.064 213.259 358.203 213.675 358.48C214.091 358.747 214.406 359.115 214.619 359.584C214.929 359.083 215.297 358.704 215.723 358.448C216.161 358.192 216.662 358.064 217.227 358.064C217.75 358.064 218.209 358.187 218.603 358.432C219.009 358.677 219.323 359.019 219.547 359.456C219.771 359.883 219.883 360.384 219.883 360.96V366H218.715V361.248C218.715 360.565 218.545 360.027 218.203 359.632C217.862 359.237 217.393 359.04 216.795 359.04C216.39 359.04 216.022 359.141 215.691 359.344C215.371 359.547 215.089 359.856 214.843 360.272C214.865 360.379 214.881 360.491 214.891 360.608C214.902 360.725 214.907 360.843 214.907 360.96V366H213.739V361.248C213.739 360.565 213.563 360.027 213.211 359.632C212.87 359.237 212.401 359.04 211.803 359.04C211.003 359.04 210.369 359.424 209.899 360.192V366H208.731ZM225.703 366.128C224.978 366.128 224.327 365.952 223.751 365.6C223.175 365.248 222.722 364.768 222.391 364.16C222.06 363.552 221.895 362.864 221.895 362.096C221.895 361.328 222.06 360.64 222.391 360.032C222.722 359.424 223.175 358.944 223.751 358.592C224.327 358.24 224.978 358.064 225.703 358.064C226.418 358.064 227.058 358.24 227.623 358.592C228.199 358.944 228.652 359.424 228.983 360.032C229.314 360.64 229.479 361.328 229.479 362.096C229.479 362.864 229.314 363.552 228.983 364.16C228.652 364.768 228.199 365.248 227.623 365.6C227.058 365.952 226.418 366.128 225.703 366.128ZM225.687 365.104C226.199 365.104 226.652 364.976 227.047 364.72C227.442 364.453 227.751 364.091 227.975 363.632C228.21 363.173 228.327 362.661 228.327 362.096C228.327 361.52 228.21 361.008 227.975 360.56C227.751 360.101 227.442 359.744 227.047 359.488C226.652 359.221 226.199 359.088 225.687 359.088C225.175 359.088 224.722 359.221 224.327 359.488C223.932 359.744 223.618 360.101 223.383 360.56C223.159 361.008 223.047 361.52 223.047 362.096C223.047 362.661 223.159 363.173 223.383 363.632C223.618 364.091 223.932 364.453 224.327 364.72C224.722 364.976 225.175 365.104 225.687 365.104ZM231.528 366V358.192H232.696V359.792C232.899 359.248 233.187 358.827 233.56 358.528C233.944 358.219 234.381 358.064 234.872 358.064C235.011 358.064 235.139 358.075 235.256 358.096C235.373 358.107 235.491 358.133 235.608 358.176V359.232C235.48 359.189 235.341 359.157 235.192 359.136C235.053 359.104 234.92 359.088 234.792 359.088C234.312 359.088 233.891 359.227 233.528 359.504C233.176 359.781 232.899 360.171 232.696 360.672V366H231.528ZM240.189 366.16C239.463 366.16 238.807 365.984 238.221 365.632C237.634 365.269 237.17 364.784 236.829 364.176C236.487 363.557 236.317 362.864 236.317 362.096C236.317 361.328 236.477 360.64 236.797 360.032C237.127 359.424 237.57 358.944 238.125 358.592C238.679 358.24 239.298 358.064 239.981 358.064C240.674 358.064 241.287 358.24 241.821 358.592C242.365 358.933 242.791 359.403 243.101 360C243.421 360.587 243.581 361.253 243.581 362V362.352H237.453C237.495 362.885 237.639 363.365 237.885 363.792C238.141 364.208 238.471 364.539 238.877 364.784C239.293 365.019 239.746 365.136 240.237 365.136C240.642 365.136 241.031 365.067 241.405 364.928C241.789 364.779 242.114 364.581 242.381 364.336L243.117 365.12C242.669 365.472 242.205 365.733 241.725 365.904C241.245 366.075 240.733 366.16 240.189 366.16ZM237.485 361.52H242.429C242.375 361.051 242.231 360.635 241.997 360.272C241.773 359.899 241.485 359.605 241.133 359.392C240.791 359.179 240.407 359.072 239.981 359.072C239.554 359.072 239.165 359.179 238.813 359.392C238.461 359.595 238.167 359.883 237.933 360.256C237.709 360.619 237.559 361.04 237.485 361.52ZM252.925 369.504C252.403 369.504 251.875 369.429 251.341 369.28C250.819 369.141 250.333 368.944 249.885 368.688L250.381 367.792C250.861 368.037 251.299 368.219 251.693 368.336C252.088 368.453 252.483 368.512 252.877 368.512C253.592 368.512 254.131 368.341 254.493 368C254.867 367.659 255.053 367.163 255.053 366.512V364.944C254.755 365.317 254.392 365.605 253.965 365.808C253.539 366 253.069 366.096 252.557 366.096C251.885 366.096 251.277 365.92 250.733 365.568C250.189 365.205 249.757 364.725 249.437 364.128C249.117 363.52 248.957 362.843 248.957 362.096C248.957 361.349 249.117 360.677 249.437 360.08C249.768 359.472 250.211 358.992 250.765 358.64C251.32 358.277 251.939 358.096 252.621 358.096C253.112 358.096 253.565 358.192 253.981 358.384C254.397 358.565 254.76 358.837 255.069 359.2V358.192H256.221V366.496C256.221 367.467 255.939 368.208 255.373 368.72C254.808 369.243 253.992 369.504 252.925 369.504ZM252.845 365.088C253.304 365.088 253.725 364.997 254.109 364.816C254.493 364.624 254.808 364.363 255.053 364.032V360.176C254.797 359.845 254.472 359.589 254.077 359.408C253.693 359.216 253.283 359.12 252.845 359.12C252.323 359.12 251.853 359.248 251.437 359.504C251.032 359.76 250.707 360.112 250.461 360.56C250.227 361.008 250.109 361.52 250.109 362.096C250.109 362.661 250.227 363.173 250.461 363.632C250.707 364.08 251.032 364.437 251.437 364.704C251.853 364.96 252.323 365.088 252.845 365.088ZM262.142 366.16C261.417 366.16 260.761 365.984 260.174 365.632C259.587 365.269 259.123 364.784 258.782 364.176C258.441 363.557 258.27 362.864 258.27 362.096C258.27 361.328 258.43 360.64 258.75 360.032C259.081 359.424 259.523 358.944 260.078 358.592C260.633 358.24 261.251 358.064 261.934 358.064C262.627 358.064 263.241 358.24 263.774 358.592C264.318 358.933 264.745 359.403 265.054 360C265.374 360.587 265.534 361.253 265.534 362V362.352H259.406C259.449 362.885 259.593 363.365 259.838 363.792C260.094 364.208 260.425 364.539 260.83 364.784C261.246 365.019 261.699 365.136 262.19 365.136C262.595 365.136 262.985 365.067 263.358 364.928C263.742 364.779 264.067 364.581 264.334 364.336L265.07 365.12C264.622 365.472 264.158 365.733 263.678 365.904C263.198 366.075 262.686 366.16 262.142 366.16ZM259.438 361.52H264.382C264.329 361.051 264.185 360.635 263.95 360.272C263.726 359.899 263.438 359.605 263.086 359.392C262.745 359.179 262.361 359.072 261.934 359.072C261.507 359.072 261.118 359.179 260.766 359.392C260.414 359.595 260.121 359.883 259.886 360.256C259.662 360.619 259.513 361.04 259.438 361.52ZM267.528 366V358.192H268.696V359.456C268.995 358.987 269.352 358.64 269.768 358.416C270.184 358.181 270.653 358.064 271.176 358.064C271.741 358.064 272.232 358.187 272.648 358.432C273.075 358.667 273.405 359.003 273.64 359.44C273.885 359.867 274.008 360.368 274.008 360.944V366H272.84V361.28C272.84 360.587 272.648 360.043 272.264 359.648C271.891 359.243 271.384 359.04 270.744 359.04C270.317 359.04 269.928 359.141 269.576 359.344C269.224 359.547 268.931 359.845 268.696 360.24V366H267.528ZM279.876 366.16C279.151 366.16 278.495 365.984 277.908 365.632C277.322 365.269 276.858 364.784 276.516 364.176C276.175 363.557 276.004 362.864 276.004 362.096C276.004 361.328 276.164 360.64 276.484 360.032C276.815 359.424 277.258 358.944 277.812 358.592C278.367 358.24 278.986 358.064 279.668 358.064C280.362 358.064 280.975 358.24 281.508 358.592C282.052 358.933 282.479 359.403 282.788 360C283.108 360.587 283.268 361.253 283.268 362V362.352H277.14C277.183 362.885 277.327 363.365 277.572 363.792C277.828 364.208 278.159 364.539 278.564 364.784C278.98 365.019 279.434 365.136 279.924 365.136C280.33 365.136 280.719 365.067 281.092 364.928C281.476 364.779 281.802 364.581 282.068 364.336L282.804 365.12C282.356 365.472 281.892 365.733 281.412 365.904C280.932 366.075 280.42 366.16 279.876 366.16ZM277.172 361.52H282.116C282.063 361.051 281.919 360.635 281.684 360.272C281.46 359.899 281.172 359.605 280.82 359.392C280.479 359.179 280.095 359.072 279.668 359.072C279.242 359.072 278.852 359.179 278.5 359.392C278.148 359.595 277.855 359.883 277.62 360.256C277.396 360.619 277.247 361.04 277.172 361.52ZM285.263 366V358.192H286.431V359.792C286.633 359.248 286.921 358.827 287.295 358.528C287.679 358.219 288.116 358.064 288.607 358.064C288.745 358.064 288.873 358.075 288.991 358.096C289.108 358.107 289.225 358.133 289.343 358.176V359.232C289.215 359.189 289.076 359.157 288.927 359.136C288.788 359.104 288.655 359.088 288.527 359.088C288.047 359.088 287.625 359.227 287.263 359.504C286.911 359.781 286.633 360.171 286.431 360.672V366H285.263ZM292.975 366.144C292.421 366.144 291.93 366.043 291.503 365.84C291.077 365.637 290.741 365.36 290.495 365.008C290.261 364.645 290.143 364.229 290.143 363.76C290.143 363.291 290.266 362.885 290.511 362.544C290.757 362.192 291.098 361.92 291.535 361.728C291.973 361.536 292.485 361.44 293.071 361.44C293.519 361.44 293.941 361.488 294.335 361.584C294.741 361.68 295.114 361.835 295.455 362.048V360.976C295.455 360.336 295.285 359.856 294.943 359.536C294.602 359.205 294.101 359.04 293.439 359.04C293.077 359.04 292.703 359.093 292.319 359.2C291.946 359.307 291.53 359.477 291.071 359.712L290.639 358.816C291.685 358.315 292.666 358.064 293.583 358.064C294.554 358.064 295.301 358.304 295.823 358.784C296.346 359.253 296.607 359.931 296.607 360.816V366H295.455V365.088C295.114 365.44 294.735 365.707 294.319 365.888C293.903 366.059 293.455 366.144 292.975 366.144ZM291.263 363.728C291.263 364.187 291.439 364.555 291.791 364.832C292.154 365.109 292.629 365.248 293.215 365.248C293.653 365.248 294.053 365.173 294.415 365.024C294.789 364.875 295.135 364.651 295.455 364.352V362.848C295.125 362.656 294.783 362.517 294.431 362.432C294.079 362.336 293.685 362.288 293.247 362.288C292.65 362.288 292.17 362.421 291.807 362.688C291.445 362.944 291.263 363.291 291.263 363.728ZM298.981 366V354.448L300.149 354.208V366H298.981ZM309.254 366.16C308.582 366.16 308.07 366 307.718 365.68C307.377 365.349 307.206 364.875 307.206 364.256V359.152H305.59V358.192H307.206V356.048L308.374 355.776V358.192H310.614V359.152H308.374V363.952C308.374 364.368 308.459 364.667 308.63 364.848C308.811 365.029 309.105 365.12 309.51 365.12C309.713 365.12 309.894 365.104 310.054 365.072C310.214 365.04 310.401 364.987 310.614 364.912V365.952C310.401 366.027 310.177 366.08 309.942 366.112C309.707 366.144 309.478 366.16 309.254 366.16ZM315.689 366.16C314.963 366.16 314.307 365.984 313.721 365.632C313.134 365.269 312.67 364.784 312.329 364.176C311.987 363.557 311.817 362.864 311.817 362.096C311.817 361.328 311.977 360.64 312.297 360.032C312.627 359.424 313.07 358.944 313.625 358.592C314.179 358.24 314.798 358.064 315.481 358.064C316.174 358.064 316.787 358.24 317.321 358.592C317.865 358.933 318.291 359.403 318.601 360C318.921 360.587 319.081 361.253 319.081 362V362.352H312.953C312.995 362.885 313.139 363.365 313.385 363.792C313.641 364.208 313.971 364.539 314.377 364.784C314.793 365.019 315.246 365.136 315.737 365.136C316.142 365.136 316.531 365.067 316.905 364.928C317.289 364.779 317.614 364.581 317.881 364.336L318.617 365.12C318.169 365.472 317.705 365.733 317.225 365.904C316.745 366.075 316.233 366.16 315.689 366.16ZM312.985 361.52H317.929C317.875 361.051 317.731 360.635 317.497 360.272C317.273 359.899 316.985 359.605 316.633 359.392C316.291 359.179 315.907 359.072 315.481 359.072C315.054 359.072 314.665 359.179 314.313 359.392C313.961 359.595 313.667 359.883 313.433 360.256C313.209 360.619 313.059 361.04 312.985 361.52ZM321.075 366V358.192H322.243V359.792C322.446 359.248 322.734 358.827 323.107 358.528C323.491 358.219 323.928 358.064 324.419 358.064C324.558 358.064 324.686 358.075 324.803 358.096C324.92 358.107 325.038 358.133 325.155 358.176V359.232C325.027 359.189 324.888 359.157 324.739 359.136C324.6 359.104 324.467 359.088 324.339 359.088C323.859 359.088 323.438 359.227 323.075 359.504C322.723 359.781 322.446 360.171 322.243 360.672V366H321.075ZM326.7 366V358.192H327.868V359.408C328.167 358.96 328.508 358.624 328.892 358.4C329.276 358.176 329.708 358.064 330.188 358.064C330.743 358.064 331.228 358.203 331.644 358.48C332.06 358.747 332.375 359.115 332.588 359.584C332.897 359.083 333.265 358.704 333.692 358.448C334.129 358.192 334.631 358.064 335.196 358.064C335.719 358.064 336.177 358.187 336.572 358.432C336.977 358.677 337.292 359.019 337.516 359.456C337.74 359.883 337.852 360.384 337.852 360.96V366H336.684V361.248C336.684 360.565 336.513 360.027 336.172 359.632C335.831 359.237 335.361 359.04 334.764 359.04C334.359 359.04 333.991 359.141 333.66 359.344C333.34 359.547 333.057 359.856 332.812 360.272C332.833 360.379 332.849 360.491 332.86 360.608C332.871 360.725 332.876 360.843 332.876 360.96V366H331.708V361.248C331.708 360.565 331.532 360.027 331.18 359.632C330.839 359.237 330.369 359.04 329.772 359.04C328.972 359.04 328.337 359.424 327.868 360.192V366H326.7ZM341.016 366.128C340.781 366.128 340.578 366.043 340.408 365.872C340.248 365.701 340.168 365.499 340.168 365.264C340.168 365.019 340.248 364.816 340.408 364.656C340.578 364.485 340.781 364.4 341.016 364.4C341.25 364.4 341.448 364.485 341.608 364.656C341.778 364.816 341.864 365.019 341.864 365.264C341.864 365.499 341.778 365.701 341.608 365.872C341.448 366.043 341.25 366.128 341.016 366.128Z" fill="#4D4D4D"/>
</g>
</g>
<defs>
<clipPath id="clip0_759_63389">
<rect width="403" height="399" fill="white"/>
</clipPath>
<clipPath id="clip1_759_63389">
<rect width="375" height="960" fill="white" transform="translate(14)"/>
</clipPath>
</defs>
</svg>
