<svg width="403" height="399" viewBox="0 0 403 399" fill="none" xmlns="http://www.w3.org/2000/svg">
<g clip-path="url(#clip0_759_63389)">
<rect width="403" height="399" fill="white"/>
<g clip-path="url(#clip1_759_63389)">
<rect width="375" height="960" transform="translate(14)" fill="white"/>
<path d="M59.1533 38.0771C59.4792 37.7517 60.0074 37.7516 60.333 38.0771L60.9229 38.667C61.2483 38.9928 61.2483 39.5211 60.9229 39.8467L58.2686 42.5L60.9229 45.1533C61.2482 45.4792 61.2483 46.0075 60.9229 46.333L60.333 46.9229C60.0075 47.2483 59.4789 47.2482 59.1533 46.9229L56.5 44.2686L53.8467 46.9229C53.5211 47.2483 52.9926 47.2483 52.667 46.9229L52.0771 46.333C51.7516 46.0072 51.7517 45.4789 52.0771 45.1533L54.7305 42.5L52.0771 39.8467C51.7517 39.5208 51.7516 38.9926 52.0771 38.667L52.667 38.0771C52.9928 37.7516 53.5211 37.7517 53.8467 38.0771L56.5 40.7305L59.1533 38.0771Z" fill="#1F1F1F"/>
<path d="M233 42.5C233 32.2827 241.283 24 251.5 24H346.5C356.717 24 365 32.2827 365 42.5V42.5C365 52.7173 356.717 61 346.5 61H251.5C241.283 61 233 52.7173 233 42.5V42.5Z" fill="#0066CC"/>
<path d="M266.25 37.7504C266.734 37.7504 267.125 38.1414 267.125 38.6254C267.125 39.1092 266.734 39.5004 266.25 39.5004H263.625C263.141 39.5004 262.75 39.8914 262.75 40.3754V47.3754C262.75 47.8592 263.141 48.2504 263.625 48.2504H270.625C271.109 48.2504 271.5 47.8592 271.5 47.3754V44.7504C271.5 44.2664 271.891 43.8754 272.375 43.8754C272.859 43.8754 273.25 44.2664 273.25 44.7504V47.3754C273.25 48.8244 272.074 50.0004 270.625 50.0004H263.625C262.176 50.0004 261 48.8244 261 47.3754V40.3754C261 38.9261 262.176 37.7504 263.625 37.7504H266.25ZM272.969 40.7113L268.394 45.2885C268.224 45.4552 268.019 45.5838 267.795 45.6576L265.367 46.4672C265.129 46.5464 264.869 46.4865 264.694 46.309C264.519 46.1313 264.456 45.8712 264.535 45.6361L265.345 43.2074C265.419 42.9806 265.547 42.7755 265.714 42.6088L270.289 38.0316L272.969 40.7113ZM271.729 36.5931C272.328 35.9943 273.297 35.9943 273.896 36.5931L274.406 37.1019C275.005 37.7008 275.005 38.6691 274.406 39.2679L273.584 40.0902L270.906 37.4135L271.729 36.5931Z" fill="white"/>
<path d="M283.246 47V37.2H284.366L290.106 45.32L290.078 37.2H291.1V47H290.12L284.24 38.698L284.268 47H283.246ZM296.48 47.14C295.845 47.14 295.271 46.986 294.758 46.678C294.244 46.3607 293.838 45.936 293.54 45.404C293.241 44.8627 293.092 44.256 293.092 43.584C293.092 42.912 293.232 42.31 293.512 41.778C293.801 41.246 294.188 40.826 294.674 40.518C295.159 40.21 295.7 40.056 296.298 40.056C296.904 40.056 297.441 40.21 297.908 40.518C298.384 40.8167 298.757 41.2273 299.028 41.75C299.308 42.2633 299.448 42.8467 299.448 43.5V43.808H294.086C294.123 44.2747 294.249 44.6947 294.464 45.068C294.688 45.432 294.977 45.7213 295.332 45.936C295.696 46.1413 296.092 46.244 296.522 46.244C296.876 46.244 297.217 46.1833 297.544 46.062C297.88 45.9313 298.164 45.7587 298.398 45.544L299.042 46.23C298.65 46.538 298.244 46.7667 297.824 46.916C297.404 47.0653 296.956 47.14 296.48 47.14ZM294.114 43.08H298.44C298.393 42.6693 298.267 42.3053 298.062 41.988C297.866 41.6613 297.614 41.4047 297.306 41.218C297.007 41.0313 296.671 40.938 296.298 40.938C295.924 40.938 295.584 41.0313 295.276 41.218C294.968 41.3953 294.711 41.6473 294.506 41.974C294.31 42.2913 294.179 42.66 294.114 43.08ZM302.274 47L300.398 40.168H301.392L302.82 45.628L304.458 40.168H305.368L307.006 45.628L308.42 40.168H309.386L307.524 47H306.53L304.906 41.484L303.282 47H302.274ZM317.165 47.112C316.53 47.112 315.956 46.958 315.443 46.65C314.939 46.3327 314.537 45.908 314.239 45.376C313.94 44.8347 313.791 44.2373 313.791 43.584C313.791 42.9213 313.94 42.324 314.239 41.792C314.537 41.26 314.939 40.84 315.443 40.532C315.956 40.2147 316.53 40.056 317.165 40.056C317.669 40.056 318.149 40.1493 318.607 40.336C319.064 40.5227 319.461 40.784 319.797 41.12L319.139 41.834C318.896 41.5633 318.602 41.3533 318.257 41.204C317.911 41.0547 317.561 40.98 317.207 40.98C316.759 40.98 316.353 41.0967 315.989 41.33C315.634 41.5633 315.349 41.876 315.135 42.268C314.92 42.66 314.813 43.0987 314.813 43.584C314.813 44.0693 314.92 44.508 315.135 44.9C315.349 45.292 315.634 45.6047 315.989 45.838C316.353 46.0713 316.759 46.188 317.207 46.188C317.561 46.188 317.911 46.1133 318.257 45.964C318.602 45.8053 318.896 45.5953 319.139 45.334L319.797 46.048C319.461 46.384 319.064 46.6453 318.607 46.832C318.149 47.0187 317.669 47.112 317.165 47.112ZM321.222 47V36.892L322.244 36.682V41.274C322.505 40.8633 322.818 40.56 323.182 40.364C323.546 40.1587 323.957 40.056 324.414 40.056C324.909 40.056 325.338 40.1633 325.702 40.378C326.075 40.5833 326.365 40.8773 326.57 41.26C326.785 41.6333 326.892 42.072 326.892 42.576V47H325.87V42.87C325.87 42.2633 325.702 41.7873 325.366 41.442C325.039 41.0873 324.596 40.91 324.036 40.91C323.663 40.91 323.322 40.9987 323.014 41.176C322.706 41.3533 322.449 41.6147 322.244 41.96V47H321.222ZM331.06 47.126C330.575 47.126 330.146 47.0373 329.772 46.86C329.399 46.6827 329.105 46.44 328.89 46.132C328.685 45.8147 328.582 45.4507 328.582 45.04C328.582 44.6293 328.69 44.2747 328.904 43.976C329.119 43.668 329.418 43.43 329.8 43.262C330.183 43.094 330.631 43.01 331.144 43.01C331.536 43.01 331.905 43.052 332.25 43.136C332.605 43.22 332.932 43.3553 333.23 43.542V42.604C333.23 42.044 333.081 41.624 332.782 41.344C332.484 41.0547 332.045 40.91 331.466 40.91C331.149 40.91 330.822 40.9567 330.486 41.05C330.16 41.1433 329.796 41.2927 329.394 41.498L329.016 40.714C329.931 40.2753 330.79 40.056 331.592 40.056C332.442 40.056 333.095 40.266 333.552 40.686C334.01 41.0967 334.238 41.6893 334.238 42.464V47H333.23V46.202C332.932 46.51 332.6 46.7433 332.236 46.902C331.872 47.0513 331.48 47.126 331.06 47.126ZM329.562 45.012C329.562 45.4133 329.716 45.7353 330.024 45.978C330.342 46.2207 330.757 46.342 331.27 46.342C331.653 46.342 332.003 46.2767 332.32 46.146C332.647 46.0153 332.95 45.8193 333.23 45.558V44.242C332.941 44.074 332.642 43.9527 332.334 43.878C332.026 43.794 331.681 43.752 331.298 43.752C330.776 43.752 330.356 43.8687 330.038 44.102C329.721 44.326 329.562 44.6293 329.562 45.012ZM338.715 47.14C338.127 47.14 337.679 47 337.371 46.72C337.072 46.4307 336.923 46.0153 336.923 45.474V41.008H335.509V40.168H336.923V38.292L337.945 38.054V40.168H339.905V41.008H337.945V45.208C337.945 45.572 338.019 45.8333 338.169 45.992C338.327 46.1507 338.584 46.23 338.939 46.23C339.116 46.23 339.275 46.216 339.415 46.188C339.555 46.16 339.718 46.1133 339.905 46.048V46.958C339.718 47.0233 339.522 47.07 339.317 47.098C339.111 47.126 338.911 47.14 338.715 47.14Z" fill="white"/>
<path d="M44 85.5H359C362.038 85.5 364.5 87.9624 364.5 91V116C364.5 119.038 362.038 121.5 359 121.5H44C40.9624 121.5 38.5 119.038 38.5 116V91C38.5 87.9624 40.9624 85.5 44 85.5Z" fill="white"/>
<path d="M44 85.5H359C362.038 85.5 364.5 87.9624 364.5 91V116C364.5 119.038 362.038 121.5 359 121.5H44C40.9624 121.5 38.5 119.038 38.5 116V91C38.5 87.9624 40.9624 85.5 44 85.5Z" stroke="#C7C7C7"/>
<path d="M55.6875 97C58.8293 97 61.375 99.5457 61.375 102.688C61.375 104.008 60.9265 105.222 60.1719 106.188H60.6172C60.7921 106.188 60.959 106.256 61.082 106.379L63.8086 109.105C64.0627 109.363 64.0626 109.778 63.8057 110.035L63.0322 110.809C62.778 111.066 62.3625 111.065 62.1055 110.809L59.3789 108.082C59.256 107.959 59.1875 107.792 59.1875 107.617V107.172C58.2223 107.927 57.0082 108.375 55.6875 108.375C52.5457 108.375 50 105.829 50 102.688C50 99.5457 52.5457 97 55.6875 97ZM55.6875 99.1875C53.7516 99.1875 52.1875 100.754 52.1875 102.688C52.1875 104.623 53.7543 106.188 55.6875 106.188C57.6234 106.187 59.1875 104.621 59.1875 102.688C59.1875 100.752 57.6207 99.1875 55.6875 99.1875Z" fill="#1F1F1F"/>
<path d="M76.246 108V98.2H82.938V99.152H77.324V102.652H81.16V103.59H77.324V108H76.246ZM84.3758 108V101.168H85.3978V108H84.3758ZM84.8938 99.474C84.6885 99.474 84.5112 99.404 84.3618 99.264C84.2218 99.1147 84.1518 98.942 84.1518 98.746C84.1518 98.55 84.2218 98.382 84.3618 98.242C84.5112 98.0927 84.6885 98.018 84.8938 98.018C85.0992 98.018 85.2718 98.0927 85.4118 98.242C85.5612 98.382 85.6358 98.55 85.6358 98.746C85.6358 98.942 85.5612 99.1147 85.4118 99.264C85.2718 99.404 85.0992 99.474 84.8938 99.474ZM87.4934 108V101.168H88.5154V102.274C88.7767 101.863 89.0894 101.56 89.4534 101.364C89.8174 101.159 90.228 101.056 90.6854 101.056C91.18 101.056 91.6094 101.163 91.9734 101.378C92.3467 101.583 92.636 101.877 92.8414 102.26C93.056 102.633 93.1634 103.072 93.1634 103.576V108H92.1414V103.87C92.1414 103.263 91.9734 102.787 91.6374 102.442C91.3107 102.087 90.8674 101.91 90.3074 101.91C89.934 101.91 89.5934 101.999 89.2854 102.176C88.9774 102.353 88.7207 102.615 88.5154 102.96V108H87.4934ZM98.06 108.098C97.472 108.098 96.94 107.944 96.464 107.636C95.988 107.319 95.61 106.899 95.33 106.376C95.05 105.844 94.91 105.251 94.91 104.598C94.91 103.935 95.05 103.343 95.33 102.82C95.6193 102.288 96.0066 101.868 96.492 101.56C96.9773 101.243 97.5186 101.084 98.116 101.084C98.536 101.084 98.928 101.168 99.292 101.336C99.656 101.495 99.9733 101.728 100.244 102.036V97.892L101.266 97.682V108H100.244V107.09C99.9826 107.417 99.6653 107.669 99.292 107.846C98.9186 108.014 98.508 108.098 98.06 108.098ZM98.312 107.202C98.7133 107.202 99.082 107.123 99.418 106.964C99.754 106.805 100.029 106.581 100.244 106.292V102.904C100.02 102.615 99.7353 102.391 99.39 102.232C99.054 102.064 98.6946 101.98 98.312 101.98C97.8546 101.98 97.444 102.092 97.08 102.316C96.7253 102.54 96.4406 102.848 96.226 103.24C96.0206 103.632 95.918 104.08 95.918 104.584C95.918 105.079 96.0206 105.527 96.226 105.928C96.4406 106.32 96.7253 106.633 97.08 106.866C97.444 107.09 97.8546 107.202 98.312 107.202ZM106.634 108V97.99L107.656 97.78V102.106C107.917 101.779 108.235 101.527 108.608 101.35C108.981 101.173 109.397 101.084 109.854 101.084C110.451 101.084 110.983 101.243 111.45 101.56C111.926 101.868 112.304 102.288 112.584 102.82C112.864 103.343 113.004 103.931 113.004 104.584C113.004 105.237 112.859 105.83 112.57 106.362C112.29 106.894 111.907 107.319 111.422 107.636C110.946 107.944 110.405 108.098 109.798 108.098C109.369 108.098 108.967 108.014 108.594 107.846C108.23 107.669 107.913 107.421 107.642 107.104V108H106.634ZM109.602 107.216C110.059 107.216 110.465 107.104 110.82 106.88C111.184 106.647 111.469 106.334 111.674 105.942C111.889 105.541 111.996 105.093 111.996 104.598C111.996 104.094 111.889 103.646 111.674 103.254C111.469 102.862 111.184 102.554 110.82 102.33C110.465 102.097 110.059 101.98 109.602 101.98C109.201 101.98 108.827 102.064 108.482 102.232C108.146 102.391 107.871 102.619 107.656 102.918V106.264C107.88 106.563 108.16 106.796 108.496 106.964C108.841 107.132 109.21 107.216 109.602 107.216ZM114.885 111.066C114.67 111.066 114.451 111.033 114.227 110.968V110.058C114.32 110.077 114.418 110.091 114.521 110.1C114.624 110.109 114.712 110.114 114.787 110.114C115.048 110.114 115.263 110.044 115.431 109.904C115.608 109.764 115.758 109.545 115.879 109.246L116.383 108L113.751 101.168H114.885L116.957 106.782L119.155 101.168H120.289L116.845 109.554C116.696 109.918 116.532 110.212 116.355 110.436C116.178 110.66 115.972 110.819 115.739 110.912C115.506 111.015 115.221 111.066 114.885 111.066ZM124.831 108V101.168H125.853V102.274C126.115 101.863 126.427 101.56 126.791 101.364C127.155 101.159 127.566 101.056 128.023 101.056C128.518 101.056 128.947 101.163 129.311 101.378C129.685 101.583 129.974 101.877 130.179 102.26C130.394 102.633 130.501 103.072 130.501 103.576V108H129.479V103.87C129.479 103.263 129.311 102.787 128.975 102.442C128.649 102.087 128.205 101.91 127.645 101.91C127.272 101.91 126.931 101.999 126.623 102.176C126.315 102.353 126.059 102.615 125.853 102.96V108H124.831ZM134.67 108.126C134.185 108.126 133.755 108.037 133.382 107.86C133.009 107.683 132.715 107.44 132.5 107.132C132.295 106.815 132.192 106.451 132.192 106.04C132.192 105.629 132.299 105.275 132.514 104.976C132.729 104.668 133.027 104.43 133.41 104.262C133.793 104.094 134.241 104.01 134.754 104.01C135.146 104.01 135.515 104.052 135.86 104.136C136.215 104.22 136.541 104.355 136.84 104.542V103.604C136.84 103.044 136.691 102.624 136.392 102.344C136.093 102.055 135.655 101.91 135.076 101.91C134.759 101.91 134.432 101.957 134.096 102.05C133.769 102.143 133.405 102.293 133.004 102.498L132.626 101.714C133.541 101.275 134.399 101.056 135.202 101.056C136.051 101.056 136.705 101.266 137.162 101.686C137.619 102.097 137.848 102.689 137.848 103.464V108H136.84V107.202C136.541 107.51 136.21 107.743 135.846 107.902C135.482 108.051 135.09 108.126 134.67 108.126ZM133.172 106.012C133.172 106.413 133.326 106.735 133.634 106.978C133.951 107.221 134.367 107.342 134.88 107.342C135.263 107.342 135.613 107.277 135.93 107.146C136.257 107.015 136.56 106.819 136.84 106.558V105.242C136.551 105.074 136.252 104.953 135.944 104.878C135.636 104.794 135.291 104.752 134.908 104.752C134.385 104.752 133.965 104.869 133.648 105.102C133.331 105.326 133.172 105.629 133.172 106.012ZM139.925 108V101.168H140.947V102.232C141.208 101.84 141.507 101.546 141.843 101.35C142.179 101.154 142.557 101.056 142.977 101.056C143.462 101.056 143.887 101.177 144.251 101.42C144.615 101.653 144.89 101.975 145.077 102.386C145.348 101.947 145.67 101.616 146.043 101.392C146.426 101.168 146.864 101.056 147.359 101.056C147.816 101.056 148.218 101.163 148.563 101.378C148.918 101.593 149.193 101.891 149.389 102.274C149.585 102.647 149.683 103.086 149.683 103.59V108H148.661V103.842C148.661 103.245 148.512 102.773 148.213 102.428C147.914 102.083 147.504 101.91 146.981 101.91C146.626 101.91 146.304 101.999 146.015 102.176C145.735 102.353 145.488 102.624 145.273 102.988C145.292 103.081 145.306 103.179 145.315 103.282C145.324 103.385 145.329 103.487 145.329 103.59V108H144.307V103.842C144.307 103.245 144.153 102.773 143.845 102.428C143.546 102.083 143.136 101.91 142.613 101.91C141.913 101.91 141.358 102.246 140.947 102.918V108H139.925ZM154.831 108.14C154.197 108.14 153.623 107.986 153.109 107.678C152.596 107.361 152.19 106.936 151.891 106.404C151.593 105.863 151.443 105.256 151.443 104.584C151.443 103.912 151.583 103.31 151.863 102.778C152.153 102.246 152.54 101.826 153.025 101.518C153.511 101.21 154.052 101.056 154.649 101.056C155.256 101.056 155.793 101.21 156.259 101.518C156.735 101.817 157.109 102.227 157.379 102.75C157.659 103.263 157.799 103.847 157.799 104.5V104.808H152.437C152.475 105.275 152.601 105.695 152.815 106.068C153.039 106.432 153.329 106.721 153.683 106.936C154.047 107.141 154.444 107.244 154.873 107.244C155.228 107.244 155.569 107.183 155.895 107.062C156.231 106.931 156.516 106.759 156.749 106.544L157.393 107.23C157.001 107.538 156.595 107.767 156.175 107.916C155.755 108.065 155.307 108.14 154.831 108.14ZM152.465 104.08H156.791C156.745 103.669 156.619 103.305 156.413 102.988C156.217 102.661 155.965 102.405 155.657 102.218C155.359 102.031 155.023 101.938 154.649 101.938C154.276 101.938 153.935 102.031 153.627 102.218C153.319 102.395 153.063 102.647 152.857 102.974C152.661 103.291 152.531 103.66 152.465 104.08Z" fill="#4D4D4D"/>
<rect width="327" height="194" transform="translate(38 146)" fill="white"/>
<path d="M196.25 178C208.817 178 219 188.183 219 200.75C219 206.032 217.206 210.889 214.188 214.75H215.97C216.67 214.75 217.337 215.023 217.829 215.515L228.734 226.421C229.751 227.449 229.752 229.111 228.724 230.139L225.628 233.234C224.611 234.262 222.948 234.262 221.92 233.234L211.016 222.33C210.523 221.838 210.25 221.17 210.25 220.47V218.687C206.389 221.706 201.533 223.5 196.25 223.5C183.683 223.5 173.5 213.317 173.5 200.75C173.5 188.183 183.683 178 196.25 178ZM196.25 186.75C188.506 186.75 182.25 193.017 182.25 200.75C182.25 208.493 188.517 214.75 196.25 214.75C203.994 214.75 210.25 208.483 210.25 200.75C210.25 193.006 203.983 186.75 196.25 186.75Z" fill="#707070"/>
<path d="M127.861 270V256H129.901L137.721 266.4V256H139.701V270H137.861L129.861 259.28V270H127.861ZM147.168 270.2C146.182 270.2 145.282 269.967 144.468 269.5C143.668 269.033 143.035 268.4 142.568 267.6C142.102 266.8 141.868 265.907 141.868 264.92C141.868 263.933 142.102 263.04 142.568 262.24C143.035 261.44 143.668 260.807 144.468 260.34C145.282 259.86 146.182 259.62 147.168 259.62C148.168 259.62 149.068 259.86 149.868 260.34C150.668 260.807 151.302 261.44 151.768 262.24C152.235 263.04 152.468 263.933 152.468 264.92C152.468 265.907 152.235 266.8 151.768 267.6C151.302 268.4 150.668 269.033 149.868 269.5C149.068 269.967 148.168 270.2 147.168 270.2ZM147.168 268.44C147.795 268.44 148.355 268.287 148.848 267.98C149.355 267.66 149.755 267.233 150.048 266.7C150.355 266.167 150.508 265.573 150.508 264.92C150.508 264.253 150.362 263.66 150.068 263.14C149.775 262.607 149.375 262.18 148.868 261.86C148.362 261.54 147.795 261.38 147.168 261.38C146.542 261.38 145.975 261.54 145.468 261.86C144.962 262.18 144.562 262.607 144.268 263.14C143.975 263.66 143.828 264.253 143.828 264.92C143.828 265.573 143.975 266.167 144.268 266.7C144.562 267.233 144.962 267.66 145.468 267.98C145.975 268.287 146.542 268.44 147.168 268.44ZM158.539 270V259.82H160.539V261.12C160.859 260.64 161.253 260.267 161.719 260C162.199 259.72 162.739 259.58 163.339 259.58C163.753 259.593 164.093 259.653 164.359 259.76V261.56C163.973 261.413 163.579 261.34 163.179 261.34C162.593 261.34 162.073 261.5 161.619 261.82C161.166 262.127 160.806 262.58 160.539 263.18V270H158.539ZM170.255 270.18C169.255 270.18 168.349 269.947 167.535 269.48C166.735 269.013 166.095 268.38 165.615 267.58C165.149 266.78 164.915 265.887 164.915 264.9C164.915 263.927 165.142 263.047 165.595 262.26C166.049 261.46 166.662 260.827 167.435 260.36C168.209 259.88 169.069 259.64 170.015 259.64C170.962 259.64 171.802 259.88 172.535 260.36C173.269 260.827 173.849 261.467 174.275 262.28C174.715 263.08 174.935 263.987 174.935 265V265.56H166.915C167.022 266.12 167.229 266.62 167.535 267.06C167.855 267.5 168.255 267.847 168.735 268.1C169.229 268.353 169.762 268.48 170.335 268.48C170.829 268.48 171.302 268.407 171.755 268.26C172.222 268.1 172.609 267.873 172.915 267.58L174.195 268.84C173.595 269.293 172.975 269.633 172.335 269.86C171.709 270.073 171.015 270.18 170.255 270.18ZM166.935 264.06H172.955C172.875 263.527 172.689 263.06 172.395 262.66C172.115 262.247 171.762 261.927 171.335 261.7C170.922 261.46 170.469 261.34 169.975 261.34C169.202 261.34 168.535 261.593 167.975 262.1C167.429 262.593 167.082 263.247 166.935 264.06ZM180.438 270.2C179.558 270.2 178.731 270.073 177.958 269.82C177.198 269.553 176.538 269.18 175.978 268.7L177.078 267.38C177.598 267.793 178.131 268.113 178.678 268.34C179.238 268.553 179.804 268.66 180.378 268.66C181.098 268.66 181.684 268.52 182.138 268.24C182.591 267.96 182.818 267.593 182.818 267.14C182.818 266.42 182.271 265.98 181.178 265.82L179.338 265.56C178.324 265.413 177.564 265.1 177.058 264.62C176.551 264.14 176.298 263.5 176.298 262.7C176.298 262.087 176.464 261.553 176.798 261.1C177.131 260.633 177.598 260.273 178.198 260.02C178.798 259.753 179.498 259.62 180.298 259.62C181.031 259.62 181.738 259.727 182.418 259.94C183.098 260.153 183.751 260.487 184.378 260.94L183.358 262.26C182.251 261.54 181.178 261.18 180.138 261.18C179.524 261.18 179.031 261.313 178.658 261.58C178.284 261.833 178.098 262.167 178.098 262.58C178.098 262.953 178.224 263.247 178.478 263.46C178.744 263.66 179.178 263.8 179.778 263.88L181.618 264.14C182.631 264.287 183.398 264.6 183.918 265.08C184.438 265.547 184.698 266.18 184.698 266.98C184.698 267.593 184.511 268.147 184.138 268.64C183.764 269.12 183.258 269.5 182.618 269.78C181.978 270.06 181.251 270.2 180.438 270.2ZM190.175 270.2C189.388 270.2 188.695 270.033 188.095 269.7C187.495 269.367 187.028 268.9 186.695 268.3C186.361 267.7 186.195 267 186.195 266.2V259.82H188.175V265.86C188.175 266.66 188.401 267.293 188.855 267.76C189.321 268.227 189.941 268.46 190.715 268.46C191.808 268.46 192.641 268.013 193.215 267.12V259.82H195.215V270H193.215V268.96C192.428 269.787 191.415 270.2 190.175 270.2ZM197.582 270V256L199.582 255.62V270H197.582ZM206.298 270.18C205.311 270.18 204.558 269.953 204.038 269.5C203.518 269.033 203.258 268.36 203.258 267.48V261.5H201.098V259.82H203.258V257.22L205.238 256.74V259.82H208.238V261.5H205.238V267.02C205.238 267.54 205.351 267.913 205.578 268.14C205.818 268.353 206.204 268.46 206.738 268.46C207.018 268.46 207.264 268.44 207.478 268.4C207.704 268.36 207.944 268.3 208.198 268.22V269.9C207.931 269.993 207.618 270.06 207.258 270.1C206.911 270.153 206.591 270.18 206.298 270.18ZM213.407 270.2C212.527 270.2 211.7 270.073 210.927 269.82C210.167 269.553 209.507 269.18 208.947 268.7L210.047 267.38C210.567 267.793 211.1 268.113 211.647 268.34C212.207 268.553 212.773 268.66 213.347 268.66C214.067 268.66 214.653 268.52 215.107 268.24C215.56 267.96 215.787 267.593 215.787 267.14C215.787 266.42 215.24 265.98 214.147 265.82L212.307 265.56C211.293 265.413 210.533 265.1 210.027 264.62C209.52 264.14 209.267 263.5 209.267 262.7C209.267 262.087 209.433 261.553 209.767 261.1C210.1 260.633 210.567 260.273 211.167 260.02C211.767 259.753 212.467 259.62 213.267 259.62C214 259.62 214.707 259.727 215.387 259.94C216.067 260.153 216.72 260.487 217.347 260.94L216.327 262.26C215.22 261.54 214.147 261.18 213.107 261.18C212.493 261.18 212 261.313 211.627 261.58C211.253 261.833 211.067 262.167 211.067 262.58C211.067 262.953 211.193 263.247 211.447 263.46C211.713 263.66 212.147 263.8 212.747 263.88L214.587 264.14C215.6 264.287 216.367 264.6 216.887 265.08C217.407 265.547 217.667 266.18 217.667 266.98C217.667 267.593 217.48 268.147 217.107 268.64C216.733 269.12 216.227 269.5 215.587 269.78C214.947 270.06 214.22 270.2 213.407 270.2ZM224.903 270V261.5H222.543V259.82H224.903V258.28C224.903 257.213 225.196 256.4 225.783 255.84C226.383 255.28 227.236 255 228.343 255C228.623 255 228.883 255.02 229.123 255.06C229.376 255.087 229.603 255.133 229.803 255.2V256.92C229.563 256.853 229.35 256.807 229.163 256.78C228.976 256.74 228.77 256.72 228.543 256.72C227.436 256.72 226.883 257.26 226.883 258.34V259.82H229.803V261.5H226.883V270H224.903ZM235.704 270.2C234.717 270.2 233.817 269.967 233.004 269.5C232.204 269.033 231.57 268.4 231.104 267.6C230.637 266.8 230.404 265.907 230.404 264.92C230.404 263.933 230.637 263.04 231.104 262.24C231.57 261.44 232.204 260.807 233.004 260.34C233.817 259.86 234.717 259.62 235.704 259.62C236.704 259.62 237.604 259.86 238.404 260.34C239.204 260.807 239.837 261.44 240.304 262.24C240.77 263.04 241.004 263.933 241.004 264.92C241.004 265.907 240.77 266.8 240.304 267.6C239.837 268.4 239.204 269.033 238.404 269.5C237.604 269.967 236.704 270.2 235.704 270.2ZM235.704 268.44C236.33 268.44 236.89 268.287 237.384 267.98C237.89 267.66 238.29 267.233 238.584 266.7C238.89 266.167 239.044 265.573 239.044 264.92C239.044 264.253 238.897 263.66 238.604 263.14C238.31 262.607 237.91 262.18 237.404 261.86C236.897 261.54 236.33 261.38 235.704 261.38C235.077 261.38 234.51 261.54 234.004 261.86C233.497 262.18 233.097 262.607 232.804 263.14C232.51 263.66 232.364 264.253 232.364 264.92C232.364 265.573 232.51 266.167 232.804 266.7C233.097 267.233 233.497 267.66 234.004 267.98C234.51 268.287 235.077 268.44 235.704 268.44ZM246.835 270.2C246.048 270.2 245.355 270.033 244.755 269.7C244.155 269.367 243.688 268.9 243.355 268.3C243.022 267.7 242.855 267 242.855 266.2V259.82H244.835V265.86C244.835 266.66 245.062 267.293 245.515 267.76C245.982 268.227 246.602 268.46 247.375 268.46C248.468 268.46 249.302 268.013 249.875 267.12V259.82H251.875V270H249.875V268.96C249.088 269.787 248.075 270.2 246.835 270.2ZM254.243 270V259.82H256.243V260.86C257.029 260.033 258.049 259.62 259.303 259.62C260.089 259.62 260.776 259.787 261.363 260.12C261.963 260.453 262.429 260.92 262.763 261.52C263.109 262.12 263.283 262.813 263.283 263.6V270H261.283V263.94C261.283 263.14 261.056 262.513 260.603 262.06C260.149 261.593 259.529 261.36 258.743 261.36C258.209 261.36 257.729 261.473 257.303 261.7C256.876 261.927 256.523 262.253 256.243 262.68V270H254.243ZM270.27 270.16C269.323 270.16 268.457 269.927 267.67 269.46C266.883 268.993 266.263 268.367 265.81 267.58C265.357 266.78 265.13 265.887 265.13 264.9C265.13 263.913 265.357 263.027 265.81 262.24C266.277 261.453 266.903 260.827 267.69 260.36C268.477 259.893 269.35 259.66 270.31 259.66C271.457 259.66 272.477 260 273.37 260.68V256L275.37 255.62V270H273.39V269.02C272.523 269.78 271.483 270.16 270.27 270.16ZM270.53 268.42C271.117 268.42 271.65 268.313 272.13 268.1C272.623 267.887 273.037 267.58 273.37 267.18V262.6C273.037 262.227 272.623 261.933 272.13 261.72C271.637 261.493 271.103 261.38 270.53 261.38C269.89 261.38 269.31 261.533 268.79 261.84C268.27 262.147 267.857 262.567 267.55 263.1C267.243 263.62 267.09 264.213 267.09 264.88C267.09 265.547 267.243 266.147 267.55 266.68C267.857 267.213 268.27 267.64 268.79 267.96C269.31 268.267 269.89 268.42 270.53 268.42Z" fill="#151515"/>
<path d="M39.5034 310L43.9354 298.8H45.4074L49.7754 310H48.4474L47.1194 306.48H42.1274L40.7994 310H39.5034ZM42.5114 305.504H46.7514L44.6234 299.92L42.5114 305.504ZM54.0574 310.112C53.3854 310.112 52.7774 309.936 52.2334 309.584C51.6894 309.221 51.2574 308.741 50.9374 308.144C50.6174 307.536 50.4574 306.859 50.4574 306.112C50.4574 305.355 50.6174 304.677 50.9374 304.08C51.268 303.472 51.7107 302.992 52.2654 302.64C52.82 302.277 53.4387 302.096 54.1214 302.096C54.6014 302.096 55.0494 302.192 55.4654 302.384C55.8814 302.565 56.244 302.832 56.5534 303.184V298.448L57.7214 298.208V310H56.5534V308.96C56.2547 309.333 55.892 309.621 55.4654 309.824C55.0387 310.016 54.5694 310.112 54.0574 310.112ZM54.3454 309.088C54.804 309.088 55.2254 308.997 55.6094 308.816C55.9934 308.635 56.308 308.379 56.5534 308.048V304.176C56.2974 303.845 55.972 303.589 55.5774 303.408C55.1934 303.216 54.7827 303.12 54.3454 303.12C53.8227 303.12 53.3534 303.248 52.9374 303.504C52.532 303.76 52.2067 304.112 51.9614 304.56C51.7267 305.008 51.6094 305.52 51.6094 306.096C51.6094 306.661 51.7267 307.173 51.9614 307.632C52.2067 308.08 52.532 308.437 52.9374 308.704C53.3534 308.96 53.8227 309.088 54.3454 309.088ZM60.7139 300.256C60.4792 300.256 60.2765 300.176 60.1059 300.016C59.9459 299.845 59.8659 299.648 59.8659 299.424C59.8659 299.2 59.9459 299.008 60.1059 298.848C60.2765 298.677 60.4792 298.592 60.7139 298.592C60.9485 298.592 61.1459 298.677 61.3059 298.848C61.4765 299.008 61.5619 299.2 61.5619 299.424C61.5619 299.648 61.4765 299.845 61.3059 300.016C61.1459 300.176 60.9485 300.256 60.7139 300.256ZM59.3219 313.504C59.1939 313.504 59.0659 313.488 58.9379 313.456C58.8205 313.435 58.7085 313.419 58.6019 313.408V312.4C58.6979 312.421 58.7939 312.437 58.8899 312.448C58.9752 312.459 59.0712 312.464 59.1779 312.464C59.5192 312.464 59.7592 312.384 59.8979 312.224C60.0472 312.064 60.1219 311.803 60.1219 311.44V302.192H61.2899V311.504C61.2899 312.133 61.1192 312.624 60.7779 312.976C60.4472 313.328 59.9619 313.504 59.3219 313.504ZM66.4684 310.128C65.9137 310.128 65.423 310.005 64.9964 309.76C64.5697 309.515 64.2337 309.173 63.9884 308.736C63.7537 308.299 63.6364 307.797 63.6364 307.232V302.192H64.8204V306.896C64.8204 307.589 65.007 308.139 65.3804 308.544C65.7537 308.949 66.2604 309.152 66.9004 309.152C67.3377 309.152 67.727 309.051 68.0684 308.848C68.4204 308.645 68.7137 308.352 68.9484 307.968V302.192H70.1164V310H68.9484V308.736C68.6497 309.195 68.2924 309.541 67.8764 309.776C67.471 310.011 67.0017 310.128 66.4684 310.128ZM74.9285 310.16C74.2885 310.16 73.6965 310.064 73.1525 309.872C72.6085 309.669 72.1445 309.381 71.7605 309.008L72.3845 308.24C72.8538 308.581 73.2858 308.832 73.6805 308.992C74.0752 309.141 74.4805 309.216 74.8965 309.216C75.4618 309.216 75.9312 309.083 76.3045 308.816C76.6778 308.549 76.8645 308.208 76.8645 307.792C76.8645 307.472 76.7525 307.221 76.5285 307.04C76.3152 306.859 75.9578 306.72 75.4565 306.624L74.1765 306.4C73.4192 306.261 72.8592 306.027 72.4965 305.696C72.1445 305.365 71.9685 304.917 71.9685 304.352C71.9685 303.904 72.0858 303.509 72.3205 303.168C72.5658 302.827 72.9018 302.56 73.3285 302.368C73.7552 302.165 74.2405 302.064 74.7845 302.064C75.3178 302.064 75.8245 302.144 76.3045 302.304C76.7845 302.453 77.2698 302.699 77.7605 303.04L77.1845 303.856C76.7792 303.568 76.3738 303.36 75.9685 303.232C75.5632 303.093 75.1525 303.024 74.7365 303.024C74.2245 303.024 73.8138 303.136 73.5045 303.36C73.1952 303.584 73.0405 303.888 73.0405 304.272C73.0405 304.592 73.1365 304.837 73.3285 305.008C73.5312 305.179 73.8832 305.307 74.3845 305.392L75.6965 305.632C76.4858 305.771 77.0618 306.011 77.4245 306.352C77.7872 306.693 77.9685 307.152 77.9685 307.728C77.9685 308.187 77.8352 308.603 77.5685 308.976C77.3018 309.339 76.9392 309.627 76.4805 309.84C76.0218 310.053 75.5045 310.16 74.9285 310.16ZM82.5666 310.16C81.8946 310.16 81.3826 310 81.0306 309.68C80.6893 309.349 80.5186 308.875 80.5186 308.256V303.152H78.9026V302.192H80.5186V300.048L81.6866 299.776V302.192H83.9266V303.152H81.6866V307.952C81.6866 308.368 81.772 308.667 81.9426 308.848C82.124 309.029 82.4173 309.12 82.8226 309.12C83.0253 309.12 83.2066 309.104 83.3666 309.072C83.5266 309.04 83.7133 308.987 83.9266 308.912V309.952C83.7133 310.027 83.4893 310.08 83.2546 310.112C83.02 310.144 82.7906 310.16 82.5666 310.16ZM89.7079 313.504C89.4625 313.504 89.2119 313.467 88.9559 313.392V312.352C89.0625 312.373 89.1745 312.389 89.2919 312.4C89.4092 312.411 89.5105 312.416 89.5959 312.416C89.8945 312.416 90.1399 312.336 90.3319 312.176C90.5345 312.016 90.7052 311.765 90.8439 311.424L91.4199 310L88.4119 302.192H89.7079L92.0759 308.608L94.5879 302.192H95.8839L91.9479 311.776C91.7772 312.192 91.5905 312.528 91.3879 312.784C91.1852 313.04 90.9505 313.221 90.6839 313.328C90.4172 313.445 90.0919 313.504 89.7079 313.504ZM100.562 310.128C99.8369 310.128 99.1863 309.952 98.6103 309.6C98.0343 309.248 97.5809 308.768 97.2503 308.16C96.9196 307.552 96.7543 306.864 96.7543 306.096C96.7543 305.328 96.9196 304.64 97.2503 304.032C97.5809 303.424 98.0343 302.944 98.6103 302.592C99.1863 302.24 99.8369 302.064 100.562 302.064C101.277 302.064 101.917 302.24 102.482 302.592C103.058 302.944 103.512 303.424 103.842 304.032C104.173 304.64 104.338 305.328 104.338 306.096C104.338 306.864 104.173 307.552 103.842 308.16C103.512 308.768 103.058 309.248 102.482 309.6C101.917 309.952 101.277 310.128 100.562 310.128ZM100.546 309.104C101.058 309.104 101.512 308.976 101.906 308.72C102.301 308.453 102.61 308.091 102.834 307.632C103.069 307.173 103.186 306.661 103.186 306.096C103.186 305.52 103.069 305.008 102.834 304.56C102.61 304.101 102.301 303.744 101.906 303.488C101.512 303.221 101.058 303.088 100.546 303.088C100.034 303.088 99.5809 303.221 99.1863 303.488C98.7916 303.744 98.4769 304.101 98.2423 304.56C98.0183 305.008 97.9062 305.52 97.9062 306.096C97.9062 306.661 98.0183 307.173 98.2423 307.632C98.4769 308.091 98.7916 308.453 99.1863 308.72C99.5809 308.976 100.034 309.104 100.546 309.104ZM109.172 310.128C108.617 310.128 108.126 310.005 107.7 309.76C107.273 309.515 106.937 309.173 106.692 308.736C106.457 308.299 106.34 307.797 106.34 307.232V302.192H107.524V306.896C107.524 307.589 107.71 308.139 108.084 308.544C108.457 308.949 108.964 309.152 109.604 309.152C110.041 309.152 110.43 309.051 110.772 308.848C111.124 308.645 111.417 308.352 111.652 307.968V302.192H112.82V310H111.652V308.736C111.353 309.195 110.996 309.541 110.58 309.776C110.174 310.011 109.705 310.128 109.172 310.128ZM115.216 310V302.192H116.384V303.792C116.586 303.248 116.874 302.827 117.248 302.528C117.632 302.219 118.069 302.064 118.56 302.064C118.698 302.064 118.826 302.075 118.944 302.096C119.061 302.107 119.178 302.133 119.296 302.176V303.232C119.168 303.189 119.029 303.157 118.88 303.136C118.741 303.104 118.608 303.088 118.48 303.088C118 303.088 117.578 303.227 117.216 303.504C116.864 303.781 116.586 304.171 116.384 304.672V310H115.216ZM126.991 310.16C126.351 310.16 125.759 310.064 125.215 309.872C124.671 309.669 124.207 309.381 123.823 309.008L124.447 308.24C124.916 308.581 125.348 308.832 125.743 308.992C126.138 309.141 126.543 309.216 126.959 309.216C127.524 309.216 127.994 309.083 128.367 308.816C128.74 308.549 128.927 308.208 128.927 307.792C128.927 307.472 128.815 307.221 128.591 307.04C128.378 306.859 128.02 306.72 127.519 306.624L126.239 306.4C125.482 306.261 124.922 306.027 124.559 305.696C124.207 305.365 124.031 304.917 124.031 304.352C124.031 303.904 124.148 303.509 124.383 303.168C124.628 302.827 124.964 302.56 125.391 302.368C125.818 302.165 126.303 302.064 126.847 302.064C127.38 302.064 127.887 302.144 128.367 302.304C128.847 302.453 129.332 302.699 129.823 303.04L129.247 303.856C128.842 303.568 128.436 303.36 128.031 303.232C127.626 303.093 127.215 303.024 126.799 303.024C126.287 303.024 125.876 303.136 125.567 303.36C125.258 303.584 125.103 303.888 125.103 304.272C125.103 304.592 125.199 304.837 125.391 305.008C125.594 305.179 125.946 305.307 126.447 305.392L127.759 305.632C128.548 305.771 129.124 306.011 129.487 306.352C129.85 306.693 130.031 307.152 130.031 307.728C130.031 308.187 129.898 308.603 129.631 308.976C129.364 309.339 129.002 309.627 128.543 309.84C128.084 310.053 127.567 310.16 126.991 310.16ZM135.408 310.16C134.682 310.16 134.026 309.984 133.44 309.632C132.853 309.269 132.389 308.784 132.048 308.176C131.706 307.557 131.536 306.864 131.536 306.096C131.536 305.328 131.696 304.64 132.016 304.032C132.346 303.424 132.789 302.944 133.344 302.592C133.898 302.24 134.517 302.064 135.2 302.064C135.893 302.064 136.506 302.24 137.04 302.592C137.584 302.933 138.01 303.403 138.32 304C138.64 304.587 138.8 305.253 138.8 306V306.352H132.672C132.714 306.885 132.858 307.365 133.104 307.792C133.36 308.208 133.69 308.539 134.096 308.784C134.512 309.019 134.965 309.136 135.456 309.136C135.861 309.136 136.25 309.067 136.624 308.928C137.008 308.779 137.333 308.581 137.6 308.336L138.336 309.12C137.888 309.472 137.424 309.733 136.944 309.904C136.464 310.075 135.952 310.16 135.408 310.16ZM132.704 305.52H137.648C137.594 305.051 137.45 304.635 137.216 304.272C136.992 303.899 136.704 303.605 136.352 303.392C136.01 303.179 135.626 303.072 135.2 303.072C134.773 303.072 134.384 303.179 134.032 303.392C133.68 303.595 133.386 303.883 133.152 304.256C132.928 304.619 132.778 305.04 132.704 305.52ZM143.054 310.144C142.499 310.144 142.008 310.043 141.582 309.84C141.155 309.637 140.819 309.36 140.574 309.008C140.339 308.645 140.222 308.229 140.222 307.76C140.222 307.291 140.344 306.885 140.59 306.544C140.835 306.192 141.176 305.92 141.614 305.728C142.051 305.536 142.563 305.44 143.15 305.44C143.598 305.44 144.019 305.488 144.414 305.584C144.819 305.68 145.192 305.835 145.534 306.048V304.976C145.534 304.336 145.363 303.856 145.022 303.536C144.68 303.205 144.179 303.04 143.518 303.04C143.155 303.04 142.782 303.093 142.398 303.2C142.024 303.307 141.608 303.477 141.15 303.712L140.718 302.816C141.763 302.315 142.744 302.064 143.661 302.064C144.632 302.064 145.379 302.304 145.902 302.784C146.424 303.253 146.686 303.931 146.686 304.816V310H145.534V309.088C145.192 309.44 144.814 309.707 144.398 309.888C143.982 310.059 143.534 310.144 143.054 310.144ZM141.342 307.728C141.342 308.187 141.518 308.555 141.87 308.832C142.232 309.109 142.707 309.248 143.294 309.248C143.731 309.248 144.131 309.173 144.494 309.024C144.867 308.875 145.214 308.651 145.534 308.352V306.848C145.203 306.656 144.862 306.517 144.51 306.432C144.158 306.336 143.763 306.288 143.326 306.288C142.728 306.288 142.248 306.421 141.886 306.688C141.523 306.944 141.342 307.291 141.342 307.728ZM149.059 310V302.192H150.227V303.792C150.43 303.248 150.718 302.827 151.091 302.528C151.475 302.219 151.913 302.064 152.403 302.064C152.542 302.064 152.67 302.075 152.787 302.096C152.905 302.107 153.022 302.133 153.139 302.176V303.232C153.011 303.189 152.873 303.157 152.723 303.136C152.585 303.104 152.451 303.088 152.323 303.088C151.843 303.088 151.422 303.227 151.059 303.504C150.707 303.781 150.43 304.171 150.227 304.672V310H149.059ZM157.704 310.128C156.979 310.128 156.323 309.952 155.736 309.6C155.16 309.237 154.701 308.752 154.36 308.144C154.019 307.525 153.848 306.843 153.848 306.096C153.848 305.339 154.019 304.656 154.36 304.048C154.701 303.44 155.16 302.96 155.736 302.608C156.323 302.245 156.979 302.064 157.704 302.064C158.28 302.064 158.829 302.171 159.352 302.384C159.875 302.597 160.328 302.896 160.712 303.28L159.96 304.096C159.683 303.787 159.347 303.547 158.952 303.376C158.557 303.205 158.157 303.12 157.752 303.12C157.24 303.12 156.776 303.253 156.36 303.52C155.955 303.787 155.629 304.144 155.384 304.592C155.139 305.04 155.016 305.541 155.016 306.096C155.016 306.651 155.139 307.152 155.384 307.6C155.629 308.048 155.955 308.405 156.36 308.672C156.776 308.939 157.24 309.072 157.752 309.072C158.157 309.072 158.557 308.987 158.952 308.816C159.347 308.635 159.683 308.395 159.96 308.096L160.712 308.912C160.328 309.296 159.875 309.595 159.352 309.808C158.829 310.021 158.28 310.128 157.704 310.128ZM162.341 310V298.448L163.509 298.208V303.456C163.807 302.987 164.165 302.64 164.581 302.416C164.997 302.181 165.466 302.064 165.989 302.064C166.554 302.064 167.045 302.187 167.461 302.432C167.887 302.667 168.218 303.003 168.453 303.44C168.698 303.867 168.821 304.368 168.821 304.944V310H167.653V305.28C167.653 304.587 167.461 304.043 167.077 303.648C166.703 303.243 166.197 303.04 165.557 303.04C165.13 303.04 164.741 303.141 164.389 303.344C164.037 303.547 163.743 303.845 163.509 304.24V310H162.341ZM180.647 313.344V308.96C180.348 309.333 179.986 309.621 179.559 309.824C179.132 310.016 178.663 310.112 178.151 310.112C177.479 310.112 176.871 309.936 176.327 309.584C175.783 309.221 175.351 308.741 175.031 308.144C174.711 307.536 174.551 306.859 174.551 306.112C174.551 305.355 174.711 304.677 175.031 304.08C175.362 303.472 175.804 302.992 176.359 302.64C176.914 302.277 177.532 302.096 178.215 302.096C178.695 302.096 179.143 302.192 179.559 302.384C179.975 302.565 180.338 302.832 180.647 303.184V302.192H181.815V313.344H180.647ZM178.439 309.088C178.898 309.088 179.319 308.997 179.703 308.816C180.087 308.635 180.402 308.379 180.647 308.048V304.176C180.391 303.845 180.066 303.589 179.671 303.408C179.287 303.216 178.876 303.12 178.439 303.12C177.916 303.12 177.447 303.248 177.031 303.504C176.626 303.76 176.3 304.112 176.055 304.56C175.82 305.008 175.703 305.52 175.703 306.096C175.703 306.661 175.82 307.173 176.055 307.632C176.3 308.08 176.626 308.437 177.031 308.704C177.447 308.96 177.916 309.088 178.439 309.088ZM187 310.128C186.445 310.128 185.954 310.005 185.528 309.76C185.101 309.515 184.765 309.173 184.52 308.736C184.285 308.299 184.168 307.797 184.168 307.232V302.192H185.352V306.896C185.352 307.589 185.538 308.139 185.912 308.544C186.285 308.949 186.792 309.152 187.432 309.152C187.869 309.152 188.258 309.051 188.6 308.848C188.952 308.645 189.245 308.352 189.48 307.968V302.192H190.648V310H189.48V308.736C189.181 309.195 188.824 309.541 188.408 309.776C188.002 310.011 187.533 310.128 187 310.128ZM196.564 310.16C195.838 310.16 195.182 309.984 194.596 309.632C194.009 309.269 193.545 308.784 193.204 308.176C192.862 307.557 192.692 306.864 192.692 306.096C192.692 305.328 192.852 304.64 193.172 304.032C193.502 303.424 193.945 302.944 194.5 302.592C195.054 302.24 195.673 302.064 196.356 302.064C197.049 302.064 197.662 302.24 198.196 302.592C198.74 302.933 199.166 303.403 199.476 304C199.796 304.587 199.956 305.253 199.956 306V306.352H193.828C193.87 306.885 194.014 307.365 194.26 307.792C194.516 308.208 194.846 308.539 195.252 308.784C195.668 309.019 196.121 309.136 196.612 309.136C197.017 309.136 197.406 309.067 197.78 308.928C198.164 308.779 198.489 308.581 198.756 308.336L199.492 309.12C199.044 309.472 198.58 309.733 198.1 309.904C197.62 310.075 197.108 310.16 196.564 310.16ZM193.86 305.52H198.804C198.75 305.051 198.606 304.635 198.372 304.272C198.148 303.899 197.86 303.605 197.508 303.392C197.166 303.179 196.782 303.072 196.356 303.072C195.929 303.072 195.54 303.179 195.188 303.392C194.836 303.595 194.542 303.883 194.308 304.256C194.084 304.619 193.934 305.04 193.86 305.52ZM201.95 310V302.192H203.118V303.792C203.321 303.248 203.609 302.827 203.982 302.528C204.366 302.219 204.803 302.064 205.294 302.064C205.433 302.064 205.561 302.075 205.678 302.096C205.795 302.107 205.913 302.133 206.03 302.176V303.232C205.902 303.189 205.763 303.157 205.614 303.136C205.475 303.104 205.342 303.088 205.214 303.088C204.734 303.088 204.313 303.227 203.95 303.504C203.598 303.781 203.321 304.171 203.118 304.672V310H201.95ZM208.067 313.504C207.822 313.504 207.571 313.467 207.315 313.392V312.352C207.422 312.373 207.534 312.389 207.651 312.4C207.769 312.411 207.87 312.416 207.955 312.416C208.254 312.416 208.499 312.336 208.691 312.176C208.894 312.016 209.065 311.765 209.203 311.424L209.779 310L206.771 302.192H208.067L210.435 308.608L212.947 302.192H214.243L210.307 311.776C210.137 312.192 209.95 312.528 209.747 312.784C209.545 313.04 209.31 313.221 209.043 313.328C208.777 313.445 208.451 313.504 208.067 313.504ZM221.85 310.144C221.296 310.144 220.805 310.043 220.378 309.84C219.952 309.637 219.616 309.36 219.37 309.008C219.136 308.645 219.018 308.229 219.018 307.76C219.018 307.291 219.141 306.885 219.386 306.544C219.632 306.192 219.973 305.92 220.41 305.728C220.848 305.536 221.36 305.44 221.946 305.44C222.394 305.44 222.816 305.488 223.21 305.584C223.616 305.68 223.989 305.835 224.33 306.048V304.976C224.33 304.336 224.16 303.856 223.818 303.536C223.477 303.205 222.976 303.04 222.314 303.04C221.952 303.04 221.578 303.093 221.194 303.2C220.821 303.307 220.405 303.477 219.946 303.712L219.514 302.816C220.56 302.315 221.541 302.064 222.458 302.064C223.429 302.064 224.176 302.304 224.698 302.784C225.221 303.253 225.482 303.931 225.482 304.816V310H224.33V309.088C223.989 309.44 223.61 309.707 223.194 309.888C222.778 310.059 222.33 310.144 221.85 310.144ZM220.138 307.728C220.138 308.187 220.314 308.555 220.666 308.832C221.029 309.109 221.504 309.248 222.09 309.248C222.528 309.248 222.928 309.173 223.29 309.024C223.664 308.875 224.01 308.651 224.33 308.352V306.848C224 306.656 223.658 306.517 223.306 306.432C222.954 306.336 222.56 306.288 222.122 306.288C221.525 306.288 221.045 306.421 220.682 306.688C220.32 306.944 220.138 307.291 220.138 307.728ZM227.856 310V302.192H229.024V303.456C229.323 302.987 229.68 302.64 230.096 302.416C230.512 302.181 230.982 302.064 231.504 302.064C232.07 302.064 232.56 302.187 232.976 302.432C233.403 302.667 233.734 303.003 233.968 303.44C234.214 303.867 234.336 304.368 234.336 304.944V310H233.168V305.28C233.168 304.587 232.976 304.043 232.592 303.648C232.219 303.243 231.712 303.04 231.072 303.04C230.646 303.04 230.256 303.141 229.904 303.344C229.552 303.547 229.259 303.845 229.024 304.24V310H227.856ZM239.932 310.112C239.26 310.112 238.652 309.936 238.108 309.584C237.564 309.221 237.132 308.741 236.812 308.144C236.492 307.536 236.332 306.859 236.332 306.112C236.332 305.355 236.492 304.677 236.812 304.08C237.143 303.472 237.586 302.992 238.14 302.64C238.695 302.277 239.314 302.096 239.996 302.096C240.476 302.096 240.924 302.192 241.34 302.384C241.756 302.565 242.119 302.832 242.428 303.184V298.448L243.596 298.208V310H242.428V308.96C242.13 309.333 241.767 309.621 241.34 309.824C240.914 310.016 240.444 310.112 239.932 310.112ZM240.22 309.088C240.679 309.088 241.1 308.997 241.484 308.816C241.868 308.635 242.183 308.379 242.428 308.048V304.176C242.172 303.845 241.847 303.589 241.452 303.408C241.068 303.216 240.658 303.12 240.22 303.12C239.698 303.12 239.228 303.248 238.812 303.504C238.407 303.76 238.082 304.112 237.836 304.56C237.602 305.008 237.484 305.52 237.484 306.096C237.484 306.661 237.602 307.173 237.836 307.632C238.082 308.08 238.407 308.437 238.812 308.704C239.228 308.96 239.698 309.088 240.22 309.088ZM252.707 310.16C252.035 310.16 251.523 310 251.171 309.68C250.83 309.349 250.659 308.875 250.659 308.256V303.152H249.043V302.192H250.659V300.048L251.827 299.776V302.192H254.067V303.152H251.827V307.952C251.827 308.368 251.913 308.667 252.083 308.848C252.265 309.029 252.558 309.12 252.963 309.12C253.166 309.12 253.347 309.104 253.507 309.072C253.667 309.04 253.854 308.987 254.067 308.912V309.952C253.854 310.027 253.63 310.08 253.395 310.112C253.161 310.144 252.931 310.16 252.707 310.16ZM255.778 310V302.192H256.946V303.792C257.149 303.248 257.437 302.827 257.81 302.528C258.194 302.219 258.631 302.064 259.122 302.064C259.261 302.064 259.389 302.075 259.506 302.096C259.623 302.107 259.741 302.133 259.858 302.176V303.232C259.73 303.189 259.591 303.157 259.442 303.136C259.303 303.104 259.17 303.088 259.042 303.088C258.562 303.088 258.141 303.227 257.778 303.504C257.426 303.781 257.149 304.171 256.946 304.672V310H255.778ZM261.895 313.504C261.65 313.504 261.399 313.467 261.143 313.392V312.352C261.25 312.373 261.362 312.389 261.479 312.4C261.597 312.411 261.698 312.416 261.783 312.416C262.082 312.416 262.327 312.336 262.519 312.176C262.722 312.016 262.893 311.765 263.031 311.424L263.607 310L260.599 302.192H261.895L264.263 308.608L266.775 302.192H268.071L264.135 311.776C263.965 312.192 263.778 312.528 263.575 312.784C263.373 313.04 263.138 313.221 262.871 313.328C262.605 313.445 262.279 313.504 261.895 313.504ZM275.679 310.144C275.124 310.144 274.633 310.043 274.207 309.84C273.78 309.637 273.444 309.36 273.199 309.008C272.964 308.645 272.847 308.229 272.847 307.76C272.847 307.291 272.969 306.885 273.215 306.544C273.46 306.192 273.801 305.92 274.239 305.728C274.676 305.536 275.188 305.44 275.775 305.44C276.223 305.44 276.644 305.488 277.039 305.584C277.444 305.68 277.817 305.835 278.159 306.048V304.976C278.159 304.336 277.988 303.856 277.647 303.536C277.305 303.205 276.804 303.04 276.143 303.04C275.78 303.04 275.407 303.093 275.023 303.2C274.649 303.307 274.233 303.477 273.775 303.712L273.343 302.816C274.388 302.315 275.369 302.064 276.286 302.064C277.257 302.064 278.004 302.304 278.527 302.784C279.049 303.253 279.311 303.931 279.311 304.816V310H278.159V309.088C277.817 309.44 277.439 309.707 277.023 309.888C276.607 310.059 276.159 310.144 275.679 310.144ZM273.967 307.728C273.967 308.187 274.143 308.555 274.495 308.832C274.857 309.109 275.332 309.248 275.919 309.248C276.356 309.248 276.756 309.173 277.119 309.024C277.492 308.875 277.839 308.651 278.159 308.352V306.848C277.828 306.656 277.487 306.517 277.135 306.432C276.783 306.336 276.388 306.288 275.951 306.288C275.353 306.288 274.873 306.421 274.511 306.688C274.148 306.944 273.967 307.291 273.967 307.728ZM285.3 313.504C284.778 313.504 284.25 313.429 283.716 313.28C283.194 313.141 282.708 312.944 282.26 312.688L282.756 311.792C283.236 312.037 283.674 312.219 284.068 312.336C284.463 312.453 284.858 312.512 285.252 312.512C285.967 312.512 286.506 312.341 286.868 312C287.242 311.659 287.428 311.163 287.428 310.512V308.944C287.13 309.317 286.767 309.605 286.34 309.808C285.914 310 285.444 310.096 284.932 310.096C284.26 310.096 283.652 309.92 283.108 309.568C282.564 309.205 282.132 308.725 281.812 308.128C281.492 307.52 281.332 306.843 281.332 306.096C281.332 305.349 281.492 304.677 281.812 304.08C282.143 303.472 282.586 302.992 283.14 302.64C283.695 302.277 284.314 302.096 284.996 302.096C285.487 302.096 285.94 302.192 286.356 302.384C286.772 302.565 287.135 302.837 287.444 303.2V302.192H288.596V310.496C288.596 311.467 288.314 312.208 287.748 312.72C287.183 313.243 286.367 313.504 285.3 313.504ZM285.22 309.088C285.679 309.088 286.1 308.997 286.484 308.816C286.868 308.624 287.183 308.363 287.428 308.032V304.176C287.172 303.845 286.847 303.589 286.452 303.408C286.068 303.216 285.658 303.12 285.22 303.12C284.698 303.12 284.228 303.248 283.812 303.504C283.407 303.76 283.082 304.112 282.836 304.56C282.602 305.008 282.484 305.52 282.484 306.096C282.484 306.661 282.602 307.173 282.836 307.632C283.082 308.08 283.407 308.437 283.812 308.704C284.228 308.96 284.698 309.088 285.22 309.088ZM293.413 310.144C292.858 310.144 292.368 310.043 291.941 309.84C291.514 309.637 291.178 309.36 290.933 309.008C290.698 308.645 290.581 308.229 290.581 307.76C290.581 307.291 290.704 306.885 290.949 306.544C291.194 306.192 291.536 305.92 291.973 305.728C292.41 305.536 292.922 305.44 293.509 305.44C293.957 305.44 294.378 305.488 294.773 305.584C295.178 305.68 295.552 305.835 295.893 306.048V304.976C295.893 304.336 295.722 303.856 295.381 303.536C295.04 303.205 294.538 303.04 293.877 303.04C293.514 303.04 293.141 303.093 292.757 303.2C292.384 303.307 291.968 303.477 291.509 303.712L291.077 302.816C292.122 302.315 293.104 302.064 294.021 302.064C294.992 302.064 295.738 302.304 296.261 302.784C296.784 303.253 297.045 303.931 297.045 304.816V310H295.893V309.088C295.552 309.44 295.173 309.707 294.757 309.888C294.341 310.059 293.893 310.144 293.413 310.144ZM291.701 307.728C291.701 308.187 291.877 308.555 292.229 308.832C292.592 309.109 293.066 309.248 293.653 309.248C294.09 309.248 294.49 309.173 294.853 309.024C295.226 308.875 295.573 308.651 295.893 308.352V306.848C295.562 306.656 295.221 306.517 294.869 306.432C294.517 306.336 294.122 306.288 293.685 306.288C293.088 306.288 292.608 306.421 292.245 306.688C291.882 306.944 291.701 307.291 291.701 307.728ZM299.403 310V302.192H300.571V310H299.403ZM299.995 300.256C299.76 300.256 299.557 300.176 299.387 300.016C299.227 299.845 299.147 299.648 299.147 299.424C299.147 299.2 299.227 299.008 299.387 298.848C299.557 298.677 299.76 298.592 299.995 298.592C300.229 298.592 300.427 298.677 300.587 298.848C300.757 299.008 300.843 299.2 300.843 299.424C300.843 299.648 300.757 299.845 300.587 300.016C300.427 300.176 300.229 300.256 299.995 300.256ZM302.966 310V302.192H304.134V303.456C304.432 302.987 304.79 302.64 305.206 302.416C305.622 302.181 306.091 302.064 306.614 302.064C307.179 302.064 307.67 302.187 308.086 302.432C308.512 302.667 308.843 303.003 309.078 303.44C309.323 303.867 309.446 304.368 309.446 304.944V310H308.278V305.28C308.278 304.587 308.086 304.043 307.702 303.648C307.328 303.243 306.822 303.04 306.182 303.04C305.755 303.04 305.366 303.141 305.014 303.344C304.662 303.547 304.368 303.845 304.134 304.24V310H302.966ZM312.594 310.128C312.359 310.128 312.156 310.043 311.986 309.872C311.826 309.701 311.746 309.499 311.746 309.264C311.746 309.019 311.826 308.816 311.986 308.656C312.156 308.485 312.359 308.4 312.594 308.4C312.828 308.4 313.026 308.485 313.186 308.656C313.356 308.816 313.442 309.019 313.442 309.264C313.442 309.499 313.356 309.701 313.186 309.872C313.026 310.043 312.828 310.128 312.594 310.128ZM324.92 310.176C324.12 310.176 323.373 310.032 322.68 309.744C321.997 309.445 321.395 309.035 320.872 308.512C320.349 307.979 319.944 307.365 319.656 306.672C319.368 305.968 319.224 305.211 319.224 304.4C319.224 303.589 319.368 302.837 319.656 302.144C319.944 301.44 320.349 300.827 320.872 300.304C321.395 299.771 321.997 299.36 322.68 299.072C323.373 298.773 324.12 298.624 324.92 298.624C325.475 298.624 326.003 298.699 326.504 298.848C327.016 298.987 327.496 299.195 327.944 299.472C328.392 299.739 328.792 300.069 329.144 300.464L328.328 301.312C327.912 300.811 327.4 300.427 326.792 300.16C326.195 299.883 325.571 299.744 324.92 299.744C324.291 299.744 323.704 299.861 323.16 300.096C322.616 300.331 322.141 300.661 321.736 301.088C321.341 301.515 321.032 302.011 320.808 302.576C320.584 303.131 320.472 303.739 320.472 304.4C320.472 305.051 320.584 305.659 320.808 306.224C321.032 306.789 321.341 307.285 321.736 307.712C322.141 308.139 322.616 308.469 323.16 308.704C323.704 308.939 324.291 309.056 324.92 309.056C325.571 309.056 326.195 308.917 326.792 308.64C327.4 308.363 327.912 307.979 328.328 307.488L329.144 308.336C328.792 308.731 328.392 309.067 327.944 309.344C327.496 309.611 327.016 309.819 326.504 309.968C326.003 310.107 325.475 310.176 324.92 310.176ZM331.138 310V298.448L332.306 298.208V303.456C332.604 302.987 332.962 302.64 333.378 302.416C333.794 302.181 334.263 302.064 334.786 302.064C335.351 302.064 335.842 302.187 336.258 302.432C336.684 302.667 337.015 303.003 337.25 303.44C337.495 303.867 337.618 304.368 337.618 304.944V310H336.45V305.28C336.45 304.587 336.258 304.043 335.874 303.648C335.5 303.243 334.994 303.04 334.354 303.04C333.927 303.04 333.538 303.141 333.186 303.344C332.834 303.547 332.54 303.845 332.306 304.24V310H331.138ZM343.486 310.16C342.76 310.16 342.104 309.984 341.518 309.632C340.931 309.269 340.467 308.784 340.126 308.176C339.784 307.557 339.614 306.864 339.614 306.096C339.614 305.328 339.774 304.64 340.094 304.032C340.424 303.424 340.867 302.944 341.422 302.592C341.976 302.24 342.595 302.064 343.278 302.064C343.971 302.064 344.584 302.24 345.118 302.592C345.662 302.933 346.088 303.403 346.398 304C346.718 304.587 346.878 305.253 346.878 306V306.352H340.75C340.792 306.885 340.936 307.365 341.182 307.792C341.438 308.208 341.768 308.539 342.174 308.784C342.59 309.019 343.043 309.136 343.534 309.136C343.939 309.136 344.328 309.067 344.702 308.928C345.086 308.779 345.411 308.581 345.678 308.336L346.414 309.12C345.966 309.472 345.502 309.733 345.022 309.904C344.542 310.075 344.03 310.16 343.486 310.16ZM340.782 305.52H345.726C345.672 305.051 345.528 304.635 345.294 304.272C345.07 303.899 344.782 303.605 344.43 303.392C344.088 303.179 343.704 303.072 343.278 303.072C342.851 303.072 342.462 303.179 342.11 303.392C341.758 303.595 341.464 303.883 341.23 304.256C341.006 304.619 340.856 305.04 340.782 305.52ZM352.376 310.128C351.651 310.128 350.995 309.952 350.408 309.6C349.832 309.237 349.373 308.752 349.032 308.144C348.691 307.525 348.52 306.843 348.52 306.096C348.52 305.339 348.691 304.656 349.032 304.048C349.373 303.44 349.832 302.96 350.408 302.608C350.995 302.245 351.651 302.064 352.376 302.064C352.952 302.064 353.501 302.171 354.024 302.384C354.547 302.597 355 302.896 355.384 303.28L354.632 304.096C354.355 303.787 354.019 303.547 353.624 303.376C353.229 303.205 352.829 303.12 352.424 303.12C351.912 303.12 351.448 303.253 351.032 303.52C350.627 303.787 350.301 304.144 350.056 304.592C349.811 305.04 349.688 305.541 349.688 306.096C349.688 306.651 349.811 307.152 350.056 307.6C350.301 308.048 350.627 308.405 351.032 308.672C351.448 308.939 351.912 309.072 352.424 309.072C352.829 309.072 353.229 308.987 353.624 308.816C354.019 308.635 354.355 308.395 354.632 308.096L355.384 308.912C355 309.296 354.547 309.595 354.024 309.808C353.501 310.021 352.952 310.128 352.376 310.128ZM357.013 310V298.448L358.181 298.208V305.696L361.893 302.192H363.301L359.333 305.904L363.477 310H361.941L358.181 306.272V310H357.013ZM61.5204 337.504C61.275 337.504 61.0244 337.467 60.7684 337.392V336.352C60.875 336.373 60.987 336.389 61.1044 336.4C61.2217 336.411 61.323 336.416 61.4084 336.416C61.707 336.416 61.9524 336.336 62.1444 336.176C62.347 336.016 62.5177 335.765 62.6564 335.424L63.2324 334L60.2244 326.192H61.5204L63.8884 332.608L66.4004 326.192H67.6964L63.7604 335.776C63.5897 336.192 63.403 336.528 63.2004 336.784C62.9977 337.04 62.763 337.221 62.4964 337.328C62.2297 337.445 61.9044 337.504 61.5204 337.504ZM72.3748 334.128C71.6494 334.128 70.9988 333.952 70.4228 333.6C69.8468 333.248 69.3934 332.768 69.0628 332.16C68.7321 331.552 68.5668 330.864 68.5668 330.096C68.5668 329.328 68.7321 328.64 69.0628 328.032C69.3934 327.424 69.8468 326.944 70.4228 326.592C70.9988 326.24 71.6494 326.064 72.3748 326.064C73.0894 326.064 73.7294 326.24 74.2948 326.592C74.8708 326.944 75.3241 327.424 75.6548 328.032C75.9854 328.64 76.1508 329.328 76.1508 330.096C76.1508 330.864 75.9854 331.552 75.6548 332.16C75.3241 332.768 74.8708 333.248 74.2948 333.6C73.7294 333.952 73.0894 334.128 72.3748 334.128ZM72.3588 333.104C72.8708 333.104 73.3241 332.976 73.7188 332.72C74.1134 332.453 74.4228 332.091 74.6468 331.632C74.8814 331.173 74.9988 330.661 74.9988 330.096C74.9988 329.52 74.8814 329.008 74.6468 328.56C74.4228 328.101 74.1134 327.744 73.7188 327.488C73.3241 327.221 72.8708 327.088 72.3588 327.088C71.8468 327.088 71.3934 327.221 70.9988 327.488C70.6041 327.744 70.2894 328.101 70.0548 328.56C69.8308 329.008 69.7188 329.52 69.7188 330.096C69.7188 330.661 69.8308 331.173 70.0548 331.632C70.2894 332.091 70.6041 332.453 70.9988 332.72C71.3934 332.976 71.8468 333.104 72.3588 333.104ZM80.984 334.128C80.4293 334.128 79.9387 334.005 79.512 333.76C79.0853 333.515 78.7493 333.173 78.504 332.736C78.2693 332.299 78.152 331.797 78.152 331.232V326.192H79.336V330.896C79.336 331.589 79.5227 332.139 79.896 332.544C80.2693 332.949 80.776 333.152 81.416 333.152C81.8533 333.152 82.2427 333.051 82.584 332.848C82.936 332.645 83.2293 332.352 83.464 331.968V326.192H84.632V334H83.464V332.736C83.1653 333.195 82.808 333.541 82.392 333.776C81.9867 334.011 81.5173 334.128 80.984 334.128ZM87.0281 334V326.192H88.1961V327.792C88.3988 327.248 88.6868 326.827 89.0601 326.528C89.4441 326.219 89.8815 326.064 90.3721 326.064C90.5108 326.064 90.6388 326.075 90.7561 326.096C90.8735 326.107 90.9908 326.133 91.1081 326.176V327.232C90.9801 327.189 90.8415 327.157 90.6921 327.136C90.5535 327.104 90.4201 327.088 90.2921 327.088C89.8121 327.088 89.3908 327.227 89.0281 327.504C88.6761 327.781 88.3988 328.171 88.1961 328.672V334H87.0281ZM98.8035 334.16C98.1635 334.16 97.5715 334.064 97.0275 333.872C96.4835 333.669 96.0195 333.381 95.6355 333.008L96.2595 332.24C96.7288 332.581 97.1608 332.832 97.5555 332.992C97.9502 333.141 98.3555 333.216 98.7715 333.216C99.3368 333.216 99.8062 333.083 100.18 332.816C100.553 332.549 100.74 332.208 100.74 331.792C100.74 331.472 100.628 331.221 100.404 331.04C100.19 330.859 99.8328 330.72 99.3315 330.624L98.0515 330.4C97.2942 330.261 96.7342 330.027 96.3715 329.696C96.0195 329.365 95.8435 328.917 95.8435 328.352C95.8435 327.904 95.9608 327.509 96.1955 327.168C96.4408 326.827 96.7768 326.56 97.2035 326.368C97.6302 326.165 98.1155 326.064 98.6595 326.064C99.1928 326.064 99.6995 326.144 100.18 326.304C100.66 326.453 101.145 326.699 101.636 327.04L101.06 327.856C100.654 327.568 100.249 327.36 99.8435 327.232C99.4382 327.093 99.0275 327.024 98.6115 327.024C98.0995 327.024 97.6888 327.136 97.3795 327.36C97.0702 327.584 96.9155 327.888 96.9155 328.272C96.9155 328.592 97.0115 328.837 97.2035 329.008C97.4062 329.179 97.7582 329.307 98.2595 329.392L99.5715 329.632C100.361 329.771 100.937 330.011 101.3 330.352C101.662 330.693 101.844 331.152 101.844 331.728C101.844 332.187 101.71 332.603 101.444 332.976C101.177 333.339 100.814 333.627 100.356 333.84C99.8968 334.053 99.3795 334.16 98.8035 334.16ZM103.622 337.344V326.192H104.774V327.312C105.073 326.917 105.435 326.619 105.862 326.416C106.299 326.203 106.779 326.096 107.302 326.096C107.985 326.096 108.593 326.277 109.126 326.64C109.67 326.992 110.102 327.472 110.422 328.08C110.742 328.677 110.902 329.349 110.902 330.096C110.902 330.843 110.737 331.52 110.406 332.128C110.086 332.736 109.649 333.221 109.094 333.584C108.55 333.936 107.931 334.112 107.238 334.112C106.747 334.112 106.294 334.021 105.878 333.84C105.462 333.648 105.099 333.376 104.79 333.024V337.344H103.622ZM107.014 333.104C107.537 333.104 108.001 332.976 108.406 332.72C108.822 332.453 109.147 332.096 109.382 331.648C109.627 331.189 109.75 330.677 109.75 330.112C109.75 329.536 109.627 329.024 109.382 328.576C109.147 328.128 108.822 327.776 108.406 327.52C108.001 327.253 107.537 327.12 107.014 327.12C106.555 327.12 106.129 327.216 105.734 327.408C105.35 327.589 105.035 327.851 104.79 328.192V332.016C105.046 332.357 105.366 332.624 105.75 332.816C106.145 333.008 106.566 333.104 107.014 333.104ZM116.47 334.16C115.745 334.16 115.089 333.984 114.502 333.632C113.915 333.269 113.451 332.784 113.11 332.176C112.769 331.557 112.598 330.864 112.598 330.096C112.598 329.328 112.758 328.64 113.078 328.032C113.409 327.424 113.851 326.944 114.406 326.592C114.961 326.24 115.579 326.064 116.262 326.064C116.955 326.064 117.569 326.24 118.102 326.592C118.646 326.933 119.073 327.403 119.382 328C119.702 328.587 119.862 329.253 119.862 330V330.352H113.734C113.777 330.885 113.921 331.365 114.166 331.792C114.422 332.208 114.753 332.539 115.158 332.784C115.574 333.019 116.027 333.136 116.518 333.136C116.923 333.136 117.313 333.067 117.686 332.928C118.07 332.779 118.395 332.581 118.662 332.336L119.398 333.12C118.95 333.472 118.486 333.733 118.006 333.904C117.526 334.075 117.014 334.16 116.47 334.16ZM113.766 329.52H118.71C118.657 329.051 118.513 328.635 118.278 328.272C118.054 327.899 117.766 327.605 117.414 327.392C117.073 327.179 116.689 327.072 116.262 327.072C115.835 327.072 115.446 327.179 115.094 327.392C114.742 327.595 114.449 327.883 114.214 328.256C113.99 328.619 113.841 329.04 113.766 329.52ZM121.856 334V322.448L123.024 322.208V334H121.856ZM125.419 334V322.448L126.587 322.208V334H125.419ZM128.965 334V326.192H130.133V334H128.965ZM129.557 324.256C129.323 324.256 129.12 324.176 128.949 324.016C128.789 323.845 128.709 323.648 128.709 323.424C128.709 323.2 128.789 323.008 128.949 322.848C129.12 322.677 129.323 322.592 129.557 322.592C129.792 322.592 129.989 322.677 130.149 322.848C130.32 323.008 130.405 323.2 130.405 323.424C130.405 323.648 130.32 323.845 130.149 324.016C129.989 324.176 129.792 324.256 129.557 324.256ZM132.528 334V326.192H133.696V327.456C133.995 326.987 134.352 326.64 134.768 326.416C135.184 326.181 135.653 326.064 136.176 326.064C136.741 326.064 137.232 326.187 137.648 326.432C138.075 326.667 138.405 327.003 138.64 327.44C138.885 327.867 139.008 328.368 139.008 328.944V334H137.84V329.28C137.84 328.587 137.648 328.043 137.264 327.648C136.891 327.243 136.384 327.04 135.744 327.04C135.317 327.04 134.928 327.141 134.576 327.344C134.224 327.547 133.931 327.845 133.696 328.24V334H132.528ZM144.972 337.504C144.45 337.504 143.922 337.429 143.388 337.28C142.866 337.141 142.38 336.944 141.932 336.688L142.428 335.792C142.908 336.037 143.346 336.219 143.74 336.336C144.135 336.453 144.53 336.512 144.924 336.512C145.639 336.512 146.178 336.341 146.54 336C146.914 335.659 147.1 335.163 147.1 334.512V332.944C146.802 333.317 146.439 333.605 146.012 333.808C145.586 334 145.116 334.096 144.604 334.096C143.932 334.096 143.324 333.92 142.78 333.568C142.236 333.205 141.804 332.725 141.484 332.128C141.164 331.52 141.004 330.843 141.004 330.096C141.004 329.349 141.164 328.677 141.484 328.08C141.815 327.472 142.258 326.992 142.812 326.64C143.367 326.277 143.986 326.096 144.668 326.096C145.159 326.096 145.612 326.192 146.028 326.384C146.444 326.565 146.807 326.837 147.116 327.2V326.192H148.268V334.496C148.268 335.467 147.986 336.208 147.42 336.72C146.855 337.243 146.039 337.504 144.972 337.504ZM144.892 333.088C145.351 333.088 145.772 332.997 146.156 332.816C146.54 332.624 146.855 332.363 147.1 332.032V328.176C146.844 327.845 146.519 327.589 146.124 327.408C145.74 327.216 145.33 327.12 144.892 327.12C144.37 327.12 143.9 327.248 143.484 327.504C143.079 327.76 142.754 328.112 142.508 328.56C142.274 329.008 142.156 329.52 142.156 330.096C142.156 330.661 142.274 331.173 142.508 331.632C142.754 332.08 143.079 332.437 143.484 332.704C143.9 332.96 144.37 333.088 144.892 333.088ZM157.859 334.128C157.134 334.128 156.483 333.952 155.907 333.6C155.331 333.248 154.878 332.768 154.547 332.16C154.216 331.552 154.051 330.864 154.051 330.096C154.051 329.328 154.216 328.64 154.547 328.032C154.878 327.424 155.331 326.944 155.907 326.592C156.483 326.24 157.134 326.064 157.859 326.064C158.574 326.064 159.214 326.24 159.779 326.592C160.355 326.944 160.808 327.424 161.139 328.032C161.47 328.64 161.635 329.328 161.635 330.096C161.635 330.864 161.47 331.552 161.139 332.16C160.808 332.768 160.355 333.248 159.779 333.6C159.214 333.952 158.574 334.128 157.859 334.128ZM157.843 333.104C158.355 333.104 158.808 332.976 159.203 332.72C159.598 332.453 159.907 332.091 160.131 331.632C160.366 331.173 160.483 330.661 160.483 330.096C160.483 329.52 160.366 329.008 160.131 328.56C159.907 328.101 159.598 327.744 159.203 327.488C158.808 327.221 158.355 327.088 157.843 327.088C157.331 327.088 156.878 327.221 156.483 327.488C156.088 327.744 155.774 328.101 155.539 328.56C155.315 329.008 155.203 329.52 155.203 330.096C155.203 330.661 155.315 331.173 155.539 331.632C155.774 332.091 156.088 332.453 156.483 332.72C156.878 332.976 157.331 333.104 157.843 333.104ZM163.684 334V326.192H164.852V327.792C165.055 327.248 165.343 326.827 165.716 326.528C166.1 326.219 166.538 326.064 167.028 326.064C167.167 326.064 167.295 326.075 167.412 326.096C167.53 326.107 167.647 326.133 167.764 326.176V327.232C167.636 327.189 167.498 327.157 167.348 327.136C167.21 327.104 167.076 327.088 166.948 327.088C166.468 327.088 166.047 327.227 165.684 327.504C165.332 327.781 165.055 328.171 164.852 328.672V334H163.684ZM176.02 334.16C175.348 334.16 174.836 334 174.484 333.68C174.142 333.349 173.972 332.875 173.972 332.256V327.152H172.356V326.192H173.972V324.048L175.14 323.776V326.192H177.38V327.152H175.14V331.952C175.14 332.368 175.225 332.667 175.396 332.848C175.577 333.029 175.87 333.12 176.276 333.12C176.478 333.12 176.66 333.104 176.82 333.072C176.98 333.04 177.166 332.987 177.38 332.912V333.952C177.166 334.027 176.942 334.08 176.708 334.112C176.473 334.144 176.244 334.16 176.02 334.16ZM179.091 334V326.192H180.259V327.792C180.461 327.248 180.749 326.827 181.123 326.528C181.507 326.219 181.944 326.064 182.435 326.064C182.573 326.064 182.701 326.075 182.819 326.096C182.936 326.107 183.053 326.133 183.171 326.176V327.232C183.043 327.189 182.904 327.157 182.755 327.136C182.616 327.104 182.483 327.088 182.355 327.088C181.875 327.088 181.453 327.227 181.091 327.504C180.739 327.781 180.461 328.171 180.259 328.672V334H179.091ZM185.208 337.504C184.963 337.504 184.712 337.467 184.456 337.392V336.352C184.563 336.373 184.675 336.389 184.792 336.4C184.909 336.411 185.011 336.416 185.096 336.416C185.395 336.416 185.64 336.336 185.832 336.176C186.035 336.016 186.205 335.765 186.344 335.424L186.92 334L183.912 326.192H185.208L187.576 332.608L190.088 326.192H191.384L187.448 335.776C187.277 336.192 187.091 336.528 186.888 336.784C186.685 337.04 186.451 337.221 186.184 337.328C185.917 337.445 185.592 337.504 185.208 337.504ZM198.991 334.144C198.436 334.144 197.946 334.043 197.519 333.84C197.092 333.637 196.756 333.36 196.511 333.008C196.276 332.645 196.159 332.229 196.159 331.76C196.159 331.291 196.282 330.885 196.527 330.544C196.772 330.192 197.114 329.92 197.551 329.728C197.988 329.536 198.5 329.44 199.087 329.44C199.535 329.44 199.956 329.488 200.351 329.584C200.756 329.68 201.13 329.835 201.471 330.048V328.976C201.471 328.336 201.3 327.856 200.959 327.536C200.618 327.205 200.116 327.04 199.455 327.04C199.092 327.04 198.719 327.093 198.335 327.2C197.962 327.307 197.546 327.477 197.087 327.712L196.655 326.816C197.7 326.315 198.682 326.064 199.599 326.064C200.57 326.064 201.316 326.304 201.839 326.784C202.362 327.253 202.623 327.931 202.623 328.816V334H201.471V333.088C201.13 333.44 200.751 333.707 200.335 333.888C199.919 334.059 199.471 334.144 198.991 334.144ZM197.279 331.728C197.279 332.187 197.455 332.555 197.807 332.832C198.17 333.109 198.644 333.248 199.231 333.248C199.668 333.248 200.068 333.173 200.431 333.024C200.804 332.875 201.151 332.651 201.471 332.352V330.848C201.14 330.656 200.799 330.517 200.447 330.432C200.095 330.336 199.7 330.288 199.263 330.288C198.666 330.288 198.186 330.421 197.823 330.688C197.46 330.944 197.279 331.291 197.279 331.728ZM208.731 334V326.192H209.899V327.408C210.198 326.96 210.539 326.624 210.923 326.4C211.307 326.176 211.739 326.064 212.219 326.064C212.774 326.064 213.259 326.203 213.675 326.48C214.091 326.747 214.406 327.115 214.619 327.584C214.929 327.083 215.297 326.704 215.723 326.448C216.161 326.192 216.662 326.064 217.227 326.064C217.75 326.064 218.209 326.187 218.603 326.432C219.009 326.677 219.323 327.019 219.547 327.456C219.771 327.883 219.883 328.384 219.883 328.96V334H218.715V329.248C218.715 328.565 218.545 328.027 218.203 327.632C217.862 327.237 217.393 327.04 216.795 327.04C216.39 327.04 216.022 327.141 215.691 327.344C215.371 327.547 215.089 327.856 214.843 328.272C214.865 328.379 214.881 328.491 214.891 328.608C214.902 328.725 214.907 328.843 214.907 328.96V334H213.739V329.248C213.739 328.565 213.563 328.027 213.211 327.632C212.87 327.237 212.401 327.04 211.803 327.04C211.003 327.04 210.369 327.424 209.899 328.192V334H208.731ZM225.703 334.128C224.978 334.128 224.327 333.952 223.751 333.6C223.175 333.248 222.722 332.768 222.391 332.16C222.06 331.552 221.895 330.864 221.895 330.096C221.895 329.328 222.06 328.64 222.391 328.032C222.722 327.424 223.175 326.944 223.751 326.592C224.327 326.24 224.978 326.064 225.703 326.064C226.418 326.064 227.058 326.24 227.623 326.592C228.199 326.944 228.652 327.424 228.983 328.032C229.314 328.64 229.479 329.328 229.479 330.096C229.479 330.864 229.314 331.552 228.983 332.16C228.652 332.768 228.199 333.248 227.623 333.6C227.058 333.952 226.418 334.128 225.703 334.128ZM225.687 333.104C226.199 333.104 226.652 332.976 227.047 332.72C227.442 332.453 227.751 332.091 227.975 331.632C228.21 331.173 228.327 330.661 228.327 330.096C228.327 329.52 228.21 329.008 227.975 328.56C227.751 328.101 227.442 327.744 227.047 327.488C226.652 327.221 226.199 327.088 225.687 327.088C225.175 327.088 224.722 327.221 224.327 327.488C223.932 327.744 223.618 328.101 223.383 328.56C223.159 329.008 223.047 329.52 223.047 330.096C223.047 330.661 223.159 331.173 223.383 331.632C223.618 332.091 223.932 332.453 224.327 332.72C224.722 332.976 225.175 333.104 225.687 333.104ZM231.528 334V326.192H232.696V327.792C232.899 327.248 233.187 326.827 233.56 326.528C233.944 326.219 234.381 326.064 234.872 326.064C235.011 326.064 235.139 326.075 235.256 326.096C235.373 326.107 235.491 326.133 235.608 326.176V327.232C235.48 327.189 235.341 327.157 235.192 327.136C235.053 327.104 234.92 327.088 234.792 327.088C234.312 327.088 233.891 327.227 233.528 327.504C233.176 327.781 232.899 328.171 232.696 328.672V334H231.528ZM240.189 334.16C239.463 334.16 238.807 333.984 238.221 333.632C237.634 333.269 237.17 332.784 236.829 332.176C236.487 331.557 236.317 330.864 236.317 330.096C236.317 329.328 236.477 328.64 236.797 328.032C237.127 327.424 237.57 326.944 238.125 326.592C238.679 326.24 239.298 326.064 239.981 326.064C240.674 326.064 241.287 326.24 241.821 326.592C242.365 326.933 242.791 327.403 243.101 328C243.421 328.587 243.581 329.253 243.581 330V330.352H237.453C237.495 330.885 237.639 331.365 237.885 331.792C238.141 332.208 238.471 332.539 238.877 332.784C239.293 333.019 239.746 333.136 240.237 333.136C240.642 333.136 241.031 333.067 241.405 332.928C241.789 332.779 242.114 332.581 242.381 332.336L243.117 333.12C242.669 333.472 242.205 333.733 241.725 333.904C241.245 334.075 240.733 334.16 240.189 334.16ZM237.485 329.52H242.429C242.375 329.051 242.231 328.635 241.997 328.272C241.773 327.899 241.485 327.605 241.133 327.392C240.791 327.179 240.407 327.072 239.981 327.072C239.554 327.072 239.165 327.179 238.813 327.392C238.461 327.595 238.167 327.883 237.933 328.256C237.709 328.619 237.559 329.04 237.485 329.52ZM252.925 337.504C252.403 337.504 251.875 337.429 251.341 337.28C250.819 337.141 250.333 336.944 249.885 336.688L250.381 335.792C250.861 336.037 251.299 336.219 251.693 336.336C252.088 336.453 252.483 336.512 252.877 336.512C253.592 336.512 254.131 336.341 254.493 336C254.867 335.659 255.053 335.163 255.053 334.512V332.944C254.755 333.317 254.392 333.605 253.965 333.808C253.539 334 253.069 334.096 252.557 334.096C251.885 334.096 251.277 333.92 250.733 333.568C250.189 333.205 249.757 332.725 249.437 332.128C249.117 331.52 248.957 330.843 248.957 330.096C248.957 329.349 249.117 328.677 249.437 328.08C249.768 327.472 250.211 326.992 250.765 326.64C251.32 326.277 251.939 326.096 252.621 326.096C253.112 326.096 253.565 326.192 253.981 326.384C254.397 326.565 254.76 326.837 255.069 327.2V326.192H256.221V334.496C256.221 335.467 255.939 336.208 255.373 336.72C254.808 337.243 253.992 337.504 252.925 337.504ZM252.845 333.088C253.304 333.088 253.725 332.997 254.109 332.816C254.493 332.624 254.808 332.363 255.053 332.032V328.176C254.797 327.845 254.472 327.589 254.077 327.408C253.693 327.216 253.283 327.12 252.845 327.12C252.323 327.12 251.853 327.248 251.437 327.504C251.032 327.76 250.707 328.112 250.461 328.56C250.227 329.008 250.109 329.52 250.109 330.096C250.109 330.661 250.227 331.173 250.461 331.632C250.707 332.08 251.032 332.437 251.437 332.704C251.853 332.96 252.323 333.088 252.845 333.088ZM262.142 334.16C261.417 334.16 260.761 333.984 260.174 333.632C259.587 333.269 259.123 332.784 258.782 332.176C258.441 331.557 258.27 330.864 258.27 330.096C258.27 329.328 258.43 328.64 258.75 328.032C259.081 327.424 259.523 326.944 260.078 326.592C260.633 326.24 261.251 326.064 261.934 326.064C262.627 326.064 263.241 326.24 263.774 326.592C264.318 326.933 264.745 327.403 265.054 328C265.374 328.587 265.534 329.253 265.534 330V330.352H259.406C259.449 330.885 259.593 331.365 259.838 331.792C260.094 332.208 260.425 332.539 260.83 332.784C261.246 333.019 261.699 333.136 262.19 333.136C262.595 333.136 262.985 333.067 263.358 332.928C263.742 332.779 264.067 332.581 264.334 332.336L265.07 333.12C264.622 333.472 264.158 333.733 263.678 333.904C263.198 334.075 262.686 334.16 262.142 334.16ZM259.438 329.52H264.382C264.329 329.051 264.185 328.635 263.95 328.272C263.726 327.899 263.438 327.605 263.086 327.392C262.745 327.179 262.361 327.072 261.934 327.072C261.507 327.072 261.118 327.179 260.766 327.392C260.414 327.595 260.121 327.883 259.886 328.256C259.662 328.619 259.513 329.04 259.438 329.52ZM267.528 334V326.192H268.696V327.456C268.995 326.987 269.352 326.64 269.768 326.416C270.184 326.181 270.653 326.064 271.176 326.064C271.741 326.064 272.232 326.187 272.648 326.432C273.075 326.667 273.405 327.003 273.64 327.44C273.885 327.867 274.008 328.368 274.008 328.944V334H272.84V329.28C272.84 328.587 272.648 328.043 272.264 327.648C271.891 327.243 271.384 327.04 270.744 327.04C270.317 327.04 269.928 327.141 269.576 327.344C269.224 327.547 268.931 327.845 268.696 328.24V334H267.528ZM279.876 334.16C279.151 334.16 278.495 333.984 277.908 333.632C277.322 333.269 276.858 332.784 276.516 332.176C276.175 331.557 276.004 330.864 276.004 330.096C276.004 329.328 276.164 328.64 276.484 328.032C276.815 327.424 277.258 326.944 277.812 326.592C278.367 326.24 278.986 326.064 279.668 326.064C280.362 326.064 280.975 326.24 281.508 326.592C282.052 326.933 282.479 327.403 282.788 328C283.108 328.587 283.268 329.253 283.268 330V330.352H277.14C277.183 330.885 277.327 331.365 277.572 331.792C277.828 332.208 278.159 332.539 278.564 332.784C278.98 333.019 279.434 333.136 279.924 333.136C280.33 333.136 280.719 333.067 281.092 332.928C281.476 332.779 281.802 332.581 282.068 332.336L282.804 333.12C282.356 333.472 281.892 333.733 281.412 333.904C280.932 334.075 280.42 334.16 279.876 334.16ZM277.172 329.52H282.116C282.063 329.051 281.919 328.635 281.684 328.272C281.46 327.899 281.172 327.605 280.82 327.392C280.479 327.179 280.095 327.072 279.668 327.072C279.242 327.072 278.852 327.179 278.5 327.392C278.148 327.595 277.855 327.883 277.62 328.256C277.396 328.619 277.247 329.04 277.172 329.52ZM285.263 334V326.192H286.431V327.792C286.633 327.248 286.921 326.827 287.295 326.528C287.679 326.219 288.116 326.064 288.607 326.064C288.745 326.064 288.873 326.075 288.991 326.096C289.108 326.107 289.225 326.133 289.343 326.176V327.232C289.215 327.189 289.076 327.157 288.927 327.136C288.788 327.104 288.655 327.088 288.527 327.088C288.047 327.088 287.625 327.227 287.263 327.504C286.911 327.781 286.633 328.171 286.431 328.672V334H285.263ZM292.975 334.144C292.421 334.144 291.93 334.043 291.503 333.84C291.077 333.637 290.741 333.36 290.495 333.008C290.261 332.645 290.143 332.229 290.143 331.76C290.143 331.291 290.266 330.885 290.511 330.544C290.757 330.192 291.098 329.92 291.535 329.728C291.973 329.536 292.485 329.44 293.071 329.44C293.519 329.44 293.941 329.488 294.335 329.584C294.741 329.68 295.114 329.835 295.455 330.048V328.976C295.455 328.336 295.285 327.856 294.943 327.536C294.602 327.205 294.101 327.04 293.439 327.04C293.077 327.04 292.703 327.093 292.319 327.2C291.946 327.307 291.53 327.477 291.071 327.712L290.639 326.816C291.685 326.315 292.666 326.064 293.583 326.064C294.554 326.064 295.301 326.304 295.823 326.784C296.346 327.253 296.607 327.931 296.607 328.816V334H295.455V333.088C295.114 333.44 294.735 333.707 294.319 333.888C293.903 334.059 293.455 334.144 292.975 334.144ZM291.263 331.728C291.263 332.187 291.439 332.555 291.791 332.832C292.154 333.109 292.629 333.248 293.215 333.248C293.653 333.248 294.053 333.173 294.415 333.024C294.789 332.875 295.135 332.651 295.455 332.352V330.848C295.125 330.656 294.783 330.517 294.431 330.432C294.079 330.336 293.685 330.288 293.247 330.288C292.65 330.288 292.17 330.421 291.807 330.688C291.445 330.944 291.263 331.291 291.263 331.728ZM298.981 334V322.448L300.149 322.208V334H298.981ZM309.254 334.16C308.582 334.16 308.07 334 307.718 333.68C307.377 333.349 307.206 332.875 307.206 332.256V327.152H305.59V326.192H307.206V324.048L308.374 323.776V326.192H310.614V327.152H308.374V331.952C308.374 332.368 308.459 332.667 308.63 332.848C308.811 333.029 309.105 333.12 309.51 333.12C309.713 333.12 309.894 333.104 310.054 333.072C310.214 333.04 310.401 332.987 310.614 332.912V333.952C310.401 334.027 310.177 334.08 309.942 334.112C309.707 334.144 309.478 334.16 309.254 334.16ZM315.689 334.16C314.963 334.16 314.307 333.984 313.721 333.632C313.134 333.269 312.67 332.784 312.329 332.176C311.987 331.557 311.817 330.864 311.817 330.096C311.817 329.328 311.977 328.64 312.297 328.032C312.627 327.424 313.07 326.944 313.625 326.592C314.179 326.24 314.798 326.064 315.481 326.064C316.174 326.064 316.787 326.24 317.321 326.592C317.865 326.933 318.291 327.403 318.601 328C318.921 328.587 319.081 329.253 319.081 330V330.352H312.953C312.995 330.885 313.139 331.365 313.385 331.792C313.641 332.208 313.971 332.539 314.377 332.784C314.793 333.019 315.246 333.136 315.737 333.136C316.142 333.136 316.531 333.067 316.905 332.928C317.289 332.779 317.614 332.581 317.881 332.336L318.617 333.12C318.169 333.472 317.705 333.733 317.225 333.904C316.745 334.075 316.233 334.16 315.689 334.16ZM312.985 329.52H317.929C317.875 329.051 317.731 328.635 317.497 328.272C317.273 327.899 316.985 327.605 316.633 327.392C316.291 327.179 315.907 327.072 315.481 327.072C315.054 327.072 314.665 327.179 314.313 327.392C313.961 327.595 313.667 327.883 313.433 328.256C313.209 328.619 313.059 329.04 312.985 329.52ZM321.075 334V326.192H322.243V327.792C322.446 327.248 322.734 326.827 323.107 326.528C323.491 326.219 323.928 326.064 324.419 326.064C324.558 326.064 324.686 326.075 324.803 326.096C324.92 326.107 325.038 326.133 325.155 326.176V327.232C325.027 327.189 324.888 327.157 324.739 327.136C324.6 327.104 324.467 327.088 324.339 327.088C323.859 327.088 323.438 327.227 323.075 327.504C322.723 327.781 322.446 328.171 322.243 328.672V334H321.075ZM326.7 334V326.192H327.868V327.408C328.167 326.96 328.508 326.624 328.892 326.4C329.276 326.176 329.708 326.064 330.188 326.064C330.743 326.064 331.228 326.203 331.644 326.48C332.06 326.747 332.375 327.115 332.588 327.584C332.897 327.083 333.265 326.704 333.692 326.448C334.129 326.192 334.631 326.064 335.196 326.064C335.719 326.064 336.177 326.187 336.572 326.432C336.977 326.677 337.292 327.019 337.516 327.456C337.74 327.883 337.852 328.384 337.852 328.96V334H336.684V329.248C336.684 328.565 336.513 328.027 336.172 327.632C335.831 327.237 335.361 327.04 334.764 327.04C334.359 327.04 333.991 327.141 333.66 327.344C333.34 327.547 333.057 327.856 332.812 328.272C332.833 328.379 332.849 328.491 332.86 328.608C332.871 328.725 332.876 328.843 332.876 328.96V334H331.708V329.248C331.708 328.565 331.532 328.027 331.18 327.632C330.839 327.237 330.369 327.04 329.772 327.04C328.972 327.04 328.337 327.424 327.868 328.192V334H326.7ZM341.016 334.128C340.781 334.128 340.578 334.043 340.408 333.872C340.248 333.701 340.168 333.499 340.168 333.264C340.168 333.019 340.248 332.816 340.408 332.656C340.578 332.485 340.781 332.4 341.016 332.4C341.25 332.4 341.448 332.485 341.608 332.656C341.778 332.816 341.864 333.019 341.864 333.264C341.864 333.499 341.778 333.701 341.608 333.872C341.448 334.043 341.25 334.128 341.016 334.128Z" fill="#4D4D4D"/>
</g>
</g>
<defs>
<clipPath id="clip0_759_63389">
<rect width="403" height="399" fill="white"/>
</clipPath>
<clipPath id="clip1_759_63389">
<rect width="375" height="960" fill="white" transform="translate(14)"/>
</clipPath>
</defs>
</svg>
