<svg width="602" height="369" viewBox="0 0 602 369" fill="none" xmlns="http://www.w3.org/2000/svg">
<rect width="602" height="369" fill="white"/>
<rect x="59" y="115" width="484" height="254" fill="#F2F2F2"/>
<mask id="path-2-outside-1_3372_31930" maskUnits="userSpaceOnUse" x="59" y="46" width="484" height="88" fill="black">
<rect fill="white" x="59" y="46" width="484" height="88"/>
<path d="M59 62C59 53.1634 66.1634 46 75 46H527C535.837 46 543 53.1634 543 62V133H59V62Z"/>
</mask>
<path d="M59 46H543H59ZM543 134H59V132H543V134ZM59 133V46V133ZM543 46V133V46Z" fill="#E0E0E0" mask="url(#path-2-outside-1_3372_31930)"/>
<path d="M59 62C59 53.1634 66.1634 46 75 46H527C535.837 46 543 53.1634 543 62V133H59V62Z" fill="#F2F2F2"/>
<path d="M96 80.4996C96.8296 80.4996 97.4998 81.1701 97.5 81.9996C97.5 82.8293 96.8297 83.4996 96 83.4996H91.5C90.6704 83.4996 90.0002 84.1701 90 84.9996V96.9996C90 97.8293 90.6703 98.4996 91.5 98.4996H103.5C104.33 98.4996 105 97.8293 105 96.9996V92.4996C105 91.6701 105.67 90.9996 106.5 90.9996C107.33 90.9996 108 91.6701 108 92.4996V96.9996C108 99.484 105.984 101.5 103.5 101.5H91.5C89.0156 101.5 87 99.484 87 96.9996V84.9996C87.0002 82.5154 89.0158 80.4996 91.5 80.4996H96ZM107.518 85.5768L99.6748 93.4235C99.3842 93.7094 99.0328 93.9297 98.6484 94.0563L94.4863 95.444C94.0785 95.5799 93.633 95.4762 93.333 95.1715C93.0332 94.8669 92.9249 94.4221 93.0605 94.0192L94.4482 89.8561C94.5748 89.4671 94.7952 89.1156 95.0811 88.8297L102.924 80.983L107.518 85.5768ZM105.394 78.5172C106.42 77.4906 108.08 77.4906 109.106 78.5172L109.982 79.3893C111.009 80.4158 111.009 82.0746 109.982 83.1012L108.572 84.5123L103.982 79.9235L105.394 78.5172Z" fill="#707070"/>
<path d="M173.25 95.5C173.664 95.5 174 95.8358 174 96.25V98.125C174 98.5392 173.664 98.875 173.25 98.875H153.75C153.336 98.875 153 98.5392 153 98.125V96.25C153 95.8358 153.336 95.5 153.75 95.5H173.25ZM173.25 88C173.664 88 174 88.3358 174 88.75V90.625C174 91.0392 173.664 91.375 173.25 91.375H153.75C153.336 91.375 153 91.0392 153 90.625V88.75C153 88.3358 153.336 88 153.75 88H173.25ZM173.25 80.5C173.664 80.5 174 80.8358 174 81.25V83.125C174 83.5392 173.664 83.875 173.25 83.875H153.75C153.336 83.875 153 83.5392 153 83.125V81.25C153 80.8358 153.336 80.5 153.75 80.5H173.25Z" fill="#707070"/>
<path fill-rule="evenodd" clip-rule="evenodd" d="M217.478 71H240V93.5217H237.587C226.481 93.5217 217.478 84.5188 217.478 73.413V71Z" fill="#0066CC"/>
<path fill-rule="evenodd" clip-rule="evenodd" d="M240 71.8043L218.283 108H235.317C237.903 108 240 105.903 240 103.316V71.8043Z" fill="url(#paint0_linear_3372_31930)"/>
<path fill-rule="evenodd" clip-rule="evenodd" d="M239.196 71L203 92.7174V75.6836C203 73.0969 205.097 71 207.684 71H239.196Z" fill="url(#paint1_linear_3372_31930)"/>
<mask id="path-14-inside-2_3372_31930" fill="white">
<path d="M318 89.5C318 79.2827 326.283 71 336.5 71H444.5C454.717 71 463 79.2827 463 89.5C463 99.7173 454.717 108 444.5 108H336.5C326.283 108 318 99.7173 318 89.5Z"/>
</mask>
<path d="M336.5 71V72H444.5V71V70H336.5V71ZM444.5 108V107H336.5V108V109H444.5V108ZM336.5 108V107C326.835 107 319 99.165 319 89.5H318H317C317 100.27 325.73 109 336.5 109V108ZM463 89.5H462C462 99.165 454.165 107 444.5 107V108V109C455.27 109 464 100.27 464 89.5H463ZM444.5 71V72C454.165 72 462 79.835 462 89.5H463H464C464 78.7304 455.27 70 444.5 70V71ZM336.5 71V70C325.73 70 317 78.7304 317 89.5H318H319C319 79.835 326.835 72 336.5 72V71Z" fill="#0066CC" mask="url(#path-14-inside-2_3372_31930)"/>
<path d="M347.74 94.154C347.04 94.154 346.391 94.0233 345.794 93.762C345.197 93.5007 344.669 93.1413 344.212 92.684C343.764 92.2173 343.414 91.6807 343.162 91.074C342.91 90.458 342.784 89.8 342.784 89.1C342.784 88.4 342.91 87.7467 343.162 87.14C343.414 86.524 343.764 85.9873 344.212 85.53C344.669 85.0633 345.197 84.6993 345.794 84.438C346.391 84.1767 347.04 84.046 347.74 84.046C348.487 84.046 349.191 84.1813 349.854 84.452C350.526 84.7227 351.095 85.124 351.562 85.656L350.834 86.384C350.47 85.9453 350.013 85.6093 349.462 85.376C348.911 85.1427 348.337 85.026 347.74 85.026C347.189 85.026 346.681 85.1333 346.214 85.348C345.747 85.5533 345.337 85.8427 344.982 86.216C344.637 86.58 344.366 87.0093 344.17 87.504C343.974 87.9987 343.876 88.5307 343.876 89.1C343.876 89.6693 343.974 90.2013 344.17 90.696C344.366 91.1907 344.637 91.6247 344.982 91.998C345.337 92.362 345.747 92.6513 346.214 92.866C346.681 93.0713 347.189 93.174 347.74 93.174C348.393 93.174 348.977 93.0293 349.49 92.74C350.013 92.4507 350.433 92.054 350.75 91.55C351.077 91.0367 351.268 90.4627 351.324 89.828H348.02V88.876H352.416V89.31C352.416 89.9913 352.299 90.626 352.066 91.214C351.833 91.7927 351.501 92.306 351.072 92.754C350.652 93.1927 350.157 93.538 349.588 93.79C349.019 94.0327 348.403 94.154 347.74 94.154ZM354.234 94V87.168H355.256V88.568C355.433 88.092 355.685 87.7233 356.012 87.462C356.348 87.1913 356.73 87.056 357.16 87.056C357.281 87.056 357.393 87.0653 357.496 87.084C357.598 87.0933 357.701 87.1167 357.804 87.154V88.078C357.692 88.0407 357.57 88.0127 357.44 87.994C357.318 87.966 357.202 87.952 357.09 87.952C356.67 87.952 356.301 88.0733 355.984 88.316C355.676 88.5587 355.433 88.8993 355.256 89.338V94H354.234ZM360.982 94.126C360.497 94.126 360.068 94.0373 359.694 93.86C359.321 93.6827 359.027 93.44 358.812 93.132C358.607 92.8147 358.504 92.4507 358.504 92.04C358.504 91.6293 358.612 91.2747 358.826 90.976C359.041 90.668 359.34 90.43 359.722 90.262C360.105 90.094 360.553 90.01 361.066 90.01C361.458 90.01 361.827 90.052 362.172 90.136C362.527 90.22 362.854 90.3553 363.152 90.542V89.604C363.152 89.044 363.003 88.624 362.704 88.344C362.406 88.0547 361.967 87.91 361.388 87.91C361.071 87.91 360.744 87.9567 360.408 88.05C360.082 88.1433 359.718 88.2927 359.316 88.498L358.938 87.714C359.853 87.2753 360.712 87.056 361.514 87.056C362.364 87.056 363.017 87.266 363.474 87.686C363.932 88.0967 364.16 88.6893 364.16 89.464V94H363.152V93.202C362.854 93.51 362.522 93.7433 362.158 93.902C361.794 94.0513 361.402 94.126 360.982 94.126ZM359.484 92.012C359.484 92.4133 359.638 92.7353 359.946 92.978C360.264 93.2207 360.679 93.342 361.192 93.342C361.575 93.342 361.925 93.2767 362.242 93.146C362.569 93.0153 362.872 92.8193 363.152 92.558V91.242C362.863 91.074 362.564 90.9527 362.256 90.878C361.948 90.794 361.603 90.752 361.22 90.752C360.698 90.752 360.278 90.8687 359.96 91.102C359.643 91.326 359.484 91.6293 359.484 92.012ZM366.238 94V87.168H367.26V88.274C367.521 87.8633 367.834 87.56 368.198 87.364C368.562 87.1587 368.972 87.056 369.43 87.056C369.924 87.056 370.354 87.1633 370.718 87.378C371.091 87.5833 371.38 87.8773 371.586 88.26C371.8 88.6333 371.908 89.072 371.908 89.576V94H370.886V89.87C370.886 89.2633 370.718 88.7873 370.382 88.442C370.055 88.0873 369.612 87.91 369.052 87.91C368.678 87.91 368.338 87.9987 368.03 88.176C367.722 88.3533 367.465 88.6147 367.26 88.96V94H366.238ZM373.948 94V87.168H374.97V94H373.948ZM374.466 85.474C374.261 85.474 374.083 85.404 373.934 85.264C373.794 85.1147 373.724 84.942 373.724 84.746C373.724 84.55 373.794 84.382 373.934 84.242C374.083 84.0927 374.261 84.018 374.466 84.018C374.671 84.018 374.844 84.0927 374.984 84.242C375.133 84.382 375.208 84.55 375.208 84.746C375.208 84.942 375.133 85.1147 374.984 85.264C374.844 85.404 374.671 85.474 374.466 85.474ZM379.67 94.14C379.082 94.14 378.634 94 378.326 93.72C378.027 93.4307 377.878 93.0153 377.878 92.474V88.008H376.464V87.168H377.878V85.292L378.9 85.054V87.168H380.86V88.008H378.9V92.208C378.9 92.572 378.974 92.8333 379.124 92.992C379.282 93.1507 379.539 93.23 379.894 93.23C380.071 93.23 380.23 93.216 380.37 93.188C380.51 93.16 380.673 93.1133 380.86 93.048V93.958C380.673 94.0233 380.477 94.07 380.272 94.098C380.066 94.126 379.866 94.14 379.67 94.14ZM385.3 94.14C384.665 94.14 384.091 93.986 383.578 93.678C383.065 93.3607 382.659 92.936 382.36 92.404C382.061 91.8627 381.912 91.256 381.912 90.584C381.912 89.912 382.052 89.31 382.332 88.778C382.621 88.246 383.009 87.826 383.494 87.518C383.979 87.21 384.521 87.056 385.118 87.056C385.725 87.056 386.261 87.21 386.728 87.518C387.204 87.8167 387.577 88.2273 387.848 88.75C388.128 89.2633 388.268 89.8467 388.268 90.5V90.808H382.906C382.943 91.2747 383.069 91.6947 383.284 92.068C383.508 92.432 383.797 92.7213 384.152 92.936C384.516 93.1413 384.913 93.244 385.342 93.244C385.697 93.244 386.037 93.1833 386.364 93.062C386.7 92.9313 386.985 92.7587 387.218 92.544L387.862 93.23C387.47 93.538 387.064 93.7667 386.644 93.916C386.224 94.0653 385.776 94.14 385.3 94.14ZM382.934 90.08H387.26C387.213 89.6693 387.087 89.3053 386.882 88.988C386.686 88.6613 386.434 88.4047 386.126 88.218C385.827 88.0313 385.491 87.938 385.118 87.938C384.745 87.938 384.404 88.0313 384.096 88.218C383.788 88.3953 383.531 88.6473 383.326 88.974C383.13 89.2913 382.999 89.66 382.934 90.08ZM393.672 94L398.544 85.082H392.664V84.2H399.636V84.984L394.82 94H393.672ZM401.283 94V84.2H405.245C405.842 84.2 406.36 84.3027 406.799 84.508C407.247 84.7133 407.592 85.0027 407.835 85.376C408.078 85.7493 408.199 86.188 408.199 86.692C408.199 87.2333 408.04 87.7 407.723 88.092C407.415 88.4747 406.995 88.7453 406.463 88.904C407.116 89.0533 407.63 89.338 408.003 89.758C408.386 90.1687 408.577 90.6773 408.577 91.284C408.577 91.8253 408.446 92.3013 408.185 92.712C407.924 93.1227 407.555 93.44 407.079 93.664C406.603 93.888 406.043 94 405.399 94H401.283ZM402.361 88.484H405.161C405.758 88.484 406.234 88.3347 406.589 88.036C406.944 87.728 407.121 87.3173 407.121 86.804C407.121 86.2907 406.944 85.8847 406.589 85.586C406.234 85.278 405.758 85.124 405.161 85.124H402.361V88.484ZM402.361 93.076H405.287C405.95 93.076 406.482 92.908 406.883 92.572C407.284 92.2267 407.485 91.774 407.485 91.214C407.485 90.654 407.284 90.206 406.883 89.87C406.491 89.534 405.959 89.366 405.287 89.366H402.361V93.076Z" fill="#0066CC"/>
<path d="M432.534 87.6666C433.022 87.6667 433.267 88.2613 432.921 88.61L429.388 92.1715C429.174 92.3871 428.825 92.3873 428.611 92.1715L425.079 88.61C424.733 88.2613 424.977 87.6666 425.466 87.6666H432.534Z" fill="#0066CC"/>
<path d="M503 113.5C489.745 113.5 479 102.755 479 89.5C479 76.2452 489.745 65.5 503 65.5C516.255 65.5 527 76.2452 527 89.5C527 102.755 516.255 113.5 503 113.5Z" fill="#C7C7C7" fill-opacity="0.25" style="mix-blend-mode:multiply"/>
<path d="M508.032 89C508.032 87.0653 509.591 85.5 511.517 85.5C513.442 85.5003 515 87.0654 515 89C515 90.9346 513.442 92.4997 511.517 92.5C509.591 92.5 508.032 90.9347 508.032 89ZM499.517 89C499.517 87.0653 501.074 85.5 503 85.5C504.926 85.5 506.483 87.0653 506.483 89C506.483 90.9347 504.926 92.5 503 92.5C501.074 92.5 499.517 90.9347 499.517 89ZM491 89C491 87.0654 492.558 85.5003 494.483 85.5C496.409 85.5 497.968 87.0653 497.968 89C497.968 90.9347 496.409 92.5 494.483 92.5C492.558 92.4997 491 90.9346 491 89Z" fill="#707070"/>
<g filter="url(#filter0_d_3372_31930)">
<path d="M353 119C353 115.686 355.686 113 359 113H521C524.314 113 527 115.686 527 119V334C527 337.314 524.314 340 521 340H359C355.686 340 353 337.314 353 334V119Z" fill="white"/>
<path d="M386.25 139.25C386.734 139.25 387.125 139.641 387.125 140.125C387.125 140.609 386.734 141 386.25 141H383.625C383.141 141 382.75 141.391 382.75 141.875V148.875C382.75 149.359 383.141 149.75 383.625 149.75H390.625C391.109 149.75 391.5 149.359 391.5 148.875V146.25C391.5 145.766 391.891 145.375 392.375 145.375C392.859 145.375 393.25 145.766 393.25 146.25V148.875C393.25 150.324 392.074 151.5 390.625 151.5H383.625C382.176 151.5 381 150.324 381 148.875V141.875C381 140.426 382.176 139.25 383.625 139.25H386.25ZM392.969 142.211L388.394 146.788C388.224 146.955 388.019 147.084 387.795 147.157L385.367 147.967C385.129 148.046 384.869 147.986 384.694 147.809C384.519 147.631 384.456 147.371 384.535 147.136L385.345 144.708C385.419 144.481 385.547 144.275 385.714 144.109L390.289 139.531L392.969 142.211ZM391.729 138.093C392.328 137.494 393.297 137.494 393.896 138.093L394.406 138.602C395.005 139.201 395.005 140.169 394.406 140.768L393.584 141.591L390.906 138.913L391.729 138.093Z" fill="#1F1F1F"/>
<path d="M407.246 148.5V138.7H408.366L414.106 146.82L414.078 138.7H415.1V148.5H414.12L408.24 140.198L408.268 148.5H407.246ZM420.48 148.64C419.845 148.64 419.271 148.486 418.758 148.178C418.244 147.861 417.838 147.436 417.54 146.904C417.241 146.363 417.092 145.756 417.092 145.084C417.092 144.412 417.232 143.81 417.512 143.278C417.801 142.746 418.188 142.326 418.674 142.018C419.159 141.71 419.7 141.556 420.298 141.556C420.904 141.556 421.441 141.71 421.908 142.018C422.384 142.317 422.757 142.727 423.028 143.25C423.308 143.763 423.448 144.347 423.448 145V145.308H418.086C418.123 145.775 418.249 146.195 418.464 146.568C418.688 146.932 418.977 147.221 419.332 147.436C419.696 147.641 420.092 147.744 420.522 147.744C420.876 147.744 421.217 147.683 421.544 147.562C421.88 147.431 422.164 147.259 422.398 147.044L423.042 147.73C422.65 148.038 422.244 148.267 421.824 148.416C421.404 148.565 420.956 148.64 420.48 148.64ZM418.114 144.58H422.44C422.393 144.169 422.267 143.805 422.062 143.488C421.866 143.161 421.614 142.905 421.306 142.718C421.007 142.531 420.671 142.438 420.298 142.438C419.924 142.438 419.584 142.531 419.276 142.718C418.968 142.895 418.711 143.147 418.506 143.474C418.31 143.791 418.179 144.16 418.114 144.58ZM426.274 148.5L424.398 141.668H425.392L426.82 147.128L428.458 141.668H429.368L431.006 147.128L432.42 141.668H433.386L431.524 148.5H430.53L428.906 142.984L427.282 148.5H426.274ZM441.165 148.612C440.53 148.612 439.956 148.458 439.443 148.15C438.939 147.833 438.537 147.408 438.239 146.876C437.94 146.335 437.791 145.737 437.791 145.084C437.791 144.421 437.94 143.824 438.239 143.292C438.537 142.76 438.939 142.34 439.443 142.032C439.956 141.715 440.53 141.556 441.165 141.556C441.669 141.556 442.149 141.649 442.607 141.836C443.064 142.023 443.461 142.284 443.797 142.62L443.139 143.334C442.896 143.063 442.602 142.853 442.257 142.704C441.911 142.555 441.561 142.48 441.207 142.48C440.759 142.48 440.353 142.597 439.989 142.83C439.634 143.063 439.349 143.376 439.135 143.768C438.92 144.16 438.813 144.599 438.813 145.084C438.813 145.569 438.92 146.008 439.135 146.4C439.349 146.792 439.634 147.105 439.989 147.338C440.353 147.571 440.759 147.688 441.207 147.688C441.561 147.688 441.911 147.613 442.257 147.464C442.602 147.305 442.896 147.095 443.139 146.834L443.797 147.548C443.461 147.884 443.064 148.145 442.607 148.332C442.149 148.519 441.669 148.612 441.165 148.612ZM445.222 148.5V138.392L446.244 138.182V142.774C446.505 142.363 446.818 142.06 447.182 141.864C447.546 141.659 447.957 141.556 448.414 141.556C448.909 141.556 449.338 141.663 449.702 141.878C450.075 142.083 450.365 142.377 450.57 142.76C450.785 143.133 450.892 143.572 450.892 144.076V148.5H449.87V144.37C449.87 143.763 449.702 143.287 449.366 142.942C449.039 142.587 448.596 142.41 448.036 142.41C447.663 142.41 447.322 142.499 447.014 142.676C446.706 142.853 446.449 143.115 446.244 143.46V148.5H445.222ZM455.06 148.626C454.575 148.626 454.146 148.537 453.772 148.36C453.399 148.183 453.105 147.94 452.89 147.632C452.685 147.315 452.582 146.951 452.582 146.54C452.582 146.129 452.69 145.775 452.904 145.476C453.119 145.168 453.418 144.93 453.8 144.762C454.183 144.594 454.631 144.51 455.144 144.51C455.536 144.51 455.905 144.552 456.25 144.636C456.605 144.72 456.932 144.855 457.23 145.042V144.104C457.23 143.544 457.081 143.124 456.782 142.844C456.484 142.555 456.045 142.41 455.466 142.41C455.149 142.41 454.822 142.457 454.486 142.55C454.16 142.643 453.796 142.793 453.394 142.998L453.016 142.214C453.931 141.775 454.79 141.556 455.592 141.556C456.442 141.556 457.095 141.766 457.552 142.186C458.01 142.597 458.238 143.189 458.238 143.964V148.5H457.23V147.702C456.932 148.01 456.6 148.243 456.236 148.402C455.872 148.551 455.48 148.626 455.06 148.626ZM453.562 146.512C453.562 146.913 453.716 147.235 454.024 147.478C454.342 147.721 454.757 147.842 455.27 147.842C455.653 147.842 456.003 147.777 456.32 147.646C456.647 147.515 456.95 147.319 457.23 147.058V145.742C456.941 145.574 456.642 145.453 456.334 145.378C456.026 145.294 455.681 145.252 455.298 145.252C454.776 145.252 454.356 145.369 454.038 145.602C453.721 145.826 453.562 146.129 453.562 146.512ZM462.715 148.64C462.127 148.64 461.679 148.5 461.371 148.22C461.072 147.931 460.923 147.515 460.923 146.974V142.508H459.509V141.668H460.923V139.792L461.945 139.554V141.668H463.905V142.508H461.945V146.708C461.945 147.072 462.019 147.333 462.169 147.492C462.327 147.651 462.584 147.73 462.939 147.73C463.116 147.73 463.275 147.716 463.415 147.688C463.555 147.66 463.718 147.613 463.905 147.548V148.458C463.718 148.523 463.522 148.57 463.317 148.598C463.111 148.626 462.911 148.64 462.715 148.64Z" fill="#151515"/>
<rect width="174" height="1" transform="translate(353 175)" fill="#C7C7C7"/>
<path d="M386.747 196.169C387.733 195.949 388.796 195.938 389.833 196.169C389.988 196.203 390.099 196.342 390.099 196.5V197.885C390.729 198.105 391.311 198.442 391.816 198.876L393.021 198.182C393.156 198.103 393.331 198.131 393.438 198.247C394.136 199.003 394.67 199.913 394.983 200.917C395.028 201.07 394.966 201.233 394.828 201.312L393.625 202.006C393.746 202.661 393.746 203.333 393.625 203.988L394.828 204.682C394.967 204.761 395.029 204.925 394.986 205.081C394.673 206.088 394.139 206.997 393.441 207.75C393.334 207.869 393.161 207.895 393.022 207.816L391.819 207.121C391.311 207.552 390.729 207.889 390.102 208.112V209.5C390.102 209.658 389.991 209.797 389.836 209.831C388.85 210.051 387.787 210.062 386.75 209.831C386.595 209.797 386.484 209.659 386.484 209.5V208.112C385.854 207.892 385.272 207.555 384.767 207.121L383.562 207.816C383.427 207.895 383.252 207.866 383.145 207.75C382.447 206.994 381.912 206.085 381.599 205.081C381.553 204.928 381.616 204.764 381.754 204.685L382.958 203.991C382.837 203.336 382.837 202.664 382.958 202.009L381.754 201.315C381.616 201.236 381.551 201.073 381.599 200.92C381.912 199.913 382.447 199.003 383.145 198.25C383.252 198.131 383.424 198.106 383.562 198.185L384.764 198.879C385.272 198.448 385.854 198.111 386.481 197.888V196.5C386.482 196.342 386.592 196.203 386.747 196.169ZM388.29 200.74C387.044 200.74 386.029 201.753 386.029 202.998C386.029 204.242 387.044 205.255 388.29 205.255C389.536 205.255 390.551 204.242 390.551 202.998C390.551 201.753 389.536 200.74 388.29 200.74Z" fill="#1F1F1F"/>
<path d="M410.41 207.154C409.645 207.154 408.935 207.019 408.282 206.748C407.629 206.468 406.999 206.048 406.392 205.488L407.05 204.704C407.638 205.255 408.189 205.647 408.702 205.88C409.225 206.113 409.803 206.23 410.438 206.23C410.942 206.23 411.39 206.146 411.782 205.978C412.183 205.801 412.496 205.563 412.72 205.264C412.944 204.965 413.056 204.625 413.056 204.242C413.056 203.747 412.893 203.374 412.566 203.122C412.239 202.861 411.675 202.66 410.872 202.52L409.29 202.254C408.394 202.095 407.736 201.825 407.316 201.442C406.905 201.05 406.7 200.527 406.7 199.874C406.7 199.323 406.84 198.838 407.12 198.418C407.409 197.989 407.806 197.653 408.31 197.41C408.814 197.167 409.397 197.046 410.06 197.046C410.788 197.046 411.465 197.149 412.09 197.354C412.715 197.55 413.331 197.863 413.938 198.292L413.378 199.132C412.874 198.749 412.342 198.46 411.782 198.264C411.222 198.059 410.653 197.956 410.074 197.956C409.617 197.956 409.211 198.035 408.856 198.194C408.511 198.353 408.235 198.567 408.03 198.838C407.834 199.109 407.736 199.417 407.736 199.762C407.736 200.191 407.881 200.527 408.17 200.77C408.459 201.013 408.931 201.185 409.584 201.288L411.152 201.554C412.197 201.741 412.953 202.044 413.42 202.464C413.896 202.875 414.134 203.449 414.134 204.186C414.134 204.755 413.971 205.264 413.644 205.712C413.327 206.16 412.888 206.515 412.328 206.776C411.768 207.028 411.129 207.154 410.41 207.154ZM418.989 207.14C418.355 207.14 417.781 206.986 417.267 206.678C416.754 206.361 416.348 205.936 416.049 205.404C415.751 204.863 415.601 204.256 415.601 203.584C415.601 202.912 415.741 202.31 416.021 201.778C416.311 201.246 416.698 200.826 417.183 200.518C417.669 200.21 418.21 200.056 418.807 200.056C419.414 200.056 419.951 200.21 420.417 200.518C420.893 200.817 421.267 201.227 421.537 201.75C421.817 202.263 421.957 202.847 421.957 203.5V203.808H416.595C416.633 204.275 416.759 204.695 416.973 205.068C417.197 205.432 417.487 205.721 417.841 205.936C418.205 206.141 418.602 206.244 419.031 206.244C419.386 206.244 419.727 206.183 420.053 206.062C420.389 205.931 420.674 205.759 420.907 205.544L421.551 206.23C421.159 206.538 420.753 206.767 420.333 206.916C419.913 207.065 419.465 207.14 418.989 207.14ZM416.623 203.08H420.949C420.903 202.669 420.777 202.305 420.571 201.988C420.375 201.661 420.123 201.405 419.815 201.218C419.517 201.031 419.181 200.938 418.807 200.938C418.434 200.938 418.093 201.031 417.785 201.218C417.477 201.395 417.221 201.647 417.015 201.974C416.819 202.291 416.689 202.66 416.623 203.08ZM426.101 207.14C425.513 207.14 425.065 207 424.757 206.72C424.459 206.431 424.309 206.015 424.309 205.474V201.008H422.895V200.168H424.309V198.292L425.331 198.054V200.168H427.291V201.008H425.331V205.208C425.331 205.572 425.406 205.833 425.555 205.992C425.714 206.151 425.971 206.23 426.325 206.23C426.503 206.23 426.661 206.216 426.801 206.188C426.941 206.16 427.105 206.113 427.291 206.048V206.958C427.105 207.023 426.909 207.07 426.703 207.098C426.498 207.126 426.297 207.14 426.101 207.14ZM431.529 207.14C430.941 207.14 430.493 207 430.185 206.72C429.886 206.431 429.737 206.015 429.737 205.474V201.008H428.323V200.168H429.737V198.292L430.759 198.054V200.168H432.719V201.008H430.759V205.208C430.759 205.572 430.834 205.833 430.983 205.992C431.142 206.151 431.398 206.23 431.753 206.23C431.93 206.23 432.089 206.216 432.229 206.188C432.369 206.16 432.532 206.113 432.719 206.048V206.958C432.532 207.023 432.336 207.07 432.131 207.098C431.926 207.126 431.725 207.14 431.529 207.14ZM434.202 207V200.168H435.224V207H434.202ZM434.72 198.474C434.515 198.474 434.337 198.404 434.188 198.264C434.048 198.115 433.978 197.942 433.978 197.746C433.978 197.55 434.048 197.382 434.188 197.242C434.337 197.093 434.515 197.018 434.72 197.018C434.925 197.018 435.098 197.093 435.238 197.242C435.387 197.382 435.462 197.55 435.462 197.746C435.462 197.942 435.387 198.115 435.238 198.264C435.098 198.404 434.925 198.474 434.72 198.474ZM437.32 207V200.168H438.342V201.274C438.603 200.863 438.916 200.56 439.28 200.364C439.644 200.159 440.054 200.056 440.512 200.056C441.006 200.056 441.436 200.163 441.8 200.378C442.173 200.583 442.462 200.877 442.668 201.26C442.882 201.633 442.99 202.072 442.99 202.576V207H441.968V202.87C441.968 202.263 441.8 201.787 441.464 201.442C441.137 201.087 440.694 200.91 440.134 200.91C439.76 200.91 439.42 200.999 439.112 201.176C438.804 201.353 438.547 201.615 438.342 201.96V207H437.32ZM448.208 210.066C447.751 210.066 447.289 210.001 446.822 209.87C446.365 209.749 445.94 209.576 445.548 209.352L445.982 208.568C446.402 208.783 446.785 208.941 447.13 209.044C447.475 209.147 447.821 209.198 448.166 209.198C448.791 209.198 449.263 209.049 449.58 208.75C449.907 208.451 450.07 208.017 450.07 207.448V206.076C449.809 206.403 449.491 206.655 449.118 206.832C448.745 207 448.334 207.084 447.886 207.084C447.298 207.084 446.766 206.93 446.29 206.622C445.814 206.305 445.436 205.885 445.156 205.362C444.876 204.83 444.736 204.237 444.736 203.584C444.736 202.931 444.876 202.343 445.156 201.82C445.445 201.288 445.833 200.868 446.318 200.56C446.803 200.243 447.345 200.084 447.942 200.084C448.371 200.084 448.768 200.168 449.132 200.336C449.496 200.495 449.813 200.733 450.084 201.05V200.168H451.092V207.434C451.092 208.283 450.845 208.932 450.35 209.38C449.855 209.837 449.141 210.066 448.208 210.066ZM448.138 206.202C448.539 206.202 448.908 206.123 449.244 205.964C449.58 205.796 449.855 205.567 450.07 205.278V201.904C449.846 201.615 449.561 201.391 449.216 201.232C448.88 201.064 448.521 200.98 448.138 200.98C447.681 200.98 447.27 201.092 446.906 201.316C446.551 201.54 446.267 201.848 446.052 202.24C445.847 202.632 445.744 203.08 445.744 203.584C445.744 204.079 445.847 204.527 446.052 204.928C446.267 205.32 446.551 205.633 446.906 205.866C447.27 206.09 447.681 206.202 448.138 206.202ZM455.307 207.14C454.747 207.14 454.229 207.056 453.753 206.888C453.277 206.711 452.871 206.459 452.535 206.132L453.081 205.46C453.491 205.759 453.869 205.978 454.215 206.118C454.56 206.249 454.915 206.314 455.279 206.314C455.773 206.314 456.184 206.197 456.511 205.964C456.837 205.731 457.001 205.432 457.001 205.068C457.001 204.788 456.903 204.569 456.707 204.41C456.52 204.251 456.207 204.13 455.769 204.046L454.649 203.85C453.986 203.729 453.496 203.523 453.179 203.234C452.871 202.945 452.717 202.553 452.717 202.058C452.717 201.666 452.819 201.321 453.025 201.022C453.239 200.723 453.533 200.49 453.907 200.322C454.28 200.145 454.705 200.056 455.181 200.056C455.647 200.056 456.091 200.126 456.511 200.266C456.931 200.397 457.355 200.611 457.785 200.91L457.281 201.624C456.926 201.372 456.571 201.19 456.217 201.078C455.862 200.957 455.503 200.896 455.139 200.896C454.691 200.896 454.331 200.994 454.061 201.19C453.79 201.386 453.655 201.652 453.655 201.988C453.655 202.268 453.739 202.483 453.907 202.632C454.084 202.781 454.392 202.893 454.831 202.968L455.979 203.178C456.669 203.299 457.173 203.509 457.491 203.808C457.808 204.107 457.967 204.508 457.967 205.012C457.967 205.413 457.85 205.777 457.617 206.104C457.383 206.421 457.066 206.673 456.665 206.86C456.263 207.047 455.811 207.14 455.307 207.14Z" fill="#151515"/>
<path d="M387.999 239.343C388.362 239.343 388.654 239.636 388.654 239.999V240.68C388.654 242.478 388.324 244.261 387.679 245.939L387.518 246.357C387.389 246.696 387.009 246.863 386.67 246.734C386.331 246.606 386.162 246.227 386.293 245.888L386.454 245.469C387.042 243.941 387.343 242.317 387.343 240.68V239.999C387.343 239.635 387.635 239.343 387.999 239.343ZM387.999 237.374C389.448 237.374 390.623 238.55 390.623 239.999V240.68C390.623 241.768 390.516 242.848 390.306 243.908C390.251 244.181 390.01 244.373 389.731 244.373C389.346 244.373 389.062 244.009 389.136 243.629C389.324 242.659 389.42 241.672 389.42 240.68V239.999C389.42 239.215 388.783 238.577 387.999 238.577C387.214 238.577 386.577 239.214 386.577 239.999V240.68C386.577 241.787 386.43 242.886 386.143 243.952C386.074 244.203 385.844 244.373 385.585 244.373C385.18 244.373 384.893 243.971 384.997 243.58C385.249 242.634 385.374 241.661 385.374 240.68V239.999C385.374 238.55 386.55 237.374 387.999 237.374ZM384.193 237.055C384.428 236.754 384.871 236.776 385.12 237.065C385.344 237.328 385.322 237.716 385.125 238C384.731 238.566 384.499 239.255 384.499 239.999V240.68C384.499 241.472 384.409 242.257 384.234 243.025C384.171 243.307 383.914 243.498 383.627 243.498C383.19 243.498 382.881 243.071 382.974 242.645C383.116 242.002 383.187 241.341 383.188 240.68V239.999C383.188 238.889 383.562 237.867 384.193 237.055ZM388.001 235.188C390.658 235.188 392.812 237.342 392.812 239.999V240.682C392.812 241.439 392.766 242.194 392.676 242.943C392.637 243.263 392.362 243.498 392.039 243.498C391.635 243.498 391.332 243.137 391.378 242.738C391.457 242.055 391.498 241.369 391.498 240.68V239.999C391.498 238.066 389.932 236.499 387.999 236.499C387.682 236.499 387.376 236.54 387.086 236.619C386.796 236.698 386.476 236.63 386.282 236.403C385.998 236.07 386.093 235.559 386.509 235.422C386.976 235.269 387.48 235.188 387.999 235.188H388.001ZM394.07 238.047C394.423 237.97 394.773 238.197 394.847 238.553H394.85C394.948 239.02 395 239.504 395 239.999V241.095C395 241.458 394.707 241.751 394.344 241.751C393.98 241.751 393.688 241.458 393.688 241.095V240.001C393.687 239.597 393.644 239.203 393.564 238.823C393.488 238.471 393.718 238.124 394.07 238.047ZM387.999 233C390.123 233 392.026 233.946 393.308 235.441C393.543 235.715 393.51 236.13 393.236 236.365C392.963 236.6 392.548 236.57 392.312 236.294C391.268 235.08 389.724 234.313 387.999 234.312C384.858 234.312 382.312 236.858 382.312 239.999V241.092C382.312 241.455 382.02 241.748 381.656 241.748C381.293 241.748 381 241.455 381 241.092V239.999C381 236.133 384.133 233 387.999 233Z" fill="#1F1F1F"/>
<path d="M409.78 244V235.152H406.392V234.2H414.246V235.152H410.858V244H409.78ZM417.376 244.14C416.741 244.14 416.167 243.986 415.654 243.678C415.141 243.361 414.735 242.936 414.436 242.404C414.137 241.863 413.988 241.256 413.988 240.584C413.988 239.912 414.128 239.31 414.408 238.778C414.697 238.246 415.085 237.826 415.57 237.518C416.055 237.21 416.597 237.056 417.194 237.056C417.801 237.056 418.337 237.21 418.804 237.518C419.28 237.817 419.653 238.227 419.924 238.75C420.204 239.263 420.344 239.847 420.344 240.5V240.808H414.982C415.019 241.275 415.145 241.695 415.36 242.068C415.584 242.432 415.873 242.721 416.228 242.936C416.592 243.141 416.989 243.244 417.418 243.244C417.773 243.244 418.113 243.183 418.44 243.062C418.776 242.931 419.061 242.759 419.294 242.544L419.938 243.23C419.546 243.538 419.14 243.767 418.72 243.916C418.3 244.065 417.852 244.14 417.376 244.14ZM415.01 240.08H419.336C419.289 239.669 419.163 239.305 418.958 238.988C418.762 238.661 418.51 238.405 418.202 238.218C417.903 238.031 417.567 237.938 417.194 237.938C416.821 237.938 416.48 238.031 416.172 238.218C415.864 238.395 415.607 238.647 415.402 238.974C415.206 239.291 415.075 239.66 415.01 240.08ZM422.089 244V237.168H423.111V238.568C423.288 238.092 423.54 237.723 423.867 237.462C424.203 237.191 424.586 237.056 425.015 237.056C425.136 237.056 425.248 237.065 425.351 237.084C425.454 237.093 425.556 237.117 425.659 237.154V238.078C425.547 238.041 425.426 238.013 425.295 237.994C425.174 237.966 425.057 237.952 424.945 237.952C424.525 237.952 424.156 238.073 423.839 238.316C423.531 238.559 423.288 238.899 423.111 239.338V244H422.089ZM427.011 244V237.168H428.033V238.232C428.294 237.84 428.593 237.546 428.929 237.35C429.265 237.154 429.643 237.056 430.063 237.056C430.548 237.056 430.973 237.177 431.337 237.42C431.701 237.653 431.976 237.975 432.163 238.386C432.434 237.947 432.756 237.616 433.129 237.392C433.512 237.168 433.95 237.056 434.445 237.056C434.902 237.056 435.304 237.163 435.649 237.378C436.004 237.593 436.279 237.891 436.475 238.274C436.671 238.647 436.769 239.086 436.769 239.59V244H435.747V239.842C435.747 239.245 435.598 238.773 435.299 238.428C435 238.083 434.59 237.91 434.067 237.91C433.712 237.91 433.39 237.999 433.101 238.176C432.821 238.353 432.574 238.624 432.359 238.988C432.378 239.081 432.392 239.179 432.401 239.282C432.41 239.385 432.415 239.487 432.415 239.59V244H431.393V239.842C431.393 239.245 431.239 238.773 430.931 238.428C430.632 238.083 430.222 237.91 429.699 237.91C428.999 237.91 428.444 238.246 428.033 238.918V244H427.011ZM440.951 244.14C440.391 244.14 439.873 244.056 439.397 243.888C438.921 243.711 438.515 243.459 438.179 243.132L438.725 242.46C439.136 242.759 439.514 242.978 439.859 243.118C440.204 243.249 440.559 243.314 440.923 243.314C441.418 243.314 441.828 243.197 442.155 242.964C442.482 242.731 442.645 242.432 442.645 242.068C442.645 241.788 442.547 241.569 442.351 241.41C442.164 241.251 441.852 241.13 441.413 241.046L440.293 240.85C439.63 240.729 439.14 240.523 438.823 240.234C438.515 239.945 438.361 239.553 438.361 239.058C438.361 238.666 438.464 238.321 438.669 238.022C438.884 237.723 439.178 237.49 439.551 237.322C439.924 237.145 440.349 237.056 440.825 237.056C441.292 237.056 441.735 237.126 442.155 237.266C442.575 237.397 443 237.611 443.429 237.91L442.925 238.624C442.57 238.372 442.216 238.19 441.861 238.078C441.506 237.957 441.147 237.896 440.783 237.896C440.335 237.896 439.976 237.994 439.705 238.19C439.434 238.386 439.299 238.652 439.299 238.988C439.299 239.268 439.383 239.483 439.551 239.632C439.728 239.781 440.036 239.893 440.475 239.968L441.623 240.178C442.314 240.299 442.818 240.509 443.135 240.808C443.452 241.107 443.611 241.508 443.611 242.012C443.611 242.413 443.494 242.777 443.261 243.104C443.028 243.421 442.71 243.673 442.309 243.86C441.908 244.047 441.455 244.14 440.951 244.14ZM451.459 244.112C450.824 244.112 450.255 243.958 449.751 243.65C449.247 243.342 448.85 242.922 448.561 242.39C448.271 241.858 448.127 241.256 448.127 240.584C448.127 239.912 448.271 239.31 448.561 238.778C448.85 238.246 449.247 237.826 449.751 237.518C450.255 237.21 450.824 237.056 451.459 237.056C452.084 237.056 452.644 237.21 453.139 237.518C453.643 237.826 454.039 238.246 454.329 238.778C454.618 239.31 454.763 239.912 454.763 240.584C454.763 241.256 454.618 241.858 454.329 242.39C454.039 242.922 453.643 243.342 453.139 243.65C452.644 243.958 452.084 244.112 451.459 244.112ZM451.445 243.216C451.893 243.216 452.289 243.104 452.635 242.88C452.98 242.647 453.251 242.329 453.447 241.928C453.652 241.527 453.755 241.079 453.755 240.584C453.755 240.08 453.652 239.632 453.447 239.24C453.251 238.839 452.98 238.526 452.635 238.302C452.289 238.069 451.893 237.952 451.445 237.952C450.997 237.952 450.6 238.069 450.255 238.302C449.909 238.526 449.634 238.839 449.429 239.24C449.233 239.632 449.135 240.08 449.135 240.584C449.135 241.079 449.233 241.527 449.429 241.928C449.634 242.329 449.909 242.647 450.255 242.88C450.6 243.104 450.997 243.216 451.445 243.216ZM457 244V238.008H455.474V237.168H457V235.74C457 235.068 457.177 234.55 457.532 234.186C457.887 233.822 458.391 233.64 459.044 233.64C459.231 233.64 459.399 233.649 459.548 233.668C459.707 233.687 459.847 233.719 459.968 233.766V234.69C459.819 234.643 459.683 234.611 459.562 234.592C459.441 234.573 459.301 234.564 459.142 234.564C458.75 234.564 458.465 234.662 458.288 234.858C458.111 235.045 458.022 235.343 458.022 235.754V237.168H459.968V238.008H458.022V244H457ZM467.017 244.112C466.532 244.112 466.103 244.005 465.729 243.79C465.356 243.575 465.062 243.277 464.847 242.894C464.642 242.511 464.539 242.073 464.539 241.578V237.168H465.575V241.284C465.575 241.891 465.739 242.371 466.065 242.726C466.392 243.081 466.835 243.258 467.395 243.258C467.778 243.258 468.119 243.169 468.417 242.992C468.725 242.815 468.982 242.558 469.187 242.222V237.168H470.209V244H469.187V242.894C468.926 243.295 468.613 243.599 468.249 243.804C467.895 244.009 467.484 244.112 467.017 244.112ZM474.42 244.14C473.86 244.14 473.342 244.056 472.866 243.888C472.39 243.711 471.984 243.459 471.648 243.132L472.194 242.46C472.605 242.759 472.983 242.978 473.328 243.118C473.673 243.249 474.028 243.314 474.392 243.314C474.887 243.314 475.297 243.197 475.624 242.964C475.951 242.731 476.114 242.432 476.114 242.068C476.114 241.788 476.016 241.569 475.82 241.41C475.633 241.251 475.321 241.13 474.882 241.046L473.762 240.85C473.099 240.729 472.609 240.523 472.292 240.234C471.984 239.945 471.83 239.553 471.83 239.058C471.83 238.666 471.933 238.321 472.138 238.022C472.353 237.723 472.647 237.49 473.02 237.322C473.393 237.145 473.818 237.056 474.294 237.056C474.761 237.056 475.204 237.126 475.624 237.266C476.044 237.397 476.469 237.611 476.898 237.91L476.394 238.624C476.039 238.372 475.685 238.19 475.33 238.078C474.975 237.957 474.616 237.896 474.252 237.896C473.804 237.896 473.445 237.994 473.174 238.19C472.903 238.386 472.768 238.652 472.768 238.988C472.768 239.268 472.852 239.483 473.02 239.632C473.197 239.781 473.505 239.893 473.944 239.968L475.092 240.178C475.783 240.299 476.287 240.509 476.604 240.808C476.921 241.107 477.08 241.508 477.08 242.012C477.08 242.413 476.963 242.777 476.73 243.104C476.497 243.421 476.179 243.673 475.778 243.86C475.377 244.047 474.924 244.14 474.42 244.14ZM481.784 244.14C481.15 244.14 480.576 243.986 480.062 243.678C479.549 243.361 479.143 242.936 478.844 242.404C478.546 241.863 478.396 241.256 478.396 240.584C478.396 239.912 478.536 239.31 478.816 238.778C479.106 238.246 479.493 237.826 479.978 237.518C480.464 237.21 481.005 237.056 481.602 237.056C482.209 237.056 482.746 237.21 483.212 237.518C483.688 237.817 484.062 238.227 484.332 238.75C484.612 239.263 484.752 239.847 484.752 240.5V240.808H479.39C479.428 241.275 479.554 241.695 479.768 242.068C479.992 242.432 480.282 242.721 480.636 242.936C481 243.141 481.397 243.244 481.826 243.244C482.181 243.244 482.522 243.183 482.848 243.062C483.184 242.931 483.469 242.759 483.702 242.544L484.346 243.23C483.954 243.538 483.548 243.767 483.128 243.916C482.708 244.065 482.26 244.14 481.784 244.14ZM479.418 240.08H483.744C483.698 239.669 483.572 239.305 483.366 238.988C483.17 238.661 482.918 238.405 482.61 238.218C482.312 238.031 481.976 237.938 481.602 237.938C481.229 237.938 480.888 238.031 480.58 238.218C480.272 238.395 480.016 238.647 479.81 238.974C479.614 239.291 479.484 239.66 479.418 240.08Z" fill="#151515"/>
<path d="M392.375 271.167C393.179 271.167 393.833 271.821 393.833 272.625V279.188C393.833 279.992 393.179 280.646 392.375 280.646H389.215L386.906 282.378L386.901 282.382L386.785 282.469L386.396 282.761C386.286 282.843 386.138 282.856 386.013 282.795C385.887 282.733 385.813 282.608 385.812 282.469V280.646H383.625C382.821 280.646 382.167 279.992 382.167 279.188V272.625C382.167 271.821 382.821 271.167 383.625 271.167H392.375ZM383.625 272.261C383.424 272.261 383.261 272.424 383.261 272.625V279.188C383.261 279.388 383.424 279.552 383.625 279.552H385.812C386.416 279.552 386.906 280.042 386.906 280.646V281.011L388.559 279.771C388.748 279.629 388.978 279.552 389.215 279.552H392.375C392.576 279.552 392.739 279.388 392.739 279.188V272.625C392.739 272.424 392.576 272.261 392.375 272.261H383.625Z" fill="#1F1F1F"/>
<path d="M410.41 281.154C409.645 281.154 408.935 281.019 408.282 280.748C407.629 280.468 406.999 280.048 406.392 279.488L407.05 278.704C407.638 279.255 408.189 279.647 408.702 279.88C409.225 280.113 409.803 280.23 410.438 280.23C410.942 280.23 411.39 280.146 411.782 279.978C412.183 279.801 412.496 279.563 412.72 279.264C412.944 278.965 413.056 278.625 413.056 278.242C413.056 277.747 412.893 277.374 412.566 277.122C412.239 276.861 411.675 276.66 410.872 276.52L409.29 276.254C408.394 276.095 407.736 275.825 407.316 275.442C406.905 275.05 406.7 274.527 406.7 273.874C406.7 273.323 406.84 272.838 407.12 272.418C407.409 271.989 407.806 271.653 408.31 271.41C408.814 271.167 409.397 271.046 410.06 271.046C410.788 271.046 411.465 271.149 412.09 271.354C412.715 271.55 413.331 271.863 413.938 272.292L413.378 273.132C412.874 272.749 412.342 272.46 411.782 272.264C411.222 272.059 410.653 271.956 410.074 271.956C409.617 271.956 409.211 272.035 408.856 272.194C408.511 272.353 408.235 272.567 408.03 272.838C407.834 273.109 407.736 273.417 407.736 273.762C407.736 274.191 407.881 274.527 408.17 274.77C408.459 275.013 408.931 275.185 409.584 275.288L411.152 275.554C412.197 275.741 412.953 276.044 413.42 276.464C413.896 276.875 414.134 277.449 414.134 278.186C414.134 278.755 413.971 279.264 413.644 279.712C413.327 280.16 412.888 280.515 412.328 280.776C411.768 281.028 411.129 281.154 410.41 281.154ZM418.989 281.14C418.355 281.14 417.781 280.986 417.267 280.678C416.754 280.361 416.348 279.936 416.049 279.404C415.751 278.863 415.601 278.256 415.601 277.584C415.601 276.912 415.741 276.31 416.021 275.778C416.311 275.246 416.698 274.826 417.183 274.518C417.669 274.21 418.21 274.056 418.807 274.056C419.414 274.056 419.951 274.21 420.417 274.518C420.893 274.817 421.267 275.227 421.537 275.75C421.817 276.263 421.957 276.847 421.957 277.5V277.808H416.595C416.633 278.275 416.759 278.695 416.973 279.068C417.197 279.432 417.487 279.721 417.841 279.936C418.205 280.141 418.602 280.244 419.031 280.244C419.386 280.244 419.727 280.183 420.053 280.062C420.389 279.931 420.674 279.759 420.907 279.544L421.551 280.23C421.159 280.538 420.753 280.767 420.333 280.916C419.913 281.065 419.465 281.14 418.989 281.14ZM416.623 277.08H420.949C420.903 276.669 420.777 276.305 420.571 275.988C420.375 275.661 420.123 275.405 419.815 275.218C419.517 275.031 419.181 274.938 418.807 274.938C418.434 274.938 418.093 275.031 417.785 275.218C417.477 275.395 417.221 275.647 417.015 275.974C416.819 276.291 416.689 276.66 416.623 277.08ZM423.702 281V274.168H424.724V275.274C424.986 274.863 425.298 274.56 425.662 274.364C426.026 274.159 426.437 274.056 426.894 274.056C427.389 274.056 427.818 274.163 428.182 274.378C428.556 274.583 428.845 274.877 429.05 275.26C429.265 275.633 429.372 276.072 429.372 276.576V281H428.35V276.87C428.35 276.263 428.182 275.787 427.846 275.442C427.52 275.087 427.076 274.91 426.516 274.91C426.143 274.91 425.802 274.999 425.494 275.176C425.186 275.353 424.93 275.615 424.724 275.96V281H423.702ZM434.269 281.098C433.681 281.098 433.149 280.944 432.673 280.636C432.197 280.319 431.819 279.899 431.539 279.376C431.259 278.844 431.119 278.251 431.119 277.598C431.119 276.935 431.259 276.343 431.539 275.82C431.828 275.288 432.216 274.868 432.701 274.56C433.186 274.243 433.728 274.084 434.325 274.084C434.745 274.084 435.137 274.168 435.501 274.336C435.865 274.495 436.182 274.728 436.453 275.036V270.892L437.475 270.682V281H436.453V280.09C436.192 280.417 435.874 280.669 435.501 280.846C435.128 281.014 434.717 281.098 434.269 281.098ZM434.521 280.202C434.922 280.202 435.291 280.123 435.627 279.964C435.963 279.805 436.238 279.581 436.453 279.292V275.904C436.229 275.615 435.944 275.391 435.599 275.232C435.263 275.064 434.904 274.98 434.521 274.98C434.064 274.98 433.653 275.092 433.289 275.316C432.934 275.54 432.65 275.848 432.435 276.24C432.23 276.632 432.127 277.08 432.127 277.584C432.127 278.079 432.23 278.527 432.435 278.928C432.65 279.32 432.934 279.633 433.289 279.866C433.653 280.09 434.064 280.202 434.521 280.202ZM443.711 281V275.008H442.185V274.168H443.711V272.74C443.711 272.068 443.888 271.55 444.243 271.186C444.598 270.822 445.102 270.64 445.755 270.64C445.942 270.64 446.11 270.649 446.259 270.668C446.418 270.687 446.558 270.719 446.679 270.766V271.69C446.53 271.643 446.394 271.611 446.273 271.592C446.152 271.573 446.012 271.564 445.853 271.564C445.461 271.564 445.176 271.662 444.999 271.858C444.822 272.045 444.733 272.343 444.733 272.754V274.168H446.679V275.008H444.733V281H443.711ZM450.818 281.14C450.183 281.14 449.609 280.986 449.096 280.678C448.582 280.361 448.176 279.936 447.878 279.404C447.579 278.863 447.43 278.256 447.43 277.584C447.43 276.912 447.57 276.31 447.85 275.778C448.139 275.246 448.526 274.826 449.012 274.518C449.497 274.21 450.038 274.056 450.636 274.056C451.242 274.056 451.779 274.21 452.246 274.518C452.722 274.817 453.095 275.227 453.366 275.75C453.646 276.263 453.786 276.847 453.786 277.5V277.808H448.424C448.461 278.275 448.587 278.695 448.802 279.068C449.026 279.432 449.315 279.721 449.67 279.936C450.034 280.141 450.43 280.244 450.86 280.244C451.214 280.244 451.555 280.183 451.882 280.062C452.218 279.931 452.502 279.759 452.736 279.544L453.38 280.23C452.988 280.538 452.582 280.767 452.162 280.916C451.742 281.065 451.294 281.14 450.818 281.14ZM448.452 277.08H452.778C452.731 276.669 452.605 276.305 452.4 275.988C452.204 275.661 451.952 275.405 451.644 275.218C451.345 275.031 451.009 274.938 450.636 274.938C450.262 274.938 449.922 275.031 449.614 275.218C449.306 275.395 449.049 275.647 448.844 275.974C448.648 276.291 448.517 276.66 448.452 277.08ZM458.61 281.14C457.976 281.14 457.402 280.986 456.888 280.678C456.375 280.361 455.969 279.936 455.67 279.404C455.372 278.863 455.222 278.256 455.222 277.584C455.222 276.912 455.362 276.31 455.642 275.778C455.932 275.246 456.319 274.826 456.804 274.518C457.29 274.21 457.831 274.056 458.428 274.056C459.035 274.056 459.572 274.21 460.038 274.518C460.514 274.817 460.888 275.227 461.158 275.75C461.438 276.263 461.578 276.847 461.578 277.5V277.808H456.216C456.254 278.275 456.38 278.695 456.594 279.068C456.818 279.432 457.108 279.721 457.462 279.936C457.826 280.141 458.223 280.244 458.652 280.244C459.007 280.244 459.348 280.183 459.674 280.062C460.01 279.931 460.295 279.759 460.528 279.544L461.172 280.23C460.78 280.538 460.374 280.767 459.954 280.916C459.534 281.065 459.086 281.14 458.61 281.14ZM456.244 277.08H460.57C460.524 276.669 460.398 276.305 460.192 275.988C459.996 275.661 459.744 275.405 459.436 275.218C459.138 275.031 458.802 274.938 458.428 274.938C458.055 274.938 457.714 275.031 457.406 275.218C457.098 275.395 456.842 275.647 456.636 275.974C456.44 276.291 456.31 276.66 456.244 277.08ZM466.165 281.098C465.577 281.098 465.045 280.944 464.569 280.636C464.093 280.319 463.715 279.899 463.435 279.376C463.155 278.844 463.015 278.251 463.015 277.598C463.015 276.935 463.155 276.343 463.435 275.82C463.725 275.288 464.112 274.868 464.597 274.56C465.083 274.243 465.624 274.084 466.221 274.084C466.641 274.084 467.033 274.168 467.397 274.336C467.761 274.495 468.079 274.728 468.349 275.036V270.892L469.371 270.682V281H468.349V280.09C468.088 280.417 467.771 280.669 467.397 280.846C467.024 281.014 466.613 281.098 466.165 281.098ZM466.417 280.202C466.819 280.202 467.187 280.123 467.523 279.964C467.859 279.805 468.135 279.581 468.349 279.292V275.904C468.125 275.615 467.841 275.391 467.495 275.232C467.159 275.064 466.8 274.98 466.417 274.98C465.96 274.98 465.549 275.092 465.185 275.316C464.831 275.54 464.546 275.848 464.331 276.24C464.126 276.632 464.023 277.08 464.023 277.584C464.023 278.079 464.126 278.527 464.331 278.928C464.546 279.32 464.831 279.633 465.185 279.866C465.549 280.09 465.96 280.202 466.417 280.202ZM471.472 281V270.99L472.494 270.78V275.106C472.755 274.779 473.073 274.527 473.446 274.35C473.819 274.173 474.235 274.084 474.692 274.084C475.289 274.084 475.821 274.243 476.288 274.56C476.764 274.868 477.142 275.288 477.422 275.82C477.702 276.343 477.842 276.931 477.842 277.584C477.842 278.237 477.697 278.83 477.408 279.362C477.128 279.894 476.745 280.319 476.26 280.636C475.784 280.944 475.243 281.098 474.636 281.098C474.207 281.098 473.805 281.014 473.432 280.846C473.068 280.669 472.751 280.421 472.48 280.104V281H471.472ZM474.44 280.216C474.897 280.216 475.303 280.104 475.658 279.88C476.022 279.647 476.307 279.334 476.512 278.942C476.727 278.541 476.834 278.093 476.834 277.598C476.834 277.094 476.727 276.646 476.512 276.254C476.307 275.862 476.022 275.554 475.658 275.33C475.303 275.097 474.897 274.98 474.44 274.98C474.039 274.98 473.665 275.064 473.32 275.232C472.984 275.391 472.709 275.619 472.494 275.918V279.264C472.718 279.563 472.998 279.796 473.334 279.964C473.679 280.132 474.048 280.216 474.44 280.216ZM481.816 281.126C481.331 281.126 480.902 281.037 480.528 280.86C480.155 280.683 479.861 280.44 479.646 280.132C479.441 279.815 479.338 279.451 479.338 279.04C479.338 278.629 479.446 278.275 479.66 277.976C479.875 277.668 480.174 277.43 480.556 277.262C480.939 277.094 481.387 277.01 481.9 277.01C482.292 277.01 482.661 277.052 483.006 277.136C483.361 277.22 483.688 277.355 483.986 277.542V276.604C483.986 276.044 483.837 275.624 483.538 275.344C483.24 275.055 482.801 274.91 482.222 274.91C481.905 274.91 481.578 274.957 481.242 275.05C480.916 275.143 480.552 275.293 480.15 275.498L479.772 274.714C480.687 274.275 481.546 274.056 482.348 274.056C483.198 274.056 483.851 274.266 484.308 274.686C484.766 275.097 484.994 275.689 484.994 276.464V281H483.986V280.202C483.688 280.51 483.356 280.743 482.992 280.902C482.628 281.051 482.236 281.126 481.816 281.126ZM480.318 279.012C480.318 279.413 480.472 279.735 480.78 279.978C481.098 280.221 481.513 280.342 482.026 280.342C482.409 280.342 482.759 280.277 483.076 280.146C483.403 280.015 483.706 279.819 483.986 279.558V278.242C483.697 278.074 483.398 277.953 483.09 277.878C482.782 277.794 482.437 277.752 482.054 277.752C481.532 277.752 481.112 277.869 480.794 278.102C480.477 278.326 480.318 278.629 480.318 279.012ZM490.137 281.112C489.503 281.112 488.929 280.958 488.415 280.65C487.911 280.333 487.51 279.908 487.211 279.376C486.913 278.835 486.763 278.237 486.763 277.584C486.763 276.921 486.913 276.324 487.211 275.792C487.51 275.26 487.911 274.84 488.415 274.532C488.929 274.215 489.503 274.056 490.137 274.056C490.641 274.056 491.122 274.149 491.579 274.336C492.037 274.523 492.433 274.784 492.769 275.12L492.111 275.834C491.869 275.563 491.575 275.353 491.229 275.204C490.884 275.055 490.534 274.98 490.179 274.98C489.731 274.98 489.325 275.097 488.961 275.33C488.607 275.563 488.322 275.876 488.107 276.268C487.893 276.66 487.785 277.099 487.785 277.584C487.785 278.069 487.893 278.508 488.107 278.9C488.322 279.292 488.607 279.605 488.961 279.838C489.325 280.071 489.731 280.188 490.179 280.188C490.534 280.188 490.884 280.113 491.229 279.964C491.575 279.805 491.869 279.595 492.111 279.334L492.769 280.048C492.433 280.384 492.037 280.645 491.579 280.832C491.122 281.019 490.641 281.112 490.137 281.112ZM494.195 281V270.892L495.217 270.682V277.234L498.465 274.168H499.697L496.225 277.416L499.851 281H498.507L495.217 277.738V281H494.195Z" fill="#151515"/>
<path d="M388 307C391.866 307 395 310.135 395 314C395 317.867 391.866 321 388 321C384.134 321 381 317.867 381 314C381 310.135 384.134 307 388 307ZM388 308.354C384.88 308.354 382.354 310.881 382.354 314C382.354 317.121 384.88 319.646 388 319.646C391.121 319.646 393.646 317.12 393.646 314C393.646 310.88 391.119 308.354 388 308.354ZM388 315.976C388.654 315.976 389.185 316.508 389.186 317.161C389.186 317.815 388.654 318.347 388 318.347C387.346 318.347 386.814 317.815 386.814 317.161C386.815 316.508 387.346 315.976 388 315.976ZM388.163 309.936C389.548 309.936 391.027 311.017 391.027 312.442C391.027 314.335 388.983 314.364 388.983 315.063V315.242C388.983 315.429 388.831 315.581 388.645 315.581H387.355C387.169 315.581 387.017 315.429 387.017 315.242V314.997C387.017 313.988 387.782 313.585 388.36 313.261C388.856 312.983 389.159 312.794 389.159 312.427C389.159 311.94 388.538 311.616 388.036 311.616C387.382 311.616 387.08 311.926 386.655 312.462C386.541 312.606 386.332 312.634 386.185 312.522L385.399 311.927C385.255 311.817 385.223 311.614 385.325 311.465C385.992 310.486 386.841 309.936 388.163 309.936Z" fill="#1F1F1F"/>
<path d="M407.232 318V308.2H408.31V312.582H413.938V308.2H415.016V318H413.938V313.548H408.31V318H407.232ZM420.384 318.14C419.749 318.14 419.175 317.986 418.662 317.678C418.149 317.361 417.743 316.936 417.444 316.404C417.145 315.863 416.996 315.256 416.996 314.584C416.996 313.912 417.136 313.31 417.416 312.778C417.705 312.246 418.093 311.826 418.578 311.518C419.063 311.21 419.605 311.056 420.202 311.056C420.809 311.056 421.345 311.21 421.812 311.518C422.288 311.817 422.661 312.227 422.932 312.75C423.212 313.263 423.352 313.847 423.352 314.5V314.808H417.99C418.027 315.275 418.153 315.695 418.368 316.068C418.592 316.432 418.881 316.721 419.236 316.936C419.6 317.141 419.997 317.244 420.426 317.244C420.781 317.244 421.121 317.183 421.448 317.062C421.784 316.931 422.069 316.759 422.302 316.544L422.946 317.23C422.554 317.538 422.148 317.767 421.728 317.916C421.308 318.065 420.86 318.14 420.384 318.14ZM418.018 314.08H422.344C422.297 313.669 422.171 313.305 421.966 312.988C421.77 312.661 421.518 312.405 421.21 312.218C420.911 312.031 420.575 311.938 420.202 311.938C419.829 311.938 419.488 312.031 419.18 312.218C418.872 312.395 418.615 312.647 418.41 312.974C418.214 313.291 418.083 313.66 418.018 314.08ZM425.097 318V307.892L426.119 307.682V318H425.097ZM428.214 320.926V311.168H429.222V312.148C429.483 311.803 429.801 311.541 430.174 311.364C430.557 311.177 430.977 311.084 431.434 311.084C432.031 311.084 432.563 311.243 433.03 311.56C433.506 311.868 433.884 312.288 434.164 312.82C434.444 313.343 434.584 313.931 434.584 314.584C434.584 315.237 434.439 315.83 434.15 316.362C433.87 316.894 433.487 317.319 433.002 317.636C432.526 317.944 431.985 318.098 431.378 318.098C430.949 318.098 430.552 318.019 430.188 317.86C429.824 317.692 429.507 317.454 429.236 317.146V320.926H428.214ZM431.182 317.216C431.639 317.216 432.045 317.104 432.4 316.88C432.764 316.647 433.049 316.334 433.254 315.942C433.469 315.541 433.576 315.093 433.576 314.598C433.576 314.094 433.469 313.646 433.254 313.254C433.049 312.862 432.764 312.554 432.4 312.33C432.045 312.097 431.639 311.98 431.182 311.98C430.781 311.98 430.407 312.064 430.062 312.232C429.726 312.391 429.451 312.619 429.236 312.918V316.264C429.46 316.563 429.74 316.796 430.076 316.964C430.421 317.132 430.79 317.216 431.182 317.216Z" fill="#151515"/>
</g>
<defs>
<filter id="filter0_d_3372_31930" x="344" y="108" width="192" height="245" filterUnits="userSpaceOnUse" color-interpolation-filters="sRGB">
<feFlood flood-opacity="0" result="BackgroundImageFix"/>
<feColorMatrix in="SourceAlpha" type="matrix" values="0 0 0 0 0 0 0 0 0 0 0 0 0 0 0 0 0 0 127 0" result="hardAlpha"/>
<feOffset dy="4"/>
<feGaussianBlur stdDeviation="4.5"/>
<feColorMatrix type="matrix" values="0 0 0 0 0.160784 0 0 0 0 0.160784 0 0 0 0 0.160784 0 0 0 0.15 0"/>
<feBlend mode="normal" in2="BackgroundImageFix" result="effect1_dropShadow_3372_31930"/>
<feBlend mode="normal" in="SourceGraphic" in2="effect1_dropShadow_3372_31930" result="shape"/>
</filter>
<linearGradient id="paint0_linear_3372_31930" x1="1695.07" y1="71.8043" x2="-108.756" y2="3078.17" gradientUnits="userSpaceOnUse">
<stop stop-color="#2B9AF3"/>
<stop offset="1" stop-color="#73BCF7" stop-opacity="0.502213"/>
</linearGradient>
<linearGradient id="paint1_linear_3372_31930" x1="239.196" y1="-1384.07" x2="-2767.17" y2="419.756" gradientUnits="userSpaceOnUse">
<stop stop-color="#2B9AF3"/>
<stop offset="1" stop-color="#73BCF7" stop-opacity="0.502213"/>
</linearGradient>
</defs>
</svg>
