<svg width="1062" height="241" viewBox="0 0 1062 241" fill="none" xmlns="http://www.w3.org/2000/svg">
<g clip-path="url(#clip0_769_67300)">
<rect width="1062" height="241" fill="white"/>
<g filter="url(#filter0_d_769_67300)">
<g clip-path="url(#clip1_769_67300)">
<path d="M551 34C551 25.1634 558.163 18 567 18H1015C1023.84 18 1031 25.1634 1031 34V355C1031 363.837 1023.84 371 1015 371H567C558.163 371 551 363.837 551 355V34Z" fill="#F2F2F2"/>
<mask id="path-3-outside-1_769_67300" maskUnits="userSpaceOnUse" x="551" y="18" width="480" height="88" fill="black">
<rect fill="white" x="551" y="18" width="480" height="88"/>
<path d="M551 34C551 25.1634 558.163 18 567 18H1015C1023.84 18 1031 25.1634 1031 34V105H551V34Z"/>
</mask>
<path d="M551 18H1031H551M1031 106H551V104H1031V106ZM1031 104M551 105V18V105M551 105M1031 18V105V18" fill="#E0E0E0" mask="url(#path-3-outside-1_769_67300)"/>
<path d="M551 34C551 25.1634 558.163 18 567 18H1015C1023.84 18 1031 25.1634 1031 34V105H551V34Z" fill="#F2F2F2"/>
<path d="M601.25 67.5C601.664 67.5 602 67.8358 602 68.25V70.125C602 70.5392 601.664 70.875 601.25 70.875H581.75C581.336 70.875 581 70.5392 581 70.125V68.25C581 67.8358 581.336 67.5 581.75 67.5H601.25ZM601.25 60C601.664 60 602 60.3358 602 60.75V62.625C602 63.0392 601.664 63.375 601.25 63.375H581.75C581.336 63.375 581 63.0392 581 62.625V60.75C581 60.3358 581.336 60 581.75 60H601.25ZM601.25 52.5C601.664 52.5 602 52.8358 602 53.25V55.125C602 55.5392 601.664 55.875 601.25 55.875H581.75C581.336 55.875 581 55.5392 581 55.125V53.25C581 52.8358 581.336 52.5 581.75 52.5H601.25Z" fill="#707070"/>
<path fill-rule="evenodd" clip-rule="evenodd" d="M645.478 43H668V65.5217H665.587C654.481 65.5217 645.478 56.5188 645.478 45.413V43Z" fill="#0066CC"/>
<path fill-rule="evenodd" clip-rule="evenodd" d="M668 43.8043L646.283 80H663.317C665.903 80 668 77.9031 668 75.3164V43.8043Z" fill="url(#paint0_linear_769_67300)"/>
<path fill-rule="evenodd" clip-rule="evenodd" d="M667.196 43L631 64.7174V47.6836C631 45.0969 633.097 43 635.683 43H667.196Z" fill="url(#paint1_linear_769_67300)"/>
<mask id="path-12-inside-2_769_67300" fill="white">
<path d="M806 61.5C806 51.2827 814.283 43 824.5 43H932.5C942.717 43 951 51.2827 951 61.5C951 71.7173 942.717 80 932.5 80H824.5C814.283 80 806 71.7173 806 61.5Z"/>
</mask>
<path d="M806 61.5M951 61.5M951 61.5M806 61.5M824.5 43V44H932.5V43V42H824.5V43ZM951 61.5M932.5 80V79H824.5V80V81H932.5V80ZM806 61.5M824.5 80V79C814.835 79 807 71.165 807 61.5H806H805C805 72.2696 813.73 81 824.5 81V80ZM951 61.5H950C950 71.165 942.165 79 932.5 79V80V81C943.27 81 952 72.2696 952 61.5H951ZM932.5 43V44C942.165 44 950 51.835 950 61.5H951H952C952 50.7304 943.27 42 932.5 42V43ZM824.5 43V42C813.73 42 805 50.7304 805 61.5H806H807C807 51.835 814.835 44 824.5 44V43Z" fill="#0066CC" mask="url(#path-12-inside-2_769_67300)"/>
<path d="M835.74 66.154C835.04 66.154 834.391 66.0233 833.794 65.762C833.197 65.5007 832.669 65.1413 832.212 64.684C831.764 64.2173 831.414 63.6807 831.162 63.074C830.91 62.458 830.784 61.8 830.784 61.1C830.784 60.4 830.91 59.7467 831.162 59.14C831.414 58.524 831.764 57.9873 832.212 57.53C832.669 57.0633 833.197 56.6993 833.794 56.438C834.391 56.1767 835.04 56.046 835.74 56.046C836.487 56.046 837.191 56.1813 837.854 56.452C838.526 56.7227 839.095 57.124 839.562 57.656L838.834 58.384C838.47 57.9453 838.013 57.6093 837.462 57.376C836.911 57.1427 836.337 57.026 835.74 57.026C835.189 57.026 834.681 57.1333 834.214 57.348C833.747 57.5533 833.337 57.8427 832.982 58.216C832.637 58.58 832.366 59.0093 832.17 59.504C831.974 59.9987 831.876 60.5307 831.876 61.1C831.876 61.6693 831.974 62.2013 832.17 62.696C832.366 63.1907 832.637 63.6247 832.982 63.998C833.337 64.362 833.747 64.6513 834.214 64.866C834.681 65.0713 835.189 65.174 835.74 65.174C836.393 65.174 836.977 65.0293 837.49 64.74C838.013 64.4507 838.433 64.054 838.75 63.55C839.077 63.0367 839.268 62.4627 839.324 61.828H836.02V60.876H840.416V61.31C840.416 61.9913 840.299 62.626 840.066 63.214C839.833 63.7927 839.501 64.306 839.072 64.754C838.652 65.1927 838.157 65.538 837.588 65.79C837.019 66.0327 836.403 66.154 835.74 66.154ZM842.234 66V59.168H843.256V60.568C843.433 60.092 843.685 59.7233 844.012 59.462C844.348 59.1913 844.73 59.056 845.16 59.056C845.281 59.056 845.393 59.0653 845.496 59.084C845.598 59.0933 845.701 59.1167 845.804 59.154V60.078C845.692 60.0407 845.57 60.0127 845.44 59.994C845.318 59.966 845.202 59.952 845.09 59.952C844.67 59.952 844.301 60.0733 843.984 60.316C843.676 60.5587 843.433 60.8993 843.256 61.338V66H842.234ZM848.982 66.126C848.497 66.126 848.068 66.0373 847.694 65.86C847.321 65.6827 847.027 65.44 846.812 65.132C846.607 64.8147 846.504 64.4507 846.504 64.04C846.504 63.6293 846.612 63.2747 846.826 62.976C847.041 62.668 847.34 62.43 847.722 62.262C848.105 62.094 848.553 62.01 849.066 62.01C849.458 62.01 849.827 62.052 850.172 62.136C850.527 62.22 850.854 62.3553 851.152 62.542V61.604C851.152 61.044 851.003 60.624 850.704 60.344C850.406 60.0547 849.967 59.91 849.388 59.91C849.071 59.91 848.744 59.9567 848.408 60.05C848.082 60.1433 847.718 60.2927 847.316 60.498L846.938 59.714C847.853 59.2753 848.712 59.056 849.514 59.056C850.364 59.056 851.017 59.266 851.474 59.686C851.932 60.0967 852.16 60.6893 852.16 61.464V66H851.152V65.202C850.854 65.51 850.522 65.7433 850.158 65.902C849.794 66.0513 849.402 66.126 848.982 66.126ZM847.484 64.012C847.484 64.4133 847.638 64.7353 847.946 64.978C848.264 65.2207 848.679 65.342 849.192 65.342C849.575 65.342 849.925 65.2767 850.242 65.146C850.569 65.0153 850.872 64.8193 851.152 64.558V63.242C850.863 63.074 850.564 62.9527 850.256 62.878C849.948 62.794 849.603 62.752 849.22 62.752C848.698 62.752 848.278 62.8687 847.96 63.102C847.643 63.326 847.484 63.6293 847.484 64.012ZM854.238 66V59.168H855.26V60.274C855.521 59.8633 855.834 59.56 856.198 59.364C856.562 59.1587 856.972 59.056 857.43 59.056C857.924 59.056 858.354 59.1633 858.718 59.378C859.091 59.5833 859.38 59.8773 859.586 60.26C859.8 60.6333 859.908 61.072 859.908 61.576V66H858.886V61.87C858.886 61.2633 858.718 60.7873 858.382 60.442C858.055 60.0873 857.612 59.91 857.052 59.91C856.678 59.91 856.338 59.9987 856.03 60.176C855.722 60.3533 855.465 60.6147 855.26 60.96V66H854.238ZM861.948 66V59.168H862.97V66H861.948ZM862.466 57.474C862.261 57.474 862.083 57.404 861.934 57.264C861.794 57.1147 861.724 56.942 861.724 56.746C861.724 56.55 861.794 56.382 861.934 56.242C862.083 56.0927 862.261 56.018 862.466 56.018C862.671 56.018 862.844 56.0927 862.984 56.242C863.133 56.382 863.208 56.55 863.208 56.746C863.208 56.942 863.133 57.1147 862.984 57.264C862.844 57.404 862.671 57.474 862.466 57.474ZM867.67 66.14C867.082 66.14 866.634 66 866.326 65.72C866.027 65.4307 865.878 65.0153 865.878 64.474V60.008H864.464V59.168H865.878V57.292L866.9 57.054V59.168H868.86V60.008H866.9V64.208C866.9 64.572 866.974 64.8333 867.124 64.992C867.282 65.1507 867.539 65.23 867.894 65.23C868.071 65.23 868.23 65.216 868.37 65.188C868.51 65.16 868.673 65.1133 868.86 65.048V65.958C868.673 66.0233 868.477 66.07 868.272 66.098C868.066 66.126 867.866 66.14 867.67 66.14ZM873.3 66.14C872.665 66.14 872.091 65.986 871.578 65.678C871.065 65.3607 870.659 64.936 870.36 64.404C870.061 63.8627 869.912 63.256 869.912 62.584C869.912 61.912 870.052 61.31 870.332 60.778C870.621 60.246 871.009 59.826 871.494 59.518C871.979 59.21 872.521 59.056 873.118 59.056C873.725 59.056 874.261 59.21 874.728 59.518C875.204 59.8167 875.577 60.2273 875.848 60.75C876.128 61.2633 876.268 61.8467 876.268 62.5V62.808H870.906C870.943 63.2747 871.069 63.6947 871.284 64.068C871.508 64.432 871.797 64.7213 872.152 64.936C872.516 65.1413 872.913 65.244 873.342 65.244C873.697 65.244 874.037 65.1833 874.364 65.062C874.7 64.9313 874.985 64.7587 875.218 64.544L875.862 65.23C875.47 65.538 875.064 65.7667 874.644 65.916C874.224 66.0653 873.776 66.14 873.3 66.14ZM870.934 62.08H875.26C875.213 61.6693 875.087 61.3053 874.882 60.988C874.686 60.6613 874.434 60.4047 874.126 60.218C873.827 60.0313 873.491 59.938 873.118 59.938C872.745 59.938 872.404 60.0313 872.096 60.218C871.788 60.3953 871.531 60.6473 871.326 60.974C871.13 61.2913 870.999 61.66 870.934 62.08ZM881.672 66L886.544 57.082H880.664V56.2H887.636V56.984L882.82 66H881.672ZM889.283 66V56.2H893.245C893.842 56.2 894.36 56.3027 894.799 56.508C895.247 56.7133 895.592 57.0027 895.835 57.376C896.078 57.7493 896.199 58.188 896.199 58.692C896.199 59.2333 896.04 59.7 895.723 60.092C895.415 60.4747 894.995 60.7453 894.463 60.904C895.116 61.0533 895.63 61.338 896.003 61.758C896.386 62.1687 896.577 62.6773 896.577 63.284C896.577 63.8253 896.446 64.3013 896.185 64.712C895.924 65.1227 895.555 65.44 895.079 65.664C894.603 65.888 894.043 66 893.399 66H889.283ZM890.361 60.484H893.161C893.758 60.484 894.234 60.3347 894.589 60.036C894.944 59.728 895.121 59.3173 895.121 58.804C895.121 58.2907 894.944 57.8847 894.589 57.586C894.234 57.278 893.758 57.124 893.161 57.124H890.361V60.484ZM890.361 65.076H893.287C893.95 65.076 894.482 64.908 894.883 64.572C895.284 64.2267 895.485 63.774 895.485 63.214C895.485 62.654 895.284 62.206 894.883 61.87C894.491 61.534 893.959 61.366 893.287 61.366H890.361V65.076Z" fill="#0066CC"/>
<g clip-path="url(#clip2_769_67300)">
<path fill-rule="evenodd" clip-rule="evenodd" d="M931.534 59.667C932.023 59.6672 932.267 60.2618 931.921 60.6104L928.389 64.1719C928.174 64.3874 927.825 64.3875 927.611 64.1719L924.079 60.6104C923.733 60.2617 923.978 59.667 924.467 59.667H931.534Z" fill="#0066CC"/>
</g>
<path d="M996.032 61C996.032 59.0653 997.591 57.5 999.517 57.5C1001.44 57.5003 1003 59.0654 1003 61C1003 62.9346 1001.44 64.4997 999.517 64.5C997.591 64.5 996.032 62.9347 996.032 61ZM987.517 61C987.517 59.0653 989.074 57.5 991 57.5C992.926 57.5 994.483 59.0653 994.483 61C994.483 62.9347 992.926 64.5 991 64.5C989.074 64.5 987.517 62.9347 987.517 61ZM979 61C979 59.0654 980.558 57.5003 982.483 57.5C984.409 57.5 985.968 59.0653 985.968 61C985.968 62.9347 984.409 64.5 982.483 64.5C980.558 64.4997 979 62.9346 979 61Z" fill="#707070"/>
<path d="M576.512 180V163.2H579.992V169.968H587.72V163.2H591.2V180H587.72V173.112H579.992V180H576.512ZM594.038 180V167.496H597.326V180H594.038ZM595.67 166.008C595.158 166.008 594.718 165.824 594.35 165.456C593.982 165.088 593.798 164.648 593.798 164.136C593.798 163.608 593.982 163.168 594.35 162.816C594.718 162.448 595.158 162.264 595.67 162.264C596.198 162.264 596.638 162.448 596.99 162.816C597.358 163.168 597.542 163.608 597.542 164.136C597.542 164.648 597.358 165.088 596.99 165.456C596.638 165.824 596.198 166.008 595.67 166.008ZM598.674 183.624L600.306 177.312H603.714L601.146 183.624H598.674ZM610.942 180V163.2H614.422V180H610.942ZM616.425 168.528L618.057 162.216H621.465L618.897 168.528H616.425ZM623.194 180V167.496H626.482V168.456C627.378 167.656 628.466 167.256 629.746 167.256C630.562 167.256 631.29 167.424 631.93 167.76C632.57 168.08 633.098 168.536 633.514 169.128C634.554 167.88 635.93 167.256 637.642 167.256C638.586 167.256 639.41 167.472 640.114 167.904C640.834 168.32 641.394 168.904 641.794 169.656C642.21 170.392 642.418 171.256 642.418 172.248V180H639.154V172.728C639.154 171.912 638.938 171.272 638.506 170.808C638.074 170.328 637.498 170.088 636.778 170.088C635.77 170.088 634.97 170.504 634.378 171.336C634.394 171.48 634.41 171.624 634.426 171.768C634.442 171.912 634.45 172.072 634.45 172.248V180H631.162V172.728C631.162 171.912 630.946 171.272 630.514 170.808C630.098 170.328 629.53 170.088 628.81 170.088C627.802 170.088 627.026 170.472 626.482 171.24V180H623.194ZM658.245 180.24C656.997 180.24 655.829 180.024 654.741 179.592C653.653 179.144 652.701 178.528 651.885 177.744C651.085 176.96 650.453 176.048 649.989 175.008C649.541 173.952 649.317 172.816 649.317 171.6C649.317 170.368 649.541 169.232 649.989 168.192C650.453 167.136 651.093 166.216 651.909 165.432C652.725 164.648 653.669 164.04 654.741 163.608C655.829 163.16 656.997 162.936 658.245 162.936C659.173 162.936 660.069 163.064 660.933 163.32C661.797 163.576 662.597 163.936 663.333 164.4C664.085 164.864 664.725 165.424 665.253 166.08L662.901 168.408C662.293 167.656 661.589 167.088 660.789 166.704C660.005 166.32 659.157 166.128 658.245 166.128C657.237 166.128 656.325 166.368 655.509 166.848C654.693 167.328 654.053 167.984 653.589 168.816C653.125 169.632 652.893 170.56 652.893 171.6C652.893 172.624 653.133 173.552 653.613 174.384C654.093 175.2 654.749 175.848 655.581 176.328C656.413 176.792 657.341 177.024 658.365 177.024C659.245 177.024 660.069 176.84 660.837 176.472C661.605 176.104 662.285 175.576 662.877 174.888L665.157 177.144C664.629 177.784 663.997 178.336 663.261 178.8C662.525 179.264 661.725 179.624 660.861 179.88C660.013 180.12 659.141 180.24 658.245 180.24ZM666.976 180V163.2L670.264 162.48V168.528C671.208 167.68 672.376 167.256 673.768 167.256C674.744 167.256 675.6 167.472 676.336 167.904C677.088 168.32 677.672 168.904 678.088 169.656C678.504 170.392 678.712 171.256 678.712 172.248V180H675.424V172.728C675.424 171.912 675.192 171.272 674.728 170.808C674.264 170.328 673.632 170.088 672.832 170.088C672.272 170.088 671.776 170.2 671.344 170.424C670.912 170.632 670.552 170.936 670.264 171.336V180H666.976ZM685.186 180.216C684.29 180.216 683.498 180.056 682.81 179.736C682.122 179.4 681.586 178.944 681.202 178.368C680.818 177.792 680.626 177.128 680.626 176.376C680.626 175.176 681.074 174.248 681.97 173.592C682.882 172.92 684.13 172.584 685.714 172.584C686.802 172.584 687.826 172.752 688.786 173.088V172.176C688.786 170.72 687.906 169.992 686.146 169.992C685.618 169.992 685.05 170.08 684.442 170.256C683.834 170.416 683.13 170.672 682.33 171.024L681.13 168.6C682.122 168.152 683.066 167.816 683.962 167.592C684.874 167.368 685.786 167.256 686.698 167.256C688.378 167.256 689.682 167.664 690.61 168.48C691.554 169.28 692.026 170.416 692.026 171.888V180H688.786V179.112C688.274 179.496 687.722 179.776 687.13 179.952C686.538 180.128 685.89 180.216 685.186 180.216ZM683.746 176.304C683.746 176.784 683.954 177.168 684.37 177.456C684.786 177.728 685.338 177.864 686.026 177.864C687.13 177.864 688.05 177.592 688.786 177.048V175.224C687.986 174.904 687.106 174.744 686.146 174.744C685.394 174.744 684.802 174.888 684.37 175.176C683.954 175.448 683.746 175.824 683.746 176.304ZM700.091 180.192C698.699 180.192 697.643 179.88 696.923 179.256C696.219 178.616 695.867 177.688 695.867 176.472V170.232H693.299V167.496H695.867V164.304L699.155 163.56V167.496H702.731V170.232H699.155V175.8C699.155 176.376 699.283 176.792 699.539 177.048C699.795 177.288 700.243 177.408 700.883 177.408C701.203 177.408 701.491 177.392 701.747 177.36C702.019 177.312 702.315 177.232 702.635 177.12V179.832C702.299 179.944 701.875 180.032 701.363 180.096C700.867 180.16 700.443 180.192 700.091 180.192ZM704.551 180V163.2H712.447C713.583 163.2 714.575 163.392 715.423 163.776C716.271 164.16 716.935 164.704 717.415 165.408C717.895 166.096 718.135 166.896 718.135 167.808C718.135 168.544 717.943 169.224 717.559 169.848C717.191 170.456 716.687 170.952 716.047 171.336C716.863 171.72 717.511 172.24 717.991 172.896C718.471 173.552 718.711 174.296 718.711 175.128C718.711 176.088 718.463 176.936 717.967 177.672C717.487 178.408 716.799 178.984 715.903 179.4C715.023 179.8 713.999 180 712.831 180H704.551ZM708.031 170.064H712.231C712.983 170.064 713.575 169.888 714.007 169.536C714.455 169.168 714.679 168.68 714.679 168.072C714.679 167.464 714.455 166.984 714.007 166.632C713.575 166.264 712.983 166.08 712.231 166.08H708.031V170.064ZM708.031 177.12H712.567C713.367 177.12 714.007 176.928 714.487 176.544C714.967 176.144 715.207 175.616 715.207 174.96C715.207 174.288 714.967 173.76 714.487 173.376C714.007 172.976 713.367 172.776 712.567 172.776H708.031V177.12ZM726.79 180.24C725.542 180.24 724.414 179.952 723.406 179.376C722.398 178.8 721.598 178.024 721.006 177.048C720.414 176.072 720.118 174.976 720.118 173.76C720.118 172.544 720.414 171.448 721.006 170.472C721.598 169.48 722.398 168.696 723.406 168.12C724.414 167.544 725.542 167.256 726.79 167.256C728.038 167.256 729.166 167.544 730.174 168.12C731.182 168.696 731.982 169.48 732.574 170.472C733.166 171.448 733.462 172.544 733.462 173.76C733.462 174.976 733.166 176.072 732.574 177.048C731.982 178.024 731.182 178.8 730.174 179.376C729.166 179.952 728.038 180.24 726.79 180.24ZM726.79 177.384C727.446 177.384 728.03 177.224 728.542 176.904C729.07 176.584 729.486 176.152 729.79 175.608C730.11 175.048 730.27 174.432 730.27 173.76C730.27 173.072 730.11 172.456 729.79 171.912C729.486 171.368 729.07 170.936 728.542 170.616C728.03 170.28 727.446 170.112 726.79 170.112C726.15 170.112 725.566 170.28 725.038 170.616C724.51 170.936 724.094 171.368 723.79 171.912C723.486 172.456 723.334 173.072 723.334 173.76C723.334 174.432 723.486 175.048 723.79 175.608C724.094 176.152 724.51 176.584 725.038 176.904C725.566 177.224 726.15 177.384 726.79 177.384ZM740.919 180.192C739.527 180.192 738.471 179.88 737.751 179.256C737.047 178.616 736.695 177.688 736.695 176.472V170.232H734.127V167.496H736.695V164.304L739.983 163.56V167.496H743.559V170.232H739.983V175.8C739.983 176.376 740.111 176.792 740.367 177.048C740.623 177.288 741.071 177.408 741.711 177.408C742.031 177.408 742.319 177.392 742.575 177.36C742.847 177.312 743.143 177.232 743.463 177.12V179.832C743.127 179.944 742.703 180.032 742.191 180.096C741.695 180.16 741.271 180.192 740.919 180.192ZM745.663 174.96L745.255 163.08H748.591L748.183 174.96H745.663ZM746.935 180.24C746.391 180.24 745.927 180.048 745.543 179.664C745.159 179.28 744.967 178.824 744.967 178.296C744.967 177.752 745.159 177.288 745.543 176.904C745.927 176.52 746.383 176.328 746.911 176.328C747.455 176.328 747.919 176.52 748.303 176.904C748.687 177.288 748.879 177.744 748.879 178.272C748.879 178.816 748.687 179.28 748.303 179.664C747.919 180.048 747.463 180.24 746.935 180.24Z" fill="#0066CC"/>
<path d="M576.512 211V194.2H579.992V200.968H587.72V194.2H591.2V211H587.72V204.112H579.992V211H576.512ZM600.134 211.24C598.886 211.24 597.758 210.952 596.75 210.376C595.742 209.8 594.942 209.024 594.35 208.048C593.758 207.072 593.462 205.976 593.462 204.76C593.462 203.544 593.758 202.448 594.35 201.472C594.942 200.48 595.742 199.696 596.75 199.12C597.758 198.544 598.886 198.256 600.134 198.256C601.382 198.256 602.51 198.544 603.518 199.12C604.526 199.696 605.326 200.48 605.918 201.472C606.51 202.448 606.806 203.544 606.806 204.76C606.806 205.976 606.51 207.072 605.918 208.048C605.326 209.024 604.526 209.8 603.518 210.376C602.51 210.952 601.382 211.24 600.134 211.24ZM600.134 208.384C600.79 208.384 601.374 208.224 601.886 207.904C602.414 207.584 602.83 207.152 603.134 206.608C603.454 206.048 603.614 205.432 603.614 204.76C603.614 204.072 603.454 203.456 603.134 202.912C602.83 202.368 602.414 201.936 601.886 201.616C601.374 201.28 600.79 201.112 600.134 201.112C599.494 201.112 598.91 201.28 598.382 201.616C597.854 201.936 597.438 202.368 597.134 202.912C596.83 203.456 596.678 204.072 596.678 204.76C596.678 205.432 596.83 206.048 597.134 206.608C597.438 207.152 597.854 207.584 598.382 207.904C598.91 208.224 599.494 208.384 600.134 208.384ZM610.969 211L607.537 198.496H610.657L612.721 206.56L615.217 198.496H617.977L620.449 206.584L622.513 198.496H625.585L622.129 211H618.985L616.561 203.008L614.137 211H610.969ZM637.936 211.24C636.704 211.24 635.592 210.96 634.6 210.4C633.608 209.824 632.824 209.048 632.248 208.072C631.672 207.08 631.384 205.976 631.384 204.76C631.384 203.528 631.672 202.424 632.248 201.448C632.824 200.472 633.608 199.696 634.6 199.12C635.592 198.544 636.704 198.256 637.936 198.256C638.928 198.256 639.872 198.448 640.768 198.832C641.68 199.216 642.464 199.768 643.12 200.488L641.104 202.624C640.64 202.112 640.152 201.736 639.64 201.496C639.144 201.24 638.6 201.112 638.008 201.112C637.368 201.112 636.792 201.272 636.28 201.592C635.784 201.912 635.384 202.344 635.08 202.888C634.792 203.432 634.648 204.056 634.648 204.76C634.648 205.432 634.792 206.048 635.08 206.608C635.384 207.152 635.8 207.584 636.328 207.904C636.856 208.208 637.44 208.36 638.08 208.36C639.184 208.36 640.176 207.896 641.056 206.968L643.024 209.032C642.384 209.72 641.616 210.264 640.72 210.664C639.824 211.048 638.896 211.24 637.936 211.24ZM648.718 211.216C647.822 211.216 647.03 211.056 646.342 210.736C645.654 210.4 645.118 209.944 644.734 209.368C644.35 208.792 644.158 208.128 644.158 207.376C644.158 206.176 644.606 205.248 645.502 204.592C646.414 203.92 647.662 203.584 649.246 203.584C650.334 203.584 651.358 203.752 652.318 204.088V203.176C652.318 201.72 651.438 200.992 649.678 200.992C649.15 200.992 648.582 201.08 647.974 201.256C647.366 201.416 646.662 201.672 645.862 202.024L644.662 199.6C645.654 199.152 646.598 198.816 647.494 198.592C648.406 198.368 649.318 198.256 650.23 198.256C651.91 198.256 653.214 198.664 654.142 199.48C655.086 200.28 655.557 201.416 655.557 202.888V211H652.318V210.112C651.806 210.496 651.254 210.776 650.662 210.952C650.07 211.128 649.422 211.216 648.718 211.216ZM647.278 207.304C647.278 207.784 647.486 208.168 647.902 208.456C648.318 208.728 648.87 208.864 649.558 208.864C650.662 208.864 651.582 208.592 652.318 208.048V206.224C651.518 205.904 650.638 205.744 649.678 205.744C648.926 205.744 648.334 205.888 647.902 206.176C647.486 206.448 647.278 206.824 647.278 207.304ZM658.046 211V198.496H661.334V199.528C662.278 198.68 663.446 198.256 664.838 198.256C665.814 198.256 666.67 198.472 667.406 198.904C668.158 199.32 668.742 199.904 669.158 200.656C669.574 201.392 669.782 202.256 669.782 203.248V211H666.494V203.728C666.494 202.912 666.262 202.272 665.798 201.808C665.334 201.328 664.702 201.088 663.902 201.088C663.342 201.088 662.846 201.2 662.414 201.424C661.982 201.632 661.622 201.936 661.334 202.336V211H658.046ZM677.317 211V194.2H680.797V211H677.317ZM688.468 211V194.2L691.756 193.48V199.528C692.7 198.68 693.868 198.256 695.26 198.256C696.236 198.256 697.092 198.472 697.828 198.904C698.58 199.32 699.164 199.904 699.58 200.656C699.996 201.392 700.204 202.256 700.204 203.248V211H696.916V203.728C696.916 202.912 696.684 202.272 696.22 201.808C695.756 201.328 695.124 201.088 694.324 201.088C693.764 201.088 693.268 201.2 692.836 201.424C692.404 201.632 692.044 201.936 691.756 202.336V211H688.468ZM708.814 211.24C707.566 211.24 706.43 210.952 705.406 210.376C704.398 209.8 703.598 209.024 703.006 208.048C702.414 207.072 702.118 205.976 702.118 204.76C702.118 203.544 702.398 202.448 702.958 201.472C703.534 200.496 704.31 199.72 705.286 199.144C706.262 198.568 707.35 198.28 708.55 198.28C709.75 198.28 710.814 198.576 711.742 199.168C712.67 199.76 713.398 200.56 713.926 201.568C714.47 202.576 714.742 203.72 714.742 205V205.864H705.478C705.622 206.36 705.854 206.808 706.174 207.208C706.51 207.608 706.918 207.92 707.398 208.144C707.894 208.368 708.422 208.48 708.982 208.48C709.542 208.48 710.054 208.392 710.518 208.216C710.998 208.04 711.406 207.792 711.742 207.472L713.902 209.44C713.134 210.064 712.342 210.52 711.526 210.808C710.726 211.096 709.822 211.24 708.814 211.24ZM705.43 203.512H711.502C711.39 203.016 711.182 202.584 710.878 202.216C710.59 201.832 710.238 201.536 709.822 201.328C709.422 201.104 708.974 200.992 708.478 200.992C707.726 200.992 707.078 201.224 706.534 201.688C705.99 202.136 705.622 202.744 705.43 203.512ZM716.757 211V194.2L720.045 193.648V211H716.757ZM722.616 215.896V198.496H725.856V199.528C726.88 198.728 728.064 198.328 729.408 198.328C730.592 198.328 731.664 198.616 732.624 199.192C733.584 199.768 734.344 200.544 734.904 201.52C735.48 202.48 735.768 203.56 735.768 204.76C735.768 205.96 735.48 207.048 734.904 208.024C734.328 208.984 733.552 209.752 732.576 210.328C731.6 210.888 730.512 211.168 729.312 211.168C728.688 211.168 728.088 211.088 727.512 210.928C726.936 210.752 726.4 210.504 725.904 210.184V215.896H722.616ZM728.88 208.384C729.568 208.384 730.184 208.224 730.728 207.904C731.288 207.584 731.728 207.152 732.048 206.608C732.368 206.064 732.528 205.448 732.528 204.76C732.528 204.072 732.368 203.456 732.048 202.912C731.728 202.368 731.288 201.936 730.728 201.616C730.184 201.296 729.568 201.136 728.88 201.136C728.272 201.136 727.712 201.24 727.2 201.448C726.704 201.64 726.272 201.936 725.904 202.336V207.208C726.256 207.576 726.688 207.864 727.2 208.072C727.728 208.28 728.288 208.384 728.88 208.384ZM743.809 216.16C743.521 216.16 743.241 216.144 742.969 216.112C742.713 216.096 742.497 216.072 742.321 216.04V213.208C742.641 213.272 743.025 213.304 743.473 213.304C744.673 213.304 745.505 212.736 745.969 211.6L746.161 211.12L741.289 198.496H744.913L748.033 207.016L751.561 198.496H755.113L749.353 212.008C748.921 213.016 748.449 213.824 747.937 214.432C747.425 215.04 746.833 215.48 746.161 215.752C745.505 216.024 744.721 216.16 743.809 216.16ZM762.181 211.24C760.933 211.24 759.805 210.952 758.797 210.376C757.789 209.8 756.989 209.024 756.397 208.048C755.805 207.072 755.509 205.976 755.509 204.76C755.509 203.544 755.805 202.448 756.397 201.472C756.989 200.48 757.789 199.696 758.797 199.12C759.805 198.544 760.933 198.256 762.181 198.256C763.429 198.256 764.557 198.544 765.565 199.12C766.573 199.696 767.373 200.48 767.965 201.472C768.557 202.448 768.853 203.544 768.853 204.76C768.853 205.976 768.557 207.072 767.965 208.048C767.373 209.024 766.573 209.8 765.565 210.376C764.557 210.952 763.429 211.24 762.181 211.24ZM762.181 208.384C762.837 208.384 763.421 208.224 763.933 207.904C764.461 207.584 764.877 207.152 765.181 206.608C765.501 206.048 765.661 205.432 765.661 204.76C765.661 204.072 765.501 203.456 765.181 202.912C764.877 202.368 764.461 201.936 763.933 201.616C763.421 201.28 762.837 201.112 762.181 201.112C761.541 201.112 760.957 201.28 760.429 201.616C759.901 201.936 759.485 202.368 759.181 202.912C758.877 203.456 758.725 204.072 758.725 204.76C758.725 205.432 758.877 206.048 759.181 206.608C759.485 207.152 759.901 207.584 760.429 207.904C760.957 208.224 761.541 208.384 762.181 208.384ZM775.722 211.24C774.762 211.24 773.906 211.032 773.154 210.616C772.418 210.184 771.834 209.592 771.402 208.84C770.986 208.088 770.778 207.224 770.778 206.248V198.496H774.066V205.768C774.066 206.568 774.298 207.208 774.762 207.688C775.242 208.168 775.874 208.408 776.658 208.408C777.778 208.408 778.642 207.992 779.25 207.16V198.496H782.538V211H779.25V209.992C778.29 210.824 777.114 211.24 775.722 211.24ZM795.857 211.192C794.465 211.192 793.409 210.88 792.689 210.256C791.985 209.616 791.633 208.688 791.633 207.472V201.232H789.065V198.496H791.633V195.304L794.921 194.56V198.496H798.497V201.232H794.921V206.8C794.921 207.376 795.049 207.792 795.305 208.048C795.561 208.288 796.009 208.408 796.649 208.408C796.969 208.408 797.257 208.392 797.513 208.36C797.785 208.312 798.081 208.232 798.401 208.12V210.832C798.065 210.944 797.641 211.032 797.129 211.096C796.633 211.16 796.209 211.192 795.857 211.192ZM806.056 211.24C804.808 211.24 803.68 210.952 802.672 210.376C801.664 209.8 800.864 209.024 800.272 208.048C799.68 207.072 799.384 205.976 799.384 204.76C799.384 203.544 799.68 202.448 800.272 201.472C800.864 200.48 801.664 199.696 802.672 199.12C803.68 198.544 804.808 198.256 806.056 198.256C807.304 198.256 808.432 198.544 809.44 199.12C810.448 199.696 811.248 200.48 811.84 201.472C812.432 202.448 812.728 203.544 812.728 204.76C812.728 205.976 812.432 207.072 811.84 208.048C811.248 209.024 810.448 209.8 809.44 210.376C808.432 210.952 807.304 211.24 806.056 211.24ZM806.056 208.384C806.712 208.384 807.296 208.224 807.808 207.904C808.336 207.584 808.752 207.152 809.056 206.608C809.376 206.048 809.536 205.432 809.536 204.76C809.536 204.072 809.376 203.456 809.056 202.912C808.752 202.368 808.336 201.936 807.808 201.616C807.296 201.28 806.712 201.112 806.056 201.112C805.416 201.112 804.832 201.28 804.304 201.616C803.776 201.936 803.36 202.368 803.056 202.912C802.752 203.456 802.6 204.072 802.6 204.76C802.6 205.432 802.752 206.048 803.056 206.608C803.36 207.152 803.776 207.584 804.304 207.904C804.832 208.224 805.416 208.384 806.056 208.384ZM820.533 211.168C819.349 211.168 818.269 210.888 817.293 210.328C816.333 209.752 815.573 208.976 815.013 208C814.453 207.024 814.173 205.936 814.173 204.736C814.173 203.536 814.453 202.456 815.013 201.496C815.589 200.52 816.365 199.752 817.341 199.192C818.317 198.616 819.413 198.328 820.629 198.328C821.893 198.328 823.029 198.656 824.037 199.312V194.2L827.325 193.648V211H824.085V209.968C823.061 210.768 821.877 211.168 820.533 211.168ZM821.061 208.36C821.669 208.36 822.221 208.264 822.717 208.072C823.229 207.864 823.669 207.56 824.037 207.16V202.288C823.669 201.92 823.229 201.632 822.717 201.424C822.205 201.216 821.653 201.112 821.061 201.112C820.373 201.112 819.749 201.272 819.189 201.592C818.645 201.896 818.213 202.328 817.893 202.888C817.573 203.432 817.413 204.048 817.413 204.736C817.413 205.424 817.573 206.04 817.893 206.584C818.213 207.128 818.645 207.56 819.189 207.88C819.749 208.2 820.373 208.36 821.061 208.36ZM833.874 211.216C832.978 211.216 832.186 211.056 831.498 210.736C830.81 210.4 830.274 209.944 829.89 209.368C829.506 208.792 829.314 208.128 829.314 207.376C829.314 206.176 829.762 205.248 830.658 204.592C831.57 203.92 832.818 203.584 834.402 203.584C835.49 203.584 836.514 203.752 837.474 204.088V203.176C837.474 201.72 836.594 200.992 834.834 200.992C834.306 200.992 833.738 201.08 833.13 201.256C832.522 201.416 831.818 201.672 831.018 202.024L829.818 199.6C830.81 199.152 831.754 198.816 832.65 198.592C833.562 198.368 834.474 198.256 835.386 198.256C837.066 198.256 838.37 198.664 839.298 199.48C840.242 200.28 840.714 201.416 840.714 202.888V211H837.474V210.112C836.962 210.496 836.41 210.776 835.818 210.952C835.226 211.128 834.578 211.216 833.874 211.216ZM832.434 207.304C832.434 207.784 832.642 208.168 833.058 208.456C833.474 208.728 834.026 208.864 834.714 208.864C835.818 208.864 836.738 208.592 837.474 208.048V206.224C836.674 205.904 835.794 205.744 834.834 205.744C834.082 205.744 833.49 205.888 833.058 206.176C832.642 206.448 832.434 206.824 832.434 207.304ZM844.192 216.16C843.904 216.16 843.624 216.144 843.352 216.112C843.096 216.096 842.88 216.072 842.704 216.04V213.208C843.024 213.272 843.408 213.304 843.856 213.304C845.056 213.304 845.888 212.736 846.352 211.6L846.544 211.12L841.672 198.496H845.296L848.416 207.016L851.944 198.496H855.496L849.736 212.008C849.304 213.016 848.832 213.824 848.32 214.432C847.808 215.04 847.216 215.48 846.544 215.752C845.888 216.024 845.104 216.16 844.192 216.16ZM860.101 205.888C860.069 205.152 860.101 204.528 860.197 204.016C860.293 203.504 860.485 203.048 860.773 202.648C861.061 202.232 861.453 201.84 861.949 201.472L863.197 200.584C863.693 200.216 864.045 199.88 864.253 199.576C864.477 199.256 864.589 198.928 864.589 198.592C864.589 198.224 864.477 197.904 864.253 197.632C864.029 197.344 863.725 197.12 863.341 196.96C862.957 196.784 862.517 196.696 862.021 196.696C861.301 196.696 860.637 196.88 860.029 197.248C859.421 197.616 858.957 198.112 858.637 198.736L855.997 197.632C856.349 196.864 856.829 196.208 857.437 195.664C858.045 195.12 858.749 194.696 859.549 194.392C860.365 194.088 861.229 193.936 862.141 193.936C863.229 193.936 864.197 194.136 865.045 194.536C865.893 194.92 866.565 195.448 867.061 196.12C867.557 196.792 867.805 197.56 867.805 198.424C867.805 199 867.709 199.52 867.517 199.984C867.341 200.432 867.037 200.872 866.605 201.304C866.173 201.736 865.581 202.208 864.829 202.72L864.181 203.176C863.669 203.512 863.309 203.888 863.101 204.304C862.909 204.72 862.829 205.248 862.861 205.888H860.101ZM861.493 211.24C860.965 211.24 860.509 211.048 860.125 210.664C859.741 210.28 859.549 209.824 859.549 209.296C859.549 208.752 859.741 208.288 860.125 207.904C860.509 207.52 860.965 207.328 861.493 207.328C862.021 207.328 862.477 207.52 862.861 207.904C863.245 208.288 863.437 208.752 863.437 209.296C863.437 209.824 863.245 210.28 862.861 210.664C862.477 211.048 862.021 211.24 861.493 211.24Z" fill="#151515"/>
</g>
</g>
<g filter="url(#filter1_d_769_67300)">
<g clip-path="url(#clip3_769_67300)">
<path d="M32 34C32 25.1634 39.1634 18 48 18H496C504.837 18 512 25.1634 512 34V355C512 363.837 504.837 371 496 371H48C39.1635 371 32 363.837 32 355V34Z" fill="#F2F2F2"/>
<mask id="path-22-outside-3_769_67300" maskUnits="userSpaceOnUse" x="32" y="18" width="480" height="88" fill="black">
<rect fill="white" x="32" y="18" width="480" height="88"/>
<path d="M32 34C32 25.1634 39.1634 18 48 18H496C504.837 18 512 25.1634 512 34V105H32V34Z"/>
</mask>
<path d="M32 18H512H32M512 106H32V104H512V106ZM512 104M32 105V18V105M32 105M512 18V105V18" fill="#E0E0E0" mask="url(#path-22-outside-3_769_67300)"/>
<path d="M32 34C32 25.1634 39.1634 18 48 18H496C504.837 18 512 25.1634 512 34V105H32V34Z" fill="#F2F2F2"/>
<path d="M82.25 67.5C82.6642 67.5 83 67.8358 83 68.25V70.125C83 70.5392 82.6642 70.875 82.25 70.875H62.75C62.3358 70.875 62 70.5392 62 70.125V68.25C62 67.8358 62.3358 67.5 62.75 67.5H82.25ZM82.25 60C82.6642 60 83 60.3358 83 60.75V62.625C83 63.0392 82.6642 63.375 82.25 63.375H62.75C62.3358 63.375 62 63.0392 62 62.625V60.75C62 60.3358 62.3358 60 62.75 60H82.25ZM82.25 52.5C82.6642 52.5 83 52.8358 83 53.25V55.125C83 55.5392 82.6642 55.875 82.25 55.875H62.75C62.3358 55.875 62 55.5392 62 55.125V53.25C62 52.8358 62.3358 52.5 62.75 52.5H82.25Z" fill="#707070"/>
<path fill-rule="evenodd" clip-rule="evenodd" d="M126.478 43H149V65.5217H146.587C135.481 65.5217 126.478 56.5188 126.478 45.413V43Z" fill="#0066CC"/>
<path fill-rule="evenodd" clip-rule="evenodd" d="M149 43.8043L127.283 80H144.317C146.903 80 149 77.9031 149 75.3164V43.8043Z" fill="url(#paint2_linear_769_67300)"/>
<path fill-rule="evenodd" clip-rule="evenodd" d="M148.196 43L112 64.7174V47.6836C112 45.0969 114.097 43 116.683 43H148.196Z" fill="url(#paint3_linear_769_67300)"/>
<mask id="path-31-inside-4_769_67300" fill="white">
<path d="M287 61.5C287 51.2827 295.283 43 305.5 43H413.5C423.717 43 432 51.2827 432 61.5C432 71.7173 423.717 80 413.5 80H305.5C295.283 80 287 71.7173 287 61.5Z"/>
</mask>
<path d="M287 61.5M432 61.5M432 61.5M287 61.5M305.5 43V44H413.5V43V42H305.5V43ZM432 61.5M413.5 80V79H305.5V80V81H413.5V80ZM287 61.5M305.5 80V79C295.835 79 288 71.165 288 61.5H287H286C286 72.2696 294.73 81 305.5 81V80ZM432 61.5H431C431 71.165 423.165 79 413.5 79V80V81C424.27 81 433 72.2696 433 61.5H432ZM413.5 43V44C423.165 44 431 51.835 431 61.5H432H433C433 50.7304 424.27 42 413.5 42V43ZM305.5 43V42C294.73 42 286 50.7304 286 61.5H287H288C288 51.835 295.835 44 305.5 44V43Z" fill="#0066CC" mask="url(#path-31-inside-4_769_67300)"/>
<path d="M316.74 66.154C316.04 66.154 315.391 66.0233 314.794 65.762C314.197 65.5007 313.669 65.1413 313.212 64.684C312.764 64.2173 312.414 63.6807 312.162 63.074C311.91 62.458 311.784 61.8 311.784 61.1C311.784 60.4 311.91 59.7467 312.162 59.14C312.414 58.524 312.764 57.9873 313.212 57.53C313.669 57.0633 314.197 56.6993 314.794 56.438C315.391 56.1767 316.04 56.046 316.74 56.046C317.487 56.046 318.191 56.1813 318.854 56.452C319.526 56.7227 320.095 57.124 320.562 57.656L319.834 58.384C319.47 57.9453 319.013 57.6093 318.462 57.376C317.911 57.1427 317.337 57.026 316.74 57.026C316.189 57.026 315.681 57.1333 315.214 57.348C314.747 57.5533 314.337 57.8427 313.982 58.216C313.637 58.58 313.366 59.0093 313.17 59.504C312.974 59.9987 312.876 60.5307 312.876 61.1C312.876 61.6693 312.974 62.2013 313.17 62.696C313.366 63.1907 313.637 63.6247 313.982 63.998C314.337 64.362 314.747 64.6513 315.214 64.866C315.681 65.0713 316.189 65.174 316.74 65.174C317.393 65.174 317.977 65.0293 318.49 64.74C319.013 64.4507 319.433 64.054 319.75 63.55C320.077 63.0367 320.268 62.4627 320.324 61.828H317.02V60.876H321.416V61.31C321.416 61.9913 321.299 62.626 321.066 63.214C320.833 63.7927 320.501 64.306 320.072 64.754C319.652 65.1927 319.157 65.538 318.588 65.79C318.019 66.0327 317.403 66.154 316.74 66.154ZM323.234 66V59.168H324.256V60.568C324.433 60.092 324.685 59.7233 325.012 59.462C325.348 59.1913 325.73 59.056 326.16 59.056C326.281 59.056 326.393 59.0653 326.496 59.084C326.598 59.0933 326.701 59.1167 326.804 59.154V60.078C326.692 60.0407 326.57 60.0127 326.44 59.994C326.318 59.966 326.202 59.952 326.09 59.952C325.67 59.952 325.301 60.0733 324.984 60.316C324.676 60.5587 324.433 60.8993 324.256 61.338V66H323.234ZM329.982 66.126C329.497 66.126 329.068 66.0373 328.694 65.86C328.321 65.6827 328.027 65.44 327.812 65.132C327.607 64.8147 327.504 64.4507 327.504 64.04C327.504 63.6293 327.612 63.2747 327.826 62.976C328.041 62.668 328.34 62.43 328.722 62.262C329.105 62.094 329.553 62.01 330.066 62.01C330.458 62.01 330.827 62.052 331.172 62.136C331.527 62.22 331.854 62.3553 332.152 62.542V61.604C332.152 61.044 332.003 60.624 331.704 60.344C331.406 60.0547 330.967 59.91 330.388 59.91C330.071 59.91 329.744 59.9567 329.408 60.05C329.082 60.1433 328.718 60.2927 328.316 60.498L327.938 59.714C328.853 59.2753 329.712 59.056 330.514 59.056C331.364 59.056 332.017 59.266 332.474 59.686C332.932 60.0967 333.16 60.6893 333.16 61.464V66H332.152V65.202C331.854 65.51 331.522 65.7433 331.158 65.902C330.794 66.0513 330.402 66.126 329.982 66.126ZM328.484 64.012C328.484 64.4133 328.638 64.7353 328.946 64.978C329.264 65.2207 329.679 65.342 330.192 65.342C330.575 65.342 330.925 65.2767 331.242 65.146C331.569 65.0153 331.872 64.8193 332.152 64.558V63.242C331.863 63.074 331.564 62.9527 331.256 62.878C330.948 62.794 330.603 62.752 330.22 62.752C329.698 62.752 329.278 62.8687 328.96 63.102C328.643 63.326 328.484 63.6293 328.484 64.012ZM335.238 66V59.168H336.26V60.274C336.521 59.8633 336.834 59.56 337.198 59.364C337.562 59.1587 337.972 59.056 338.43 59.056C338.924 59.056 339.354 59.1633 339.718 59.378C340.091 59.5833 340.38 59.8773 340.586 60.26C340.8 60.6333 340.908 61.072 340.908 61.576V66H339.886V61.87C339.886 61.2633 339.718 60.7873 339.382 60.442C339.055 60.0873 338.612 59.91 338.052 59.91C337.678 59.91 337.338 59.9987 337.03 60.176C336.722 60.3533 336.465 60.6147 336.26 60.96V66H335.238ZM342.948 66V59.168H343.97V66H342.948ZM343.466 57.474C343.261 57.474 343.083 57.404 342.934 57.264C342.794 57.1147 342.724 56.942 342.724 56.746C342.724 56.55 342.794 56.382 342.934 56.242C343.083 56.0927 343.261 56.018 343.466 56.018C343.671 56.018 343.844 56.0927 343.984 56.242C344.133 56.382 344.208 56.55 344.208 56.746C344.208 56.942 344.133 57.1147 343.984 57.264C343.844 57.404 343.671 57.474 343.466 57.474ZM348.67 66.14C348.082 66.14 347.634 66 347.326 65.72C347.027 65.4307 346.878 65.0153 346.878 64.474V60.008H345.464V59.168H346.878V57.292L347.9 57.054V59.168H349.86V60.008H347.9V64.208C347.9 64.572 347.974 64.8333 348.124 64.992C348.282 65.1507 348.539 65.23 348.894 65.23C349.071 65.23 349.23 65.216 349.37 65.188C349.51 65.16 349.673 65.1133 349.86 65.048V65.958C349.673 66.0233 349.477 66.07 349.272 66.098C349.066 66.126 348.866 66.14 348.67 66.14ZM354.3 66.14C353.665 66.14 353.091 65.986 352.578 65.678C352.065 65.3607 351.659 64.936 351.36 64.404C351.061 63.8627 350.912 63.256 350.912 62.584C350.912 61.912 351.052 61.31 351.332 60.778C351.621 60.246 352.009 59.826 352.494 59.518C352.979 59.21 353.521 59.056 354.118 59.056C354.725 59.056 355.261 59.21 355.728 59.518C356.204 59.8167 356.577 60.2273 356.848 60.75C357.128 61.2633 357.268 61.8467 357.268 62.5V62.808H351.906C351.943 63.2747 352.069 63.6947 352.284 64.068C352.508 64.432 352.797 64.7213 353.152 64.936C353.516 65.1413 353.913 65.244 354.342 65.244C354.697 65.244 355.037 65.1833 355.364 65.062C355.7 64.9313 355.985 64.7587 356.218 64.544L356.862 65.23C356.47 65.538 356.064 65.7667 355.644 65.916C355.224 66.0653 354.776 66.14 354.3 66.14ZM351.934 62.08H356.26C356.213 61.6693 356.087 61.3053 355.882 60.988C355.686 60.6613 355.434 60.4047 355.126 60.218C354.827 60.0313 354.491 59.938 354.118 59.938C353.745 59.938 353.404 60.0313 353.096 60.218C352.788 60.3953 352.531 60.6473 352.326 60.974C352.13 61.2913 351.999 61.66 351.934 62.08ZM362.672 66L367.544 57.082H361.664V56.2H368.636V56.984L363.82 66H362.672ZM370.283 66V56.2H374.245C374.842 56.2 375.36 56.3027 375.799 56.508C376.247 56.7133 376.592 57.0027 376.835 57.376C377.078 57.7493 377.199 58.188 377.199 58.692C377.199 59.2333 377.04 59.7 376.723 60.092C376.415 60.4747 375.995 60.7453 375.463 60.904C376.116 61.0533 376.63 61.338 377.003 61.758C377.386 62.1687 377.577 62.6773 377.577 63.284C377.577 63.8253 377.446 64.3013 377.185 64.712C376.924 65.1227 376.555 65.44 376.079 65.664C375.603 65.888 375.043 66 374.399 66H370.283ZM371.361 60.484H374.161C374.758 60.484 375.234 60.3347 375.589 60.036C375.944 59.728 376.121 59.3173 376.121 58.804C376.121 58.2907 375.944 57.8847 375.589 57.586C375.234 57.278 374.758 57.124 374.161 57.124H371.361V60.484ZM371.361 65.076H374.287C374.95 65.076 375.482 64.908 375.883 64.572C376.284 64.2267 376.485 63.774 376.485 63.214C376.485 62.654 376.284 62.206 375.883 61.87C375.491 61.534 374.959 61.366 374.287 61.366H371.361V65.076Z" fill="#0066CC"/>
<g clip-path="url(#clip4_769_67300)">
<path fill-rule="evenodd" clip-rule="evenodd" d="M412.534 59.667C413.023 59.6672 413.267 60.2618 412.921 60.6104L409.389 64.1719C409.174 64.3874 408.825 64.3875 408.611 64.1719L405.079 60.6104C404.733 60.2617 404.978 59.667 405.467 59.667H412.534Z" fill="#0066CC"/>
</g>
<path d="M477.032 61C477.032 59.0653 478.591 57.5 480.517 57.5C482.442 57.5003 484 59.0654 484 61C484 62.9346 482.442 64.4997 480.517 64.5C478.591 64.5 477.032 62.9347 477.032 61ZM468.517 61C468.517 59.0653 470.074 57.5 472 57.5C473.926 57.5 475.483 59.0653 475.483 61C475.483 62.9347 473.926 64.5 472 64.5C470.074 64.5 468.517 62.9347 468.517 61ZM460 61C460 59.0654 461.558 57.5003 463.483 57.5C465.409 57.5 466.968 59.0653 466.968 61C466.968 62.9347 465.409 64.5 463.483 64.5C461.558 64.4997 460 62.9346 460 61Z" fill="#707070"/>
<path d="M57.512 180V163.2H60.992V169.968H68.72V163.2H72.2V180H68.72V173.112H60.992V180H57.512ZM75.0382 180V167.496H78.3262V180H75.0382ZM76.6702 166.008C76.1582 166.008 75.7182 165.824 75.3502 165.456C74.9822 165.088 74.7982 164.648 74.7982 164.136C74.7982 163.608 74.9822 163.168 75.3502 162.816C75.7182 162.448 76.1582 162.264 76.6702 162.264C77.1982 162.264 77.6382 162.448 77.9902 162.816C78.3582 163.168 78.5422 163.608 78.5422 164.136C78.5422 164.648 78.3582 165.088 77.9902 165.456C77.6382 165.824 77.1982 166.008 76.6702 166.008ZM79.6736 183.624L81.3056 177.312H84.7136L82.1456 183.624H79.6736ZM100.222 180.24C98.9737 180.24 97.8057 180.024 96.7177 179.592C95.6297 179.144 94.6777 178.528 93.8617 177.744C93.0617 176.96 92.4297 176.048 91.9657 175.008C91.5177 173.952 91.2937 172.816 91.2937 171.6C91.2937 170.368 91.5177 169.232 91.9657 168.192C92.4297 167.136 93.0697 166.216 93.8857 165.432C94.7017 164.648 95.6457 164.04 96.7177 163.608C97.8057 163.16 98.9737 162.936 100.222 162.936C101.15 162.936 102.046 163.064 102.91 163.32C103.774 163.576 104.574 163.936 105.31 164.4C106.062 164.864 106.702 165.424 107.23 166.08L104.878 168.408C104.27 167.656 103.566 167.088 102.766 166.704C101.982 166.32 101.134 166.128 100.222 166.128C99.2137 166.128 98.3017 166.368 97.4857 166.848C96.6697 167.328 96.0297 167.984 95.5657 168.816C95.1017 169.632 94.8697 170.56 94.8697 171.6C94.8697 172.624 95.1097 173.552 95.5897 174.384C96.0697 175.2 96.7257 175.848 97.5577 176.328C98.3897 176.792 99.3177 177.024 100.342 177.024C101.222 177.024 102.046 176.84 102.814 176.472C103.582 176.104 104.262 175.576 104.854 174.888L107.134 177.144C106.606 177.784 105.974 178.336 105.238 178.8C104.502 179.264 103.702 179.624 102.838 179.88C101.99 180.12 101.118 180.24 100.222 180.24ZM108.952 180V163.2L112.24 162.48V168.528C113.184 167.68 114.352 167.256 115.744 167.256C116.72 167.256 117.576 167.472 118.312 167.904C119.064 168.32 119.648 168.904 120.064 169.656C120.48 170.392 120.688 171.256 120.688 172.248V180H117.4V172.728C117.4 171.912 117.168 171.272 116.704 170.808C116.24 170.328 115.608 170.088 114.808 170.088C114.248 170.088 113.752 170.2 113.32 170.424C112.888 170.632 112.528 170.936 112.24 171.336V180H108.952ZM127.163 180.216C126.267 180.216 125.475 180.056 124.787 179.736C124.099 179.4 123.563 178.944 123.179 178.368C122.795 177.792 122.603 177.128 122.603 176.376C122.603 175.176 123.051 174.248 123.947 173.592C124.859 172.92 126.107 172.584 127.691 172.584C128.779 172.584 129.803 172.752 130.763 173.088V172.176C130.763 170.72 129.883 169.992 128.123 169.992C127.595 169.992 127.027 170.08 126.419 170.256C125.811 170.416 125.107 170.672 124.307 171.024L123.107 168.6C124.099 168.152 125.043 167.816 125.939 167.592C126.851 167.368 127.763 167.256 128.675 167.256C130.355 167.256 131.659 167.664 132.587 168.48C133.531 169.28 134.003 170.416 134.003 171.888V180H130.763V179.112C130.251 179.496 129.699 179.776 129.107 179.952C128.515 180.128 127.867 180.216 127.163 180.216ZM125.723 176.304C125.723 176.784 125.931 177.168 126.347 177.456C126.763 177.728 127.315 177.864 128.003 177.864C129.107 177.864 130.027 177.592 130.763 177.048V175.224C129.963 174.904 129.083 174.744 128.123 174.744C127.371 174.744 126.779 174.888 126.347 175.176C125.931 175.448 125.723 175.824 125.723 176.304ZM142.068 180.192C140.676 180.192 139.62 179.88 138.9 179.256C138.196 178.616 137.844 177.688 137.844 176.472V170.232H135.276V167.496H137.844V164.304L141.132 163.56V167.496H144.708V170.232H141.132V175.8C141.132 176.376 141.26 176.792 141.516 177.048C141.772 177.288 142.22 177.408 142.86 177.408C143.18 177.408 143.468 177.392 143.724 177.36C143.996 177.312 144.292 177.232 144.612 177.12V179.832C144.276 179.944 143.852 180.032 143.34 180.096C142.844 180.16 142.42 180.192 142.068 180.192ZM146.528 180V163.2H154.424C155.56 163.2 156.552 163.392 157.4 163.776C158.248 164.16 158.912 164.704 159.392 165.408C159.872 166.096 160.112 166.896 160.112 167.808C160.112 168.544 159.92 169.224 159.536 169.848C159.168 170.456 158.664 170.952 158.024 171.336C158.84 171.72 159.488 172.24 159.968 172.896C160.448 173.552 160.688 174.296 160.688 175.128C160.688 176.088 160.44 176.936 159.944 177.672C159.464 178.408 158.776 178.984 157.88 179.4C157 179.8 155.976 180 154.808 180H146.528ZM150.008 170.064H154.208C154.96 170.064 155.552 169.888 155.984 169.536C156.432 169.168 156.656 168.68 156.656 168.072C156.656 167.464 156.432 166.984 155.984 166.632C155.552 166.264 154.96 166.08 154.208 166.08H150.008V170.064ZM150.008 177.12H154.544C155.344 177.12 155.984 176.928 156.464 176.544C156.944 176.144 157.184 175.616 157.184 174.96C157.184 174.288 156.944 173.76 156.464 173.376C155.984 172.976 155.344 172.776 154.544 172.776H150.008V177.12ZM168.767 180.24C167.519 180.24 166.391 179.952 165.383 179.376C164.375 178.8 163.575 178.024 162.983 177.048C162.391 176.072 162.095 174.976 162.095 173.76C162.095 172.544 162.391 171.448 162.983 170.472C163.575 169.48 164.375 168.696 165.383 168.12C166.391 167.544 167.519 167.256 168.767 167.256C170.015 167.256 171.143 167.544 172.151 168.12C173.159 168.696 173.959 169.48 174.551 170.472C175.143 171.448 175.439 172.544 175.439 173.76C175.439 174.976 175.143 176.072 174.551 177.048C173.959 178.024 173.159 178.8 172.151 179.376C171.143 179.952 170.015 180.24 168.767 180.24ZM168.767 177.384C169.423 177.384 170.007 177.224 170.519 176.904C171.047 176.584 171.463 176.152 171.767 175.608C172.087 175.048 172.247 174.432 172.247 173.76C172.247 173.072 172.087 172.456 171.767 171.912C171.463 171.368 171.047 170.936 170.519 170.616C170.007 170.28 169.423 170.112 168.767 170.112C168.127 170.112 167.543 170.28 167.015 170.616C166.487 170.936 166.071 171.368 165.767 171.912C165.463 172.456 165.311 173.072 165.311 173.76C165.311 174.432 165.463 175.048 165.767 175.608C166.071 176.152 166.487 176.584 167.015 176.904C167.543 177.224 168.127 177.384 168.767 177.384ZM182.896 180.192C181.504 180.192 180.448 179.88 179.728 179.256C179.024 178.616 178.672 177.688 178.672 176.472V170.232H176.104V167.496H178.672V164.304L181.96 163.56V167.496H185.536V170.232H181.96V175.8C181.96 176.376 182.088 176.792 182.344 177.048C182.6 177.288 183.048 177.408 183.688 177.408C184.008 177.408 184.296 177.392 184.552 177.36C184.824 177.312 185.12 177.232 185.44 177.12V179.832C185.104 179.944 184.68 180.032 184.168 180.096C183.672 180.16 183.248 180.192 182.896 180.192ZM199.36 180.24C197.84 180.24 196.52 179.936 195.4 179.328C194.296 178.72 193.44 177.856 192.832 176.736C192.224 175.6 191.92 174.272 191.92 172.752V163.2H195.4V172.752C195.4 173.616 195.56 174.376 195.88 175.032C196.216 175.672 196.68 176.168 197.272 176.52C197.88 176.856 198.584 177.024 199.384 177.024C200.184 177.024 200.88 176.856 201.472 176.52C202.064 176.168 202.52 175.672 202.84 175.032C203.176 174.376 203.344 173.616 203.344 172.752V163.2H206.8V172.752C206.8 174.256 206.496 175.576 205.888 176.712C205.28 177.832 204.416 178.704 203.296 179.328C202.192 179.936 200.88 180.24 199.36 180.24ZM214.156 180.24C213.004 180.24 211.94 180.096 210.964 179.808C209.988 179.504 209.14 179.072 208.42 178.512L210.052 176.328C210.772 176.808 211.46 177.168 212.116 177.408C212.788 177.648 213.452 177.768 214.108 177.768C214.844 177.768 215.428 177.648 215.86 177.408C216.308 177.152 216.532 176.824 216.532 176.424C216.532 175.8 216.012 175.408 214.972 175.248L212.572 174.888C211.324 174.696 210.38 174.296 209.74 173.688C209.1 173.064 208.78 172.248 208.78 171.24C208.78 170.424 208.988 169.728 209.404 169.152C209.836 168.56 210.436 168.104 211.204 167.784C211.988 167.448 212.916 167.28 213.988 167.28C214.9 167.28 215.788 167.408 216.652 167.664C217.532 167.92 218.356 168.312 219.124 168.84L217.54 170.976C216.212 170.16 214.924 169.752 213.676 169.752C213.084 169.752 212.604 169.864 212.236 170.088C211.884 170.312 211.708 170.608 211.708 170.976C211.708 171.312 211.836 171.576 212.092 171.768C212.348 171.96 212.788 172.096 213.412 172.176L215.788 172.536C217.036 172.712 217.988 173.112 218.644 173.736C219.3 174.344 219.628 175.136 219.628 176.112C219.628 176.912 219.388 177.624 218.908 178.248C218.428 178.856 217.78 179.344 216.964 179.712C216.148 180.064 215.212 180.24 214.156 180.24ZM227.502 180.24C226.254 180.24 225.118 179.952 224.094 179.376C223.086 178.8 222.286 178.024 221.694 177.048C221.102 176.072 220.806 174.976 220.806 173.76C220.806 172.544 221.086 171.448 221.646 170.472C222.222 169.496 222.998 168.72 223.974 168.144C224.95 167.568 226.038 167.28 227.238 167.28C228.438 167.28 229.502 167.576 230.43 168.168C231.358 168.76 232.086 169.56 232.614 170.568C233.158 171.576 233.43 172.72 233.43 174V174.864H224.166C224.31 175.36 224.542 175.808 224.862 176.208C225.198 176.608 225.606 176.92 226.086 177.144C226.582 177.368 227.11 177.48 227.67 177.48C228.23 177.48 228.742 177.392 229.206 177.216C229.686 177.04 230.094 176.792 230.43 176.472L232.59 178.44C231.822 179.064 231.03 179.52 230.214 179.808C229.414 180.096 228.51 180.24 227.502 180.24ZM224.118 172.512H230.19C230.078 172.016 229.87 171.584 229.566 171.216C229.278 170.832 228.926 170.536 228.51 170.328C228.11 170.104 227.662 169.992 227.166 169.992C226.414 169.992 225.766 170.224 225.222 170.688C224.678 171.136 224.31 171.744 224.118 172.512ZM235.444 180V167.496H238.732V168.888C239.132 168.344 239.612 167.928 240.172 167.64C240.732 167.352 241.364 167.208 242.068 167.208C242.676 167.224 243.132 167.32 243.436 167.496V170.376C242.924 170.152 242.364 170.04 241.756 170.04C241.116 170.04 240.532 170.2 240.004 170.52C239.476 170.84 239.052 171.296 238.732 171.888V180H235.444ZM245.577 174.96L245.169 163.08H248.505L248.097 174.96H245.577ZM246.849 180.24C246.305 180.24 245.841 180.048 245.457 179.664C245.073 179.28 244.881 178.824 244.881 178.296C244.881 177.752 245.073 177.288 245.457 176.904C245.841 176.52 246.297 176.328 246.825 176.328C247.369 176.328 247.833 176.52 248.217 176.904C248.601 177.288 248.793 177.744 248.793 178.272C248.793 178.816 248.601 179.28 248.217 179.664C247.833 180.048 247.377 180.24 246.849 180.24Z" fill="#0066CC"/>
<path d="M57.512 211V194.2H60.992V200.968H68.72V194.2H72.2V211H68.72V204.112H60.992V211H57.512ZM81.1342 211.24C79.8862 211.24 78.7582 210.952 77.7502 210.376C76.7422 209.8 75.9422 209.024 75.3502 208.048C74.7582 207.072 74.4622 205.976 74.4622 204.76C74.4622 203.544 74.7582 202.448 75.3502 201.472C75.9422 200.48 76.7422 199.696 77.7502 199.12C78.7582 198.544 79.8862 198.256 81.1342 198.256C82.3822 198.256 83.5102 198.544 84.5182 199.12C85.5262 199.696 86.3262 200.48 86.9182 201.472C87.5102 202.448 87.8062 203.544 87.8062 204.76C87.8062 205.976 87.5102 207.072 86.9182 208.048C86.3262 209.024 85.5262 209.8 84.5182 210.376C83.5102 210.952 82.3822 211.24 81.1342 211.24ZM81.1342 208.384C81.7902 208.384 82.3742 208.224 82.8862 207.904C83.4142 207.584 83.8302 207.152 84.1342 206.608C84.4542 206.048 84.6142 205.432 84.6142 204.76C84.6142 204.072 84.4542 203.456 84.1342 202.912C83.8302 202.368 83.4142 201.936 82.8862 201.616C82.3742 201.28 81.7902 201.112 81.1342 201.112C80.4942 201.112 79.9102 201.28 79.3822 201.616C78.8542 201.936 78.4382 202.368 78.1342 202.912C77.8302 203.456 77.6782 204.072 77.6782 204.76C77.6782 205.432 77.8302 206.048 78.1342 206.608C78.4382 207.152 78.8542 207.584 79.3822 207.904C79.9102 208.224 80.4942 208.384 81.1342 208.384ZM91.9689 211L88.5369 198.496H91.6569L93.7209 206.56L96.2169 198.496H98.9769L101.449 206.584L103.513 198.496H106.585L103.129 211H99.9849L97.5609 203.008L95.1369 211H91.9689ZM118.936 211.24C117.704 211.24 116.592 210.96 115.6 210.4C114.608 209.824 113.824 209.048 113.248 208.072C112.672 207.08 112.384 205.976 112.384 204.76C112.384 203.528 112.672 202.424 113.248 201.448C113.824 200.472 114.608 199.696 115.6 199.12C116.592 198.544 117.704 198.256 118.936 198.256C119.928 198.256 120.872 198.448 121.768 198.832C122.68 199.216 123.464 199.768 124.12 200.488L122.104 202.624C121.64 202.112 121.152 201.736 120.64 201.496C120.144 201.24 119.6 201.112 119.008 201.112C118.368 201.112 117.792 201.272 117.28 201.592C116.784 201.912 116.384 202.344 116.08 202.888C115.792 203.432 115.648 204.056 115.648 204.76C115.648 205.432 115.792 206.048 116.08 206.608C116.384 207.152 116.8 207.584 117.328 207.904C117.856 208.208 118.44 208.36 119.08 208.36C120.184 208.36 121.176 207.896 122.056 206.968L124.024 209.032C123.384 209.72 122.616 210.264 121.72 210.664C120.824 211.048 119.896 211.24 118.936 211.24ZM129.718 211.216C128.822 211.216 128.03 211.056 127.342 210.736C126.654 210.4 126.118 209.944 125.734 209.368C125.35 208.792 125.158 208.128 125.158 207.376C125.158 206.176 125.606 205.248 126.502 204.592C127.414 203.92 128.662 203.584 130.246 203.584C131.334 203.584 132.358 203.752 133.318 204.088V203.176C133.318 201.72 132.438 200.992 130.678 200.992C130.15 200.992 129.582 201.08 128.974 201.256C128.366 201.416 127.662 201.672 126.862 202.024L125.662 199.6C126.654 199.152 127.598 198.816 128.494 198.592C129.406 198.368 130.318 198.256 131.23 198.256C132.91 198.256 134.214 198.664 135.142 199.48C136.086 200.28 136.557 201.416 136.557 202.888V211H133.318V210.112C132.806 210.496 132.254 210.776 131.662 210.952C131.07 211.128 130.422 211.216 129.718 211.216ZM128.278 207.304C128.278 207.784 128.486 208.168 128.902 208.456C129.318 208.728 129.87 208.864 130.558 208.864C131.662 208.864 132.582 208.592 133.318 208.048V206.224C132.518 205.904 131.638 205.744 130.678 205.744C129.926 205.744 129.334 205.888 128.902 206.176C128.486 206.448 128.278 206.824 128.278 207.304ZM139.046 211V198.496H142.334V199.528C143.278 198.68 144.446 198.256 145.838 198.256C146.814 198.256 147.67 198.472 148.406 198.904C149.158 199.32 149.742 199.904 150.158 200.656C150.574 201.392 150.782 202.256 150.782 203.248V211H147.494V203.728C147.494 202.912 147.262 202.272 146.798 201.808C146.334 201.328 145.702 201.088 144.902 201.088C144.342 201.088 143.846 201.2 143.414 201.424C142.982 201.632 142.622 201.936 142.334 202.336V211H139.046ZM158.317 211V194.2H161.797V211H158.317ZM169.468 211V194.2L172.756 193.48V199.528C173.7 198.68 174.868 198.256 176.26 198.256C177.236 198.256 178.092 198.472 178.828 198.904C179.58 199.32 180.164 199.904 180.58 200.656C180.996 201.392 181.204 202.256 181.204 203.248V211H177.916V203.728C177.916 202.912 177.684 202.272 177.22 201.808C176.756 201.328 176.124 201.088 175.324 201.088C174.764 201.088 174.268 201.2 173.836 201.424C173.404 201.632 173.044 201.936 172.756 202.336V211H169.468ZM189.814 211.24C188.566 211.24 187.43 210.952 186.406 210.376C185.398 209.8 184.598 209.024 184.006 208.048C183.414 207.072 183.118 205.976 183.118 204.76C183.118 203.544 183.398 202.448 183.958 201.472C184.534 200.496 185.31 199.72 186.286 199.144C187.262 198.568 188.35 198.28 189.55 198.28C190.75 198.28 191.814 198.576 192.742 199.168C193.67 199.76 194.398 200.56 194.926 201.568C195.47 202.576 195.742 203.72 195.742 205V205.864H186.478C186.622 206.36 186.854 206.808 187.174 207.208C187.51 207.608 187.918 207.92 188.398 208.144C188.894 208.368 189.422 208.48 189.982 208.48C190.542 208.48 191.054 208.392 191.518 208.216C191.998 208.04 192.406 207.792 192.742 207.472L194.902 209.44C194.134 210.064 193.342 210.52 192.526 210.808C191.726 211.096 190.822 211.24 189.814 211.24ZM186.43 203.512H192.502C192.39 203.016 192.182 202.584 191.878 202.216C191.59 201.832 191.238 201.536 190.822 201.328C190.422 201.104 189.974 200.992 189.478 200.992C188.726 200.992 188.078 201.224 187.534 201.688C186.99 202.136 186.622 202.744 186.43 203.512ZM197.757 211V194.2L201.045 193.648V211H197.757ZM203.616 215.896V198.496H206.856V199.528C207.88 198.728 209.064 198.328 210.408 198.328C211.592 198.328 212.664 198.616 213.624 199.192C214.584 199.768 215.344 200.544 215.904 201.52C216.48 202.48 216.768 203.56 216.768 204.76C216.768 205.96 216.48 207.048 215.904 208.024C215.328 208.984 214.552 209.752 213.576 210.328C212.6 210.888 211.512 211.168 210.312 211.168C209.688 211.168 209.088 211.088 208.512 210.928C207.936 210.752 207.4 210.504 206.904 210.184V215.896H203.616ZM209.88 208.384C210.568 208.384 211.184 208.224 211.728 207.904C212.288 207.584 212.728 207.152 213.048 206.608C213.368 206.064 213.528 205.448 213.528 204.76C213.528 204.072 213.368 203.456 213.048 202.912C212.728 202.368 212.288 201.936 211.728 201.616C211.184 201.296 210.568 201.136 209.88 201.136C209.272 201.136 208.712 201.24 208.2 201.448C207.704 201.64 207.272 201.936 206.904 202.336V207.208C207.256 207.576 207.688 207.864 208.2 208.072C208.728 208.28 209.288 208.384 209.88 208.384ZM224.809 216.16C224.521 216.16 224.241 216.144 223.969 216.112C223.713 216.096 223.497 216.072 223.321 216.04V213.208C223.641 213.272 224.025 213.304 224.473 213.304C225.673 213.304 226.505 212.736 226.969 211.6L227.161 211.12L222.289 198.496H225.913L229.033 207.016L232.561 198.496H236.113L230.353 212.008C229.921 213.016 229.449 213.824 228.937 214.432C228.425 215.04 227.833 215.48 227.161 215.752C226.505 216.024 225.721 216.16 224.809 216.16ZM243.181 211.24C241.933 211.24 240.805 210.952 239.797 210.376C238.789 209.8 237.989 209.024 237.397 208.048C236.805 207.072 236.509 205.976 236.509 204.76C236.509 203.544 236.805 202.448 237.397 201.472C237.989 200.48 238.789 199.696 239.797 199.12C240.805 198.544 241.933 198.256 243.181 198.256C244.429 198.256 245.557 198.544 246.565 199.12C247.573 199.696 248.373 200.48 248.965 201.472C249.557 202.448 249.853 203.544 249.853 204.76C249.853 205.976 249.557 207.072 248.965 208.048C248.373 209.024 247.573 209.8 246.565 210.376C245.557 210.952 244.429 211.24 243.181 211.24ZM243.181 208.384C243.837 208.384 244.421 208.224 244.933 207.904C245.461 207.584 245.877 207.152 246.181 206.608C246.501 206.048 246.661 205.432 246.661 204.76C246.661 204.072 246.501 203.456 246.181 202.912C245.877 202.368 245.461 201.936 244.933 201.616C244.421 201.28 243.837 201.112 243.181 201.112C242.541 201.112 241.957 201.28 241.429 201.616C240.901 201.936 240.485 202.368 240.181 202.912C239.877 203.456 239.725 204.072 239.725 204.76C239.725 205.432 239.877 206.048 240.181 206.608C240.485 207.152 240.901 207.584 241.429 207.904C241.957 208.224 242.541 208.384 243.181 208.384ZM256.722 211.24C255.762 211.24 254.906 211.032 254.154 210.616C253.418 210.184 252.834 209.592 252.402 208.84C251.986 208.088 251.778 207.224 251.778 206.248V198.496H255.066V205.768C255.066 206.568 255.298 207.208 255.762 207.688C256.242 208.168 256.874 208.408 257.658 208.408C258.778 208.408 259.642 207.992 260.25 207.16V198.496H263.538V211H260.25V209.992C259.29 210.824 258.114 211.24 256.722 211.24ZM276.857 211.192C275.465 211.192 274.409 210.88 273.689 210.256C272.985 209.616 272.633 208.688 272.633 207.472V201.232H270.065V198.496H272.633V195.304L275.921 194.56V198.496H279.497V201.232H275.921V206.8C275.921 207.376 276.049 207.792 276.305 208.048C276.561 208.288 277.009 208.408 277.649 208.408C277.969 208.408 278.257 208.392 278.513 208.36C278.785 208.312 279.081 208.232 279.401 208.12V210.832C279.065 210.944 278.641 211.032 278.129 211.096C277.633 211.16 277.209 211.192 276.857 211.192ZM287.056 211.24C285.808 211.24 284.68 210.952 283.672 210.376C282.664 209.8 281.864 209.024 281.272 208.048C280.68 207.072 280.384 205.976 280.384 204.76C280.384 203.544 280.68 202.448 281.272 201.472C281.864 200.48 282.664 199.696 283.672 199.12C284.68 198.544 285.808 198.256 287.056 198.256C288.304 198.256 289.432 198.544 290.44 199.12C291.448 199.696 292.248 200.48 292.84 201.472C293.432 202.448 293.728 203.544 293.728 204.76C293.728 205.976 293.432 207.072 292.84 208.048C292.248 209.024 291.448 209.8 290.44 210.376C289.432 210.952 288.304 211.24 287.056 211.24ZM287.056 208.384C287.712 208.384 288.296 208.224 288.808 207.904C289.336 207.584 289.752 207.152 290.056 206.608C290.376 206.048 290.536 205.432 290.536 204.76C290.536 204.072 290.376 203.456 290.056 202.912C289.752 202.368 289.336 201.936 288.808 201.616C288.296 201.28 287.712 201.112 287.056 201.112C286.416 201.112 285.832 201.28 285.304 201.616C284.776 201.936 284.36 202.368 284.056 202.912C283.752 203.456 283.6 204.072 283.6 204.76C283.6 205.432 283.752 206.048 284.056 206.608C284.36 207.152 284.776 207.584 285.304 207.904C285.832 208.224 286.416 208.384 287.056 208.384ZM301.533 211.168C300.349 211.168 299.269 210.888 298.293 210.328C297.333 209.752 296.573 208.976 296.013 208C295.453 207.024 295.173 205.936 295.173 204.736C295.173 203.536 295.453 202.456 296.013 201.496C296.589 200.52 297.365 199.752 298.341 199.192C299.317 198.616 300.413 198.328 301.629 198.328C302.893 198.328 304.029 198.656 305.037 199.312V194.2L308.325 193.648V211H305.085V209.968C304.061 210.768 302.877 211.168 301.533 211.168ZM302.061 208.36C302.669 208.36 303.221 208.264 303.717 208.072C304.229 207.864 304.669 207.56 305.037 207.16V202.288C304.669 201.92 304.229 201.632 303.717 201.424C303.205 201.216 302.653 201.112 302.061 201.112C301.373 201.112 300.749 201.272 300.189 201.592C299.645 201.896 299.213 202.328 298.893 202.888C298.573 203.432 298.413 204.048 298.413 204.736C298.413 205.424 298.573 206.04 298.893 206.584C299.213 207.128 299.645 207.56 300.189 207.88C300.749 208.2 301.373 208.36 302.061 208.36ZM314.874 211.216C313.978 211.216 313.186 211.056 312.498 210.736C311.81 210.4 311.274 209.944 310.89 209.368C310.506 208.792 310.314 208.128 310.314 207.376C310.314 206.176 310.762 205.248 311.658 204.592C312.57 203.92 313.818 203.584 315.402 203.584C316.49 203.584 317.514 203.752 318.474 204.088V203.176C318.474 201.72 317.594 200.992 315.834 200.992C315.306 200.992 314.738 201.08 314.13 201.256C313.522 201.416 312.818 201.672 312.018 202.024L310.818 199.6C311.81 199.152 312.754 198.816 313.65 198.592C314.562 198.368 315.474 198.256 316.386 198.256C318.066 198.256 319.37 198.664 320.298 199.48C321.242 200.28 321.714 201.416 321.714 202.888V211H318.474V210.112C317.962 210.496 317.41 210.776 316.818 210.952C316.226 211.128 315.578 211.216 314.874 211.216ZM313.434 207.304C313.434 207.784 313.642 208.168 314.058 208.456C314.474 208.728 315.026 208.864 315.714 208.864C316.818 208.864 317.738 208.592 318.474 208.048V206.224C317.674 205.904 316.794 205.744 315.834 205.744C315.082 205.744 314.49 205.888 314.058 206.176C313.642 206.448 313.434 206.824 313.434 207.304ZM325.192 216.16C324.904 216.16 324.624 216.144 324.352 216.112C324.096 216.096 323.88 216.072 323.704 216.04V213.208C324.024 213.272 324.408 213.304 324.856 213.304C326.056 213.304 326.888 212.736 327.352 211.6L327.544 211.12L322.672 198.496H326.296L329.416 207.016L332.944 198.496H336.496L330.736 212.008C330.304 213.016 329.832 213.824 329.32 214.432C328.808 215.04 328.216 215.48 327.544 215.752C326.888 216.024 326.104 216.16 325.192 216.16ZM341.101 205.888C341.069 205.152 341.101 204.528 341.197 204.016C341.293 203.504 341.485 203.048 341.773 202.648C342.061 202.232 342.453 201.84 342.949 201.472L344.197 200.584C344.693 200.216 345.045 199.88 345.253 199.576C345.477 199.256 345.589 198.928 345.589 198.592C345.589 198.224 345.477 197.904 345.253 197.632C345.029 197.344 344.725 197.12 344.341 196.96C343.957 196.784 343.517 196.696 343.021 196.696C342.301 196.696 341.637 196.88 341.029 197.248C340.421 197.616 339.957 198.112 339.637 198.736L336.997 197.632C337.349 196.864 337.829 196.208 338.437 195.664C339.045 195.12 339.749 194.696 340.549 194.392C341.365 194.088 342.229 193.936 343.141 193.936C344.229 193.936 345.197 194.136 346.045 194.536C346.893 194.92 347.565 195.448 348.061 196.12C348.557 196.792 348.805 197.56 348.805 198.424C348.805 199 348.709 199.52 348.517 199.984C348.341 200.432 348.037 200.872 347.605 201.304C347.173 201.736 346.581 202.208 345.829 202.72L345.181 203.176C344.669 203.512 344.309 203.888 344.101 204.304C343.909 204.72 343.829 205.248 343.861 205.888H341.101ZM342.493 211.24C341.965 211.24 341.509 211.048 341.125 210.664C340.741 210.28 340.549 209.824 340.549 209.296C340.549 208.752 340.741 208.288 341.125 207.904C341.509 207.52 341.965 207.328 342.493 207.328C343.021 207.328 343.477 207.52 343.861 207.904C344.245 208.288 344.437 208.752 344.437 209.296C344.437 209.824 344.245 210.28 343.861 210.664C343.477 211.048 343.021 211.24 342.493 211.24Z" fill="#151515"/>
</g>
</g>
</g>
<defs>
<filter id="filter0_d_769_67300" x="531" y="8" width="520" height="393" filterUnits="userSpaceOnUse" color-interpolation-filters="sRGB">
<feFlood flood-opacity="0" result="BackgroundImageFix"/>
<feColorMatrix in="SourceAlpha" type="matrix" values="0 0 0 0 0 0 0 0 0 0 0 0 0 0 0 0 0 0 127 0" result="hardAlpha"/>
<feOffset dy="10"/>
<feGaussianBlur stdDeviation="10"/>
<feColorMatrix type="matrix" values="0 0 0 0 0.160784 0 0 0 0 0.160784 0 0 0 0 0.160784 0 0 0 0.15 0"/>
<feBlend mode="normal" in2="BackgroundImageFix" result="effect1_dropShadow_769_67300"/>
<feBlend mode="normal" in="SourceGraphic" in2="effect1_dropShadow_769_67300" result="shape"/>
</filter>
<filter id="filter1_d_769_67300" x="12" y="8" width="520" height="393" filterUnits="userSpaceOnUse" color-interpolation-filters="sRGB">
<feFlood flood-opacity="0" result="BackgroundImageFix"/>
<feColorMatrix in="SourceAlpha" type="matrix" values="0 0 0 0 0 0 0 0 0 0 0 0 0 0 0 0 0 0 127 0" result="hardAlpha"/>
<feOffset dy="10"/>
<feGaussianBlur stdDeviation="10"/>
<feColorMatrix type="matrix" values="0 0 0 0 0.160784 0 0 0 0 0.160784 0 0 0 0 0.160784 0 0 0 0.15 0"/>
<feBlend mode="normal" in2="BackgroundImageFix" result="effect1_dropShadow_769_67300"/>
<feBlend mode="normal" in="SourceGraphic" in2="effect1_dropShadow_769_67300" result="shape"/>
</filter>
<linearGradient id="paint0_linear_769_67300" x1="2123.07" y1="43.8043" x2="319.244" y2="3050.17" gradientUnits="userSpaceOnUse">
<stop stop-color="#2B9AF3"/>
<stop offset="1" stop-color="#73BCF7" stop-opacity="0.502213"/>
</linearGradient>
<linearGradient id="paint1_linear_769_67300" x1="667.196" y1="-1412.07" x2="-2339.17" y2="391.756" gradientUnits="userSpaceOnUse">
<stop stop-color="#2B9AF3"/>
<stop offset="1" stop-color="#73BCF7" stop-opacity="0.502213"/>
</linearGradient>
<linearGradient id="paint2_linear_769_67300" x1="1604.07" y1="43.8043" x2="-199.756" y2="3050.17" gradientUnits="userSpaceOnUse">
<stop stop-color="#2B9AF3"/>
<stop offset="1" stop-color="#73BCF7" stop-opacity="0.502213"/>
</linearGradient>
<linearGradient id="paint3_linear_769_67300" x1="148.196" y1="-1412.07" x2="-2858.17" y2="391.756" gradientUnits="userSpaceOnUse">
<stop stop-color="#2B9AF3"/>
<stop offset="1" stop-color="#73BCF7" stop-opacity="0.502213"/>
</linearGradient>
<clipPath id="clip0_769_67300">
<rect width="1062" height="241" fill="white"/>
</clipPath>
<clipPath id="clip1_769_67300">
<path d="M551 34C551 25.1634 558.163 18 567 18H1015C1023.84 18 1031 25.1634 1031 34V355C1031 363.837 1023.84 371 1015 371H567C558.163 371 551 363.837 551 355V34Z" fill="white"/>
</clipPath>
<clipPath id="clip2_769_67300">
<rect width="29" height="21" fill="white" transform="translate(898 51)"/>
</clipPath>
<clipPath id="clip3_769_67300">
<path d="M32 34C32 25.1634 39.1634 18 48 18H496C504.837 18 512 25.1634 512 34V355C512 363.837 504.837 371 496 371H48C39.1635 371 32 363.837 32 355V34Z" fill="white"/>
</clipPath>
<clipPath id="clip4_769_67300">
<rect width="29" height="21" fill="white" transform="translate(379 51)"/>
</clipPath>
</defs>
</svg>
